<svg width="126" height="35" viewBox="0 0 126 35" fill="none" xmlns="http://www.w3.org/2000/svg">
<path d="M31.6262 21.445C30.8753 21.445 30.2912 20.8609 30.2077 20.1099C29.707 12.9337 25.7851 2.83709 18.5256 2.83709C12.5177 2.83709 8.01174 7.00926 5.09121 15.2702C4.84088 16.0212 4.00643 16.4384 3.25545 16.1046C2.50446 15.8543 2.08724 15.0198 2.421 14.3523C5.75876 4.83973 11.1826 0 18.5256 0C28.1215 0 32.5441 12.1828 33.0448 19.943C33.1282 20.694 32.5441 21.445 31.7097 21.445H31.6262Z" fill="#1D2D35"/>
<path opacity="0.4" d="M34.9628 24.1984L9.92979 34.5453L0 10.5136L4.50595 8.6778L25.1166 0.25L34.9628 24.1984Z" fill="#FFE000"/>
<path d="M33.7921 26.9504L7.25694 32.4575L2 7.00727L6.42251 6.08939L28.5352 1.5L33.7921 26.9504Z" fill="#FFE000"/>
<path d="M18.189 26.7019C13.3493 26.7019 8.67647 24.6159 5.42217 20.9443C5.00496 20.6106 4.9215 20.0265 5.0884 19.5258C6.00628 17.1059 8.42613 11.5152 11.5136 11.4318C13.099 11.4318 14.2672 12.6834 15.1851 13.6848C15.4354 14.0185 15.8526 14.4357 16.1864 14.6861C16.9374 13.9351 18.3559 11.5987 19.4407 9.1788C19.7745 8.42779 20.6089 8.17748 21.3599 8.51125C22.1109 8.84503 22.3612 9.67945 22.0275 10.4305C18.6897 17.69 16.9374 17.69 16.2698 17.69C14.9348 17.69 14.0169 16.6887 13.099 15.6874C12.6818 15.2702 11.8473 14.3523 11.5136 14.3523C10.7626 14.4357 9.17714 17.0225 8.09236 19.7761C10.846 22.5298 14.601 24.0318 18.4394 23.9483C21.7771 23.9483 27.7016 23.3642 30.1214 19.7761C29.454 12.6 25.5321 2.92052 18.4394 2.92052C17.6884 2.92052 17.0208 2.25298 17.0208 1.50198C17.0208 0.750991 17.6884 0 18.5228 0C28.1187 0 32.5413 12.1828 33.042 19.943C33.042 20.1933 32.9585 20.5271 32.875 20.7775C30.6221 24.6159 25.5321 26.7853 18.5228 26.7853C18.4394 26.7019 18.2725 26.7019 18.189 26.7019Z" fill="#1D2D35"/>
<path d="M39.0469 7.09375H44.1368C46.9739 7.09375 48.4759 8.26197 48.4759 10.4315V10.5149C48.5594 11.85 47.6415 13.0182 46.3897 13.2686C47.9752 13.4355 49.0601 14.7706 48.9766 16.356V16.4394C48.9766 18.8593 47.3911 20.111 44.3873 20.111H39.0469V7.09375ZM43.6362 12.4341C45.0547 12.4341 45.6389 11.9335 45.6389 10.7653V10.6818C45.6389 9.59706 45.0547 9.09639 43.6362 9.09639H41.8839V12.4341H43.6362ZM43.9699 18.0249C45.3886 18.0249 46.056 17.3573 46.056 16.1891V16.1057C46.056 14.9374 45.3884 14.2699 43.8031 14.2699H41.9674V18.0249H43.9699Z" fill="#1D2D35"/>
<path d="M49.7266 17.4365C49.7266 15.2669 51.7293 14.4325 54.6496 14.4325H55.7344V14.0153C55.7344 12.8471 55.4007 12.263 54.2324 12.263C53.4815 12.1795 52.7304 12.6802 52.6471 13.5146V13.598H50.1438C50.3105 11.3451 52.063 10.3438 54.3993 10.3438C56.7357 10.3438 58.4047 11.2616 58.4047 13.8484V20.0232H55.8179V18.9384C55.1502 19.8563 54.0656 20.357 52.9808 20.2735C51.1451 20.2735 49.7266 19.4391 49.7266 17.4365ZM55.7344 16.7689V15.9345H54.733C53.231 15.9345 52.3132 16.2682 52.3132 17.2696C52.3132 17.9371 52.7304 18.4378 53.7317 18.4378C54.8165 18.4378 55.7344 17.7702 55.7344 16.7689Z" fill="#1D2D35"/>
<path d="M59.4141 17.1027H61.8339C61.9174 17.9371 62.3346 18.4378 63.5029 18.4378C64.6712 18.4378 65.0049 18.0206 65.0049 17.4365C65.0049 16.8523 64.4208 16.5186 63.0857 16.2682C60.5824 15.851 59.581 15.1835 59.581 13.2643C59.581 11.3451 61.3333 10.3438 63.336 10.3438C65.4221 10.3438 67.0076 11.0947 67.2578 13.2643H64.838C64.6712 12.5133 64.2538 12.0961 63.336 12.0961C62.4181 12.0961 62.0009 12.5133 62.0009 13.0974C62.0009 13.6815 62.4181 13.9318 63.8366 14.0987C66.173 14.4325 67.5083 15.0166 67.5083 17.1027C67.5083 19.1888 66.0063 20.2735 63.5029 20.2735C60.9996 20.2735 59.4975 19.1053 59.4141 17.1027Z" fill="#1D2D35"/>
<path d="M68.2597 15.4338V15.2669C68.0928 12.6802 70.0954 10.4272 72.7658 10.3438H73.183C75.6028 10.3438 77.8557 11.7623 77.8557 15.1835V15.9345H70.9298C71.0133 17.5199 71.8479 18.4378 73.2664 18.4378C74.518 18.4378 75.1022 17.9371 75.2689 17.1027H77.7723C77.4386 19.1888 75.853 20.2735 73.2664 20.2735C70.3459 20.2735 68.2597 18.4378 68.2597 15.4338ZM75.1856 14.2656C75.1022 12.8471 74.351 12.0961 73.0995 12.0961C71.9312 12.0961 70.9298 13.0139 70.9298 14.2656H75.1856Z" fill="#1D2D35"/>
<path d="M78.4322 15.4338V15.2669C78.3487 12.6802 80.3514 10.4272 82.938 10.3438H83.3554C85.5249 10.3438 87.611 11.2616 87.7778 14.0153H85.2746C85.1912 13.0974 84.3565 12.3464 83.4387 12.4298C82.1036 12.4298 81.1858 13.4312 81.1858 15.2669V15.4338C81.1858 17.353 82.0202 18.3543 83.5222 18.3543C84.607 18.4378 85.5249 17.6033 85.5249 16.5186H87.8612C87.6943 18.7715 86.109 20.357 83.3554 20.357C80.6016 20.357 78.4322 18.5212 78.4322 15.4338Z" fill="#1D2D35"/>
<path d="M88.5391 17.439C88.5391 15.2694 90.5418 14.435 93.4623 14.435H94.5469V14.0178C94.5469 12.8495 94.2132 12.2654 93.0449 12.2654C92.294 12.182 91.5431 12.6827 91.4596 13.5171V13.684H88.9562C89.1232 11.431 90.8755 10.4297 93.2118 10.4297C95.5482 10.4297 97.2172 11.3476 97.2172 13.9343V20.0257H94.6304V18.9409C93.963 19.8588 92.8781 20.3595 91.7933 20.276C89.9576 20.276 88.5391 19.4416 88.5391 17.439ZM94.4634 16.7714V15.937H93.4623C91.9603 15.937 91.0424 16.2707 91.0424 17.2721C91.0424 17.9396 91.4596 18.4403 92.461 18.4403C93.629 18.4403 94.4634 17.7727 94.4634 16.7714Z" fill="#1D2D35"/>
<path d="M98.8828 10.6011H101.553V12.0196C102.137 10.9349 103.222 10.3508 104.473 10.3508C105.642 10.2673 106.727 10.9349 107.144 12.0196C107.895 10.9349 109.063 10.3508 110.315 10.3508C112.067 10.3508 113.486 11.4355 113.486 14.0223V20.0302H110.899V14.2726C110.899 13.021 110.398 12.5203 109.397 12.5203C108.395 12.4369 107.561 13.2713 107.561 14.1892V14.4395V20.0302H104.974V14.2726C104.974 13.021 104.39 12.5203 103.472 12.5203C102.471 12.4369 101.72 13.2713 101.636 14.1892V14.4395V20.0302H98.9663L98.8828 10.6011Z" fill="#1D2D35"/>
<path d="M115.242 10.5966H117.829V12.0986C118.496 11.0138 119.665 10.4297 120.833 10.4297C123.169 10.4297 125.005 12.182 125.005 15.2694V15.4363C125.005 18.6071 123.253 20.3595 120.833 20.3595C119.581 20.4429 118.413 19.7754 117.829 18.6906V23.3634H115.242V10.5966ZM122.335 15.3529V15.186C122.335 13.2668 121.417 12.3489 120.082 12.3489C118.747 12.3489 117.746 13.2668 117.746 15.186V15.3529C117.746 17.2721 118.663 18.1899 120.082 18.1899C121.5 18.1899 122.335 17.1886 122.335 15.3529Z" fill="#1D2D35"/>
</svg>
