<svg width="133" height="27" viewBox="0 0 133 27" fill="none" xmlns="http://www.w3.org/2000/svg">
<path d="M133.004 7.17955V10.1611H130.38V20.2136H127.22V10.1611H124.417V7.17955H127.22V3.31821H130.38V7.17955H133.004ZM116.499 7.06552C119.627 7.06552 122.511 8.93916 122.511 12.5072V20.2136H119.35V13.9735C119.35 10.9268 118.243 9.90041 116.499 9.90041C114.283 9.90041 112.98 11.5786 112.899 13.6803V20.1972H109.738V7.16326H112.719V8.61328C113.404 7.58687 114.658 7.06552 116.499 7.06552ZM95.5146 13.6966C95.5146 15.7494 97.111 17.4765 99.3432 17.4765C101.543 17.4765 103.123 15.7494 103.123 13.6966C103.123 11.6437 101.559 9.91669 99.3432 9.91669C97.111 9.90041 95.5146 11.6274 95.5146 13.6966ZM92.37 13.6966C92.37 9.96557 95.091 6.91886 98.8055 6.91886C101.038 6.91886 102.96 8.15709 103.628 9.65602V7.17955H106.626V20.2136H103.628V17.6394C102.96 19.4479 101.038 20.4743 98.8055 20.4743C95.091 20.4579 92.37 17.4276 92.37 13.6966ZM90.1054 11.269C89.0789 10.2914 88.0036 9.90041 86.7979 9.90041C84.8754 9.90041 82.9529 11.4156 82.9529 13.6803C82.9529 15.9449 84.8754 17.4602 86.7979 17.4602C88.0036 17.4602 89.0789 17.0528 90.1054 16.0753V19.122C89.2256 19.8878 87.9547 20.4579 86.2767 20.4579C82.4317 20.4579 79.5967 17.3624 79.5967 13.6803C79.5967 10.0308 82.4154 6.90259 86.2767 6.90259C87.9386 6.90259 89.2256 7.47282 90.1054 8.23856V11.269ZM76.8268 7.17955V20.2136H73.6662V7.17955H76.8268ZM70.6521 0.890625V20.2136H67.4913V0.890625H70.6521ZM54.4408 13.6966C54.4408 15.7494 55.9888 17.4765 58.2207 17.4765C60.4203 17.4765 62.017 15.7494 62.017 13.6966C62.017 11.6437 60.4203 9.91669 58.2207 9.91669C55.9888 9.90041 54.4408 11.6274 54.4408 13.6966ZM50.9381 26.1278V7.17955H53.9197V9.65602C54.4408 8.10823 56.51 6.91886 58.7421 6.91886C62.4567 6.91886 65.2103 9.96557 65.2103 13.6966C65.2103 17.4276 62.4567 20.4743 58.7421 20.4743C56.51 20.4743 54.7831 19.2849 54.0987 17.8023V26.1441H50.9381V26.1278ZM41.7654 9.72121C39.8429 9.72121 38.5068 10.9757 38.4253 12.4746H45.1054C45.0076 11.0409 43.7367 9.72121 41.7654 9.72121ZM48.266 13.8432V14.6741H38.4415C38.523 16.2708 39.7287 17.6557 42.0098 17.6557C43.6553 17.6557 44.698 16.7759 45.2193 15.8798H48.038C47.7772 17.8838 45.5778 20.4579 41.9773 20.4579C37.9691 20.4579 35.2809 17.4113 35.2809 13.6151C35.2809 9.98188 37.8551 6.91886 41.7815 6.91886C45.7734 6.91886 48.266 10.1122 48.266 13.8432ZM32.6251 7.06552C33.3746 7.06552 33.9614 7.19586 34.2381 7.47282V10.1448C33.9776 9.99817 32.9998 9.8841 32.4948 9.8841C30.8004 9.8841 29.8717 11.6274 29.8717 14.3971V20.1972H26.7109V7.16326H29.6925V8.61328C30.5234 7.61946 31.338 7.06552 32.6251 7.06552Z" fill="#1D2D35"/>
<path d="M75.3534 1.54688L77.3414 3.53456C77.3575 3.55085 77.3575 3.56716 77.3414 3.58344L75.3534 5.57113C75.3373 5.58743 75.3209 5.58743 75.3047 5.57113L73.317 3.58344C73.3006 3.56716 73.3006 3.55085 73.317 3.53456L75.3047 1.54688C75.3209 1.54688 75.3373 1.54688 75.3534 1.54688Z" fill="#1D2D35"/>
<path fill-rule="evenodd" clip-rule="evenodd" d="M16.1661 9.80405L13.0379 13.1277H7.12373V20.2639L3.89782 23.4897L0.671875 20.2639V9.80405C0.671875 8.02814 2.07303 6.57812 3.78375 6.57812H13.0379L16.1661 9.80405Z" fill="#FFE000"/>
<path fill-rule="evenodd" clip-rule="evenodd" d="M18.9397 7.06743L16.7402 9.33207L13.2861 5.84549H3.88534C3.46174 5.84549 3.05441 5.91064 2.67969 6.04098C3.10329 4.59094 4.53702 3.51562 6.05224 3.51562H15.4205L18.9397 7.06743Z" fill="#1D2D35"/>
<path fill-rule="evenodd" clip-rule="evenodd" d="M9.64442 13.7812V17.724L7.83594 19.5163V13.7812H9.64442Z" fill="#1D2D35"/>
</svg>
