<svg width="117" height="18" viewBox="0 0 117 18" fill="none" xmlns="http://www.w3.org/2000/svg">
<path fill-rule="evenodd" clip-rule="evenodd" d="M47.8372 16V9.52175C47.8372 7.7768 46.8603 6.31873 45.1627 6.31873C43.4649 6.31873 42.3953 7.7768 42.3953 9.52175V16H40V4.19102H42.2325L42.3953 5.76887C43.0463 4.4779 44.3953 4 45.6046 4C47.0697 4 48.5579 4.62133 49.2092 6.3663C50.1395 4.62133 51.5813 4.02391 53.1393 4.02391C56.3021 4.02391 58 6.07965 58 9.47395V16H55.5814V9.47395C55.5814 7.72898 54.7442 6.34239 53.0463 6.34239C51.3487 6.34239 50.2558 7.7768 50.2558 9.52175V16H47.8372Z" fill="#1D2D35"/>
<path fill-rule="evenodd" clip-rule="evenodd" d="M62.4236 10.5127C62.4236 12.7428 63.7648 14.5673 65.9763 14.5673C68.2119 14.5673 69.5532 12.7428 69.5532 10.5127C69.5532 8.30806 68.0943 6.40733 65.9763 6.40733C63.7648 6.40733 62.4236 8.30806 62.4236 10.5127ZM72 10.5127C72 14.2125 69.6237 17 65.9763 17C62.353 17 60 14.2125 60 10.5127C60 6.83842 62.3768 4 65.9763 4C69.5532 4 72 6.83842 72 10.5127Z" fill="#1D2D35"/>
<path fill-rule="evenodd" clip-rule="evenodd" d="M82.1379 7.3434C81.2412 6.44504 80.2759 6.19549 79.1496 6.19549C77.7012 6.17079 76.7356 6.69458 76.7356 7.6678C76.7586 8.69093 77.7472 9.0902 79.1953 9.23993C81.2872 9.43932 84.0228 9.93841 83.9999 13.1074C83.977 15.403 82.1148 17 79.1724 17C77.3333 17 75.4942 16.5508 74 14.7294L75.2412 12.9078C76.2988 14.1804 77.8851 14.7045 79.2183 14.7294C80.3448 14.7294 81.6091 14.2802 81.632 13.1323C81.6551 12.0343 80.6897 11.6104 79.0114 11.4357C76.8735 11.2111 74.4138 10.4624 74.3908 7.74267C74.3908 5.02289 76.9884 4 79.1033 4C80.8506 4 82.2068 4.42397 83.471 5.64675L82.1379 7.3434Z" fill="#1D2D35"/>
<path fill-rule="evenodd" clip-rule="evenodd" d="M88.3498 10.4622C88.3498 13.0268 89.9923 14.5859 91.9998 14.5859C96.8595 14.5859 96.8595 6.36378 91.9998 6.36378C89.9923 6.36378 88.3498 7.92261 88.3498 10.4622ZM95.7187 4.27661H98C98 8.40039 98 12.5491 98 16.6729H95.7642L95.6501 14.6614C94.8973 16.2453 93.1632 16.9998 91.7718 16.9998C88.4865 17.0249 86 14.6863 86 10.4622C86 6.31348 88.5779 4 91.8173 4C93.4144 4 94.9429 4.82984 95.6501 6.23805L95.7187 4.27661Z" fill="#1D2D35"/>
<path fill-rule="evenodd" clip-rule="evenodd" d="M101.281 16H103.695V4.70179H101.281V16ZM104 1.43807C104 3.37807 101 3.37807 101 1.43807C101 -0.479356 104 -0.479356 104 1.43807Z" fill="#1D2D35"/>
<path fill-rule="evenodd" clip-rule="evenodd" d="M117 15.0675C115.647 16.4228 114.145 17 112.398 17C108.904 17 106 14.7665 106 10.5C106 6.23378 108.879 4 112.398 4C114.072 4 115.474 4.52707 116.779 5.8322L115.154 7.56375C114.392 6.81079 113.383 6.45966 112.423 6.45966C110.233 6.45966 108.535 8.04062 108.535 10.5C108.535 13.11 110.306 14.4904 112.398 14.4904C113.432 14.4904 114.49 14.1641 115.277 13.336L117 15.0675Z" fill="#1D2D35"/>
<path fill-rule="evenodd" clip-rule="evenodd" d="M4.63585 17.8381L0.126194 13.3058C-0.0420646 13.1369 -0.0420646 12.8631 0.126194 12.6942L4.63585 8.16186C4.85062 7.94605 5.19887 7.94605 5.41364 8.16186L9.83893 12.6091C10.0537 12.8249 10.0537 13.1749 9.83893 13.3907L5.41364 17.8381C5.19887 18.054 4.85062 18.054 4.63585 17.8381Z" fill="#FFE000"/>
<path fill-rule="evenodd" clip-rule="evenodd" d="M10.6092 11.8542L6.16186 7.85166C5.94605 7.65741 5.94605 7.34243 6.16186 7.14818L10.6092 3.14568C10.825 2.95144 11.175 2.95144 11.3908 3.14568L15.838 7.14818C16.054 7.34243 16.054 7.65741 15.838 7.85166L11.3908 11.8542C11.175 12.0486 10.825 12.0486 10.6092 11.8542Z" fill="#1D2D35"/>
<path fill-rule="evenodd" clip-rule="evenodd" d="M17.1483 17.8381L13.1457 13.3909C12.9514 13.1751 12.9514 12.8251 13.1457 12.6093L17.1483 8.16205C17.3425 7.94598 17.6575 7.94598 17.8518 8.16205L21.8543 12.6093C22.0486 12.8251 22.0486 13.1751 21.8543 13.3909L17.8518 17.8381C17.6575 18.054 17.3425 18.054 17.1483 17.8381Z" fill="#FFE000"/>
<path fill-rule="evenodd" clip-rule="evenodd" d="M23.6092 11.8543L19.1619 7.85174C18.946 7.6575 18.946 7.3425 19.1619 7.14826L23.6092 3.14568C23.825 2.95144 24.175 2.95144 24.3908 3.14568L28.8381 7.14826C29.054 7.3425 29.054 7.6575 28.8381 7.85174L24.3908 11.8543C24.175 12.0486 23.825 12.0486 23.6092 11.8543Z" fill="#1D2D35"/>
<path fill-rule="evenodd" clip-rule="evenodd" d="M29.1483 17.8381L25.1457 13.3907C24.9514 13.1749 24.9514 12.8249 25.1457 12.6091L29.1483 8.16187C29.3425 7.94604 29.6575 7.94604 29.8517 8.16187L33.8543 12.6091C34.0486 12.8249 34.0486 13.1749 33.8543 13.3907L29.8517 17.8381C29.6575 18.054 29.3425 18.054 29.1483 17.8381Z" fill="#FFE000"/>
</svg>
