<svg width="125" height="26" viewBox="0 0 125 26" fill="none" xmlns="http://www.w3.org/2000/svg">
<path fill-rule="evenodd" clip-rule="evenodd" d="M0 0H25.8621V26H0V0ZM7.58621 6.32721L12.069 14.7339V20.1939H13.7931V14.8205L18.2759 6.32721H16.3793L13.7931 11.6139C13.6207 11.8739 13.4483 12.1339 13.3621 12.3939C13.3124 12.5934 13.2343 12.7355 13.1604 12.8698C13.1059 12.9688 13.0538 13.0635 13.0172 13.1739C12.9741 13.1305 12.9526 13.0655 12.931 13.0005C12.9095 12.9355 12.8879 12.8705 12.8448 12.8272C12.8017 12.7405 12.7802 12.6755 12.7586 12.6105C12.7371 12.5455 12.7155 12.4805 12.6724 12.3939V12.3072L12.5862 12.2205C12.5533 12.1543 12.5329 12.1008 12.5156 12.055C12.4874 11.981 12.4671 11.9274 12.4138 11.8739C12.3276 11.7872 12.2414 11.7005 12.2414 11.6139L9.65517 6.32721H7.58621Z" fill="#1C1B4E"/>
<path d="M37.673 5.03125C38.9661 5.03125 40.0867 5.3779 40.9488 6.07123L40.0867 7.11123C39.3109 6.59123 38.535 6.24457 37.5867 6.24457C36.1212 6.24457 35.0005 7.02457 34.3971 8.4979C34.0523 9.36457 33.8798 10.4912 33.8798 11.9646C33.8798 13.0912 34.0523 14.0446 34.3109 14.7379C35.0005 16.3846 36.1212 17.1646 37.8454 17.1646C38.7936 17.1646 39.6557 16.9046 40.4316 16.2979L41.2936 17.4246C40.173 18.118 38.9661 18.4646 37.673 18.4646C36.1212 18.4646 34.8281 17.8579 33.7936 16.5579C32.7592 15.3446 32.3281 13.6979 32.3281 11.7046C32.3281 9.71123 32.8454 8.15123 33.8798 6.85123C34.8281 5.72457 36.1212 5.03125 37.673 5.03125Z" fill="#1D2D35"/>
<path d="M42.5859 13.6048C42.5859 12.0448 42.9308 10.8315 43.7066 9.96479C44.4825 9.09813 45.4308 8.57812 46.6377 8.57812C48.017 8.57812 49.1377 9.09812 49.9135 10.2248C50.517 11.0915 50.7756 12.3048 50.7756 13.7781C50.7756 15.5115 50.2584 16.8981 49.3101 17.7648C48.6204 18.3714 47.7584 18.718 46.7239 18.718C45.4308 18.718 44.4825 18.2847 43.7066 17.3315C42.9308 16.4648 42.5859 15.1648 42.5859 13.6048ZM48.6204 11.0915C48.1894 10.3115 47.5859 9.87813 46.6377 9.87813C45.6894 9.87813 45.0859 10.2248 44.6549 10.9181C44.3101 11.4381 44.2239 12.3048 44.2239 13.4315C44.2239 14.9048 44.3963 15.9448 44.8273 16.5515C45.2584 17.1581 45.8618 17.5048 46.7239 17.5048C47.7584 17.5048 48.448 16.9848 48.7928 16.0315C48.9652 15.5115 49.0515 14.8181 49.0515 13.9515C49.1377 12.6515 48.9652 11.6981 48.6204 11.0915Z" fill="#1D2D35"/>
<path d="M53.5323 11.2648C53.5323 10.3115 53.4461 9.53146 53.1875 8.92479L54.653 8.57812C54.9116 9.01146 54.9978 9.53146 54.9978 9.96479V10.0515C55.3427 9.70479 55.6875 9.35813 56.2047 9.09813C56.8082 8.75146 57.3254 8.57812 57.8427 8.57812C58.6185 8.57812 59.3082 8.92479 59.7392 9.53146C59.8254 9.70479 59.9978 9.96479 60.0841 10.1381C61.1185 9.09812 62.0668 8.57812 63.1013 8.57812C63.7909 8.57812 64.3944 8.83813 64.8254 9.27146C65.2565 9.79146 65.5151 10.3981 65.5151 11.0915V18.2847H63.9634V11.1781C63.9634 10.2248 63.5323 9.79146 62.7565 9.79146C62.3254 9.79146 61.8082 9.96479 61.3772 10.3115C61.2047 10.4848 60.8599 10.7448 60.4289 11.0915L60.2565 11.2648V18.2847H58.6185V11.5248C58.6185 10.9181 58.5323 10.4848 58.3599 10.3115C58.1013 10.0515 57.8427 9.96479 57.4116 9.96479C56.722 9.96479 55.9461 10.3981 54.9978 11.2648V18.3714H53.5323V11.2648Z" fill="#1D2D35"/>
<path d="M68.1875 4.67479L69.7392 4.32812C69.9116 5.02146 69.9978 5.80146 69.9978 6.75479V8.92146C69.9978 9.44146 69.9978 9.78813 69.9978 9.96146C70.8599 9.09479 71.8082 8.66146 72.7565 8.66146C73.8772 8.66146 74.8254 9.09479 75.4289 9.96146C76.1185 10.8281 76.4634 12.0415 76.4634 13.5148C76.4634 15.0748 76.1185 16.2881 75.4289 17.2415C74.7392 18.1948 73.791 18.6281 72.6703 18.6281C72.153 18.6281 71.722 18.5415 71.2047 18.2815C70.6875 18.0215 70.3427 17.7615 70.0841 17.4148C69.9978 17.8481 69.9116 18.1948 69.8254 18.4548H68.3599C68.5323 18.0215 68.6185 17.2415 68.6185 16.0281V6.92813C68.5323 5.88813 68.4461 5.10813 68.1875 4.67479ZM70.6875 10.5681C70.4289 10.7415 70.1703 11.0015 69.9978 11.2615V16.2015C70.6013 16.9815 71.3772 17.3281 72.3254 17.3281C73.1013 17.3281 73.7047 17.0681 74.0496 16.4615C74.4806 15.7681 74.7392 14.8148 74.7392 13.4281C74.7392 12.2148 74.5668 11.3481 74.1358 10.8281C73.7909 10.3081 73.1875 10.0481 72.3254 10.0481C71.8082 9.96146 71.2047 10.1348 70.6875 10.5681Z" fill="#1D2D35"/>
<path d="M78.7031 5.89302C78.7031 5.54635 78.7893 5.28635 79.048 5.02635C79.3066 4.76635 79.5652 4.67969 79.91 4.67969C80.2548 4.67969 80.5135 4.76635 80.7721 5.02635C81.0307 5.28635 81.1169 5.54635 81.1169 5.89302C81.1169 6.23969 81.0307 6.49969 80.7721 6.75969C80.5135 7.01969 80.2548 7.10635 79.91 7.10635C79.5652 7.10635 79.3066 7.01969 79.048 6.75969C78.7893 6.49969 78.7031 6.23969 78.7031 5.89302ZM79.048 18.373V8.83969L80.5997 8.57969V18.373H79.048Z" fill="#1D2D35"/>
<path d="M83.9623 11.2648C83.9623 10.5715 83.9623 10.1381 83.8761 9.96479C83.8761 9.70479 83.7037 9.44479 83.5312 9.01146L84.9968 8.57812C85.2554 9.09813 85.3416 9.53146 85.3416 10.0515C86.2899 9.09812 87.3244 8.57812 88.3588 8.57812C88.8761 8.57812 89.3071 8.66479 89.7381 8.92479C90.1692 9.18479 90.514 9.53146 90.6864 9.96479C90.8588 10.3115 90.945 10.6581 90.945 11.0915V18.3714H89.4795V11.8715C89.4795 11.0915 89.3933 10.5715 89.1347 10.3115C88.8761 10.0515 88.5313 9.87813 88.1002 9.87813C87.7554 9.87813 87.2381 10.0515 86.7209 10.3115C86.2037 10.5715 85.7726 10.9181 85.4278 11.2648V18.3714H83.9623V11.2648Z" fill="#1D2D35"/>
<path d="M94.3944 10.9181L93.6185 9.87813C94.9116 9.01146 96.2047 8.57812 97.584 8.57812C98.9634 8.57812 99.8254 9.09812 100.256 10.0515C100.429 10.3981 100.429 10.9181 100.429 11.6981V12.2181L100.343 15.3381C100.343 15.4248 100.343 15.5981 100.343 15.7715C100.343 16.2915 100.343 16.6381 100.429 16.8981C100.515 17.2448 100.774 17.5048 101.119 17.6781L100.343 18.718C99.653 18.458 99.222 18.0248 99.0496 17.3315C98.1875 18.198 97.2392 18.6314 96.2909 18.6314C95.3427 18.6314 94.5668 18.3714 93.9634 17.8515C93.4461 17.4181 93.1875 16.7248 93.1875 15.8581C93.1875 14.7315 93.6185 13.9515 94.4806 13.3448C95.3427 12.7381 96.6358 12.4781 98.1875 12.4781C98.4461 12.4781 98.6185 12.4781 98.8772 12.4781V11.7848C98.8772 11.0048 98.7909 10.4848 98.5323 10.3115C98.1875 9.96479 97.8427 9.79146 97.2392 9.79146C96.722 9.79146 96.1185 9.96479 95.4289 10.2248C95.1703 10.3981 94.8254 10.6581 94.3944 10.9181ZM98.9634 16.0315L99.0496 13.5181C98.6185 13.5181 98.3599 13.5181 98.2737 13.5181C96.8944 13.5181 96.0323 13.7781 95.5151 14.2981C95.1703 14.6448 94.9978 15.1648 94.9978 15.8581C94.9978 16.9848 95.5151 17.5915 96.6358 17.5915C97.6703 17.5048 98.4461 16.9848 98.9634 16.0315Z" fill="#1D2D35"/>
<path d="M105.345 8.83583H107.758L107.327 10.0492H105.345V16.2025C105.345 16.7225 105.431 17.0692 105.603 17.3292C105.776 17.5025 106.12 17.6758 106.551 17.6758C106.896 17.6758 107.241 17.5892 107.5 17.5025L107.672 18.4559C107.155 18.7159 106.638 18.8026 106.034 18.8026C104.569 18.8026 103.879 18.1092 103.879 16.6358V10.0492H102.586V8.83583H103.793V8.6625C103.793 8.48917 103.879 7.79583 103.965 6.66917V6.40917L105.517 6.0625C105.345 7.1025 105.345 8.05583 105.345 8.83583Z" fill="#1D2D35"/>
<path d="M109.312 13.6048C109.312 12.0448 109.657 10.8315 110.433 9.96479C111.123 9.09813 112.157 8.57812 113.364 8.57812C114.744 8.57812 115.864 9.09812 116.64 10.2248C117.244 11.0915 117.502 12.3048 117.502 13.7781C117.502 15.5115 116.985 16.8981 116.037 17.7648C115.347 18.3714 114.485 18.718 113.45 18.718C112.157 18.718 111.209 18.2847 110.433 17.3315C109.744 16.4648 109.312 15.1648 109.312 13.6048ZM115.433 11.0915C115.002 10.3115 114.399 9.87813 113.45 9.87813C112.502 9.87813 111.899 10.2248 111.468 10.9181C111.123 11.4381 111.037 12.3048 111.037 13.4315C111.037 14.9048 111.209 15.9448 111.64 16.5515C112.071 17.1581 112.675 17.5048 113.537 17.5048C114.571 17.5048 115.261 16.9848 115.606 16.0315C115.778 15.5115 115.864 14.8181 115.864 13.9515C115.864 12.6515 115.692 11.6981 115.433 11.0915Z" fill="#1D2D35"/>
<path d="M120.345 11.0915C120.345 10.2248 120.259 9.53146 120 9.01146L121.466 8.57812C121.724 9.09813 121.81 9.53146 121.81 10.0515V10.2248C122.586 9.18479 123.448 8.66479 124.483 8.66479C124.655 8.66479 124.828 8.66479 125 8.75146L124.397 10.3981C124.224 10.3115 124.052 10.3115 123.966 10.3115C123.621 10.3115 123.19 10.3981 122.845 10.6581C122.5 10.9181 122.155 11.1781 121.983 11.5248C121.897 11.7848 121.81 12.1315 121.81 12.5648V18.5447H120.345V11.0915Z" fill="#1D2D35"/>
</svg>
