<svg width="121" height="95" viewBox="0 0 121 95" fill="none" xmlns="http://www.w3.org/2000/svg">
<path d="M78.6909 31.627C82.0627 35.6245 86.5976 38.9521 90.47 42.4638C92.0528 43.8993 94.4087 41.5362 92.8111 40.1227C88.7989 36.5668 84.8897 32.3484 80.4357 29.3595C78.9633 28.3951 77.6897 30.4491 78.6835 31.627L78.6909 31.627Z" fill="white"/>
<path d="M62.5779 62.2942L64.7129 68.2721C65.4491 70.3924 68.8871 69.4795 68.1141 67.3298L65.9865 61.3519C65.2503 59.2317 61.8122 60.1445 62.5779 62.2942Z" fill="white"/>
<path d="M0.10914 41.9583L2.24411 47.9362C2.9803 50.0564 6.41833 49.1436 5.64533 46.9939L3.51772 41.016C2.78153 38.8957 -0.656503 39.8086 0.10914 41.9583Z" fill="white"/>
<path d="M76.6834 3.08521L79.2454 4.79319C80.0372 5.2469 81.0467 4.98144 81.5129 4.19687C81.9541 3.4034 81.6911 2.40311 80.9165 1.92939L78.3546 0.221414C77.5627 -0.232302 76.5533 0.0331608 76.0871 0.817732C75.6458 1.6112 75.9089 2.61149 76.6834 3.08521Z" fill="white"/>
<path d="M40.824 52.6477L43.386 54.3557C44.1779 54.8094 45.1873 54.5439 45.6535 53.7594C46.0948 52.9659 45.8317 51.9656 45.0572 51.4919L42.4952 49.7839C41.7034 49.3302 40.6939 49.5957 40.2277 50.3802C39.7864 51.1737 40.0495 52.174 40.824 52.6477Z" fill="white"/>
<path d="M101.127 10.4539C102.129 11.4864 103.406 12.2095 104.808 12.5373C105.647 12.7691 106.516 12.2763 106.747 11.4367C106.979 10.5971 106.486 9.72859 105.647 9.49683C104.764 9.3178 103.958 8.87342 103.335 8.22321C101.914 6.75082 99.6542 8.99622 101.127 10.4318L101.127 10.4539Z" fill="white"/>
<path d="M91.6876 84.0555C86.5342 85.9697 81.3809 87.8322 76.2717 89.8641C74.4827 90.6003 75.2263 93.5009 77.0815 92.8089C82.2348 90.8653 87.3072 88.7525 92.4091 86.6911C93.9992 86.0506 93.3514 83.4445 91.6729 84.0629L91.6876 84.0555Z" fill="white"/>
<path d="M29.2188 63.7196C24.0655 65.6337 18.9121 67.4963 13.8029 69.5282C12.014 70.2644 12.7575 73.165 14.6127 72.473C19.7661 70.5294 24.8385 68.4165 29.9403 66.3552C31.5305 65.7147 30.8826 63.1086 29.2041 63.727L29.2188 63.7196Z" fill="white"/>
<path d="M9.03364 90.8702L8.59928 92.5782C8.44936 93.1213 8.60059 93.7032 8.99599 94.1046C9.3914 94.506 9.97091 94.666 10.5162 94.5242C11.0616 94.3825 11.4898 93.9606 11.6398 93.4175L12.0447 91.739C12.1946 91.1958 12.0434 90.614 11.648 90.2126C11.2526 89.8112 10.673 89.6512 10.1277 89.7929C9.5824 89.9347 9.15411 90.3566 9.00419 90.8997L9.03364 90.8702Z" fill="white"/>
<path d="M79.7993 68.8702L79.3649 70.5782C79.215 71.1213 79.3662 71.7032 79.7616 72.1046C80.157 72.506 80.7365 72.666 81.2819 72.5242C81.8272 72.3825 82.2555 71.9606 82.4054 71.4175L82.8103 69.739C82.9602 69.1958 82.809 68.614 82.4136 68.2126C82.0182 67.8112 81.4387 67.6512 80.8933 67.7929C80.348 67.9347 79.9197 68.3566 79.7698 68.8997L79.7993 68.8702Z" fill="white"/>
<path d="M46.5076 7.39746L43.4082 13.287C42.5174 14.9876 45.1898 16.4674 45.9481 14.7594L48.672 8.64163C49.3199 7.16924 47.2732 5.91771 46.5076 7.37537L46.5076 7.39746Z" fill="white"/>
<path d="M118.578 25.46L115.479 31.3495C114.588 33.0501 117.26 34.5299 118.018 32.8219L120.742 26.7041C121.39 25.2317 119.344 23.9802 118.578 25.4379L118.578 25.46Z" fill="white"/>
<path d="M102.067 56.4911C100.02 58.5227 98.1096 60.6869 96.3472 62.9696C95.8292 63.5157 95.667 64.309 95.9291 65.0146C96.1912 65.7201 96.8319 66.2151 97.5809 66.2906C98.3298 66.366 99.0563 66.0088 99.4539 65.3696C101.18 63.0549 102.754 60.6302 104.166 58.1108C104.489 57.5313 104.34 56.8021 103.815 56.3964C103.289 55.9908 102.546 56.0311 102.067 56.4911Z" fill="#FF6739"/>
<path d="M39.5987 36.1552C37.5517 38.1867 35.6408 40.3509 33.8784 42.6337C33.3604 43.1798 33.1982 43.973 33.4604 44.6786C33.7225 45.3842 34.3632 45.8792 35.1121 45.9546C35.861 46.0301 36.5876 45.6728 36.9852 45.0337C38.7117 42.719 40.2856 40.2942 41.6968 37.7748C42.0207 37.1954 41.8714 36.4661 41.346 36.0605C40.8205 35.6549 40.0772 35.6952 39.5987 36.1552Z" fill="#FF6739"/>
<path d="M68.7291 46.6656L70.6579 47.9319C71.4884 48.4078 72.5472 48.1292 73.0358 47.3061C73.4953 46.4735 73.2198 45.4268 72.41 44.9282L70.4812 43.6619C69.6507 43.186 68.5919 43.4646 68.1033 44.2877C67.6438 45.1203 67.9193 46.167 68.7291 46.6656Z" fill="#FF6739"/>
<path d="M63.364 19.0815L62.0683 22.917C61.8986 23.5338 62.0709 24.1942 62.5202 24.6495C62.9695 25.1048 63.6276 25.2859 64.2466 25.1244C64.8656 24.9629 65.3514 24.4835 65.521 23.8667L66.7725 20.0164C67.0307 19.0752 66.477 18.1028 65.5357 17.8446C64.5945 17.5865 63.6221 18.1402 63.364 19.0815Z" fill="#FF6739"/>
<path d="M86.3952 15.4721L85.0995 19.3077C84.9299 19.9244 85.1021 20.5849 85.5515 21.0402C86.0008 21.4955 86.6589 21.6765 87.2778 21.515C87.8968 21.3535 88.3826 20.8741 88.5523 20.2573L89.8038 16.407C90.062 15.4658 89.5082 14.4935 88.567 14.2353C87.6257 13.9771 86.6534 14.5308 86.3952 15.4721Z" fill="#FF6739"/>
<path d="M50.9721 77.4601L50.236 79.9926C50.086 80.5358 50.2373 81.1176 50.6327 81.519C51.0281 81.9204 51.6076 82.0804 52.1529 81.9387C52.6982 81.7969 53.1265 81.375 53.2764 80.8319L53.8139 78.2479C53.9902 77.4805 53.5317 76.7102 52.7732 76.4994C52.0146 76.2886 51.2244 76.7118 50.9795 77.4601L50.9721 77.4601Z" fill="#FF6739"/>
<path d="M21.8958 18.2891L21.2553 25.975C21.0786 28.0658 24.3473 28.0585 24.5166 25.975L25.1571 18.2891C25.3338 16.1983 22.0725 16.2131 21.8958 18.2891Z" fill="#FF6739"/>
<path d="M50.5989 35.3282L49.9584 43.0141C49.7817 45.1049 53.0504 45.0975 53.2198 43.0141L53.8603 35.3282C54.0369 33.2374 50.7756 33.2521 50.5989 35.3282Z" fill="#FF6739"/>
<path d="M33.2574 79.0978C32.3383 80.6492 31.9603 82.4617 32.1825 84.2511C32.4254 86.5628 35.8193 86.1211 35.3334 83.8241C35.1154 82.5795 35.2064 81.3003 35.5985 80.099C35.7423 79.4872 35.4237 78.8609 34.8446 78.6169C34.2654 78.3728 33.5947 78.5823 33.2574 79.1125L33.2574 79.0978Z" fill="#FF6739"/>
</svg>
