<svg width="74" height="117" viewBox="0 0 74 117" fill="none" xmlns="http://www.w3.org/2000/svg">
<mask id="mask0_1057_6161" style="mask-type:alpha" maskUnits="userSpaceOnUse" x="0" y="0" width="74" height="117">
<path d="M16 6.99382e-07C7.16344 3.13124e-07 -3.13124e-07 7.16344 -6.99382e-07 16L-5.08301e-06 116.286L74 116.286L74 3.23464e-06L16 6.99382e-07Z" fill="#F5F5F5"/>
</mask>
<g mask="url(#mask0_1057_6161)">
<path fill-rule="evenodd" clip-rule="evenodd" d="M-81.6447 63.3225C-83.0511 73.8391 -74.2936 82.7966 -72.5689 93.2656C-69.6824 110.787 -81.3699 133.622 -68.1162 145.44C-56.0228 156.223 -35.0721 147.002 -20.7059 139.509C-8.39102 133.087 -3.30008 118.743 4.76057 107.432C9.7729 100.398 11.2723 91.231 17.7615 85.5317C28.8053 75.8323 47.9404 76.2238 54.9833 63.3226C61.9201 50.6158 61.8702 32.2412 53.1699 20.6703C44.3212 8.90191 25.9229 11.6376 12.169 6.38162C0.85739 2.05898 -9.0377 -10.7997 -20.7059 -7.56083C-33.1337 -4.11107 -35.4611 12.9103 -44.4989 22.1118C-50.6402 28.3643 -59.2663 31.1621 -65.134 37.672C-72.0599 45.3558 -80.2734 53.0693 -81.6447 63.3225Z" fill="#FFCC58"/>
<mask id="mask1_1057_6161" style="mask-type:alpha" maskUnits="userSpaceOnUse" x="-82" y="-9" width="142" height="160">
<path fill-rule="evenodd" clip-rule="evenodd" d="M-81.6447 63.3225C-83.0511 73.8391 -74.2936 82.7966 -72.5689 93.2656C-69.6824 110.787 -81.3699 133.622 -68.1162 145.44C-56.0228 156.223 -35.0721 147.002 -20.7059 139.509C-8.39102 133.087 -3.30008 118.743 4.76057 107.432C9.7729 100.398 11.2723 91.231 17.7615 85.5317C28.8053 75.8323 47.9404 76.2238 54.9833 63.3226C61.9201 50.6158 61.8702 32.2412 53.1699 20.6703C44.3212 8.90191 25.9229 11.6376 12.169 6.38162C0.85739 2.05898 -9.0377 -10.7997 -20.7059 -7.56083C-33.1337 -4.11107 -35.4611 12.9103 -44.4989 22.1118C-50.6402 28.3643 -59.2663 31.1621 -65.134 37.672C-72.0599 45.3558 -80.2734 53.0693 -81.6447 63.3225Z" fill="#C4C4C4"/>
</mask>
<g mask="url(#mask1_1057_6161)">
<path fill-rule="evenodd" clip-rule="evenodd" d="M-71.9337 73.0549C-73.3398 83.5729 -64.5845 92.5316 -62.8602 103.002C-59.9744 120.525 -71.659 143.364 -58.4086 155.183C-46.3182 165.968 -25.3726 156.746 -11.0099 149.252C1.30198 142.829 6.39167 128.482 14.4504 117.17C19.4614 110.136 20.9605 100.967 27.4481 95.2671C38.4892 85.5664 57.6196 85.958 64.6608 73.055C71.5958 60.3465 71.546 41.9694 62.8479 30.3969C54.0013 18.6269 35.6075 21.363 21.8569 16.1063C10.5481 11.783 0.655423 -1.07745 -11.0099 2.16191C-23.4346 5.61214 -25.7615 22.6358 -34.7971 31.8386C-40.9369 38.0919 -49.5608 40.8901 -55.4271 47.4009C-62.3513 55.0858 -70.5628 62.8002 -71.9337 73.0549Z" stroke="#F5F5F5" stroke-width="4.30886"/>
<path fill-rule="evenodd" clip-rule="evenodd" d="M-50.0863 84.3249C-51.3102 93.4811 -43.6889 101.28 -42.188 110.395C-39.676 125.649 -49.8471 145.531 -38.313 155.82C-27.7885 165.208 -9.5559 157.18 2.9465 150.657C13.6637 145.065 18.0941 132.576 25.109 122.728C29.4711 116.605 30.776 108.623 36.4233 103.661C46.0343 95.2165 62.6869 95.5574 68.816 84.3249C74.8528 73.2618 74.8094 57.2641 67.2379 47.1899C59.5372 36.9438 43.5258 39.3256 31.5563 34.7495C21.7122 30.986 13.1009 19.7906 2.94649 22.6105C-7.86894 25.6141 -9.89443 40.4336 -17.7597 48.4449C-23.1042 53.8886 -30.6112 56.3245 -35.7176 61.9923C-41.745 68.6823 -48.8929 75.3979 -50.0863 84.3249Z" stroke="#F5F5F5" stroke-width="4.30886"/>
<path fill-rule="evenodd" clip-rule="evenodd" d="M-31.4758 99.254C-32.5658 107.389 -25.7784 114.318 -24.4416 122.416C-22.2044 135.969 -31.2628 153.633 -20.9906 162.774C-11.6176 171.115 4.62021 163.982 15.7547 158.187C25.2994 153.219 29.2451 142.123 35.4925 133.374C39.3773 127.933 40.5394 120.842 45.5688 116.433C54.1283 108.931 68.9589 109.233 74.4175 99.254C79.7938 89.4249 79.7552 75.2117 73.0121 66.2612C66.1538 57.158 51.8943 59.2741 41.2343 55.2085C32.4673 51.8648 24.7981 41.9182 15.7547 44.4236C6.12259 47.0921 4.31871 60.2586 -2.68604 67.3762C-7.44581 72.2127 -14.1314 74.3769 -18.6792 79.4125C-24.0471 85.3562 -30.413 91.3227 -31.4758 99.254Z" stroke="#F5F5F5" stroke-width="4.30886"/>
</g>
</g>
</svg>
