<svg width="111" height="97" viewBox="0 0 111 97" fill="none" xmlns="http://www.w3.org/2000/svg">
<mask id="mask0_1057_6151" style="mask-type:alpha" maskUnits="userSpaceOnUse" x="0" y="0" width="111" height="97">
<path d="M0 0H95C103.837 0 111 7.16344 111 16V97H0V0Z" fill="#F5F5F5"/>
</mask>
<g mask="url(#mask0_1057_6151)">
<path fill-rule="evenodd" clip-rule="evenodd" d="M134.418 69.3837C122.081 75.8055 107.136 69.0034 93.4618 71.5443C70.5773 75.7967 47.6385 100.383 27.1629 89.3139C8.4798 79.2135 10.5068 49.2774 13.3384 28.2284C15.7658 10.185 31.1781 -2.48492 41.5273 -17.4633C47.9627 -26.7772 58.5949 -32.7122 62.7275 -43.2519C69.7607 -61.1892 60.748 -84.6022 73.5115 -99.035C86.0826 -113.25 108.755 -121.38 126.896 -115.813C145.348 -110.152 150.177 -86.2531 162.787 -71.6419C173.158 -59.6252 193.42 -53.1599 194.629 -37.3329C195.917 -20.4756 175.972 -10.0188 168.659 5.22385C163.689 15.5813 164.086 27.4617 158.677 37.5967C152.292 49.5595 146.446 63.1227 134.418 69.3837Z" fill="#FF8D6A"/>
<mask id="mask1_1057_6151" style="mask-type:alpha" maskUnits="userSpaceOnUse" x="11" y="-118" width="184" height="211">
<path fill-rule="evenodd" clip-rule="evenodd" d="M134.418 69.3837C122.081 75.8055 107.136 69.0034 93.4618 71.5443C70.5773 75.7967 47.6385 100.383 27.1629 89.3139C8.4798 79.2135 10.5068 49.2774 13.3384 28.2284C15.7658 10.185 31.1781 -2.48492 41.5273 -17.4633C47.9627 -26.7772 58.5949 -32.7122 62.7275 -43.2519C69.7607 -61.1892 60.748 -84.6022 73.5115 -99.035C86.0826 -113.25 108.755 -121.38 126.896 -115.813C145.348 -110.152 150.177 -86.2531 162.787 -71.6419C173.158 -59.6252 193.42 -53.1599 194.629 -37.3329C195.917 -20.4756 175.972 -10.0188 168.659 5.22385C163.689 15.5813 164.086 27.4617 158.677 37.5967C152.292 49.5595 146.446 63.1227 134.418 69.3837Z" fill="#C4C4C4"/>
</mask>
<g mask="url(#mask1_1057_6151)">
<path fill-rule="evenodd" clip-rule="evenodd" d="M118.093 61.7435C105.755 68.1656 90.8087 61.3667 77.1332 63.9087C54.2462 68.163 31.3022 92.7474 10.8261 81.6827C-7.8575 71.5866 -5.82667 41.6563 -2.9922 20.6112C-0.562458 2.5711 14.8528 -10.0981 25.2048 -25.0747C31.642 -34.3875 42.2759 -40.3227 46.4101 -50.8608C53.4462 -68.7953 44.4355 -92.2025 57.2019 -106.634C69.7759 -120.848 92.4512 -128.979 110.594 -123.415C129.046 -117.757 133.873 -93.8639 146.483 -79.2572C156.853 -67.2442 177.116 -60.7827 178.323 -44.959C179.609 -28.1052 159.661 -17.6481 152.345 -2.4076C147.374 7.94839 147.769 19.8264 142.358 29.96C135.972 41.9212 130.123 55.4823 118.093 61.7435Z" stroke="#F5F5F5" stroke-width="4.30886"/>
<path fill-rule="evenodd" clip-rule="evenodd" d="M94.464 39.8377C83.7229 45.4282 70.712 39.5101 58.8072 41.7231C38.8834 45.4268 18.9098 66.8275 1.08512 57.1962C-15.1792 48.408 -13.4109 22.3542 -10.943 4.03476C-8.8276 -11.6689 4.59193 -22.6975 13.6038 -35.7345C19.2077 -43.8413 28.4648 -49.0079 32.064 -58.1812C38.1893 -73.793 30.3456 -94.1684 41.4593 -106.731C52.4055 -119.104 72.145 -126.182 87.9385 -121.34C104.002 -116.415 108.203 -95.6161 119.18 -82.9014C128.207 -72.4445 145.846 -66.8202 146.897 -53.046C148.016 -38.3751 130.651 -29.272 124.282 -16.0053C119.954 -6.9905 120.298 3.34904 115.588 12.1703C110.028 22.5824 104.936 34.3872 94.464 39.8377Z" stroke="#F5F5F5" stroke-width="4.30886"/>
<path fill-rule="evenodd" clip-rule="evenodd" d="M67.7603 23.5535C58.2185 28.5236 46.6517 23.2456 36.0734 25.2078C18.3696 28.4917 0.63369 47.532 -15.2137 38.9447C-29.6739 31.1091 -28.1201 7.91344 -25.9395 -8.39547C-24.0702 -22.3757 -12.1518 -32.1857 -4.15184 -43.787C0.822758 -51.001 9.04606 -55.5947 12.2384 -63.7596C17.6713 -77.6553 10.6867 -95.8018 20.5549 -106.979C30.2743 -117.988 47.812 -124.276 61.851 -119.954C76.1296 -115.558 79.8778 -97.0375 89.6414 -85.7096C97.6713 -76.3932 113.351 -71.3736 114.294 -59.1091C115.299 -46.0462 99.8726 -37.9532 94.2214 -26.1456C90.3814 -18.1223 90.694 -8.91631 86.514 -1.06558C81.5803 8.20095 77.0632 18.7078 67.7603 23.5535Z" stroke="#F5F5F5" stroke-width="4.30886"/>
</g>
</g>
</svg>
