<svg width="242" height="181" viewBox="0 0 242 181" fill="none" xmlns="http://www.w3.org/2000/svg">
<path d="M42.5197 15.4078C38.3696 49.6169 38.0814 84.2481 41.6612 118.533C42.5505 127.052 43.8482 136.151 49.23 142.416C56.4383 150.807 68.3135 151.289 78.8708 151.19L214.869 149.913C220.104 149.863 225.561 149.757 230.214 147.147C235.967 143.919 239.567 137.257 241.009 130.392C242.451 123.528 242.024 116.382 241.554 109.36C239.805 83.2177 239.187 52.293 237.055 24.4975C236.675 19.4524 234.667 14.7146 231.385 11.1184C228.104 7.52222 223.759 5.29811 219.115 4.83765C172.107 0.233918 45.1889 -6.86745 42.5197 15.4078Z" fill="white"/>
<path d="M184.345 118.027C176.185 123.457 67.8141 122.08 59.7535 118.027C51.6928 113.973 53.9816 52.2506 59.7535 45.0611C65.5253 37.8716 181.161 39.1719 184.345 45.0611C187.53 50.9504 192.506 112.596 184.345 118.027Z" fill="white"/>
<path d="M48.5788 22.6678C72.2466 21.6818 95.9299 21.2408 119.629 21.3449C143.156 21.4634 166.673 22.1285 190.179 23.3401C203.468 24.029 216.742 24.9246 230.011 25.92C230.61 25.965 230.605 25.0358 230.011 24.9878C206.401 23.0796 182.726 21.8721 159.051 21.1643C135.534 20.4612 112.009 20.3195 88.4757 20.7394C75.1715 20.972 61.8725 21.3929 48.5788 22.002C48.1522 22.0212 48.1494 22.6857 48.5788 22.6678L48.5788 22.6678Z" fill="black"/>
<path d="M54.4457 15.3564C56.3899 18.3764 60.9851 15.2452 59.5863 12.1391C57.8626 8.31185 52.8335 12.2012 54.3701 15.4006C54.6421 15.9669 55.454 15.4721 55.2053 14.9124C54.2344 12.7268 57.8905 9.82375 58.8377 12.7447C59.509 14.815 56.4596 17.0097 55.1297 14.9566C54.8535 14.5305 54.1686 14.9259 54.4457 15.3564Z" fill="black"/>
<path d="M66.5551 15.3564C68.4993 18.3764 73.0945 15.2452 71.6957 12.1391C69.972 8.31185 64.9429 12.2012 66.4795 15.4006C66.7515 15.9669 67.5633 15.4721 67.3147 14.9124C66.3438 12.7268 69.9999 9.82375 70.947 12.7447C71.6184 14.815 68.5689 17.0097 67.239 14.9566C66.9629 14.5305 66.278 14.9259 66.5551 15.3564Z" fill="black"/>
<path d="M78.6723 15.3564C80.6165 18.3764 85.2117 15.2452 83.8128 12.1391C82.0892 8.31185 77.06 12.2012 78.5967 15.4006C78.8687 15.9669 79.6805 15.4721 79.4319 14.9124C78.461 12.7268 82.1171 9.82375 83.0642 12.7447C83.7356 14.815 80.6861 17.0097 79.3562 14.9566C79.0801 14.5305 78.3951 14.9259 78.6723 15.3564Z" fill="black"/>
<path d="M220.583 18.9146C222.746 18.9497 224.909 18.9999 227.072 18.9689C227.189 18.9649 227.299 18.9157 227.38 18.8317C227.462 18.7477 227.507 18.6354 227.507 18.5186C227.507 18.4018 227.462 18.2895 227.38 18.2055C227.299 18.1215 227.189 18.0723 227.072 18.0682C224.909 18.0373 222.746 18.0875 220.583 18.1226C220.481 18.1267 220.384 18.1703 220.314 18.2441C220.243 18.3179 220.203 18.4163 220.203 18.5186C220.203 18.6209 220.243 18.7193 220.314 18.7931C220.384 18.8669 220.481 18.9104 220.583 18.9146Z" fill="black"/>
<path d="M221.009 14.3655C223.033 13.8615 224.99 14.0366 226.968 14.649C227.469 14.8041 227.634 14.0753 227.179 13.8853C225.136 13.0325 222.915 13.0147 220.795 13.5882C220.695 13.6195 220.611 13.6883 220.561 13.7801C220.511 13.8719 220.498 13.9796 220.526 14.0804C220.554 14.1812 220.62 14.2673 220.71 14.3205C220.8 14.3736 220.907 14.3898 221.009 14.3655Z" fill="black"/>
<path d="M56.8334 11.4355C56.0087 12.3845 55.2826 13.4148 54.666 14.5105C54.6467 14.5458 54.6381 14.586 54.6413 14.626C54.6444 14.6661 54.6591 14.7044 54.6836 14.7363C54.7081 14.7682 54.7413 14.7923 54.7793 14.8056C54.8172 14.8189 54.8582 14.8209 54.8973 14.8113C55.1758 14.7291 55.4243 14.5672 55.6121 14.3457C55.8898 14.0799 56.1673 13.8138 56.4446 13.5474C56.7113 13.2922 56.9757 13.0345 57.2458 12.783C57.5231 12.4914 57.8227 12.2219 58.1419 11.9768L57.9426 11.7185C57.5088 12.1164 57.1155 12.5561 56.7682 13.0314C56.404 13.4821 56.056 13.9453 55.7244 14.421C55.697 14.4678 55.6859 14.5223 55.6929 14.5761C55.6998 14.6298 55.7244 14.6798 55.7627 14.7181C55.842 14.7864 55.9434 14.8238 56.0481 14.8232C56.1529 14.8226 56.2538 14.7842 56.3324 14.7149C56.576 14.5468 56.7972 14.3343 57.0258 14.146L58.4563 12.9672L58.0776 12.7467C57.5722 13.9346 56.9272 15.0581 56.1561 16.0934C55.9494 16.3739 56.4293 16.6619 56.6282 16.3694C57.3604 15.2836 57.9846 14.1287 58.4917 12.9213C58.5173 12.8738 58.5252 12.8187 58.514 12.7658C58.5028 12.713 58.4731 12.6659 58.4304 12.6329C58.3876 12.5999 58.3345 12.5832 58.2806 12.5857C58.2266 12.5883 58.1754 12.6099 58.1359 12.6467L57.049 13.5168L56.5417 13.9229L56.2519 14.155L56.107 14.271C56.0171 14.3086 56.0014 14.3294 56.0597 14.3332L56.1477 14.6686C56.4618 14.1888 56.7917 13.72 57.1374 13.2621C57.48 12.8092 57.8872 12.3908 58.2009 11.918C58.3025 11.7647 58.0602 11.5718 57.9426 11.7187C57.7056 11.982 57.4483 12.2264 57.1732 12.4497C56.9109 12.6877 56.645 12.9218 56.3793 13.1561C56.1252 13.3803 55.8709 13.6044 55.6165 13.8284C55.3704 14.0451 55.1191 14.341 54.7884 14.4166L55.0196 14.7174C55.5878 13.6271 56.2653 12.5973 57.0415 11.6438C57.1594 11.4993 56.959 11.291 56.8334 11.4357V11.4355Z" fill="black"/>
<path d="M67.9609 11.7761C67.1708 12.4037 66.5618 13.2301 66.1963 14.1705C66.1024 14.405 66.4298 14.5361 66.5864 14.3976C67.2173 13.8393 67.7794 13.2008 68.3827 12.6132C68.9161 12.0935 69.5163 11.5473 70.2344 11.303L70.0604 11.0041C68.9845 12.0134 67.9504 13.068 66.9279 14.1312C66.894 14.1669 66.8711 14.2118 66.8621 14.2603C66.8532 14.3088 66.8584 14.3588 66.8773 14.4044C66.8962 14.4499 66.9278 14.489 66.9685 14.517C67.0091 14.5449 67.057 14.5605 67.1063 14.5618C67.8258 14.5162 68.4062 14.0788 68.9287 13.6196C69.4596 13.1532 69.9905 12.5605 70.7074 12.4003L70.5376 12.1086C69.5116 13.2063 68.5462 14.3591 67.6457 15.5617C67.4912 15.7624 67.7844 16.0127 67.9792 15.8953C68.5162 15.5719 69.0394 15.2236 69.5646 14.8813C69.8138 14.719 70.0605 14.553 70.3083 14.3885C70.4598 14.2879 70.8311 13.9422 71.0158 14.0733L70.9302 13.7472C70.3829 14.491 69.8275 15.2291 69.2955 15.9839C69.1139 16.2416 69.5296 16.4715 69.7131 16.228C70.2687 15.4906 70.8012 14.7362 71.3417 13.9878C71.3684 13.9423 71.3792 13.8893 71.3725 13.8371C71.3657 13.7848 71.3418 13.7363 71.3045 13.6991C70.7751 13.2892 70.1205 13.911 69.6782 14.1933C69.0246 14.6107 68.3678 15.0287 67.7332 15.4743L68.0668 15.8079C68.8949 14.5979 69.8028 13.4445 70.7845 12.3555C70.8106 12.3278 70.827 12.2925 70.8314 12.2548C70.8357 12.2171 70.8278 12.179 70.8086 12.1461C70.7895 12.1133 70.7603 12.0875 70.7254 12.0727C70.6904 12.0578 70.6516 12.0547 70.6147 12.0637C69.9639 12.2767 69.3676 12.6295 68.8676 13.0974C68.347 13.5304 67.8084 13.9928 67.1065 14.0572L67.2849 14.4878C68.278 13.3951 69.2987 12.3292 70.3135 11.2568C70.4256 11.1383 70.3153 10.8862 70.1395 10.9579C69.4276 11.2568 68.7736 11.6781 68.2071 12.2028C67.542 12.798 66.862 13.4114 66.2565 14.0674L66.6466 14.2944C66.9286 13.3979 67.4633 12.6017 68.1866 12.0014C68.3456 11.8671 68.1192 11.6524 67.9611 11.7759L67.9609 11.7761Z" fill="black"/>
<path d="M81.0898 10.9185C80.0898 11.7769 79.2127 12.7689 78.4833 13.8667C78.3589 14.0541 78.5636 14.2606 78.7556 14.2208C79.5789 14.0502 80.2499 13.4866 80.866 12.9475C81.4847 12.4063 82.1401 11.7545 82.9659 11.56L82.7752 11.2324C81.6432 12.2243 80.5671 13.2819 79.4576 14.299C79.2265 14.5109 79.5201 14.8442 79.7783 14.7147C80.9891 14.0749 82.1074 13.2736 83.1025 12.3328L82.7844 12.0147L80.0208 14.8959C79.9767 14.9428 79.9508 15.0038 79.9477 15.0681C79.9446 15.1323 79.9645 15.1956 80.0038 15.2465C80.0431 15.2975 80.0992 15.3327 80.1622 15.346C80.2251 15.3593 80.2907 15.3498 80.3473 15.3191C81.3235 14.8875 82.2966 14.4487 83.2711 14.0133L82.8975 13.6397C82.5157 14.3744 82.0043 15.034 81.3878 15.5866C81.127 15.822 81.5107 16.2005 81.7719 15.9708C82.4278 15.3912 82.9695 14.6941 83.3691 13.9154C83.3974 13.8631 83.4082 13.8031 83.3996 13.7443C83.3911 13.6855 83.3638 13.6311 83.3218 13.589C83.2798 13.547 83.2253 13.5197 83.1665 13.5112C83.1077 13.5027 83.0477 13.5134 82.9955 13.5417C82.0221 13.979 81.047 14.4127 80.0753 14.8538L80.4018 15.2771L83.1026 12.3328C83.1419 12.2901 83.1633 12.2338 83.1621 12.1757C83.1609 12.1176 83.1373 12.0622 83.0962 12.0211C83.0551 11.98 82.9997 11.9564 82.9416 11.9552C82.8835 11.954 82.8272 11.9754 82.7845 12.0148C81.786 12.8893 80.6872 13.6422 79.5112 14.2576L79.8319 14.6733C80.9004 13.6149 82.0079 12.5918 83.0524 11.5096C83.0817 11.4786 83.1003 11.439 83.1052 11.3966C83.1101 11.3542 83.1012 11.3113 83.0797 11.2744C83.0582 11.2375 83.0254 11.2085 82.9861 11.1919C82.9467 11.1752 82.9031 11.1718 82.8616 11.182C82.0835 11.4689 81.3677 11.9027 80.7533 12.4597C80.1031 12.9962 79.4547 13.5281 78.6274 13.7559L78.8996 14.11C79.5374 12.9959 80.3505 11.9919 81.3079 11.1365C81.4569 11.0035 81.2392 10.7902 81.0898 10.9185L81.0898 10.9185Z" fill="black"/>
<path d="M151.805 85.3656C151.72 85.408 151.634 85.4504 151.549 85.4929C136.653 92.8914 122.187 101.449 106.134 106.156C105.966 106.206 105.797 106.255 105.629 106.303L106.172 106.717C106.16 106.53 106.147 106.343 106.134 106.156C105.554 97.4276 105.528 88.6806 105.686 79.9358C105.848 71.0008 105.906 61.9692 106.657 53.0616C106.779 51.619 106.603 48.8023 108.44 48.4002C109.486 48.1712 110.672 48.7052 111.58 49.1628C113.775 50.27 115.714 51.8534 117.609 53.4018C117.624 53.4136 117.638 53.4254 117.652 53.4372C120.045 55.3917 122.607 57.1302 125.115 58.9333C128.566 61.4153 132.013 63.9039 135.455 66.3989C139.161 69.092 142.83 71.847 146.261 74.8878C147.93 76.3672 149.541 77.9128 151.063 79.5437C151.833 80.3682 152.81 81.2514 153.36 82.2449C154.127 83.6284 152.798 84.6072 151.744 85.2613C151.644 85.3237 151.581 85.4049 151.549 85.4929C151.416 85.8553 151.803 86.3322 152.22 86.0753C153.34 85.3864 154.668 84.41 154.562 82.9318C154.441 81.2431 152.51 79.691 151.438 78.5592C148.414 75.3664 145.058 72.5067 141.588 69.8126C134.423 64.2503 126.808 59.2947 119.592 53.8056C117.65 52.3282 115.844 50.6939 113.788 49.3656C112.176 48.3242 109.655 46.7522 107.668 47.6807C106.464 48.2434 106.117 49.5185 105.958 50.7375C105.643 53.1649 105.529 55.624 105.427 58.0679C105.218 63.0808 105.063 68.0975 104.927 73.1128C104.623 84.3168 104.601 95.527 105.314 106.717C105.315 106.783 105.331 106.848 105.36 106.907C105.39 106.965 105.433 107.017 105.485 107.056C105.537 107.096 105.598 107.124 105.662 107.137C105.727 107.15 105.794 107.148 105.857 107.132C122.294 102.503 137.031 93.6276 152.159 85.9709C152.562 85.7669 152.208 85.1661 151.805 85.3656Z" fill="#C5214B"/>
<path d="M106.134 106.156C122.187 101.449 136.653 92.8914 151.549 85.4929C151.581 85.4049 151.644 85.3237 151.744 85.2613C152.798 84.6072 154.127 83.6284 153.36 82.2449C152.81 81.2514 151.833 80.3682 151.063 79.5437C149.541 77.9128 147.93 76.3672 146.261 74.8878C142.83 71.847 139.161 69.092 135.455 66.3989C132.013 63.9039 128.566 61.4153 125.115 58.9333C122.607 57.1302 120.045 55.3917 117.652 53.4372L117.609 53.4018C115.714 51.8534 113.775 50.27 111.58 49.1628C110.672 48.7052 109.486 48.1712 108.44 48.4002C106.603 48.8023 106.779 51.619 106.657 53.0616C105.906 61.9692 105.848 71.0008 105.686 79.9358C105.528 88.6806 105.554 97.4276 106.134 106.156Z" fill="#C5214B"/>
<path d="M63.9071 110.79C92.4577 115.012 121.462 114.593 150.214 113.217C158.376 112.826 166.534 112.381 174.691 111.881C175.264 111.846 175.269 110.952 174.691 110.984C146.085 112.548 117.431 114.301 88.788 112.565C80.5272 112.064 72.2786 111.283 64.0767 110.175C63.6772 110.121 63.4998 110.73 63.9071 110.79Z" fill="black"/>
<path d="M181.168 110.328C180.064 110.735 179.188 112.168 179.982 113.253C180.621 114.127 182.158 114.183 182.679 113.161C182.918 112.691 182.235 112.282 181.968 112.745C181.698 113.212 180.941 113.145 180.619 112.762C180.099 112.145 180.737 111.221 181.345 110.97C181.731 110.81 181.576 110.177 181.168 110.328Z" fill="black"/>
<path d="M113.558 111.645C112.334 111.79 111.562 113.399 112.214 114.445C112.78 115.353 114.189 115.562 115.017 114.885C115.415 114.527 115.66 114.029 115.7 113.494C115.74 112.96 115.573 112.431 115.233 112.017C114.863 111.628 114.365 111.388 113.831 111.341C113.296 111.293 112.763 111.443 112.331 111.76" fill="#161616"/>
<path d="M113.455 111.276C112.169 111.469 111.294 112.888 111.607 114.138C111.947 115.497 113.633 116.083 114.844 115.528C116.186 114.913 116.562 113.081 115.751 111.896C115.542 111.612 115.277 111.373 114.972 111.195C114.668 111.017 114.33 110.903 113.98 110.859C113.63 110.816 113.274 110.845 112.936 110.944C112.597 111.042 112.282 111.209 112.01 111.434C111.617 111.773 112.121 112.385 112.554 112.139C113.283 111.724 114.292 111.643 114.887 112.35C115.479 113.054 115.279 114.297 114.422 114.685C113.679 115.021 112.639 114.669 112.436 113.832C112.395 113.632 112.393 113.425 112.433 113.224C112.472 113.023 112.55 112.832 112.663 112.661C112.776 112.491 112.922 112.344 113.092 112.23C113.262 112.116 113.453 112.036 113.653 111.996C114.131 111.906 113.92 111.207 113.455 111.277L113.455 111.276Z" fill="black"/>
<path d="M109.558 49.5304C108.015 51.5116 106.471 53.4921 104.926 55.4718C104.892 55.5077 104.874 55.5553 104.875 55.6045C104.876 55.6537 104.896 55.7006 104.931 55.7353C104.965 55.7701 105.012 55.79 105.061 55.7909C105.111 55.7918 105.158 55.7735 105.194 55.74C106.38 54.7537 107.545 53.7417 108.716 52.7376C109.884 51.737 111.02 50.6735 112.237 49.733L112.054 49.5502C111.024 50.6645 110.081 51.868 109.105 53.0292C108.126 54.1937 107.15 55.3607 106.178 56.5303C106.022 56.7172 106.218 57.0243 106.451 56.8845C107.898 56.0018 109.186 54.881 110.26 53.5693C110.395 53.4066 110.167 53.1714 110.024 53.3339C108.922 54.571 107.641 55.6365 106.223 56.4951L106.496 56.8492C107.471 55.652 108.444 54.4539 109.416 53.2548C110.366 52.0787 111.362 50.9262 112.257 49.707C112.347 49.584 112.157 49.4556 112.054 49.5503C110.919 50.5899 109.675 51.5294 108.489 52.51C107.298 53.4938 106.101 54.4703 104.926 55.4719L105.224 55.7019C106.745 53.7036 108.267 51.706 109.789 49.709C109.89 49.5774 109.661 49.3988 109.558 49.5307L109.558 49.5304Z" fill="black"/>
<path d="M112.934 51.9524C110.74 54.1913 108.502 56.3978 106.348 58.6722C106.123 58.9092 106.456 59.2238 106.699 59.0241C109.775 56.5059 112.836 53.9703 115.929 51.4734L115.63 51.1741L106.421 62.1786C106.208 62.4329 106.564 62.8012 106.79 62.5476C109.261 59.7354 112.091 57.2603 115.208 55.186C116.088 54.6079 116.995 54.069 117.918 53.5609L117.641 53.2021C114.536 56.408 111.483 59.6642 108.483 62.9707C107.627 63.9156 106.777 64.8663 105.933 65.8228C105.701 66.0872 106.075 66.4709 106.323 66.2126C109.507 62.8919 112.979 59.8592 116.697 57.1497C117.753 56.3812 118.825 55.6307 119.924 54.9243L119.673 54.5989L109.208 65.5736C108.213 66.6167 107.215 67.656 106.228 68.7067C106.017 68.9307 106.305 69.3588 106.573 69.1543L119.16 59.5475C120.354 58.6362 121.55 57.7279 122.748 56.8223L122.472 56.4648C118.095 60.4412 113.928 64.6432 109.989 69.0538C108.871 70.3055 107.772 71.5738 106.692 72.8586C106.646 72.9084 106.62 72.9744 106.621 73.0426C106.623 73.1108 106.65 73.1758 106.698 73.224C106.747 73.2722 106.812 73.2998 106.88 73.301C106.948 73.3022 107.014 73.2768 107.064 73.2303C111.498 69.361 116.09 65.6851 120.842 62.2026C122.183 61.224 123.536 60.2626 124.902 59.3184L124.6 58.9268C119.643 63.3612 114.857 67.976 110.24 72.7713C108.946 74.1164 107.666 75.475 106.4 76.8471C106.35 76.9012 106.322 76.973 106.323 77.0471C106.324 77.1213 106.354 77.1921 106.407 77.2445C106.459 77.297 106.53 77.327 106.604 77.3282C106.678 77.3295 106.75 77.3018 106.804 77.2511C112.08 72.4683 117.599 67.9603 123.338 63.7453C124.972 62.5489 126.623 61.3773 128.292 60.2304L127.983 59.83C122.54 65.0952 117.086 70.3489 111.621 75.591L106.957 80.0805C106.735 80.2944 107.037 80.714 107.296 80.5195C113.307 75.9986 119.289 71.4384 125.286 66.8976L130.343 63.0685L130.081 62.7292C124.282 67.8139 118.447 72.8582 112.924 78.2456C111.364 79.7677 109.824 81.3129 108.323 82.8936C108.277 82.9435 108.252 83.0094 108.253 83.0775C108.254 83.1456 108.282 83.2106 108.33 83.2588C108.378 83.307 108.443 83.3346 108.511 83.3358C108.579 83.337 108.645 83.3117 108.695 83.2653C114.301 78.5501 120.057 74.0241 125.961 69.6873C127.631 68.4618 129.306 67.2425 131.005 66.0581L130.823 65.7464C127.4 68.2197 124.037 70.7722 120.734 73.404C117.435 76.0447 114.206 78.7702 111.048 81.5803C109.262 83.1689 107.501 84.7836 105.763 86.4242C105.555 86.6197 105.827 86.9848 106.071 86.8239C109.495 84.5646 112.895 82.2719 116.273 79.9457C119.652 77.6193 123.014 75.2678 126.357 72.8912C128.252 71.5519 130.143 70.2067 132.03 68.8556L131.798 68.4596C128.382 70.9192 125.056 73.4996 121.822 76.2006C118.578 78.9116 115.436 81.7386 112.396 84.6817C110.676 86.347 108.992 88.0484 107.344 89.7859C107.144 89.9963 107.408 90.382 107.666 90.2036L118.426 82.7637C122.029 80.2722 125.632 77.7804 129.235 75.2882C131.265 73.8893 133.296 72.4922 135.328 71.097L135.093 70.6947C131.015 73.6059 126.937 76.5174 122.912 79.501C118.902 82.4726 114.944 85.5158 111.097 88.6954C108.93 90.4863 106.802 92.324 104.715 94.2084C104.49 94.4118 104.797 94.8256 105.045 94.6357C109.528 91.1985 114.12 87.9089 118.821 84.7667C123.517 81.6249 128.313 78.6404 133.21 75.8133C135.969 74.2207 138.756 72.68 141.573 71.1911L141.303 70.729C136.956 73.8336 132.635 76.9734 128.34 80.1484C124.062 83.3125 119.811 86.5135 115.588 89.7514C113.213 91.5723 110.846 93.4047 108.489 95.2486C108.245 95.439 108.564 95.8521 108.82 95.6784C113.092 92.787 117.429 89.9955 121.831 87.304C126.197 84.6313 130.624 82.0617 135.112 79.5951C137.661 78.1943 140.228 76.8275 142.814 75.4946L142.56 75.0603C138.058 78.3065 133.529 81.5135 129.051 84.7919C124.572 88.0699 120.119 91.3823 115.692 94.7289C113.207 96.6068 110.731 98.4954 108.263 100.395C107.994 100.602 108.241 101.066 108.538 100.865C113.427 97.5553 118.326 94.2566 123.322 91.1091C128.014 88.1531 132.798 85.3467 137.69 82.7351C140.712 81.1222 143.767 79.5747 146.856 78.0928L146.591 77.6402C141.813 81.1204 137.005 84.56 132.168 87.9591C127.619 91.1459 123.04 94.2888 118.431 97.388C115.565 99.3188 112.693 101.239 109.814 103.149C109.753 103.188 109.709 103.25 109.691 103.32C109.674 103.391 109.685 103.466 109.722 103.529C109.758 103.592 109.818 103.638 109.888 103.658C109.958 103.677 110.034 103.669 110.098 103.634L125.212 94.8749C130.232 91.9653 135.25 89.0514 140.265 86.1332L148.768 81.1935L148.483 80.7059C143.427 83.9294 138.334 87.0952 133.206 90.2034C128.077 93.3093 122.913 96.3575 117.715 99.3477C114.789 101.031 111.852 102.695 108.905 104.342L109.194 104.837C113.935 101.635 118.858 98.7119 123.938 96.0826C129.014 93.4226 134.207 90.9921 139.435 88.6472C142.394 87.3199 145.362 86.0119 148.338 84.723L148.082 84.2857L129.137 94.7336L123.786 97.6851L124.058 98.1513C128.045 95.6988 132.115 93.387 136.268 91.2158C137.443 90.6009 138.624 89.9982 139.812 89.4076C140.103 89.2636 139.847 88.8282 139.557 88.9719C135.359 91.0485 131.229 93.2525 127.193 95.63C126.05 96.3033 124.915 96.9884 123.786 97.6852C123.727 97.7226 123.684 97.7816 123.668 97.8496C123.651 97.9176 123.662 97.9893 123.697 98.0498C123.732 98.1102 123.79 98.1545 123.857 98.1735C123.924 98.1925 123.997 98.1845 124.058 98.1514L142.99 87.6808L148.338 84.723C148.63 84.5615 148.373 84.1587 148.082 84.2857C142.826 86.5795 137.563 88.8569 132.37 91.2913C127.188 93.7209 122.071 96.2981 117.12 99.1729C114.321 100.798 111.583 102.521 108.905 104.341C108.842 104.381 108.797 104.444 108.78 104.516C108.762 104.588 108.773 104.664 108.811 104.729C108.848 104.793 108.909 104.84 108.981 104.86C109.052 104.88 109.129 104.872 109.194 104.836C114.428 101.909 119.628 98.9232 124.795 95.8795C129.961 92.8355 135.093 89.7345 140.191 86.5765C143.062 84.8002 145.921 83.0059 148.768 81.1936C148.83 81.1546 148.875 81.0929 148.892 81.0217C148.91 80.9505 148.899 80.8753 148.862 80.812C148.825 80.7487 148.765 80.7023 148.694 80.6825C148.623 80.6627 148.548 80.6712 148.483 80.706L133.371 89.4681C128.351 92.3786 123.333 95.292 118.317 98.2084L109.814 103.149L110.098 103.634C115.018 100.357 119.919 97.0504 124.801 93.7157C129.381 90.5732 133.93 87.3864 138.449 84.1553C141.26 82.1461 144.062 80.1253 146.856 78.0928C146.914 78.0565 146.955 77.9993 146.971 77.9332C146.987 77.8671 146.977 77.7974 146.943 77.7386C146.908 77.6799 146.852 77.6368 146.787 77.6184C146.721 77.6001 146.651 77.6079 146.591 77.6402C141.276 80.1986 136.043 82.9271 130.933 85.8775C126.128 88.6519 121.438 91.6167 116.804 94.6678C113.941 96.5532 111.1 98.4702 108.263 100.395L108.538 100.865C112.933 97.4755 117.354 94.1198 121.801 90.7979C126.248 87.4764 130.721 84.1892 135.218 80.9364C137.741 79.1115 140.26 77.2768 142.814 75.4946C142.869 75.4597 142.908 75.4048 142.924 75.3414C142.939 75.2781 142.929 75.2112 142.897 75.1549C142.864 75.0985 142.81 75.0572 142.747 75.0396C142.685 75.0219 142.617 75.0293 142.56 75.0603C137.971 77.4159 133.439 79.878 128.964 82.4465C124.524 84.9955 120.147 87.6486 115.831 90.4057C113.381 91.9734 110.952 93.5733 108.544 95.2057L108.876 95.6355C113.063 92.3572 117.279 89.1151 121.523 85.9095C125.753 82.7142 130.011 79.5555 134.296 76.4332C136.712 74.6728 139.138 72.9254 141.573 71.191C141.631 71.1539 141.673 71.0955 141.69 71.028C141.706 70.9606 141.696 70.8895 141.661 70.8296C141.626 70.7697 141.569 70.7257 141.502 70.7069C141.435 70.6881 141.364 70.696 141.303 70.7289C136.305 73.3653 131.398 76.1639 126.581 79.1249C121.769 82.0844 117.058 85.2018 112.448 88.477C109.854 90.3253 107.294 92.2215 104.77 94.1657L105.099 94.593C108.775 91.2513 112.597 88.0746 116.505 85.008C120.429 81.9279 124.439 78.9581 128.477 76.0286C130.754 74.3761 133.038 72.7322 135.328 71.0968C135.568 70.9244 135.342 70.5228 135.093 70.6946C131.506 73.1726 127.915 75.6462 124.322 78.1155L113.492 85.5565L107.397 89.7442L107.719 90.1619C110.621 87.113 113.623 84.1646 116.725 81.3168C119.818 78.4908 123.01 75.7793 126.302 73.182C128.181 71.6999 130.09 70.2576 132.03 68.8552C132.267 68.684 132.039 68.286 131.798 68.4592C128.472 70.859 125.124 73.2283 121.756 75.5672C118.386 77.9042 114.999 80.2159 111.595 82.5025C109.668 83.7967 107.745 85.0967 105.814 86.3841L106.122 86.7837C109.167 83.8836 112.286 81.0631 115.478 78.3222C118.684 75.5695 121.961 72.9015 125.309 70.3183C127.186 68.8702 129.085 67.45 131.005 66.0578C131.19 65.9236 131.015 65.6121 130.823 65.7461C124.78 69.9596 118.864 74.3324 113.123 78.9508C111.51 80.2486 109.91 81.5628 108.323 82.8933L108.695 83.265C114.007 77.6711 119.69 72.4565 125.466 67.3488C127.1 65.9038 128.74 64.4657 130.386 63.0344C130.569 62.8758 130.322 62.5469 130.124 62.6951C124.111 67.2069 118.097 71.7173 112.081 76.2262C110.39 77.494 108.701 78.7641 107.013 80.0365L107.352 80.4754L123.684 64.6845C125.236 63.1846 126.789 61.6866 128.344 60.1905C128.548 59.994 128.278 59.6238 128.035 59.7901C122.117 63.8345 116.418 68.189 110.96 72.8354C109.419 74.1481 107.899 75.4853 106.4 76.847L106.804 77.251C111.301 72.3511 115.976 67.6234 120.829 63.0677C122.19 61.7906 123.565 60.5278 124.953 59.2794C125.16 59.0925 124.885 58.7251 124.65 58.8877C119.792 62.2538 115.082 65.8197 110.521 69.5853C109.229 70.6579 107.953 71.7489 106.692 72.8585L107.064 73.2302C110.857 68.6924 114.884 64.3557 119.128 60.2375C120.333 59.0691 121.555 57.9188 122.794 56.7866C122.981 56.6157 122.727 56.2708 122.518 56.4291C118.32 59.6215 114.097 62.7817 109.883 65.9537L106.286 68.6621L106.631 69.1097C110.116 65.4478 113.551 61.7358 117.008 58.0474L119.966 54.892C120.121 54.7265 119.919 54.4327 119.715 54.5664C115.838 57.0818 112.179 59.9187 108.777 63.0474C107.806 63.9483 106.858 64.8734 105.933 65.8228L106.323 66.2126C109.294 62.8792 112.276 59.5589 115.332 56.3029C116.205 55.3729 117.083 54.447 117.964 53.5252C118.002 53.4854 118.024 53.4337 118.026 53.3791C118.029 53.3246 118.012 53.2709 117.979 53.2277C117.945 53.1844 117.898 53.1545 117.844 53.1433C117.791 53.1321 117.735 53.1402 117.687 53.1664C114.396 54.9974 111.353 57.2436 108.634 59.8499C107.862 60.594 107.128 61.3723 106.42 62.1786L106.79 62.5476L115.929 51.4735C115.967 51.4333 115.987 51.3802 115.986 51.3253C115.985 51.2704 115.963 51.218 115.924 51.1792C115.885 51.1404 115.833 51.1182 115.778 51.1172C115.723 51.1163 115.67 51.1367 115.63 51.1741C112.552 53.6936 109.443 56.174 106.347 58.6722L106.699 59.0241C108.857 56.7471 110.941 54.3927 113.06 52.0788C113.138 51.9943 113.015 51.8698 112.934 51.9524L112.934 51.9524Z" fill="white"/>
<path d="M145.79 86.417L140.068 89.5123C139.868 89.6207 140.046 89.9267 140.247 89.818L145.965 86.7166C146.161 86.6101 145.986 86.3107 145.79 86.417H145.79Z" fill="black"/>
<path d="M226.905 43.8694C218.874 41.7906 210.519 42.9712 202.453 44.2104C201.014 44.4316 199.401 44.597 198.23 45.5563C197.133 46.4547 196.799 47.8143 196.801 49.1796C196.803 51.1459 197.155 53.1382 197.362 55.0912C197.599 57.3185 197.831 59.5461 198.06 61.7741C198.063 61.9066 198.118 62.0328 198.211 62.1265C198.305 62.2202 198.431 62.2743 198.564 62.2776C206.5 62.4445 214.437 62.5754 222.374 62.7196C224.055 62.7501 225.962 63.0433 227.621 62.758C228.882 62.5412 229.365 61.5266 229.629 60.3802C230.431 56.7378 230.585 52.9825 230.082 49.2868C230.002 48.673 229.032 48.6492 229.098 49.2868C229.479 52.6663 229.369 56.0834 228.771 59.4313C228.562 60.5387 228.461 61.5846 227.116 61.7667C226.381 61.8663 225.546 61.7439 224.804 61.7306L219.459 61.635C212.494 61.5104 205.529 61.3753 198.564 61.2706L199.067 61.7741C198.644 58.0001 198.18 54.2233 197.836 50.4412C197.688 48.8156 197.67 46.9836 199.26 46.0509C200.645 45.2381 202.547 45.1864 204.097 44.9513C211.59 43.8152 219.211 42.9805 226.695 44.6331C227.19 44.7425 227.401 43.9978 226.905 43.8694H226.905Z" fill="black"/>
<path d="M225.155 45.1048C218.171 43.2816 210.906 44.3171 203.892 45.4039C202.64 45.5978 201.238 45.7429 200.22 46.5843C199.266 47.3721 198.975 48.5645 198.977 49.7619C198.979 51.4864 199.285 53.2336 199.465 54.9464C199.67 56.8998 199.873 58.8534 200.072 60.8073C200.075 60.9236 200.122 61.0342 200.203 61.1164C200.285 61.1986 200.394 61.2461 200.51 61.249C207.411 61.3953 214.313 61.5101 221.215 61.6366C222.676 61.6633 224.335 61.9204 225.778 61.6702C226.874 61.4801 227.295 60.5903 227.524 59.5849C228.222 56.3904 228.355 53.097 227.918 49.8559C227.913 49.814 227.903 49.7753 227.889 49.7397C227.723 49.3179 227.009 49.3402 227.062 49.8559C227.394 52.8198 227.298 55.8165 226.778 58.7527C226.596 59.7239 226.509 60.6411 225.339 60.8009C224.7 60.8882 223.973 60.7808 223.328 60.7692L218.68 60.6853C212.753 60.5784 206.826 60.4626 200.899 60.3717C200.769 60.3697 200.639 60.3677 200.51 60.3657L200.947 60.8073C200.931 60.6621 200.915 60.5169 200.899 60.3717C200.544 57.2068 200.163 54.0398 199.877 50.8683C199.748 49.4427 199.733 47.836 201.115 47.018C202.32 46.3051 203.974 46.2598 205.322 46.0537C211.837 45.0573 218.464 44.3252 224.972 45.7746C225.323 45.8528 225.51 45.433 225.333 45.2143C225.293 45.1648 225.235 45.1256 225.155 45.1048Z" fill="#C5214B"/>
<path d="M227.062 49.8559C227.009 49.3402 227.723 49.3179 227.889 49.7397C227.575 48.5146 227.785 47.9505 226.633 46.03C226.47 45.7582 225.738 45.4628 225.333 45.2143C225.51 45.433 225.323 45.8528 224.972 45.7746L225.778 46.03L227.062 49.8559Z" fill="#C5214B"/>
<path d="M226.778 58.7527C227.298 55.8165 227.394 52.8198 227.062 49.8559L225.778 46.03L224.972 45.7746C218.464 44.3252 211.837 45.0573 205.322 46.0537C203.974 46.2598 202.32 46.3051 201.115 47.018C199.733 47.836 199.748 49.4427 199.877 50.8683C200.163 54.0398 200.544 57.2068 200.899 60.3717C206.826 60.4626 212.753 60.5784 218.68 60.6853L223.328 60.7692C223.973 60.7808 224.7 60.8882 225.339 60.8009C226.509 60.6411 226.596 59.7239 226.778 58.7527Z" fill="#C5214B"/>
<path d="M199.111 65.6275C200.212 66.7838 201.783 66.8173 203.281 66.8577C205.61 66.9206 207.939 66.9497 210.268 66.9646C215.006 66.995 219.745 66.9435 224.48 66.7764C225.046 66.7564 225.05 65.8752 224.48 65.8932C220.225 66.0286 215.97 66.1296 211.713 66.155C209.625 66.1674 207.537 66.1632 205.45 66.1423C203.658 66.1244 200.967 66.5511 199.587 65.1517C199.282 64.8425 198.813 65.3139 199.111 65.6274V65.6275Z" fill="black"/>
<path d="M200.08 71.0797C200.918 71.0855 201.757 71.0923 202.595 71.0884C202.7 71.0848 202.799 71.0407 202.871 70.9656C202.944 70.8904 202.985 70.7899 202.985 70.6854C202.985 70.5809 202.944 70.4805 202.871 70.4053C202.799 70.3301 202.7 70.286 202.595 70.2824C201.757 70.2785 200.918 70.2853 200.08 70.2912C199.978 70.2948 199.881 70.3379 199.81 70.4114C199.739 70.485 199.699 70.5832 199.699 70.6854C199.699 70.7876 199.739 70.8859 199.81 70.9594C199.881 71.033 199.978 71.0761 200.08 71.0797Z" fill="black"/>
<path d="M227.751 77.9672C223.099 77.9776 218.447 77.9841 213.795 77.9868C209.162 77.9894 204.463 77.7899 199.839 78.0776C199.733 78.0788 199.631 78.1214 199.556 78.1964C199.481 78.2714 199.439 78.3728 199.438 78.4789C199.72 81.5436 199.725 84.6541 199.859 87.7293C199.993 90.8129 200.131 93.8964 200.274 96.9797C200.276 97.0979 200.324 97.2106 200.408 97.2942C200.491 97.3778 200.604 97.4258 200.722 97.428C208.405 97.5479 216.148 97.6549 223.78 96.6287C225.353 96.4172 227.276 96.3632 228.721 95.6528C229.935 95.0558 230.374 93.89 230.647 92.6359C231.387 89.0918 231.436 85.4381 230.79 81.8756C230.707 81.3923 229.98 81.5999 230.057 82.0778C230.636 85.5064 230.566 89.0135 229.849 92.416C229.658 93.2736 229.41 94.2037 228.633 94.7291C227.943 95.1962 226.943 95.2643 226.145 95.3924C224.376 95.6762 222.596 95.8906 220.813 96.0618C214.135 96.7026 207.421 96.602 200.723 96.5313L201.171 96.9797C201.016 93.8962 200.86 90.8127 200.703 87.7293C200.543 84.655 200.25 81.5571 200.24 78.4789L199.839 78.8801C204.465 79.1244 209.162 78.8805 213.795 78.8395C218.447 78.7983 223.099 78.7611 227.751 78.7277C227.849 78.7244 227.943 78.6828 228.011 78.6119C228.08 78.5409 228.118 78.4461 228.118 78.3475C228.118 78.2488 228.08 78.154 228.011 78.083C227.943 78.0121 227.849 77.9706 227.751 77.9672Z" fill="black"/>
<path d="M225.988 79.4845C222.055 79.4934 218.122 79.499 214.189 79.5013C210.273 79.5036 206.299 79.3314 202.39 79.5798C202.3 79.5807 202.215 79.6175 202.151 79.6823C202.088 79.747 202.052 79.8345 202.051 79.9261C202.29 82.5714 202.294 85.2563 202.407 87.9106C202.52 90.5723 202.637 93.2338 202.758 95.8952C202.76 95.9972 202.801 96.0945 202.871 96.1667C202.942 96.2388 203.037 96.2802 203.137 96.2822C209.632 96.3857 216.179 96.478 222.631 95.5923C223.962 95.4097 225.587 95.3631 226.809 94.7499C227.835 94.2346 228.206 93.2283 228.437 92.1458C229.063 89.0867 229.104 85.933 228.558 82.858C228.487 82.4409 227.873 82.6201 227.938 83.0325C228.428 85.9919 228.369 89.0191 227.763 91.9561C227.601 92.6962 227.391 93.4991 226.735 93.9526C226.151 94.3558 225.306 94.4146 224.631 94.5251C223.135 94.7701 221.63 94.9552 220.123 95.1029C214.477 95.6561 208.801 95.5692 203.137 95.5082L203.516 95.8952C203.385 93.2336 203.253 90.5721 203.12 87.9106C202.985 85.257 202.738 82.5831 202.729 79.9261L202.39 80.2724C206.302 80.4833 210.273 80.2728 214.189 80.2374C218.122 80.2018 222.055 80.1697 225.988 80.1409C226.072 80.138 226.151 80.1021 226.209 80.0409C226.267 79.9797 226.299 79.8978 226.299 79.8127C226.299 79.7275 226.267 79.6457 226.209 79.5844C226.151 79.5232 226.072 79.4874 225.988 79.4845Z" fill="black"/>
<path d="M203.597 105.161C212.42 105.525 221.252 104.679 229.845 102.645C230.369 102.52 230.147 101.712 229.622 101.837C221.105 103.878 212.351 104.765 203.597 104.474C203.154 104.458 203.156 105.143 203.597 105.161V105.161Z" fill="black"/>
<path d="M203.846 109.53C205.521 109.647 207.196 109.77 208.875 109.819C209.377 109.833 209.363 109.089 208.875 109.048C207.202 108.905 205.524 108.836 203.846 108.762C203.35 108.74 203.357 109.495 203.846 109.53Z" fill="black"/>
<path d="M205.863 115.062C205.956 115.059 206.044 115.02 206.109 114.953C206.174 114.886 206.21 114.796 206.21 114.703C206.21 114.61 206.174 114.52 206.109 114.453C206.044 114.386 205.956 114.347 205.863 114.344C205.77 114.347 205.681 114.386 205.617 114.453C205.552 114.52 205.516 114.61 205.516 114.703C205.516 114.796 205.552 114.886 205.617 114.953C205.681 115.02 205.77 115.059 205.863 115.062Z" fill="black"/>
<path d="M50.875 147.733C49.2949 147.704 47.6148 147.859 46.0914 147.354C44.2642 146.747 42.808 145.247 41.5244 143.871C39.1192 141.307 37.2856 138.261 36.1448 134.935C33.9806 128.558 34.5548 121.559 37.0029 115.35C39.8114 108.226 45.2013 102.161 51.2918 97.6244C54.8179 94.9978 58.6888 93.3726 62.8039 91.8979C67.1085 90.3552 71.4828 89.0293 75.927 87.9201C78.3674 87.3115 80.8229 86.7691 83.2937 86.2931C85.6914 85.8318 88.1322 85.5655 90.5218 85.0776C92.0569 84.7641 93.4851 83.9942 94.0992 82.478C94.6303 81.1666 94.1738 79.9412 92.9769 79.2301V80.0323C94.3029 79.3493 95.57 78.1352 95.4369 76.5174C95.3949 75.8618 95.1068 75.2462 94.6302 74.7939C94.1537 74.3416 93.5239 74.0859 92.8669 74.0782L93.1018 74.9451C95.7086 73.4435 95.7615 69.9358 93.242 68.318L93.0068 69.1862C95.7452 69.0497 98.4163 68.2898 100.816 66.9643C102.373 66.0939 104.945 64.5 104.098 62.3182C103.316 60.303 99.9247 60.8163 98.2714 60.7074C94.9804 60.4906 91.7031 60.1008 88.4531 59.5396C85.3957 59.0116 82.4026 58.1412 79.342 57.6546C76.5373 57.2383 73.7027 57.0565 70.8678 57.111C65.3717 57.1296 59.8945 57.7552 54.5358 58.9765C44.1526 61.4024 34.2506 66.2206 26.2066 73.2563C18.4676 80.0384 12.1915 88.3261 7.76119 97.6139C-1.27707 116.698 -2.72959 141.363 10.5024 158.922C21.937 174.097 41.2696 181.399 59.9107 180.249C68.3167 179.731 76.7417 177.956 84.563 174.813C91.9661 171.838 99.1578 167.496 103.994 161.013C105.133 159.481 106.111 157.834 106.911 156.1C107.181 155.519 106.317 155.009 106.046 155.594C102.797 162.602 96.6423 167.673 89.9329 171.226C82.7401 175.035 74.7426 177.326 66.7148 178.525C58.7591 179.712 50.6297 179.753 42.7568 177.979C33.6366 175.923 24.9414 171.687 17.9248 165.477C10.391 158.806 5.17793 149.908 3.0416 140.075C0.733815 129.62 1.6566 118.68 4.6574 108.464C10.2195 89.5283 23.8954 72.5401 41.9481 64.2632C51.5613 59.8557 62.0868 57.8904 72.6372 58.0564C75.4396 58.0604 78.2344 58.3489 80.9785 58.9176C83.8413 59.5545 86.6832 60.2143 89.5832 60.671C92.3861 61.1123 95.2047 61.431 98.039 61.6269C99.3328 61.7154 100.735 61.6166 102.006 61.8769C103.35 62.1521 103.587 63.4525 102.761 64.4173C102.265 64.9379 101.693 65.3811 101.065 65.732C98.6353 67.2403 95.8629 68.1081 93.0069 68.2543C92.9061 68.2573 92.8089 68.2926 92.7298 68.3551C92.6506 68.4175 92.5936 68.5038 92.5673 68.6012C92.5409 68.6985 92.5466 68.8017 92.5834 68.8956C92.6202 68.9895 92.6863 69.069 92.7718 69.1225C94.7104 70.3668 94.6153 72.9988 92.6323 74.1416C92.5467 74.1948 92.4804 74.2742 92.4435 74.3681C92.4065 74.4619 92.4008 74.5651 92.4272 74.6625C92.4536 74.7598 92.5106 74.846 92.5899 74.9084C92.6691 74.9707 92.7664 75.0058 92.8672 75.0085C94.1384 75 94.7764 76.3366 94.3709 77.4333C94.0523 78.295 93.294 78.8251 92.5082 79.2301C92.4391 79.2718 92.382 79.3306 92.3423 79.4009C92.3027 79.4712 92.2818 79.5505 92.2818 79.6312C92.2818 79.7119 92.3027 79.7912 92.3423 79.8615C92.382 79.9317 92.4391 79.9906 92.5082 80.0323C93.4667 80.6015 93.6053 81.5467 93.0638 82.4852C92.5406 83.3919 91.6393 83.856 90.6514 84.101C88.5409 84.6244 86.3116 84.7944 84.1712 85.1882C79.598 86.03 75.0705 87.1034 70.6061 88.4043C66.2189 89.663 61.9028 91.1574 57.6765 92.881C54.0188 94.3909 50.7489 96.7102 47.7958 99.3202C42.4078 104.082 37.9029 109.822 35.6048 116.702C33.5723 122.786 33.3225 129.54 35.5323 135.614C36.8176 139.115 38.8436 142.298 41.472 144.945C42.7058 146.193 44.0631 147.46 45.7504 148.049C47.3858 148.619 49.1732 148.466 50.8752 148.494C51.3649 148.502 51.3648 147.742 50.8752 147.733L50.875 147.733Z" fill="black"/>
<path d="M50.8726 148.114C47.6015 148.042 45.8916 148.432 43.0793 145.934C30.5407 134.796 32.5468 116.841 42.7743 105.047C46.793 100.413 52.2264 95.5488 57.9779 93.2437C68.0357 89.2143 78.5338 86.3856 89.2545 84.8162C90.2666 84.6682 91.3102 84.5215 92.1925 84.0035C93.7929 83.0637 94.7284 80.6604 92.7402 79.6314C93.8054 79.1214 94.825 78.2192 94.9735 76.9783C95.1199 75.7545 94.0907 74.4172 92.8647 74.5435C93.3997 74.2753 93.8517 73.8665 94.1722 73.361C94.4926 72.8555 94.6695 72.2723 94.6839 71.674C94.6983 71.0756 94.5496 70.4846 94.2537 69.9643C93.9579 69.444 93.526 69.014 93.0045 68.7204C96.229 68.5735 99.3461 67.5172 101.996 65.6736C102.607 65.295 103.122 64.7801 103.5 64.1691C103.842 63.5399 103.899 62.7099 103.47 62.1364C102.944 61.4323 101.939 61.3505 101.061 61.3184C94.5363 61.0792 88.0536 60.1711 81.7147 58.6082C76.9772 57.4399 71.4353 57.4623 66.5533 57.7268C51.1541 58.561 35.6334 64.7309 24.4729 75.4897C12.5611 86.9733 4.89879 100.756 2.13359 117.313C0.145557 129.216 1.40135 141.868 7.03298 152.542C15.5616 168.706 33.6195 178.682 51.863 179.779C69.7089 180.852 98.2574 173.838 106.476 155.847" fill="white"/>
<path d="M50.875 147.733C49.2949 147.704 47.6148 147.859 46.0914 147.354C44.2642 146.747 42.808 145.247 41.5244 143.871C39.1192 141.307 37.2856 138.261 36.1448 134.935C33.9806 128.558 34.5548 121.559 37.0029 115.35C39.8114 108.226 45.2013 102.161 51.2918 97.6244C54.8179 94.9978 58.6888 93.3726 62.8039 91.8979C67.1085 90.3552 71.4828 89.0293 75.927 87.9201C78.3674 87.3115 80.8229 86.7691 83.2937 86.2931C85.6914 85.8318 88.1322 85.5655 90.5218 85.0776C92.0569 84.7641 93.4851 83.9942 94.0992 82.478C94.6303 81.1666 94.1738 79.9412 92.9769 79.2301V80.0323C94.3029 79.3493 95.57 78.1352 95.4369 76.5174C95.3949 75.8618 95.1068 75.2462 94.6302 74.7939C94.1537 74.3416 93.5239 74.0859 92.8669 74.0782L93.1018 74.9451C95.7086 73.4435 95.7615 69.9358 93.242 68.318L93.0068 69.1862C95.7452 69.0497 98.4163 68.2898 100.816 66.9643C102.373 66.0939 104.945 64.5 104.098 62.3182C103.316 60.303 99.9247 60.8163 98.2714 60.7074C94.9804 60.4906 91.7031 60.1008 88.4531 59.5396C85.3957 59.0116 82.4026 58.1412 79.342 57.6546C76.5373 57.2383 73.7027 57.0565 70.8678 57.111C65.3717 57.1296 59.8945 57.7552 54.5358 58.9765C44.1526 61.4024 34.2506 66.2206 26.2066 73.2563C18.4676 80.0384 12.1915 88.3261 7.76119 97.6139C-1.27707 116.698 -2.72959 141.363 10.5024 158.922C21.937 174.097 41.2696 181.399 59.9107 180.249C68.3167 179.731 76.7417 177.956 84.563 174.813C91.9661 171.838 99.1578 167.496 103.994 161.013C105.133 159.481 106.111 157.834 106.911 156.1C107.181 155.519 106.317 155.009 106.046 155.594C102.797 162.602 96.6423 167.673 89.9329 171.226C82.7401 175.035 74.7426 177.326 66.7148 178.525C58.7591 179.712 50.6297 179.753 42.7568 177.979C33.6366 175.923 24.9414 171.687 17.9248 165.477C10.391 158.806 5.17793 149.908 3.0416 140.075C0.733815 129.62 1.6566 118.68 4.6574 108.464C10.2195 89.5283 23.8954 72.5401 41.9481 64.2632C51.5613 59.8557 62.0868 57.8904 72.6372 58.0564C75.4396 58.0604 78.2344 58.3489 80.9785 58.9176C83.8413 59.5545 86.6832 60.2143 89.5832 60.671C92.3861 61.1123 95.2047 61.431 98.039 61.6269C99.3328 61.7154 100.735 61.6166 102.006 61.8769C103.35 62.1521 103.587 63.4525 102.761 64.4173C102.265 64.9379 101.693 65.3811 101.065 65.732C98.6353 67.2403 95.8629 68.1081 93.0069 68.2543C92.9061 68.2573 92.8089 68.2926 92.7298 68.3551C92.6506 68.4175 92.5936 68.5038 92.5673 68.6012C92.5409 68.6985 92.5466 68.8017 92.5834 68.8956C92.6202 68.9895 92.6863 69.069 92.7718 69.1225C94.7104 70.3668 94.6153 72.9988 92.6323 74.1416C92.5467 74.1948 92.4804 74.2742 92.4435 74.3681C92.4065 74.4619 92.4008 74.5651 92.4272 74.6625C92.4536 74.7598 92.5106 74.846 92.5899 74.9084C92.6691 74.9707 92.7664 75.0058 92.8672 75.0085C94.1384 75 94.7764 76.3366 94.3709 77.4333C94.0523 78.295 93.294 78.8251 92.5082 79.2301C92.4391 79.2718 92.382 79.3306 92.3423 79.4009C92.3027 79.4712 92.2818 79.5505 92.2818 79.6312C92.2818 79.7119 92.3027 79.7912 92.3423 79.8615C92.382 79.9317 92.4391 79.9906 92.5082 80.0323C93.4667 80.6015 93.6053 81.5467 93.0638 82.4852C92.5406 83.3919 91.6393 83.856 90.6514 84.101C88.5409 84.6244 86.3116 84.7944 84.1712 85.1882C79.598 86.03 75.0705 87.1034 70.6061 88.4043C66.2189 89.663 61.9028 91.1574 57.6765 92.881C54.0188 94.3909 50.7489 96.7102 47.7958 99.3202C42.4078 104.082 37.9029 109.822 35.6048 116.702C33.5723 122.786 33.3225 129.54 35.5323 135.614C36.8176 139.115 38.8436 142.298 41.472 144.945C42.7058 146.193 44.0631 147.46 45.7504 148.049C47.3858 148.619 49.1732 148.466 50.8752 148.494C51.3649 148.502 51.3648 147.742 50.8752 147.733L50.875 147.733Z" fill="black"/>
<path d="M66.0772 79.3732C65.9691 82.1051 66.6756 84.8074 68.107 87.1367C68.4083 87.6285 69.1886 87.175 68.8817 86.6839C67.4988 84.5009 66.7948 81.9566 66.8587 79.3732C66.8699 78.8694 66.095 78.8714 66.0772 79.3732Z" fill="black"/>
<path d="M88.6173 68.038C90.1411 68.6614 91.9128 69.2021 93.5785 69.0126C93.6846 69.0087 93.7851 68.9637 93.8588 68.8873C93.9325 68.8108 93.9736 68.7087 93.9736 68.6026C93.9736 68.4964 93.9325 68.3943 93.8588 68.3178C93.7851 68.2414 93.6846 68.1964 93.5785 68.1925C91.9059 68.0805 90.3767 68.0224 88.7952 67.3925C88.3936 67.2325 88.2245 67.8773 88.6173 68.0379V68.038Z" fill="black"/>
<path d="M98.1962 63.5136C98.5969 63.7649 99.0615 63.8957 99.5344 63.8903C100.007 63.8849 100.469 63.7435 100.864 63.483C101.327 63.1768 100.876 62.4212 100.43 62.7417C100.167 62.9432 99.8505 63.0631 99.5198 63.0869C99.1892 63.1106 98.8588 63.037 98.5694 62.8751C98.485 62.8295 98.3861 62.8184 98.2936 62.8443C98.2012 62.8702 98.1224 62.931 98.074 63.0139C98.0256 63.0968 98.0112 63.1953 98.034 63.2885C98.0568 63.3818 98.115 63.4625 98.1962 63.5137V63.5136Z" fill="black"/>
<path d="M70.2958 155.765C71.963 157.258 73.881 159.346 73.3836 161.783C73.14 162.976 72.4299 164.055 71.8394 165.103C71.2965 166.067 70.7332 167.018 70.1293 167.945C68.941 169.768 67.5382 171.514 65.7193 172.743C63.7138 174.099 61.3764 174.566 59.007 174.812C56.3425 175.09 53.5956 175.172 51.1104 176.281C50.9497 176.353 51.089 176.587 51.2484 176.517C55.8247 174.511 61.2509 175.909 65.5854 173.148C67.4618 171.953 68.9364 170.235 70.1775 168.411C70.8174 167.47 71.3939 166.487 71.9519 165.496C72.534 164.463 73.2053 163.414 73.5324 162.265C74.2963 159.581 72.282 157.291 70.4075 155.653C70.3317 155.587 70.22 155.697 70.296 155.765L70.2958 155.765Z" fill="black"/>
<path d="M77.4371 155.161C75.42 161.271 72.6905 167.122 69.305 172.593C68.3556 174.129 67.3529 175.633 66.3172 177.112C66.1702 177.322 66.5121 177.517 66.6592 177.312C70.397 172.064 73.4738 166.375 75.8199 160.374C76.49 158.678 77.1023 156.96 77.6568 155.222C77.7015 155.081 77.4828 155.022 77.4371 155.161Z" fill="black"/>
<path d="M77.9621 159.865C76.0846 163.787 74.0496 167.628 71.857 171.389C71.2368 172.449 70.5997 173.5 69.963 174.551C69.9406 174.593 69.9354 174.642 69.9485 174.688C69.9617 174.735 69.9921 174.774 70.0335 174.798C70.0749 174.822 70.124 174.829 70.1707 174.818C70.2173 174.807 70.2578 174.778 70.2837 174.738C72.5618 171.037 74.6485 167.208 76.5929 163.322C77.1428 162.223 77.6799 161.118 78.2042 160.007C78.2807 159.845 78.0403 159.702 77.962 159.865L77.9621 159.865Z" fill="black"/>
<path d="M81.2443 154.411C78.472 159.797 75.6952 165.181 72.9137 170.562C72.5214 171.321 72.1285 172.078 71.7351 172.836C71.3224 173.558 70.9474 174.301 70.6118 175.061C70.525 175.282 70.8622 175.4 70.9801 175.216C71.3702 174.549 71.7253 173.862 72.044 173.158C72.3728 172.504 72.7025 171.85 73.0328 171.196L75.0688 167.167C76.426 164.48 77.7874 161.796 79.153 159.114L81.4742 154.545C81.5516 154.393 81.3229 154.258 81.2443 154.411Z" fill="black"/>
<path d="M83.7271 153.403C81.1177 159.088 78.1638 164.608 74.8819 169.934C73.9575 171.438 72.997 172.918 72.036 174.4L72.4764 174.657L72.7974 174.005C72.8245 173.954 72.831 173.895 72.8155 173.84C72.8001 173.785 72.7638 173.738 72.7143 173.709C72.6649 173.68 72.6062 173.672 72.5505 173.685C72.4949 173.699 72.4467 173.733 72.4161 173.782L72.0361 174.4C71.8629 174.681 72.2972 174.93 72.4765 174.657C75.8923 169.414 78.9761 163.963 81.71 158.335C82.4873 156.75 83.2424 155.154 83.9753 153.548C84.0514 153.381 83.804 153.235 83.7272 153.403H83.7271Z" fill="black"/>
<path d="M86.418 152.627C83.3929 158.575 80.0975 164.382 76.594 170.06C75.6104 171.655 74.6091 173.238 73.5899 174.81L74.0768 175.015C74.2491 174.496 74.4212 173.977 74.593 173.459C74.6939 173.155 74.2227 173.031 74.1165 173.327C73.9321 173.843 73.7476 174.358 73.5631 174.873C73.4579 175.167 73.8937 175.324 74.0499 175.079C77.634 169.449 80.9801 163.678 84.0884 157.766C84.96 156.108 85.8248 154.446 86.6662 152.772C86.749 152.608 86.5021 152.462 86.418 152.627L86.418 152.627Z" fill="black"/>
<path d="M88.1921 153.139C85.3941 158.417 82.3932 163.58 79.1894 168.626C78.29 170.044 77.3609 171.442 76.4552 172.855C76.2805 173.128 76.708 173.372 76.8865 173.108L77.7942 171.764C77.9635 171.513 77.5628 171.286 77.3917 171.528L76.4552 172.855L76.8866 173.108C78.5475 170.629 80.0948 168.067 81.6215 165.504C83.15 162.939 84.633 160.347 86.0704 157.728C86.8809 156.258 87.6759 154.78 88.4554 153.293C88.5464 153.119 88.2841 152.965 88.1921 153.139L88.1921 153.139Z" fill="black"/>
<path d="M89.6342 155.11C86.5692 160.294 83.4481 165.443 80.2709 170.559C79.3812 171.991 78.4735 173.413 77.5898 174.849L78.0683 174.978L78.0903 173.648C78.0881 173.584 78.0609 173.522 78.0145 173.478C77.9681 173.433 77.906 173.408 77.8415 173.408C77.7769 173.408 77.7149 173.433 77.6685 173.478C77.6221 173.522 77.5949 173.584 77.5927 173.648L77.5547 174.978C77.5562 175.034 77.5756 175.087 77.6101 175.131C77.6445 175.175 77.692 175.206 77.7457 175.221C77.7994 175.235 77.8564 175.232 77.9082 175.212C77.9599 175.192 78.0038 175.155 78.0332 175.108C81.2487 170.021 84.3112 164.828 87.3635 159.642C88.2186 158.189 89.0693 156.733 89.9156 155.275C89.9354 155.238 89.94 155.194 89.9285 155.154C89.9171 155.113 89.8903 155.079 89.854 155.057C89.8176 155.036 89.7744 155.03 89.7334 155.04C89.6925 155.05 89.6569 155.075 89.6342 155.11L89.6342 155.11Z" fill="black"/>
<path d="M91.1326 156.355C88.6689 160.695 86.0096 164.929 83.1391 169.011C82.3293 170.162 81.4907 171.292 80.6667 172.433L81.1376 172.632C81.4426 171.827 81.7394 171.019 82.0278 170.209C82.122 169.945 81.7186 169.848 81.6155 170.095C81.2827 170.892 80.9577 171.692 80.6407 172.495C80.5249 172.788 80.9528 172.907 81.1116 172.693C82.6034 170.686 84.0008 168.599 85.3719 166.508C86.7346 164.429 88.0478 162.32 89.3116 160.179C90.0267 158.967 90.7254 157.746 91.408 156.516C91.4275 156.48 91.4321 156.437 91.4209 156.398C91.4097 156.358 91.3835 156.324 91.3479 156.303C91.3122 156.282 91.2698 156.276 91.2297 156.286C91.1895 156.295 91.1547 156.32 91.1326 156.355Z" fill="black"/>
<path d="M94.185 154.155C91.1163 158.664 88.0315 163.162 84.9308 167.65C84.0554 168.924 83.1535 170.184 82.305 171.476C82.1245 171.751 82.5553 171.992 82.741 171.731C83.3262 170.909 83.9082 170.085 84.4871 169.26C84.6121 169.081 84.3172 168.849 84.1816 169.024C83.5515 169.838 82.926 170.655 82.3051 171.476L82.7411 171.731C84.3052 169.501 85.7807 167.204 87.298 164.942L91.853 158.152C92.7143 156.869 93.5794 155.587 94.4483 154.309C94.5587 154.146 94.2949 153.993 94.1851 154.155H94.185Z" fill="black"/>
<path d="M97.6591 153.891C94.5558 158.271 91.4022 162.615 88.1985 166.924C87.292 168.146 86.3639 169.353 85.4667 170.582C85.3289 170.771 85.6066 171.055 85.7955 170.911C86.122 170.67 86.368 170.337 86.5014 169.953C86.5788 169.735 86.2162 169.578 86.1234 169.794C86.0074 170.08 85.8088 170.324 85.553 170.496L85.8818 170.825C87.4995 168.69 89.0449 166.494 90.6034 164.316C92.1628 162.136 93.6963 159.938 95.2255 157.737C96.0925 156.489 96.9434 155.229 97.7983 153.973C97.8571 153.886 97.7184 153.807 97.6591 153.891V153.891Z" fill="black"/>
<path d="M99.1368 154.626C96.399 158.407 93.6359 162.17 90.8478 165.915C90.4488 166.453 90.0496 166.991 89.6501 167.529C89.4564 167.79 89.2626 168.05 89.0688 168.311C88.9719 168.441 88.8749 168.572 88.778 168.702C88.7418 168.751 88.7057 168.8 88.6697 168.849C88.639 168.9 88.6025 168.947 88.5609 168.989C88.4958 169.041 88.5125 169.106 88.6108 169.184L88.4595 169.247L88.5037 169.244C88.5587 169.243 88.6108 169.219 88.6491 169.18C88.6873 169.14 88.7087 169.087 88.7087 169.032C88.7087 168.977 88.6873 168.925 88.6491 168.885C88.6108 168.845 88.5587 168.822 88.5037 168.82C88.1462 168.807 88.0974 169.316 88.3897 169.456C88.8482 169.677 89.2446 168.866 89.4397 168.598C90.2518 167.483 91.0627 166.368 91.8723 165.252C93.4797 163.036 95.0823 160.816 96.6799 158.592C97.5914 157.324 98.5042 156.057 99.4184 154.79C99.5412 154.62 99.2588 154.457 99.137 154.626H99.1368Z" fill="black"/>
<path d="M100.891 156.084C98.3225 159.005 95.7489 161.957 93.4016 165.06L93.7767 165.28L94.9447 163.525C95.0798 163.322 94.7585 163.141 94.621 163.335L93.4016 165.06C93.2607 165.26 93.5882 165.516 93.7427 165.324C96.1724 162.291 98.5596 159.238 101.119 156.312C101.255 156.156 101.028 155.927 100.891 156.084V156.084Z" fill="black"/>
<path d="M101.891 158.582L96.6332 165.036C96.4745 165.231 96.7533 165.51 96.9107 165.314L102.119 158.81C102.247 158.65 102.022 158.421 101.891 158.582Z" fill="black"/>
<path d="M66.202 171.794C64.8035 174.34 63.0665 176.685 61.0383 178.765C61.0002 178.806 60.9795 178.86 60.9805 178.916C60.9815 178.972 61.0041 179.025 61.0436 179.065C61.0832 179.104 61.1365 179.127 61.1923 179.128C61.2482 179.129 61.3023 179.108 61.3432 179.07C63.4103 176.976 65.1503 174.583 66.5046 171.971C66.6093 171.772 66.3097 171.595 66.202 171.794Z" fill="black"/>
<path d="M60.7458 174.302C60.1443 175.574 59.2213 176.666 58.0682 177.472C57.8618 177.617 58.0571 177.959 58.268 177.813C59.4762 176.971 60.4329 175.816 61.0363 174.472C61.1241 174.277 60.8384 174.105 60.7458 174.302Z" fill="black"/>
<path d="M56.0694 175.302L55.0653 176.54C55.0409 176.566 55.0273 176.6 55.0273 176.636C55.0273 176.671 55.0409 176.705 55.0653 176.731C55.0907 176.756 55.125 176.77 55.1607 176.77C55.1964 176.77 55.2307 176.756 55.2561 176.731L56.2454 175.478C56.2678 175.454 56.2803 175.422 56.2803 175.39C56.2803 175.357 56.2678 175.326 56.2454 175.302C56.2219 175.279 56.1903 175.266 56.1574 175.266C56.1245 175.266 56.0929 175.279 56.0695 175.302L56.0694 175.302Z" fill="black"/>
<path d="M52.425 176.975C52.4489 176.974 52.4716 176.964 52.4882 176.947C52.5047 176.929 52.514 176.906 52.514 176.882C52.514 176.858 52.5047 176.835 52.4882 176.818C52.4716 176.8 52.4489 176.79 52.425 176.789C52.401 176.79 52.3784 176.8 52.3618 176.818C52.3452 176.835 52.3359 176.858 52.3359 176.882C52.3359 176.906 52.3452 176.929 52.3618 176.947C52.3784 176.964 52.401 176.974 52.425 176.975Z" fill="black"/>
<path d="M50.1813 176.537C50.2195 176.535 50.2557 176.519 50.2822 176.492C50.3088 176.464 50.3236 176.428 50.3236 176.389C50.3236 176.351 50.3088 176.314 50.2822 176.287C50.2557 176.26 50.2195 176.243 50.1813 176.242C50.1432 176.243 50.107 176.26 50.0804 176.287C50.0539 176.314 50.0391 176.351 50.0391 176.389C50.0391 176.428 50.0539 176.464 50.0804 176.492C50.107 176.519 50.1432 176.535 50.1813 176.537Z" fill="black"/>
<path d="M47.4443 176.276C47.4807 176.275 47.5152 176.26 47.5406 176.234C47.5659 176.208 47.58 176.173 47.58 176.136C47.58 176.1 47.5659 176.065 47.5406 176.039C47.5152 176.013 47.4807 175.997 47.4443 175.996C47.4079 175.997 47.3734 176.013 47.3481 176.039C47.3228 176.065 47.3086 176.1 47.3086 176.136C47.3086 176.173 47.3228 176.208 47.3481 176.234C47.3734 176.26 47.4079 176.275 47.4443 176.276Z" fill="black"/>
<path d="M63.837 152.641C67.4629 153.321 71.8288 154.271 73.4843 158.023C73.5656 158.207 73.8304 158.047 73.7536 157.866C72.123 154.006 67.5988 153.042 63.9097 152.378C63.738 152.347 63.6637 152.609 63.837 152.641Z" fill="black"/>
<path d="M73.4318 152.806C73.8611 153.797 74.2798 154.792 74.7379 155.77C74.8086 155.921 75.0749 155.812 75.0101 155.655C74.5927 154.646 74.1357 153.653 73.689 152.656C73.6104 152.481 73.3565 152.633 73.4317 152.806H73.4318Z" fill="black"/>
<path d="M74.2272 157.48L74.4747 158.228C74.484 158.26 74.5058 158.288 74.5351 158.304C74.5645 158.321 74.5992 158.325 74.6316 158.316C74.6641 158.307 74.6917 158.286 74.7085 158.256C74.7253 158.227 74.7299 158.193 74.7214 158.16L74.4705 157.413C74.4661 157.397 74.4586 157.382 74.4484 157.369C74.4382 157.356 74.4256 157.345 74.4112 157.337C74.3967 157.329 74.3809 157.323 74.3644 157.321C74.348 157.319 74.3313 157.32 74.3153 157.325C74.2993 157.329 74.2844 157.337 74.2713 157.347C74.2582 157.357 74.2473 157.37 74.2391 157.384C74.2309 157.399 74.2257 157.414 74.2236 157.431C74.2216 157.447 74.2228 157.464 74.2272 157.48Z" fill="black"/>
<path d="M8.0127 122.255C7.09183 125.336 7.04901 128.612 7.88907 131.716C7.90364 131.763 7.93564 131.801 7.97835 131.825C8.02105 131.848 8.07111 131.854 8.11799 131.841C8.16487 131.828 8.2049 131.797 8.22964 131.755C8.25439 131.714 8.26192 131.664 8.25066 131.616C7.44505 128.574 7.47493 125.371 8.33714 122.344C8.34725 122.302 8.34048 122.257 8.31828 122.219C8.29607 122.182 8.26015 122.154 8.21809 122.143C8.17603 122.131 8.13111 122.136 8.09279 122.157C8.05448 122.178 8.02577 122.213 8.0127 122.255Z" fill="black"/>
<path d="M8.67969 114.797L8.68142 115.92C8.68113 115.947 8.68613 115.974 8.69612 115.998C8.70612 116.023 8.72091 116.045 8.73966 116.064C8.7584 116.083 8.78071 116.098 8.80531 116.109C8.8299 116.119 8.85629 116.124 8.88294 116.124C8.90959 116.124 8.93598 116.119 8.96057 116.109C8.98517 116.098 9.00748 116.083 9.02622 116.064C9.04496 116.045 9.05976 116.023 9.06976 115.998C9.07975 115.974 9.08475 115.947 9.08445 115.92L9.08622 114.797C9.08622 114.743 9.0648 114.691 9.02668 114.653C8.98856 114.615 8.93686 114.594 8.88295 114.594C8.82904 114.594 8.77734 114.615 8.73922 114.653C8.7011 114.691 8.67969 114.743 8.67969 114.797Z" fill="black"/>
<path d="M177.249 147.517C179.401 144.629 182.506 142.596 186.013 141.776C186.996 141.544 188 141.416 189.01 141.393C189.046 141.392 189.081 141.376 189.106 141.35C189.132 141.323 189.146 141.288 189.146 141.251C189.146 141.215 189.132 141.179 189.106 141.153C189.081 141.127 189.046 141.111 189.01 141.109C185.329 141.183 181.801 142.592 179.083 145.074C178.32 145.772 177.633 146.549 177.031 147.39C176.936 147.523 177.154 147.647 177.249 147.517L177.249 147.517Z" fill="black"/>
<path d="M199.515 142.791C204.874 142.028 210.398 141.161 215.281 138.696C217.668 137.526 219.788 135.876 221.508 133.849C222.494 132.657 223.308 131.339 224.196 130.076C225.058 128.801 226.097 127.655 227.284 126.675C229.919 124.569 233.172 123.437 236.311 122.318C236.497 122.252 236.418 121.956 236.229 122.021C233.463 122.977 230.656 123.981 228.208 125.622C226.996 126.426 225.911 127.407 224.989 128.532C224.014 129.732 223.207 131.053 222.319 132.316C220.71 134.614 218.616 136.529 216.185 137.928C213.84 139.286 211.267 140.21 208.655 140.905C205.643 141.706 202.561 142.207 199.481 142.666C199.398 142.679 199.433 142.803 199.515 142.791L199.515 142.791Z" fill="black"/>
<path d="M217.13 143.764C219.156 143.016 220.9 141.659 222.123 139.879C222.787 138.907 223.248 137.792 224.03 136.902C224.78 136.09 225.759 135.526 226.837 135.284C228.053 134.975 229.297 134.971 230.54 134.894C230.577 134.892 230.612 134.877 230.638 134.85C230.664 134.823 230.679 134.787 230.679 134.75C230.679 134.713 230.664 134.677 230.638 134.65C230.612 134.624 230.577 134.608 230.54 134.606C228.506 134.566 226.135 134.754 224.477 136.06C223.565 136.778 223.014 137.801 222.447 138.79C221.896 139.789 221.197 140.698 220.372 141.486C219.413 142.376 218.291 143.072 217.068 143.538C216.928 143.591 216.988 143.817 217.13 143.764Z" fill="black"/>
<path d="M228.029 143.002L231.408 141.143C231.579 141.049 231.425 140.784 231.254 140.88L227.891 142.766C227.738 142.852 227.875 143.087 228.029 143.002H228.029Z" fill="black"/>
<path d="M149.273 147.902L151.894 148.278C151.935 148.288 151.979 148.282 152.015 148.261C152.052 148.24 152.08 148.206 152.092 148.166C152.103 148.124 152.098 148.08 152.077 148.043C152.056 148.006 152.021 147.979 151.98 147.967L149.358 147.594C149.317 147.585 149.274 147.591 149.238 147.611C149.201 147.632 149.174 147.666 149.162 147.706C149.151 147.747 149.156 147.79 149.177 147.827C149.198 147.863 149.232 147.89 149.273 147.902L149.273 147.902Z" fill="black"/>
<path d="M193.616 5.37995C194.558 4.9381 195.621 5.11264 196.514 5.59036C197.424 6.11286 198.179 6.86704 198.702 7.77615C199.786 9.51358 200.433 11.5446 202.015 12.9291C202.781 13.5998 203.728 14.0877 204.766 14.0671C204.794 14.066 204.82 14.0541 204.84 14.0339C204.86 14.0136 204.87 13.9866 204.87 13.9584C204.87 13.9303 204.86 13.9032 204.84 13.883C204.82 13.8627 204.794 13.8508 204.766 13.8498C202.529 13.7248 201.18 11.7211 200.253 9.9139C199.321 8.09776 198.39 6.09382 196.408 5.22851C195.957 5.00931 195.463 4.89266 194.962 4.88694C194.46 4.88122 193.964 4.98656 193.508 5.1954C193.384 5.25691 193.492 5.43784 193.616 5.38L193.616 5.37995Z" fill="black"/>
<path d="M206.555 14.9123C207.724 15.5381 209.253 15.4779 210.427 14.9134C210.585 14.8371 210.446 14.6131 210.29 14.6804C209.711 14.929 209.088 15.0582 208.458 15.0603C207.838 15.0462 207.226 14.919 206.651 14.6849C206.519 14.6357 206.432 14.8464 206.555 14.9123Z" fill="black"/>
<path d="M209.169 8.91528C210.612 9.59951 211.865 10.6257 212.821 11.9047C212.945 12.0713 213.228 11.908 213.102 11.7402C212.114 10.4172 210.817 9.35605 209.325 8.64909C209.147 8.565 208.99 8.82996 209.169 8.91537L209.169 8.91528Z" fill="black"/>
<path d="M47.606 37.6935C48.0066 35.7138 48.7654 33.824 49.8451 32.1171C49.9563 31.9413 49.677 31.7789 49.5667 31.9544C48.4773 33.6876 47.7132 35.605 47.312 37.6124C47.2738 37.8039 47.567 37.8861 47.606 37.6935Z" fill="black"/>
<path d="M91.0157 49.8576C91.0758 51.4219 91.2083 52.9749 91.2408 54.5427C91.2448 54.6567 91.2929 54.7647 91.3749 54.8439C91.457 54.9231 91.5666 54.9674 91.6806 54.9674C91.7947 54.9674 91.9043 54.9231 91.9863 54.8439C92.0684 54.7647 92.1165 54.6567 92.1204 54.5427C92.2028 52.9385 92.0709 51.3305 91.7281 49.7612C91.7028 49.6787 91.6489 49.6078 91.5762 49.5613C91.5034 49.5148 91.4165 49.4956 91.331 49.5072C91.2454 49.5188 91.1668 49.5604 91.109 49.6245C91.0512 49.6887 91.0182 49.7713 91.0156 49.8576H91.0157Z" fill="black"/>
<path d="M100.283 50.3717C99.8018 52.0647 99.1106 53.6909 98.2256 55.2123C97.9235 55.7223 98.6866 56.1531 99.0124 55.6722C100.061 54.1483 100.768 52.4154 101.084 50.5926C101.166 50.0759 100.44 49.8476 100.283 50.3718V50.3717Z" fill="black"/>
<path d="M81.7963 52.3405C82.3532 53.246 82.9041 54.1548 83.484 55.0457C83.7531 55.4592 84.402 55.0885 84.1498 54.6566C83.6137 53.7389 83.0488 52.839 82.4893 51.9354C82.218 51.4972 81.5247 51.8987 81.7963 52.3405Z" fill="black"/>
<path d="M3.47004 90.8071C3.82818 87.7208 4.95222 84.7836 6.47063 82.0885C7.22493 80.7611 8.05713 79.4795 8.96286 78.2505C9.42407 77.6198 9.90007 77.0004 10.3908 76.3922C10.8528 75.7741 11.3765 75.2045 11.9537 74.6923C13.0133 73.8182 15.0242 73.3009 15.7619 74.8602C16.0169 75.3992 15.9692 76.1101 15.4081 76.4307C14.9957 76.6662 14.3367 76.6809 14.0344 76.2575C13.6051 75.6561 14.0842 74.6467 14.359 74.0731C14.6885 73.399 15.1022 72.7693 15.5901 72.1993C16.5984 71.0656 17.722 70.0399 18.9426 69.1388C21.825 66.8988 24.9581 65.0018 28.2788 63.4858C28.5819 63.3471 28.3187 62.8995 28.0171 63.038C24.6938 64.5638 21.5577 66.4679 18.6709 68.7125C17.3595 69.732 16.0526 70.8055 15.0198 72.1168C14.5207 72.7372 14.1073 73.422 13.7909 74.1527C13.5038 74.8342 13.1712 75.7398 13.5978 76.4359C14.2187 77.4491 15.8644 77.0763 16.2259 76.0373C16.3127 75.7449 16.3272 75.4358 16.2683 75.1366C16.2094 74.8373 16.0788 74.5569 15.8876 74.3192C15.6753 74.0487 15.4033 73.8308 15.093 73.6826C14.7826 73.5344 14.4423 73.4598 14.0984 73.4647C12.3423 73.4444 11.1341 74.8853 10.1362 76.1376C9.08351 77.4466 8.10287 78.812 7.19864 80.2276C5.16666 83.4409 3.61933 87.0013 3.20018 90.8071C3.18115 90.9798 3.45025 90.9775 3.47004 90.8071Z" fill="black"/>
<path d="M13.0665 68.0932C14.1786 66.9571 15.5035 66.0512 16.9656 65.4271C17.1996 65.3266 16.9982 64.9766 16.764 65.0821C15.2891 65.7504 13.9533 66.6903 12.8262 67.8528C12.6736 68.0098 12.9134 68.2501 13.0666 68.0932H13.0665Z" fill="black"/>
<path d="M53.2463 151.492C54.8899 151.759 56.4704 152.326 57.9093 153.164C57.9385 153.18 57.9727 153.184 58.0047 153.175C58.0367 153.166 58.064 153.145 58.0808 153.116C58.0975 153.087 58.1025 153.053 58.0946 153.021C58.0867 152.989 58.0665 152.961 58.0384 152.943C56.6008 152.026 54.9728 151.448 53.2784 151.255C53.1446 151.238 53.1115 151.472 53.2463 151.492Z" fill="black"/>
<path d="M49.0025 153.528C49.3526 153.583 49.6804 153.734 49.9494 153.965C50.2184 154.195 50.4178 154.496 50.5253 154.834C50.5377 154.873 50.5649 154.906 50.6012 154.926C50.6375 154.946 50.6801 154.951 50.72 154.94C50.7598 154.929 50.7939 154.903 50.8149 154.867C50.836 154.831 50.8424 154.789 50.8328 154.749C50.7119 154.354 50.478 154.004 50.16 153.741C50.0045 153.611 49.8316 153.504 49.6462 153.422C49.4536 153.337 49.2474 153.287 49.0372 153.274C48.8932 153.264 48.8581 153.503 49.0027 153.528H49.0025Z" fill="black"/>
<path d="M45.0508 153.498V154.35C45.0508 154.386 45.0654 154.421 45.0913 154.447C45.1173 154.473 45.1525 154.488 45.1892 154.488C45.2259 154.488 45.2611 154.473 45.2871 154.447C45.3131 154.421 45.3276 154.386 45.3276 154.35V153.498C45.3276 153.461 45.3131 153.426 45.2871 153.4C45.2611 153.374 45.2259 153.359 45.1892 153.359C45.1525 153.359 45.1173 153.374 45.0913 153.4C45.0654 153.426 45.0508 153.461 45.0508 153.498Z" fill="black"/>
</svg>
