<svg width="95" height="52" viewBox="0 0 95 52" fill="none" xmlns="http://www.w3.org/2000/svg">
<path d="M6.87845 13.7552C6.2109 17.9109 9.15377 22.015 12.9381 23.8531C14.9884 24.9041 17.3246 25.2604 19.5949 24.8685C22.4813 24.2903 24.9353 22.203 26.355 19.6221C28.6866 15.2286 28.2151 9.8745 25.1515 5.95608C21.9416 2.13569 16.7444 0.6285 11.9885 2.1388C9.59097 2.95679 7.34856 4.7432 6.76562 7.20656" fill="#FF6739"/>
<path d="M6.62576 13.7542C5.89709 19.6164 10.9696 24.656 16.5779 25.3611C22.6141 26.1227 27.428 21.0737 28.1426 15.3666C28.9364 9.59583 25.645 4.04006 20.2025 1.96385C15.2428 0.111621 8.1348 1.41382 6.42831 7.09743C6.39279 7.28526 6.50753 7.46888 6.69193 7.51928C6.87633 7.56968 7.06852 7.46996 7.13348 7.29017C8.78825 1.90273 15.68 0.986023 20.2401 2.85705C24.9433 4.81685 27.8319 9.60079 27.3763 14.6756C26.9344 19.8938 22.915 24.8581 17.3348 24.6136C11.7546 24.3692 6.55054 19.4754 7.13818 13.7542C7.17108 13.4251 6.66807 13.4345 6.62576 13.7542Z" fill="#FF6739"/>
<path d="M5.88383 13.4798C4.85899 20.0096 10.2276 25.7825 16.5647 26.5817C23.1462 27.4044 28.4913 21.9417 29.3469 15.7081C30.2119 9.37574 26.8318 3.23143 20.8192 0.909093C15.1779 -1.26281 7.23304 0.363768 5.3479 6.79955C4.81668 8.62356 7.61852 9.38044 8.16855 7.58463C9.64469 2.88355 15.8501 2.33352 19.7426 3.96009C23.9622 5.77145 26.5263 10.1033 26.0844 14.6739C25.7036 19.2621 22.159 23.5307 17.3027 23.385C12.2914 23.2345 7.5104 18.9001 7.87708 13.7524C7.957 12.6148 6.04366 12.3421 5.86502 13.4798L5.88383 13.4798Z" fill="black"/>
<path d="M10.0034 10.9339C9.60856 14.4174 10.3372 18.1735 13.6703 19.9975C16.0725 21.3138 19.9368 21.0647 21.4506 18.5402C22.0711 17.5107 20.5104 16.6598 19.8616 17.6C18.5218 19.5462 15.2216 17.8115 14.0088 16.6081C12.5683 15.0572 11.7339 13.0398 11.6582 10.9245C11.6582 10.4727 11.292 10.1065 10.8402 10.1065C10.3885 10.1065 10.0223 10.4727 10.0223 10.9245L10.0034 10.9339Z" fill="white"/>
<path d="M72.8082 24.069C70.0581 27.2564 70.4107 32.2959 72.6672 35.8452C73.8616 37.8163 75.6629 39.347 77.8008 40.2078C80.5603 41.2233 83.7288 40.7531 86.305 39.2911C90.6042 36.7771 93.0181 31.9659 92.4634 27.0166C91.7356 22.0797 88.1007 18.0698 83.2587 16.8623C80.7907 16.2981 77.9418 16.6413 76.1507 18.4324" fill="#FF6739"/>
<path d="M72.6286 23.8853C69.0088 28.3748 70.4473 35.0739 74.6031 38.7313C79.3041 42.8871 86.3558 41.2323 90.0837 36.5782C93.6925 32.1711 93.874 25.8842 90.5256 21.2762C87.3148 16.9371 80.4465 14.14 75.9053 18.1688C75.5527 18.4838 76.0698 19.0009 76.4271 18.6906C80.8414 14.8122 87.484 18.056 90.2671 22.3104C93.0501 26.5649 92.5659 32.0887 89.4444 36.0188C85.9327 40.4331 79.3324 41.9374 74.9227 37.9274C71.1619 34.5097 69.7845 28.3983 73.0423 24.1956C73.2209 23.9652 72.8261 23.6597 72.6427 23.8853L72.6286 23.8853Z" fill="#FF6739"/>
<path d="M72.0851 23.3498C67.9764 28.1261 69.241 35.5068 73.7493 39.5967C78.9205 44.2978 86.7807 42.6336 90.9741 37.4765C94.9935 32.5357 95.3084 25.517 91.383 20.4304C87.6786 15.6259 80.124 12.9087 75.1267 17.3982C73.7164 18.6722 75.7849 20.689 77.2093 19.4761C81.0501 16.1571 86.8794 19.3257 89.2206 22.9314C91.6393 26.7809 91.3328 31.7443 88.459 35.267C85.3892 39.1078 79.7009 40.4805 75.7661 37.0863C72.2356 34.0306 70.844 28.5257 73.6835 24.5909C74.3604 23.6507 72.8326 22.4707 72.0757 23.3498L72.0851 23.3498Z" fill="black"/>
<path d="M77.0767 23.1578C75.0129 25.7857 73.5556 29.0106 75.0082 32.3108C76.2493 35.1314 79.7986 37.1529 82.7415 35.7755C83.6817 35.3383 83.0048 33.7023 82.0316 34.0878C79.5636 35.0656 77.6408 31.8736 77.2977 29.8568C77.0197 27.888 77.3928 25.8822 78.3601 24.145C78.7691 23.3693 77.6784 22.3868 77.0767 23.1531L77.0767 23.1578Z" fill="white"/>
<path d="M86.3795 34.8984L86.4406 34.8326C86.6593 34.6098 86.7434 34.2877 86.6616 33.9864L86.577 33.7796C86.4987 33.6509 86.3907 33.5428 86.262 33.4646C86.0575 33.355 85.8198 33.3249 85.5945 33.38C85.448 33.4166 85.3146 33.4931 85.209 33.6009C85.1023 33.7082 85.0247 33.8409 84.9833 33.9864L84.9551 34.0663L84.9222 34.2967C84.9186 34.4095 84.9446 34.5213 84.9974 34.6211C85.0152 34.6926 85.0527 34.7577 85.1055 34.8091C85.1649 34.9024 85.2475 34.9785 85.3453 35.03L85.5474 35.1147L85.7778 35.1476C85.8924 35.1536 86.0063 35.1276 86.1069 35.0724C86.2105 35.0373 86.304 34.9776 86.3795 34.8984Z" fill="white"/>
<path d="M87.7034 29.4593L87.6376 29.3982C87.5369 29.2979 87.4123 29.2251 87.2756 29.1866C87.1339 29.149 86.9848 29.149 86.8431 29.1866L86.6456 29.2713C86.524 29.342 86.4221 29.4422 86.3495 29.5627C86.2929 29.6551 86.2606 29.7601 86.2554 29.8683C86.2274 29.9746 86.2274 30.0864 86.2554 30.1927C86.2918 30.3303 86.365 30.4554 86.467 30.5546C86.5656 30.6574 86.691 30.7307 86.829 30.7662L86.9089 30.7991L87.1204 30.8273C87.2284 30.833 87.3358 30.8086 87.4307 30.7568C87.4973 30.7393 87.5575 30.7035 87.6047 30.6534C87.6931 30.5987 87.7647 30.5206 87.8115 30.4277L87.8961 30.2397L87.9243 30.0234C87.9297 29.917 87.9053 29.8112 87.8538 29.7179C87.8224 29.6188 87.7657 29.5297 87.6893 29.4593L87.7034 29.4593Z" fill="white"/>
<path d="M83.1501 25.862L83.2676 25.815C83.3874 25.7884 83.4979 25.7299 83.5873 25.6457C83.6904 25.5809 83.7747 25.4901 83.8317 25.3825L83.9257 25.1615C83.9587 25.0383 83.9587 24.9087 83.9257 24.7854C83.9263 24.7031 83.9052 24.622 83.8646 24.5504C83.8263 24.4332 83.7583 24.3279 83.6672 24.2448L83.4791 24.0991C83.3363 24.0162 83.1742 23.9725 83.009 23.9722L82.8868 23.9722C82.7218 23.9737 82.56 24.0174 82.4167 24.0991L82.224 24.2495C82.1066 24.3665 82.0223 24.5125 81.9795 24.6726C81.9443 24.7971 81.9443 24.9289 81.9795 25.0534C81.9839 25.1791 82.0229 25.3011 82.0923 25.406C82.2227 25.6188 82.4269 25.7761 82.6659 25.8479C82.8319 25.8945 83.0075 25.8945 83.1736 25.8479L83.1501 25.862Z" fill="white"/>
<path d="M87.2636 25.7979C87.2636 25.3929 86.9353 25.0645 86.5302 25.0645C86.1252 25.0645 85.7969 25.3929 85.7969 25.7979C85.7969 26.2029 86.1252 26.5312 86.5302 26.5312C86.9353 26.5312 87.2636 26.2029 87.2636 25.7979Z" fill="white"/>
<path d="M30.8528 48.7346C36.1885 48.7675 41.2563 48.7769 46.5685 49.5244C48.1198 49.7453 48.8297 47.4042 47.2313 47.1174C41.9144 46.1772 35.9252 45.8716 30.6036 46.8918C29.5412 47.0939 29.8185 48.7299 30.8528 48.7346Z" fill="black"/>
<path d="M45.3311 32.8616C45.2563 32.0777 45.4202 31.2895 45.8012 30.6004C46.3888 29.5568 44.7387 28.6166 44.2122 29.6602C43.7012 30.6416 43.4918 31.7522 43.6105 32.8522C43.6253 33.3177 44.0005 33.6909 44.4661 33.7031C44.9339 33.698 45.3119 33.32 45.317 32.8522L45.3311 32.8616Z" fill="black"/>
<path d="M59.7878 34.2311L59.7549 33.4131C59.7816 33.0055 59.5793 32.6169 59.2301 32.405C58.8809 32.1931 58.4428 32.1931 58.0936 32.405C57.7444 32.6169 57.5421 33.0055 57.5689 33.4131L57.5312 34.2311C57.5312 34.8542 58.0364 35.3594 58.6595 35.3594C59.2826 35.3594 59.7878 34.8542 59.7878 34.2311Z" fill="black"/>
<path d="M23.2371 41.2485C23.7112 40.513 24.3564 39.9032 25.1176 39.4715C26.2599 38.8134 25.2069 37.0034 24.0833 37.7039C23.0518 38.3441 22.1893 39.2228 21.5682 40.266C20.9242 41.3472 22.5743 42.2969 23.2465 41.2485L23.2371 41.2485Z" fill="black"/>
<path d="M4.67707 34.1629L9.31234 34.9809C10.6239 35.216 11.1928 33.2086 9.86706 32.9735L5.2318 32.1555C3.9202 31.9205 3.35137 33.9279 4.67707 34.1629Z" fill="black"/>
<path d="M54.1047 49.2462C55.8327 48.3264 57.8056 47.9713 59.7459 48.2307C61.0717 48.3906 61.067 46.2986 59.7459 46.1482C57.4405 45.8944 55.1128 46.3573 53.0798 47.4739C51.9187 48.1038 52.9482 49.862 54.1141 49.2462L54.1047 49.2462Z" fill="#FF6739"/>
<path d="M66.0262 47.5781L65.6172 50.8453C65.6223 51.4378 66.1013 51.9168 66.6937 51.9219C67.2831 51.9094 67.7578 51.4346 67.7703 50.8453L68.1793 47.5781C68.1767 46.9846 67.6962 46.5041 67.1027 46.5015C66.5144 46.5164 66.041 46.9898 66.0262 47.5781Z" fill="#FF6739"/>
<path d="M29.3424 32.1563C31.0508 31.6696 32.3862 30.3342 32.8729 28.6258C33.2584 27.3659 31.2323 26.8065 30.8938 28.0805C30.5742 29.2124 29.7706 30.1451 28.6984 30.6285C27.8334 31.0422 28.4445 32.4102 29.3424 32.1563Z" fill="#FF6739"/>
<path d="M15.2184 45.0275C14.5649 43.9133 13.8974 42.8321 13.1781 41.7367C12.4588 40.6414 10.8793 41.6427 11.528 42.7005C12.1768 43.7582 12.9148 44.8677 13.6576 45.9254C14.3158 46.8656 15.8154 46.0335 15.2184 45.0087L15.2184 45.0275Z" fill="#FF6739"/>
<path d="M1.08376 22.6151C1.79199 22.4294 2.48761 22.1986 3.16634 21.924C3.68438 21.7672 3.98837 21.2316 3.8574 20.7065C3.7089 20.1818 3.16638 19.8739 2.63982 20.0154C1.87774 20.3025 1.13499 20.6386 0.41621 21.0214C0.0493301 21.2472 -0.0984318 21.7066 0.0680067 22.1039C0.234445 22.5013 0.665487 22.7182 1.08376 22.6151Z" fill="#FF6739"/>
</svg>
