<svg width="289" height="342" viewBox="0 0 289 342" fill="none" xmlns="http://www.w3.org/2000/svg">
<path d="M80.8164 28.3984L80.9901 28.7292C87.3368 40.9475 90.4628 54.5824 90.0725 68.3452L88.0512 149.673C89.4245 172.679 105.048 191.276 125.963 194.799C146.878 198.321 167.731 185.871 176.566 164.582L202.708 85.2325C206.645 73.1308 213.378 62.1268 222.361 53.1122L223.129 52.35L80.8164 28.3984Z" fill="#FF6739"/>
<path d="M78.9835 29.1739C85.9138 42.3647 88.3831 56.6035 88.0142 71.374L87.2858 100.695L86.3968 136.698C86.1949 144.7 85.6513 152.292 87.6827 160.155C92.005 176.922 104.43 191.227 121.412 195.808C138.022 200.293 155.481 194.505 167.317 182.323C172.032 177.469 176.238 171.38 178.525 164.973C179.402 162.52 180.132 160.019 180.973 157.548L191.4 125.895L201.979 93.7845C205.343 83.5737 208.895 73.6524 215.174 64.7354C217.911 60.8881 220.976 57.2856 224.336 53.9684C225.536 52.7759 225.241 50.7148 223.382 50.4155L175.357 42.3055L98.7472 29.4018L81.0744 26.426C78.5435 26.0008 78.0349 29.9511 80.5611 30.3758L128.588 38.4667L205.198 51.3704L222.871 54.3463L221.889 50.7896C211.644 60.9922 204.613 73.0285 200.104 86.712L191.627 112.517L180.262 147.009C178.36 152.792 176.799 158.835 174.454 164.464C167.747 180.683 151.826 192.908 134.063 193.407C116.74 193.886 101.32 182.843 94.3445 167.296C91.8645 161.773 90.047 155.377 90.0442 149.284C90.04 146.5 90.1816 143.706 90.2497 140.922L91.077 107.357L91.8782 75.2521C92.1683 63.645 91.7432 52.3158 88.254 41.0699C86.8029 36.4264 84.9295 31.9255 82.6572 27.6238C81.4717 25.37 77.7868 26.8945 78.9835 29.1739Z" fill="#FF6739"/>
<path d="M127.324 228.061C129.058 217.764 134.791 209.59 141.634 206.444C143.171 205.757 144.516 204.704 145.551 203.377C146.587 202.049 147.281 200.489 147.574 198.831L149.648 186.579L106.294 179.255L104.22 191.506C103.952 193.175 104.099 194.883 104.647 196.481C105.195 198.079 106.128 199.518 107.363 200.67C112.797 205.884 115.551 215.488 113.804 225.784C112.056 236.08 106.315 244.272 99.4754 247.395C97.9422 248.086 96.6015 249.141 95.5701 250.47C94.5388 251.798 93.8481 253.358 93.5584 255.015L91.1932 269.064L134.55 276.37L136.916 262.316C137.179 260.651 137.03 258.946 136.482 257.352C135.934 255.757 135.002 254.322 133.77 253.171C128.331 247.957 125.582 238.353 127.324 228.061Z" fill="#FF6739"/>
<path d="M129.296 228.317C130.329 222.556 132.634 216.971 136.634 212.617C140.074 208.865 145.415 207.714 148.057 203.203C149.554 200.658 149.8 197.651 150.285 194.771L151.62 186.83C151.681 186.308 151.535 185.782 151.214 185.366C150.893 184.949 150.423 184.674 149.902 184.599L112.067 178.237L106.55 177.298C106.027 177.239 105.503 177.385 105.086 177.706C104.67 178.026 104.394 178.496 104.318 179.016C103.64 183.051 102.846 187.079 102.263 191.126C101.976 192.945 102.094 194.805 102.609 196.573C103.123 198.342 104.021 199.975 105.239 201.356C108.095 204.54 110.203 207.627 111.325 211.847C113.736 221.055 111.756 231.845 105.958 239.438C104.766 241.02 103.369 242.437 101.803 243.651C100.311 244.791 98.6068 245.456 97.0416 246.456C95.5845 247.41 94.3411 248.656 93.3897 250.115C92.4384 251.573 91.7998 253.213 91.5144 254.931C90.6418 259.533 89.9557 264.182 89.1773 268.801C89.1169 269.323 89.2626 269.849 89.5834 270.265C89.9043 270.682 90.375 270.957 90.8955 271.032L128.735 277.395L134.24 278.322C134.766 278.389 135.299 278.248 135.722 277.927C136.145 277.607 136.426 277.133 136.505 276.608L137.808 268.88C138.281 266.052 139.086 263.084 139.001 260.217C138.809 254.278 133.854 251.462 131.473 246.544C128.731 240.89 128.35 234.45 129.317 228.305C129.714 225.771 125.764 225.257 125.367 227.792C124.444 233.639 124.705 239.668 126.646 245.295C127.478 247.731 128.678 250.026 130.202 252.1C132.007 254.521 134.402 256.171 134.933 259.356C135.392 262.122 134.351 265.425 133.897 268.14L132.541 276.093L134.773 274.37L96.9376 268.008L91.4284 267.08L93.1466 269.312L95.3189 256.302C95.8557 253.136 97.3156 250.759 100.23 249.235C103.598 247.526 106.556 245.108 108.9 242.146C114.564 234.917 116.979 225.151 116.102 216.079C115.745 211.947 114.533 207.934 112.543 204.295C110.473 200.616 106.208 197.938 106.058 193.42C105.978 191.036 106.747 188.453 107.141 186.125L108.249 179.527L106.036 181.248L143.876 187.61L149.381 188.538L147.662 186.306L146.361 194.025C145.829 197.192 145.673 200.616 143.22 202.998C141.519 204.675 139.014 205.418 137.103 206.856C135.166 208.313 133.443 210.034 131.984 211.969C128.451 216.591 126.37 222.114 125.35 227.809C124.9 230.312 128.85 230.826 129.296 228.317Z" fill="#FF6739"/>
<path d="M54.3727 282.089C56.6442 278.359 73.543 268.688 81.8148 264.071C84.715 262.455 88.0783 261.873 91.3528 262.421L136.595 270.044C139.979 270.614 143.056 272.353 145.289 274.959C151.592 282.338 164.355 297.524 165.298 300.758C166.549 305.067 163.029 329.888 159.76 333.624C156.491 337.36 52.0855 320.44 49.0437 314.978C46.002 309.516 51.3487 287.052 54.3727 282.089Z" fill="#FF6739"/>
<path d="M55.949 283.303C57.2531 281.31 59.6579 279.889 61.5735 278.563C64.6007 276.466 67.7395 274.548 70.8973 272.633C74.1934 270.653 77.5342 268.737 80.8896 266.857C84.245 264.976 87.2876 263.836 91.1511 264.419C99.3962 265.64 107.599 267.188 115.816 268.588L131.01 271.145C134.582 271.749 138.418 272.022 141.46 274.184C144.502 276.347 146.728 279.747 149.044 282.529C151.544 285.531 154.041 288.553 156.474 291.619C158.46 294.121 160.458 296.644 162.216 299.314C163.278 300.926 163.513 301.486 163.55 303.393C163.668 309.303 162.625 315.399 161.531 321.186C161.047 324.022 160.361 326.82 159.48 329.559C159.207 330.357 158.826 331.217 158.518 331.919C158.21 332.62 158.13 332.051 158.437 332.135C159.284 332.365 158.452 331.799 158.505 332.057C158.478 331.933 158.993 332.009 158.505 332.057C158.335 332.068 158.165 332.118 157.99 332.129C157.504 332.163 157.061 332.201 156.591 332.217C155.808 332.241 154.235 332.191 152.987 332.12C149.07 331.914 145.155 331.506 141.257 331.077C118.692 328.534 96.1669 324.803 73.9331 320.199C66.6923 318.699 58.9621 317.444 52.0845 314.595C51.7008 314.434 51.3178 314.269 50.9479 314.076C50.4557 313.825 50.9916 314.111 50.8439 314.024C50.7087 313.953 50.5858 313.861 50.4798 313.751C50.9449 314.322 50.5781 313.624 50.7148 314.017C50.6055 313.709 50.4749 313.418 50.3911 313.099C50.1166 311.832 50.0116 310.534 50.0788 309.239C50.1785 302.654 51.6706 295.88 53.5613 289.595C54.1815 287.528 54.8232 285.184 55.9109 283.336C57.1916 281.153 54.0528 278.698 52.7602 280.899C49.6709 286.142 48.4129 292.783 47.3131 298.689C46.6463 301.997 46.2504 305.354 46.1291 308.726C46.075 311.069 45.9684 314.224 47.4211 316.238C48.5672 317.832 50.959 318.475 52.7178 319.06C56.4946 320.312 60.3848 321.246 64.255 322.148C87.4031 327.536 111.068 331.319 134.635 334.295C142.217 335.252 150.391 336.757 158.077 336.124C161.139 335.871 162.187 333.927 163.143 331.128C165.303 324.806 166.3 317.953 167.006 311.336C167.49 306.872 168.4 301.828 165.936 297.818C162.104 291.58 157.055 285.959 152.375 280.361C149.975 277.482 147.656 274.2 144.789 271.766C142.377 269.799 139.483 268.514 136.407 268.042C132.819 267.412 129.22 266.834 125.629 266.227L93.6956 260.849C92.861 260.712 92.0295 260.551 91.1919 260.437C86.6076 259.841 82.7668 261.269 78.8441 263.475C71.9187 267.367 64.9399 271.3 58.447 275.903C56.4735 277.303 54.1167 278.836 52.7649 280.9C51.3934 283.004 54.5429 285.451 55.949 283.303Z" fill="#FF6739"/>
<path d="M200.52 96.3794C201.094 95.0699 201.742 93.7939 202.461 92.5575C203.168 91.3395 201.9 93.3515 202.42 92.6148C202.626 92.3285 202.814 92.0302 203.017 91.7291C203.5 91.0455 204.015 90.3852 204.551 89.7421C205.266 88.8719 206.156 87.6198 207.104 87.0303C205.852 87.8067 206.873 87.2555 207.202 86.9805C207.408 86.8049 207.619 86.63 207.829 86.4599C208.46 85.9511 209.109 85.4672 209.775 85.008C210.306 84.6291 210.892 84.2718 211.466 83.9322C211.679 83.7765 211.91 83.6449 212.152 83.5399L211.5 83.8886C211.733 83.7647 211.97 83.6462 212.206 83.5325C213.377 82.9646 214.586 82.4781 215.824 82.0763C216.191 81.9602 216.565 81.8596 216.937 81.7394C217.705 81.502 216.903 81.9998 216.542 81.818C216.827 81.9562 218.024 81.5291 218.413 81.464C219.041 81.3723 219.667 81.3043 220.298 81.2611C220.551 81.2411 220.784 81.228 221.05 81.2192L221.803 81.2063C222.467 81.2155 222.309 81.2046 221.325 81.1779C221.784 81.3531 222.509 81.2595 223.011 81.3247C223.513 81.39 224.133 81.4706 224.684 81.6048C225.05 81.6812 225.413 81.7813 225.783 81.8631C226.784 82.0895 225.433 81.7743 225.322 81.7021C225.871 82.0721 226.799 82.2312 227.418 82.5043C228.038 82.7775 228.554 83.0323 229.103 83.33L229.758 83.6993C230.942 84.3348 228.634 82.8935 229.732 83.6719C230.783 84.3993 231.788 85.1893 232.743 86.0377C233.213 86.4647 233.633 87.0058 234.131 87.398C233.061 86.5558 233.711 86.9245 234.015 87.2914C234.234 87.5366 234.432 87.7887 234.65 88.0433C235.532 89.1313 236.339 90.2789 237.064 91.4777C237.243 91.7659 237.408 92.057 237.577 92.3486C238.273 93.5131 237.153 91.4604 237.532 92.2513C237.792 92.8052 238.072 93.3522 238.322 93.9143C238.936 95.3054 239.453 96.7372 239.87 98.1994C239.946 98.4645 240.016 98.7385 240.093 99.0037C240.484 100.398 239.862 97.7023 240.115 99.127C240.237 99.8219 240.378 100.51 240.476 101.206C240.674 102.615 240.782 104.035 240.8 105.457C240.804 105.795 240.902 107.262 240.824 105.571C240.824 105.915 240.805 106.258 240.767 106.599C240.705 107.448 240.614 108.294 240.5 109.136C240.25 110.897 239.887 112.641 239.412 114.355C239.327 114.676 239.017 115.801 239.391 114.521C239.275 114.93 239.127 115.329 238.989 115.725C238.736 116.444 238.47 117.161 238.186 117.865C237.479 119.599 236.704 121.294 235.844 122.95C235.055 124.461 234.196 125.924 233.313 127.379C233.185 127.584 232.674 128.331 233.313 127.379C233.079 127.734 232.85 128.089 232.612 128.439C232.097 129.215 231.565 129.974 231.024 130.727C227.313 135.888 223.142 140.7 218.56 145.106C218.345 145.319 218.125 145.531 217.906 145.729C216.804 146.799 218.853 144.889 217.713 145.916C217.212 146.366 216.71 146.821 216.205 147.261C215.03 148.293 213.83 149.292 212.603 150.26C210.247 152.128 207.794 153.87 205.254 155.479C203.894 156.422 202.465 157.262 200.979 157.991C202.199 157.461 201.494 157.73 201.197 157.87C200.753 158.096 200.314 158.328 199.867 158.545C199.18 158.889 198.478 159.222 197.762 159.543C194.861 160.86 191.86 161.947 188.787 162.792L187.791 163.048C187.358 163.156 187.531 163.12 188.288 162.93L187.494 163.106C186.831 163.246 186.168 163.377 185.517 163.494C183.926 163.773 182.322 163.971 180.711 164.088C179.252 164.197 177.762 164.138 176.281 164.191C177.863 164.137 176.905 164.21 176.479 164.188C176.053 164.167 175.524 164.127 175.049 164.079C174.239 164.008 173.433 163.908 172.63 163.794C169.533 163.353 166.155 165.438 165.731 168.705C165.321 171.859 167.303 175.137 170.642 175.604C197.869 179.47 223.039 161.041 238.711 140.429C247.877 128.376 255.277 113.012 251.931 97.513C249.111 84.4519 239.726 72.0352 225.913 69.667C210.565 67.0366 195.6 77.6083 189.632 91.3333C188.383 94.2001 189.49 98.0571 192.532 99.2904C195.471 100.505 199.156 99.4625 200.494 96.3906L200.52 96.3794Z" fill="#FF6739"/>
<path d="M202.356 97.1599C203.025 95.7154 203.87 94.3707 204.524 92.9338C205.455 90.8829 202.461 89.1309 201.108 90.944C200.732 91.4047 200.468 91.9453 200.334 92.5242C200.003 94.4798 202.724 95.5557 203.885 93.997C205.226 92.1968 206.494 90.0018 208.329 88.6317C210.455 87.0925 208.032 84.1289 205.898 85.4744C205.685 85.5902 205.484 85.7252 205.296 85.8778C203.572 87.2141 205.239 90.3925 207.261 89.2876C209.283 88.1826 210.808 86.3052 212.915 85.3944L211.364 81.7254L210.712 82.0741C208.473 83.2567 209.954 86.907 212.263 85.743C213.915 84.8213 215.682 84.123 217.517 83.6664L216.025 80.1014L216.786 79.8439L216.273 83.7936C217.225 83.8741 218.063 83.5447 218.992 83.3958C220.145 83.1988 221.296 83.3051 222.445 83.1798C224.624 82.9334 224.71 79.3133 222.428 79.2287L221.569 79.2038C219.036 79.1298 218.501 82.6577 221.056 83.1535C222.649 83.4569 224.258 83.5696 225.859 83.9174C228.036 84.3978 229.024 80.8034 226.89 80.1023C226.622 80.0145 226.349 79.9646 226.082 79.8673C223.652 79.0024 222.265 82.3763 224.539 83.5194C225.392 83.9578 226.331 84.1809 227.204 84.5785C227.908 84.906 228.587 85.4566 229.324 85.6776C231.424 86.3116 233.128 83.7977 231.314 82.2665C230.981 82.0065 230.618 81.7879 230.233 81.6155C228.525 80.8253 226.456 83.2148 227.884 84.6814C229.407 86.2278 231.322 87.5362 232.947 89.0043L235.384 85.8535C235.171 85.7017 234.97 85.5323 234.785 85.3471L232.796 88.7583C232.343 88.5357 233.085 89.2774 233.104 89.2799C233.567 89.9758 234.139 90.6136 234.609 91.3007C235.196 92.1571 235.643 93.1255 236.268 93.9483C237.616 95.732 240.625 94.033 239.681 91.9599C239.466 91.4137 239.132 90.9226 238.702 90.5227C237.164 89.2393 234.859 91.078 235.652 92.8714C236.715 95.2875 237.42 97.7966 238.42 100.214C239.304 102.347 242.44 101.377 242.227 99.1582C242.172 98.7404 242.063 98.3314 241.904 97.9411C241.037 95.7191 237.987 96.8445 238.098 98.9924C238.167 100.388 238.59 101.801 238.711 103.199C238.812 104.349 238.757 105.517 238.896 106.667C239.203 109.273 242.888 108.601 242.822 106.108C242.818 105.842 242.809 105.576 242.79 105.314C242.699 103.091 238.909 103.085 238.844 105.331C238.749 108.584 238.041 111.733 237.233 114.869C236.673 117.031 240.33 118.016 241.044 115.899C241.107 115.705 241.166 115.51 241.217 115.309C241.916 112.891 238.328 111.298 237.565 113.766C236.143 118.313 234.088 122.637 231.46 126.611L234.871 128.6L234.909 128.605L231.758 126.168C227.184 133.091 221.706 138.886 215.995 144.852C214.418 146.496 217.057 149.054 218.786 147.647C219.09 147.39 219.378 147.116 219.649 146.824C221.211 145.183 218.572 142.586 216.858 144.025C211.647 148.404 206.413 153.209 200.203 156.159C197.898 157.251 199.393 160.869 201.753 159.828C201.987 159.733 202.218 159.628 202.439 159.517C204.783 158.377 203.32 155.148 200.889 155.843C198.887 156.426 196.94 157.767 194.997 158.569C192.491 159.607 189.916 160.466 187.289 161.141C184.849 161.758 185.315 165.657 187.843 165.066L188.586 164.912C191.07 164.329 190.549 160.404 188.027 160.986C184.07 161.807 180.042 162.231 176.001 162.25L176.56 166.176L176.899 166.162L176.883 162.211C174.967 162.39 173.053 161.626 171.125 161.79C169.143 161.961 167.286 162.827 165.88 164.234C162.963 167.187 163.105 172.06 165.805 175.113C168.68 178.376 173.932 178.095 177.906 178.13C182.501 178.132 187.08 177.577 191.542 176.478C209.792 171.978 225.417 159.763 237.257 145.515C250.102 130.055 259.785 109.656 251.584 89.7119C248.246 81.6016 242.35 74.3868 234.444 70.412C226.537 66.4371 217.318 66.4525 209.205 69.6603C200.123 73.2477 192.578 80.6083 188.372 89.3707C186.476 93.319 186.818 98.4008 191.008 100.766C191.981 101.305 193.053 101.641 194.159 101.753C195.266 101.865 196.383 101.75 197.444 101.416C198.505 101.082 199.486 100.536 200.329 99.8109C201.172 99.0855 201.858 98.1962 202.347 97.1971C203.506 94.9062 199.828 93.3783 198.694 95.6534C196.857 99.2673 191.24 98.0557 191.147 93.9549C191.083 90.744 194.208 86.8929 196.086 84.4835C200.528 78.8001 206.713 74.3064 213.708 72.326C228.986 68.0508 242.688 77.9367 248.186 91.8853C254.761 108.584 247.396 125.792 237.172 139.239C227.954 151.366 216.142 162.102 202.217 168.523C194.476 172.097 186.02 174.282 177.452 174.17C173.952 174.125 166.937 174.374 167.743 168.988C168.462 164.155 174.354 166.476 177.452 166.171C179.64 165.974 179.702 162.23 177.43 162.224C176.949 162.219 176.495 162.228 176.021 162.243C173.464 162.32 174.056 166.25 176.58 166.169C180.614 166.15 184.636 165.729 188.586 164.912L188.027 160.986L187.276 161.168L187.83 165.093C190.514 164.423 193.152 163.582 195.728 162.575C197.947 161.693 200.162 160.18 202.428 159.525L200.878 155.852C200.656 155.967 200.426 156.072 200.192 156.167L201.743 159.836C208.276 156.736 213.792 151.799 219.279 147.186L216.488 144.391C216.939 143.92 216.46 144.387 216.35 144.493L219.14 147.293C224.762 141.421 230.34 135.519 234.903 128.609C236.312 126.481 233.179 124.051 231.753 126.172C231.539 126.451 231.352 126.749 231.194 127.063C230.41 129.09 233.298 130.996 234.604 129.057C237.439 124.81 239.662 120.185 241.206 115.318L237.554 113.774C237.527 113.978 237.445 114.169 237.376 114.362L241.191 115.393C241.97 112.364 242.709 109.089 242.802 105.855L238.855 105.876C238.873 106.144 238.882 106.41 238.886 106.675L242.811 106.116C242.676 104.967 242.732 103.799 242.626 102.649C242.5 101.245 242.081 99.8423 242.012 98.4464L238.205 99.4976C237.988 98.9444 238.198 99.5497 238.234 99.7181L242.041 98.6669C241.045 96.2499 240.336 93.7402 239.272 91.324L236.217 93.6768C235.591 93.1572 235.805 93.1417 235.959 93.5132L239.372 91.52C237.826 89.4795 236.741 86.2707 234.295 85.0811C232.103 84.0113 230.809 87.0361 232.301 88.4917C232.485 88.6784 232.685 88.8479 232.9 88.9981C234.912 90.6369 237.216 87.546 235.337 85.8474C234.565 85.1547 233.873 84.4002 233.073 83.7376C232.516 83.2799 231.185 82.4376 230.989 82.2435L228.664 85.3125C228.155 85.0778 228.776 85.38 228.893 85.4771L230.887 82.0665C230.159 81.8468 229.457 81.2883 228.766 80.9674C227.894 80.5651 226.954 80.3467 226.101 79.9083L224.557 83.5604C224.69 83.6114 226.006 84.0087 225.364 83.8001L226.395 79.985C224.793 79.6324 223.184 79.5291 221.591 79.2258L221.077 83.1755L221.936 83.2004L221.915 79.2534C221.537 79.237 221.158 79.2424 220.781 79.2698C220.214 79.2925 219.651 79.33 219.084 79.396C218.429 79.4698 217.436 79.9187 216.807 79.8659C214.263 79.6509 213.731 83.5644 216.294 83.8156C217.026 83.8867 217.916 83.8241 218.478 83.2807C219.752 82.0353 219.145 79.2932 216.986 79.7157C214.807 80.2162 212.705 81.0073 210.737 82.0677L212.288 85.7366L212.94 85.388C215.164 84.2082 213.787 80.6822 211.389 81.719C209.262 82.6368 207.724 84.5367 205.736 85.6075L207.729 89.0209C207.917 88.8682 208.118 88.7331 208.33 88.6175L205.899 85.4602C203.769 87.0326 202.298 89.4517 200.737 91.5316L204.287 93.0091C204.145 93.8431 204.016 93.6866 204.243 93.3501L200.849 91.3775C200.182 92.8078 199.337 94.1572 198.687 95.5994C197.625 97.956 201.302 99.4933 202.356 97.1599Z" fill="#FF6739"/>
<path d="M100.116 76.2431C99.1153 63.2258 90.8217 49.7422 78.1029 45.296C71.7026 43.0074 64.7027 43.0331 58.3194 45.3688C52.0822 47.7221 46.6015 51.7255 42.4628 56.9515C37.8778 62.7212 34.9547 69.6329 34.0087 76.9416C32.9433 85.1394 34.0243 93.2743 36.0884 101.219C39.5649 114.634 45.7284 127.203 54.2055 138.166C63.3746 149.842 75.6483 159.195 90.4528 162.083C93.5337 162.685 96.9702 160.329 97.3517 157.171C97.5846 155.609 97.2031 154.018 96.2872 152.731C95.3713 151.445 93.9925 150.563 92.4403 150.272C91.1112 150.013 89.8048 149.689 88.4986 149.327C87.1925 148.964 89.5359 149.683 88.6831 149.389L87.7274 149.072C86.9689 148.807 86.2162 148.521 85.4694 148.215C82.9796 147.177 80.5745 145.947 78.2759 144.535C77.3469 143.976 78.4399 144.682 78.5511 144.716C78.1837 144.533 77.8412 144.304 77.532 144.034C76.9658 143.648 76.4056 143.252 75.8554 142.853C74.7434 142.034 73.666 141.172 72.607 140.278C71.5481 139.385 70.5073 138.426 69.5002 137.467C68.9955 136.977 68.4927 136.474 68.0047 135.967L67.4154 135.351C66.9669 134.874 67.0264 134.935 67.5839 135.537L67.0071 134.898C63.1296 130.498 59.7174 125.708 56.8248 120.606C56.4501 119.957 56.0856 119.303 55.7314 118.643C55.018 117.351 56.1102 119.434 55.7357 118.61L55.2158 117.608C54.4972 116.195 53.8111 114.767 53.1575 113.324C51.8839 110.5 50.7282 107.621 49.6905 104.687C49.1343 103.112 48.615 101.524 48.1327 99.9237C47.9065 99.1944 47.6995 98.4644 47.512 97.7337C47.4014 97.3244 47.2956 96.9158 47.1898 96.5071C46.7577 94.8665 47.4405 97.6907 47.073 96.0344C46.2955 92.6383 45.8022 89.1833 45.5981 85.7053C45.5537 84.8615 45.5294 84.0108 45.5282 83.1679C45.5255 82.7437 45.5181 82.3189 45.5439 81.8985C45.4695 83.1747 45.5327 82.2438 45.5334 81.979C45.671 80.1233 45.911 78.2767 46.2523 76.4475C46.4187 75.6119 46.6135 74.78 46.8307 73.9606C46.8862 73.6211 46.9811 73.2891 47.1134 72.9715L46.8955 73.6849C46.9852 73.414 47.0784 73.142 47.1749 72.8688C47.6576 71.5321 48.2245 70.2272 48.8721 68.9621C49.1945 68.3346 49.5434 67.725 49.897 67.116C50.5943 65.9015 49.3351 67.9195 49.8452 67.1815C50.0415 66.894 50.2289 66.6005 50.4388 66.3196C51.2744 65.133 52.1855 64.0015 53.1666 62.9321C53.587 62.4763 54.0233 62.0466 54.4514 61.6062C55.4402 60.5933 53.4521 62.4395 54.5228 61.5384L55.1355 61.0112C56.2597 60.0688 57.4499 59.2079 58.6969 58.4352C58.9221 58.2959 59.1473 58.1567 59.3741 58.0417L59.7127 57.8449C60.2735 57.5325 60.1685 57.5863 59.398 58.0062C59.459 57.7589 60.7441 57.3577 60.9798 57.2486C62.2135 56.7182 63.4828 56.2749 64.7785 55.9219C66.0177 55.5773 63.7211 56.0542 64.5543 55.9795C64.8613 55.9519 65.1775 55.8534 65.4822 55.8063C66.1023 55.7039 66.7241 55.6258 67.3482 55.5672C67.9722 55.5086 68.5889 55.5069 69.2168 55.4922C69.9272 55.4738 69.3807 55.788 68.7377 55.4733C69.1672 55.5687 69.6072 55.6081 70.0468 55.5904C70.7335 55.6797 71.4155 55.7683 72.087 55.9375C72.3965 56.0018 72.6982 56.0891 73.0213 56.16C74.5171 56.5085 71.9677 55.7438 73.1065 56.1711C74.4074 56.6512 75.672 57.2243 76.8905 57.8861C77.034 57.9673 77.7351 58.5015 77.8755 58.4957L77.2076 58.0766C77.4249 58.2204 77.6511 58.3702 77.8441 58.5157C78.4745 58.9636 79.0865 59.4429 79.6811 59.944C80.1755 60.3646 80.6626 60.8035 81.1277 61.2637C81.3199 61.4524 81.8713 61.8419 81.9814 62.1066L81.4793 61.5598L82.0036 62.1577C82.9563 63.2879 83.8276 64.4842 84.6109 65.7376C84.826 66.0834 85.002 66.4338 85.2408 66.7827C85.9653 67.9893 84.6815 65.6023 85.2913 66.8759C85.652 67.6211 86.0079 68.3657 86.3222 69.1337C86.6366 69.9018 86.8786 70.5593 87.1215 71.2843C87.3644 72.0094 87.4229 72.8935 87.7617 73.5106C87.2086 72.5044 87.6149 72.8607 87.7311 73.4489C87.8306 73.9434 87.9159 74.436 87.9917 74.9275C88.1214 75.7823 88.2126 76.6369 88.2789 77.498C88.5183 80.6209 91.704 83.308 94.8511 82.8453C96.4183 82.6539 97.8506 81.863 98.8474 80.6386C99.8442 79.4142 100.328 77.8513 100.198 76.2778L100.116 76.2431Z" fill="#FF6739"/>
<path d="M102.088 75.9705C100.797 61.0034 90.9377 46.3773 75.9096 42.5797C58.4062 38.1522 41.4023 50.077 34.8815 65.9744C27.9178 82.9459 32.9412 102.805 40.2184 118.81C47.2277 134.245 58.0451 148.765 72.8539 157.436C76.7183 159.73 80.8502 161.54 85.1564 162.825C89.0865 163.972 93.1504 165.126 96.6097 162.224C98.0177 161.014 98.956 159.349 99.2608 157.518C99.5657 155.687 99.2177 153.807 98.2775 152.207C96.2587 148.694 92.0235 147.931 88.3263 147.253C86.1395 146.849 85.1743 150.311 87.3013 151.064C87.7164 151.235 88.1494 151.359 88.592 151.434C90.7613 151.678 91.7931 148.407 89.6218 147.624C85.9817 146.339 82.4715 144.712 79.1382 142.765C77.8588 142.011 75.4456 142.719 75.9452 144.619C76.2197 145.656 76.858 146.081 77.7596 146.554C80.0627 147.769 81.4725 144.147 79.3034 142.902C75.3693 140.638 71.7826 137.109 68.6994 133.819C66.9651 131.97 63.8158 134.34 65.5421 136.25L65.9899 136.732C67.7135 138.588 70.8723 136.22 69.1473 134.301C64.4751 129.118 60.8048 123.416 57.3036 117.413C56.0506 115.271 52.468 116.602 53.6299 118.963C53.7732 119.334 53.966 119.683 54.203 120.001C55.6495 121.47 58.7051 120.23 57.6159 118.013C54.0318 110.678 51.0936 103.045 48.8347 95.1998C48.3255 93.4481 45.8193 93.7966 45.1644 95.2044C44.7477 96.1134 45.2093 97.5267 45.9208 98.1296C47.2227 99.2283 49.4432 97.9661 49.109 96.2757C48.196 91.5916 47.3509 86.9404 47.4732 82.1452C47.5358 79.625 43.6623 79.0445 43.5235 81.6319C43.4951 81.8497 43.4959 82.0665 43.4865 82.2868C43.3948 84.8081 47.2198 85.3919 47.441 82.8008C47.6886 79.8953 47.7368 76.4485 48.9034 73.7347L45.2513 72.1909L45.0333 72.9043C44.2959 75.3175 47.885 76.9012 48.6854 74.448C49.4858 71.9948 50.8357 69.8345 51.9028 67.4786C52.8239 65.4311 49.8268 63.6643 48.4869 65.4887C48.1204 65.9573 47.8551 66.4967 47.7079 67.0731C47.2511 69.0316 50.1539 70.0782 51.2578 68.5506C52.8078 66.4067 54.6638 64.577 56.2579 62.5015C57.6575 60.6992 55.2829 58.3679 53.4636 59.7304C53.1337 59.9787 52.8319 60.2625 52.5638 60.5766C51.0439 62.3777 53.5536 64.5965 55.355 63.3714C57.1565 62.1463 58.7914 60.5721 60.7747 59.4669C62.9706 58.2449 61.5317 54.605 59.224 55.798L58.5665 56.1508L60.5597 59.5642C61.802 58.3435 64.3907 58.4343 65.8697 57.6152C67.7746 56.5577 67.1868 53.558 64.8185 53.8089C64.2049 53.8416 63.6122 54.0429 63.1055 54.3905C61.4847 55.745 62.6365 57.9993 64.5974 57.9555C66.1402 57.9056 67.6633 57.2656 69.2371 57.5327L69.2423 53.5651L68.9542 53.4843L68.4409 57.4341C70.0096 57.7728 71.5946 58.0318 73.1896 58.2101C75.0119 58.4181 76.4336 55.7422 74.6624 54.6596C74.1573 54.3475 73.5947 54.1401 73.0079 54.0497C70.9972 53.7354 70.0453 56.3904 71.5304 57.5996C72.2503 58.1747 73.3497 58.4236 74.192 58.7979C75.1797 59.2393 76.0579 59.8928 77.0445 60.3052C79.058 61.1544 80.998 58.1221 79.0338 56.894L78.3706 56.4755C76.2328 55.1382 73.7941 58.1539 75.9336 59.6262C77.4096 60.6464 79.2555 61.8206 80.3211 63.2931L83.4778 60.8668L82.9758 60.3199C81.2516 58.4681 78.099 60.789 79.8185 62.751C81.3442 64.5 82.4012 66.5203 83.8081 68.331C85.215 70.1416 88.0269 68.441 87.2215 66.3377C87.0634 65.9533 86.8601 65.589 86.6161 65.2525C85.2618 63.3332 82.4769 65.1962 83.2026 67.2458C83.6123 68.3922 84.2533 69.4628 84.6932 70.5987C85.1331 71.7346 85.3563 73.0928 85.8494 74.2646L89.5231 72.7145L89.3904 72.5865L85.8254 74.0784C86.4096 75.0308 86.0855 77.2281 86.2991 78.3635C86.5282 79.5222 87.0131 80.6152 87.7182 81.5627C88.4052 82.4884 89.2805 83.2582 90.2864 83.8213C91.2922 84.3845 92.4059 84.7283 93.5542 84.8302C98.6853 85.184 102.202 80.7626 102.074 75.9686C102.007 73.4122 98.0581 74.0019 98.1494 76.5229C98.2348 79.9051 94.3424 82.2117 91.6223 79.9077C89.1812 77.8279 90.5726 74.1994 88.978 71.6468C87.8725 69.8513 85.2258 71.3181 85.413 73.1387C85.477 73.5343 85.6137 73.9145 85.8163 74.2602C86.965 76.5382 90.4841 75.1029 89.49 72.7102C88.9975 71.5337 88.7894 70.2449 88.3291 69.0437C87.8687 67.8425 87.2528 66.8378 86.8385 65.6908L83.4287 67.6556C83.0869 67.1729 83.4598 67.7126 83.5177 67.8598L86.9275 65.895C85.5206 64.0844 84.463 62.0687 82.9379 60.315L79.7806 62.746L80.2826 63.2929C82.0068 65.1447 84.9662 62.9769 83.4393 60.8666C82.1867 59.129 80.0648 57.6685 78.3321 56.4753L75.8951 59.6261L76.5583 60.0445L78.5523 56.634C77.8311 56.3283 77.1606 55.8174 76.4538 55.4751C75.9557 55.2322 75.4503 55.0076 74.9383 54.7966C74.7787 54.7277 73.5507 54.1347 73.9289 54.4487L72.4561 57.9992C72.6692 58.0269 72.2802 57.8704 72.1869 57.8101L73.6644 54.2602C72.1459 54.0869 70.4109 53.8374 68.9157 53.4841C66.392 52.9298 65.9571 56.8319 68.4024 57.4339C68.8394 57.5836 69.3094 57.6097 69.7603 57.5092C71.8587 56.9632 72.0855 53.9587 69.7387 53.5622C67.8074 53.2293 65.9345 53.9298 64.0339 53.9911L65.5211 57.5555C64.9804 58.0101 64.9103 57.8084 65.3548 57.7602L64.3036 53.9539C62.4873 54.9603 59.6697 54.8879 58.1133 56.4145C56.6615 57.8392 57.9202 61.0127 60.1065 59.828C60.3197 59.7064 60.5371 59.5902 60.7592 59.4746L59.2086 55.8056C56.9188 57.0828 55.0523 58.7714 52.9079 60.2264L55.6991 63.0212C55.325 63.4542 55.7592 62.9664 55.8817 62.8764L53.0911 60.0769C51.4787 62.1452 49.6435 63.9631 48.091 66.126L51.6416 67.5987C51.4322 68.5058 51.3985 68.2462 51.6263 67.9387L48.2104 65.9488C47.148 68.3054 45.8504 70.4339 44.9983 72.9142L48.6504 74.4579L48.8684 73.7446C49.6045 71.3408 46.2321 69.7949 45.2163 72.2008C43.8987 75.2611 43.7506 79.0319 43.4704 82.2992L47.4249 82.8131C47.4296 82.5922 47.443 82.3772 47.4571 82.1575L43.5074 81.6442C43.3749 86.8137 44.1634 91.7899 45.1487 96.8446L48.3417 94.9913L49.0977 96.2887C48.904 95.5556 49.2491 95.8653 48.8282 96.7689L45.1579 96.7735C47.4148 104.619 50.3531 112.252 53.9391 119.586L57.3525 117.593C57.8117 118.062 57.4113 117.697 57.294 117.451L53.6543 118.962C57.3335 125.262 61.107 131.281 66.0142 136.73L69.1715 134.299L68.7237 133.817L65.5664 136.248C69.1658 140.087 73.1994 143.92 77.7833 146.557L79.3271 142.905L79.1629 142.797L79.9142 144.094L76.7259 145.948C80.3384 148.097 84.147 149.899 88.1003 151.327L89.1301 147.517C89.8357 147.608 89.0638 147.508 88.8675 147.425L87.8377 151.235C90.495 151.725 94.4332 152.179 95.2518 155.218C95.4737 155.951 95.4685 156.734 95.237 157.464C95.0055 158.194 94.5585 158.836 93.9548 159.307C92.3463 160.567 90.641 160.162 88.8139 159.732C81.9714 158.038 75.536 154.995 69.8854 150.78C58.1293 142.188 49.4308 129.745 43.5574 116.537C37.3788 102.64 32.6503 85.5885 37.4452 70.5937C41.9181 56.5203 55.3218 44.2095 70.8609 45.7426C86.4609 47.2884 96.8642 61.6963 98.1612 76.5437C98.3662 79.0794 102.311 78.5229 102.088 75.9705Z" fill="#FF6739"/>
<path d="M221.803 50.8582C213.246 59.113 206.8 68.6921 201.715 79.4352C196.5 90.5083 192.739 102.18 189.427 113.957C185.622 127.482 182.259 141.17 177.2 154.305C173.196 164.698 168.302 175.711 160.162 183.577C149.583 193.794 134.75 195.344 120.896 192.296C118.448 191.756 117.284 195.934 119.735 196.599C132.104 199.955 145.882 199.217 156.897 192.279C166.49 186.278 172.66 176.306 177.329 166.318C188.873 141.673 192.486 114.321 202.426 89.0824C207.45 76.3663 214.013 63.2195 223.809 53.469C225.27 52.0119 223.339 49.4108 221.815 50.879L221.803 50.8582Z" fill="black"/>
<path d="M146.478 194.237C145.887 196.005 146.068 197.685 145.794 199.494C145.48 201.688 143.672 202.931 142.021 204.185C138.814 206.629 135.484 208.937 132.698 211.888C127.034 217.894 124.951 226.215 125.135 234.281C125.278 238.76 125.972 243.205 127.201 247.514C127.682 249.414 128.407 251.244 129.359 252.957C130.351 254.661 131.772 255.886 132.926 257.452C135.019 260.281 134.245 263.98 133.992 267.222C133.898 268.395 133.982 270.337 133.352 271.367C132.845 272.192 131.802 272.182 130.746 272.266C121.7 272.945 112.126 270.497 103.367 268.602C101.249 268.144 100.258 271.695 102.363 272.324C110.963 274.887 119.32 276.845 128.359 277.027C131.131 277.079 134.846 277.182 136.831 274.839C138.716 272.599 138.628 268.976 138.837 266.219C139.117 262.475 139.416 258.767 137.321 255.427C136.355 253.857 134.92 252.707 133.885 251.22C132.447 249.135 131.804 246.557 131.247 244.134C129.194 235.103 128.751 224.696 134.482 216.839C137.459 212.752 141.746 210.117 145.566 206.919C147.072 205.67 148.549 204.167 149.256 202.284C150.142 199.948 149.351 197.514 149.88 195.142C150.315 193.204 147.12 192.332 146.485 194.219L146.478 194.237Z" fill="black"/>
<path d="M134.456 318.312C130.653 321.305 81.3382 314.299 79.576 309.071C77.8138 303.843 81.2693 289.223 83.468 285.979C85.6667 282.734 134.931 288.048 138.343 295.224C141.754 302.4 138.254 315.324 134.456 318.312Z" fill="white"/>
<path d="M135.232 272.094C141.097 273.771 145.024 278.534 149.009 282.852C153.229 287.436 157.526 292.025 161.304 297.005C163.118 299.393 164.243 301.779 164.221 304.834C164.2 308.039 163.541 311.295 163.035 314.446C161.939 321.282 160.389 328.021 159.163 334.825C158.607 337.917 163.187 338.363 163.899 335.44C165.76 327.977 167.164 320.358 168.291 312.76C168.79 309.367 169.422 305.837 168.997 302.401C168.626 299.367 167.226 296.72 165.422 294.299C161.267 288.731 156.322 283.687 151.472 278.727C147.115 274.269 142.575 269.658 136.146 268.654C134.197 268.353 133.235 271.526 135.218 272.092L135.232 272.094Z" fill="black"/>
<path d="M223.982 52.0825C224.872 46.8001 193.545 37.1176 154.012 30.456C114.478 23.7944 81.7083 22.6764 80.8182 27.9588C79.9281 33.2412 111.255 42.9237 150.788 49.5853C190.322 56.2469 223.092 57.3649 223.982 52.0825Z" fill="black"/>
<path d="M207.702 75.1575C218.376 69.321 232.276 70.4628 241.208 78.9967C250.519 87.9122 252.094 102.401 249.174 114.413C247.572 120.995 244.358 127.271 241.016 133.127C237.916 138.584 234.25 143.701 230.08 148.392C223.785 155.377 216.291 161.18 207.953 165.527C196.584 171.485 183.925 174.617 171.093 173.084C167.882 172.701 167.236 177.64 170.445 178.071C193.565 181.153 216.853 169.939 232.523 153.343C237.376 148.125 241.609 142.363 245.138 136.171C248.906 129.673 252.261 122.794 254.088 115.475C257.288 102.493 255.241 86.9656 245.657 77.0755C235.288 66.3706 218.675 64.5729 206.023 72.2521C204.397 73.2399 206.004 76.1024 207.721 75.16L207.702 75.1575Z" fill="black"/>
<path d="M90.4959 80.4956C89.5258 74.6194 88.6173 69.0112 85.4366 63.8398C82.6774 59.3539 78.5175 55.8997 73.3187 54.7328C63.2502 52.4611 53.2451 57.4456 48.1746 66.1487C42.7768 75.4065 42.7502 86.2099 45.2672 96.3758C48.1375 107.975 52.666 119.635 59.1501 129.7C65.9228 140.212 76.0597 150.073 88.3897 153.472C91.1796 154.239 93.0528 150.312 90.1877 149.198C80.895 145.644 72.7624 139.596 66.6845 131.719C60.3105 123.513 55.9902 113.956 52.5536 104.195C49.2737 94.8594 46.5146 84.6283 49.2195 74.7845C51.478 66.5588 56.9293 59.9278 65.6377 58.5842C71.5936 57.6679 77.0949 59.3604 80.8507 64.1828C84.4939 68.8702 86.1072 75.2442 87.5042 80.9111C87.9625 82.7573 90.8198 82.4496 90.4965 80.4909L90.4959 80.4956Z" fill="black"/>
<path d="M90.3564 305.609C92.8751 304.623 95.1869 303.174 97.1723 301.337C98.7517 299.857 101.023 297.648 101.579 295.481C101.926 294.144 101.07 293.175 99.7083 293.311C97.8504 293.489 96.4352 295.67 95.7295 297.172C93.3501 302.252 97.8783 305.243 102.536 305.642C107.437 306.062 112.219 303.211 112.911 298.109C112.931 297.916 112.895 297.72 112.807 297.547C112.718 297.373 112.581 297.229 112.412 297.131C112.244 297.034 112.05 296.988 111.856 296.998C111.661 297.008 111.474 297.075 111.316 297.189C109.574 298.629 107.798 300.209 107.444 302.566C107.281 303.495 107.427 304.451 107.858 305.289C108.289 306.128 108.981 306.802 109.831 307.211C114.115 309.41 118.952 306.508 121.661 303.225L119.87 302.746C119.902 303.755 120.209 304.737 120.757 305.585C121.305 306.433 122.073 307.117 122.98 307.562C123.886 308.008 124.896 308.198 125.903 308.113C126.909 308.028 127.873 307.672 128.692 307.081C129.633 306.442 128.691 304.759 127.673 305.33C124.995 306.851 122.071 305.628 121.855 302.441C121.795 301.527 120.581 301.346 120.063 301.962C118.313 304.051 115.712 305.981 112.846 305.84C110.968 305.76 109.421 304.807 109.516 302.812C109.602 301.046 111.283 299.776 112.525 298.748L110.905 297.834C110.45 301.334 107.405 303.529 103.991 303.678C100.576 303.827 95.5222 302.139 97.4439 297.876C97.5733 297.585 99.4993 294.734 99.7168 295.21C99.9342 295.686 97.3387 298.686 96.9474 299.102C94.9393 301.3 92.49 303.05 89.7595 304.236C89.5936 304.324 89.4667 304.471 89.4037 304.648C89.3408 304.824 89.3464 305.018 89.4195 305.191C89.4926 305.364 89.6279 305.503 89.7987 305.581C89.9694 305.659 90.1631 305.67 90.3416 305.612L90.3564 305.609Z" fill="black"/>
<path d="M151.681 105.807C151.681 105.807 129.181 166.804 118.523 175.663C115.145 176.9 113.126 157.899 113.126 157.899C113.126 157.899 100.978 165.258 95.9602 164.957C90.9425 164.657 129.118 95.102 129.118 95.102L151.681 105.807Z" fill="black"/>
<path d="M128.7 143.15C127.302 146.094 125.944 149.053 124.573 152.005C123.898 153.468 123.217 154.93 122.53 156.392C121.867 157.784 121.276 159.402 120.143 160.493L122.428 161.098C121.484 159.362 121.152 157.469 120.829 155.544C120.668 154.56 120.507 153.61 120.28 152.656C120.007 151.527 119.759 150.18 118.637 149.582C117.516 148.983 116.32 149.367 115.248 149.724C114.387 150.026 113.549 150.39 112.741 150.814C111.108 151.632 109.489 152.568 107.722 152.786L109.309 154.847C111.932 149.481 114.258 143.961 116.901 138.597C117.01 138.243 116.984 137.862 116.828 137.526C116.672 137.19 116.397 136.924 116.056 136.78C115.715 136.635 115.332 136.622 114.982 136.744C114.633 136.865 114.34 137.112 114.162 137.437C111.538 142.803 109.217 148.328 106.574 153.692C106.057 154.742 107.088 155.887 108.16 155.752C109.898 155.455 111.571 154.857 113.104 153.987C113.862 153.604 114.62 153.221 115.416 152.842C115.802 152.671 116.199 152.525 116.604 152.404C116.767 152.352 116.933 152.311 117.102 152.281C117.216 152.258 117.334 152.239 117.451 152.226C117.42 152.233 117.388 152.232 117.358 152.222C117.327 152.212 117.301 152.194 117.28 152.17C117.223 152.153 117.17 152.125 117.124 152.087C117.078 152.048 117.041 152.001 117.015 151.947C117.067 152.062 117.109 152.18 117.143 152.301C117.195 152.452 117.237 152.612 117.279 152.771C117.395 153.21 117.487 153.656 117.587 154.107C117.76 155.001 117.897 155.91 118.059 156.807C118.315 158.696 118.875 160.53 119.718 162.239C120.13 162.995 121.249 163.574 122.009 162.845C123.44 161.465 124.281 159.74 125.125 157.952C125.826 156.464 126.522 154.974 127.213 153.485C128.633 150.414 130.044 147.337 131.496 144.284C131.605 143.93 131.579 143.549 131.423 143.213C131.267 142.877 130.991 142.611 130.65 142.467C130.309 142.322 129.927 142.309 129.577 142.431C129.227 142.552 128.935 142.799 128.757 143.124L128.7 143.15Z" fill="white"/>
<path d="M123.471 108.345C123.471 108.345 156.507 164.341 168.596 171.152C172.142 171.767 170.713 152.713 170.713 152.713C170.713 152.713 183.978 157.808 188.861 156.593C193.743 155.378 143.735 93.7856 143.735 93.7856L123.471 108.345Z" fill="black"/>
<path d="M97.0075 109.378L103.067 113.782C103.382 114.011 103.616 114.334 103.736 114.704C103.855 115.075 103.854 115.473 103.733 115.843L101.421 122.964C101.338 123.214 101.31 123.479 101.339 123.74C101.368 124.002 101.453 124.254 101.588 124.48C101.723 124.706 101.905 124.9 102.122 125.05C102.339 125.199 102.586 125.3 102.845 125.345L110.214 126.674C110.597 126.742 110.949 126.931 111.218 127.213C111.487 127.494 111.66 127.854 111.71 128.241L112.715 135.663C112.75 135.923 112.84 136.173 112.98 136.396C113.119 136.619 113.305 136.809 113.525 136.954C113.744 137.099 113.992 137.195 114.252 137.236C114.512 137.277 114.777 137.262 115.031 137.192L122.253 135.202C122.626 135.097 123.023 135.112 123.387 135.246C123.751 135.379 124.064 135.625 124.28 135.947L128.404 142.2C128.549 142.419 128.74 142.604 128.963 142.743C129.187 142.882 129.437 142.971 129.698 143.005C129.959 143.039 130.224 143.017 130.475 142.939C130.727 142.862 130.958 142.732 131.155 142.557L136.791 137.621C137.083 137.364 137.45 137.206 137.838 137.17C138.226 137.133 138.615 137.221 138.95 137.42L145.381 141.266C145.606 141.401 145.858 141.487 146.119 141.517C146.38 141.547 146.645 141.52 146.895 141.439C147.146 141.358 147.375 141.224 147.569 141.047C147.764 140.869 147.917 140.652 148.02 140.41L150.957 133.524C151.11 133.167 151.372 132.866 151.706 132.667C152.04 132.467 152.428 132.378 152.816 132.413L160.28 133.079C160.542 133.103 160.806 133.07 161.053 132.984C161.301 132.897 161.528 132.758 161.717 132.576C161.907 132.395 162.056 132.175 162.153 131.931C162.251 131.687 162.295 131.425 162.283 131.163L161.945 123.678C161.928 123.289 162.035 122.904 162.25 122.579C162.465 122.254 162.778 122.005 163.144 121.869L170.155 119.246C170.401 119.154 170.626 119.011 170.812 118.825C170.999 118.639 171.144 118.416 171.236 118.169C171.329 117.923 171.368 117.659 171.35 117.397C171.332 117.134 171.258 116.878 171.133 116.647L167.578 110.054C167.393 109.713 167.32 109.322 167.37 108.936C167.42 108.551 167.59 108.191 167.857 107.909L173.031 102.489C173.212 102.3 173.35 102.073 173.437 101.826C173.524 101.578 173.556 101.315 173.533 101.054C173.509 100.792 173.43 100.539 173.301 100.311C173.171 100.083 172.994 99.8853 172.782 99.7311L166.723 95.3269C166.404 95.1007 166.164 94.7789 166.039 94.4078C165.914 94.0367 165.91 93.6355 166.028 93.2621L168.374 86.1841C168.455 85.9339 168.482 85.6691 168.453 85.4075C168.424 85.1459 168.339 84.8936 168.204 84.6675C168.069 84.4415 167.888 84.247 167.671 84.097C167.455 83.9471 167.209 83.8452 166.95 83.7983L159.58 82.4745C159.198 82.404 158.847 82.2146 158.578 81.9333C158.31 81.6519 158.137 81.2929 158.084 80.9075L157.079 73.4809C157.043 73.2209 156.952 72.9716 156.812 72.7496C156.672 72.5275 156.486 72.3379 156.267 72.1932C156.048 72.0486 155.801 71.9522 155.542 71.9106C155.283 71.869 155.018 71.8831 154.764 71.9519L147.541 73.9461C147.168 74.0524 146.771 74.0375 146.407 73.9036C146.042 73.7697 145.73 73.5238 145.514 73.2011L141.39 66.9534C141.244 66.7342 141.053 66.5489 140.829 66.4098C140.605 66.2708 140.355 66.1813 140.093 66.1473C139.832 66.1134 139.567 66.1358 139.315 66.2131C139.063 66.2903 138.831 66.4206 138.634 66.5952L133.003 71.5317C132.71 71.7895 132.342 71.9477 131.953 71.9837C131.565 72.0197 131.174 71.9316 130.839 71.7321L124.414 67.8823C124.188 67.7476 123.936 67.6627 123.674 67.6335C123.413 67.6043 123.148 67.6314 122.898 67.7129C122.648 67.7945 122.418 67.9286 122.224 68.1063C122.03 68.284 121.877 68.5011 121.773 68.7432L118.832 75.6281C118.681 75.9865 118.42 76.2875 118.087 76.4875C117.753 76.6875 117.365 76.7761 116.978 76.7403L109.513 76.0736C109.252 76.05 108.988 76.0827 108.74 76.1694C108.492 76.2562 108.266 76.3951 108.076 76.5767C107.887 76.7583 107.738 76.9784 107.64 77.2222C107.543 77.466 107.499 77.7279 107.511 77.9902L107.848 85.4746C107.866 85.8641 107.759 86.2491 107.544 86.5742C107.328 86.8992 107.015 87.1477 106.65 87.2837L99.6343 89.9068C99.3885 89.999 99.1652 90.1427 98.9796 90.3283C98.794 90.5139 98.6502 90.7371 98.558 90.9829C98.4659 91.2287 98.4274 91.4914 98.4452 91.7533C98.4631 92.0153 98.5368 92.2703 98.6614 92.5014L102.211 99.0981C102.398 99.439 102.471 99.8306 102.421 100.216C102.371 100.602 102.2 100.962 101.932 101.243L96.7589 106.658C96.5842 106.848 96.4512 107.071 96.3684 107.315C96.2856 107.559 96.2549 107.817 96.2784 108.073C96.3018 108.33 96.3788 108.578 96.5044 108.803C96.63 109.028 96.8014 109.224 97.0075 109.378Z" fill="white"/>
<path d="M132.294 124.559C143.335 125.994 153.448 118.207 154.883 107.167C156.317 96.1263 148.531 86.0132 137.49 84.5784C126.45 83.1436 116.337 90.9304 114.902 101.971C113.467 113.011 121.254 123.124 132.294 124.559Z" fill="black"/>
<path d="M132.483 87.9109L128.941 97.0824C128.883 97.235 128.788 97.371 128.665 97.4785C128.541 97.5859 128.394 97.6615 128.235 97.6985L118.663 99.9798C118.481 100.025 118.315 100.119 118.183 100.253C118.052 100.387 117.96 100.555 117.918 100.737C117.877 100.92 117.886 101.111 117.947 101.289C118.007 101.466 118.116 101.624 118.26 101.743L125.896 107.951C126.022 108.055 126.121 108.187 126.185 108.337C126.25 108.487 126.277 108.65 126.265 108.813L125.472 118.621C125.458 118.808 125.496 118.995 125.582 119.162C125.669 119.329 125.8 119.468 125.961 119.564C126.123 119.66 126.307 119.709 126.495 119.706C126.683 119.702 126.866 119.647 127.023 119.545L135.288 114.204C135.425 114.116 135.581 114.063 135.743 114.049C135.905 114.034 136.068 114.06 136.218 114.123L145.306 117.9C145.48 117.971 145.669 117.992 145.854 117.962C146.039 117.931 146.211 117.85 146.352 117.727C146.493 117.603 146.597 117.443 146.652 117.264C146.708 117.085 146.712 116.895 146.664 116.713L144.139 107.201C144.098 107.044 144.096 106.878 144.132 106.72C144.169 106.561 144.243 106.413 144.349 106.289L150.753 98.819C150.875 98.6764 150.955 98.5023 150.984 98.3166C151.012 98.1308 150.988 97.9407 150.915 97.7678C150.841 97.595 150.72 97.4461 150.567 97.3382C150.413 97.2302 150.232 97.1674 150.044 97.157L140.217 96.6215C140.054 96.6121 139.896 96.5636 139.756 96.48C139.616 96.3964 139.498 96.2802 139.413 96.1413L134.287 87.7408C134.187 87.5811 134.046 87.4522 133.877 87.3686C133.708 87.2851 133.52 87.2502 133.332 87.2678C133.145 87.2855 132.966 87.355 132.816 87.4686C132.666 87.5822 132.551 87.7354 132.483 87.9109Z" fill="white"/>
<path d="M150.316 142.718C152.274 145.438 154.195 148.187 156.122 150.927C157.057 152.253 157.996 153.577 158.938 154.9C160.018 156.408 161.103 157.989 162.673 159.031C163.408 159.522 164.642 159.408 164.962 158.428C165.501 156.628 165.745 154.752 165.684 152.873C165.683 151.948 165.653 151.029 165.663 150.106C165.666 149.822 165.851 147.66 165.814 147.645C165.789 147.701 165.752 147.75 165.706 147.789C165.66 147.829 165.606 147.859 165.548 147.876C165.38 147.945 165.398 147.953 165.611 147.908C165.488 147.892 165.995 147.919 165.995 147.919C166.419 147.948 166.842 148.003 167.259 148.084C168.119 148.248 168.952 148.511 169.787 148.759C171.64 149.318 173.438 149.787 175.387 149.689C176.551 149.628 176.981 148.134 176.363 147.297C172.801 142.5 169.549 137.468 165.989 132.662C164.841 131.116 162.476 132.937 163.624 134.483C167.18 139.28 170.436 144.316 173.993 149.118L174.968 146.726C173.164 146.824 171.406 146.123 169.701 145.637C167.997 145.15 165.272 144.252 163.709 145.571C162.861 146.284 162.801 147.485 162.739 148.512C162.678 149.54 162.697 150.693 162.709 151.783C162.737 153.607 162.773 155.514 162.194 157.269L164.487 156.667C163.081 155.737 162.166 154.294 161.2 152.945C160.234 151.596 159.306 150.291 158.349 148.944C156.454 146.256 154.57 143.559 152.654 140.888C151.532 139.326 149.166 141.152 150.288 142.714L150.316 142.718Z" fill="white"/>
<path d="M257.954 45.7774C260.439 42.1755 262.535 38.9129 266.127 36.2447L264.427 35.5422C264.446 40.8162 263.803 46.0718 262.514 51.186C262.311 52.0072 263.326 52.6448 264.02 52.3449C268.718 50.2195 274.008 49.792 278.986 51.1355L278.752 49.2317C275.627 51.6155 272.439 53.9094 269.189 56.1133C268.433 56.6315 268.714 57.7323 269.45 58.0735C273.98 60.2708 278.514 62.4444 283.046 64.6275C284.405 65.2857 285.292 63.1279 283.946 62.481C279.413 60.3026 274.882 58.1148 270.347 55.9507L270.608 57.9109C273.833 55.6718 277.003 53.3547 280.117 50.9598C280.962 50.3135 280.46 49.2128 279.586 48.9645C274.139 47.4996 268.351 47.9714 263.212 50.2991L264.723 51.4586C266.031 46.1517 266.654 40.6991 266.576 35.234C266.565 34.3993 265.445 34.1237 264.872 34.5308C261.439 37.1139 257.899 40.7136 256.551 44.8968C256.277 45.7473 257.416 46.5792 257.997 45.7397L257.954 45.7774Z" fill="black"/>
<path d="M247.014 27.6843C245.782 31.4972 244.476 35.2814 243.326 39.1243C242.979 40.2783 244.691 41.0354 245.084 39.8633C246.35 36.0547 247.467 32.2026 248.649 28.3687C248.987 27.2905 247.368 26.5937 247.015 27.6748L247.014 27.6843Z" fill="black"/>
<path d="M232.112 29.5251C231.418 32.2685 231.545 35.1555 232.478 37.8271C232.89 39.0316 234.7 38.2603 234.298 37.057C233.519 34.7121 233.412 32.1957 233.989 29.7932C234.265 28.6009 232.405 28.388 232.095 29.547L232.112 29.5251Z" fill="black"/>
<path d="M257.693 72.3803C259.733 72.4658 261.734 72.9651 263.575 73.8479C264.655 74.3591 265.37 72.6364 264.279 72.1382C262.285 71.1901 260.114 70.6733 257.907 70.6215C256.789 70.5917 256.541 72.3125 257.681 72.3643L257.693 72.3803Z" fill="black"/>
<path d="M200.907 208.199C207.105 207.385 213.223 206.043 219.194 204.19C220.062 203.917 219.659 202.391 218.765 202.636C212.82 204.312 206.784 205.647 200.686 206.634C200.492 206.678 200.321 206.793 200.208 206.957C200.095 207.121 200.047 207.321 200.075 207.518C200.103 207.715 200.204 207.895 200.358 208.021C200.512 208.147 200.708 208.211 200.907 208.199Z" fill="black"/>
</svg>
