<svg width="95" height="116" viewBox="0 0 95 116" fill="none" xmlns="http://www.w3.org/2000/svg">
<g opacity="0.1">
<path d="M63.5225 76.7993C62.8735 62.3011 61.1779 46.1112 50.9503 34.9094L50.1681 37.8899C61.1677 31.9456 69.6134 22.1835 73.9137 10.4432L69.9308 9.92561C73.1489 22.2198 80.4183 32.4303 86.9726 43.1403L89.539 39.8089C87.4791 38.761 84.1118 41.9931 82.6288 43.0284C79.727 45.0275 76.9922 47.2586 74.4512 49.7C70.549 53.5271 67.2016 58.1247 64.2114 62.7157C61.2923 67.2052 59.5794 71.8996 59.8829 77.3088C60.0392 80.1079 64.3529 79.4886 64.1994 76.7043C63.9399 71.9944 65.8724 67.9449 68.4978 64.1589C71.2134 60.2353 74.0196 56.2079 77.4225 52.8504C79.38 50.9558 81.4759 49.2096 83.6927 47.6262C84.8686 46.7677 86.0486 45.9145 87.2527 45.0982C87.6961 44.7994 88.1926 44.5365 88.6112 44.2056C89.5555 43.4615 89.3705 44.5884 87.8525 43.8181C89.9898 44.9001 91.4415 42.1414 90.4189 40.4867C84.3053 30.4987 77.1893 20.7752 74.0564 9.3445C73.5769 7.58699 70.8405 6.66791 70.083 8.82811C66.3107 19.6628 58.6834 28.7306 48.6549 34.3029C47.6434 34.8601 46.9553 36.2636 47.8679 37.2828C57.692 48.2539 59.0062 63.2288 60.5788 77.2162C60.7956 79.1419 63.6057 78.6787 63.5225 76.7993Z" fill="#338298"/>
<path d="M16.6732 104.387C16.317 93.6398 14.9994 81.6552 7.46077 73.3313L6.67378 76.3111C14.8741 71.8837 21.1838 64.6243 24.4259 55.8872L20.4525 55.3709C22.8283 64.5119 28.1919 72.0813 33.0613 80.0439L35.6271 76.7173C33.6448 76.0359 31.61 77.9819 30.1227 79.0504C28.0089 80.4981 26.012 82.1097 24.1507 83.8703C21.2726 86.7924 18.7121 90.0111 16.5121 93.4725C14.1727 97.0212 12.8371 100.628 13.0431 104.898C13.1616 107.692 17.4894 107.074 17.3602 104.288C17.1935 100.718 18.8044 97.7339 20.8168 94.9229C22.7326 92.2246 24.6493 89.483 27.0129 87.1559C28.3944 85.8296 29.8702 84.605 31.4285 83.4918C32.1901 82.931 32.9605 82.3761 33.7396 81.8658C34.1149 81.668 34.4684 81.4315 34.7945 81.1601C35.4205 80.4564 36.0434 81.4813 33.9445 80.7703C36.0942 81.4976 37.6481 79.2868 36.5109 77.439C31.9452 69.9926 26.8041 62.823 24.4324 54.3181C23.9492 52.589 21.1567 52.7318 20.5821 54.2993C17.8653 62.1296 12.3746 68.6937 5.14746 72.7513C4.11165 73.3102 3.44911 74.7025 4.36582 75.7271C11.5041 83.7967 12.4365 94.5947 13.72 104.803C13.9695 106.737 16.7334 106.259 16.6732 104.387Z" fill="#338298"/>
</g>
</svg>
