<svg width="243" height="199" viewBox="0 0 243 199" fill="none" xmlns="http://www.w3.org/2000/svg">
<path d="M157.956 117.41C155.435 119.988 157.609 123.58 158.892 126.153C160.086 128.545 159.842 130.58 158.888 133.007C157.978 135.323 157.027 137.622 156.095 139.928C154.167 144.695 152.236 149.46 150.301 154.223C148.779 157.968 146.331 162.257 147.122 166.474C147.856 170.384 151.076 171.654 154.517 171.938C158.396 172.259 162.11 172.123 164.684 168.683C167.086 165.472 168.262 161.125 169.35 157.282C170.628 152.766 171.61 148.165 172.907 143.654C175.914 133.191 180.617 123.103 185.826 113.655C186.151 113.066 185.278 112.535 184.954 113.123C180.787 120.668 177.179 128.534 174.162 136.652C171.161 144.736 169.81 153.311 166.982 161.444C165.713 165.092 164.065 169.731 160.018 170.744C158.13 171.217 156.054 171.01 154.139 170.823C152.121 170.627 149.964 170.122 148.828 168.187C146.512 164.237 149.408 159.144 150.903 155.46C152.587 151.309 154.269 147.157 155.947 143.003C156.918 140.598 157.889 138.193 158.858 135.787C159.65 133.823 160.733 131.757 160.802 129.583C160.865 127.585 159.856 125.887 158.944 124.213C157.956 122.397 156.865 119.785 158.539 118.018C158.612 117.937 158.652 117.829 158.65 117.717C158.648 117.606 158.605 117.499 158.529 117.42C158.454 117.341 158.351 117.296 158.244 117.294C158.137 117.293 158.034 117.334 157.956 117.41L157.956 117.41Z" fill="black"/>
<path d="M145.751 118.855C145.718 120.784 146.723 122.507 148.127 123.717C149.066 124.525 150.172 125.096 151.359 125.382C152.545 125.668 153.779 125.663 154.963 125.366C156.148 125.069 157.249 124.49 158.182 123.673C159.114 122.856 159.851 121.824 160.335 120.659" fill="white"/>
<path d="M145.379 118.856C145.376 122.732 148.712 125.626 152.235 126.044C154.013 126.242 155.804 125.837 157.343 124.891C158.883 123.944 160.089 122.506 160.783 120.788C160.987 120.28 160.167 119.924 159.928 120.413C158.525 123.288 155.857 125.248 152.683 125.048C149.493 124.847 146.249 122.384 146.117 118.856C146.113 118.756 146.073 118.662 146.004 118.592C145.935 118.523 145.844 118.484 145.748 118.484C145.652 118.484 145.56 118.523 145.492 118.592C145.423 118.662 145.382 118.756 145.379 118.856V118.856Z" fill="black"/>
<path d="M103.86 24.6298C105.486 24.3149 107.137 24.1564 108.79 24.1563C111.16 24.1501 113.96 25.3925 116.025 26.499C121.328 29.3404 125.567 33.9226 129.457 38.6338C136.254 46.8655 142.443 55.878 150.925 62.186C154.98 65.202 159.464 67.5227 163.927 69.83C173.255 74.6531 182.684 79.5147 192.814 82.0283C199.54 83.6972 205.37 85.1794 206.54 93.0814C207.303 98.2361 206.068 103.46 204.824 108.513C203.268 114.839 198.127 121.557 191.828 123.389C188.081 124.479 184.099 123.832 180.25 123.246C167.714 121.336 155.087 120.142 142.426 119.67C136.857 119.462 131.249 119.397 125.747 120.32C113.342 122.403 101.898 129.435 89.3512 130.153C87.0332 130.286 84.6682 130.193 82.461 129.443C80.5661 128.763 78.8142 127.709 77.3004 126.34C71.3921 121.16 69.9299 113.819 69.4111 106.193C67.6843 80.8092 74.0895 54.4723 89.1482 34.1903C92.9613 29.0546 97.949 25.7889 103.86 24.6298Z" fill="#FF6739"/>
<path d="M116.679 44.1783C120.065 69.3945 113.533 106.527 92.0029 120.161C89.4418 121.783 86.315 122.551 83.5852 121.446C80.5829 120.231 78.5842 117.013 77.3166 113.702C74.8767 107.331 75.1608 99.4981 75.6256 92.7716C76.0655 85.8421 77.0507 78.962 78.5711 72.2006C81.6338 58.938 87.3813 45.8923 97.5418 36.9296C99.7332 34.9965 102.151 33.2854 104.841 32.5596C107.532 31.8337 110.541 32.2087 112.693 34.1195C115.304 36.4385 116.177 40.4418 116.679 44.1783Z" fill="white"/>
<path d="M116.31 44.2816C117.851 55.9967 117.14 68.2301 114.781 79.7691C112.418 91.3304 108.144 103.025 100.526 111.97C98.7373 114.088 96.747 116.011 94.5854 117.709C91.9632 119.749 88.9244 121.776 85.5017 121.39C81.6648 120.958 79.2951 117.274 77.9302 113.862C76.4927 110.268 75.9843 106.351 75.8563 102.484C75.5807 94.1511 76.5456 85.6047 78.0467 77.4341C79.4258 69.9279 81.5173 62.5139 84.7202 55.6228C87.7634 49.0756 91.8193 43.0173 97.0463 38.1619C99.8814 35.5282 103.32 32.8655 107.284 32.8099C111.291 32.7536 113.943 35.532 115.119 39.3197C115.597 40.9559 115.941 42.6312 116.148 44.3279C116.25 45.0649 117.32 44.7502 117.221 44.0194C116.752 40.5782 116.031 36.7837 113.615 34.1998C111.261 31.6829 107.652 31.1231 104.493 32.036C100.841 33.0913 97.7639 35.7664 95.0758 38.4471C92.393 41.1435 90.0005 44.1371 87.9408 47.3748C78.944 61.4074 75.874 78.7126 74.9675 95.2829C74.5491 102.931 74.5561 111.862 79.144 118.312C81.1494 121.131 84.0383 122.84 87.4683 122.41C90.6237 122.014 93.3418 120.053 95.7893 118.066C105.279 110.362 110.914 98.4725 114.177 86.6483C117.561 74.3811 118.897 61.0061 117.575 48.29C117.429 46.8799 117.246 45.4706 117.059 44.0658C116.991 43.5513 116.242 43.7711 116.31 44.2816Z" fill="black"/>
<path d="M119.465 30.5977C125.406 38.2105 125.85 48.3738 126.164 57.7465C126.184 58.3301 127.057 58.3325 127.036 57.7465C126.689 48.1306 126.139 37.8104 119.97 30.0711C119.675 29.7009 119.178 30.23 119.465 30.5977Z" fill="black"/>
<path d="M97.2416 38.3289C99.0344 37.0476 100.838 35.7636 102.784 34.7453C103.764 34.217 104.791 33.787 105.849 33.4611C106.109 33.3847 106.374 33.3114 106.637 33.2475C106.795 33.1971 106.961 33.1823 107.124 33.2041C107.215 33.2126 107.301 33.2528 107.368 33.3183C107.467 33.4543 107.417 33.4265 107.32 33.5005C107.079 33.6437 106.825 33.7622 106.562 33.8542C106.308 33.9728 106.054 34.0918 105.8 34.2109C103.747 35.1755 101.702 36.1648 99.7215 37.2853C98.7402 37.8407 97.7753 38.428 96.8383 39.0613C95.9911 39.6604 95.2129 40.3595 94.5194 41.1446C93.68 42.0441 92.7206 42.8128 91.6707 43.4268C90.6343 44.0421 89.5535 44.5709 88.5066 45.1661C88.2961 45.2858 88.4438 45.6068 88.6644 45.5564C94.949 44.119 99.606 39.0758 105.298 36.2936C106.9 35.4858 108.612 34.9414 110.374 34.6797L110.246 34.189C104.04 37.3936 98.1122 41.1545 92.5304 45.4293C90.9723 46.6223 89.4422 47.8536 87.9398 49.1231C87.7538 49.28 87.9906 49.5535 88.1834 49.4522C94.8885 45.9285 101.616 42.4512 108.337 38.9613L114.08 35.9792L113.844 35.5576C107.579 39.5647 101.072 43.1458 94.3637 46.2783C92.4457 47.173 90.5119 48.0292 88.5621 48.847L88.7431 49.2946C95.3423 45.6876 102.21 42.7036 109.167 39.9396C111.199 39.1326 113.233 38.3341 115.27 37.5438L115.089 37.0977C107.903 41.3092 100.594 45.2839 93.3636 49.412C91.2698 50.6075 89.1832 51.8167 87.1038 53.0396L87.3425 53.4655C94.2358 48.939 101.553 45.1557 109.181 42.1742C111.306 41.3442 113.452 40.5769 115.619 39.8722L115.433 39.4123C108.763 43.3666 102.096 47.3268 95.4328 51.2929L89.7224 54.6936C89.6708 54.7276 89.6339 54.781 89.6194 54.8428C89.6049 54.9046 89.6141 54.9698 89.6448 55.0246C89.6756 55.0795 89.7256 55.1198 89.7843 55.137C89.8431 55.1541 89.9059 55.1468 89.9595 55.1166C96.4432 51.288 103.125 47.8361 109.974 44.7768C111.934 43.903 113.907 43.0617 115.893 42.2529L115.716 41.8156C111.781 44.5375 107.81 47.2014 103.802 49.8071C99.7953 52.4118 95.755 54.9605 91.6815 57.453C89.3771 58.8636 87.062 60.2549 84.736 61.6268L84.9791 62.0603C88.8908 59.6802 92.8445 57.374 96.8652 55.1993C100.779 53.0826 104.756 51.102 108.796 49.2576C111.185 48.1698 113.593 47.1301 116.02 46.1386L115.839 45.692C111.736 48.1976 107.687 50.796 103.693 53.4872C99.7743 56.1188 95.9019 58.8237 92.0461 61.5534C89.7892 63.1511 87.5373 64.7563 85.2902 66.3688C85.2356 66.4048 85.1966 66.4615 85.1813 66.5269C85.166 66.5923 85.1757 66.6613 85.2083 66.7194C85.2409 66.7776 85.2938 66.8202 85.356 66.8385C85.4182 66.8567 85.4847 66.849 85.5415 66.8171C93.4173 62.5175 101.293 58.2177 109.169 53.918C111.402 52.7005 113.635 51.4839 115.869 50.2682L115.629 49.8403C110.885 53.2825 106.194 56.8019 101.556 60.3986C96.9104 63.9845 92.2953 67.6127 87.7105 71.2831C85.1176 73.3489 82.5287 75.4202 79.944 77.497C79.6974 77.6947 79.9108 78.1241 80.1961 77.9469C84.7186 75.1381 89.2878 72.414 93.9038 69.7745C98.2482 67.2903 102.629 64.8763 107.015 62.4742C109.738 60.9833 112.459 59.4911 115.18 57.9977L114.935 57.5607C110.396 60.6891 105.911 63.9051 101.524 67.2618C97.3853 70.4278 93.3284 73.705 89.3528 77.0935C86.8892 79.182 84.447 81.2977 82.0262 83.4404C81.8072 83.6332 82.0869 83.9757 82.3233 83.8417C86.955 81.2167 91.561 78.5429 96.1411 75.8204C100.721 73.0977 105.273 70.3263 109.799 67.5063C112.362 65.9093 114.917 64.2988 117.465 62.675L117.245 62.2823L102.301 72.9091L87.3571 83.5359L78.9696 89.5004C78.7079 89.6865 78.9431 90.1233 79.221 89.9487C83.9448 86.9812 88.6922 84.055 93.4633 81.1701C97.8761 78.5159 102.315 75.9091 106.779 73.3497C109.624 71.7117 112.473 70.082 115.327 68.4606L115.089 68.0373C109.975 71.3402 104.881 74.676 99.806 78.0448C95.0873 81.181 90.3845 84.3428 85.6975 87.5303C82.7481 89.5286 79.7996 91.5284 76.8522 93.5297C76.8114 93.5565 76.7788 93.5949 76.7583 93.6403C76.7378 93.6858 76.7303 93.7364 76.7365 93.7863C76.7428 93.8361 76.7626 93.883 76.7936 93.9214C76.8246 93.9599 76.8655 93.9883 76.9115 94.0032C79.4093 95.0553 82.0846 93.8868 84.2878 92.6145C86.9197 91.0946 89.4735 89.4101 92.0572 87.803L107.796 78.013L116.676 72.4895L116.48 72.1394C111.386 75.4302 106.327 78.777 101.3 82.1799C96.2759 85.5841 91.2938 89.0541 86.3534 92.59C83.5685 94.5832 80.7994 96.5997 78.046 98.6394C77.8297 98.7998 77.9503 99.2204 78.2398 99.1186C83.481 97.2381 88.5629 94.9062 93.4332 92.147C98.338 89.4093 103.063 86.3332 107.716 83.1575C110.344 81.364 112.947 79.5317 115.557 77.7096C115.601 77.6806 115.632 77.6349 115.645 77.5822C115.657 77.5294 115.649 77.4738 115.623 77.4269C115.597 77.3801 115.554 77.3457 115.504 77.331C115.454 77.3163 115.4 77.3225 115.354 77.3482C110.284 80.3802 105.239 83.4574 100.22 86.5798C95.2205 89.6898 90.2473 92.8446 85.3 96.0441C82.4987 97.8558 79.7059 99.6816 76.9216 101.522C76.7406 101.641 76.7928 102.008 77.0408 101.981C82.0941 101.414 86.5729 98.6015 90.9648 96.1469C95.8598 93.4112 100.753 90.6728 105.646 87.9319L113.961 83.2755L113.706 82.8207C109.596 85.5348 105.485 88.2486 101.374 90.9623L89.1027 99.0639L82.1507 103.653C82.0995 103.687 82.0614 103.739 82.0432 103.799C82.025 103.859 82.0279 103.924 82.0514 103.982C82.075 104.04 82.1176 104.088 82.1716 104.117C82.2257 104.145 82.2877 104.152 82.3466 104.138C89.8679 102.825 96.7724 99.2264 103.297 95.2505C105.14 94.127 106.964 92.9678 108.786 91.8066L108.531 91.3514C102.986 95.4118 97.441 99.4719 91.8958 103.532L87.21 106.963C86.9479 107.154 87.1787 107.59 87.4649 107.417C92.8057 104.201 98.1454 100.982 103.484 97.7617C105.003 96.8449 106.523 95.9286 108.043 95.0129L107.748 94.6144L95.7406 104.357C95.519 104.537 95.8144 104.941 96.0436 104.766C99.4154 102.187 103.104 100.093 107.011 98.5388L106.765 98.0987C104.451 100.685 101.909 103.039 99.1723 105.13C98.9158 105.326 99.1396 105.759 99.4273 105.585L106.914 101.048L106.568 100.688L101.776 107.488C101.583 107.761 102.021 108.024 102.212 107.753L107.004 100.953C107.16 100.732 106.863 100.469 106.659 100.593L99.1723 105.13L99.4273 105.585C102.2 103.47 104.777 101.088 107.122 98.4711C107.281 98.2937 107.127 97.9316 106.877 98.0309C102.927 99.5967 99.1985 101.711 95.7913 104.316L96.0943 104.725L108.092 94.9732C108.314 94.793 108.03 94.4343 107.797 94.5747C102.458 97.7937 97.1154 101.007 91.7702 104.216L87.21 106.962L87.4649 107.417L104.1 95.2373C105.662 94.0937 107.224 92.9501 108.786 91.8066C109.048 91.6147 108.813 91.1716 108.531 91.3514C102.1 95.4478 95.5726 99.5984 88.3647 102.042C86.3541 102.728 84.2973 103.258 82.2115 103.627L82.4073 104.111L94.7387 95.9683L107.01 87.8656C109.327 86.3355 111.644 84.8055 113.961 83.2755C114.017 83.239 114.056 83.1815 114.072 83.1151C114.087 83.0488 114.078 82.9787 114.045 82.9197C114.011 82.8607 113.958 82.8174 113.895 82.7989C113.832 82.7805 113.764 82.7883 113.706 82.8207L99.2168 90.9341C96.8018 92.2863 94.3875 93.6396 91.9738 94.994C89.6849 96.2781 87.4135 97.6093 85.0765 98.7971C82.5396 100.086 79.8649 101.167 77.0408 101.488L77.16 101.947C82.092 98.6765 87.0508 95.4503 92.0361 92.2684C97.0015 89.0997 101.993 85.9759 107.01 82.8967C109.851 81.1532 112.7 79.4242 115.557 77.7096L115.354 77.3482C110.752 80.5729 106.129 83.7731 101.395 86.7861C96.6959 89.8239 91.8272 92.5676 86.8153 95.0028C83.9745 96.3636 81.0674 97.5686 78.1059 98.613L78.2997 99.0922C83.1858 95.4739 88.1088 91.9105 93.0687 88.402C98.0327 84.9009 103.039 81.4656 108.087 78.0961C110.931 76.1971 113.795 74.3282 116.676 72.4894C116.718 72.4613 116.749 72.4171 116.761 72.366C116.773 72.3149 116.765 72.261 116.74 72.2156C116.714 72.1702 116.673 72.1369 116.624 72.1226C116.576 72.1084 116.524 72.1144 116.48 72.1393L100.957 81.7257L85.4342 91.312C82.9857 92.8241 79.9581 94.7277 77.0435 93.5035L77.1028 93.977C82.1428 90.5516 87.1848 87.1296 92.2291 83.711C96.9263 80.5399 101.641 77.3966 106.372 74.2813C109.348 72.3259 112.333 70.3856 115.327 68.4605C115.378 68.4265 115.415 68.373 115.429 68.3113C115.444 68.2495 115.435 68.1843 115.404 68.1295C115.373 68.0746 115.323 68.0343 115.264 68.0171C115.206 67.9999 115.143 68.0071 115.089 68.0372C110.246 70.7886 105.407 73.5479 100.594 76.3576C96.1495 78.9529 91.7314 81.597 87.34 84.2901C84.5393 86.0085 81.7491 87.7453 78.9695 89.5003L79.2208 89.9486L94.1525 79.3001L109.084 68.6516L117.465 62.675C117.694 62.5117 117.487 62.1274 117.245 62.2822C112.75 65.1553 108.225 67.9756 103.67 70.7431C99.1162 73.5132 94.5358 76.2345 89.9286 78.907C87.3193 80.4206 84.7016 81.9184 82.0757 83.4005L82.3727 83.8018C86.5224 80.1609 90.7076 76.5618 94.9803 73.0786C99.0213 69.7844 103.145 66.6053 107.351 63.5412C109.937 61.6563 112.546 59.8085 115.18 57.9977C115.234 57.9628 115.273 57.9075 115.288 57.8435C115.303 57.7795 115.294 57.7119 115.262 57.655C115.23 57.598 115.178 57.5563 115.117 57.5387C115.056 57.5211 114.991 57.5289 114.935 57.5606C110.281 60.1262 105.613 62.6668 100.962 65.2392C96.5851 67.6595 92.2294 70.121 87.9189 72.6674C85.2441 74.2476 82.5857 75.8574 79.9437 77.4969L80.1959 77.9468C84.7812 74.2768 89.3731 70.6158 93.9717 66.9638C98.5788 63.3245 103.219 59.7309 107.892 56.1831C110.534 54.1872 113.193 52.2156 115.868 50.2683C115.92 50.2339 115.958 50.1799 115.972 50.1175C115.987 50.055 115.977 49.9892 115.946 49.9338C115.915 49.8783 115.865 49.8376 115.805 49.8202C115.746 49.8028 115.683 49.81 115.628 49.8404C107.752 54.1392 99.8725 58.4325 91.9904 62.7202L85.2899 66.3689L85.5413 66.8173C89.4675 64.0181 93.3904 61.2132 97.3423 58.4538C101.214 55.75 105.118 53.0946 109.075 50.5276C111.39 49.0256 113.724 47.5543 116.075 46.114C116.296 45.9789 116.149 45.5628 115.895 45.6674C111.684 47.3994 107.529 49.2707 103.431 51.2814C99.4063 53.2651 95.4426 55.376 91.5401 57.6142C89.2547 58.9196 86.9867 60.2572 84.7358 61.6268C84.6829 61.6615 84.6451 61.7164 84.6302 61.7797C84.6154 61.843 84.6247 61.9098 84.6562 61.9661C84.6878 62.0224 84.7391 62.0637 84.7993 62.0812C84.8595 62.0988 84.9239 62.0913 84.9789 62.0603C89.0927 59.6424 93.1733 57.1644 97.2207 54.6264C101.267 52.0882 105.274 49.4825 109.241 46.8094C111.489 45.3013 113.724 43.7745 115.947 42.2288C116.15 42.0881 116.027 41.6864 115.771 41.7915C108.797 44.6524 101.976 47.8991 95.3341 51.5177C93.4477 52.5458 91.5771 53.6045 89.7222 54.6936L89.9593 55.1166C96.63 51.1635 103.299 47.2069 109.965 43.2466L115.677 39.8468C115.726 39.815 115.762 39.766 115.78 39.7088C115.797 39.6515 115.794 39.5896 115.772 39.5342C115.749 39.4789 115.709 39.4336 115.657 39.4066C115.606 39.3796 115.547 39.3726 115.491 39.3869C107.724 41.9376 100.219 45.2838 93.0854 49.3763C91.0585 50.5375 89.0647 51.7586 87.1041 53.0395C87.0522 53.0737 87.015 53.1275 87.0004 53.1897C86.9858 53.2519 86.995 53.3176 87.026 53.3728C87.057 53.4281 87.1073 53.4687 87.1665 53.486C87.2256 53.5032 87.2889 53.4959 87.3429 53.4654C94.5303 49.257 101.834 45.2693 109.065 41.1443C111.159 39.9497 113.246 38.7413 115.326 37.5193C115.551 37.387 115.399 36.9735 115.146 37.0731C108.145 39.8226 101.132 42.5663 94.348 45.8645C92.3795 46.8214 90.4323 47.8238 88.5064 48.8717C88.2751 48.9975 88.4373 49.4237 88.6874 49.3193C95.5546 46.4624 102.229 43.1244 108.664 39.3282C110.49 38.2477 112.295 37.1314 114.081 35.9793C114.132 35.9453 114.168 35.892 114.182 35.8306C114.197 35.7692 114.187 35.7045 114.157 35.65C114.126 35.5955 114.077 35.5554 114.018 35.5382C113.96 35.521 113.898 35.5279 113.844 35.5576L93.7229 46.1064C91.8122 47.1081 89.8981 48.1027 87.9808 49.0904L88.2243 49.4195C93.6047 44.9409 99.3354 40.94 105.356 37.4589C107.05 36.4777 108.765 35.5393 110.501 34.6437C110.716 34.5329 110.624 34.1193 110.374 34.153C103.927 35.0229 99.12 40.0691 93.5895 43.1302C92.0056 44.0334 90.3126 44.7109 88.5558 45.1446L88.7136 45.5349C90.6832 44.4036 92.8104 43.5165 94.4426 41.8524C95.2726 41.0061 96.0202 40.1492 97.0028 39.486C98.0307 38.7923 99.0925 38.1543 100.173 37.5539C102.312 36.3649 104.522 35.323 106.736 34.2957C107.008 34.1693 107.281 34.0431 107.553 33.9169C107.76 33.821 107.911 33.7659 107.915 33.5027C107.901 33.2978 107.816 33.1051 107.677 32.96C107.538 32.8149 107.353 32.7273 107.156 32.7134C106.588 32.6452 105.963 32.9323 105.435 33.117C104.907 33.3017 104.389 33.5157 103.879 33.7501C101.446 34.8695 99.2625 36.484 97.1042 38.0838C96.9631 38.1884 97.0959 38.4331 97.2416 38.3289L97.2416 38.3289Z" fill="black"/>
<path d="M124.538 67.8107L124.441 68.8467C124.442 68.9599 124.486 69.0683 124.562 69.1483C124.639 69.2284 124.743 69.2738 124.852 69.2746C124.96 69.2722 125.063 69.2263 125.14 69.1466C125.216 69.0669 125.26 68.9594 125.262 68.8467L125.358 67.8107C125.358 67.6975 125.314 67.5891 125.237 67.509C125.161 67.429 125.057 67.3836 124.948 67.3828C124.84 67.3852 124.737 67.431 124.66 67.5108C124.584 67.5905 124.54 67.698 124.538 67.8107H124.538Z" fill="black"/>
<path d="M122.765 83.112C121.695 91.9138 119.06 100.43 114.995 108.225C111.202 115.47 106.333 122.201 99.218 126.126C98.6883 126.418 99.1534 127.197 99.6801 126.95C107.022 123.502 112.066 115.843 115.743 108.681C119.815 100.729 122.437 92.0599 123.479 83.112C123.535 82.6364 122.822 82.6432 122.765 83.112V83.112Z" fill="black"/>
<path d="M83.5874 121.443C84.1734 121.679 84.7861 121.835 85.4104 121.908C84.782 121.732 84.1523 121.563 83.5195 121.414C83.5423 121.424 83.5645 121.434 83.5874 121.443Z" fill="white"/>
<path d="M83.4538 121.949C84.0852 122.192 84.7424 122.354 85.4111 122.433C85.9848 122.506 86.0824 121.548 85.5454 121.398C84.9176 121.223 84.2882 121.055 83.6545 120.904C83.0041 120.75 82.798 121.667 83.3859 121.92L83.4538 121.949C83.5829 121.985 83.7206 121.967 83.8368 121.898C83.9531 121.829 84.0388 121.715 84.0752 121.581C84.1076 121.447 84.0891 121.304 84.0234 121.183C83.9576 121.063 83.8499 120.973 83.7224 120.933L83.6545 120.904L83.3859 121.92C84.0197 122.07 84.649 122.239 85.2768 122.414L85.4111 121.379C84.8332 121.301 84.2663 121.151 83.7224 120.933C83.1133 120.694 82.8502 121.712 83.4538 121.949Z" fill="black"/>
<path d="M78.099 101.471C76.0775 101.902 74.0971 102.52 72.1811 103.319C65.8779 105.951 60.3781 111.037 57.8945 117.626C56.8598 120.371 57.537 123.5 60.0823 125.063C62.1393 126.326 64.7228 126.299 67.035 125.68C69.3472 125.061 71.489 123.906 73.71 122.994C76.3771 121.898 79.2449 121.141 82.0971 121.442C82.7406 121.515 83.3793 121.627 84.0098 121.78C84.4788 121.89 84.9456 122.016 85.4114 122.146C87.0695 122.344 88.7359 121.643 90.2996 120.849C95.425 118.247 101.889 113.318 104.868 107.152C97.8293 102.078 86.4893 99.675 78.099 101.471Z" fill="white"/>
<path d="M77.9625 100.965C72.2049 102.236 66.7559 104.893 62.5836 109.291C60.6365 111.321 59.0474 113.693 57.8891 116.297C56.9029 118.555 56.4674 121.055 57.7155 123.318C59.0332 125.707 61.7329 126.673 64.259 126.621C67.5343 126.553 70.4603 124.93 73.4265 123.677C76.6451 122.318 80.0284 121.466 83.4934 122.204C84.9552 122.515 86.1216 122.857 87.6124 122.493C89.0525 122.141 90.4126 121.409 91.7114 120.689C97.1698 117.663 102.425 113.228 105.302 107.419C105.366 107.298 105.382 107.155 105.349 107.021C105.315 106.887 105.233 106.772 105.12 106.699C97.5134 101.297 86.983 99.1017 77.9625 100.965C77.3253 101.096 77.595 102.112 78.231 101.98C86.9931 100.171 97.2321 102.369 104.611 107.608L104.429 106.888C102.038 111.715 97.9694 115.473 93.6048 118.328C91.4837 119.716 88.8024 121.564 86.2384 121.649C84.8686 121.694 83.4686 121.06 82.0949 120.917C80.6999 120.79 79.2947 120.866 77.92 121.144C74.9273 121.711 72.2455 123.143 69.4411 124.292C66.7227 125.406 63.4451 126.276 60.6827 124.808C54.9185 121.745 59.6315 114.218 62.536 110.876C66.6708 106.118 72.2657 103.298 78.2311 101.98C78.8667 101.84 78.5977 100.824 77.9625 100.965Z" fill="black"/>
<path d="M68.7866 116.17C72.7484 113.015 77.587 111.375 82.4764 110.641C85.2002 110.232 88.1376 109.859 90.8547 110.479C93.5452 111.092 95.7497 112.663 98.145 113.974C98.2514 114.033 98.3757 114.047 98.4918 114.013C98.608 113.979 98.7069 113.899 98.7678 113.791C98.8287 113.682 98.8468 113.553 98.8183 113.431C98.7898 113.309 98.717 113.203 98.6151 113.135C96.3778 111.563 93.7572 110.134 91.0976 109.56C88.4026 108.978 85.565 109.312 82.8651 109.702C77.6304 110.457 72.551 112.147 68.3897 115.633C68.1029 115.874 68.4905 116.406 68.7867 116.17H68.7866Z" fill="black"/>
<path d="M107.654 99.142C107.678 99.1412 107.702 99.1305 107.719 99.1121C107.736 99.0938 107.745 99.0692 107.745 99.0437C107.745 99.0181 107.736 98.9936 107.719 98.9752C107.702 98.9569 107.678 98.9461 107.654 98.9453C107.629 98.9461 107.606 98.9569 107.589 98.9752C107.572 98.9936 107.563 99.0181 107.562 99.0437C107.563 99.0692 107.572 99.0938 107.589 99.1121C107.606 99.1305 107.629 99.1412 107.654 99.142Z" fill="black"/>
<path d="M100.666 97.6598C100.667 97.6598 100.668 97.6592 100.669 97.6581C100.67 97.6571 100.671 97.6556 100.671 97.6541C100.671 97.6526 100.67 97.6512 100.669 97.6501C100.668 97.649 100.667 97.6484 100.666 97.6484C100.664 97.6484 100.663 97.649 100.662 97.6501C100.661 97.6512 100.66 97.6526 100.66 97.6541C100.66 97.6556 100.661 97.6571 100.662 97.6581C100.663 97.6592 100.664 97.6598 100.666 97.6598Z" fill="black"/>
<path d="M125.075 24.6834C127.769 24.6834 129.952 22.4073 129.952 19.5995C129.952 16.7918 127.769 14.5156 125.075 14.5156C122.382 14.5156 120.199 16.7918 120.199 19.5995C120.199 22.4073 122.382 24.6834 125.075 24.6834Z" fill="white"/>
<path d="M129.341 20.5993C128.73 22.9819 126.505 24.6263 124.117 24.0449C123.009 23.7861 122.042 23.088 121.419 22.0985C120.797 21.1089 120.568 19.9056 120.782 18.7435C120.996 17.5813 121.636 16.5517 122.565 15.8726C123.495 15.1935 124.641 14.9184 125.762 15.1054C128.274 15.5239 129.815 18.0466 129.341 20.5993C129.218 21.2616 130.192 21.5452 130.315 20.8793C130.872 17.8807 129.241 14.8547 126.305 14.1364C125.617 13.9682 124.904 13.943 124.207 14.0621C123.509 14.1812 122.841 14.4423 122.241 14.8306C121.028 15.6147 120.163 16.8691 119.837 18.3177C119.512 19.7663 119.751 21.2905 120.503 22.5551C121.255 23.8196 122.458 24.7209 123.848 25.0605C126.769 25.7746 129.558 23.8296 130.315 20.8793C130.484 20.2238 129.509 19.9441 129.341 20.5993Z" fill="black"/>
<path d="M125.027 19.6505C124.912 20.7428 124.069 21.6836 122.785 21.4397C122.254 21.3402 121.771 21.0585 121.411 20.6395C121.156 20.2913 120.984 19.8853 120.908 19.4546C120.894 19.1292 120.959 18.8055 121.099 18.5141C121.202 18.229 121.352 17.9649 121.542 17.734C121.889 17.4036 122.347 17.2288 122.817 17.2474C123.379 17.2333 123.988 17.3296 124.385 17.7445C124.622 17.9914 124.803 18.291 124.914 18.621C125.026 18.951 125.064 19.3029 125.027 19.6505Z" fill="#161616"/>
<path d="M124.841 19.5948C124.827 19.7532 124.787 19.908 124.723 20.0524C124.637 20.1902 124.529 20.311 124.402 20.409C124.21 20.5961 123.986 20.743 123.74 20.8417C123.461 20.9573 123.154 20.9837 122.86 20.9174C122.499 20.8462 122.164 20.6696 121.895 20.4082C121.663 20.1453 121.502 19.8241 121.425 19.4763C121.356 19.1714 121.522 18.7613 121.679 18.4595C121.755 18.2934 121.864 18.1463 121.999 18.0283C122.127 17.9414 122.27 17.8827 122.421 17.8556C122.753 17.796 123.093 17.8038 123.422 17.8787C123.592 17.914 123.753 17.9902 123.89 18.1014C124.028 18.2127 124.139 18.3558 124.214 18.5195C124.392 18.8679 124.492 19.2537 124.507 19.6481C124.518 20.2408 125.403 20.4103 125.53 19.7925C125.668 19.2001 125.595 18.5758 125.325 18.0351C125.064 17.4939 124.621 17.0717 124.08 16.8487C123.145 16.4745 121.748 16.5961 121.091 17.4577C120.72 17.9488 120.484 18.5359 120.408 19.1561C120.389 19.7225 120.549 20.2795 120.865 20.7411C121.172 21.2029 121.602 21.5622 122.1 21.7757C122.599 21.9892 123.147 22.0478 123.677 21.9445C124.178 21.8266 124.613 21.5078 124.89 21.0573C125.01 20.8538 125.085 20.6252 125.109 20.388C125.145 20.1412 125.2 19.8974 125.221 19.6481C125.24 19.4246 124.874 19.3696 124.841 19.5948Z" fill="black"/>
<path d="M125.748 20.2235C126.339 19.7918 126.179 18.8838 126.078 18.2631C125.888 17.1053 124.572 17.5977 124.182 18.3484C123.703 19.271 124.702 20.9884 125.748 20.2235Z" fill="white"/>
<path d="M95.4739 20.3904C98.167 20.3904 100.35 18.1143 100.35 15.3065C100.35 12.4988 98.167 10.2227 95.4739 10.2227C92.7808 10.2227 90.5977 12.4988 90.5977 15.3065C90.5977 18.1143 92.7808 20.3904 95.4739 20.3904Z" fill="white"/>
<path d="M99.7405 16.3046C99.1289 18.6872 96.904 20.3316 94.5158 19.7502C93.4082 19.4915 92.4408 18.7934 91.8184 17.8038C91.196 16.8142 90.9676 15.6109 91.1815 14.4488C91.3954 13.2867 92.0349 12.257 92.9644 11.5779C93.8939 10.8989 95.0404 10.6237 96.1612 10.8108C98.6731 11.2293 100.214 13.7519 99.7405 16.3046C99.6175 16.9669 100.591 17.2505 100.715 16.5846C101.271 13.5861 99.6405 10.5601 96.7042 9.84178C95.3155 9.50433 93.8551 9.75531 92.6438 10.5396C91.4324 11.3239 90.5692 12.5774 90.2437 14.0248C89.9182 15.4721 90.1569 16.995 90.9076 18.259C91.6582 19.5229 92.8594 20.4246 94.2472 20.7659C97.1679 21.4799 99.9575 19.5349 100.715 16.5846C100.883 15.9291 99.9086 15.6494 99.7405 16.3046Z" fill="black"/>
<path d="M95.4214 15.3497C95.3069 16.442 94.4637 17.3828 93.1791 17.1389C92.6485 17.0395 92.1651 16.7578 91.8058 16.3387C91.551 15.9905 91.3786 15.5845 91.3027 15.1538C91.2883 14.8285 91.354 14.5047 91.4936 14.2133C91.5963 13.9282 91.7463 13.6641 91.9368 13.4332C92.2838 13.1028 92.7417 12.928 93.2113 12.9467C93.7731 12.9325 94.3825 13.0288 94.7792 13.4436C95.0167 13.6906 95.1978 13.9902 95.309 14.3202C95.4202 14.6502 95.4586 15.0021 95.4214 15.3497Z" fill="#161616"/>
<path d="M95.2358 15.3018C95.2218 15.4603 95.1818 15.615 95.1177 15.7594C95.0318 15.8973 94.9229 16.018 94.7963 16.116C94.6046 16.3032 94.38 16.4501 94.1349 16.5487C93.8552 16.6643 93.5488 16.6907 93.2547 16.6244C92.8933 16.5532 92.5586 16.3766 92.2895 16.1152C92.058 15.8523 91.8961 15.5312 91.8195 15.1833C91.7502 14.8784 91.9166 14.4683 92.0735 14.1665C92.1492 14.0004 92.2584 13.8533 92.3936 13.7353C92.5214 13.6484 92.6649 13.5897 92.8153 13.5626C93.1472 13.503 93.4871 13.5108 93.8161 13.5858C93.9869 13.621 94.1475 13.6972 94.285 13.8085C94.4226 13.9197 94.5334 14.0628 94.6087 14.2265C94.7865 14.5749 94.8866 14.9607 94.9013 15.3551C94.9129 15.9479 95.7972 16.1173 95.9247 15.4995C96.0624 14.9071 95.9895 14.2828 95.7195 13.7421C95.4581 13.2009 95.0151 12.7787 94.4747 12.5557C93.5394 12.1815 92.1426 12.3032 91.486 13.1647C91.1147 13.6558 90.8784 14.2429 90.8023 14.8632C90.7834 15.4295 90.944 15.9865 91.2592 16.4481C91.5669 16.9099 91.996 17.2692 92.495 17.4827C92.9939 17.6962 93.5414 17.7548 94.0715 17.6516C94.5721 17.5336 95.0079 17.2148 95.2847 16.7643C95.4043 16.5608 95.4791 16.3323 95.5038 16.095C95.5399 15.8482 95.5942 15.6045 95.6157 15.3551C95.635 15.1316 95.2686 15.0766 95.2358 15.3018Z" fill="black"/>
<path d="M96.1427 15.9266C96.7332 15.4949 96.5736 14.587 96.4722 13.9662C96.283 12.8084 94.9663 13.3008 94.5765 14.0515C94.0975 14.9741 95.0965 16.6915 96.1427 15.9266Z" fill="white"/>
<path d="M131.331 8.56982C126.558 10.3454 121.773 12.0889 117.016 13.9081C116.458 14.1215 116.699 15.0603 117.263 14.8444C122.027 13.0228 126.765 11.1252 131.513 9.26014C131.921 9.0999 131.75 8.41366 131.331 8.56982H131.331Z" fill="black"/>
<path d="M92.1159 0.588329C95.3172 3.49661 98.282 6.67045 101.184 9.89807C102.01 10.817 102.837 11.7344 103.666 12.6505C104.115 13.1432 104.828 12.3975 104.381 11.9057C101.461 8.69647 98.4769 5.5349 95.3303 2.56548C94.4349 1.7205 93.5234 0.894621 92.5959 0.0878467C92.2642 -0.200097 91.7838 0.286529 92.1159 0.588253V0.588329Z" fill="black"/>
<path d="M111.527 41.7055C111.534 41.7053 111.541 41.7022 111.546 41.6968C111.55 41.6915 111.553 41.6844 111.553 41.677C111.553 41.6695 111.55 41.6624 111.546 41.6571C111.541 41.6518 111.534 41.6487 111.527 41.6484C111.519 41.6487 111.513 41.6518 111.508 41.6571C111.503 41.6624 111.5 41.6695 111.5 41.677C111.5 41.6844 111.503 41.6915 111.508 41.6968C111.513 41.7022 111.519 41.7053 111.527 41.7055Z" fill="black"/>
<path d="M146.951 119.776L146.1 121.003C145.987 121.167 146.224 121.324 146.354 121.207C147.067 120.567 147.858 120.028 148.708 119.605L148.497 119.385C147.992 120.263 147.386 121.072 146.691 121.795L146.965 122.081C147.773 121.217 148.681 120.463 149.668 119.835L149.461 119.555C148.721 120.536 147.942 121.487 147.184 122.454C147.019 122.665 147.284 122.96 147.477 122.76C148.433 121.745 149.496 120.847 150.647 120.084L150.385 119.811C149.544 121 148.575 122.085 147.497 123.044L147.823 123.384C149.021 122.275 150.287 121.248 151.613 120.309L151.363 119.972C150.381 121.254 149.314 122.462 148.168 123.586L148.5 123.932C149.753 122.408 151.315 121.192 153.074 120.372L152.815 120.023C151.684 121.39 150.466 122.676 149.169 123.871C148.932 124.095 149.273 124.425 149.513 124.229C151.125 122.915 152.731 121.571 154.527 120.533L154.284 120.28C153.671 121.071 152.994 121.806 152.259 122.475C151.54 123.155 150.774 123.78 149.968 124.344L150.265 124.747C151.044 123.782 151.931 122.92 152.908 122.178C153.885 121.461 154.932 120.854 156.033 120.368L155.81 120.067C154.587 121.685 153.139 123.103 151.516 124.277L151.82 124.689C153.434 122.967 155.361 121.598 157.488 120.661L157.288 120.304C155.825 122.096 154.043 123.578 152.3 125.058L152.657 125.43C153.723 124.256 154.918 123.218 156.217 122.337C156.487 122.155 156.236 121.703 155.964 121.886C154.625 122.786 153.395 123.851 152.3 125.058C152.073 125.309 152.41 125.641 152.657 125.43C154.406 123.937 156.126 122.42 157.578 120.606C157.692 120.463 157.588 120.159 157.379 120.249C155.156 121.159 153.141 122.545 151.465 124.318C151.277 124.524 151.53 124.91 151.769 124.73C153.416 123.485 154.875 121.992 156.099 120.299C156.196 120.165 156.035 119.97 155.892 120.018C153.536 120.838 151.46 122.355 149.918 124.385C149.763 124.59 149.97 124.977 150.216 124.787C151.012 124.171 151.773 123.509 152.497 122.803C153.238 122.081 153.888 121.29 154.563 120.505C154.592 120.472 154.61 120.431 154.612 120.386C154.614 120.342 154.6 120.299 154.575 120.264C154.549 120.229 154.512 120.205 154.47 120.195C154.429 120.186 154.385 120.193 154.348 120.214C152.456 121.161 150.796 122.503 149.169 123.872L149.513 124.23C150.782 122.996 151.951 121.675 153.117 120.338C153.246 120.19 153.122 119.874 152.909 119.966C151.065 120.743 149.435 121.988 148.168 123.587C147.982 123.826 148.283 124.162 148.5 123.933C149.606 122.766 150.649 121.537 151.655 120.276C151.795 120.1 151.616 119.798 151.405 119.938C150.02 120.855 148.712 121.894 147.497 123.044C147.278 123.254 147.602 123.588 147.823 123.384C148.907 122.379 149.878 121.248 150.715 120.012C150.827 119.848 150.609 119.635 150.453 119.74C149.267 120.51 148.17 121.421 147.184 122.454L147.477 122.76C148.219 121.777 148.943 120.775 149.703 119.807C149.82 119.657 149.674 119.42 149.495 119.527C148.458 120.135 147.513 120.899 146.691 121.795C146.521 121.984 146.794 122.27 146.965 122.081C147.657 121.312 148.261 120.462 148.763 119.547C148.823 119.437 148.719 119.255 148.589 119.311C147.679 119.706 146.845 120.267 146.125 120.969L146.379 121.173L147.176 119.913C147.27 119.765 147.048 119.637 146.951 119.776L146.951 119.776Z" fill="black"/>
<path d="M158.433 120.724C156.936 121.979 155.419 123.209 153.913 124.452C153.654 124.665 154.019 125.042 154.275 124.83C156.014 123.389 157.767 121.976 159.847 121.114L159.618 120.703C158.845 121.379 158.019 121.998 157.22 122.64C156.434 123.273 155.653 123.912 154.854 124.527L155.201 124.996C155.736 124.471 156.301 123.98 156.892 123.525C157.482 123.082 158.116 122.714 158.712 122.283C158.901 122.146 158.791 121.766 158.543 121.866C157.84 122.174 157.177 122.573 156.568 123.052C155.94 123.51 155.347 124.019 154.797 124.574C154.53 124.848 154.922 125.237 155.201 124.996C155.965 124.335 156.748 123.697 157.525 123.053C158.315 122.398 159.089 121.709 159.904 121.089C160.104 120.937 159.996 120.546 159.722 120.639C157.527 121.39 155.681 122.957 153.913 124.452L154.275 124.83C155.731 123.533 157.175 122.224 158.64 120.939C158.785 120.812 158.578 120.603 158.433 120.724V120.724Z" fill="black"/>
<path d="M192.769 197.266C184.238 194.833 177.142 188.66 171.114 181.912C166.643 176.908 162.566 171.468 157.486 167.141C155.238 165.227 152.627 163.481 149.725 163.418C148.409 163.39 147.085 163.712 145.786 163.491C144.07 163.199 142.762 161.543 142.534 159.804C142.454 159.195 144.026 154.531 144.622 155.399C143.445 153.685 144.526 150.856 146.511 150.455C146.236 149.278 146.313 148.041 146.73 146.91C147.146 145.779 147.884 144.807 148.844 144.124C147.912 143.504 147.881 141.989 148.526 141.052C149.171 140.115 150.268 139.646 151.334 139.338C154.323 138.482 157.485 138.534 160.448 139.487C160.091 137.74 160.06 135.352 161.689 134.798C163.124 134.31 164.421 135.792 165.267 137.096C168.945 142.766 172.496 148.157 176.356 153.698C181.815 161.534 190.361 173.622 200.9 172.345C202.027 172.208 203.135 171.928 204.197 171.511" fill="white"/>
<path d="M174.734 92.305C188.952 88.99 203.447 93.4757 214.617 102.965C225.524 112.229 233.318 125.635 236.03 140.038C237.584 148.474 237.294 157.168 235.181 165.471C233.145 173.587 229.339 180.743 223.508 186.561C218.032 192.025 211.063 196.224 203.497 197.402C195.279 198.682 187.489 195.544 180.92 190.532C173.752 185.062 168.503 177.638 162.335 171.087C159.505 168.081 156.228 164.64 152.276 163.341C150.22 162.665 148.298 163.233 146.222 163.019C144.433 162.834 142.677 160.963 143.19 159.03C143.348 158.443 143.541 157.867 143.767 157.305C143.894 156.977 144.04 156.657 144.204 156.347C144.262 156.267 144.312 156.18 144.351 156.088C144.448 155.678 144.596 156.126 144.268 155.771C144.661 156.197 145.371 155.644 145.061 155.133C144.843 154.762 144.711 154.343 144.675 153.909C144.64 153.475 144.701 153.039 144.855 152.635C145.009 152.23 145.251 151.868 145.562 151.578C145.874 151.288 146.245 151.078 146.648 150.963C146.776 150.924 146.884 150.834 146.95 150.714C147.016 150.593 147.034 150.45 147.001 150.315C146.763 149.25 146.836 148.134 147.21 147.112C147.585 146.09 148.243 145.208 149.102 144.579C149.337 144.406 149.482 143.979 149.204 143.752C147.985 142.753 148.792 141.184 149.869 140.509C150.787 139.933 151.93 139.686 152.973 139.497C155.425 139.072 157.937 139.244 160.315 139.999C160.401 140.022 160.492 140.021 160.578 139.996C160.665 139.972 160.743 139.924 160.806 139.858C160.87 139.792 160.915 139.711 160.939 139.621C160.962 139.531 160.963 139.436 160.941 139.346C160.748 138.323 160.523 136.831 161.13 135.9C162.312 134.09 164.111 136.307 164.828 137.365C166.603 139.984 168.283 142.677 170.034 145.314C173 149.78 175.987 154.248 179.177 158.545C184.095 165.173 190.947 173.253 199.758 172.978C204.596 172.828 209.085 169.995 212.084 166.137C213.511 164.335 214.595 162.266 215.278 160.04C216.126 157.173 216.101 154.119 215.998 151.151C215.674 141.718 211.554 132.961 205.211 126.314C198.08 118.84 188.22 114.018 178.019 114.183C177.339 114.194 177.337 115.296 178.019 115.285C196.232 114.992 214.072 131.246 214.917 150.506C215.052 153.581 215.137 156.773 214.258 159.747C213.467 162.298 212.125 164.625 210.333 166.548C206.884 170.326 201.909 172.662 196.873 171.646C192.517 170.767 188.802 167.862 185.697 164.693C182.566 161.498 179.901 157.854 177.325 154.172C173.481 148.676 169.773 143.079 166.114 137.448C165.086 135.865 163.341 133.281 161.178 134.448C159.429 135.39 159.641 137.952 159.959 139.628L160.585 138.975C157.309 137.967 153.548 137.834 150.317 139.132C149.238 139.565 148.164 140.283 147.757 141.472C147.387 142.553 147.61 143.775 148.49 144.497L148.592 143.669C147.547 144.422 146.743 145.485 146.286 146.72C145.828 147.956 145.738 149.306 146.026 150.595L146.379 149.947C144.048 150.564 142.899 153.541 144.189 155.664L144.982 155.026C143.61 153.541 142.191 158.559 142.075 159.355C141.876 160.722 142.768 162.213 143.743 163.052C145.443 164.513 147.488 163.947 149.508 163.946C154.477 163.942 158.72 168.713 161.932 172.15C165.315 175.771 168.381 179.696 171.74 183.34C177.763 189.875 185.034 195.954 193.691 198.006C201.307 199.811 209.242 197.742 215.892 193.719C222.687 189.607 228.523 183.451 232.23 176.214C236.474 167.927 238.215 157.892 237.862 148.558C237.272 132.992 230.393 117.859 219.951 106.837C209.529 95.8351 195.031 88.9252 180.026 90.5746C178.178 90.781 176.343 91.1018 174.531 91.5353C174.05 91.6493 174.254 92.4171 174.734 92.305L174.734 92.305Z" fill="black"/>
<path d="M117.43 52.8695C107.429 51.301 97.3739 50.1952 87.2657 49.5524C85.5745 49.4448 83.8825 49.3496 82.1899 49.2667C81.5805 49.2651 80.9739 49.1818 80.3849 49.0188C79.9623 48.8808 79.5669 48.6603 79.1402 48.5372C77.6522 48.1083 76.044 48.9699 75.0809 50.2278C73.9461 51.7099 73.3101 53.7992 72.5013 55.4892C71.4961 57.5894 70.8909 60.051 70.3131 62.3102C69.1242 66.9533 68.4948 71.7328 68.4396 76.5382C68.4187 78.4447 68.5372 80.4989 69.6725 81.9937C71.0029 83.7452 73.3061 84.2165 75.3354 84.9344C75.6676 85.0519 75.9954 85.181 76.3214 85.3152C77.7283 85.8942 79.0842 86.6076 80.442 87.3062C89.6712 92.0527 99.2224 96.0858 109.019 99.373C115.534 85.3536 118.059 67.9043 117.43 52.8695Z" fill="white"/>
<path d="M117.569 52.3645C113.427 51.7157 109.275 51.1444 105.113 50.6507C100.976 50.161 96.8319 49.7498 92.6798 49.4171C90.5961 49.2502 88.5109 49.103 86.4245 48.9757C85.3975 48.9127 84.3703 48.8543 83.3429 48.8004C82.3606 48.7493 81.3048 48.8069 80.3664 48.4583C79.9537 48.271 79.5293 48.1132 79.0961 47.986C78.6745 47.8951 78.2409 47.8818 77.8149 47.9467C76.9788 48.0866 76.1937 48.4567 75.5405 49.0185C74.2049 50.12 73.5058 51.8561 72.8456 53.4405C72.4952 54.2812 72.1038 55.1011 71.7488 55.939C71.3714 56.8405 71.0427 57.7632 70.7643 58.703C70.1829 60.6347 69.6859 62.6083 69.2662 64.5847C68.3737 68.6934 67.9281 72.8938 67.9377 77.1065C67.9514 78.8505 68.1438 80.7431 69.181 82.1818C70.1719 83.5562 71.6809 84.2518 73.2054 84.7784C73.9807 85.0463 74.7683 85.276 75.5365 85.5661C76.4821 85.9231 77.4005 86.3502 78.3076 86.8016C80.1212 87.704 81.9139 88.6508 83.7326 89.5425C87.3645 91.3233 91.0431 92.9951 94.7687 94.5577C98.5057 96.1265 102.284 97.5826 106.103 98.926C107.029 99.2519 107.958 99.5711 108.889 99.8836C108.996 99.9139 109.11 99.9066 109.213 99.8629C109.316 99.8192 109.403 99.7414 109.459 99.6415C112.051 93.969 114.031 88.0145 115.364 81.8871C116.734 75.7036 117.579 69.4064 117.889 63.0684C118.06 59.6729 118.077 56.2742 117.94 52.8723C117.912 52.197 116.902 52.1934 116.93 52.8723C117.176 58.9828 116.926 65.1042 116.182 71.1707C115.442 77.399 114.134 83.5395 112.278 89.5095C111.254 92.7918 110.021 95.9991 108.587 99.1099L109.158 98.8679C105.416 97.6108 101.71 96.2464 98.0395 94.7746C94.3753 93.304 90.7531 91.7263 87.1728 90.0413C85.3905 89.2021 83.6198 88.3371 81.8605 87.446C80.0906 86.5495 78.3447 85.5913 76.5142 84.8325C75.0189 84.2127 73.4087 83.8769 71.9567 83.1474C71.2838 82.8302 70.6796 82.3742 70.1806 81.8068C69.6728 81.1643 69.3266 80.4001 69.1734 79.5831C68.7861 77.8004 68.9329 75.8687 69.0281 74.0601C69.1358 71.9996 69.3517 69.9468 69.6749 67.9109C70 65.8686 70.4456 63.8567 70.9569 61.8571C71.4266 60.0198 71.8991 58.1604 72.6432 56.4189C72.9866 55.6153 73.3615 54.828 73.6978 54.0205C74.0261 53.1902 74.399 52.3799 74.8149 51.5933C75.5664 50.2326 76.7866 48.9219 78.4095 48.9559C79.2891 48.9744 80.0558 49.5478 80.921 49.6835C81.9174 49.8398 82.9422 49.8313 83.9472 49.8857C85.9678 49.9949 87.9874 50.122 90.006 50.2671C94.0785 50.56 98.145 50.9285 102.206 51.3728C106.261 51.8164 110.308 52.3357 114.346 52.9305C115.331 53.0758 116.316 53.2257 117.3 53.3801C117.429 53.4127 117.565 53.3929 117.681 53.3245C117.796 53.2562 117.883 53.1445 117.922 53.0122C117.956 52.8776 117.939 52.7342 117.873 52.613C117.807 52.4918 117.698 52.4025 117.569 52.3645Z" fill="black"/>
<path d="M79.0726 50.3984C80.3443 54.8609 80.68 59.5565 80.0568 64.1663C79.4471 68.7745 77.9334 73.2023 75.6101 77.1738C74.3 79.3916 72.7339 81.4336 70.947 83.254C70.7143 83.4919 71.0694 83.8609 71.3042 83.6264C74.5449 80.3343 77.0455 76.3343 78.6261 71.9141C80.2272 67.5095 80.9221 62.8032 80.6657 58.1005C80.5186 55.463 80.0445 52.8565 79.2553 50.346C79.2175 50.226 79.0372 50.2759 79.0726 50.3985V50.3984Z" fill="black"/>
<path d="M77.304 49.3635C74.9918 51.7634 73.0546 54.5263 71.5629 57.5516C71.4527 57.7774 71.7443 58.0554 71.9195 57.8385C73.8924 55.3863 76.0964 53.1467 78.4982 51.1533L78.1704 50.8116C75.3534 54.1656 72.725 57.6868 70.2983 61.3575C70.1372 61.6007 70.5133 61.9094 70.695 61.6766C72.0278 59.9695 73.4372 58.3322 74.9232 56.7648C76.4102 55.199 77.9842 53.7385 79.5764 52.2916L79.2499 51.9512C76.4042 55.1951 73.8639 58.7165 71.664 62.4668C71.0329 63.5478 70.4311 64.6464 69.8586 65.7627C69.8275 65.8229 69.82 65.8933 69.8377 65.9591C69.8554 66.0249 69.8969 66.0809 69.9535 66.1154C70.0101 66.1499 70.0773 66.1601 70.1409 66.1439C70.2046 66.1277 70.2598 66.0863 70.2948 66.0285C72.8581 62.19 75.8631 58.6317 79.4922 55.8511L79.2853 55.5714C76.3009 58.9117 73.5781 62.496 71.143 66.2898C70.4417 67.3692 69.7618 68.4631 69.1033 69.5716C68.9539 69.8226 69.3233 70.1372 69.505 69.8948C71.9047 66.6933 74.3052 63.4741 77.1027 60.6333C77.8914 59.8324 78.7099 59.063 79.5656 58.3405L79.206 57.9656C76.1448 61.5899 73.2823 65.3915 70.6322 69.3523C69.8849 70.4686 69.1548 71.597 68.4419 72.7377C68.2615 73.0259 68.6874 73.3794 68.905 73.1103C71.6165 69.7442 74.5467 66.5764 77.6749 63.6293C78.5595 62.7992 79.4581 61.9854 80.3706 61.1879L79.9984 60.7999C77.0848 64.5808 74.1752 68.3617 71.3479 72.2138C70.5405 73.3138 69.7362 74.4162 68.9349 75.5211L69.4391 75.8284C71.7112 72.2536 74.4076 68.9926 77.4642 66.123C78.3486 65.2962 79.2618 64.5046 80.2039 63.7483L79.7922 63.502C79.9003 64.6075 79.2658 65.5508 78.6345 66.3737C77.8887 67.3457 77.128 68.3058 76.3746 69.2715C74.8643 71.2072 73.3539 73.1429 71.8433 75.0784L69.2822 78.349L69.7705 78.7417C72.1147 75.1137 75.1095 71.9922 78.5899 69.549L78.1921 69.1342C76.0953 73.0626 73.4615 76.652 70.3734 79.7896L70.8131 80.2481C72.395 78.0986 74.3567 76.2845 76.5925 74.9035L76.1689 74.5642C75.1787 77.4309 73.6422 80.0591 71.6521 82.2905C71.4076 82.5662 71.8029 82.9804 72.0483 82.7036C74.0899 80.386 75.6784 77.6755 76.7249 74.724C76.8165 74.4682 76.5055 74.2635 76.3014 74.3847C73.9725 75.7647 71.9387 77.6263 70.3248 79.8552C70.1087 80.1556 70.5689 80.4994 70.8131 80.2481C73.9155 77.0507 76.5688 73.4121 78.6942 69.4402C78.8298 69.1876 78.548 68.8518 78.2963 69.0255C74.6994 71.4864 71.6168 74.6801 69.2336 78.4145C69.0432 78.7171 69.4987 79.0965 69.7219 78.8072C72.8273 74.7795 75.9817 70.7894 79.053 66.7334C79.7533 65.8086 80.4564 64.7385 80.3394 63.5017C80.3217 63.3145 80.1104 63.1099 79.9276 63.2554C76.5804 65.9181 73.5803 69.0242 71.0029 72.4952C70.2758 73.476 69.5864 74.4846 68.9347 75.5211C68.7249 75.8554 69.2201 76.1358 69.439 75.8284C72.1963 71.9577 75.0187 68.1387 77.9061 64.3714C78.7215 63.3052 79.5378 62.2394 80.3705 61.188C80.4171 61.136 80.4425 61.0671 80.4413 60.996C80.4401 60.9248 80.4125 60.8569 80.3642 60.8066C80.316 60.7563 80.2508 60.7274 80.1826 60.7262C80.1143 60.725 80.0483 60.7514 79.9984 60.8C76.7376 63.5878 73.6767 66.6203 70.8399 69.8733C70.0376 70.7904 69.2537 71.7245 68.4879 72.6756L68.9511 73.0482C71.4382 69.0322 74.1386 65.1642 77.0397 61.4623C77.8663 60.4084 78.7082 59.3679 79.5655 58.3408C79.6104 58.2905 79.6349 58.224 79.6337 58.1553C79.6325 58.0866 79.6058 58.0211 79.5592 57.9725C79.5126 57.9239 79.4498 57.896 79.3839 57.8948C79.318 57.8936 79.2542 57.9191 79.206 57.9659C76.1852 60.5514 73.6185 63.6217 71.1892 66.7993C70.5006 67.7 69.8186 68.6062 69.1433 69.5178L69.545 69.841C71.836 65.9767 74.3736 62.2774 77.1407 58.768C77.9216 57.7738 78.7214 56.7961 79.5267 55.8233C79.5578 55.7897 79.5749 55.7447 79.5744 55.6981C79.574 55.6514 79.556 55.6068 79.5244 55.5738C79.4927 55.5409 79.45 55.5221 79.4052 55.5217C79.3605 55.5212 79.3173 55.5391 79.2851 55.5714C75.7481 58.5369 72.4606 61.8661 69.8584 65.7627L70.2946 66.0285C72.2747 62.1748 74.6008 58.5254 77.2415 55.1294C77.9945 54.1614 78.7728 53.2154 79.5765 52.2915C79.6172 52.2458 79.6395 52.1855 79.6384 52.1231C79.6373 52.0607 79.6131 52.0012 79.5708 51.957C79.5284 51.9129 79.4714 51.8876 79.4115 51.8865C79.3517 51.8854 79.2938 51.9086 79.25 51.9511C75.9512 54.6742 72.99 57.9073 70.3378 61.3041L70.7345 61.6232C73.1436 57.993 75.7351 54.4981 78.4982 51.1532C78.5404 51.1076 78.5637 51.0466 78.5632 50.9832C78.5626 50.9199 78.5382 50.8593 78.4953 50.8145C78.4523 50.7697 78.3942 50.7443 78.3334 50.7437C78.2727 50.7432 78.2141 50.7675 78.1704 50.8115C75.7794 52.8179 73.5787 55.0589 71.5984 57.5036L71.955 57.7905C73.4072 54.7803 75.2689 52.0047 77.4826 49.5497C77.5942 49.4267 77.4193 49.2431 77.304 49.3635V49.3635Z" fill="black"/>
<path d="M109.879 57.443C110.874 63.4124 111.308 70.226 107.588 75.3381C106.792 76.416 105.828 77.3466 104.735 78.0909C103.725 78.7929 102.644 79.4516 101.89 80.4682C101.027 81.6316 100.935 83.0579 100.663 84.4474C100.425 85.7721 99.7507 86.9683 98.7558 87.8287C96.1562 90.0928 92.548 89.8623 89.3822 89.6456C89.0947 89.626 89.0984 90.0868 89.3822 90.1106C92.3246 90.3566 95.4926 90.5674 98.1305 88.9262C99.2218 88.2793 100.105 87.3106 100.67 86.1418C101.277 84.8 101.216 83.2855 101.693 81.9053C102.166 80.5318 103.314 79.6915 104.428 78.9073C105.534 78.1774 106.539 77.291 107.412 76.2733C109.132 74.1567 110.158 71.4882 110.588 68.7673C111.186 64.9837 110.683 61.1382 110.02 57.4027C110.003 57.3062 109.863 57.3474 109.879 57.4432L109.879 57.443Z" fill="black"/>
<path d="M113.664 56.409C112.233 57.9188 110.797 59.4228 109.356 60.921C109.185 61.099 109.452 61.3781 109.621 61.1974C111.04 59.6755 112.463 58.1579 113.89 56.6446C114.034 56.4917 113.809 56.2561 113.664 56.4089V56.409Z" fill="black"/>
<path d="M117.126 56.4233C114.392 58.7313 111.851 61.2786 109.532 64.0374C109.363 64.2384 109.648 64.5344 109.814 64.3312C112.097 61.5399 114.613 58.9655 117.333 56.6385C117.479 56.514 117.271 56.3011 117.126 56.4233Z" fill="black"/>
<path d="M116.435 59.9673C115.201 61.1192 113.967 62.2703 112.732 63.4207C111.496 64.5673 110.233 65.6896 109.036 66.8807C108.835 67.0807 109.131 67.3784 109.337 67.1949C110.595 66.0752 111.795 64.8803 113.015 63.7154C114.235 62.5497 115.459 61.3877 116.686 60.2292C116.856 60.0683 116.605 59.8089 116.435 59.9674L116.435 59.9673Z" fill="black"/>
<path d="M116.641 62.2139C113.766 64.9948 110.86 67.742 107.993 70.5323C107.79 70.7297 108.094 71.0463 108.297 70.8494C111.163 68.0603 113.99 65.2278 116.848 62.4292C116.985 62.2946 116.779 62.0808 116.641 62.2139Z" fill="black"/>
<path d="M115.784 66.4992C111.92 70.2027 108.043 73.891 104.152 77.564C103.928 77.7759 104.263 78.1255 104.484 77.9102C108.32 74.1775 112.163 70.4534 116.013 66.7378C116.167 66.5902 115.938 66.3524 115.784 66.4992Z" fill="black"/>
<path d="M112.156 73.2973C109.026 76.2761 105.711 79.0365 102.233 81.5605C102.035 81.7051 102.221 82.0461 102.424 81.9016C105.937 79.3734 109.263 76.572 112.371 73.5213C112.515 73.3817 112.3 73.1595 112.156 73.2973Z" fill="black"/>
<path d="M115.356 72.3529C111.728 75.771 107.868 78.9107 103.806 81.7474C102.658 82.5495 101.493 83.3229 100.322 84.0873C100.047 84.2668 100.3 84.7226 100.577 84.5421C104.718 81.8048 108.673 78.7723 112.413 75.4663C113.486 74.5279 114.542 73.5677 115.579 72.5856C115.73 72.4429 115.506 72.211 115.356 72.3529H115.356Z" fill="black"/>
<path d="M115.547 75.0158C111.419 78.4856 107.099 81.7242 102.674 84.7688C102.088 85.1715 101.507 85.5865 100.903 85.9583C100.306 86.3751 99.6098 86.61 98.8922 86.6363C98.8267 86.6387 98.7648 86.6675 98.7193 86.7167C98.6738 86.7658 98.6484 86.8314 98.6484 86.8996C98.6484 86.9679 98.6738 87.0335 98.7193 87.0826C98.7648 87.1317 98.8267 87.1605 98.8922 87.1629C100.16 87.1846 101.224 86.3797 102.236 85.6835C103.38 84.8968 104.514 84.0956 105.639 83.2799C107.856 81.6729 110.03 80.0049 112.16 78.2758C113.38 77.2863 114.591 76.285 115.793 75.2719C115.966 75.1249 115.719 74.871 115.547 75.0158H115.547Z" fill="black"/>
<path d="M113.845 79.5444C109.695 82.9662 105.219 85.9347 100.487 88.4029C99.1505 89.0992 97.7666 89.7033 96.4506 90.4391C96.2549 90.5486 96.3885 90.8978 96.6042 90.8189C97.8491 90.328 99.061 89.7505 100.232 89.0903C101.416 88.4601 102.584 87.7989 103.736 87.1068C106.056 85.7133 108.315 84.2045 110.493 82.5818C111.706 81.6782 112.894 80.7394 114.057 79.7654C114.208 79.6391 113.994 79.4211 113.845 79.5443V79.5444Z" fill="black"/>
<path d="M109.582 84.5009C106.211 86.8578 102.682 88.9586 99.021 90.787C97.972 91.3098 96.9096 91.7997 95.848 92.2936L96.0592 92.6702C96.2366 92.529 96.4139 92.3878 96.5911 92.2463C96.7556 92.1155 96.6144 91.8333 96.4238 91.9479C96.2319 92.0633 96.04 92.1785 95.848 92.2936C95.608 92.438 95.8187 92.7767 96.0592 92.6702C99.784 90.9891 103.38 89.0142 106.817 86.7627C107.805 86.1243 108.78 85.4651 109.742 84.7851C109.909 84.6671 109.752 84.3825 109.582 84.5009H109.582Z" fill="black"/>
<path d="M113.432 84.0829C109.813 87.2976 105.895 90.1271 101.737 92.5294C100.563 93.2107 99.3464 93.8102 98.1734 94.4915C97.904 94.648 98.141 95.029 98.4085 94.9107C99.5009 94.3995 100.567 93.8287 101.602 93.2007C102.648 92.5953 103.679 91.9626 104.695 91.3028C106.71 89.9919 108.658 88.5726 110.531 87.0507C111.605 86.1793 112.657 85.2782 113.686 84.3476C113.861 84.1896 113.606 83.927 113.432 84.0828L113.432 84.0829Z" fill="black"/>
<path d="M110.218 88.7586C108.515 89.8635 106.791 90.9318 105.046 91.9635C104.19 92.4688 103.328 92.962 102.459 93.4431C101.56 93.9439 100.621 94.3916 99.7417 94.9283L100.093 95.2096C100.121 95.0278 100.208 94.8616 100.339 94.7385C100.471 94.6155 100.638 94.543 100.815 94.5331C100.857 94.5315 100.896 94.513 100.925 94.4816C100.954 94.4501 100.971 94.4081 100.971 94.3644C100.971 94.3207 100.954 94.2788 100.925 94.2473C100.896 94.2158 100.857 94.1974 100.815 94.1957C100.55 94.1752 100.286 94.2522 100.07 94.4132C99.8541 94.5743 99.699 94.8092 99.6319 95.0772C99.6208 95.1247 99.6231 95.1745 99.6387 95.2206C99.6542 95.2668 99.6823 95.3072 99.7195 95.337C99.7567 95.3668 99.8014 95.3847 99.8481 95.3885C99.8949 95.3923 99.9417 95.3819 99.9829 95.3584C100.89 94.9271 101.76 94.3755 102.63 93.8702C103.507 93.3617 104.378 92.8449 105.245 92.3197C106.982 91.2729 108.697 90.1889 110.391 89.0677C110.577 88.9447 110.406 88.6363 110.218 88.7586Z" fill="black"/>
<path d="M109.139 91.5407C108.337 92.2493 107.498 92.9111 106.626 93.5231C106.21 93.8144 105.788 94.098 105.355 94.3612C105.125 94.5012 104.893 94.6377 104.659 94.7705C104.549 94.8331 104.439 94.8965 104.327 94.9562C104.282 94.9725 104.238 94.9936 104.196 95.0193C104.14 95.0268 104.141 95.0624 104.199 95.1262C104.276 95.2553 104.227 95.2766 104.053 95.19C104.072 95.2222 104.101 95.2472 104.135 95.2611C104.168 95.275 104.206 95.2772 104.241 95.2673C104.276 95.2573 104.307 95.2359 104.329 95.2061C104.352 95.1762 104.365 95.1396 104.365 95.1017C104.327 94.5699 103.493 95.0914 103.973 95.44C104.237 95.6313 104.543 95.4014 104.77 95.2592C105.092 95.0572 105.41 94.8467 105.726 94.6339C107.004 93.7762 108.218 92.8179 109.357 91.7675C109.506 91.6294 109.289 91.4085 109.139 91.5406V91.5407Z" fill="black"/>
<path d="M108.908 94.4514L107.611 95.5754C107.58 95.6084 107.562 95.6528 107.562 95.6991C107.563 95.7453 107.58 95.7897 107.611 95.8227C107.643 95.8546 107.685 95.8724 107.73 95.8724C107.774 95.8724 107.816 95.8546 107.848 95.8227L109.142 94.6957C109.173 94.6632 109.19 94.6193 109.19 94.5736C109.19 94.5278 109.173 94.484 109.142 94.4514C109.111 94.4199 109.069 94.4023 109.025 94.4023C108.982 94.4023 108.94 94.4199 108.908 94.4514H108.908Z" fill="black"/>
<path d="M103.678 58.9519L104.543 58.7308C104.565 58.7244 104.586 58.7135 104.604 58.6987C104.622 58.6839 104.637 58.6656 104.649 58.6446C104.66 58.6237 104.667 58.6007 104.67 58.5768C104.673 58.553 104.671 58.5287 104.665 58.5055C104.659 58.4824 104.649 58.4607 104.634 58.4417C104.62 58.4227 104.603 58.4068 104.583 58.395C104.563 58.3831 104.54 58.3755 104.518 58.3725C104.495 58.3695 104.471 58.3713 104.449 58.3777L103.587 58.6068C103.543 58.6198 103.506 58.6501 103.484 58.6913C103.461 58.7325 103.455 58.7812 103.467 58.8269C103.48 58.8722 103.509 58.9104 103.548 58.9338C103.588 58.9571 103.634 58.9636 103.678 58.9519V58.9519Z" fill="black"/>
<path d="M104.494 62.7726L104.926 62.7747C104.968 62.7741 105.008 62.7563 105.037 62.7251C105.067 62.6939 105.083 62.6519 105.083 62.608C105.083 62.5642 105.067 62.5221 105.037 62.4909C105.008 62.4597 104.968 62.442 104.926 62.4414L104.494 62.4435C104.473 62.4435 104.453 62.4477 104.433 62.456C104.414 62.4643 104.397 62.4764 104.382 62.4917C104.368 62.5069 104.356 62.5251 104.348 62.545C104.34 62.565 104.336 62.5864 104.336 62.608C104.336 62.6296 104.34 62.651 104.348 62.671C104.356 62.6909 104.368 62.7091 104.382 62.7243C104.397 62.7396 104.414 62.7517 104.433 62.76C104.453 62.7683 104.473 62.7725 104.494 62.7725V62.7726Z" fill="black"/>
<path d="M81.8839 51.8528C82.2651 53.1527 82.4735 54.501 82.5034 55.86C82.505 55.9091 82.5249 55.9555 82.5587 55.9896C82.5926 56.0237 82.6378 56.0428 82.6849 56.0428C82.732 56.0428 82.7772 56.0237 82.8111 55.9896C82.8449 55.9555 82.8648 55.9091 82.8664 55.86C82.8827 54.4633 82.6608 53.0746 82.2111 51.7588C82.1402 51.5458 81.8178 51.6336 81.8839 51.8528Z" fill="black"/>
<path d="M84.8844 53.1045L84.6666 54.0044C84.6537 54.0547 84.6603 54.1084 84.6852 54.1536C84.7101 54.1989 84.7511 54.2321 84.7993 54.2459C84.8475 54.2598 84.899 54.2532 84.9426 54.2276C84.9862 54.202 85.0183 54.1595 85.0319 54.1094L85.2459 53.2084C85.2525 53.1836 85.2543 53.1578 85.2512 53.1323C85.2482 53.1068 85.2404 53.0822 85.2282 53.0599C85.2161 53.0376 85.1998 53.018 85.1804 53.0022C85.1609 52.9864 85.1387 52.9748 85.115 52.968C85.0913 52.9611 85.0665 52.9593 85.042 52.9624C85.0176 52.9656 84.994 52.9738 84.9726 52.9864C84.9512 52.9991 84.9324 53.0161 84.9172 53.0363C84.9021 53.0566 84.8909 53.0797 84.8844 53.1045V53.1045Z" fill="black"/>
<path d="M77.8422 82.0941L80.4484 78.7336C80.6025 78.5349 80.33 78.2508 80.1777 78.4514L77.6022 81.8439C77.4685 82.02 77.7042 82.272 77.8422 82.0941Z" fill="black"/>
<path d="M83.0818 82.6411L83.0857 82.416C83.0844 82.3652 83.0645 82.3168 83.03 82.2808C82.9955 82.2448 82.949 82.224 82.9003 82.2227C82.8511 82.2229 82.804 82.2432 82.7691 82.2792C82.7348 82.3158 82.7153 82.3648 82.7148 82.416L82.7188 82.641C82.7195 82.6911 82.7385 82.7389 82.772 82.7749C82.8071 82.8086 82.8526 82.8283 82.9003 82.8303C82.9484 82.8301 82.9944 82.8102 83.0286 82.7749C83.0617 82.7388 83.0807 82.691 83.0817 82.641L83.0818 82.6411Z" fill="black"/>
<path d="M98.4899 105.616C98.6683 107.142 98.4314 108.689 97.8062 110.081C97.1811 111.473 96.1929 112.653 94.9547 113.487C94.267 113.942 93.5184 114.31 92.9067 114.88C92.4213 115.373 92.0139 115.944 91.6998 116.57C91.3366 117.224 90.9949 117.912 90.4812 118.457C89.8744 119.045 89.1065 119.421 88.2846 119.533C87.2357 119.707 86.179 119.826 85.1186 119.889C84.0211 119.98 82.922 120.049 81.8213 120.096C81.7885 120.098 81.7575 120.112 81.7347 120.137C81.7119 120.161 81.6992 120.194 81.6992 120.228C81.6992 120.262 81.7119 120.295 81.7347 120.32C81.7575 120.344 81.7885 120.359 81.8213 120.36C83.8435 120.334 85.8629 120.192 87.8702 119.934C88.6647 119.826 89.4802 119.649 90.159 119.182C90.7388 118.744 91.2178 118.177 91.5614 117.522C91.9563 116.842 92.2943 116.113 92.7972 115.51C93.3924 114.796 94.2071 114.423 94.9822 113.969C96.285 113.196 97.3344 112.032 97.9942 110.628C98.7492 109.072 98.9993 107.303 98.7069 105.586C98.6842 105.46 98.4738 105.487 98.4899 105.616V105.616Z" fill="black"/>
<path d="M84.4404 118.07C88.3627 116.832 91.8234 114.363 94.3505 111C94.3843 110.954 94.3086 110.893 94.273 110.938C91.7098 114.225 88.2785 116.656 84.4037 117.931C84.319 117.959 84.3551 118.097 84.4404 118.07V118.07Z" fill="black"/>
<path d="M94.0115 106.09C94.4248 107.228 94.4189 108.485 93.995 109.619C93.9254 109.81 94.2174 109.89 94.288 109.703C94.7207 108.515 94.6994 107.199 94.2284 106.027C94.1747 105.89 93.9581 105.948 94.0114 106.09H94.0115Z" fill="black"/>
<path d="M61.3109 118.458C63.345 113.581 66.229 108.747 70.932 106.284C72.1966 105.617 73.5575 105.172 74.9604 104.965C75.1368 104.94 75.0969 104.614 74.9179 104.638C69.6731 105.334 65.6716 109.459 63.1455 114.05C62.3919 115.439 61.719 116.874 61.1304 118.348C61.0786 118.475 61.2572 118.587 61.311 118.458H61.3109Z" fill="black"/>
<path d="M77.8879 104.248C78.1565 104.287 78.4302 104.258 78.6857 104.163C78.9412 104.069 79.1709 103.911 79.3552 103.703C79.3723 103.686 79.3859 103.665 79.3952 103.642C79.4045 103.619 79.4094 103.594 79.4095 103.569C79.4096 103.544 79.405 103.519 79.3959 103.496C79.3867 103.473 79.3733 103.452 79.3563 103.434C79.3394 103.417 79.3192 103.403 79.2971 103.393C79.2749 103.384 79.2511 103.379 79.2271 103.379C79.2032 103.379 79.1794 103.384 79.1573 103.394C79.1353 103.404 79.1152 103.418 79.0984 103.436C79.0269 103.516 78.946 103.586 78.8578 103.646C78.8099 103.678 78.7604 103.707 78.7095 103.734C78.6672 103.757 78.6233 103.776 78.5781 103.793C78.5276 103.811 78.4763 103.827 78.4242 103.841C78.395 103.848 78.3655 103.855 78.3359 103.861C78.3227 103.863 78.3095 103.866 78.2963 103.868C78.2635 103.874 78.3191 103.865 78.2861 103.87C78.1697 103.882 78.0525 103.886 77.9356 103.88C77.8924 103.88 77.8509 103.897 77.8185 103.927C77.7862 103.957 77.7652 103.998 77.7594 104.042C77.7536 104.087 77.7634 104.132 77.787 104.17C77.8106 104.207 77.8464 104.235 77.8878 104.248L77.8879 104.248Z" fill="black"/>
<path d="M123.626 102.221C123.913 105.17 125.716 107.691 128.016 109.332C129.326 110.285 130.817 110.936 132.389 111.241C134.168 111.559 135.865 111.2 137.576 110.689C139.653 110.068 141.732 109.443 143.793 108.763C143.819 108.755 143.84 108.737 143.853 108.712C143.865 108.688 143.868 108.66 143.861 108.633C143.854 108.606 143.837 108.583 143.815 108.569C143.792 108.555 143.764 108.551 143.739 108.557C141.957 109.054 140.189 109.605 138.417 110.142C136.758 110.644 135.079 111.17 133.331 111.014C130.399 110.752 127.471 109.037 125.657 106.633C124.677 105.366 124.057 103.837 123.866 102.221C123.85 102.063 123.61 102.06 123.626 102.221H123.626Z" fill="black"/>
<path d="M150.036 108.135L151.331 108.362C151.403 108.375 151.434 108.26 151.361 108.247L150.065 108.024C149.996 108.012 149.966 108.123 150.036 108.135Z" fill="black"/>
<path d="M157.605 111.571C159.671 111.771 161.501 112.844 163.375 113.679C164.298 114.103 165.262 114.421 166.251 114.628C167.32 114.84 168.407 114.94 169.491 115.042C169.64 115.056 169.639 114.814 169.491 114.799C168.35 114.712 167.215 114.554 166.092 114.324C165.08 114.085 164.091 113.748 163.138 113.318C161.343 112.53 159.577 111.575 157.605 111.403C157.501 111.394 157.502 111.561 157.605 111.571H157.605Z" fill="black"/>
<path d="M172.757 114.68L176.241 112.933C176.338 112.884 176.253 112.728 176.155 112.78L172.713 114.602C172.663 114.628 172.707 114.705 172.757 114.68Z" fill="black"/>
<path d="M176.173 111.548C176.198 111.547 176.221 111.537 176.238 111.518C176.255 111.5 176.265 111.475 176.265 111.45C176.265 111.424 176.255 111.4 176.238 111.381C176.221 111.363 176.198 111.352 176.173 111.352C176.149 111.352 176.126 111.363 176.109 111.381C176.092 111.4 176.082 111.424 176.082 111.45C176.082 111.475 176.092 111.5 176.109 111.518C176.126 111.537 176.149 111.547 176.173 111.548Z" fill="black"/>
<path d="M127.903 39.2381C129.737 44.5009 130.728 50.0426 130.836 55.6409C130.866 57.2148 130.83 58.7879 130.726 60.3601C130.711 60.5818 131.044 60.5815 131.058 60.3601C131.399 54.7687 130.852 49.157 129.44 43.7512C129.038 42.2125 128.571 40.695 128.04 39.1987C128.009 39.1103 127.872 39.1481 127.903 39.2381H127.903Z" fill="black"/>
<path d="M133.272 55.4027L133.27 56.3031C133.27 56.3467 133.286 56.3886 133.316 56.4194C133.345 56.4503 133.385 56.4676 133.427 56.4676C133.469 56.4676 133.509 56.4503 133.539 56.4194C133.569 56.3886 133.585 56.3467 133.585 56.3031L133.583 55.4027C133.583 55.3599 133.566 55.3191 133.537 55.2891C133.508 55.259 133.468 55.2422 133.427 55.2422C133.386 55.2422 133.347 55.259 133.318 55.2891C133.289 55.3191 133.272 55.3599 133.271 55.4027H133.272Z" fill="black"/>
<path d="M163.513 132.092C163.747 130.969 163.989 129.848 164.22 128.724L164.555 127.1C164.635 126.577 164.748 126.059 164.892 125.551C165.095 124.96 165.651 124.898 166.174 124.826C166.69 124.755 167.208 124.694 167.726 124.645C168.803 124.543 169.883 124.488 170.965 124.48C171.831 124.473 172.839 124.402 173.622 124.861C174.44 125.342 174.584 126.31 174.465 127.204C174.335 128.179 173.982 129.125 173.7 130.061C173.376 131.14 173.049 132.219 172.722 133.297C171.971 135.756 171.185 138.208 170.482 140.683C170.399 140.974 170.826 141.092 170.916 140.807C171.659 138.458 172.325 136.08 173.023 133.715C173.372 132.532 173.724 131.35 174.079 130.169C174.376 129.176 174.747 128.174 174.863 127.134C174.959 126.275 174.819 125.343 174.151 124.758C173.484 124.175 172.567 124.097 171.733 124.085C170.576 124.069 169.418 124.114 168.265 124.209C167.686 124.257 167.108 124.318 166.532 124.393C166.077 124.452 165.565 124.469 165.149 124.689C164.715 124.918 164.563 125.367 164.474 125.836C164.344 126.521 164.223 127.209 164.098 127.895C163.845 129.278 163.603 130.663 163.353 132.046C163.334 132.154 163.49 132.202 163.513 132.092L163.513 132.092Z" fill="black"/>
<path d="M149.9 144.174C151.431 143.603 153.054 143.35 154.679 143.427C154.975 143.441 154.976 142.954 154.679 142.946C153.015 142.9 151.36 143.209 149.815 143.853C149.627 143.931 149.703 144.248 149.9 144.174H149.9Z" fill="black"/>
<path d="M147.813 150.883C148.719 150.656 149.64 150.498 150.568 150.409C150.635 150.408 150.698 150.379 150.745 150.33C150.792 150.281 150.819 150.215 150.821 150.146C150.82 150.076 150.794 150.01 150.746 149.96C150.699 149.911 150.635 149.883 150.568 149.883C149.597 149.977 148.636 150.171 147.702 150.463C147.65 150.48 147.606 150.517 147.58 150.566C147.554 150.616 147.548 150.674 147.562 150.729C147.577 150.784 147.611 150.83 147.658 150.859C147.704 150.888 147.76 150.896 147.813 150.883Z" fill="black"/>
<path d="M146.34 156.566C147.045 156.496 147.75 156.425 148.454 156.353C148.507 156.352 148.557 156.329 148.594 156.291C148.631 156.252 148.652 156.2 148.654 156.145C148.653 156.09 148.632 156.038 148.595 155.999C148.558 155.96 148.507 155.938 148.454 155.938C147.749 156.027 147.044 156.117 146.34 156.208C146.295 156.209 146.252 156.229 146.22 156.262C146.188 156.295 146.169 156.34 146.168 156.387C146.168 156.434 146.186 156.48 146.219 156.513C146.251 156.547 146.294 156.566 146.34 156.566Z" fill="black"/>
<path d="M120.311 108.056C120.79 109.704 121.61 111.223 122.712 112.506C123.814 113.789 125.173 114.804 126.692 115.48C127.556 115.86 128.468 116.104 129.4 116.205C129.545 116.222 129.58 115.962 129.435 115.938C127.848 115.681 126.332 115.074 124.989 114.156C123.646 113.238 122.506 112.032 121.647 110.617C121.162 109.799 120.785 108.917 120.525 107.995C120.516 107.966 120.497 107.942 120.472 107.928C120.447 107.914 120.417 107.91 120.39 107.918C120.362 107.926 120.339 107.945 120.324 107.971C120.309 107.996 120.305 108.027 120.312 108.056L120.311 108.056Z" fill="black"/>
<path d="M133.1 117.126C133.141 117.125 133.181 117.107 133.21 117.076C133.239 117.044 133.255 117.003 133.255 116.96C133.255 116.916 133.239 116.875 133.21 116.844C133.181 116.813 133.141 116.794 133.1 116.793C133.059 116.794 133.019 116.813 132.99 116.844C132.961 116.875 132.945 116.916 132.945 116.96C132.945 117.003 132.961 117.044 132.99 117.076C133.019 117.107 133.059 117.125 133.1 117.126Z" fill="black"/>
<path d="M63.4037 128.969C58.0524 132.438 51.845 134.926 45.4974 133.302C40.1158 131.925 35.445 128.116 32.3417 123.394C25.725 113.327 26.1495 99.7257 28.395 88.2747C29.5769 82.2472 31.3056 76.2249 33.7428 70.6151C35.117 67.452 36.7072 64.398 38.2884 61.344C39.0043 59.9614 39.72 58.5785 40.4145 57.184C41.1848 55.6373 42.0496 54.0318 42.3018 52.2842C42.4397 51.3293 42.484 50.0478 41.7462 49.3211C41.0275 48.6131 39.8506 48.6941 38.973 48.9303C36.726 49.5351 35.0662 51.6347 33.7528 53.5004C33.3986 54.0035 32.9709 54.9471 32.3215 55.0833C31.6652 55.221 30.6638 54.3909 30.0938 54.1254C28.7764 53.5155 27.4003 53.0539 25.989 52.7484C23.03 52.143 20.0006 52.0044 17.0022 52.3373C14.8993 52.5437 12.5352 52.9477 11.1562 54.7946C10.468 55.7637 10.0262 56.8986 9.87187 58.0936C9.64638 59.6222 10.0096 60.7581 10.2527 62.2225C10.5295 63.8902 9.37602 65.755 8.82883 67.2858C8.17963 69.1019 7.56536 70.931 6.98603 72.7731C5.9462 76.0719 5.007 79.4026 4.16845 82.7654C1.04162 95.1931 -0.650726 108.193 1.8759 120.912C5.67097 140.016 18.7688 157.139 37.5796 161.412C56.4901 165.707 77.6688 156.483 88.909 140.24C90.3824 138.107 91.6727 135.843 92.765 133.474C93.0317 132.897 92.2048 132.389 91.9369 132.969C83.4911 151.262 62.7669 163.027 43.4607 161.3C34.0848 160.451 25.2374 156.408 18.284 149.796C11.4118 143.259 6.58433 134.605 3.97998 125.332C0.6559 113.496 1.21231 100.946 3.75265 89.0038C5.16649 82.3552 6.97719 75.805 9.17418 69.3917C9.6973 67.8659 10.2489 66.3516 10.817 64.8434C11.0518 64.2201 11.3416 63.5894 11.3584 62.9059C11.3765 62.1649 11.0723 61.4836 10.9283 60.772C10.6119 59.1932 10.831 57.5488 11.5482 56.1198C12.2878 54.6953 13.5526 54.0507 15.0171 53.7077C17.816 53.0521 20.9393 53.0832 23.7739 53.4413C25.26 53.6231 26.7238 53.9659 28.1417 54.4642C28.8932 54.7296 29.6262 55.0491 30.3352 55.4205C30.8494 55.6917 31.3538 56.0745 31.9391 56.1478C32.7403 56.2483 33.3624 55.7646 33.8531 55.1559C34.6439 54.1752 35.2926 53.0914 36.1383 52.1519C37.0349 51.1556 38.0975 50.2069 39.412 49.914C39.753 49.8381 40.5827 49.7117 40.8869 49.9875C41.2198 50.2893 41.345 51.255 41.3415 51.6849C41.3322 52.815 40.8014 53.9697 40.3463 54.9693C37.6402 60.914 34.2047 66.4548 31.8294 72.5719C29.7547 77.9504 28.1943 83.5292 27.171 89.2273C25.2175 100.013 24.9519 112.36 30.3841 122.169C32.8664 126.65 36.6062 130.497 41.0962 132.754C45.7268 135.101 51.0563 135.458 55.9373 133.749C58.7309 132.8 61.3437 131.345 63.8279 129.726C64.2855 129.428 63.8649 128.67 63.4036 128.969L63.4037 128.969Z" fill="black"/>
<path d="M30.7472 66.7353C30.4272 64.1036 29.4718 60.3814 26.3307 60.139C22.542 59.8466 23.5222 65.9825 23.9194 68.2714L24.5681 67.5951C21.1848 66.8425 18.7962 69.5796 16.9601 72.1385C16.6158 72.6184 17.4041 73.26 17.7628 72.7842C19.3572 70.6687 21.361 68.0107 24.2876 68.6555C24.3772 68.6788 24.4711 68.6775 24.5601 68.6518C24.6491 68.626 24.7302 68.5767 24.7955 68.5086C24.8608 68.4405 24.9081 68.356 24.9328 68.2632C24.9574 68.1704 24.9587 68.0726 24.9363 67.9791C24.7019 66.6767 24.5979 65.3524 24.6261 64.0276C24.6427 63.3617 24.595 62.4722 24.9363 61.8832C25.5038 60.9037 26.5722 61.1634 27.3302 61.6133C29.0717 62.6465 29.6534 64.9246 29.9177 66.8524C29.9842 67.3381 30.807 67.2283 30.7471 66.7353L30.7472 66.7353Z" fill="black"/>
<path d="M12.2924 63.1913C12.3927 63.5714 12.5901 63.9161 12.8636 64.1884C13.1371 64.4608 13.4764 64.6506 13.8453 64.7376C15.0185 65.0364 15.7312 64.2698 16.7533 63.9235C17.1934 63.7744 17.0541 63.8149 17.4041 63.9945C17.5945 64.0922 17.847 64.353 18.0371 64.4645C18.409 64.6773 18.8119 64.8253 19.2297 64.9025C20.1711 65.0853 21.144 64.8939 21.9568 64.366C22.5134 64.0168 22.0122 63.117 21.4469 63.4565C21.0873 63.6844 20.6852 63.8297 20.2675 63.8828C19.8497 63.9359 19.426 63.8956 19.0244 63.7645C18.3774 63.5501 18.0716 62.9584 17.4962 62.7035C17.0078 62.4871 16.6726 62.7596 16.2465 63.0197C15.3972 63.5383 13.5543 64.6147 13.004 62.9868C12.848 62.5252 12.1503 62.7131 12.2924 63.1913V63.1913Z" fill="black"/>
<path d="M17.7125 56.4056C16.8644 57.7425 16.4619 59.3333 16.5672 60.9325C16.5919 61.2695 17.102 61.269 17.0724 60.9325C16.9275 59.416 17.2534 57.8911 18.002 56.5821C18.1155 56.3891 17.8291 56.2174 17.7124 56.4056H17.7125Z" fill="black"/>
<path d="M22.4638 58.3086L22.0283 59.8718C22.0198 59.9041 22.0174 59.9378 22.0214 59.9711C22.0254 60.0043 22.0356 60.0364 22.0514 60.0656C22.0835 60.1244 22.1366 60.1676 22.1992 60.1856C22.2618 60.2036 22.3287 60.1949 22.3851 60.1615C22.4416 60.1281 22.483 60.0727 22.5002 60.0074L22.8863 58.43C22.8994 58.3724 22.8907 58.3117 22.8617 58.2607C22.8328 58.2097 22.7861 58.1724 22.7313 58.1567C22.6765 58.1409 22.618 58.148 22.5681 58.1763C22.5182 58.2046 22.4808 58.2521 22.4638 58.3086V58.3086Z" fill="black"/>
<path d="M65.8313 14.3809C67.9221 16.4541 69.8944 18.6535 71.738 20.9676C71.9421 21.2236 72.2966 20.8546 72.0897 20.601C70.2199 18.311 68.2185 16.1415 66.0964 14.1045C65.9194 13.9345 65.6557 14.2068 65.8313 14.3809Z" fill="black"/>
<path d="M54.5359 32.2213C56.148 32.9137 57.757 33.6138 59.3627 34.3217C59.6274 34.4379 59.7499 33.9812 59.4823 33.8694C57.8661 33.1941 56.2519 32.5138 54.6397 31.8284C54.407 31.7291 54.3064 32.1227 54.5359 32.2212V32.2213Z" fill="black"/>
<path d="M51.7894 53.874L55.2094 52.7201C55.4868 52.6265 55.3652 52.1649 55.0887 52.2638L51.6855 53.4812C51.4497 53.5655 51.5484 53.9553 51.7894 53.874Z" fill="black"/>
<path d="M238.363 125.746C239.81 129.558 240.992 133.473 241.899 137.461C242.157 138.592 242.393 139.728 242.607 140.868C242.657 141.13 243.043 141.02 242.992 140.758C242.201 136.742 241.144 132.789 239.829 128.926C239.458 127.83 239.065 126.743 238.652 125.663C238.581 125.478 238.291 125.559 238.363 125.746L238.363 125.746Z" fill="black"/>
<path d="M23.5056 162.309C27.0108 164.099 30.7938 165.224 34.6773 165.63C34.9541 165.659 34.9546 165.204 34.6773 165.178C30.8566 164.818 27.1287 163.747 23.6709 162.015C23.4821 161.92 23.3158 162.213 23.5057 162.31L23.5056 162.309Z" fill="black"/>
<path d="M69.4944 135.518C69.0933 139.565 67.6235 143.417 65.2485 146.645C62.7964 149.945 59.4858 152.441 55.7113 153.835C53.5953 154.611 51.3796 155.052 49.1381 155.143C49.0999 155.144 49.0638 155.161 49.0374 155.19C49.0109 155.219 48.9961 155.257 48.9961 155.297C48.9961 155.337 49.0109 155.375 49.0374 155.404C49.0638 155.433 49.0999 155.45 49.1381 155.451C53.2342 155.404 57.224 154.087 60.5996 151.667C63.1533 149.83 65.2902 147.433 66.8603 144.643C68.4303 141.853 69.3954 138.739 69.6878 135.518C69.6994 135.389 69.5067 135.39 69.4944 135.518V135.518Z" fill="black"/>
<path d="M71.1745 128.708C71.2392 136.022 70.3603 143.311 68.5617 150.381C68.3121 151.362 68.0451 152.339 67.7609 153.311C67.6131 153.816 67.4606 154.32 67.3035 154.822C67.231 155.054 67.1577 155.285 67.0835 155.517C67.0587 155.63 67.0148 155.738 66.9537 155.836C66.9233 155.875 66.7727 155.959 66.7777 156.007C66.7765 155.971 66.762 155.937 66.7374 155.912C66.7127 155.887 66.6798 155.874 66.6455 155.874C66.6112 155.874 66.5783 155.887 66.5537 155.912C66.529 155.937 66.5145 155.971 66.5133 156.007C66.5088 156.048 66.5139 156.09 66.528 156.128C66.5421 156.167 66.5649 156.202 66.5945 156.23C66.6241 156.258 66.6596 156.278 66.6982 156.288C66.7367 156.299 66.7771 156.3 66.816 156.291C66.9337 156.272 67.0445 156.22 67.1367 156.141C67.229 156.062 67.2995 155.96 67.341 155.843C67.5061 155.387 67.6482 154.922 67.7668 154.45C67.9098 153.965 68.0486 153.478 68.1831 152.99C68.7157 151.057 69.1803 149.105 69.5767 147.135C70.3558 143.268 70.8741 139.349 71.1278 135.407C71.2705 133.177 71.3308 130.944 71.3086 128.708C71.308 128.69 71.3007 128.673 71.2882 128.66C71.2757 128.648 71.2589 128.641 71.2415 128.641C71.2241 128.641 71.2074 128.648 71.1948 128.66C71.1823 128.673 71.175 128.69 71.1744 128.708H71.1745Z" fill="black"/>
<path d="M72.7803 126.109C72.7701 134.119 71.9593 142.106 70.3609 149.941C69.9082 152.165 69.3821 154.372 68.8344 156.572C68.8205 156.633 68.8298 156.697 68.8603 156.751C68.8907 156.805 68.94 156.844 68.9978 156.86C69.0555 156.877 69.1172 156.87 69.1698 156.84C69.2223 156.81 69.2617 156.76 69.2797 156.7C71.3595 148.981 72.4745 140.928 72.842 132.927C72.9462 130.656 72.9875 128.384 72.9657 126.109C72.9649 126.084 72.9548 126.06 72.9375 126.043C72.9202 126.025 72.8971 126.016 72.873 126.016C72.8489 126.016 72.8257 126.025 72.8084 126.043C72.7911 126.06 72.781 126.084 72.7802 126.109H72.7803Z" fill="black"/>
<path d="M73.9491 130.296C72.9863 136.883 72.0168 143.468 71.0406 150.053C70.7644 151.91 70.4746 153.765 70.2291 155.627C70.1901 155.923 70.6196 156.056 70.6667 155.753C71.1778 152.463 71.5977 149.155 72.0547 145.856C72.5118 142.556 72.9736 139.257 73.44 135.958L74.2269 130.376C74.2535 130.187 73.977 130.105 73.9491 130.296Z" fill="black"/>
<path d="M76.4827 127.061C75.1889 133.97 73.8732 140.874 72.5357 147.774C72.1565 149.739 71.7508 151.701 71.4213 153.677C71.3794 153.928 71.7412 154.04 71.7943 153.784C72.5103 150.323 73.0757 146.823 73.7058 143.344C74.3288 139.904 74.9413 136.462 75.581 133.025L76.6806 127.118C76.7056 126.984 76.508 126.926 76.4827 127.062V127.061Z" fill="black"/>
<path d="M77.1426 126.082C76.2431 133.047 75.0564 139.97 73.7009 146.853C73.3191 148.792 72.9186 150.726 72.4993 152.656C72.4278 152.986 72.9147 153.127 72.9865 152.796C74.4818 145.893 75.7088 138.935 76.6675 131.922C76.9304 129.99 77.1779 128.056 77.4101 126.119C77.429 125.962 77.1631 125.923 77.1426 126.082Z" fill="black"/>
<path d="M78.6757 126.728C77.7485 133.481 76.6324 140.207 75.3996 146.906C75.2311 147.822 75.0595 148.737 74.885 149.652C74.7978 150.109 74.7098 150.566 74.621 151.024C74.5069 151.497 74.4286 151.979 74.387 152.465C74.3764 152.728 74.7227 152.743 74.8017 152.523C75.0811 151.745 75.1639 150.854 75.3156 150.039C75.4705 149.206 75.6229 148.373 75.7728 147.539C76.0765 145.851 76.3684 144.16 76.6487 142.468C77.2035 139.102 77.7263 135.729 78.1874 132.348C78.4412 130.488 78.6879 128.626 78.9275 126.764C78.9464 126.616 78.696 126.579 78.6756 126.728H78.6757Z" fill="black"/>
<path d="M79.9282 128.719C79.1358 134.919 78.2926 141.112 77.4815 147.31C77.2577 149.02 77.0115 150.727 76.8789 152.447C76.8801 152.49 76.8957 152.531 76.923 152.562C76.9504 152.594 76.9876 152.615 77.0281 152.62C77.0686 152.626 77.1098 152.617 77.1442 152.594C77.1786 152.571 77.2041 152.536 77.2161 152.495C77.7581 149.441 78.0458 146.329 78.4161 143.248C78.7872 140.16 79.1604 137.072 79.5356 133.985C79.7503 132.229 79.9753 130.474 80.1965 128.719C80.219 128.541 79.9507 128.543 79.9282 128.719H79.9282Z" fill="black"/>
<path d="M80.4635 129.684C80.4419 134.895 79.9672 140.093 79.0452 145.215C78.9165 145.93 78.7793 146.645 78.6334 147.357C78.4482 148.061 78.3125 148.777 78.2271 149.501C78.211 149.77 78.5585 149.77 78.6419 149.56C78.8504 148.929 79.0015 148.279 79.0931 147.619C79.2159 146.986 79.3316 146.351 79.4403 145.715C79.6583 144.444 79.8492 143.168 80.0132 141.888C80.3443 139.31 80.5656 136.72 80.677 134.118C80.7398 132.641 80.7699 131.163 80.7674 129.684C80.7661 129.643 80.7495 129.604 80.7211 129.576C80.6928 129.547 80.6549 129.531 80.6155 129.531C80.576 129.531 80.5381 129.547 80.5098 129.576C80.4814 129.604 80.4648 129.643 80.4635 129.684V129.684Z" fill="black"/>
<path d="M82.6989 131.955C82.3767 134.608 82.0517 137.26 81.724 139.912L81.2325 143.858C81.0664 145.192 80.8676 146.526 80.7776 147.869C80.7678 148.015 81.0003 148.05 81.0257 147.904C81.2535 146.587 81.375 145.25 81.5274 143.922L81.9801 139.976C82.2868 137.301 82.5987 134.628 82.9159 131.955C82.933 131.811 82.7162 131.813 82.6989 131.955H82.6989Z" fill="black"/>
<path d="M83.2777 131.627C83.0594 135.852 82.6365 140.063 82.0107 144.244C81.9692 144.53 82.3899 144.651 82.4293 144.364C83.0081 140.147 83.3396 135.881 83.5303 131.627C83.5379 131.457 83.2857 131.458 83.2777 131.627Z" fill="black"/>
<path d="M85.502 134.528C85.1849 136.909 84.8635 139.289 84.552 141.67C84.532 141.823 84.7564 141.889 84.7766 141.735C85.0894 139.343 85.3924 136.949 85.6997 134.556C85.7145 134.44 85.5176 134.411 85.502 134.528Z" fill="black"/>
<path d="M86.6763 135.21L86.3568 138.134C86.3308 138.372 86.6912 138.371 86.716 138.134L87.0196 135.21C87.0435 134.981 86.701 134.984 86.6763 135.21Z" fill="black"/>
<path d="M65.1744 147.87C64.8108 151.472 64.185 155.039 63.3027 158.541C63.2898 158.598 63.2985 158.657 63.3269 158.707C63.3553 158.757 63.4012 158.794 63.4549 158.809C63.5087 158.825 63.5661 158.818 63.615 158.79C63.664 158.762 63.7007 158.716 63.7175 158.66C64.5583 155.113 65.1495 151.507 65.4862 147.87C65.5055 147.662 65.1952 147.665 65.1744 147.87V147.87Z" fill="black"/>
<path d="M63.0089 149.822C62.8979 151.275 62.689 152.719 62.3836 154.142C62.081 155.542 61.6607 156.899 61.2408 158.264C61.166 158.507 61.5177 158.598 61.6023 158.367C62.593 155.667 63.0699 152.695 63.2852 149.822C63.299 149.637 63.0232 149.638 63.009 149.822H63.0089Z" fill="black"/>
<path d="M59.2486 151.443C59.0724 153.588 58.4525 155.667 57.4315 157.537C57.296 157.787 57.6699 158.014 57.7995 157.762C58.8018 155.805 59.4053 153.654 59.5722 151.443C59.5889 151.226 59.2659 151.228 59.2486 151.443Z" fill="black"/>
<path d="M55.5535 153.36C55.3283 154.601 54.9083 155.795 54.3107 156.894C54.2925 156.929 54.2881 156.97 54.2985 157.009C54.3089 157.047 54.3332 157.08 54.3663 157.1C54.3995 157.12 54.4388 157.126 54.4761 157.117C54.5134 157.107 54.5457 157.083 54.5662 157.049C55.1702 155.924 55.5925 154.704 55.8161 153.436C55.8474 153.257 55.5863 153.18 55.5535 153.36Z" fill="black"/>
<path d="M52.085 155.299C51.9277 156.356 51.5188 157.356 50.8956 158.206C50.7818 158.367 51.0382 158.574 51.1622 158.421C51.8523 157.541 52.2856 156.474 52.4106 155.345C52.4341 155.154 52.1116 155.106 52.0851 155.299H52.085Z" fill="black"/>
<path d="M49.3386 156.845L47.768 158.129C47.7389 158.159 47.7227 158.201 47.7227 158.244C47.7227 158.287 47.7389 158.328 47.768 158.359C47.7977 158.388 47.8371 158.405 47.8782 158.405C47.9192 158.405 47.9587 158.388 47.9884 158.359L49.5507 157.066C49.5786 157.037 49.5943 156.997 49.5943 156.956C49.5943 156.914 49.5786 156.874 49.5507 156.845C49.5221 156.817 49.4842 156.801 49.4447 156.801C49.4052 156.801 49.3672 156.817 49.3387 156.845H49.3386Z" fill="black"/>
<path d="M45.5704 155.021L45.5664 155.346C45.5668 155.387 45.5824 155.426 45.6098 155.455C45.6304 155.477 45.6568 155.492 45.6855 155.497C45.7142 155.503 45.744 155.5 45.771 155.489C45.7981 155.477 45.8212 155.457 45.8375 155.432C45.8537 155.406 45.8624 155.377 45.8624 155.346L45.8584 155.021C45.8579 154.982 45.8428 154.944 45.8163 154.915C45.7961 154.894 45.7704 154.88 45.7425 154.874C45.7146 154.868 45.6856 154.871 45.6593 154.883C45.633 154.894 45.6105 154.913 45.5946 154.938C45.5788 154.963 45.5704 154.992 45.5704 155.021Z" fill="black"/>
<path d="M43.2195 157.01C43.2291 157.01 43.2382 157.006 43.2449 156.999C43.2516 156.991 43.2553 156.982 43.2553 156.972C43.2553 156.962 43.2516 156.952 43.2449 156.945C43.2382 156.938 43.2291 156.934 43.2195 156.934C43.2099 156.934 43.2007 156.938 43.194 156.945C43.1873 156.952 43.1836 156.962 43.1836 156.972C43.1836 156.982 43.1873 156.991 43.194 156.999C43.2007 157.006 43.2099 157.01 43.2195 157.01Z" fill="black"/>
</svg>
