<svg width="95" height="75" viewBox="0 0 95 75" fill="none" xmlns="http://www.w3.org/2000/svg">
<path d="M61.8976 24.8276C64.544 27.9652 68.1035 30.577 71.1429 33.3333C72.3852 34.4601 74.2343 32.6052 72.9804 31.4958C69.8312 28.7049 66.7629 25.3939 63.267 23.0479C62.1114 22.2909 61.1117 23.9031 61.8918 24.8276L61.8976 24.8276Z" fill="black"/>
<path d="M49.2461 48.8952L50.9218 53.5872C51.4996 55.2513 54.1981 54.5348 53.5914 52.8475L51.9215 48.1555C51.3436 46.4914 48.6452 47.2079 49.2461 48.8952Z" fill="black"/>
<path d="M0.214849 32.9342L1.89056 37.6262C2.4684 39.2904 5.16687 38.5739 4.56015 36.8866L2.89021 32.1946C2.31238 30.5304 -0.386096 31.2469 0.214849 32.9342Z" fill="black"/>
<path d="M60.3229 2.42155L62.3338 3.76213C62.9553 4.11824 63.7476 3.90988 64.1135 3.29408C64.4599 2.6713 64.2534 1.88617 63.6455 1.51436L61.6346 0.173785C61.0131 -0.182332 60.2208 0.0260276 59.8549 0.64183C59.5085 1.26461 59.715 2.04974 60.3229 2.42155Z" fill="black"/>
<path d="M32.1745 41.32L34.1854 42.6606C34.8069 43.0167 35.5992 42.8083 35.9651 42.1925C36.3114 41.5697 36.105 40.7846 35.497 40.4128L33.4862 39.0722C32.8647 38.7161 32.0724 38.9245 31.7065 39.5403C31.3601 40.163 31.5666 40.9482 32.1745 41.32Z" fill="black"/>
<path d="M79.5043 8.20651C80.2909 9.01691 81.2937 9.58447 82.3934 9.84178C83.0524 10.0237 83.7341 9.63692 83.916 8.97792C84.0979 8.31892 83.7111 7.63723 83.0521 7.45533C82.3596 7.3148 81.7265 6.96601 81.2377 6.45568C80.1225 5.30001 78.3486 7.0624 79.5043 8.18917L79.5043 8.20651Z" fill="black"/>
<path d="M72.0935 65.9744C68.0487 67.4767 64.0038 68.9387 59.9937 70.5335C58.5895 71.1113 59.1732 73.388 60.6293 72.8448C64.6741 71.3193 68.6554 69.6609 72.6598 68.043C73.9079 67.5403 73.3994 65.4948 72.0819 65.9802L72.0935 65.9744Z" fill="black"/>
<path d="M23.0622 50.0134C19.0174 51.5158 14.9726 52.9777 10.9624 54.5725C9.55829 55.1504 10.1419 57.427 11.598 56.8839C15.6429 55.3584 19.6241 53.7 23.6285 52.0821C24.8766 51.5794 24.3681 49.5338 23.0507 50.0192L23.0622 50.0134Z" fill="black"/>
<path d="M7.22483 71.3229L6.88391 72.6635C6.76624 73.0898 6.88493 73.5465 7.19528 73.8615C7.50563 74.1766 7.96048 74.3021 8.3885 74.1909C8.81652 74.0796 9.15268 73.7485 9.27035 73.3222L9.58816 72.0047C9.70583 71.5784 9.58714 71.1218 9.27679 70.8067C8.96644 70.4916 8.51158 70.3661 8.08356 70.4773C7.65554 70.5886 7.31938 70.9197 7.20171 71.346L7.22483 71.3229Z" fill="black"/>
<path d="M62.7639 54.0573L62.423 55.3978C62.3053 55.8241 62.424 56.2808 62.7343 56.5959C63.0447 56.9109 63.4995 57.0365 63.9276 56.9253C64.3556 56.814 64.6917 56.4829 64.8094 56.0566L65.1272 54.7391C65.2449 54.3128 65.1262 53.8561 64.8159 53.5411C64.5055 53.226 64.0506 53.1005 63.6226 53.2117C63.1946 53.3229 62.8584 53.6541 62.7408 54.0804L62.7639 54.0573Z" fill="black"/>
<path d="M36.6329 5.80783L34.2002 10.4305C33.501 11.7653 35.5985 12.9267 36.1937 11.5862L38.3317 6.78437C38.8402 5.6287 37.2338 4.64639 36.6329 5.7905L36.6329 5.80783Z" fill="black"/>
<path d="M93.2032 19.9797L90.7705 24.6024C90.0713 25.9372 92.1689 27.0986 92.764 25.758L94.902 20.9562C95.4105 19.8006 93.8041 18.8183 93.2032 19.9624L93.2032 19.9797Z" fill="black"/>
<path d="M80.2429 44.3404C78.6363 45.9349 77.1364 47.6336 75.7531 49.4253C75.3465 49.8539 75.2193 50.4765 75.425 51.0303C75.6307 51.5841 76.1336 51.9726 76.7214 52.0319C77.3092 52.0911 77.8795 51.8107 78.1916 51.309C79.5467 49.4922 80.7821 47.5891 81.8897 45.6116C82.1439 45.1568 82.0268 44.5844 81.6143 44.2661C81.2019 43.9477 80.6185 43.9793 80.2429 44.3404Z" fill="#FF6739"/>
<path d="M31.2116 28.3794C29.605 29.974 28.1052 31.6726 26.7219 33.4644C26.3153 33.893 26.188 34.5156 26.3937 35.0694C26.5995 35.6232 27.1024 36.0117 27.6902 36.0709C28.278 36.1301 28.8483 35.8497 29.1603 35.3481C30.5155 33.5313 31.7508 31.6281 32.8585 29.6507C33.1127 29.1959 32.9955 28.6235 32.5831 28.3051C32.1706 27.9867 31.5873 28.0184 31.2116 28.3794Z" fill="#FF6739"/>
<path d="M54.0782 36.6336L55.5922 37.6275C56.244 38.0011 57.075 37.7824 57.4586 37.1363C57.8192 36.4828 57.603 35.6612 56.9674 35.2699L55.4535 34.276C54.8016 33.9024 53.9706 34.1211 53.5871 34.7672C53.2264 35.4207 53.4426 36.2423 54.0782 36.6336Z" fill="#FF6739"/>
<path d="M49.8686 14.9815L48.8516 17.992C48.7185 18.4761 48.8537 18.9944 49.2064 19.3518C49.559 19.7092 50.0756 19.8512 50.5614 19.7245C51.0472 19.5978 51.4285 19.2215 51.5617 18.7374L52.544 15.7153C52.7466 14.9765 52.312 14.2133 51.5732 14.0107C50.8344 13.8081 50.0713 14.2427 49.8686 14.9815Z" fill="#FF6739"/>
<path d="M67.9468 12.1455L66.9298 15.156C66.7966 15.6401 66.9318 16.1585 67.2845 16.5159C67.6372 16.8732 68.1537 17.0153 68.6395 16.8886C69.1253 16.7618 69.5066 16.3855 69.6398 15.9014L70.6221 12.8794C70.8248 12.1406 70.3901 11.3774 69.6514 11.1748C68.9126 10.9721 68.1494 11.4067 67.9468 12.1455Z" fill="#FF6739"/>
<path d="M40.1384 60.8043L39.5606 62.7921C39.4429 63.2184 39.5616 63.6751 39.872 63.9901C40.1823 64.3052 40.6372 64.4307 41.0652 64.3195C41.4932 64.2082 41.8294 63.8771 41.947 63.4508L42.3688 61.4226C42.5073 60.8203 42.1474 60.2157 41.552 60.0503C40.9566 59.8848 40.3364 60.217 40.1442 60.8043L40.1384 60.8043Z" fill="#FF6739"/>
<path d="M17.3176 14.3593L16.8149 20.3918C16.6762 22.0329 19.2418 22.0271 19.3747 20.3918L19.8774 14.3593C20.0161 12.7182 17.4563 12.7298 17.3176 14.3593Z" fill="#FF6739"/>
<path d="M39.8488 27.7265L39.3461 33.759C39.2074 35.4001 41.773 35.3943 41.9059 33.759L42.4086 27.7265C42.5473 26.0854 39.9875 26.097 39.8488 27.7265Z" fill="#FF6739"/>
<path d="M26.2371 62.0819C25.5158 63.2996 25.219 64.7223 25.3934 66.1267C25.5841 67.9411 28.2479 67.5944 27.8666 65.7916C27.6954 64.8147 27.7669 63.8106 28.0746 62.8678C28.1875 62.3876 27.9375 61.896 27.4829 61.7045C27.0283 61.5129 26.5019 61.6773 26.2371 62.0935L26.2371 62.0819Z" fill="#FF6739"/>
</svg>
