<svg width="436" height="293" viewBox="0 0 436 293" fill="none" xmlns="http://www.w3.org/2000/svg">
<g opacity="0.1">
<path fill-rule="evenodd" clip-rule="evenodd" d="M24.9361 185.764C-6.60093 174.064 -18.6654 136.233 -45.4155 115.839C-90.184 81.7083 -171.495 80.4669 -184.885 25.7992C-197.103 -24.083 -140.145 -69.0124 -97.8131 -98.0822C-61.5255 -123.001 -13.7949 -115.922 29.8561 -121.666C56.9994 -125.237 84.8972 -115.803 110.5 -125.491C154.074 -141.98 181.418 -196.121 228.01 -196.651C273.9 -197.173 325.274 -169.712 344.742 -128.156C364.541 -85.8902 329.535 -38.462 323.809 7.84967C319.1 45.9375 340.397 92.753 313.986 120.596C285.854 150.251 234.735 131.456 195.538 143.071C168.903 150.963 148.247 170.947 121.298 177.691C89.4892 185.651 55.6836 197.172 24.9361 185.764Z" stroke="#F7955E" stroke-width="4.30886"/>
<path fill-rule="evenodd" clip-rule="evenodd" d="M35.174 149.424C7.72027 139.238 -2.78288 106.307 -26.0697 88.5538C-65.0422 58.8423 -135.825 57.76 -147.482 10.1721C-158.12 -33.25 -108.537 -72.3593 -71.6872 -97.6632C-40.0989 -119.354 1.45154 -113.191 39.4504 -118.19C63.079 -121.298 87.3647 -113.085 109.652 -121.518C147.583 -135.871 171.386 -182.999 211.945 -183.459C251.893 -183.912 296.616 -160.007 313.563 -123.832C330.8 -87.0403 300.328 -45.7554 295.344 -5.44182C291.246 27.7131 309.786 68.4658 286.795 92.702C262.307 118.516 217.806 102.154 183.685 112.264C160.498 119.134 142.518 136.529 119.059 142.399C91.3686 149.327 61.9404 159.355 35.174 149.424Z" stroke="#F7955E" stroke-width="4.30886"/>
<path fill-rule="evenodd" clip-rule="evenodd" d="M29.1048 115.09C4.70954 106.048 -4.59782 76.7443 -25.2823 60.9624C-59.8996 34.5501 -122.819 33.6493 -133.14 -8.6993C-142.557 -47.3408 -98.4474 -82.1967 -65.668 -104.753C-37.5692 -124.088 -0.639468 -118.639 33.143 -123.122C54.1499 -125.91 75.7307 -118.621 95.5502 -126.147C129.281 -138.956 150.481 -180.927 186.536 -181.372C222.046 -181.811 261.781 -160.572 276.814 -128.388C292.103 -95.6534 264.979 -58.8779 260.514 -22.9895C256.841 6.52601 273.286 42.7845 252.827 64.3779C231.036 87.3771 191.493 72.8528 161.152 81.8818C140.536 88.017 124.537 103.517 103.678 108.763C79.0576 114.954 52.8894 123.906 29.1048 115.09Z" stroke="#F7955E" stroke-width="4.30886"/>
</g>
</svg>
