<svg width="180" height="181" viewBox="0 0 180 181" fill="none" xmlns="http://www.w3.org/2000/svg">
<path d="M85.7672 153.28C73.5641 165.677 52.2554 147.487 45.8801 136.538C44.1338 133.558 42.2143 129.491 42.3737 125.908C42.5331 122.326 44.4803 122.208 46.4553 124.931C47.4739 126.338 48.5342 128.465 48.3332 130.274C47.3631 139.282 30.6488 130.357 26.8236 127.599C23.4662 125.17 20.5305 122.206 18.1338 118.826C16.3598 116.304 13.1029 111.758 13.1653 108.48C14.5697 105.339 13.8744 105.447 11.0794 108.806C9.88195 109.075 8.64925 109.152 7.42751 109.034C5.54184 108.856 3.70139 108.352 1.98774 107.545C-1.4653 105.913 -4.52433 103.554 -6.97923 100.629C-17.7618 88.3217 -19.9377 70.9006 -22.37 55.3713C-22.8689 52.1836 -28.1909 52.8766 -27.9761 56.0989C-26.6456 75.9454 -21.1504 103.99 -0.742544 113.171C5.63966 116.047 20.1434 116.941 20.0603 106.505C19.9979 97.8361 8.34223 96.769 7.0048 105.507C5.53572 115.126 15.0016 125.977 21.9174 131.424C28.4313 136.552 41.0294 143.315 49.3865 138.603C57.0992 134.203 54.0363 123.628 48.3332 118.965C45.6653 116.782 41.7154 115.548 38.999 118.459C36.0747 121.591 37.031 126.982 38.0011 130.71C40.8492 141.638 50.0033 150.003 59.2613 155.782C68.1104 161.291 80.2789 164.589 88.3173 155.83C89.8557 154.153 87.4233 151.679 85.8087 153.322L85.7672 153.28Z" fill="#FF6739"/>
<path d="M85.6996 93.6458C85.0273 97.8015 87.9702 101.906 91.7592 103.744C93.8095 104.795 96.1457 105.151 98.416 104.759C101.302 104.181 103.756 102.094 105.171 99.5127C107.514 95.1166 107.042 89.7522 103.968 85.8326C100.76 82.0094 95.5598 80.5033 90.8049 82.02C88.4074 82.8333 86.165 84.6197 85.582 87.0878" fill="#FF6739"/>
<path d="M85.4414 93.6488C84.7127 99.511 89.7852 104.551 95.3936 105.26C101.43 106.017 106.244 100.968 106.958 95.2612C107.749 89.4855 104.449 83.928 98.9993 81.8585C94.0397 80.0062 86.9316 81.3084 85.2204 86.9921C85.0841 87.4622 85.794 87.6361 85.9303 87.1848C87.5851 81.7974 94.4769 80.8806 99.0369 82.7517C103.74 84.7115 106.629 89.4954 106.173 94.5702C105.731 99.7931 101.712 104.753 96.1316 104.513C90.5515 104.273 85.3662 99.37 85.9538 93.6488C85.9867 93.3197 85.4837 93.3291 85.4414 93.6488Z" fill="#FF6739"/>
<path d="M84.7072 93.3735C83.6871 99.9033 89.0557 105.676 95.3928 106.475C101.974 107.303 107.319 101.835 108.17 95.6018C109.035 89.2694 105.66 83.1298 99.6473 80.8075C94.006 78.6309 86.0612 80.2575 84.176 86.6932C83.6448 88.522 86.4466 89.2788 86.9967 87.4783C88.4681 82.8008 94.6782 82.2319 98.5707 83.8538C102.79 85.6652 105.354 89.997 104.912 94.5676C104.527 99.1558 100.982 103.424 96.1309 103.279C91.1195 103.128 86.3385 98.7938 86.7005 93.6461C86.7804 92.5132 84.8718 92.2358 84.6884 93.3735L84.7072 93.3735Z" fill="black"/>
<path d="M88.8316 90.8234C88.4367 94.3069 89.1653 98.0631 92.4984 99.8918C94.9007 101.203 98.7603 100.954 100.279 98.4297C100.899 97.4002 99.3385 96.5493 98.6897 97.4895C97.3499 99.4358 94.0498 97.6964 92.8369 96.4929C91.3964 94.942 90.562 92.9246 90.4864 90.8093C90.4864 90.3575 90.1201 89.9913 89.6684 89.9913C89.2166 89.9913 88.8504 90.3575 88.8504 90.8093L88.8316 90.8234Z" fill="white"/>
<path d="M102.922 95.7485L102.922 95.6639C102.966 95.5103 102.966 95.3474 102.922 95.1938C102.882 95.0478 102.804 94.9148 102.697 94.8083L102.523 94.672C102.39 94.5938 102.239 94.5532 102.086 94.5545C101.968 94.5479 101.851 94.5739 101.747 94.6297C101.64 94.6635 101.545 94.7252 101.47 94.8083C101.362 94.9148 101.284 95.0478 101.244 95.1938C101.2 95.3474 101.2 95.5103 101.244 95.6639L101.244 95.7485L101.329 95.9554C101.38 96.0532 101.456 96.1358 101.55 96.1951C101.601 96.248 101.666 96.2855 101.738 96.3033C101.839 96.3567 101.952 96.3827 102.067 96.3785L102.292 96.3456L102.495 96.2609C102.591 96.2079 102.674 96.1321 102.734 96.04C102.811 95.9588 102.863 95.8578 102.885 95.7485L102.922 95.7485Z" fill="white"/>
<path d="M101.226 90.4169L101.141 90.4169C100.999 90.3747 100.847 90.3747 100.704 90.4169C100.567 90.4546 100.442 90.5275 100.342 90.6285L100.215 90.793C100.14 90.918 100.101 91.0611 100.102 91.2067C100.097 91.3162 100.121 91.425 100.173 91.5217C100.206 91.6222 100.265 91.7127 100.342 91.785C100.444 91.883 100.568 91.9541 100.704 91.9918C100.847 92.034 100.999 92.034 101.141 91.9918L101.226 91.9918L101.419 91.9119C101.509 91.8622 101.587 91.7912 101.644 91.705C101.691 91.6545 101.725 91.5932 101.743 91.5264C101.794 91.4331 101.819 91.3273 101.813 91.2208L101.785 91.0046L101.705 90.8165C101.657 90.7246 101.586 90.6468 101.499 90.5909C101.42 90.5216 101.327 90.4717 101.226 90.4451L101.226 90.4169Z" fill="white"/>
<path d="M95.574 89.5788L95.6492 89.48L95.7432 89.2544C95.7759 89.1312 95.7759 89.0015 95.7432 88.8783C95.7423 88.7955 95.7196 88.7144 95.6774 88.6432C95.64 88.5281 95.5736 88.4245 95.4846 88.3424L95.2919 88.1919L95.0709 88.0979C94.9477 88.065 94.8181 88.065 94.6949 88.0979C94.5714 88.1029 94.4515 88.1402 94.347 88.206L94.2482 88.286C94.1058 88.3683 93.9875 88.4867 93.9051 88.6291C93.8186 88.7707 93.7731 88.9334 93.7734 89.0992L93.8063 89.3531C93.8509 89.5125 93.935 89.658 94.0508 89.7762C94.1356 89.8675 94.2425 89.9354 94.3611 89.9736C94.4738 90.0331 94.6005 90.0608 94.7278 90.0536C94.8927 90.052 95.0545 90.0083 95.1979 89.9266C95.3387 89.8421 95.4565 89.7243 95.541 89.5835L95.574 89.5788Z" fill="white"/>
<path d="M99.0214 87.919C99.0214 87.5139 98.6931 87.1856 98.2881 87.1856C97.883 87.1856 97.5547 87.5139 97.5547 87.919C97.5547 88.324 97.883 88.6523 98.2881 88.6523C98.6931 88.6523 99.0214 88.324 99.0214 87.919Z" fill="white"/>
<path d="M2.87454 13.7552C2.20699 17.9109 5.14987 22.015 8.93424 23.8531C10.9845 24.9041 13.3206 25.2604 15.591 24.8685C18.4774 24.2903 20.9314 22.203 22.3511 19.6221C24.6827 15.2286 24.2112 9.8745 21.1476 5.95608C17.9377 2.13569 12.7405 0.628499 7.98462 2.1388C5.58707 2.95679 3.34465 4.7432 2.76172 7.20656" fill="#FF6739"/>
<path d="M2.62967 13.7581C1.901 19.6203 6.97346 24.6599 12.5819 25.365C18.618 26.1266 23.4319 21.0776 24.1465 15.3705C24.9403 9.59974 21.6489 4.04397 16.2064 1.96775C11.2467 0.115528 4.13871 1.41773 2.43222 7.10133C2.39669 7.28917 2.51143 7.47278 2.69584 7.52318C2.88024 7.57359 3.07242 7.47387 3.13738 7.29408C4.79216 1.90664 11.6839 0.989928 16.244 2.86096C20.9472 4.82076 23.8358 9.60469 23.3802 14.6795C22.9383 19.8977 18.9189 24.862 13.3387 24.6176C7.75854 24.3731 2.55445 19.4793 3.14208 13.7581C3.17499 13.429 2.67197 13.4384 2.62967 13.7581V13.7581Z" fill="#FF6739"/>
<path d="M1.88773 13.4798C0.862897 20.0096 6.23153 25.7825 12.5686 26.5817C19.1501 27.4044 24.4952 21.9417 25.3508 15.7081C26.2158 9.37573 22.8357 3.23143 16.8231 0.909092C11.1818 -1.26281 3.23694 0.363768 1.35181 6.79955C0.820587 8.62356 3.62243 9.38044 4.17246 7.58463C5.64859 2.88355 11.854 2.33352 15.7465 3.96009C19.9661 5.77145 22.5302 10.1033 22.0883 14.6739C21.7075 19.2621 18.1629 23.5307 13.3067 23.385C8.2953 23.2345 3.51431 18.9001 3.88099 13.7524C3.96091 12.6148 2.04757 12.3421 1.86893 13.4798L1.88773 13.4798Z" fill="black"/>
<path d="M6.00735 10.93C5.61246 14.4135 6.34113 18.1696 9.67419 19.9936C12.0764 21.3099 15.9407 21.0608 17.4545 18.5363C18.075 17.5068 16.5143 16.6559 15.8655 17.5961C14.5257 19.5423 11.2256 17.8076 10.0127 16.6042C8.57216 15.0533 7.73782 13.0359 7.66213 10.9205C7.66213 10.4688 7.29591 10.1026 6.84414 10.1026C6.39238 10.1026 6.02616 10.4688 6.02616 10.9205L6.00735 10.93Z" fill="white"/>
<path d="M68.8043 24.0651C66.0542 27.2524 66.4068 32.292 68.6633 35.8413C69.8577 37.8123 71.659 39.3431 73.7969 40.2039C76.5564 41.2194 79.7249 40.7492 82.3011 39.2872C86.6003 36.7732 89.0142 31.9619 88.4595 27.0127C87.7317 22.0758 84.0968 18.0659 79.2548 16.8584C76.7867 16.2942 73.9379 16.6374 72.1468 18.4285" fill="#FF6739"/>
<path d="M68.6286 23.8853C65.0088 28.3748 66.4473 35.0739 70.6031 38.7313C75.3041 42.8871 82.3558 41.2323 86.0837 36.5782C89.6925 32.1711 89.874 25.8842 86.5256 21.2762C83.3148 16.9371 76.4465 14.14 71.9053 18.1688C71.5527 18.4838 72.0698 19.0009 72.4271 18.6906C76.8414 14.8122 83.484 18.056 86.2671 22.3104C89.0501 26.5649 88.5659 32.0887 85.4444 36.0188C81.9327 40.4331 75.3324 41.9374 70.9227 37.9274C67.1619 34.5097 65.7845 28.3983 69.0423 24.1956C69.2209 23.9652 68.8261 23.6597 68.6427 23.8853L68.6286 23.8853Z" fill="#FF6739"/>
<path d="M68.0812 23.3498C63.9725 28.1261 65.2371 35.5068 69.7454 39.5967C74.9166 44.2978 82.7768 42.6336 86.9701 37.4765C90.9896 32.5357 91.3045 25.517 87.3791 20.4304C83.6747 15.6259 76.1201 12.9087 71.1228 17.3982C69.7125 18.6722 71.781 20.689 73.2054 19.4761C77.0462 16.1571 82.8755 19.3257 85.2166 22.9314C87.6354 26.7809 87.3289 31.7443 84.4551 35.267C81.3853 39.1078 75.697 40.4805 71.7622 37.0863C68.2316 34.0306 66.8401 28.5257 69.6796 24.5909C70.3565 23.6507 68.8287 22.4707 68.0718 23.3498L68.0812 23.3498Z" fill="black"/>
<path d="M73.0728 23.1539C71.009 25.7818 69.5517 29.0067 71.0043 32.3069C72.2454 35.1275 75.7947 37.149 78.7376 35.7716C79.6778 35.3344 79.0009 33.6984 78.0277 34.0839C75.5597 35.0617 73.6369 31.8697 73.2938 29.8529C73.0158 27.8841 73.3889 25.8783 74.3562 24.1411C74.7652 23.3654 73.6745 22.3829 73.0728 23.1492L73.0728 23.1539Z" fill="white"/>
<path d="M82.3756 34.8984L82.4367 34.8326C82.6554 34.6098 82.7395 34.2877 82.6577 33.9864L82.5731 33.7796C82.4948 33.6509 82.3868 33.5428 82.2581 33.4646C82.0536 33.355 81.8159 33.3249 81.5905 33.38C81.4441 33.4166 81.3107 33.4931 81.2051 33.6009C81.0984 33.7082 81.0208 33.8409 80.9794 33.9864L80.9512 34.0663L80.9183 34.2967C80.9147 34.4095 80.9406 34.5213 80.9935 34.6211C81.0113 34.6926 81.0487 34.7577 81.1016 34.8091C81.1609 34.9024 81.2436 34.9785 81.3414 35.03L81.5435 35.1147L81.7739 35.1476C81.8884 35.1536 82.0024 35.1276 82.103 35.0724C82.2066 35.0373 82.3001 34.9776 82.3756 34.8984V34.8984Z" fill="white"/>
<path d="M83.7034 29.4632L83.6376 29.4021C83.5369 29.3018 83.4123 29.229 83.2756 29.1905C83.1339 29.1529 82.9848 29.1529 82.8431 29.1905L82.6456 29.2752C82.524 29.3459 82.4221 29.4461 82.3495 29.5666C82.2929 29.659 82.2606 29.7641 82.2554 29.8722C82.2274 29.9785 82.2274 30.0903 82.2554 30.1966C82.2918 30.3342 82.365 30.4593 82.467 30.5586C82.5656 30.6613 82.691 30.7346 82.829 30.7701L82.9089 30.803L83.1204 30.8312C83.2284 30.8369 83.3358 30.8125 83.4307 30.7607C83.4973 30.7432 83.5575 30.7074 83.6047 30.6573C83.6931 30.6026 83.7647 30.5245 83.8115 30.4316L83.8961 30.2436L83.9243 30.0273C83.9297 29.9209 83.9053 29.8151 83.8538 29.7218C83.8224 29.6227 83.7657 29.5336 83.6893 29.4632L83.7034 29.4632Z" fill="white"/>
<path d="M79.1501 25.862L79.2676 25.815C79.3874 25.7884 79.4979 25.7299 79.5873 25.6457C79.6904 25.5809 79.7747 25.4901 79.8317 25.3825L79.9257 25.1615C79.9587 25.0383 79.9587 24.9087 79.9257 24.7854C79.9263 24.7031 79.9052 24.622 79.8646 24.5504C79.8263 24.4332 79.7583 24.3279 79.6672 24.2448L79.4791 24.0991C79.3363 24.0162 79.1742 23.9725 79.009 23.9722L78.8868 23.9722C78.7218 23.9737 78.56 24.0174 78.4167 24.0991L78.224 24.2495C78.1066 24.3665 78.0223 24.5125 77.9795 24.6726C77.9443 24.7971 77.9443 24.9289 77.9795 25.0534C77.9839 25.1791 78.0229 25.3011 78.0923 25.406C78.2227 25.6188 78.4269 25.7761 78.6659 25.8479C78.8319 25.8945 79.0075 25.8945 79.1736 25.8479L79.1501 25.862Z" fill="white"/>
<path d="M83.2636 25.7979C83.2636 25.3929 82.9353 25.0645 82.5302 25.0645C82.1252 25.0645 81.7969 25.3929 81.7969 25.7979C81.7969 26.2029 82.1252 26.5312 82.5302 26.5312C82.9353 26.5312 83.2636 26.2029 83.2636 25.7979Z" fill="white"/>
<path d="M25.7246 71.556C22.9744 74.7433 23.3223 79.7829 25.5788 83.3322C26.7733 85.3032 28.5745 86.8339 30.7124 87.6948C33.4719 88.7149 36.6593 88.226 39.2214 86.7546C43.5187 84.2389 45.932 79.4289 45.3798 74.48C44.654 69.547 41.0256 65.5382 36.1892 64.3257C33.7211 63.7616 30.8722 64.1048 29.0811 65.8959" fill="#FF6739"/>
<path d="M25.5388 71.3775C21.9189 75.867 23.3575 82.5661 27.5132 86.2235C32.2378 90.3793 39.2659 88.7245 42.9939 84.0704C46.6041 79.6644 46.7876 73.3775 43.4405 68.7684C40.2249 64.4293 33.3614 61.6322 28.8201 65.661C28.4628 65.976 28.9847 66.4931 29.3372 66.1828C33.7563 62.3044 40.3942 65.5482 43.1772 69.8026C45.9603 74.0571 45.4807 79.5809 42.3545 83.511C38.824 87.9253 32.2425 89.4296 27.8329 85.4102C24.072 81.9925 22.6993 75.8811 25.9525 71.6784C26.1264 71.448 25.7315 71.1424 25.5482 71.3681L25.5388 71.3775Z" fill="#FF6739"/>
<path d="M24.9963 70.8342C20.8875 75.6105 22.1756 82.9911 26.6558 87.0811C31.827 91.7822 39.6872 90.118 43.8805 84.9609C47.8999 80.0201 48.2149 73.0014 44.2942 67.9148C40.5898 63.1103 33.0351 60.3931 28.0379 64.8826C26.6276 66.1566 28.696 68.1733 30.1158 66.9605C33.9612 63.6415 39.7906 66.81 42.127 70.4158C44.5502 74.2641 44.2436 79.2303 41.3654 82.7514C38.3003 86.5922 32.6073 87.9649 28.6725 84.5707C25.142 81.515 23.7505 76.01 26.59 72.0752C27.2669 71.135 25.7391 69.9551 24.9822 70.8342L24.9963 70.8342Z" fill="black"/>
<path d="M29.9947 70.6461C27.9309 73.274 26.4736 76.4989 27.9262 79.7991C29.1673 82.6197 32.7166 84.6412 35.6595 83.2638C36.5997 82.8266 35.9227 81.1906 34.9496 81.5761C32.4815 82.5539 30.5588 79.3619 30.2109 77.3451C29.9344 75.3757 30.3091 73.37 31.2781 71.6333C31.6824 70.8576 30.5964 69.8751 29.9947 70.6414L29.9947 70.6461Z" fill="white"/>
<path d="M39.2894 82.3884L39.3505 82.3226C39.4582 82.2161 39.536 82.0832 39.5762 81.9371C39.6203 81.7835 39.6203 81.6206 39.5762 81.467L39.4869 81.2602C39.4125 81.1301 39.3056 81.0215 39.1766 80.9452C39.0793 80.8831 38.9675 80.8474 38.8522 80.8418C38.7383 80.8112 38.6183 80.8112 38.5043 80.8418C38.3597 80.8795 38.2281 80.9558 38.1236 81.0627C38.0159 81.1692 37.9381 81.3022 37.8979 81.4482L37.865 81.5281L37.8368 81.7538C37.8309 81.8678 37.8553 81.9813 37.9073 82.0829C37.9296 82.1536 37.9682 82.218 38.0201 82.2709C38.0794 82.3642 38.1621 82.4403 38.2599 82.4918L38.462 82.5765L38.6877 82.6094C38.911 82.5983 39.1236 82.5102 39.2894 82.3602L39.2894 82.3884Z" fill="white"/>
<path d="M40.6135 76.9438L40.5477 76.8827C40.4502 76.7808 40.3266 76.7076 40.1904 76.6711C40.0471 76.6335 39.8965 76.6335 39.7532 76.6711L39.5558 76.7557C39.4355 76.8266 39.3352 76.9269 39.2643 77.0472C39.2043 77.1382 39.1702 77.2438 39.1656 77.3528C39.1375 77.4591 39.1375 77.5708 39.1656 77.6771C39.2059 77.8131 39.2785 77.9373 39.3772 78.0391C39.4773 78.1401 39.6021 78.213 39.7391 78.2507L39.8191 78.2836L40.0353 78.3118C40.1417 78.3171 40.2475 78.2927 40.3409 78.2413C40.4088 78.2239 40.4706 78.1881 40.5195 78.1378C40.6069 78.0819 40.6782 78.0041 40.7264 77.9122L40.8063 77.7241L40.8345 77.5079C40.839 77.4021 40.8163 77.2969 40.7687 77.2023C40.7374 77.1021 40.6788 77.0125 40.5994 76.9438L40.6135 76.9438Z" fill="white"/>
<path d="M36.0657 73.3542L36.1879 73.3072C36.3074 73.2795 36.4176 73.2212 36.5076 73.1379C36.6095 73.073 36.6922 72.9821 36.7474 72.8747L36.8414 72.6537C36.8764 72.5308 36.8764 72.4006 36.8414 72.2776C36.8405 72.1949 36.8178 72.1138 36.7756 72.0426C36.7384 71.926 36.672 71.8208 36.5828 71.737L36.3948 71.5913C36.252 71.5084 36.0898 71.4646 35.9247 71.4644L35.7978 71.4644C35.6326 71.4646 35.4705 71.5084 35.3276 71.5913L35.1302 71.7417C35.0129 71.8587 34.9285 72.0047 34.8857 72.1648C34.8506 72.2893 34.8506 72.4211 34.8857 72.5456C34.8901 72.6713 34.9292 72.7933 34.9986 72.8982C35.0552 73.0086 35.1394 73.1026 35.243 73.1708C35.336 73.2525 35.4473 73.3105 35.5674 73.3401C35.7334 73.3866 35.9091 73.3866 36.0751 73.3401L36.0657 73.3542Z" fill="white"/>
<path d="M40.1769 73.2862C40.1463 72.9052 39.8281 72.6115 39.4459 72.6115C39.0636 72.6115 38.7454 72.9052 38.7148 73.2862C38.7454 73.6673 39.0636 73.9609 39.4459 73.9609C39.8281 73.9609 40.1463 73.6673 40.1769 73.2862V73.2862Z" fill="white"/>
<path d="M164.66 97.1176C168.811 97.7852 172.919 94.8423 174.753 91.058C175.805 89.0081 176.163 86.6721 175.773 84.4012C175.19 81.5148 173.107 79.0608 170.527 77.6411C166.13 75.3008 160.767 75.7726 156.846 78.8445C153.024 82.053 151.516 87.2518 153.029 92.0076C153.842 94.4051 155.634 96.6475 158.097 97.2305" fill="#FF6739"/>
<path d="M164.659 97.3741C170.522 98.1028 175.561 93.0303 176.266 87.4219C177.028 81.3905 171.979 76.5719 166.267 75.8573C160.498 75.064 154.944 78.3556 152.869 83.7974C151.017 88.7571 152.319 95.8651 157.998 97.5763C158.194 97.6308 158.397 97.5161 158.452 97.3201C158.506 97.124 158.392 96.9209 158.195 96.8664C152.803 95.2116 151.887 88.3199 153.758 83.7598C155.721 79.0577 160.506 76.1713 165.581 76.6283C170.799 77.0655 175.763 81.0849 175.519 86.6651C175.275 92.2453 170.381 97.4493 164.659 96.8617C164.326 96.8288 164.335 97.3318 164.659 97.3741V97.3741Z" fill="#FF6739"/>
<path d="M164.386 98.1003C170.916 99.1205 176.689 93.7518 177.483 87.4148C178.311 80.8333 172.848 75.4881 166.61 74.6372C160.277 73.7722 154.138 77.1476 151.815 83.1603C149.643 88.8016 151.27 96.7511 157.706 98.6316C159.53 99.1675 160.287 96.3609 158.486 95.8109C153.809 94.3348 153.24 88.1246 154.866 84.2321C156.677 80.0118 161.009 77.4461 165.58 77.8857C170.168 78.2712 174.432 81.8158 174.286 86.6673C174.136 91.6787 169.806 96.4597 164.659 96.0977C163.521 96.0177 163.248 97.9311 164.386 98.1097L164.386 98.1003Z" fill="black"/>
<path d="M161.827 93.9793C165.316 94.3789 169.072 93.6456 170.896 90.3125C172.212 87.9102 171.958 84.0507 169.438 82.5322C168.409 81.9117 167.558 83.4724 168.498 84.1212C170.444 85.4657 168.705 88.7658 167.506 89.974C165.953 91.4141 163.935 92.2483 161.818 92.3246C161.366 92.3246 161 92.6908 161 93.1425C161 93.5943 161.366 93.9605 161.818 93.9605L161.827 93.9793Z" fill="white"/>
<path d="M166.78 79.8835L166.695 79.8835C166.393 79.7988 166.069 79.8852 165.849 80.1091L165.712 80.2831C165.632 80.4165 165.59 80.5693 165.59 80.725C165.586 80.8408 165.612 80.9557 165.665 81.0588C165.7 81.1664 165.763 81.2624 165.849 81.3361C166.069 81.56 166.393 81.6465 166.695 81.5618L166.78 81.5618L166.982 81.4725C167.078 81.4212 167.161 81.3469 167.221 81.2562C167.273 81.2023 167.311 81.1359 167.33 81.0635C167.385 80.9648 167.411 80.8522 167.405 80.7391L167.377 80.5087L167.287 80.3066C167.236 80.2101 167.162 80.1277 167.071 80.0668C166.988 79.9924 166.888 79.9405 166.78 79.9164L166.78 79.8835Z" fill="white"/>
<path d="M161.427 81.5874L161.427 81.6767C161.389 81.8184 161.389 81.9675 161.427 82.1092C161.463 82.2468 161.536 82.3719 161.638 82.4712L161.803 82.5981C161.928 82.6725 162.071 82.7115 162.216 82.7109C162.431 82.7017 162.636 82.6168 162.795 82.4712C162.897 82.3719 162.97 82.2468 163.006 82.1092C163.044 81.9675 163.044 81.8184 163.006 81.6767L163.006 81.5874L162.926 81.3993C162.878 81.3074 162.807 81.2296 162.719 81.1737C162.672 81.1236 162.612 81.0877 162.546 81.0703C162.45 81.0193 162.343 80.995 162.235 80.9997L162.024 81.0279L161.831 81.1079C161.74 81.1575 161.663 81.2285 161.605 81.3147C161.536 81.392 161.487 81.4859 161.464 81.5874L161.427 81.5874Z" fill="white"/>
<path d="M160.581 87.2433L160.482 87.168L160.256 87.074C160.135 87.0413 160.006 87.0413 159.885 87.074C159.801 87.0726 159.718 87.0937 159.645 87.1351C159.53 87.1736 159.427 87.2398 159.344 87.3279L159.198 87.5206L159.104 87.7463C159.069 87.8676 159.069 87.9963 159.104 88.1177C159.108 88.242 159.147 88.3627 159.217 88.4655L159.293 88.569C159.377 88.7098 159.495 88.8276 159.636 88.9121C159.779 88.9938 159.941 89.0375 160.106 89.0391L160.36 89.0062C160.518 88.9614 160.662 88.8773 160.778 88.7617C160.947 88.575 161.046 88.336 161.06 88.0847C161.057 87.9194 161.012 87.7576 160.928 87.6146C160.844 87.4738 160.726 87.356 160.585 87.2715L160.581 87.2433Z" fill="white"/>
<path d="M159.646 84.5244C159.646 84.1194 159.318 83.7911 158.913 83.7911C158.508 83.7911 158.18 84.1194 158.18 84.5244C158.18 84.9295 158.508 85.2578 158.913 85.2578C159.318 85.2578 159.646 84.9295 159.646 84.5244V84.5244Z" fill="white"/>
<path d="M123.868 30.9737C121.127 34.1658 121.489 39.2053 123.76 42.7499C124.957 44.7177 126.763 46.2424 128.903 47.0937C131.667 48.1092 134.85 47.6156 137.407 46.1535C141.694 43.6254 144.09 38.809 143.519 33.8649C142.781 28.9337 139.14 24.9351 134.3 23.7388C131.827 23.1793 128.983 23.5319 127.196 25.3277" fill="#FF6739"/>
<path d="M123.689 30.7947C120.078 35.2937 121.535 41.988 125.701 45.6361C130.435 49.7777 137.453 48.1041 141.177 43.4407C144.773 39.0223 144.937 32.7339 141.576 28.1339C138.351 23.8042 131.478 21.0259 126.951 25.0688C126.594 25.3838 127.116 25.9009 127.468 25.586C131.873 21.6982 138.525 24.9231 141.318 29.1682C144.11 33.4132 143.668 38.937 140.537 42.8765C137.04 47.3049 130.444 48.8281 126.02 44.8322C122.259 41.4239 120.849 35.3172 124.088 31.105C124.262 30.8747 123.867 30.5691 123.689 30.7947V30.7947Z" fill="#FF6739"/>
<path d="M123.143 30.2512C119.049 35.0369 120.323 42.4128 124.845 46.4934C130.016 51.1945 137.881 49.4927 142.065 44.3309C146.075 39.3807 146.372 32.3572 142.437 27.2801C138.723 22.4897 131.154 19.7583 126.171 24.2902C124.761 25.5689 126.829 27.6044 128.249 26.3681C132.08 23.0397 137.919 26.18 140.27 29.781C142.703 33.6209 142.414 38.5857 139.55 42.1167C136.495 45.9716 130.806 47.3631 126.857 43.9971C123.322 40.9555 121.907 35.4505 124.737 31.5063C125.414 30.5661 123.886 29.3815 123.129 30.2653L123.143 30.2512Z" fill="black"/>
<path d="M128.145 30.053C126.086 32.6856 124.638 35.9153 126.095 39.206C127.346 42.0267 130.9 44.0434 133.843 42.6566C134.783 42.2147 134.106 40.5835 133.133 40.9736C130.66 41.9562 128.732 38.7688 128.38 36.7427C128.097 34.7738 128.465 32.7665 129.428 31.0262C129.833 30.2505 128.742 29.2633 128.145 30.0342L128.145 30.053Z" fill="white"/>
<path d="M137.466 41.7695L137.527 41.7037C137.745 41.4809 137.829 41.1588 137.748 40.8575L137.663 40.6507C137.585 40.522 137.477 40.4139 137.348 40.3357C137.144 40.2261 136.906 40.196 136.681 40.2511C136.534 40.2877 136.401 40.3642 136.295 40.472C136.188 40.5793 136.111 40.712 136.069 40.8575L136.041 40.9374L136.008 41.1678C136.004 41.2807 136.03 41.3926 136.083 41.4921C136.101 41.5637 136.139 41.6288 136.192 41.6802C136.251 41.7735 136.334 41.8496 136.431 41.9011L136.634 41.9858L136.864 42.0187C136.978 42.0247 137.092 41.9987 137.193 41.9435C137.297 41.9094 137.391 41.8496 137.466 41.7695V41.7695Z" fill="white"/>
<path d="M138.781 36.3149L138.716 36.2537C138.616 36.1538 138.491 36.0824 138.354 36.0469C138.213 36.0046 138.062 36.0046 137.921 36.0469L137.724 36.1268C137.602 36.1981 137.502 36.3003 137.432 36.423C137.372 36.512 137.338 36.6163 137.334 36.7239C137.305 36.8317 137.305 36.945 137.334 37.0529C137.374 37.1875 137.446 37.3102 137.545 37.4102C137.644 37.5122 137.769 37.5854 137.907 37.6218L137.987 37.6547L138.203 37.6829C138.31 37.6882 138.415 37.6638 138.509 37.6124C138.577 37.595 138.639 37.5592 138.687 37.5089C138.774 37.4516 138.845 37.3741 138.894 37.2833L138.974 37.0952L139.002 36.879C139.008 36.7726 138.983 36.6667 138.932 36.5734C138.903 36.4733 138.846 36.3835 138.767 36.3149L138.781 36.3149Z" fill="white"/>
<path d="M134.214 32.755L134.336 32.7079C134.456 32.6803 134.566 32.622 134.656 32.5387C134.756 32.4711 134.838 32.3809 134.896 32.2754L134.99 32.0498C135.023 31.9282 135.023 31.8 134.99 31.6784C134.99 31.594 134.967 31.5112 134.924 31.4387C134.886 31.324 134.819 31.2207 134.731 31.1378L134.539 30.9921C134.396 30.9092 134.234 30.8654 134.068 30.8651L133.941 30.8651C133.776 30.8705 133.615 30.9156 133.471 30.9968L133.279 31.1472C133.161 31.2642 133.077 31.4102 133.034 31.5703C132.999 31.6948 132.999 31.8266 133.034 31.9511C133.043 32.0759 133.082 32.1969 133.147 32.3037C133.284 32.5104 133.486 32.6659 133.721 32.7456C133.887 32.7879 134.062 32.7879 134.228 32.7456L134.214 32.755Z" fill="white"/>
<path d="M138.334 32.6651C138.334 32.26 138.006 31.9317 137.601 31.9317C137.196 31.9317 136.867 32.26 136.867 32.6651C136.867 33.0701 137.196 33.3984 137.601 33.3984C138.006 33.3984 138.334 33.0701 138.334 32.6651Z" fill="white"/>
<path d="M26.8528 48.7385C32.1885 48.7714 37.2563 48.7808 42.5685 49.5283C44.1198 49.7492 44.8297 47.4081 43.2313 47.1213C37.9144 46.1811 31.9252 45.8755 26.6036 46.8957C25.5412 47.0978 25.8185 48.7338 26.8528 48.7385Z" fill="black"/>
<path d="M41.335 32.8616C41.2602 32.0777 41.4241 31.2895 41.8051 30.6004C42.3927 29.5568 40.7427 28.6166 40.2161 29.6602C39.7051 30.6416 39.4957 31.7522 39.6144 32.8522C39.6292 33.3177 40.0044 33.6909 40.47 33.7031C40.9378 33.698 41.3158 33.32 41.3209 32.8522L41.335 32.8616Z" fill="black"/>
<path d="M55.7839 34.2272L55.751 33.4092C55.7777 33.0016 55.5754 32.613 55.2262 32.4011C54.877 32.1892 54.4389 32.1892 54.0897 32.4011C53.7405 32.613 53.5382 33.0016 53.565 33.4092L53.5273 34.2272C53.5273 34.8503 54.0325 35.3555 54.6556 35.3555C55.2787 35.3555 55.7839 34.8503 55.7839 34.2272V34.2272Z" fill="black"/>
<path d="M57.0462 83.2894C61.8131 81.8791 66.1522 78.5413 69.6592 75.1236C70.952 73.859 68.9305 71.8329 67.6753 73.1398C64.2859 76.6609 60.3887 78.9738 56.3222 81.5735C55.4478 82.1329 55.9932 83.5997 57.0462 83.2894Z" fill="black"/>
<path d="M68.601 57.9209C68.6386 57.8362 68.6856 57.7563 68.7279 57.6764C68.8125 57.5213 68.6292 57.7704 68.7279 57.6435C68.8266 57.5166 68.8595 57.5166 68.9253 57.4508C69.0664 57.3097 68.8971 57.4508 68.9911 57.3896L69.1839 57.2768C69.2826 57.2204 69.0758 57.2768 69.2638 57.2439C69.3343 57.2439 69.4048 57.2063 69.4801 57.1922C69.2591 57.2298 69.5929 57.1922 69.6164 57.1922C70.036 57.2193 70.4359 57.0109 70.6539 56.6513C70.8719 56.2918 70.8719 55.8408 70.6539 55.4813C70.4359 55.1217 70.036 54.9133 69.6164 54.9404C68.2211 54.8216 66.9324 55.6932 66.5231 57.0324C66.3771 57.5765 66.6549 58.1449 67.1738 58.3641C67.6928 58.5833 68.2939 58.3861 68.5822 57.9021L68.601 57.9209Z" fill="black"/>
<path d="M85.7061 56.4407L87.3421 57.2587C87.8717 57.5677 88.5516 57.3888 88.8605 56.8591C89.1695 56.3295 88.9906 55.6497 88.4609 55.3407L86.8297 54.5227C86.3 54.2124 85.6191 54.3903 85.3089 54.9199C84.9986 55.4496 85.1764 56.1305 85.7061 56.4407Z" fill="black"/>
<path d="M104.347 63.9315C104.347 62.413 101.996 62.413 101.996 63.9315C101.996 65.4499 104.347 65.4499 104.347 63.9315Z" fill="black"/>
<path d="M132.126 97.9392C129.973 95.3865 127.077 93.2617 124.605 91.0192C123.594 90.1025 122.09 91.6116 123.11 92.5142C125.672 94.7848 128.168 97.4785 131.012 99.3872C131.952 100.003 132.766 98.6914 132.131 97.9392L132.126 97.9392Z" fill="black"/>
<path d="M142.412 78.3563L141.048 74.5391C140.578 73.1851 138.383 73.7681 138.877 75.1408L140.235 78.9581C140.705 80.312 142.901 79.729 142.412 78.3563Z" fill="black"/>
<path d="M133.408 116.167L131.772 115.076C131.266 114.786 130.622 114.956 130.324 115.457C130.042 115.963 130.21 116.602 130.705 116.905L132.341 117.995C132.846 118.285 133.491 118.116 133.789 117.615C134.07 117.108 133.902 116.469 133.408 116.167Z" fill="black"/>
<path d="M117.806 111.46C117.166 110.8 116.35 110.339 115.455 110.129C114.919 109.981 114.364 110.296 114.216 110.832C114.068 111.368 114.383 111.923 114.919 112.071C115.482 112.185 115.998 112.469 116.395 112.884C117.303 113.824 118.746 112.391 117.806 111.474L117.806 111.46Z" fill="black"/>
<path d="M68.0607 99.9157C68.0193 99.2241 68.1828 98.5356 68.5308 97.9365C69.1467 96.8882 67.4637 95.9197 66.9136 96.9963C66.4335 97.892 66.2229 98.9076 66.3072 99.9204C66.4059 101.016 68.0889 101.058 68.0466 99.9204L68.0607 99.9157Z" fill="black"/>
<path d="M123.824 64.4602C127.115 63.2379 130.405 62.0485 133.668 60.7511C134.81 60.2809 134.335 58.4287 133.151 58.8706C129.86 60.1117 126.621 61.4609 123.363 62.7772C122.348 63.1862 122.761 64.8504 123.833 64.4555L123.824 64.4602Z" fill="black"/>
<path d="M157.629 51.9852C157.522 51.9047 157.423 51.815 157.333 51.7172C157.469 51.8629 157.248 51.5715 157.22 51.5292C157.163 51.4116 157.163 51.4069 157.22 51.5292L157.168 51.3364C157.14 51.2048 157.14 51.2048 157.168 51.3364L157.168 51.1343C157.168 50.5215 156.671 50.0248 156.059 50.0248C155.446 50.0248 154.949 50.5215 154.949 51.1343C154.982 52.1636 155.507 53.1147 156.36 53.6917C156.827 53.9517 157.414 53.831 157.741 53.4077C158.068 52.9844 158.036 52.3857 157.666 51.9993L157.629 51.9852Z" fill="black"/>
<path d="M176.608 60.1078L176.885 59.0171C176.981 58.6703 176.884 58.2988 176.632 58.0424C176.379 57.7861 176.009 57.684 175.661 57.7745C175.313 57.865 175.039 58.1344 174.943 58.4812L174.685 59.5531C174.589 59.8999 174.686 60.2714 174.938 60.5278C175.191 60.7841 175.561 60.8862 175.909 60.7957C176.257 60.7052 176.531 60.4358 176.626 60.089L176.608 60.1078Z" fill="black"/>
<path d="M152.677 113.415L154.656 109.654C155.225 108.569 153.518 107.624 153.034 108.714L151.295 112.621C150.881 113.561 152.188 114.36 152.677 113.429L152.677 113.415Z" fill="black"/>
<path d="M96.4582 33.2248C99.937 35.9091 105.306 39.1952 109.866 37.9259C111.802 37.3946 110.933 34.2825 109.038 34.9266C105.31 36.1818 100.76 33.0085 97.53 31.3773C96.2795 30.7473 95.4051 32.388 96.4582 33.206L96.4582 33.2248Z" fill="black"/>
<path d="M162.026 34.862C165.989 32.1824 170.155 29.8036 174.103 27.1052C175.382 26.2308 174.268 24.2517 172.881 25.0085C168.693 27.298 164.8 30.2173 160.959 33.0333C159.878 33.8231 160.879 35.6377 162.026 34.862Z" fill="black"/>
<path d="M19.2332 41.2485C19.7073 40.513 20.3525 39.9032 21.1137 39.4715C22.256 38.8134 21.203 37.0034 20.0794 37.7039C19.0479 38.3441 18.1854 39.2228 17.5643 40.266C16.9203 41.3472 18.5704 42.2969 19.2426 41.2485L19.2332 41.2485Z" fill="black"/>
<path d="M18.138 56.6461L17.5927 55.8281C17.4398 55.5094 17.1211 55.3033 16.7677 55.2947C16.4144 55.2862 16.086 55.4765 15.9179 55.7874C15.7497 56.0983 15.7702 56.4773 15.9708 56.7683L16.5161 57.5816C16.7947 57.9857 17.3372 58.1075 17.7618 57.8614C18.1864 57.6152 18.3502 57.0839 18.138 56.6414L18.138 56.6461Z" fill="black"/>
<path d="M0.680979 34.1668L5.31624 34.9848C6.62784 35.2199 7.19667 33.2125 5.87097 32.9774L1.23571 32.1595C-0.0758946 31.9244 -0.644725 33.9318 0.680979 34.1668Z" fill="black"/>
<path d="M80.512 117.954C81.8305 117.441 83.0221 116.649 84.0049 115.632C84.9075 114.691 83.4267 113.234 82.5946 114.221C81.8304 115.104 80.882 115.808 79.8163 116.285C78.876 116.708 79.5577 118.358 80.5261 117.968L80.512 117.954Z" fill="black"/>
<path d="M41.5688 91.6265L44.8595 91.6641C46.1758 91.6641 46.1805 89.6003 44.8595 89.6144L41.5688 89.6473C40.2948 89.6473 40.2948 91.6171 41.5688 91.6265Z" fill="black"/>
<path d="M102.538 114.354C102.7 112.813 102.7 111.259 102.538 109.719C102.401 108.468 100.427 108.449 100.554 109.719C100.716 111.259 100.716 112.813 100.554 114.354C100.413 115.637 102.434 115.637 102.566 114.354L102.538 114.354Z" fill="black"/>
<path d="M117.195 82.062C118.502 80.7647 119.722 79.3828 120.847 77.925C121.178 77.5763 121.282 77.0698 121.114 76.6192C120.947 76.1687 120.538 75.8526 120.06 75.8044C119.581 75.7563 119.117 75.9844 118.864 76.3925C117.761 77.8706 116.756 79.419 115.855 81.0278C115.648 81.3978 115.743 81.8634 116.079 82.1225C116.414 82.3815 116.889 82.3558 117.195 82.062V82.062Z" fill="#FF6739"/>
<path d="M105.788 75.2149L102.535 73.1465C101.27 72.3379 100.086 74.3687 101.36 75.1491L104.65 77.1612C105.891 77.9228 107.001 75.9953 105.788 75.2149Z" fill="#FF6739"/>
<path d="M93.2464 73.0804C91.6726 72.7989 90.0509 73.1357 88.7193 74.0206C87.544 74.8198 88.6535 76.7472 89.8381 75.9386C90.6505 75.3441 91.6605 75.0849 92.6588 75.2147C93.2482 75.3586 93.8477 75.0186 94.0268 74.439C94.1834 73.849 93.8383 73.2425 93.2511 73.0757L93.2464 73.0804Z" fill="#FF6739"/>
<path d="M84.3772 87.6346C84.2832 87.5312 84.2691 87.5218 84.3349 87.6064C84.2906 87.5438 84.2513 87.4778 84.2174 87.409C84.3302 87.6346 84.1468 87.1363 84.1751 87.2914C84.1751 87.3714 84.1751 87.0517 84.1751 86.9906C84.1515 87.2021 84.2597 86.7884 84.2785 86.7414C84.4322 86.1289 84.0723 85.5048 83.4652 85.3311C82.8541 85.1876 82.2367 85.5436 82.0549 86.1444C81.652 87.2401 81.9237 88.4701 82.7506 89.2941C83.8037 90.3612 85.4443 88.7206 84.396 87.6534L84.3772 87.6346Z" fill="#FF6739"/>
<path d="M80.0561 107.405L79.2522 104.537C78.8855 103.226 76.8264 103.785 77.2119 105.102L78.044 107.974C78.4201 109.257 80.4181 108.717 80.0561 107.424L80.0561 107.405Z" fill="#FF6739"/>
<path d="M70.6383 85.7793C71.536 85.1793 72.5472 84.7697 73.6094 84.5758C74.7894 84.3408 74.5496 82.3898 73.3227 82.4651C71.9433 82.5487 70.614 83.0124 69.4819 83.8049C68.2737 84.6323 69.4208 86.6255 70.6383 85.7793V85.7793Z" fill="#FF6739"/>
<path d="M138.486 88.336L137.254 87.5274C136.724 87.2235 136.048 87.4014 135.736 87.927C135.442 88.4587 135.618 89.1271 136.135 89.4455L137.367 90.254C137.897 90.558 138.573 90.3801 138.885 89.8545C139.179 89.3228 139.003 88.6544 138.486 88.336V88.336Z" fill="#FF6739"/>
<path d="M141.912 105.951L142.74 103.502C142.848 103.108 142.738 102.686 142.451 102.395C142.164 102.105 141.744 101.989 141.349 102.092C140.954 102.195 140.643 102.501 140.535 102.895L139.736 105.354C139.571 105.955 139.925 106.576 140.526 106.741C141.127 106.906 141.748 106.552 141.912 105.951V105.951Z" fill="#FF6739"/>
<path d="M149.823 68.6723L150.293 67.0551C150.389 66.7083 150.292 66.3367 150.04 66.0804C149.787 65.8241 149.417 65.722 149.069 65.8125C148.721 65.903 148.447 66.1724 148.352 66.5192L148.008 68.1693C147.896 68.6593 148.189 69.1511 148.673 69.2858C149.157 69.4204 149.662 69.1501 149.818 68.6723L149.823 68.6723Z" fill="#FF6739"/>
<path d="M168.396 106.455L168.805 101.547C168.917 100.212 166.83 100.217 166.722 101.547L166.313 106.455C166.2 107.79 168.283 107.781 168.396 106.455Z" fill="#FF6739"/>
<path d="M161.138 67.6283C161.725 66.6376 161.966 65.4802 161.824 64.3375C161.669 62.8614 159.502 63.1434 159.812 64.6102C159.952 65.405 159.893 66.2218 159.643 66.9889C159.551 67.3796 159.755 67.7795 160.124 67.9353C160.494 68.0912 160.923 67.9574 161.138 67.6189L161.138 67.6283Z" fill="#FF6739"/>
<path d="M165.71 43.9177C167.417 44.026 169.122 43.6891 170.66 42.9398C172.968 41.9197 175.591 40.1568 178.182 41.2804C178.593 41.506 179.098 41.477 179.481 41.2056C179.864 40.9342 180.058 40.4681 179.982 40.0049C179.906 39.5417 179.572 39.1626 179.122 39.0285C174.106 37.0729 170.462 42.0043 165.681 42.1407C165.191 42.1407 164.793 42.5384 164.793 43.0292C164.793 43.5199 165.191 43.9177 165.681 43.9177L165.71 43.9177Z" fill="#FF6739"/>
<path d="M151.473 22.9464L150.312 20.4595C149.729 19.2184 147.796 20.3091 148.431 21.5455L149.714 23.9665C149.996 24.4468 150.614 24.6078 151.094 24.3261C151.575 24.0444 151.736 23.4267 151.454 22.9464L151.473 22.9464Z" fill="#FF6739"/>
<path d="M146.65 46.1704L141.309 46.9461C140.045 47.1294 140.562 49.118 141.845 48.8923L147.134 47.9521C148.309 47.7453 147.792 46.0106 146.664 46.1751L146.65 46.1704Z" fill="#FF6739"/>
<path d="M108.87 57.7825L112.631 54.172C113.708 53.1331 112.039 51.4595 110.986 52.5267L107.338 56.2358C106.346 57.2418 107.869 58.7603 108.884 57.7825L108.87 57.7825Z" fill="#FF6739"/>
<path d="M110.708 24.0694C110.839 23.1292 111.521 22.6591 112.428 22.4663C113.51 22.2595 113.26 20.5154 112.17 20.553C110.452 20.6859 109.128 22.121 109.133 23.8437C109.133 24.7134 110.581 24.9767 110.708 24.0553L110.708 24.0694Z" fill="#FF6739"/>
<path d="M114.76 48.6559C114.024 47.2448 112.743 46.1955 111.215 45.7506C109.88 45.3604 109.335 47.4242 110.642 47.8285C111.624 48.1317 112.434 48.8325 112.875 49.7607C113.505 51.0158 115.404 49.9064 114.755 48.6559L114.76 48.6559Z" fill="#FF6739"/>
<path d="M86.1187 49.6194C86.1187 48.4113 84.2383 48.4113 84.2383 49.6194C84.2383 50.8276 86.1187 50.8323 86.1187 49.6194Z" fill="#FF6739"/>
<path d="M75.4094 68.799C74.4668 67.8704 73.2801 67.2281 71.9871 66.9468C71.3787 66.7919 70.7565 67.1445 70.5767 67.746C70.4085 68.3561 70.7661 68.9872 71.3759 69.1563C72.2952 69.3182 73.1486 69.7408 73.8346 70.3739C74.8782 71.347 76.4343 69.8051 75.4047 68.8037L75.4094 68.799Z" fill="#FF6739"/>
<path d="M49.8019 63.6974C50.4973 62.2221 50.9498 60.6442 51.1417 59.0245C51.103 58.4208 50.602 57.9509 49.997 57.9509C49.392 57.9509 48.891 58.4208 48.8523 59.0245C48.7197 60.253 48.3928 61.4526 47.8839 62.5786C47.3009 63.862 49.1861 64.9996 49.8019 63.6974V63.6974Z" fill="#FF6739"/>
<path d="M50.1047 49.2462C51.8327 48.3264 53.8056 47.9713 55.7459 48.2307C57.0717 48.3906 57.067 46.2986 55.7459 46.1482C53.4405 45.8944 51.1128 46.3573 49.0798 47.4739C47.9187 48.1038 48.9482 49.862 50.1141 49.2462L50.1047 49.2462Z" fill="#FF6739"/>
<path d="M62.0262 47.582L61.6172 50.8492C61.6223 51.4417 62.1013 51.9207 62.6937 51.9258C63.2831 51.9133 63.7578 51.4386 63.7703 50.8492L64.1793 47.582C64.1767 46.9885 63.6962 46.508 63.1027 46.5054C62.5144 46.5203 62.041 46.9937 62.0262 47.582V47.582Z" fill="#FF6739"/>
<path d="M56.287 99.2394L55.0882 94.7405C54.7356 93.4148 52.606 94.0118 53.0432 95.2999L54.5429 99.7189C54.9096 100.814 56.5879 100.377 56.287 99.2488L56.287 99.2394Z" fill="#FF6739"/>
<path d="M28.5815 54.2884L26.8844 52.3046C26.5206 51.9553 25.9461 51.9553 25.5822 52.3046C25.233 52.6684 25.233 53.2429 25.5822 53.6068L27.2088 55.6658C27.5905 56.0385 28.1998 56.0385 28.5815 55.6658C28.9523 55.2815 28.9523 54.6727 28.5815 54.2884V54.2884Z" fill="#FF6739"/>
<path d="M25.3463 32.1524C27.0547 31.6657 28.3901 30.3303 28.8768 28.6219C29.2623 27.362 27.2362 26.8026 26.8977 28.0766C26.5781 29.2085 25.7745 30.1412 24.7023 30.6246C23.8373 31.0383 24.4484 32.4063 25.3463 32.1524V32.1524Z" fill="#FF6739"/>
<path d="M11.2223 45.0275C10.5688 43.9133 9.90126 42.8321 9.182 41.7367C8.46273 40.6414 6.88317 41.6427 7.53192 42.7005C8.18067 43.7582 8.91874 44.8677 9.66151 45.9254C10.3197 46.8656 11.8193 46.0335 11.2223 45.0087L11.2223 45.0275Z" fill="#FF6739"/>
<path d="M100.526 20.6608C99.2659 18.456 97.3479 16.491 95.7683 14.5024C94.8939 13.4024 93.2438 14.9725 94.1982 16.0726C95.82 17.9201 97.3526 20.0732 99.2377 21.6527C99.9241 22.2263 101.01 21.5117 100.526 20.6608V20.6608Z" fill="#FF6739"/>
<path d="M90.9492 44.1017C90.5684 45.324 90.2252 46.5604 89.7786 47.7591C89.5201 48.4549 90.277 48.9955 90.8881 48.8733C92.1077 48.6152 93.2139 47.9765 94.0472 47.0493C94.9263 46.1091 93.4878 44.6611 92.6369 45.639C92.0326 46.3135 91.2724 46.83 90.4227 47.1433L91.5368 48.2528C91.8001 47.0023 92.1715 45.7753 92.5053 44.5389C92.6221 44.1131 92.3716 43.6732 91.9458 43.5564C91.52 43.4395 91.0802 43.69 90.9633 44.1158L90.9492 44.1017Z" fill="#FF6739"/>
<path d="M161.483 20.1878C161.595 18.1727 161.445 16.1515 161.036 14.1751C160.759 12.8212 158.686 13.3948 158.958 14.7487C159.319 16.5377 159.444 18.3663 159.33 20.1878C159.25 21.5699 161.403 21.5652 161.483 20.1878V20.1878Z" fill="#FF6739"/>
</svg>
