<svg width="165" height="104" viewBox="0 0 165 104" fill="none" xmlns="http://www.w3.org/2000/svg">
<path d="M1.84612 45.3251C17.7826 44.2226 30.5266 31.6493 31.8439 15.7291C31.8408 14.925 31.4112 14.1828 30.7155 13.7795C30.0198 13.3762 29.1623 13.3723 28.4629 13.7691C20.0643 19.8451 15.7229 31.7619 20.8679 41.3855C27.5809 53.8413 40.7129 45.7073 47.5533 38.1711L43.8587 35.3389C41.8987 38.2789 42.9669 41.5815 45.6325 43.6689C48.8175 46.1483 52.6199 45.3643 55.8245 43.3553C60.9303 40.1703 64.6445 36.8481 70.6225 35.0743C76.6005 33.3005 82.5295 31.8207 88.4977 30.3899C115.693 23.8631 143.799 21.1975 171.21 15.6899C173.385 15.2489 172.405 12.1325 170.298 12.4167C147.896 15.4841 125.591 19.6883 103.296 23.4711C93.1919 25.1763 83.1273 27.1559 73.1901 29.6451C68.923 30.5666 64.7948 32.0426 60.9107 34.0355C59.4102 34.9097 57.9756 35.8923 56.6183 36.9755C55.3149 37.9555 54.0507 39.4157 52.4435 39.9155C51.5517 40.1801 45.9951 40.5721 47.9257 37.7693C49.4447 35.5643 46.0245 32.9477 44.2311 34.9175C39.0077 40.6211 27.9925 49.2059 24.0235 37.0245C21.7303 29.9489 24.8761 22.0011 30.7365 17.7087L27.3653 15.7487C26.1405 29.316 15.4428 40.096 1.88532 41.4247C-0.60388 41.6305 -0.65288 45.5113 1.88532 45.3447L1.84612 45.3251Z" fill="#A0D195"/>
<path d="M21.9841 7.01326C32.4846 8.19595 43.1156 6.85195 52.9913 3.09326C54.8337 2.39746 54.0497 -0.591542 52.1681 0.104258C42.5497 3.75086 32.2295 5.16822 21.9841 4.24966C20.2201 4.08306 20.2593 6.80746 21.9841 6.99366V7.01326Z" fill="#A0D195"/>
<path d="M22.3473 69.4322C30.1873 67.4722 38.1155 65.5612 45.9359 63.415C46.7463 63.1242 47.1957 62.2581 46.967 61.428C46.7383 60.598 45.9087 60.0843 45.0637 60.2496C37.2237 62.2096 29.3837 64.5126 21.5437 66.6686C20.7806 66.877 20.3308 67.6646 20.5392 68.4277C20.7476 69.1909 21.5352 69.6406 22.2983 69.4322H22.3473Z" fill="#A0D195"/>
<path d="M33.6744 103.573C43.9839 104.141 53.3115 97.4912 56.136 87.5598C56.2941 86.9729 56.1708 86.3459 55.8025 85.8624C55.4341 85.3789 54.8622 85.0937 54.2544 85.0902C50.8342 84.9628 48.7762 88.0302 49.0604 91.3132C49.423 95.3116 53.1862 97.056 56.8318 96.5954C59.4336 96.1179 61.8618 94.9579 63.8682 93.234C64.9021 92.3156 65.9992 91.4707 67.1512 90.7056C69.1112 89.6374 69.1112 89.8432 70.3068 90.9898C71.8258 92.4696 72.0512 93.7044 74.3346 94.557C76.4864 95.287 78.8276 95.228 80.9398 94.3904C83.6936 93.4104 85.9476 91.4504 88.4956 90.0392C91.8738 88.2962 95.5158 87.1208 99.2756 86.5602C106.381 85.3744 113.623 85.7958 120.836 85.6488C126.206 85.5508 129.656 84.3062 131.273 78.7888C133.105 72.4482 132.723 65.5784 131.096 59.2476C130.839 58.3826 130.149 57.7142 129.276 57.484C128.404 57.2539 127.474 57.4951 126.823 58.1206C121.865 62.8834 117.21 69.175 118.778 76.4662C120.248 83.3262 126.059 86.4132 132.713 85.639C136.732 85.1386 140.647 84.011 144.316 82.2972C146.492 81.3172 148.491 79.4944 150.677 78.632C153.185 77.652 155.028 78.7104 157.448 79.3082C165.984 81.4348 174.275 76.7896 181.272 72.4482C183.889 70.8116 181.517 66.7152 178.842 68.293C173.256 71.5858 166.366 75.7116 159.575 74.5454C156.988 74.0946 154.812 72.3208 152.107 72.5854C149.403 72.85 147.521 74.6532 145.355 75.9468C140.671 78.7398 129.744 83.7868 125.295 78.5536C120.493 72.9186 126.343 65.7058 130.44 61.7564L126.167 60.6294C127.539 65.5816 127.744 70.7846 126.765 75.8292C126.049 79.2396 124.393 80.1412 120.885 80.5822C118.685 80.7048 116.479 80.7048 114.279 80.5822C105.969 80.641 97.394 80.8664 89.5932 84.0416C86.0554 85.4822 81.5474 90.049 77.7352 90.1372C73.923 90.2254 75.1676 86.1486 72.2668 84.7864C69.8266 83.6398 66.8964 85.1882 64.8776 86.5406C63.5546 87.4128 62.3884 88.5006 61.1242 89.4806C60.0115 90.4368 58.7371 91.1868 57.361 91.6954C53.441 91.7412 52.461 90.8265 54.421 88.9514L52.5394 86.4916C50.2711 94.8356 42.474 100.455 33.841 99.9666C31.538 99.8588 31.5576 103.406 33.841 103.534L33.6744 103.573Z" fill="#A0D195"/>
</svg>
