<svg width="555" height="614" viewBox="0 0 555 614" fill="none" xmlns="http://www.w3.org/2000/svg">
<path d="M97.8371 547.098L101.537 543.028L101.533 543.025L97.8371 547.098ZM61.0589 188.043L65.2284 191.63L73.0452 182.543H61.0589V188.043ZM478.502 500.242L474.235 496.771L474.234 496.772L478.502 500.242ZM487.54 123.526L483.185 126.884L483.186 126.886L487.54 123.526ZM128.278 56.5146L124.602 52.4232L124.597 52.4282L124.591 52.4332L128.278 56.5146ZM174.302 102.435L177.868 106.623L177.883 106.61L177.899 106.597L174.302 102.435ZM439.75 178.797L444.407 175.871L444.385 175.836L444.363 175.802L439.75 178.797ZM422.919 451.413L418.657 447.936L418.64 447.957L418.623 447.979L422.919 451.413ZM142.407 491.619L138.808 495.778L138.815 495.784L142.407 491.619ZM96.3826 215.471L100.843 218.69L100.846 218.685L96.3826 215.471ZM60.8511 188.043L56.6831 184.455L48.8582 193.543H60.8511V188.043ZM171.429 183.715L175.755 187.112L176.929 185.616V183.715H171.429ZM125.716 385.995L130.751 383.78L130.75 383.779L125.716 385.995ZM171.429 183.611L167.104 180.214L165.929 181.71V183.611H171.429ZM199.792 205.532L204.597 208.208L204.628 208.153L204.657 208.098L199.792 205.532ZM176.312 331.763L170.866 332.532L170.877 332.609L170.89 332.685L176.312 331.763ZM280.933 425.266L278.907 420.153L278.907 420.153L280.933 425.266ZM296.621 462.564L294.301 457.577L294.289 457.583L296.621 462.564ZM378.26 441.81L374.335 437.958L374.281 438.012L374.23 438.068L378.26 441.81ZM376.909 443.265L380.889 447.061L380.915 447.034L380.94 447.007L376.909 443.265ZM383.143 423.109L388.451 421.668L388.362 421.341L388.233 421.027L383.143 423.109ZM381.273 418.538L386.363 416.456L386.199 416.053L385.973 415.681L381.273 418.538ZM374.312 411.577L377.169 406.878L377.042 406.8L376.91 406.73L374.312 411.577ZM359.559 409.707L358.253 404.365L358.238 404.368L358.223 404.372L359.559 409.707ZM351.04 414.59L354.941 418.467L354.955 418.454L354.968 418.44L351.04 414.59ZM346.053 423.109L351.24 424.94L351.297 424.778L351.344 424.613L346.053 423.109ZM345.43 424.876L340.243 423.045L340.062 423.559L339.985 424.098L345.43 424.876ZM344.703 429.966L339.258 429.189L339.215 429.489L339.205 429.792L344.703 429.966ZM346.365 437.135L351.702 435.808L351.54 435.155L351.224 434.559L346.365 437.135ZM348.754 441.291L353.395 438.339L353.049 437.795L352.586 437.345L348.754 441.291ZM354.053 446.174L351.49 451.04L351.705 451.153L351.929 451.247L354.053 446.174ZM358.52 448.044L356.397 453.117L357.046 453.389L357.742 453.489L358.52 448.044ZM363.611 448.771L362.833 454.216L363.076 454.25L363.32 454.263L363.611 448.771ZM370.884 447.109L369.119 441.9L368.66 442.055L368.235 442.288L370.884 447.109ZM406.246 323.168V328.668H420.252L409.989 319.138L406.246 323.168ZM404.792 321.817L400.91 325.714L400.978 325.782L401.049 325.848L404.792 321.817ZM405.934 323.168V317.668H391.848L402.208 327.213L405.934 323.168ZM409.571 328.882L404.328 330.545L404.492 331.062L404.754 331.537L409.571 328.882ZM411.129 335.635L416.583 336.347L416.611 336.129L416.622 335.911L411.129 335.635ZM410.506 340.414L415.521 342.671L415.854 341.931L415.96 341.126L410.506 340.414ZM408.636 344.57L413.546 347.047L413.601 346.938L413.651 346.827L408.636 344.57ZM404.064 349.557L401.17 344.88L400.554 345.261L400.058 345.789L404.064 349.557ZM400.22 351.843L398.823 346.523L398.173 346.694L397.584 347.016L400.22 351.843ZM393.363 353.401L392.636 358.853L392.854 358.882L393.072 358.893L393.363 353.401ZM388.688 352.778L386.594 357.863L387.254 358.135L387.961 358.229L388.688 352.778ZM386.922 352.05L389.016 346.965L388.662 346.819L388.292 346.724L386.922 352.05ZM378.922 347.375L382.891 343.567L382.825 343.499L382.757 343.433L378.922 347.375ZM374.247 339.375L368.93 340.781L368.93 340.782L374.247 339.375ZM374.247 332.207L379.564 333.612L379.713 333.05L379.741 332.469L374.247 332.207ZM376.325 325.454L381.016 328.325L381.025 328.309L381.035 328.293L376.325 325.454ZM382.87 319.012L380.704 313.957L380.396 314.089L380.106 314.257L382.87 319.012ZM387.234 317.142L385.82 311.827L385.434 311.93L385.067 312.087L387.234 317.142ZM396.792 317.142L398.281 311.848L398.243 311.837L398.205 311.827L396.792 317.142ZM308.198 242.561L307.006 237.191L306.57 237.288L306.155 237.454L308.198 242.561ZM305.601 243.6L302.771 238.883L307.643 248.706L305.601 243.6ZM315.263 238.821L312.335 234.164L311.882 234.449L311.492 234.817L315.263 238.821ZM320.665 233.003L325.525 235.578L325.635 235.371L325.726 235.156L320.665 233.003ZM322.743 228.12L327.804 230.273L327.956 229.915L328.057 229.539L322.743 228.12ZM322.743 219.808L317.243 219.77L317.238 220.511L317.429 221.227L322.743 219.808ZM321.392 214.613L316.165 216.324L316.336 216.847L316.608 217.325L321.392 214.613ZM317.029 207.86L320.736 203.798L320.573 203.649L320.398 203.513L317.029 207.86ZM312.873 204.64L316.242 200.292L315.951 200.067L315.633 199.882L312.873 204.64ZM302.484 201.835L302.494 196.335H302.484V201.835ZM299.783 201.835V196.335H299.756L299.73 196.335L299.783 201.835ZM289.393 204.64L286.671 199.861L286.324 200.058L286.009 200.304L289.393 204.64ZM285.134 207.964L281.75 203.629L281.486 203.834L281.25 204.07L285.134 207.964ZM279.731 217.315L285.024 218.81L285.035 218.772L285.045 218.734L279.731 217.315ZM279.731 225.73L285.228 225.539L285.205 224.875L285.024 224.235L279.731 225.73ZM282.225 233.522L286.914 230.648L286.864 230.566L286.811 230.486L282.225 233.522ZM294.9 243.288L293.317 248.555L293.366 248.57L293.415 248.584L294.9 243.288ZM306.12 243.288L308.95 248.004L304.635 237.992L306.12 243.288ZM101.533 543.025C3.62602 454.204 -23.2327 294.464 65.2284 191.63L56.8893 184.457C-36.2549 292.734 -7.219 459.218 94.1416 551.172L101.533 543.025ZM474.234 496.772C383.034 608.933 212.916 644.282 101.537 543.028L94.1374 551.168C211.323 657.7 388.624 619.494 482.769 503.712L474.234 496.772ZM483.186 126.886C568.28 237.151 561.556 389.434 474.235 496.771L482.768 503.713C573.105 392.667 580.303 234.725 491.895 120.165L483.186 126.886ZM131.953 60.6059C185.559 12.4464 252.938 2.79392 317.332 18.3426C381.842 33.9193 442.985 74.7463 483.185 126.884L491.896 120.167C450.228 66.1261 386.959 23.8386 319.914 7.64993C252.754 -8.56668 181.435 1.36469 124.602 52.4232L131.953 60.6059ZM170.737 98.2477C157.652 109.389 141.582 105.957 131.66 96.1692C126.723 91.3001 123.698 85.1678 123.386 79.0563C123.083 73.1165 125.302 66.6147 131.965 60.5959L124.591 52.4332C115.67 60.4919 111.915 70.1195 112.4 79.6177C112.877 88.944 117.404 97.5581 123.935 104C136.947 116.836 159.473 122.286 177.868 106.623L170.737 98.2477ZM444.363 175.802C417.857 134.979 371.775 96.7868 321.369 78.072C270.867 59.3218 215.134 59.8824 170.706 98.2738L177.899 106.597C218.352 71.6397 269.473 70.5379 317.54 88.3842C365.702 106.266 409.903 142.928 435.137 181.792L444.363 175.802ZM427.181 454.889C492.184 375.209 499.115 262.942 444.407 175.871L435.093 181.723C487.29 264.798 480.677 371.912 418.657 447.936L427.181 454.889ZM138.815 495.784C228.747 573.359 357.971 541.482 427.215 454.846L418.623 447.979C352.183 531.105 229.985 559.901 146 487.455L138.815 495.784ZM91.9226 212.253C27.0881 302.098 59.212 426.887 138.808 495.778L146.007 487.461C69.555 421.291 40.174 302.762 100.843 218.69L91.9226 212.253ZM65.0191 191.632C70.8031 184.914 79.8764 185.426 87.1383 191.033C90.6762 193.765 93.2079 197.384 94.1732 201.078C95.0972 204.614 94.6666 208.442 91.9191 212.257L100.846 218.685C105.579 212.111 106.538 204.887 104.816 198.297C103.135 191.865 98.9852 186.283 93.8609 182.326C83.7986 174.557 67.6259 171.745 56.6831 184.455L65.0191 191.632ZM61.0589 182.543H60.8511V193.543H61.0589V182.543ZM167.104 180.318C121.142 238.844 87.3061 312.385 120.682 388.211L130.75 383.779C99.9204 313.739 130.499 244.739 175.755 187.112L167.104 180.318ZM165.929 183.611V183.715H176.929V183.611H165.929ZM204.657 208.098C210.734 196.573 205.43 184.156 197.504 177.564C193.441 174.185 188.219 171.873 182.635 171.982C176.865 172.095 171.364 174.789 167.104 180.214L175.755 187.008C178.144 183.966 180.643 183.023 182.85 182.98C185.243 182.933 187.975 183.946 190.47 186.021C195.661 190.339 197.889 197.35 194.927 202.967L204.657 208.098ZM181.758 330.994C175.783 288.67 183.803 245.553 204.597 208.208L194.987 202.857C173.026 242.297 164.556 287.833 170.866 332.532L181.758 330.994ZM278.907 420.153C254.662 429.759 232.712 419.292 215.107 399.66C197.461 379.983 185.365 352.178 181.734 330.84L170.89 332.685C174.843 355.917 187.786 385.67 206.918 407.004C226.091 428.384 252.659 442.384 282.959 430.38L278.907 420.153ZM298.94 467.551C305.717 464.4 309.719 458.944 311.287 452.828C312.815 446.869 312.005 440.481 309.709 434.979C307.414 429.48 303.447 424.415 298.106 421.365C292.611 418.228 285.898 417.384 278.907 420.153L282.958 430.38C286.72 428.89 289.942 429.37 292.651 430.918C295.515 432.553 298.021 435.533 299.557 439.215C301.093 442.895 301.471 446.825 300.632 450.096C299.833 453.21 297.914 455.897 294.302 457.577L298.94 467.551ZM120.682 388.21C134.948 420.634 162.382 448.322 194.66 464.017C226.979 479.732 264.617 483.616 298.952 467.545L294.289 457.583C263.587 471.953 229.486 468.72 199.47 454.124C169.411 439.508 143.912 413.692 130.751 383.78L120.682 388.21ZM374.23 438.068L372.879 439.522L380.94 447.007L382.29 445.553L374.23 438.068ZM377.835 424.551C379.132 429.325 377.799 434.428 374.335 437.958L382.185 445.663C388.386 439.344 390.771 430.211 388.451 421.668L377.835 424.551ZM376.182 420.621L378.052 425.192L388.233 421.027L386.363 416.456L376.182 420.621ZM371.455 416.277C373.546 417.548 375.302 419.304 376.573 421.395L385.973 415.681C383.786 412.084 380.766 409.065 377.169 406.878L371.455 416.277ZM360.866 415.05C364.528 414.154 368.391 414.644 371.714 416.425L376.91 406.73C371.196 403.667 364.551 402.824 358.253 404.365L360.866 415.05ZM354.968 418.44C356.593 416.782 358.644 415.606 360.895 415.042L358.223 404.372C354.003 405.429 350.157 407.633 347.112 410.741L354.968 418.44ZM351.344 424.613C352.003 422.293 353.241 420.178 354.941 418.467L347.139 410.713C344.125 413.746 341.931 417.494 340.763 421.606L351.344 424.613ZM350.616 426.706L351.24 424.94L340.867 421.279L340.243 423.045L350.616 426.706ZM350.147 430.744L350.874 425.653L339.985 424.098L339.258 429.189L350.147 430.744ZM351.224 434.559C350.504 433.201 350.151 431.678 350.2 430.141L339.205 429.792C339.096 433.242 339.889 436.661 341.505 439.711L351.224 434.559ZM352.586 437.345C352.154 436.925 351.848 436.393 351.702 435.808L341.027 438.462C341.668 441.039 343.017 443.386 344.923 445.236L352.586 437.345ZM356.616 441.308C355.302 440.616 354.192 439.592 353.395 438.339L344.113 444.242C345.938 447.112 348.481 449.455 351.49 451.04L356.616 441.308ZM360.644 442.97L356.177 441.1L351.929 451.247L356.397 453.117L360.644 442.97ZM364.389 443.326L359.298 442.599L357.742 453.489L362.833 454.216L364.389 443.326ZM368.235 442.288C366.911 443.016 365.411 443.359 363.902 443.279L363.32 454.263C366.875 454.452 370.412 453.643 373.532 451.929L368.235 442.288ZM372.929 439.469C371.874 440.575 370.567 441.409 369.119 441.9L372.648 452.318C375.78 451.257 378.607 449.453 380.889 447.061L372.929 439.469ZM409.989 319.138L408.534 317.787L401.049 325.848L402.504 327.198L409.989 319.138ZM405.934 328.668H406.246V317.668H405.934V328.668ZM414.813 327.219C413.83 324.118 412.054 321.328 409.661 319.123L402.208 327.213C403.192 328.12 403.923 329.269 404.328 330.545L414.813 327.219ZM416.622 335.911C416.791 332.538 416.018 329.185 414.388 326.227L404.754 331.537C405.397 332.705 405.703 334.028 405.636 335.36L416.622 335.911ZM415.96 341.126L416.583 336.347L405.675 334.924L405.052 339.703L415.96 341.126ZM413.651 346.827L415.521 342.671L405.49 338.157L403.62 342.313L413.651 346.827ZM406.958 354.234C409.775 352.491 412.055 350.004 413.546 347.047L403.725 342.093C403.147 343.24 402.263 344.204 401.17 344.88L406.958 354.234ZM401.618 357.162C404.086 356.514 406.322 355.184 408.071 353.325L400.058 345.789C399.723 346.144 399.295 346.399 398.823 346.523L401.618 357.162ZM393.072 358.893C396.477 359.074 399.864 358.304 402.857 356.67L397.584 347.016C396.382 347.672 395.022 347.981 393.654 347.909L393.072 358.893ZM387.961 358.229L392.636 358.853L394.09 347.949L389.415 347.326L387.961 358.229ZM384.828 357.136L386.594 357.863L390.782 347.692L389.016 346.965L384.828 357.136ZM374.954 351.183C377.842 354.193 381.512 356.338 385.552 357.377L388.292 346.724C386.233 346.194 384.363 345.101 382.891 343.567L374.954 351.183ZM368.93 340.782C369.989 344.787 372.118 348.429 375.087 351.317L382.757 343.433C381.217 341.935 380.114 340.046 379.564 337.969L368.93 340.782ZM368.93 330.801C368.065 334.072 368.065 337.511 368.93 340.781L379.564 337.97C379.187 336.542 379.187 335.04 379.564 333.612L368.93 330.801ZM371.634 322.582C369.902 325.411 368.911 328.631 368.753 331.945L379.741 332.469C379.811 331.003 380.249 329.577 381.016 328.325L371.634 322.582ZM380.106 314.257C376.618 316.285 373.697 319.159 371.614 322.614L381.035 328.293C382.163 326.422 383.745 324.865 385.634 323.768L380.106 314.257ZM385.067 312.087L380.704 313.957L385.037 324.068L389.4 322.198L385.067 312.087ZM398.205 311.827C394.147 310.748 389.878 310.748 385.82 311.827L388.647 322.458C390.853 321.871 393.173 321.871 395.378 322.458L398.205 311.827ZM408.674 317.921C405.785 315.043 402.207 312.952 398.281 311.848L395.303 322.437C397.421 323.033 399.351 324.161 400.91 325.714L408.674 317.921ZM306.155 237.454L303.558 238.493L307.643 248.706L310.241 247.667L306.155 237.454ZM311.492 234.817C310.238 235.998 308.688 236.818 307.006 237.191L309.39 247.93C313.005 247.128 316.337 245.364 319.034 242.824L311.492 234.817ZM315.805 230.427C314.996 231.955 313.799 233.244 312.335 234.164L318.19 243.477C321.285 241.531 323.814 238.807 325.525 235.578L315.805 230.427ZM317.682 225.966L315.604 230.849L325.726 235.156L327.804 230.273L317.682 225.966ZM317.429 221.227C317.908 223.02 317.908 224.907 317.429 226.7L328.057 229.539C329.032 225.886 329.032 222.041 328.057 218.389L317.429 221.227ZM316.608 217.325C317.03 218.071 317.249 218.914 317.243 219.77L328.243 219.846C328.262 217.063 327.55 214.323 326.177 211.901L316.608 217.325ZM313.321 211.923C314.633 213.12 315.613 214.636 316.165 216.324L326.62 212.903C325.477 209.411 323.45 206.274 320.736 203.798L313.321 211.923ZM309.504 208.987L313.66 212.208L320.398 203.513L316.242 200.292L309.504 208.987ZM302.474 207.335C305.157 207.339 307.792 208.051 310.113 209.397L315.633 199.882C311.641 197.566 307.109 196.343 302.494 196.335L302.474 207.335ZM299.783 207.335H302.484V196.335H299.783V207.335ZM292.116 209.419C294.469 208.078 297.127 207.36 299.835 207.334L299.73 196.335C295.148 196.379 290.652 197.592 286.671 199.861L292.116 209.419ZM288.518 212.3L292.777 208.975L286.009 200.304L281.75 203.629L288.518 212.3ZM285.045 218.734C285.74 216.132 287.11 213.76 289.017 211.859L281.25 204.07C277.97 207.341 275.613 211.42 274.418 215.895L285.045 218.734ZM285.024 224.235C284.523 222.461 284.523 220.583 285.024 218.81L274.438 215.82C273.385 219.549 273.385 223.496 274.438 227.225L285.024 224.235ZM286.811 230.486C285.837 229.015 285.289 227.303 285.228 225.539L274.235 225.921C274.366 229.713 275.544 233.394 277.638 236.558L286.811 230.486ZM296.483 238.021C292.496 236.822 289.089 234.198 286.914 230.648L277.535 236.396C281.123 242.25 286.741 246.579 293.317 248.555L296.483 238.021ZM304.635 237.992C301.937 238.749 299.083 238.749 296.385 237.992L293.415 248.584C298.055 249.885 302.964 249.885 307.605 248.584L304.635 237.992ZM308.43 248.316L308.95 248.004L303.29 238.572L302.771 238.883L308.43 248.316ZM401.993 242.145C401.993 230.157 392.274 220.438 380.285 220.438V231.438C386.199 231.438 390.993 236.232 390.993 242.145H401.993ZM380.285 263.853C392.274 263.853 401.993 254.134 401.993 242.145H390.993C390.993 248.059 386.199 252.853 380.285 252.853V263.853ZM358.578 242.145C358.578 254.134 368.297 263.853 380.285 263.853V252.853C374.372 252.853 369.578 248.059 369.578 242.145H358.578ZM380.285 220.438C368.297 220.438 358.578 230.157 358.578 242.145H369.578C369.578 236.232 374.372 231.438 380.285 231.438V220.438Z" fill="white"/>
</svg>
