<svg width="34" height="38" viewBox="0 0 34 38" fill="none" xmlns="http://www.w3.org/2000/svg">
<path fill-rule="evenodd" clip-rule="evenodd" d="M23.1147 28.8729C25.8721 24.097 24.1816 17.9587 19.3389 15.1628C14.4962 12.3668 8.33504 13.972 5.57763 18.7479C2.82022 23.5239 4.5107 29.6622 9.35341 32.4581C14.1961 35.254 20.3572 33.6489 23.1147 28.8729ZM9.98093 11.1212C6.98835 12.1036 4.34308 14.1362 2.6548 17.0604C-1.02175 23.4284 1.23222 31.6127 7.68917 35.3407C14.1461 39.0686 22.3609 36.9284 26.0375 30.5604C27.7258 27.6362 28.1635 24.329 27.5179 21.2462L33.1001 11.5776C33.5597 10.7816 33.2779 9.75858 32.4708 9.29258C31.6637 8.82659 30.6368 9.09412 30.1773 9.89011L25.9582 17.1978C25.073 15.6826 23.8819 14.3205 22.413 13.2132L28.2894 3.03503C28.749 2.23903 28.4672 1.21599 27.6601 0.750001C26.853 0.284011 25.8261 0.551533 25.3666 1.34753L19.4902 11.5257C17.7968 10.8072 16.0216 10.4568 14.2669 10.4478L18.4859 3.14011C18.9455 2.34411 18.6638 1.32107 17.8566 0.855082C17.0495 0.389092 16.0227 0.656614 15.5631 1.45261L9.98093 11.1212Z" fill="#F9DA62"/>
<path d="M19.3389 15.1628C24.1816 17.9587 25.8721 24.097 23.1147 28.8729C20.3572 33.6489 14.1961 35.254 9.35341 32.4581C4.5107 29.6622 2.82022 23.5239 5.57763 18.7479C8.33504 13.972 14.4962 12.3668 19.3389 15.1628Z" fill="#F9DA62"/>
</svg>
