<svg width="24" height="16" viewBox="0 0 24 16" fill="none" xmlns="http://www.w3.org/2000/svg">
<path fill-rule="evenodd" clip-rule="evenodd" d="M16 2C12.6863 2 10 4.68629 10 8C10 11.3137 12.6863 14 16 14C19.3137 14 22 11.3137 22 8C22 4.68629 19.3137 2 16 2ZM10.7084 14C12.1186 15.2447 13.9711 16 16 16C20.4183 16 24 12.4183 24 8C24 3.58172 20.4183 0 16 0C13.9711 0 12.1186 0.755273 10.7084 2L4 2C3.44772 2 3 2.44771 3 3C3 3.55229 3.44772 4 4 4L9.07026 4C8.54778 4.90321 8.19681 5.91806 8.06189 7L1 7C0.447715 7 0 7.44771 0 8C0 8.55228 0.447715 9 1 9L8.06189 9C8.19681 10.0819 8.54778 11.0968 9.07026 12L4 12C3.44772 12 3 12.4477 3 13C3 13.5523 3.44772 14 4 14L10.7084 14Z" fill="#F9DA62"/>
</svg>
