<svg width="16" height="16" viewBox="0 0 16 16" fill="none" xmlns="http://www.w3.org/2000/svg">
<path d="M7.70172 1.37904C9.75807 1.37904 10.0016 1.38669 10.8139 1.4235C11.3024 1.42944 11.7862 1.51856 12.2443 1.68699C12.5765 1.8143 12.8782 2.00933 13.13 2.25952C13.3817 2.50972 13.578 2.80952 13.7061 3.13965C13.8756 3.59487 13.9653 4.07561 13.9713 4.56096C14.008 5.36819 14.016 5.61018 14.016 7.65359C14.016 9.69701 14.0083 9.93899 13.9713 10.7462C13.9653 11.2316 13.8756 11.7123 13.7061 12.1675C13.578 12.4977 13.3817 12.7975 13.13 13.0477C12.8782 13.2979 12.5765 13.4929 12.2443 13.6202C11.7862 13.7886 11.3024 13.8777 10.8139 13.8837C10.002 13.9201 9.75844 13.9281 7.70172 13.9281C5.64499 13.9281 5.40147 13.9205 4.58949 13.8837C4.10106 13.8777 3.61728 13.7886 3.15917 13.6202C2.82696 13.4929 2.52525 13.2979 2.27347 13.0477C2.0217 12.7975 1.82543 12.4977 1.69731 12.1675C1.52782 11.7123 1.43813 11.2316 1.43215 10.7462C1.39548 9.93899 1.38741 9.69701 1.38741 7.65359C1.38741 5.61018 1.39511 5.36819 1.43215 4.56096C1.43813 4.07561 1.52782 3.59487 1.69731 3.13965C1.82543 2.80952 2.0217 2.50972 2.27347 2.25952C2.52525 2.00933 2.82696 1.8143 3.15917 1.68699C3.61728 1.51856 4.10106 1.42944 4.58949 1.4235C5.40184 1.38706 5.64536 1.37904 7.70172 1.37904V1.37904ZM7.70172 0C5.61125 0 5.34792 0.00874652 4.52641 0.0459194C3.88718 0.0585537 3.25474 0.178823 2.65599 0.401612C2.14236 0.593915 1.67714 0.895269 1.29279 1.28465C0.900587 1.66672 0.597064 2.12927 0.403423 2.64C0.179223 3.23498 0.0581912 3.86344 0.0454768 4.49864C0.00880199 5.31426 0 5.57592 0 7.65323C0 9.73054 0.00880193 9.9922 0.0462103 10.8085C0.0589247 11.4437 0.179956 12.0722 0.404157 12.6672C0.597583 13.1778 0.900852 13.6404 1.29279 14.0225C1.67735 14.412 2.14283 14.7134 2.65673 14.9056C3.25548 15.1284 3.88792 15.2486 4.52714 15.2613C5.34866 15.2977 5.61088 15.3072 7.70245 15.3072C9.79402 15.3072 10.0562 15.2984 10.8778 15.2613C11.517 15.2486 12.1494 15.1284 12.7482 14.9056C13.2596 14.7086 13.7241 14.4077 14.1118 14.0221C14.4996 13.6366 14.8021 13.1748 15 12.6665C15.2242 12.0715 15.3452 11.443 15.358 10.8078C15.3946 9.9922 15.4034 9.73054 15.4034 7.65323C15.4034 5.57592 15.3946 5.31426 15.3572 4.49791C15.3445 3.86271 15.2235 3.23425 14.9993 2.63927C14.8058 2.12861 14.5026 1.66606 14.1106 1.28392C13.7261 0.894452 13.2606 0.593092 12.7467 0.400883C12.148 0.178094 11.5155 0.0578249 10.8763 0.0451905C10.0555 0.00874657 9.79218 0 7.70172 0Z" fill="#fff"/>
<path d="M7.70111 3.72266C6.91888 3.72266 6.15422 3.95315 5.50382 4.385C4.85342 4.81685 4.3465 5.43065 4.04715 6.14878C3.74781 6.86692 3.66948 7.65713 3.82209 8.4195C3.9747 9.18187 4.35137 9.88215 4.90449 10.4318C5.45761 10.9814 6.16233 11.3557 6.92953 11.5074C7.69672 11.659 8.49194 11.5812 9.21463 11.2837C9.93731 10.9863 10.555 10.4825 10.9896 9.83623C11.4242 9.18992 11.6561 8.43008 11.6561 7.65277C11.6561 6.61044 11.2394 5.6108 10.4977 4.87376C9.75602 4.13672 8.75004 3.72266 7.70111 3.72266ZM7.70111 10.2038C7.19336 10.2038 6.69701 10.0542 6.27483 9.77392C5.85265 9.4936 5.5236 9.09518 5.32929 8.62903C5.13498 8.16288 5.08414 7.64994 5.1832 7.15508C5.28226 6.66022 5.52676 6.20566 5.8858 5.84889C6.24483 5.49211 6.70227 5.24915 7.20027 5.15071C7.69826 5.05228 8.21445 5.1028 8.68355 5.29588C9.15265 5.48897 9.5536 5.81595 9.83569 6.23547C10.1178 6.65499 10.2683 7.14822 10.2683 7.65277C10.2683 8.32936 9.99787 8.97824 9.51642 9.45666C9.03497 9.93508 8.38198 10.2038 7.70111 10.2038V10.2038Z" fill="#fff"/>
<path d="M11.8148 4.48912C12.3253 4.48912 12.739 4.07794 12.739 3.57073C12.739 3.06352 12.3253 2.65234 11.8148 2.65234C11.3044 2.65234 10.8906 3.06352 10.8906 3.57073C10.8906 4.07794 11.3044 4.48912 11.8148 4.48912Z" fill="#fff"/>
</svg>
