<svg width="16" height="16" viewBox="0 0 16 16" fill="none" xmlns="http://www.w3.org/2000/svg">
<path fill-rule="evenodd" clip-rule="evenodd" d="M3.2 0C1.43269 0 0 1.43269 0 3.2V12.8C0 14.5673 1.43269 16 3.2 16H12.8C14.5673 16 16 14.5673 16 12.8V3.2C16 1.43269 14.5673 0 12.8 0H3.2ZM1.6 3.2C1.6 2.31634 2.31634 1.6 3.2 1.6H12.8C13.6837 1.6 14.4 2.31634 14.4 3.2V12.8C14.4 13.6837 13.6837 14.4 12.8 14.4H3.2C2.31634 14.4 1.6 13.6837 1.6 12.8V3.2ZM4.81075 12C4.30675 12 4 11.664 4 11.16V6.408C4 5.904 4.30675 5.6 4.81075 5.6C5.31475 5.6 5.61075 5.904 5.61075 6.408V11.2C5.61075 11.704 5.31475 12 4.81075 12ZM4.00938 4C4.00938 3.55817 4.36755 3.2 4.80938 3.2C5.2512 3.2 5.60938 3.55817 5.60938 4C5.60938 4.44183 5.2512 4.8 4.80938 4.8C4.36755 4.8 4.00938 4.44183 4.00938 4ZM7.20938 12C6.70538 12 6.425 11.664 6.425 11.16V6.408C6.425 5.904 6.70538 5.6 7.20938 5.6C7.71338 5.6 8.00938 5.896 8.00938 6.4C8.42937 5.86 8.68538 5.6 9.60938 5.6C10.8094 5.6 12.0094 6.524 12.0094 8V11.2C12.0094 11.704 11.7134 12 11.2094 12C10.7054 12 10.4094 11.664 10.4094 11.16V8.4C10.4094 7.536 9.78328 7.2 9.20938 7.2C8.51337 7.2 8.00938 7.536 8.00938 8.4V11.148C8.00938 11.652 7.71338 12 7.20938 12Z" fill="white"/>
</svg>
