<svg width="248" height="185" viewBox="0 0 248 185" fill="none" xmlns="http://www.w3.org/2000/svg">
<path d="M43.3399 15.8035C39.0833 50.8913 38.7876 86.4119 42.4594 121.577C43.3715 130.315 44.7025 139.648 50.2226 146.074C57.616 154.68 69.7962 155.175 80.6247 155.073L220.116 153.763C225.486 153.712 231.082 153.604 235.855 150.926C241.756 147.616 245.448 140.782 246.927 133.741C248.406 126.701 247.968 119.372 247.486 112.169C245.693 85.3551 245.059 53.6361 242.872 25.1267C242.482 19.952 240.422 15.0926 237.056 11.404C233.69 7.71542 229.234 5.43418 224.471 4.9619C176.255 0.239926 46.0777 -7.04383 43.3399 15.8035Z" fill="white"/>
<path d="M188.808 121.058C180.439 126.628 69.2842 125.216 61.0165 121.058C52.7488 116.901 55.0964 53.5928 61.0165 46.2186C66.9366 38.8445 185.542 40.1781 188.808 46.2186C192.075 52.2592 197.178 115.488 188.808 121.058Z" fill="white"/>
<path d="M49.5519 23.2507C73.8276 22.2394 98.1191 21.7871 122.426 21.8938C146.559 22.0154 170.679 22.6975 194.789 23.9403C208.419 24.6469 222.034 25.5655 235.644 26.5865C236.258 26.6326 236.253 25.6795 235.644 25.6304C211.428 23.6731 187.144 22.4346 162.862 21.7086C138.74 20.9874 114.611 20.8421 90.4735 21.2727C76.8275 21.5114 63.187 21.9431 49.5519 22.5678C49.1144 22.5875 49.1115 23.2691 49.5519 23.2508L49.5519 23.2507Z" fill="black"/>
<path d="M55.5723 15.7494C57.5664 18.8469 62.2796 15.6353 60.8448 12.4494C59.0769 8.52387 53.9186 12.5132 55.4947 15.7946C55.7737 16.3755 56.6064 15.868 56.3514 15.2939C55.3555 13.0522 59.1055 10.0746 60.077 13.0705C60.7656 15.1941 57.6378 17.4451 56.2738 15.3393C55.9905 14.9022 55.288 15.3078 55.5723 15.7494Z" fill="black"/>
<path d="M67.9902 15.7494C69.9843 18.8469 74.6975 15.6353 73.2628 12.4494C71.4949 8.52387 66.3366 12.5132 67.9127 15.7946C68.1917 16.3755 69.0244 15.868 68.7693 15.2939C67.7735 13.0522 71.5235 10.0746 72.495 13.0705C73.1836 15.1941 70.0558 17.4451 68.6917 15.3393C68.4085 14.9022 67.706 15.3078 67.9902 15.7494Z" fill="black"/>
<path d="M80.4121 15.7494C82.4062 18.8469 87.1194 15.6353 85.6847 12.4494C83.9167 8.52387 78.7585 12.5132 80.3346 15.7946C80.6135 16.3755 81.4462 15.868 81.1912 15.2939C80.1954 13.0522 83.9454 10.0746 84.9168 13.0705C85.6054 15.1941 82.4777 17.4451 81.1136 15.3393C80.8304 14.9022 80.1278 15.3078 80.4121 15.7494Z" fill="black"/>
<path d="M225.968 19.3975C228.186 19.4335 230.405 19.485 232.623 19.4533C232.743 19.4491 232.856 19.3986 232.94 19.3125C233.023 19.2263 233.07 19.1112 233.07 18.9913C233.07 18.8715 233.023 18.7564 232.94 18.6702C232.856 18.5841 232.743 18.5336 232.623 18.5294C230.405 18.4977 228.186 18.5492 225.968 18.5851C225.863 18.5894 225.764 18.6341 225.691 18.7098C225.619 18.7855 225.578 18.8864 225.578 18.9913C225.578 19.0963 225.619 19.1972 225.691 19.2729C225.764 19.3486 225.863 19.3932 225.968 19.3975Z" fill="black"/>
<path d="M226.412 14.7354C228.489 14.2185 230.496 14.398 232.525 15.0262C233.038 15.1852 233.208 14.4378 232.741 14.2428C230.646 13.3681 228.367 13.3499 226.192 13.9382C226.09 13.9702 226.004 14.0408 225.953 14.135C225.901 14.2291 225.889 14.3396 225.917 14.443C225.946 14.5464 226.013 14.6346 226.106 14.6892C226.198 14.7438 226.308 14.7603 226.412 14.7354Z" fill="black"/>
<path d="M58.0225 11.7258C57.1767 12.6992 56.4319 13.756 55.7995 14.8798C55.7797 14.916 55.7709 14.9572 55.7741 14.9983C55.7773 15.0394 55.7924 15.0787 55.8175 15.1114C55.8426 15.1441 55.8767 15.1688 55.9157 15.1824C55.9546 15.1961 55.9966 15.1982 56.0367 15.1883C56.3224 15.104 56.5772 14.938 56.7699 14.7108C57.0547 14.4381 57.3393 14.1652 57.6238 13.892C57.8973 13.6302 58.1685 13.3658 58.4455 13.1079C58.73 12.8088 59.0373 12.5324 59.3646 12.281L59.1602 12.0161C58.7153 12.4242 58.3118 12.8752 57.9557 13.3627C57.5821 13.825 57.2252 14.3001 56.885 14.788C56.857 14.836 56.8456 14.8919 56.8527 14.9471C56.8598 15.0022 56.885 15.0534 56.9243 15.0927C57.0057 15.1628 57.1097 15.2011 57.2171 15.2005C57.3245 15.2 57.4281 15.1605 57.5087 15.0895C57.7585 14.917 57.9854 14.699 58.2199 14.5059L59.6871 13.2968L59.2987 13.0707C58.7803 14.2891 58.1187 15.4414 57.3278 16.5034C57.1159 16.7911 57.6081 17.0865 57.812 16.7864C58.5631 15.6728 59.2033 14.4882 59.7234 13.2498C59.7497 13.201 59.7578 13.1445 59.7463 13.0903C59.7348 13.0361 59.7044 12.9878 59.6605 12.954C59.6167 12.9201 59.5622 12.903 59.5069 12.9056C59.4516 12.9082 59.399 12.9304 59.3585 12.9682L58.2436 13.8606L57.7234 14.2771L57.4261 14.5151L57.2775 14.6341C57.1853 14.6727 57.1691 14.694 57.229 14.6979L57.3192 15.0419C57.6414 14.5498 57.9798 14.069 58.3343 13.5993C58.6858 13.1348 59.1034 12.7056 59.4251 12.2207C59.5294 12.0635 59.2808 11.8656 59.1602 12.0162C58.9171 12.2864 58.6533 12.5371 58.3711 12.766C58.102 13.0102 57.8293 13.2503 57.5568 13.4906C57.2961 13.7206 57.0353 13.9504 56.7743 14.1802C56.5219 14.4024 56.2642 14.706 55.925 14.7835L56.1622 15.092C56.745 13.9737 57.4398 12.9174 58.236 11.9395C58.3569 11.7913 58.1513 11.5776 58.0225 11.726V11.7258Z" fill="black"/>
<path d="M69.4285 12.0787C68.6181 12.7224 67.9935 13.57 67.6186 14.5346C67.5223 14.7751 67.8581 14.9096 68.0187 14.7675C68.6659 14.1948 69.2423 13.54 69.8612 12.9372C70.4082 12.4042 71.0238 11.844 71.7604 11.5934L71.5819 11.2868C70.4784 12.3221 69.4177 13.4037 68.369 14.4942C68.3342 14.5309 68.3108 14.5769 68.3015 14.6267C68.2923 14.6764 68.2977 14.7277 68.3171 14.7745C68.3364 14.8212 68.3689 14.8613 68.4106 14.89C68.4523 14.9186 68.5014 14.9346 68.552 14.9359C69.29 14.8891 69.8853 14.4406 70.4212 13.9696C70.9657 13.4911 71.5103 12.8832 72.2456 12.719L72.0714 12.4197C71.0191 13.5456 70.0289 14.728 69.1052 15.9616C68.9467 16.1673 69.2475 16.4241 69.4473 16.3037C69.9981 15.972 70.5347 15.6148 71.0734 15.2637C71.329 15.0971 71.5821 14.9269 71.8362 14.7582C71.9916 14.655 72.3725 14.3004 72.5619 14.4349L72.474 14.1004C71.9128 14.8633 71.3431 15.6204 70.7974 16.3946C70.6111 16.6588 71.0375 16.8947 71.2257 16.645C71.7956 15.8886 72.3418 15.1148 72.8962 14.3472C72.9235 14.3006 72.9346 14.2462 72.9277 14.1926C72.9208 14.139 72.8963 14.0892 72.858 14.0511C72.315 13.6306 71.6436 14.2684 71.1899 14.558C70.5195 14.986 69.8459 15.4148 69.1949 15.8719L69.5371 16.214C70.3865 14.9729 71.3177 13.79 72.3247 12.6729C72.3514 12.6446 72.3683 12.6084 72.3727 12.5697C72.3772 12.531 72.369 12.4919 72.3494 12.4582C72.3298 12.4246 72.2999 12.3981 72.264 12.3829C72.2282 12.3677 72.1883 12.3644 72.1505 12.3737C71.483 12.5921 70.8713 12.954 70.3585 13.4339C69.8245 13.8781 69.2722 14.3524 68.5522 14.4183L68.7352 14.86C69.7538 13.7393 70.8007 12.6459 71.8415 11.5461C71.9565 11.4245 71.8434 11.166 71.6631 11.2395C70.9329 11.546 70.262 11.9782 69.6811 12.5164C68.9988 13.1269 68.3014 13.756 67.6804 14.4288L68.0805 14.6617C68.3698 13.7421 68.9182 12.9255 69.66 12.3098C69.8231 12.172 69.5909 11.9518 69.4287 12.0785L69.4285 12.0787Z" fill="black"/>
<path d="M82.8999 11.1969C81.8742 12.0773 80.9746 13.0948 80.2265 14.2207C80.0989 14.413 80.3088 14.6248 80.5057 14.584C81.3502 14.409 82.0385 13.8309 82.6704 13.278C83.3049 12.7228 83.9772 12.0543 84.8242 11.8549L84.6286 11.5189C83.4675 12.5362 82.3638 13.621 81.2258 14.6642C80.9887 14.8815 81.2899 15.2234 81.5547 15.0905C82.7966 14.4343 83.9436 13.6125 84.9643 12.6474L84.6381 12.3212L81.8034 15.2764C81.7583 15.3245 81.7317 15.3871 81.7285 15.453C81.7253 15.5189 81.7457 15.5838 81.786 15.636C81.8263 15.6883 81.8839 15.7245 81.9485 15.7381C82.013 15.7518 82.0803 15.742 82.1383 15.7105C83.1396 15.2678 84.1377 14.8177 85.1373 14.3712L84.754 13.9879C84.3625 14.7415 83.8379 15.418 83.2055 15.9849C82.9381 16.2263 83.3317 16.6145 83.5995 16.3789C84.2723 15.7844 84.8279 15.0694 85.2377 14.2707C85.2668 14.2171 85.2778 14.1556 85.2691 14.0953C85.2603 14.035 85.2323 13.9791 85.1892 13.936C85.1461 13.8929 85.0902 13.8649 85.0299 13.8561C84.9696 13.8474 84.9081 13.8584 84.8545 13.8875C83.8561 14.3359 82.856 14.7808 81.8594 15.2332L82.1943 15.6674L84.9644 12.6475C85.0048 12.6037 85.0266 12.5459 85.0254 12.4863C85.0242 12.4267 85 12.3699 84.9578 12.3278C84.9157 12.2856 84.8589 12.2614 84.7993 12.2602C84.7397 12.259 84.682 12.2809 84.6381 12.3213C83.614 13.2183 82.487 13.9905 81.2808 14.6218L81.6097 15.0481C82.7057 13.9625 83.8416 12.9131 84.9129 11.8032C84.943 11.7714 84.962 11.7307 84.9671 11.6872C84.9721 11.6437 84.9629 11.5997 84.9409 11.5619C84.9189 11.5241 84.8852 11.4944 84.8449 11.4773C84.8045 11.4602 84.7598 11.4566 84.7173 11.4671C83.9191 11.7614 83.185 12.2063 82.5547 12.7777C81.8879 13.3279 81.2228 13.8735 80.3742 14.1071L80.6534 14.4703C81.3076 13.3276 82.1417 12.2978 83.1236 11.4205C83.2764 11.284 83.0531 11.0653 82.8999 11.1968L82.8999 11.1969Z" fill="black"/>
<path d="M155.436 87.5556C155.349 87.5991 155.261 87.6426 155.173 87.6861C139.895 95.2747 125.057 104.052 108.592 108.88C108.42 108.931 108.247 108.981 108.074 109.031L108.631 109.456C108.618 109.264 108.605 109.072 108.592 108.88C107.997 99.9274 107.97 90.9557 108.133 81.9863C108.299 72.8219 108.358 63.5583 109.128 54.4218C109.253 52.9423 109.073 50.0532 110.957 49.6408C112.03 49.4059 113.247 49.9536 114.178 50.423C116.43 51.5586 118.418 53.1827 120.362 54.7708C120.377 54.7829 120.391 54.795 120.406 54.8071C122.861 56.8118 125.488 58.595 128.06 60.4444C131.6 62.9902 135.135 65.5426 138.666 68.1017C142.467 70.864 146.231 73.6897 149.749 76.8087C151.461 78.3261 153.114 79.9114 154.675 81.5842C155.465 82.4298 156.466 83.3357 157.031 84.3548C157.818 85.7738 156.455 86.7777 155.374 87.4486C155.271 87.5126 155.206 87.5959 155.173 87.6861C155.037 88.0579 155.434 88.547 155.862 88.2835C157.01 87.5769 158.373 86.5755 158.264 85.0593C158.139 83.3272 156.159 81.7353 155.059 80.5744C151.958 77.2995 148.516 74.3664 144.956 71.6031C137.608 65.898 129.797 60.815 122.396 55.185C120.404 53.6696 118.552 51.9934 116.442 50.6309C114.789 49.5628 112.203 47.9505 110.166 48.9028C108.931 49.48 108.574 50.7878 108.412 52.0381C108.089 54.5279 107.972 57.0501 107.867 59.5568C107.653 64.6984 107.494 69.8439 107.354 74.9881C107.042 86.4799 107.02 97.9779 107.75 109.456C107.752 109.523 107.768 109.59 107.798 109.65C107.829 109.71 107.873 109.763 107.926 109.803C107.98 109.844 108.042 109.873 108.108 109.886C108.175 109.899 108.243 109.897 108.308 109.881C125.167 105.134 140.282 96.0298 155.799 88.1765C156.213 87.9672 155.849 87.351 155.436 87.5556Z" fill="#C5214B"/>
<path d="M108.592 108.88C125.057 104.052 139.895 95.2747 155.173 87.6861C155.206 87.5959 155.271 87.5126 155.374 87.4486C156.455 86.7777 157.818 85.7738 157.031 84.3548C156.466 83.3357 155.465 82.4298 154.675 81.5842C153.114 79.9114 151.461 78.3261 149.749 76.8087C146.231 73.6897 142.467 70.864 138.666 68.1017C135.135 65.5426 131.6 62.9902 128.06 60.4444C125.488 58.595 122.861 56.8118 120.406 54.8071L120.362 54.7708C118.418 53.1827 116.43 51.5586 114.178 50.423C113.247 49.9536 112.03 49.4059 110.957 49.6408C109.073 50.0532 109.253 52.9423 109.128 54.4218C108.358 63.5583 108.299 72.8219 108.133 81.9863C107.97 90.9557 107.997 99.9274 108.592 108.88Z" fill="#C5214B"/>
<path d="M65.2764 113.642C94.5602 117.972 124.309 117.543 153.8 116.131C162.171 115.73 170.539 115.273 178.905 114.761C179.493 114.725 179.499 113.808 178.905 113.841C149.565 115.445 120.175 117.243 90.7962 115.462C82.3233 114.948 73.8628 114.147 65.4503 113.011C65.0406 112.956 64.8585 113.58 65.2764 113.642Z" fill="black"/>
<path d="M185.546 113.16C184.413 113.578 183.516 115.048 184.33 116.161C184.985 117.057 186.562 117.115 187.096 116.066C187.341 115.584 186.64 115.165 186.367 115.64C186.09 116.119 185.313 116.05 184.983 115.657C184.45 115.024 185.104 114.076 185.728 113.819C186.124 113.655 185.965 113.006 185.546 113.16Z" fill="black"/>
<path d="M116.2 114.505C114.945 114.654 114.152 116.304 114.821 117.376C115.402 118.307 116.847 118.522 117.697 117.828C118.105 117.46 118.356 116.949 118.397 116.401C118.439 115.853 118.267 115.311 117.918 114.886C117.539 114.488 117.028 114.241 116.48 114.192C115.932 114.144 115.385 114.297 114.942 114.623" fill="#161616"/>
<path d="M116.094 114.139C114.775 114.337 113.877 115.792 114.198 117.074C114.548 118.468 116.277 119.069 117.518 118.5C118.895 117.869 119.281 115.99 118.449 114.774C118.234 114.483 117.962 114.238 117.65 114.056C117.338 113.873 116.992 113.756 116.632 113.711C116.273 113.667 115.909 113.697 115.561 113.798C115.214 113.899 114.891 114.07 114.612 114.301C114.209 114.649 114.725 115.276 115.17 115.023C115.917 114.598 116.953 114.515 117.563 115.24C118.17 115.962 117.965 117.237 117.086 117.635C116.324 117.98 115.257 117.619 115.048 116.76C115.006 116.555 115.005 116.343 115.045 116.137C115.085 115.931 115.166 115.734 115.282 115.559C115.398 115.385 115.547 115.234 115.721 115.117C115.896 115 116.092 114.919 116.297 114.878C116.787 114.784 116.571 114.068 116.094 114.139L116.094 114.139Z" fill="black"/>
<path d="M112.096 50.8011C110.514 52.8332 108.93 54.8645 107.345 56.8951C107.311 56.932 107.292 56.9808 107.293 57.0312C107.294 57.0816 107.314 57.1297 107.35 57.1654C107.386 57.2011 107.434 57.2215 107.484 57.2224C107.535 57.2233 107.583 57.2046 107.62 57.1702C108.837 56.1586 110.032 55.1205 111.233 54.0907C112.43 53.0643 113.596 51.9736 114.844 51.009L114.656 50.8214C113.6 51.9644 112.632 53.1987 111.631 54.3898C110.627 55.5841 109.627 56.7811 108.629 57.9808C108.469 58.1724 108.67 58.4875 108.909 58.3441C110.394 57.4387 111.715 56.2891 112.816 54.9438C112.954 54.7769 112.721 54.5356 112.574 54.7023C111.444 55.9712 110.13 57.064 108.676 57.9447L108.956 58.3079C109.955 57.08 110.954 55.851 111.95 54.6212C112.925 53.4148 113.947 52.2328 114.864 50.9823C114.957 50.8561 114.762 50.7244 114.656 50.8215C113.492 51.8878 112.216 52.8515 111 53.8572C109.779 54.8663 108.551 55.8679 107.345 56.8952L107.651 57.1311C109.211 55.0815 110.772 53.0326 112.333 50.9843C112.436 50.8493 112.202 50.6661 112.096 50.8014L112.096 50.8011Z" fill="black"/>
<path d="M115.557 53.2863C113.307 55.5827 111.012 57.846 108.802 60.1787C108.571 60.4218 108.912 60.7445 109.163 60.5397C112.317 57.9568 115.457 55.3561 118.629 52.7951L118.322 52.488L108.877 63.7752C108.658 64.036 109.024 64.4137 109.255 64.1537C111.79 61.2693 114.693 58.7306 117.889 56.603C118.793 56.01 119.723 55.4573 120.669 54.9361L120.385 54.5681C117.2 57.8564 114.069 61.1962 110.992 64.5876C110.114 65.5568 109.242 66.5319 108.377 67.513C108.139 67.7842 108.522 68.1777 108.776 67.9128C112.043 64.5068 115.603 61.3962 119.417 58.6171C120.5 57.8289 121.6 57.0591 122.727 56.3346L122.469 56.0008L111.735 67.2573C110.715 68.3273 109.691 69.3933 108.679 70.471C108.463 70.7007 108.758 71.1398 109.033 70.9301L121.943 61.0765C123.168 60.1419 124.395 59.2101 125.623 58.2813L125.34 57.9146C120.851 61.9931 116.577 66.3031 112.536 70.8269C111.39 72.1108 110.263 73.4117 109.155 74.7295C109.107 74.7806 109.081 74.8483 109.082 74.9182C109.084 74.9881 109.112 75.0549 109.161 75.1043C109.211 75.1538 109.278 75.1821 109.348 75.1833C109.418 75.1845 109.485 75.1584 109.536 75.1107C114.084 71.142 118.795 67.3717 123.668 63.7998C125.043 62.796 126.432 61.81 127.833 60.8416L127.523 60.4398C122.439 64.9882 117.53 69.7215 112.794 74.64C111.467 76.0196 110.154 77.4131 108.856 78.8204C108.804 78.8759 108.775 78.9495 108.777 79.0256C108.778 79.1017 108.809 79.1743 108.862 79.2281C108.916 79.2819 108.989 79.3127 109.065 79.3139C109.141 79.3152 109.215 79.2868 109.27 79.2348C114.681 74.3291 120.342 69.7054 126.229 65.3821C127.904 64.155 129.598 62.9533 131.31 61.777L130.993 61.3663C125.41 66.7667 119.816 72.1553 114.21 77.5321L109.427 82.1369C109.199 82.3563 109.509 82.7867 109.774 82.5871C115.94 77.9501 122.076 73.2728 128.226 68.6154L133.413 64.6879L133.144 64.3399C127.197 69.5552 121.212 74.7291 115.547 80.2549C113.946 81.816 112.368 83.4009 110.828 85.0223C110.781 85.0734 110.755 85.141 110.756 85.2109C110.757 85.2807 110.785 85.3474 110.835 85.3968C110.884 85.4462 110.951 85.4745 111.021 85.4758C111.091 85.477 111.158 85.4511 111.209 85.4035C116.96 80.5672 122.863 75.9249 128.919 71.4767C130.631 70.2198 132.35 68.9691 134.092 67.7543L133.905 67.4347C130.395 69.9714 126.945 72.5895 123.558 75.2889C120.174 77.9975 116.862 80.7929 113.623 83.6752C111.791 85.3046 109.984 86.9607 108.202 88.6435C107.989 88.8441 108.268 89.2185 108.518 89.0534C112.029 86.7362 115.518 84.3846 118.982 81.9986C122.448 79.6124 125.896 77.2006 129.325 74.763C131.269 73.3893 133.209 72.0095 135.144 70.6237L134.906 70.2175C131.402 72.7403 127.991 75.3869 124.674 78.1574C121.347 80.9379 118.124 83.8375 115.006 86.8562C113.241 88.5643 111.514 90.3094 109.823 92.0915C109.619 92.3074 109.889 92.7029 110.154 92.52L121.19 84.889C124.886 82.3335 128.582 79.7777 132.277 77.2215C134.359 75.7866 136.442 74.3537 138.527 72.9226L138.285 72.51C134.103 75.496 129.92 78.4823 125.791 81.5424C121.679 84.5905 117.619 87.7118 113.673 90.9731C111.45 92.81 109.268 94.6948 107.127 96.6276C106.897 96.8362 107.211 97.2607 107.465 97.0659C112.064 93.5405 116.774 90.1663 121.595 86.9434C126.412 83.7209 131.332 80.6598 136.354 77.76C139.183 76.1266 142.043 74.5463 144.932 73.0192L144.655 72.5452C140.197 75.7295 135.765 78.95 131.359 82.2066C126.971 85.4519 122.611 88.7351 118.279 92.0561C115.843 93.9238 113.416 95.8033 110.998 97.6945C110.748 97.8898 111.075 98.3135 111.338 98.1354C115.719 95.1697 120.168 92.3065 124.683 89.5459C129.161 86.8046 133.702 84.1689 138.305 81.6391C140.919 80.2022 143.553 78.8003 146.205 77.4332L145.944 76.9877C141.327 80.3173 136.682 83.6067 132.088 86.9693C127.494 90.3315 122.927 93.7289 118.386 97.1615C115.838 99.0877 113.298 101.025 110.766 102.973C110.49 103.185 110.743 103.661 111.048 103.455C116.063 100.06 121.088 96.6771 126.212 93.4487C131.024 90.4168 135.931 87.5383 140.949 84.8597C144.049 83.2053 147.182 81.6181 150.351 80.0981L150.079 79.6339C145.178 83.2035 140.246 86.7315 135.285 90.2179C130.62 93.4865 125.923 96.7101 121.195 99.8889C118.256 101.869 115.31 103.839 112.357 105.798C112.294 105.838 112.249 105.901 112.231 105.974C112.214 106.046 112.225 106.123 112.262 106.187C112.3 106.252 112.361 106.299 112.433 106.32C112.505 106.34 112.582 106.331 112.648 106.296L128.15 97.3113C133.299 94.327 138.446 91.3382 143.59 88.345L152.312 83.2785L152.02 82.7784C146.833 86.0846 141.61 89.3317 136.35 92.5198C131.089 95.7055 125.792 98.8319 120.461 101.899C117.459 103.625 114.448 105.333 111.425 107.021L111.722 107.529C116.584 104.245 121.633 101.247 126.844 98.55C132.051 95.8217 137.377 93.3287 142.739 90.9235C145.774 89.5622 148.818 88.2206 151.87 86.8986L151.608 86.4501L132.177 97.1664L126.688 100.194L126.967 100.672C131.056 98.1563 135.231 95.7851 139.49 93.5582C140.695 92.9275 141.907 92.3093 143.125 91.7035C143.424 91.5559 143.162 91.1092 142.864 91.2566C138.558 93.3866 134.322 95.6472 130.183 98.0858C129.011 98.7764 127.846 99.479 126.688 100.194C126.627 100.232 126.584 100.293 126.567 100.362C126.55 100.432 126.56 100.506 126.597 100.568C126.633 100.63 126.692 100.675 126.761 100.695C126.83 100.714 126.904 100.706 126.967 100.672L146.385 89.9324L151.87 86.8986C152.17 86.733 151.907 86.3198 151.608 86.4501C146.217 88.8028 140.819 91.1387 135.493 93.6356C130.177 96.1276 124.929 98.771 119.85 101.72C116.98 103.386 114.172 105.153 111.425 107.021C111.36 107.062 111.314 107.126 111.296 107.2C111.278 107.274 111.29 107.352 111.328 107.418C111.367 107.484 111.429 107.532 111.503 107.553C111.576 107.573 111.655 107.565 111.722 107.529C117.089 104.526 122.423 101.463 127.723 98.3416C133.022 95.2195 138.286 92.0388 143.515 88.7997C146.459 86.9778 149.391 85.1375 152.312 83.2786C152.376 83.2385 152.421 83.1753 152.439 83.1022C152.457 83.0292 152.446 82.9521 152.408 82.8871C152.37 82.8222 152.308 82.7746 152.236 82.7543C152.163 82.734 152.086 82.7427 152.02 82.7785L136.519 91.7656C131.37 94.7508 126.223 97.7391 121.078 100.73L112.357 105.798L112.648 106.296C117.695 102.934 122.721 99.5426 127.729 96.1222C132.427 92.8991 137.093 89.6304 141.727 86.3163C144.61 84.2555 147.485 82.1828 150.35 80.0981C150.409 80.0609 150.452 80.0022 150.468 79.9344C150.485 79.8667 150.474 79.7951 150.439 79.7349C150.404 79.6746 150.347 79.6304 150.28 79.6116C150.212 79.5927 150.141 79.6007 150.079 79.6339C144.627 82.258 139.259 85.0566 134.019 88.0827C129.091 90.9284 124.279 93.9693 119.527 97.0988C116.591 99.0327 113.676 100.999 110.766 102.973L111.048 103.455C115.556 99.9786 120.091 96.5368 124.652 93.1295C129.213 89.7227 133.801 86.3511 138.414 83.0147C141.002 81.143 143.585 79.2612 146.204 77.4332C146.261 77.3974 146.301 77.3411 146.317 77.2761C146.333 77.2111 146.323 77.1425 146.289 77.0847C146.256 77.027 146.201 76.9846 146.136 76.9665C146.072 76.9484 146.003 76.956 145.944 76.9877C141.237 79.4038 136.589 81.9292 131.999 84.5637C127.445 87.1782 122.955 89.8994 118.529 92.7273C116.016 94.3352 113.524 95.9763 111.055 97.6505L111.395 98.0914C115.69 94.7288 120.014 91.4036 124.366 88.1155C128.706 84.8382 133.073 81.5983 137.468 78.3959C139.946 76.5903 142.434 74.798 144.932 73.0191C144.992 72.981 145.035 72.9211 145.052 72.8519C145.068 72.7828 145.058 72.7098 145.022 72.6483C144.986 72.5869 144.928 72.5418 144.859 72.5225C144.79 72.5033 144.717 72.5114 144.654 72.5451C139.529 75.2492 134.496 78.1197 129.555 81.1567C124.619 84.1922 119.787 87.3897 115.059 90.749C112.398 92.6448 109.773 94.5897 107.183 96.5838L107.521 97.0221C111.292 93.5946 115.212 90.3363 119.22 87.1909C123.245 84.0317 127.358 80.9857 131.499 77.9809C133.835 76.286 136.178 74.5998 138.526 72.9225C138.773 72.7456 138.54 72.3337 138.285 72.5099C134.606 75.0516 130.923 77.5887 127.238 80.1214L116.13 87.7535L109.878 92.0488L110.209 92.4772C113.185 89.35 116.264 86.3259 119.446 83.4049C122.618 80.5064 125.892 77.7252 129.269 75.0612C131.196 73.541 133.154 72.0617 135.144 70.6233C135.386 70.4476 135.152 70.0395 134.906 70.2171C131.494 72.6785 128.061 75.1087 124.605 77.5076C121.149 79.9046 117.675 82.2758 114.184 84.6211C112.207 85.9486 110.235 87.282 108.254 88.6023L108.57 89.0123C111.694 86.0376 114.893 83.1447 118.166 80.3334C121.455 77.51 124.817 74.7735 128.25 72.1239C130.176 70.6386 132.123 69.182 134.092 67.754C134.283 67.6163 134.102 67.2969 133.905 67.4343C127.707 71.7561 121.64 76.2411 115.751 80.9781C114.097 82.3093 112.456 83.6573 110.828 85.0219L111.209 85.4032C116.657 79.6656 122.487 74.317 128.411 69.0781C130.087 67.5961 131.769 66.121 133.458 64.6529C133.645 64.4903 133.392 64.153 133.189 64.3049C127.021 68.9326 120.852 73.5589 114.682 78.1836C112.948 79.4839 111.215 80.7867 109.485 82.0917L109.832 82.542L126.584 66.3454C128.175 64.807 129.768 63.2705 131.363 61.7361C131.572 61.5345 131.295 61.1548 131.046 61.3253C124.976 65.4736 119.13 69.9399 113.533 74.7057C111.952 76.0521 110.393 77.4236 108.856 78.8203L109.27 79.2347C113.882 74.209 118.677 69.3598 123.655 64.6871C125.051 63.3772 126.461 62.082 127.884 60.8015C128.097 60.6098 127.815 60.233 127.574 60.3998C122.591 63.8524 117.761 67.5098 113.083 71.3722C111.757 72.4723 110.448 73.5913 109.155 74.7294L109.536 75.1106C113.427 70.4563 117.557 66.0082 121.911 61.7843C123.146 60.5858 124.4 59.406 125.671 58.2447C125.862 58.0694 125.601 57.7157 125.388 57.878C121.082 61.1525 116.75 64.3938 112.428 67.6473L108.738 70.4252L109.092 70.8843C112.667 67.1283 116.19 63.321 119.736 59.5379L122.77 56.3014C122.929 56.1317 122.722 55.8303 122.512 55.9675C118.536 58.5475 114.783 61.4573 111.294 64.6663C110.297 65.5903 109.325 66.5392 108.377 67.513L108.776 67.9128C111.823 64.4938 114.883 61.0882 118.017 57.7486C118.912 56.7947 119.812 55.845 120.717 54.8995C120.755 54.8588 120.778 54.8057 120.78 54.7497C120.783 54.6938 120.766 54.6387 120.732 54.5944C120.697 54.55 120.649 54.5194 120.594 54.5078C120.539 54.4963 120.482 54.5047 120.433 54.5315C117.057 56.4096 113.936 58.7135 111.147 61.3867C110.355 62.1499 109.602 62.9482 108.876 63.7752L109.255 64.1537L118.629 52.7951C118.668 52.7539 118.689 52.6995 118.688 52.6432C118.687 52.5869 118.664 52.5331 118.624 52.4933C118.584 52.4535 118.531 52.4307 118.474 52.4297C118.418 52.4287 118.364 52.4497 118.322 52.4881C115.165 55.0723 111.976 57.6164 108.802 60.1788L109.162 60.5397C111.375 58.2042 113.513 55.7893 115.687 53.416C115.766 53.3293 115.64 53.2016 115.557 53.2864L115.557 53.2863Z" fill="white"/>
<path d="M149.26 88.6403L143.391 91.8151C143.185 91.9262 143.368 92.2401 143.574 92.1285L149.439 88.9475C149.64 88.8383 149.461 88.5312 149.259 88.6403H149.26Z" fill="black"/>
<path d="M232.467 45.0001C224.23 42.8679 215.66 44.0789 207.387 45.3499C205.911 45.5767 204.257 45.7464 203.056 46.7304C201.931 47.6518 201.588 49.0463 201.59 50.4467C201.593 52.4635 201.953 54.507 202.166 56.5102C202.408 58.7947 202.647 61.0795 202.882 63.3647C202.885 63.5006 202.94 63.63 203.037 63.7261C203.133 63.8222 203.262 63.8777 203.398 63.8811C211.538 64.0523 219.679 64.1866 227.82 64.3345C229.544 64.3658 231.5 64.6664 233.202 64.3738C234.495 64.1514 234.991 63.1108 235.262 61.935C236.084 58.199 236.241 54.3472 235.726 50.5566C235.644 49.9271 234.649 49.9027 234.716 50.5566C235.108 54.023 234.995 57.5278 234.381 60.9617C234.167 62.0976 234.064 63.1703 232.684 63.3571C231.93 63.4592 231.073 63.3336 230.312 63.32L224.83 63.222C217.686 63.0942 210.542 62.9556 203.398 62.8482L203.914 63.3647C203.48 59.4937 203.005 55.62 202.652 51.7407C202.5 50.0734 202.482 48.1943 204.112 47.2376C205.533 46.404 207.484 46.351 209.074 46.1098C216.759 44.9446 224.575 44.0884 232.251 45.7834C232.759 45.8956 232.976 45.1318 232.467 45.0001H232.467Z" fill="black"/>
<path d="M230.667 46.2631C223.504 44.3932 216.052 45.4552 208.858 46.57C207.574 46.7689 206.136 46.9177 205.091 47.7806C204.113 48.5887 203.815 49.8117 203.816 51.0399C203.819 52.8086 204.132 54.6007 204.317 56.3576C204.528 58.3611 204.735 60.3649 204.94 62.369C204.943 62.4882 204.991 62.6017 205.074 62.686C205.158 62.7703 205.271 62.819 205.389 62.822C212.468 62.9721 219.547 63.0898 226.626 63.2195C228.125 63.247 229.827 63.5107 231.306 63.254C232.43 63.059 232.862 62.1464 233.097 61.1152C233.813 57.8387 233.949 54.4607 233.501 51.1363C233.496 51.0934 233.485 51.0536 233.471 51.0172C233.301 50.5845 232.569 50.6074 232.623 51.1363C232.964 54.1763 232.865 57.25 232.331 60.2616C232.145 61.2577 232.056 62.1985 230.856 62.3624C230.2 62.4519 229.455 62.3418 228.793 62.3299L224.026 62.2439C217.947 62.1342 211.867 62.0154 205.788 61.9222C205.655 61.9201 205.522 61.9181 205.389 61.9161L205.838 62.369C205.821 62.2201 205.805 62.0711 205.788 61.9222C205.424 58.676 205.033 55.4276 204.74 52.1747C204.608 50.7125 204.592 49.0645 206.01 48.2255C207.245 47.4944 208.942 47.4479 210.324 47.2364C217.007 46.2145 223.805 45.4636 230.48 46.9502C230.84 47.0304 231.032 46.5998 230.85 46.3754C230.809 46.3247 230.749 46.2845 230.667 46.2631Z" fill="#C5214B"/>
<path d="M232.623 51.1363C232.569 50.6074 233.301 50.5845 233.471 51.0172C233.15 49.7606 233.365 49.182 232.183 47.2121C232.016 46.9334 231.265 46.6304 230.85 46.3754C231.032 46.5998 230.84 47.0304 230.48 46.9502L231.306 47.2121L232.623 51.1363Z" fill="#C5214B"/>
<path d="M232.331 60.2616C232.865 57.25 232.964 54.1763 232.623 51.1363L231.306 47.2121L230.48 46.9502C223.805 45.4636 217.007 46.2145 210.324 47.2364C208.942 47.4479 207.245 47.4944 206.01 48.2255C204.592 49.0645 204.608 50.7125 204.74 52.1747C205.033 55.4276 205.424 58.676 205.788 61.9222C211.867 62.0154 217.947 62.1342 224.026 62.2439L228.793 62.3299C229.455 62.3418 230.2 62.4519 230.856 62.3624C232.056 62.1985 232.145 61.2577 232.331 60.2616Z" fill="#C5214B"/>
<path d="M203.953 67.3142C205.083 68.5002 206.694 68.5345 208.231 68.576C210.619 68.6405 213.008 68.6703 215.397 68.6857C220.256 68.7168 225.117 68.664 229.974 68.4926C230.555 68.4721 230.558 67.5682 229.974 67.5867C225.61 67.7256 221.245 67.8292 216.879 67.8552C214.738 67.868 212.596 67.8636 210.455 67.8422C208.617 67.8238 205.857 68.2615 204.441 66.8261C204.129 66.509 203.647 66.9925 203.953 67.3141V67.3142Z" fill="black"/>
<path d="M204.945 72.9049C205.805 72.9109 206.665 72.9179 207.525 72.9139C207.632 72.9101 207.734 72.8649 207.808 72.7878C207.883 72.7107 207.925 72.6077 207.925 72.5005C207.925 72.3933 207.883 72.2903 207.808 72.2131C207.734 72.136 207.632 72.0908 207.525 72.0871C206.665 72.0831 205.805 72.0901 204.945 72.0961C204.84 72.0998 204.741 72.144 204.668 72.2194C204.595 72.2949 204.555 72.3956 204.555 72.5005C204.555 72.6053 204.595 72.7061 204.668 72.7815C204.741 72.857 204.84 72.9012 204.945 72.9049Z" fill="black"/>
<path d="M233.325 79.9684C228.554 79.979 223.783 79.9857 219.011 79.9885C214.26 79.9911 209.439 79.7866 204.697 80.0816C204.588 80.0828 204.484 80.1265 204.407 80.2034C204.33 80.2804 204.286 80.3844 204.285 80.4932C204.575 83.6366 204.58 86.827 204.717 89.9812C204.855 93.144 204.997 96.3067 205.143 99.4691C205.146 99.5904 205.195 99.706 205.28 99.7917C205.366 99.8775 205.482 99.9267 205.603 99.929C213.483 100.052 221.425 100.162 229.253 99.1092C230.867 98.8922 232.839 98.8368 234.321 98.1082C235.566 97.4959 236.016 96.3001 236.296 95.0138C237.055 91.3787 237.105 87.6312 236.443 83.9771C236.357 83.4815 235.612 83.6944 235.691 84.1845C236.285 87.7012 236.213 91.2983 235.478 94.7883C235.282 95.6678 235.028 96.6218 234.231 97.1608C233.523 97.6399 232.497 97.7098 231.679 97.8411C229.864 98.1322 228.039 98.3521 226.209 98.5277C219.36 99.185 212.474 99.0818 205.603 99.0092L206.063 99.4691C205.904 96.3064 205.744 93.1438 205.583 89.9812C205.419 86.8279 205.118 83.6505 205.108 80.4932L204.697 80.9047C209.442 81.1553 214.26 80.9052 219.011 80.8631C223.783 80.8208 228.554 80.7826 233.325 80.7484C233.427 80.745 233.522 80.7024 233.593 80.6296C233.663 80.5568 233.702 80.4596 233.702 80.3584C233.702 80.2572 233.663 80.16 233.593 80.0872C233.522 80.0144 233.427 79.9718 233.325 79.9684Z" fill="black"/>
<path d="M231.517 81.5284C227.483 81.5376 223.449 81.5434 219.415 81.5458C215.398 81.5481 211.323 81.3715 207.313 81.6262C207.221 81.6272 207.133 81.6649 207.068 81.7313C207.003 81.7977 206.966 81.8875 206.965 81.9814C207.21 84.6947 207.214 87.4485 207.33 90.171C207.446 92.9011 207.566 95.6309 207.69 98.3606C207.692 98.4653 207.734 98.5651 207.806 98.6391C207.879 98.7131 207.977 98.7556 208.079 98.7576C214.741 98.8637 221.456 98.9584 228.074 98.05C229.439 97.8626 231.106 97.8148 232.359 97.1859C233.411 96.6574 233.792 95.6253 234.029 94.515C234.671 91.3773 234.713 88.1426 234.153 84.9886C234.081 84.5608 233.45 84.7446 233.517 85.1676C234.02 88.203 233.959 91.308 233.337 94.3204C233.171 95.0795 232.956 95.903 232.283 96.3682C231.684 96.7817 230.817 96.842 230.125 96.9554C228.591 97.2067 227.047 97.3965 225.501 97.548C219.71 98.1154 213.888 98.0263 208.079 97.9637L208.468 98.3606C208.334 95.6307 208.198 92.9009 208.062 90.171C207.923 87.4493 207.669 84.7066 207.661 81.9814L207.313 82.3366C211.325 82.5529 215.398 82.337 219.415 82.3007C223.449 82.2642 227.483 82.2313 231.517 82.2017C231.603 82.1987 231.684 82.162 231.743 82.0992C231.803 82.0364 231.836 81.9524 231.836 81.8651C231.836 81.7777 231.803 81.6938 231.743 81.631C231.684 81.5682 231.603 81.5314 231.517 81.5284Z" fill="black"/>
<path d="M208.547 107.863C217.597 108.238 226.655 107.369 235.469 105.283C236.007 105.155 235.779 104.327 235.241 104.455C226.504 106.548 217.526 107.458 208.547 107.159C208.093 107.143 208.094 107.845 208.547 107.864V107.863Z" fill="black"/>
<path d="M208.813 112.338C210.531 112.459 212.249 112.585 213.971 112.635C214.486 112.65 214.471 111.887 213.971 111.844C212.254 111.698 210.533 111.627 208.813 111.551C208.303 111.529 208.311 112.303 208.813 112.338Z" fill="black"/>
<path d="M210.88 118.022C210.975 118.019 211.066 117.979 211.132 117.91C211.199 117.841 211.236 117.749 211.236 117.654C211.236 117.558 211.199 117.466 211.132 117.397C211.066 117.329 210.975 117.288 210.88 117.285C210.784 117.288 210.693 117.329 210.627 117.397C210.561 117.466 210.523 117.558 210.523 117.654C210.523 117.749 210.561 117.841 210.627 117.91C210.693 117.979 210.784 118.019 210.88 118.022Z" fill="black"/>
<path d="M51.9079 151.53C50.2872 151.5 48.564 151.659 47.0014 151.14C45.1273 150.518 43.6337 148.979 42.3171 147.569C39.8501 144.938 37.9695 141.814 36.7994 138.403C34.5795 131.862 35.1686 124.683 37.6795 118.315C40.5601 111.008 46.0884 104.788 52.3354 100.134C55.952 97.4398 59.9224 95.773 64.1431 94.2603C68.5583 92.678 73.045 91.3181 77.6033 90.1804C80.1063 89.5561 82.625 88.9999 85.1592 88.5116C87.6185 88.0384 90.1219 87.7653 92.5729 87.2648C94.1475 86.9433 95.6124 86.1536 96.2422 84.5985C96.7869 83.2534 96.3187 81.9966 95.0911 81.2672V82.09C96.4512 81.3895 97.7508 80.1442 97.6142 78.4848C97.5712 77.8123 97.2756 77.1809 96.7869 76.717C96.2981 76.2531 95.6521 75.9909 94.9783 75.9829L95.2192 76.8721C97.893 75.3319 97.9472 71.7342 95.363 70.0748L95.1218 70.9653C97.9305 70.8254 100.67 70.0459 103.132 68.6863C104.728 67.7936 107.366 66.1588 106.498 63.9209C105.696 61.8539 102.217 62.3805 100.522 62.2687C97.146 62.0464 93.7846 61.6466 90.4511 61.071C87.3152 60.5294 84.2452 59.6366 81.106 59.1375C78.2292 58.7106 75.3219 58.5241 72.4141 58.58C66.7769 58.599 61.159 59.2407 55.6627 60.4934C45.0128 62.9816 34.8565 67.9235 26.6059 75.14C18.6681 82.0962 12.2308 90.5969 7.68675 100.123C-1.58364 119.698 -3.07347 144.996 10.4984 163.006C22.2266 178.57 42.0558 186.06 61.1756 184.881C69.7975 184.349 78.4389 182.529 86.4611 179.305C94.0543 176.253 101.431 171.8 106.391 165.151C107.56 163.579 108.563 161.89 109.383 160.111C109.66 159.515 108.774 158.992 108.496 159.593C105.163 166.78 98.8507 171.982 91.9689 175.626C84.5913 179.533 76.3885 181.883 68.1545 183.112C59.9945 184.33 51.6562 184.372 43.5812 182.552C34.2267 180.444 25.3082 176.099 18.1114 169.73C10.3841 162.887 5.03715 153.761 2.84594 143.674C0.478891 132.951 1.42538 121.73 4.50325 111.252C10.2082 91.8298 24.2353 74.4054 42.7517 65.9158C52.6118 61.3951 63.4076 59.3794 74.229 59.5497C77.1034 59.5538 79.9699 59.8497 82.7845 60.433C85.7208 61.0862 88.6357 61.763 91.6102 62.2314C94.4851 62.6841 97.3761 63.0109 100.283 63.2119C101.61 63.3026 103.049 63.2013 104.352 63.4683C105.73 63.7506 105.974 65.0844 105.127 66.0739C104.617 66.6079 104.031 67.0625 103.387 67.4224C100.895 68.9694 98.0512 69.8595 95.1219 70.0095C95.0185 70.0125 94.9188 70.0488 94.8376 70.1129C94.7564 70.1769 94.698 70.2654 94.6709 70.3653C94.6439 70.4651 94.6497 70.571 94.6875 70.6673C94.7252 70.7636 94.793 70.8452 94.8807 70.9C96.8691 72.1763 96.7716 74.8758 94.7376 76.048C94.6498 76.1026 94.5819 76.184 94.544 76.2803C94.5061 76.3765 94.5002 76.4824 94.5272 76.5822C94.5543 76.6821 94.6128 76.7705 94.6941 76.8345C94.7754 76.8984 94.8752 76.9344 94.9785 76.9372C96.2824 76.9284 96.9368 78.2994 96.5209 79.4242C96.1941 80.3081 95.4164 80.8518 94.6104 81.2671C94.5395 81.3099 94.4809 81.3703 94.4402 81.4424C94.3995 81.5144 94.3782 81.5958 94.3782 81.6786C94.3782 81.7613 94.3995 81.8427 94.4402 81.9148C94.4809 81.9869 94.5395 82.0472 94.6104 82.09C95.5935 82.6738 95.7356 83.6433 95.1802 84.6059C94.6435 85.5359 93.7191 86.0118 92.7059 86.2632C90.5412 86.8 88.2546 86.9744 86.0592 87.3783C81.3686 88.2417 76.7248 89.3427 72.1458 90.677C67.6459 91.9681 63.2189 93.5008 58.884 95.2686C55.1324 96.8173 51.7785 99.1962 48.7496 101.873C43.2232 106.758 38.6026 112.645 36.2455 119.702C34.1608 125.942 33.9046 132.869 36.1711 139.099C37.4894 142.691 39.5674 145.955 42.2633 148.67C43.5289 149.95 44.9211 151.249 46.6517 151.853C48.3291 152.438 50.1624 152.281 51.9081 152.31C52.4103 152.318 52.4102 151.539 51.9081 151.53L51.9079 151.53Z" fill="black"/>
<path d="M51.9088 151.916C48.5537 151.842 46.7998 152.242 43.9153 149.68C31.0547 138.256 33.1124 119.839 43.6025 107.743C47.7244 102.989 53.2974 98.0006 59.1966 95.6363C69.5127 91.5034 80.2804 88.602 91.2765 86.9924C92.3145 86.8406 93.3849 86.69 94.29 86.1587C95.9314 85.1948 96.891 82.7298 94.8517 81.6743C95.9443 81.1513 96.9901 80.2258 97.1423 78.9532C97.2925 77.6979 96.2369 76.3262 94.9794 76.4558C95.5281 76.1807 95.9917 75.7614 96.3204 75.2429C96.6491 74.7244 96.8306 74.1263 96.8453 73.5126C96.86 72.8988 96.7075 72.2927 96.4041 71.759C96.1006 71.2254 95.6577 70.7843 95.1228 70.4831C98.4301 70.3325 101.627 69.2491 104.345 67.3581C104.971 66.9698 105.5 66.4416 105.888 65.815C106.238 65.1695 106.297 64.3183 105.857 63.7301C105.318 63.0078 104.287 62.9239 103.386 62.891C96.6939 62.6457 90.0447 61.7142 83.543 60.1112C78.6838 58.9129 72.9996 58.9359 67.9922 59.2072C52.1975 60.0628 36.2782 66.3911 24.8311 77.4263C12.6133 89.2048 4.75422 103.342 1.918 120.324C-0.12109 132.533 1.16695 145.509 6.94323 156.457C15.6909 173.037 34.2125 183.269 52.9247 184.394C71.2289 185.495 100.511 178.3 108.94 159.848" fill="#BD9FCC"/>
<path d="M51.9079 151.53C50.2872 151.5 48.564 151.659 47.0014 151.14C45.1273 150.518 43.6337 148.979 42.3171 147.569C39.8501 144.938 37.9695 141.814 36.7994 138.403C34.5795 131.862 35.1686 124.683 37.6795 118.315C40.5601 111.008 46.0884 104.788 52.3354 100.134C55.952 97.4398 59.9224 95.773 64.1431 94.2603C68.5583 92.678 73.045 91.3181 77.6033 90.1804C80.1063 89.5561 82.625 88.9999 85.1592 88.5116C87.6185 88.0384 90.1219 87.7653 92.5729 87.2648C94.1475 86.9433 95.6124 86.1536 96.2422 84.5985C96.7869 83.2534 96.3187 81.9966 95.0911 81.2672V82.09C96.4512 81.3895 97.7508 80.1442 97.6142 78.4848C97.5712 77.8123 97.2756 77.1809 96.7869 76.717C96.2981 76.2531 95.6521 75.9909 94.9783 75.9829L95.2192 76.8721C97.893 75.3319 97.9472 71.7342 95.363 70.0748L95.1218 70.9653C97.9305 70.8254 100.67 70.0459 103.132 68.6863C104.728 67.7936 107.366 66.1588 106.498 63.9209C105.696 61.8539 102.217 62.3805 100.522 62.2687C97.146 62.0464 93.7846 61.6466 90.4511 61.071C87.3152 60.5294 84.2452 59.6366 81.106 59.1375C78.2292 58.7106 75.3219 58.5241 72.4141 58.58C66.7769 58.599 61.159 59.2407 55.6627 60.4934C45.0128 62.9816 34.8565 67.9235 26.6059 75.14C18.6681 82.0962 12.2308 90.5969 7.68675 100.123C-1.58364 119.698 -3.07347 144.996 10.4984 163.006C22.2266 178.57 42.0558 186.06 61.1756 184.881C69.7975 184.349 78.4389 182.529 86.4611 179.305C94.0543 176.253 101.431 171.8 106.391 165.151C107.56 163.579 108.563 161.89 109.383 160.111C109.66 159.515 108.774 158.992 108.496 159.593C105.163 166.78 98.8507 171.982 91.9689 175.626C84.5913 179.533 76.3885 181.883 68.1545 183.112C59.9945 184.33 51.6562 184.372 43.5812 182.552C34.2267 180.444 25.3082 176.099 18.1114 169.73C10.3841 162.887 5.03715 153.761 2.84594 143.674C0.478891 132.951 1.42538 121.73 4.50325 111.252C10.2082 91.8298 24.2353 74.4054 42.7517 65.9158C52.6118 61.3951 63.4076 59.3794 74.229 59.5497C77.1034 59.5538 79.9699 59.8497 82.7845 60.433C85.7208 61.0862 88.6357 61.763 91.6102 62.2314C94.4851 62.6841 97.3761 63.0109 100.283 63.2119C101.61 63.3026 103.049 63.2013 104.352 63.4683C105.73 63.7506 105.974 65.0844 105.127 66.0739C104.617 66.6079 104.031 67.0625 103.387 67.4224C100.895 68.9694 98.0512 69.8595 95.1219 70.0095C95.0185 70.0125 94.9188 70.0488 94.8376 70.1129C94.7564 70.1769 94.698 70.2654 94.6709 70.3653C94.6439 70.4651 94.6497 70.571 94.6875 70.6673C94.7252 70.7636 94.793 70.8452 94.8807 70.9C96.8691 72.1763 96.7716 74.8758 94.7376 76.048C94.6498 76.1026 94.5819 76.184 94.544 76.2803C94.5061 76.3765 94.5002 76.4824 94.5272 76.5822C94.5543 76.6821 94.6128 76.7705 94.6941 76.8345C94.7754 76.8984 94.8752 76.9344 94.9785 76.9372C96.2824 76.9284 96.9368 78.2994 96.5209 79.4242C96.1941 80.3081 95.4164 80.8518 94.6104 81.2671C94.5395 81.3099 94.4809 81.3703 94.4402 81.4424C94.3995 81.5144 94.3782 81.5958 94.3782 81.6786C94.3782 81.7613 94.3995 81.8427 94.4402 81.9148C94.4809 81.9869 94.5395 82.0472 94.6104 82.09C95.5935 82.6738 95.7356 83.6433 95.1802 84.6059C94.6435 85.5359 93.7191 86.0118 92.7059 86.2632C90.5412 86.8 88.2546 86.9744 86.0592 87.3783C81.3686 88.2417 76.7248 89.3427 72.1458 90.677C67.6459 91.9681 63.2189 93.5008 58.884 95.2686C55.1324 96.8173 51.7785 99.1962 48.7496 101.873C43.2232 106.758 38.6026 112.645 36.2455 119.702C34.1608 125.942 33.9046 132.869 36.1711 139.099C37.4894 142.691 39.5674 145.955 42.2633 148.67C43.5289 149.95 44.9211 151.249 46.6517 151.853C48.3291 152.438 50.1624 152.281 51.9081 152.31C52.4103 152.318 52.4102 151.539 51.9081 151.53L51.9079 151.53Z" fill="black"/>
<path d="M67.4954 81.4063C67.3845 84.2084 68.1092 86.9801 69.5774 89.3692C69.8865 89.8736 70.6868 89.4085 70.3719 88.9048C68.9536 86.6657 68.2315 84.0561 68.2971 81.4063C68.3085 80.8896 67.5137 80.8916 67.4954 81.4063Z" fill="black"/>
<path d="M90.6191 69.7818C92.1821 70.4212 93.9993 70.9758 95.7077 70.7814C95.8166 70.7774 95.9196 70.7313 95.9952 70.6529C96.0708 70.5744 96.113 70.4698 96.113 70.3608C96.113 70.2519 96.0708 70.1472 95.9952 70.0688C95.9196 69.9904 95.8166 69.9443 95.7077 69.9403C93.9922 69.8254 92.4237 69.7658 90.8016 69.1197C90.3897 68.9556 90.2162 69.6169 90.6191 69.7817V69.7818Z" fill="black"/>
<path d="M100.439 65.1487C100.85 65.4065 101.326 65.5406 101.812 65.5351C102.297 65.5295 102.77 65.3845 103.175 65.1174C103.65 64.8033 103.187 64.0283 102.73 64.357C102.46 64.5636 102.136 64.6867 101.797 64.711C101.457 64.7353 101.119 64.6598 100.822 64.4938C100.735 64.447 100.634 64.4357 100.539 64.4622C100.444 64.4888 100.363 64.5512 100.314 64.6362C100.264 64.7212 100.249 64.8222 100.273 64.9178C100.296 65.0135 100.356 65.0963 100.439 65.1488V65.1487Z" fill="black"/>
<path d="M71.8255 159.768C73.5356 161.3 75.5028 163.442 74.9927 165.941C74.7428 167.165 74.0144 168.271 73.4088 169.346C72.8519 170.335 72.2742 171.31 71.6547 172.261C70.4359 174.131 68.9971 175.922 67.1315 177.183C65.0745 178.573 62.6771 179.052 60.2468 179.305C57.5138 179.59 54.6964 179.674 52.1474 180.812C51.9825 180.885 52.1254 181.125 52.2889 181.054C56.9828 178.995 62.5484 180.429 66.9942 177.598C68.9187 176.372 70.4313 174.61 71.7042 172.739C72.3606 171.774 72.9519 170.766 73.5242 169.75C74.1212 168.69 74.8098 167.614 75.1453 166.435C75.9288 163.683 73.8628 161.333 71.9401 159.654C71.8623 159.586 71.7478 159.698 71.8257 159.768L71.8255 159.768Z" fill="black"/>
<path d="M79.1533 159.147C77.0844 165.414 74.2848 171.416 70.8123 177.028C69.8385 178.603 68.8101 180.145 67.7478 181.662C67.597 181.877 67.9477 182.077 68.0985 181.867C71.9324 176.484 75.0882 170.649 77.4946 164.494C78.1819 162.754 78.8099 160.993 79.3786 159.21C79.4245 159.066 79.2002 159.005 79.1533 159.147Z" fill="black"/>
<path d="M79.6916 163.972C77.7658 167.995 75.6785 171.935 73.4296 175.792C72.7935 176.88 72.14 177.957 71.487 179.035C71.464 179.078 71.4587 179.129 71.4722 179.176C71.4856 179.224 71.5169 179.264 71.5593 179.289C71.6018 179.314 71.6522 179.321 71.7 179.31C71.7478 179.298 71.7894 179.269 71.816 179.227C74.1526 175.431 76.2928 171.504 78.2872 167.518C78.8512 166.391 79.4021 165.258 79.9399 164.118C80.0184 163.951 79.7718 163.805 79.6915 163.972L79.6916 163.972Z" fill="black"/>
<path d="M83.0568 158.378C80.2133 163.902 77.3652 169.424 74.5123 174.944C74.1098 175.721 73.7069 176.499 73.3034 177.276C72.88 178.016 72.4955 178.778 72.1512 179.558C72.0622 179.784 72.4081 179.905 72.529 179.717C72.9291 179.033 73.2934 178.328 73.6202 177.606C73.9575 176.935 74.2956 176.264 74.6344 175.594L76.7227 171.461C78.1147 168.705 79.5111 165.952 80.9118 163.201L83.2926 158.515C83.372 158.359 83.1374 158.221 83.0568 158.378Z" fill="black"/>
<path d="M85.6026 157.342C82.9262 163.173 79.8964 168.835 76.5303 174.298C75.5821 175.841 74.5969 177.359 73.6113 178.878L74.063 179.142L74.3922 178.473C74.42 178.422 74.4267 178.361 74.4108 178.305C74.3949 178.248 74.3577 178.2 74.307 178.17C74.2563 178.141 74.1961 178.132 74.139 178.146C74.0819 178.16 74.0325 178.195 74.0011 178.245L73.6113 178.878C73.4337 179.167 73.8792 179.422 74.063 179.142C77.5665 173.765 80.7296 168.174 83.5337 162.401C84.331 160.775 85.1055 159.139 85.8572 157.491C85.9352 157.32 85.6815 157.17 85.6027 157.342H85.6026Z" fill="black"/>
<path d="M88.3619 156.547C85.259 162.648 81.879 168.603 78.2855 174.428C77.2767 176.063 76.2497 177.687 75.2043 179.299L75.7037 179.51C75.8804 178.978 76.0569 178.446 76.2332 177.913C76.3366 177.602 75.8533 177.475 75.7445 177.779C75.5552 178.307 75.366 178.836 75.1768 179.365C75.0689 179.666 75.5159 179.827 75.6761 179.575C79.3522 173.801 82.7843 167.881 85.9724 161.818C86.8664 160.117 87.7534 158.413 88.6164 156.696C88.7013 156.527 88.4481 156.378 88.3619 156.547L88.3619 156.547Z" fill="black"/>
<path d="M90.1821 157.07C87.3122 162.485 84.2343 167.779 80.9482 172.955C80.0257 174.409 79.0727 175.843 78.1437 177.293C77.9645 177.573 78.403 177.823 78.5862 177.552L79.5172 176.174C79.6907 175.917 79.2798 175.684 79.1043 175.932L78.1438 177.293L78.5862 177.552C80.2898 175.01 81.8768 172.382 83.4428 169.753C85.0105 167.122 86.5316 164.463 88.0059 161.778C88.8372 160.27 89.6526 158.753 90.4522 157.228C90.5455 157.05 90.2765 156.892 90.1821 157.07L90.1821 157.07Z" fill="black"/>
<path d="M91.6593 159.089C88.5156 164.405 85.3143 169.687 82.0555 174.934C81.143 176.403 80.212 177.861 79.3055 179.334L79.7963 179.467L79.8189 178.103C79.8166 178.037 79.7887 177.974 79.7411 177.928C79.6935 177.882 79.6299 177.856 79.5637 177.856C79.4975 177.856 79.4339 177.882 79.3862 177.928C79.3386 177.974 79.3108 178.037 79.3085 178.103L79.2695 179.467C79.2711 179.524 79.291 179.579 79.3263 179.624C79.3616 179.669 79.4104 179.701 79.4655 179.716C79.5206 179.731 79.579 179.728 79.6321 179.707C79.6852 179.686 79.7301 179.648 79.7603 179.6C83.0584 174.382 86.1995 169.056 89.3303 163.737C90.2074 162.246 91.0799 160.753 91.9479 159.258C91.9682 159.219 91.973 159.175 91.9612 159.133C91.9494 159.092 91.922 159.056 91.8847 159.035C91.8474 159.013 91.8031 159.006 91.7611 159.016C91.7191 159.026 91.6826 159.052 91.6593 159.089L91.6593 159.089Z" fill="black"/>
<path d="M93.2033 160.377C90.6763 164.827 87.9488 169.17 85.0046 173.357C84.1739 174.538 83.3138 175.697 82.4686 176.868L82.9517 177.071C83.2645 176.246 83.5689 175.417 83.8647 174.586C83.9613 174.315 83.5476 174.216 83.4419 174.47C83.1004 175.287 82.7672 176.107 82.442 176.931C82.3232 177.232 82.7621 177.354 82.925 177.134C84.4551 175.075 85.8884 172.935 87.2947 170.79C88.6924 168.658 90.0394 166.494 91.3356 164.298C92.069 163.056 92.7857 161.804 93.4858 160.542C93.5058 160.505 93.5106 160.461 93.4991 160.42C93.4876 160.379 93.4607 160.345 93.4242 160.323C93.3876 160.302 93.3441 160.295 93.3029 160.305C93.2618 160.315 93.2261 160.341 93.2033 160.377Z" fill="black"/>
<path d="M96.3311 158.11C93.1835 162.735 90.0196 167.349 86.8392 171.951C85.9413 173.258 85.0163 174.55 84.146 175.876C83.9608 176.158 84.4027 176.405 84.5931 176.137C85.1933 175.294 85.7903 174.449 86.3841 173.602C86.5123 173.419 86.2098 173.181 86.0708 173.361C85.4245 174.195 84.7829 175.034 84.146 175.876L84.5932 176.137C86.1975 173.85 87.7109 171.494 89.2672 169.174L93.9392 162.21C94.8226 160.893 95.71 159.579 96.6012 158.267C96.7144 158.1 96.4438 157.944 96.3311 158.11H96.3311Z" fill="black"/>
<path d="M99.8951 157.841C96.712 162.333 93.4775 166.789 90.1915 171.208C89.2617 172.462 88.3097 173.7 87.3896 174.961C87.2482 175.155 87.533 175.446 87.7268 175.298C88.0616 175.051 88.314 174.709 88.4508 174.316C88.5302 174.093 88.1583 173.931 88.0631 174.153C87.9441 174.446 87.7404 174.696 87.478 174.873L87.8152 175.21C89.4745 173.02 91.0596 170.768 92.6582 168.534C94.2576 166.298 95.8305 164.043 97.3989 161.786C98.2883 160.506 99.161 159.214 100.038 157.925C100.098 157.836 99.9559 157.755 99.8951 157.841V157.841Z" fill="black"/>
<path d="M101.406 158.6C98.5978 162.479 95.7638 166.339 92.9041 170.18C92.4949 170.732 92.0854 171.283 91.6756 171.835C91.4769 172.102 91.2782 172.37 91.0794 172.637C90.98 172.771 90.8805 172.904 90.7811 173.038C90.744 173.088 90.707 173.138 90.6701 173.189C90.6386 173.241 90.6011 173.289 90.5585 173.332C90.4917 173.385 90.5088 173.452 90.6097 173.532L90.4545 173.597L90.4999 173.594C90.5562 173.592 90.6097 173.569 90.6489 173.528C90.6881 173.488 90.7101 173.433 90.7101 173.377C90.7101 173.32 90.6881 173.266 90.6489 173.226C90.6097 173.185 90.5562 173.161 90.4999 173.159C90.1331 173.145 90.0831 173.668 90.3829 173.812C90.8531 174.038 91.2597 173.206 91.4598 172.931C92.2928 171.788 93.1245 170.644 93.9549 169.499C95.6036 167.226 97.2473 164.949 98.886 162.669C99.8209 161.368 100.757 160.068 101.695 158.769C101.821 158.594 101.531 158.427 101.406 158.6H101.406Z" fill="black"/>
<path d="M103.205 160.089C100.571 163.085 97.9311 166.113 95.5236 169.296L95.9083 169.521L97.1064 167.721C97.2449 167.513 96.9154 167.327 96.7743 167.527L95.5236 169.296C95.3791 169.501 95.7149 169.764 95.8735 169.566C98.3655 166.456 100.814 163.324 103.439 160.323C103.579 160.163 103.346 159.929 103.205 160.089V160.089Z" fill="black"/>
<path d="M104.238 162.65L98.8454 169.27C98.6826 169.47 98.9685 169.756 99.13 169.554L104.472 162.884C104.603 162.72 104.373 162.485 104.238 162.65Z" fill="black"/>
<path d="M67.6291 176.211C66.1946 178.822 64.413 181.227 62.3328 183.361C62.2937 183.403 62.2725 183.458 62.2735 183.515C62.2745 183.573 62.2977 183.627 62.3382 183.668C62.3788 183.708 62.4334 183.732 62.4907 183.733C62.548 183.734 62.6035 183.712 62.6454 183.673C64.7657 181.526 66.5504 179.071 67.9395 176.392C68.0469 176.188 67.7396 176.007 67.6291 176.211Z" fill="black"/>
<path d="M62.0277 178.777C61.4108 180.081 60.4641 181.202 59.2813 182.028C59.0697 182.177 59.27 182.528 59.4864 182.379C60.7255 181.514 61.7069 180.33 62.3257 178.951C62.4158 178.751 62.1227 178.575 62.0277 178.777Z" fill="black"/>
<path d="M57.2407 179.799L56.2108 181.069C56.1858 181.095 56.1719 181.13 56.1719 181.167C56.1719 181.203 56.1858 181.238 56.2108 181.265C56.2369 181.29 56.272 181.305 56.3087 181.305C56.3453 181.305 56.3805 181.29 56.4065 181.265L57.4212 179.979C57.4442 179.955 57.457 179.922 57.457 179.889C57.457 179.855 57.4442 179.823 57.4212 179.799C57.3972 179.775 57.3647 179.762 57.331 179.762C57.2972 179.762 57.2648 179.775 57.2408 179.799L57.2407 179.799Z" fill="black"/>
<path d="M53.4976 181.523C53.5222 181.522 53.5454 181.512 53.5624 181.494C53.5794 181.476 53.5889 181.452 53.5889 181.428C53.5889 181.403 53.5794 181.379 53.5624 181.362C53.5454 181.344 53.5222 181.333 53.4976 181.332C53.473 181.333 53.4498 181.344 53.4327 181.362C53.4157 181.379 53.4062 181.403 53.4062 181.428C53.4062 181.452 53.4157 181.476 53.4327 181.494C53.4498 181.512 53.473 181.522 53.4976 181.523Z" fill="black"/>
<path d="M51.1967 181.071C51.2358 181.07 51.273 181.054 51.3002 181.025C51.3274 180.997 51.3426 180.96 51.3426 180.921C51.3426 180.881 51.3274 180.844 51.3002 180.816C51.273 180.787 51.2358 180.771 51.1967 180.77C51.1575 180.771 51.1204 180.787 51.0932 180.816C51.066 180.844 51.0508 180.881 51.0508 180.921C51.0508 180.96 51.066 180.997 51.0932 181.025C51.1204 181.054 51.1575 181.07 51.1967 181.071Z" fill="black"/>
<path d="M48.3853 180.803C48.4226 180.802 48.458 180.786 48.484 180.759C48.51 180.733 48.5245 180.697 48.5245 180.659C48.5245 180.622 48.51 180.586 48.484 180.559C48.458 180.533 48.4226 180.517 48.3853 180.516C48.348 180.517 48.3126 180.533 48.2866 180.559C48.2606 180.586 48.2461 180.622 48.2461 180.659C48.2461 180.697 48.2606 180.733 48.2866 180.759C48.3126 180.786 48.348 180.802 48.3853 180.803Z" fill="black"/>
<path d="M65.2029 156.566C68.9218 157.263 73.3999 158.238 75.0978 162.086C75.1813 162.275 75.4529 162.111 75.3741 161.924C73.7016 157.966 69.0612 156.977 65.2774 156.296C65.1013 156.264 65.0251 156.533 65.2029 156.566Z" fill="black"/>
<path d="M75.0494 156.73C75.4897 157.746 75.9191 158.767 76.389 159.77C76.4615 159.924 76.7346 159.813 76.6682 159.652C76.24 158.617 75.7714 157.598 75.3131 156.576C75.2325 156.396 74.9721 156.552 75.0493 156.73H75.0494Z" fill="black"/>
<path d="M75.8601 161.527L76.114 162.294C76.1236 162.328 76.1458 162.356 76.176 162.372C76.2061 162.389 76.2417 162.394 76.2749 162.384C76.3082 162.375 76.3366 162.353 76.3538 162.323C76.371 162.293 76.3758 162.258 76.367 162.225L76.1097 161.458C76.1052 161.442 76.0975 161.427 76.087 161.413C76.0766 161.4 76.0636 161.389 76.0488 161.38C76.034 161.372 76.0177 161.366 76.0009 161.364C75.984 161.362 75.9669 161.363 75.9505 161.368C75.9341 161.372 75.9188 161.38 75.9054 161.391C75.892 161.401 75.8807 161.414 75.8723 161.429C75.8639 161.444 75.8586 161.46 75.8565 161.477C75.8544 161.494 75.8556 161.511 75.8601 161.527Z" fill="black"/>
<path d="M7.94925 125.398C7.00473 128.558 6.96082 131.919 7.82245 135.103C7.83739 135.15 7.87022 135.19 7.91402 135.214C7.95782 135.238 8.00917 135.244 8.05725 135.231C8.10533 135.217 8.14639 135.186 8.17177 135.143C8.19715 135.1 8.20488 135.049 8.19332 135.001C7.36703 131.88 7.39767 128.595 8.28203 125.49C8.2924 125.447 8.28546 125.401 8.26268 125.362C8.2399 125.324 8.20306 125.295 8.15992 125.284C8.11677 125.272 8.0707 125.277 8.0314 125.298C7.99211 125.32 7.96266 125.356 7.94925 125.398Z" fill="black"/>
<path d="M8.63281 117.74L8.63459 118.892C8.63429 118.919 8.63942 118.946 8.64967 118.972C8.65992 118.997 8.6751 119.02 8.69432 119.04C8.71354 119.059 8.73643 119.075 8.76166 119.085C8.78688 119.096 8.81395 119.101 8.84128 119.101C8.86862 119.101 8.89569 119.096 8.92091 119.085C8.94614 119.075 8.96902 119.059 8.98825 119.04C9.00747 119.02 9.02265 118.997 9.0329 118.972C9.04315 118.946 9.04828 118.919 9.04797 118.892L9.04978 117.74C9.04978 117.684 9.02782 117.631 8.98872 117.592C8.94962 117.553 8.89659 117.531 8.8413 117.531C8.786 117.531 8.73297 117.553 8.69388 117.592C8.65478 117.631 8.63281 117.684 8.63281 117.74Z" fill="black"/>
<path d="M181.529 151.307C183.736 148.345 186.92 146.259 190.518 145.418C191.526 145.181 192.556 145.049 193.591 145.025C193.629 145.024 193.665 145.008 193.691 144.981C193.717 144.954 193.731 144.918 193.731 144.88C193.731 144.842 193.717 144.806 193.691 144.779C193.665 144.752 193.629 144.736 193.591 144.734C189.817 144.81 186.198 146.255 183.41 148.801C182.627 149.517 181.922 150.313 181.305 151.176C181.208 151.312 181.432 151.44 181.529 151.307L181.529 151.307Z" fill="black"/>
<path d="M204.365 146.458C209.862 145.675 215.527 144.786 220.535 142.258C222.984 141.057 225.158 139.365 226.922 137.286C227.934 136.063 228.769 134.711 229.68 133.415C230.563 132.108 231.63 130.933 232.846 129.927C235.55 127.767 238.886 126.607 242.106 125.459C242.296 125.391 242.215 125.087 242.022 125.154C239.184 126.135 236.306 127.165 233.795 128.847C232.552 129.672 231.439 130.678 230.493 131.832C229.493 133.063 228.665 134.418 227.755 135.714C226.104 138.07 223.956 140.035 221.463 141.469C219.057 142.862 216.419 143.811 213.74 144.523C210.65 145.345 207.489 145.859 204.329 146.33C204.245 146.342 204.281 146.47 204.365 146.458L204.365 146.458Z" fill="black"/>
<path d="M222.438 147.456C224.516 146.689 226.305 145.297 227.56 143.472C228.24 142.474 228.713 141.331 229.516 140.418C230.285 139.585 231.289 139.006 232.395 138.759C233.642 138.441 234.918 138.438 236.193 138.358C236.231 138.357 236.267 138.341 236.294 138.313C236.32 138.286 236.335 138.249 236.335 138.211C236.335 138.173 236.32 138.136 236.294 138.109C236.267 138.081 236.231 138.065 236.193 138.064C234.106 138.022 231.675 138.215 229.974 139.554C229.039 140.291 228.474 141.34 227.892 142.355C227.327 143.379 226.61 144.311 225.764 145.12C224.78 146.032 223.629 146.747 222.374 147.224C222.231 147.279 222.292 147.51 222.438 147.456Z" fill="black"/>
<path d="M233.605 146.67L237.07 144.764C237.246 144.667 237.088 144.395 236.912 144.494L233.463 146.428C233.306 146.517 233.447 146.758 233.605 146.67H233.605Z" fill="black"/>
<path d="M152.835 151.703L155.523 152.089C155.565 152.099 155.61 152.093 155.647 152.071C155.685 152.05 155.713 152.015 155.726 151.973C155.738 151.931 155.732 151.886 155.71 151.848C155.689 151.81 155.653 151.782 155.611 151.77L152.922 151.387C152.88 151.377 152.836 151.384 152.799 151.405C152.761 151.426 152.733 151.461 152.721 151.502C152.709 151.544 152.715 151.588 152.736 151.626C152.758 151.663 152.793 151.691 152.835 151.703L152.835 151.703Z" fill="black"/>
<path d="M198.315 5.51762C199.281 5.06442 200.372 5.24344 201.288 5.73343C202.221 6.26935 202.995 7.0429 203.533 7.97537C204.644 9.75742 205.308 11.8406 206.93 13.2607C207.716 13.9486 208.687 14.449 209.752 14.4279C209.78 14.4268 209.808 14.4146 209.828 14.3938C209.848 14.373 209.859 14.3453 209.859 14.3164C209.859 14.2875 209.848 14.2598 209.828 14.239C209.808 14.2182 209.78 14.206 209.752 14.205C207.457 14.0768 206.074 12.0216 205.123 10.168C204.167 8.30523 203.213 6.24982 201.179 5.36229C200.716 5.13746 200.21 5.01782 199.696 5.01195C199.181 5.00608 198.672 5.11412 198.205 5.32833C198.077 5.39142 198.189 5.57699 198.315 5.51767L198.315 5.51762Z" fill="black"/>
<path d="M211.58 15.2975C212.779 15.9393 214.348 15.8776 215.551 15.2986C215.714 15.2204 215.571 14.9906 215.411 15.0596C214.817 15.3146 214.178 15.4471 213.531 15.4493C212.896 15.4348 212.268 15.3043 211.679 15.0643C211.543 15.0137 211.454 15.2299 211.58 15.2975Z" fill="black"/>
<path d="M214.269 9.14519C215.748 9.84699 217.034 10.8996 218.014 12.2114C218.141 12.3823 218.432 12.2148 218.303 12.0426C217.289 10.6857 215.959 9.59728 214.429 8.87216C214.246 8.78591 214.085 9.05768 214.269 9.14529L214.269 9.14519Z" fill="black"/>
<path d="M48.5551 38.6631C48.9659 36.6327 49.7442 34.6943 50.8517 32.9436C50.9657 32.7632 50.6792 32.5966 50.5661 32.7766C49.4487 34.5543 48.665 36.521 48.2535 38.58C48.2143 38.7764 48.5151 38.8607 48.5551 38.6631Z" fill="black"/>
<path d="M93.0821 51.1401C93.1437 52.7446 93.2797 54.3375 93.313 55.9455C93.3171 56.0625 93.3664 56.1732 93.4505 56.2545C93.5347 56.3357 93.6471 56.3812 93.7641 56.3812C93.8811 56.3812 93.9935 56.3357 94.0777 56.2545C94.1618 56.1732 94.2111 56.0625 94.2152 55.9455C94.2997 54.3002 94.1644 52.6509 93.8128 51.0412C93.7868 50.9566 93.7316 50.8839 93.657 50.8362C93.5824 50.7885 93.4932 50.7688 93.4055 50.7807C93.3177 50.7926 93.237 50.8352 93.1778 50.9011C93.1186 50.9669 93.0846 51.0516 93.082 51.1401H93.0821Z" fill="black"/>
<path d="M102.588 51.6645C102.094 53.401 101.385 55.0689 100.477 56.6294C100.168 57.1526 100.95 57.5944 101.284 57.1012C102.36 55.5381 103.085 53.7607 103.409 51.8911C103.493 51.3611 102.748 51.1269 102.588 51.6646V51.6645Z" fill="black"/>
<path d="M83.6261 53.6878C84.1972 54.6165 84.7623 55.5486 85.3571 56.4625C85.6331 56.8866 86.2987 56.5063 86.0399 56.0634C85.4901 55.1221 84.9107 54.1991 84.3368 53.2723C84.0586 52.8228 83.3474 53.2347 83.6261 53.6878Z" fill="black"/>
<path d="M3.2895 93.1381C3.65683 89.9726 4.80974 86.9599 6.36715 84.1957C7.14083 82.8342 7.9944 81.5197 8.92339 80.259C9.39645 79.6122 9.88467 78.9769 10.388 78.3531C10.8619 77.7191 11.399 77.1349 11.9911 76.6095C13.0778 75.713 15.1404 75.1823 15.8971 76.7817C16.1587 77.3346 16.1097 78.0637 15.5342 78.3925C15.1112 78.6341 14.4352 78.6492 14.1252 78.2149C13.6849 77.5981 14.1762 76.5628 14.4582 75.9744C14.7961 75.2829 15.2204 74.6371 15.7208 74.0524C16.7551 72.8896 17.9075 71.8376 19.1595 70.9133C22.1159 68.6159 25.3295 66.6701 28.7355 65.1152C29.0463 64.9729 28.7764 64.5138 28.467 64.6558C25.0584 66.2209 21.8417 68.1739 18.8808 70.4761C17.5357 71.5218 16.1952 72.6229 15.1359 73.9678C14.6239 74.6042 14.2 75.3065 13.8755 76.056C13.581 76.755 13.2398 77.6839 13.6774 78.3979C14.3143 79.437 16.0022 79.0547 16.373 77.989C16.462 77.6891 16.4769 77.3721 16.4165 77.0652C16.356 76.7583 16.222 76.4706 16.026 76.2268C15.8082 75.9493 15.5293 75.7259 15.211 75.5739C14.8926 75.4218 14.5435 75.3454 14.1908 75.3504C12.3897 75.3295 11.1504 76.8074 10.1269 78.0919C9.04714 79.4345 8.04131 80.835 7.11386 82.287C5.02969 85.5828 3.44262 89.2346 3.01271 93.1381C2.99318 93.3153 3.2692 93.313 3.2895 93.1381Z" fill="black"/>
<path d="M13.1326 69.8429C14.2732 68.6777 15.6321 67.7485 17.1318 67.1083C17.3718 67.0052 17.1652 66.6463 16.9249 66.7545C15.4122 67.4399 14.0421 68.404 12.886 69.5964C12.7296 69.7574 12.9755 70.0039 13.1326 69.8429H13.1326Z" fill="black"/>
<path d="M54.3422 155.389C56.028 155.663 57.6492 156.244 59.125 157.104C59.155 157.12 59.1901 157.124 59.2229 157.115C59.2557 157.106 59.2837 157.084 59.3009 157.055C59.3181 157.025 59.3232 156.99 59.3151 156.957C59.3069 156.924 59.2863 156.895 59.2574 156.877C57.7829 155.936 56.1131 155.344 54.3752 155.145C54.238 155.128 54.204 155.369 54.3422 155.389Z" fill="black"/>
<path d="M49.9815 157.469C50.3405 157.525 50.6768 157.68 50.9526 157.916C51.2285 158.152 51.4331 158.461 51.5433 158.807C51.5561 158.848 51.584 158.882 51.6212 158.902C51.6585 158.922 51.7021 158.927 51.743 158.916C51.7839 158.905 51.8188 158.878 51.8404 158.842C51.862 158.805 51.8686 158.762 51.8588 158.72C51.7348 158.316 51.4948 157.957 51.1687 157.687C51.0092 157.554 50.8318 157.443 50.6417 157.359C50.4441 157.272 50.2326 157.221 50.017 157.207C49.8693 157.197 49.8333 157.442 49.9817 157.469H49.9815Z" fill="black"/>
<path d="M45.9336 157.439V158.312C45.9336 158.35 45.9486 158.386 45.9752 158.413C46.0018 158.44 46.0379 158.454 46.0756 158.454C46.1132 158.454 46.1493 158.44 46.176 158.413C46.2026 158.386 46.2176 158.35 46.2176 158.312V157.439C46.2176 157.401 46.2026 157.365 46.176 157.338C46.1493 157.312 46.1132 157.297 46.0756 157.297C46.0379 157.297 46.0018 157.312 45.9752 157.338C45.9486 157.365 45.9336 157.401 45.9336 157.439Z" fill="black"/>
</svg>
