<svg width="250" height="613" viewBox="0 0 250 613" fill="none" xmlns="http://www.w3.org/2000/svg">
<mask id="mask0_1258_6264" style="mask-type:alpha" maskUnits="userSpaceOnUse" x="0" y="0" width="250" height="613">
<rect width="250" height="613" fill="#2D253A"/>
</mask>
<g mask="url(#mask0_1258_6264)">
<path d="M97.8371 546.098L101.537 542.029L101.533 542.025L97.8371 546.098ZM61.0589 187.043L65.2284 190.63L73.0452 181.543H61.0589V187.043ZM478.502 499.242L474.235 495.771L474.234 495.772L478.502 499.242ZM487.54 122.526L483.185 125.884L483.186 125.886L487.54 122.526ZM128.278 55.5146L124.602 51.4232L124.597 51.4282L124.591 51.4332L128.278 55.5146ZM174.302 101.435L177.868 105.623L177.883 105.61L177.899 105.597L174.302 101.435ZM439.75 177.797L444.407 174.871L444.385 174.836L444.363 174.802L439.75 177.797ZM422.919 450.413L418.657 446.936L418.64 446.957L418.623 446.979L422.919 450.413ZM142.407 490.619L138.808 494.778L138.815 494.784L142.407 490.619ZM96.3826 214.471L100.843 217.69L100.846 217.685L96.3826 214.471ZM60.8511 187.043L56.6831 183.455L48.8582 192.543H60.8511V187.043ZM171.429 182.711L175.755 186.108L176.929 184.612V182.711H171.429ZM125.716 384.991L130.751 382.776L130.75 382.775L125.716 384.991ZM171.429 182.607L167.104 179.21L165.929 180.706V182.607H171.429ZM199.792 204.529L204.597 207.204L204.628 207.149L204.657 207.094L199.792 204.529ZM176.312 330.759L170.866 331.528L170.877 331.605L170.89 331.681L176.312 330.759ZM280.933 424.263L278.907 419.149L278.907 419.149L280.933 424.263ZM296.621 461.56L294.301 456.573L294.289 456.579L296.621 461.56ZM378.26 440.806L374.335 436.954L374.281 437.008L374.23 437.064L378.26 440.806ZM376.909 442.261L380.889 446.057L380.915 446.03L380.94 446.003L376.909 442.261ZM383.143 422.106L388.451 420.664L388.362 420.337L388.233 420.023L383.143 422.106ZM381.273 417.534L386.363 415.452L386.199 415.049L385.973 414.677L381.273 417.534ZM374.312 410.573L377.169 405.874L377.042 405.796L376.91 405.726L374.312 410.573ZM359.559 408.703L358.253 403.361L358.238 403.364L358.223 403.368L359.559 408.703ZM351.04 413.586L354.941 417.463L354.955 417.45L354.968 417.436L351.04 413.586ZM346.053 422.106L351.24 423.936L351.297 423.774L351.344 423.609L346.053 422.106ZM345.43 423.872L340.243 422.041L340.062 422.555L339.985 423.094L345.43 423.872ZM344.703 428.963L339.258 428.185L339.215 428.485L339.205 428.788L344.703 428.963ZM346.365 436.131L351.702 434.805L351.54 434.151L351.224 433.555L346.365 436.131ZM348.754 440.287L353.395 437.336L353.049 436.791L352.586 436.341L348.754 440.287ZM354.053 445.17L351.49 450.036L351.705 450.149L351.929 450.243L354.053 445.17ZM358.52 447.04L356.397 452.113L357.046 452.385L357.742 452.485L358.52 447.04ZM363.611 447.767L362.833 453.212L363.076 453.247L363.32 453.26L363.611 447.767ZM370.884 446.105L369.119 440.896L368.66 441.051L368.235 441.284L370.884 446.105ZM406.246 322.164V327.664H420.252L409.989 318.134L406.246 322.164ZM404.792 320.814L400.91 324.71L400.978 324.778L401.049 324.844L404.792 320.814ZM405.934 322.164V316.664H391.848L402.208 326.209L405.934 322.164ZM409.571 327.878L404.328 329.541L404.492 330.058L404.754 330.533L409.571 327.878ZM411.129 334.631L416.583 335.343L416.611 335.126L416.622 334.907L411.129 334.631ZM410.506 339.41L415.521 341.667L415.854 340.927L415.96 340.122L410.506 339.41ZM408.636 343.566L413.546 346.043L413.601 345.934L413.651 345.823L408.636 343.566ZM404.064 348.553L401.17 343.876L400.554 344.257L400.058 344.785L404.064 348.553ZM400.22 350.839L398.823 345.519L398.173 345.69L397.584 346.012L400.22 350.839ZM393.363 352.397L392.636 357.849L392.854 357.878L393.072 357.889L393.363 352.397ZM388.688 351.774L386.594 356.859L387.254 357.131L387.961 357.225L388.688 351.774ZM386.922 351.046L389.016 345.961L388.662 345.815L388.292 345.72L386.922 351.046ZM378.922 346.371L382.891 342.563L382.825 342.495L382.757 342.429L378.922 346.371ZM374.247 338.372L368.93 339.777L368.93 339.778L374.247 338.372ZM374.247 331.203L379.564 332.608L379.713 332.046L379.741 331.465L374.247 331.203ZM376.325 324.45L381.016 327.321L381.026 327.305L381.035 327.289L376.325 324.45ZM382.87 318.008L380.704 312.953L380.396 313.085L380.106 313.253L382.87 318.008ZM387.234 316.138L385.82 310.823L385.434 310.926L385.067 311.083L387.234 316.138ZM396.792 316.138L398.281 310.844L398.243 310.833L398.205 310.823L396.792 316.138ZM308.198 241.557L307.006 236.187L306.57 236.284L306.155 236.45L308.198 241.557ZM305.601 242.596L302.771 237.88L307.643 247.702L305.601 242.596ZM315.263 237.817L312.335 233.161L311.882 233.446L311.492 233.813L315.263 237.817ZM320.665 231.999L325.525 234.574L325.635 234.367L325.726 234.152L320.665 231.999ZM322.743 227.116L327.804 229.269L327.956 228.911L328.057 228.535L322.743 227.116ZM322.743 218.804L317.243 218.766L317.238 219.507L317.429 220.224L322.743 218.804ZM321.392 213.61L316.165 215.32L316.336 215.843L316.608 216.322L321.392 213.61ZM317.029 206.856L320.736 202.794L320.573 202.645L320.398 202.509L317.029 206.856ZM312.873 203.636L316.242 199.289L315.951 199.063L315.633 198.878L312.873 203.636ZM302.484 200.831L302.494 195.331H302.484V200.831ZM299.783 200.831V195.331H299.756L299.73 195.331L299.783 200.831ZM289.393 203.636L286.671 198.857L286.324 199.054L286.009 199.3L289.393 203.636ZM285.134 206.96L281.75 202.625L281.486 202.83L281.25 203.066L285.134 206.96ZM279.731 216.311L285.024 217.806L285.035 217.768L285.045 217.73L279.731 216.311ZM279.731 224.726L285.228 224.535L285.205 223.871L285.024 223.231L279.731 224.726ZM282.225 232.518L286.914 229.644L286.864 229.562L286.811 229.482L282.225 232.518ZM294.9 242.284L293.317 247.551L293.366 247.566L293.415 247.58L294.9 242.284ZM306.12 242.284L308.95 247L304.635 236.988L306.12 242.284ZM101.533 542.025C3.62602 453.204 -23.2327 293.464 65.2284 190.63L56.8893 183.457C-36.2549 291.734 -7.21901 458.218 94.1416 550.172L101.533 542.025ZM474.234 495.772C383.034 607.933 212.916 643.282 101.537 542.029L94.1374 550.168C211.323 656.7 388.624 618.494 482.769 502.712L474.234 495.772ZM483.186 125.886C568.28 236.151 561.556 388.434 474.235 495.771L482.768 502.713C573.105 391.667 580.303 233.725 491.895 119.165L483.186 125.886ZM131.953 59.6059C185.559 11.4464 252.938 1.79392 317.332 17.3426C381.842 32.9193 442.985 73.7463 483.185 125.884L491.896 119.167C450.228 65.1261 386.959 22.8386 319.914 6.64993C252.754 -9.56668 181.435 0.36469 124.602 51.4232L131.953 59.6059ZM170.737 97.2477C157.652 108.389 141.582 104.957 131.66 95.1692C126.723 90.3001 123.698 84.1678 123.386 78.0563C123.083 72.1165 125.302 65.6147 131.965 59.5959L124.591 51.4332C115.67 59.4919 111.915 69.1195 112.4 78.6177C112.877 87.944 117.404 96.5581 123.935 103C136.947 115.836 159.473 121.286 177.868 105.623L170.737 97.2477ZM444.363 174.802C417.857 133.979 371.775 95.7868 321.369 77.072C270.867 58.3218 215.134 58.8824 170.706 97.2738L177.899 105.597C218.352 70.6397 269.473 69.5379 317.54 87.3842C365.702 105.266 409.903 141.928 435.137 180.792L444.363 174.802ZM427.181 453.889C492.184 374.209 499.115 261.942 444.407 174.871L435.093 180.723C487.29 263.798 480.677 370.912 418.657 446.936L427.181 453.889ZM138.815 494.784C228.747 572.359 357.971 540.482 427.215 453.846L418.623 446.979C352.183 530.105 229.985 558.901 146 486.455L138.815 494.784ZM91.9226 211.253C27.0881 301.098 59.212 425.887 138.808 494.778L146.007 486.461C69.555 420.291 40.174 301.762 100.843 217.69L91.9226 211.253ZM65.0191 190.632C70.8031 183.914 79.8764 184.426 87.1383 190.033C90.6762 192.765 93.2079 196.384 94.1732 200.078C95.0972 203.614 94.6666 207.442 91.9191 211.257L100.846 217.685C105.579 211.111 106.538 203.887 104.816 197.297C103.135 190.865 98.9852 185.283 93.8609 181.326C83.7986 173.557 67.6259 170.745 56.6831 183.455L65.0191 190.632ZM61.0589 181.543H60.8511V192.543H61.0589V181.543ZM167.104 179.314C121.142 237.84 87.3061 311.381 120.682 387.207L130.75 382.775C99.9204 312.735 130.499 243.735 175.755 186.108L167.104 179.314ZM165.929 182.607V182.711H176.929V182.607H165.929ZM204.657 207.094C210.734 195.569 205.43 183.152 197.504 176.56C193.441 173.181 188.219 170.869 182.635 170.978C176.865 171.091 171.364 173.785 167.104 179.21L175.755 186.004C178.144 182.962 180.643 182.019 182.85 181.976C185.243 181.93 187.975 182.942 190.47 185.018C195.661 189.335 197.889 196.346 194.927 201.963L204.657 207.094ZM181.758 329.99C175.783 287.666 183.803 244.549 204.597 207.204L194.987 201.853C173.026 241.293 164.556 286.829 170.866 331.528L181.758 329.99ZM278.907 419.149C254.662 428.755 232.712 418.288 215.107 398.656C197.461 378.979 185.365 351.174 181.734 329.836L170.89 331.681C174.843 354.913 187.786 384.666 206.918 406C226.091 427.38 252.659 441.38 282.959 429.376L278.907 419.149ZM298.94 466.547C305.717 463.396 309.719 457.94 311.287 451.824C312.815 445.865 312.005 439.477 309.709 433.975C307.414 428.476 303.447 423.411 298.106 420.361C292.611 417.224 285.898 416.38 278.907 419.149L282.958 429.376C286.72 427.886 289.942 428.366 292.651 429.914C295.515 431.549 298.021 434.529 299.557 438.211C301.093 441.891 301.471 445.821 300.632 449.092C299.833 452.207 297.914 454.893 294.302 456.573L298.94 466.547ZM120.682 387.206C134.948 419.63 162.382 447.318 194.66 463.013C226.979 478.728 264.617 482.612 298.952 466.542L294.289 456.579C263.587 470.949 229.486 467.716 199.47 453.121C169.411 438.505 143.912 412.688 130.751 382.776L120.682 387.206ZM374.23 437.064L372.879 438.518L380.94 446.003L382.29 444.549L374.23 437.064ZM377.835 423.547C379.132 428.321 377.799 433.424 374.335 436.954L382.185 444.659C388.386 438.341 390.771 429.207 388.451 420.664L377.835 423.547ZM376.182 419.617L378.052 424.188L388.233 420.023L386.363 415.452L376.182 419.617ZM371.455 415.273C373.546 416.545 375.302 418.3 376.573 420.391L385.973 414.677C383.786 411.08 380.766 408.061 377.169 405.874L371.455 415.273ZM360.866 414.046C364.528 413.15 368.391 413.64 371.714 415.421L376.91 405.726C371.196 402.663 364.551 401.82 358.253 403.361L360.866 414.046ZM354.968 417.436C356.593 415.778 358.644 414.602 360.895 414.039L358.223 403.368C354.003 404.425 350.157 406.629 347.112 409.737L354.968 417.436ZM351.344 423.609C352.003 421.289 353.241 419.174 354.941 417.463L347.139 409.709C344.125 412.742 341.931 416.49 340.763 420.602L351.344 423.609ZM350.616 425.702L351.24 423.936L340.867 420.275L340.243 422.041L350.616 425.702ZM350.147 429.74L350.874 424.65L339.985 423.094L339.258 428.185L350.147 429.74ZM351.224 433.555C350.504 432.197 350.151 430.674 350.2 429.137L339.205 428.788C339.096 432.238 339.889 435.657 341.505 438.707L351.224 433.555ZM352.586 436.341C352.154 435.921 351.848 435.389 351.702 434.805L341.027 437.458C341.668 440.035 343.017 442.382 344.923 444.233L352.586 436.341ZM356.616 440.304C355.302 439.612 354.192 438.589 353.395 437.336L344.113 443.238C345.938 446.108 348.481 448.451 351.49 450.036L356.616 440.304ZM360.644 441.966L356.177 440.096L351.929 450.243L356.397 452.113L360.644 441.966ZM364.389 442.322L359.298 441.595L357.742 452.485L362.833 453.212L364.389 442.322ZM368.235 441.284C366.911 442.012 365.411 442.355 363.902 442.275L363.32 453.26C366.875 453.448 370.412 452.639 373.532 450.925L368.235 441.284ZM372.929 438.465C371.874 439.571 370.567 440.405 369.119 440.896L372.648 451.314C375.78 450.253 378.607 448.449 380.889 446.057L372.929 438.465ZM409.989 318.134L408.534 316.783L401.049 324.844L402.504 326.195L409.989 318.134ZM405.934 327.664H406.246V316.664H405.934V327.664ZM414.813 326.215C413.83 323.114 412.054 320.324 409.661 318.119L402.208 326.209C403.192 327.116 403.923 328.265 404.328 329.541L414.813 326.215ZM416.622 334.907C416.791 331.534 416.018 328.181 414.388 325.224L404.754 330.533C405.397 331.701 405.703 333.024 405.636 334.356L416.622 334.907ZM415.96 340.122L416.583 335.343L405.675 333.92L405.052 338.699L415.96 340.122ZM413.651 345.823L415.521 341.667L405.49 337.153L403.62 341.309L413.651 345.823ZM406.958 353.23C409.775 351.487 412.055 349 413.546 346.043L403.725 341.089C403.147 342.236 402.263 343.2 401.17 343.876L406.958 353.23ZM401.618 356.158C404.086 355.51 406.322 354.18 408.071 352.321L400.058 344.785C399.723 345.141 399.295 345.395 398.823 345.519L401.618 356.158ZM393.072 357.889C396.477 358.07 399.864 357.3 402.857 355.666L397.584 346.012C396.382 346.668 395.022 346.977 393.654 346.905L393.072 357.889ZM387.961 357.225L392.636 357.849L394.09 346.945L389.415 346.322L387.961 357.225ZM384.828 356.132L386.594 356.859L390.782 346.688L389.016 345.961L384.828 356.132ZM374.954 350.18C377.842 353.189 381.512 355.334 385.552 356.373L388.292 345.72C386.233 345.19 384.363 344.097 382.891 342.563L374.954 350.18ZM368.93 339.778C369.989 343.783 372.118 347.425 375.087 350.314L382.757 342.429C381.217 340.931 380.114 339.042 379.564 336.965L368.93 339.778ZM368.93 329.797C368.065 333.068 368.065 336.507 368.93 339.777L379.564 336.966C379.187 335.538 379.187 334.036 379.564 332.608L368.93 329.797ZM371.634 321.578C369.902 324.407 368.911 327.627 368.753 330.941L379.741 331.465C379.811 329.999 380.249 328.574 381.016 327.321L371.634 321.578ZM380.106 313.253C376.618 315.281 373.697 318.155 371.614 321.61L381.035 327.289C382.163 325.418 383.745 323.862 385.634 322.764L380.106 313.253ZM385.067 311.083L380.704 312.953L385.037 323.064L389.4 321.194L385.067 311.083ZM398.205 310.823C394.147 309.744 389.878 309.744 385.82 310.823L388.647 321.454C390.853 320.867 393.173 320.867 395.378 321.454L398.205 310.823ZM408.674 316.917C405.785 314.039 402.207 311.948 398.281 310.844L395.303 321.433C397.421 322.029 399.351 323.157 400.91 324.71L408.674 316.917ZM306.155 236.45L303.558 237.489L307.643 247.702L310.241 246.663L306.155 236.45ZM311.492 233.813C310.238 234.994 308.688 235.814 307.006 236.187L309.39 246.926C313.005 246.124 316.337 244.36 319.034 241.821L311.492 233.813ZM315.805 229.424C314.996 230.952 313.799 232.24 312.335 233.161L318.19 242.473C321.285 240.527 323.814 237.803 325.525 234.574L315.805 229.424ZM317.682 224.962L315.604 229.845L325.726 234.152L327.804 229.269L317.682 224.962ZM317.429 220.224C317.908 222.016 317.908 223.904 317.429 225.696L328.057 228.535C329.032 224.882 329.032 221.038 328.057 217.385L317.429 220.224ZM316.608 216.322C317.03 217.067 317.249 217.91 317.243 218.766L328.243 218.842C328.262 216.059 327.55 213.319 326.177 210.898L316.608 216.322ZM313.321 210.919C314.633 212.116 315.613 213.632 316.165 215.32L326.62 211.899C325.477 208.407 323.45 205.27 320.736 202.794L313.321 210.919ZM309.504 207.983L313.66 211.204L320.398 202.509L316.242 199.289L309.504 207.983ZM302.474 206.331C305.158 206.335 307.792 207.047 310.113 208.393L315.633 198.878C311.641 196.562 307.109 195.339 302.494 195.331L302.474 206.331ZM299.783 206.331H302.484V195.331H299.783V206.331ZM292.116 208.415C294.469 207.074 297.127 206.356 299.835 206.33L299.73 195.331C295.148 195.375 290.652 196.589 286.671 198.857L292.116 208.415ZM288.518 211.296L292.777 207.972L286.009 199.3L281.75 202.625L288.518 211.296ZM285.045 217.73C285.74 215.128 287.11 212.757 289.017 210.855L281.25 203.066C277.97 206.337 275.613 210.416 274.418 214.891L285.045 217.73ZM285.024 223.231C284.523 221.457 284.523 219.58 285.024 217.806L274.438 214.816C273.385 218.545 273.385 222.492 274.438 226.221L285.024 223.231ZM286.811 229.482C285.837 228.011 285.289 226.299 285.228 224.535L274.235 224.917C274.366 228.709 275.544 232.39 277.638 235.554L286.811 229.482ZM296.483 237.017C292.496 235.819 289.089 233.194 286.914 229.644L277.535 235.392C281.123 241.246 286.741 245.575 293.317 247.551L296.483 237.017ZM304.635 236.988C301.937 237.745 299.083 237.745 296.385 236.988L293.415 247.58C298.055 248.881 302.964 248.881 307.605 247.58L304.635 236.988ZM308.43 247.312L308.95 247L303.29 237.568L302.771 237.88L308.43 247.312ZM401.993 241.141C401.993 229.153 392.274 219.434 380.285 219.434V230.434C386.199 230.434 390.993 235.228 390.993 241.141H401.993ZM380.285 262.849C392.274 262.849 401.993 253.13 401.993 241.141H390.993C390.993 247.055 386.199 251.849 380.285 251.849V262.849ZM358.578 241.141C358.578 253.13 368.297 262.849 380.285 262.849V251.849C374.372 251.849 369.578 247.055 369.578 241.141H358.578ZM380.285 219.434C368.297 219.434 358.578 229.153 358.578 241.141H369.578C369.578 235.228 374.372 230.434 380.285 230.434V219.434Z" fill="#FF6739"/>
</g>
</svg>
