<svg width="246" height="200" viewBox="0 0 246 200" fill="none" xmlns="http://www.w3.org/2000/svg">
<path d="M3.57006 14.0622C-0.259518 43.1418 -0.525545 72.5801 2.77787 101.724C3.59848 108.966 4.79598 116.701 9.76229 122.026C16.414 129.158 27.3722 129.568 37.1144 129.484L162.612 128.398C167.443 128.356 172.478 128.266 176.772 126.047C182.081 123.304 185.403 117.64 186.733 111.805C188.064 105.97 187.67 99.896 187.236 93.9264C185.623 71.7042 185.052 45.4166 183.085 21.789C182.734 17.5004 180.881 13.473 177.853 10.4161C174.824 7.35912 170.815 5.46851 166.53 5.07709C123.151 1.16369 6.03316 -4.87284 3.57006 14.0622Z" fill="white"/>
<path d="M3.17292 14.063C-0.373787 40.5015 -0.949236 67.2539 1.45733 93.8204C1.97492 99.4887 2.39917 105.282 3.72111 110.833C4.89637 115.769 7.03861 120.57 10.9831 123.909C18.6422 130.391 29.6695 130.085 39.1103 130.008C66.0026 129.787 92.8949 129.565 119.787 129.34L160.126 128.996C165.664 128.948 171.566 129.204 176.686 126.737C181.085 124.616 184.186 120.529 185.995 116.086C188.236 110.583 188.412 104.513 188.124 98.6555C187.834 92.7537 187.332 86.8603 187.004 80.9596C186.316 68.5534 185.82 56.1376 185.143 43.7306C184.804 37.5336 184.424 31.3385 183.947 25.1503C183.751 22.6003 183.638 20.0426 182.859 17.5878C181.882 14.511 180.133 11.7354 177.78 9.52532C175.427 7.31525 172.547 5.74423 169.415 4.96183C166.496 4.24096 163.35 4.20047 160.359 3.95582C146.511 2.82281 132.637 1.98668 118.756 1.37333C102.519 0.655916 86.2593 0.24284 70.0056 0.406895C55.9314 0.548978 41.7589 0.987176 27.8029 2.93709C22.7946 3.63684 17.7475 4.51753 12.936 6.11006C9.93279 7.1041 6.54807 8.40729 4.45622 10.9054C3.71076 11.7559 3.22101 12.7998 3.04351 13.9167C2.9474 14.609 4.00708 14.9083 4.10416 14.2092C4.45787 11.6616 6.89238 10.0647 8.99731 8.9828C12.6609 7.0996 16.7986 6.11564 20.8111 5.30484C33.3233 2.77681 46.2588 2.18233 58.9865 1.80525C74.6878 1.34031 90.4084 1.55461 106.106 2.07145C120.665 2.55087 135.213 3.30558 149.749 4.33558C155.345 4.73053 160.951 5.11134 166.533 5.66962C171.106 6.11948 175.33 8.31436 178.326 11.798C179.854 13.5851 181.008 15.6605 181.721 17.9014C182.512 20.3981 182.605 23.0078 182.803 25.6008C183.727 37.6732 184.3 49.7692 184.878 61.862C185.438 73.5831 186.146 85.2867 186.87 96.9978C187.239 102.981 187.314 109.191 185.22 114.898C183.429 119.782 180.025 124.234 175.077 126.19C169.641 128.339 163.364 127.817 157.635 127.867L137.715 128.042C111.653 128.27 85.5906 128.504 59.5284 128.742L40.1062 128.918C34.887 128.966 29.6228 129.097 24.4458 128.308C19.5893 127.569 14.7045 125.972 11.0457 122.564C7.12585 118.913 5.30155 113.766 4.29966 108.627C3.1617 102.79 2.72193 96.7782 2.23091 90.8593C1.70051 84.4657 1.34098 78.0609 1.15234 71.645C0.777431 58.6853 1.08728 45.7149 2.0806 32.7879C2.55865 26.532 3.19002 20.2903 3.97473 14.0629C4.03897 13.5508 3.24007 13.5598 3.17292 14.063Z" fill="black"/>
<path d="M196.12 109.596C203.134 114.839 207.44 123.525 207.367 132.281C207.293 141.038 202.841 149.65 195.74 154.774C187.676 160.592 174.992 159.888 166.77 154.804C156.41 148.398 151.16 136.035 141.463 128.665C135.502 124.134 128.813 122.419 121.46 121.999C118.574 121.834 115.681 122.667 112.831 122.394C111.07 122.226 109.689 121.485 107.908 122.037C103.412 123.43 100.044 129.415 98.6161 133.556C95.4968 142.601 98.1166 152.79 103.65 160.333C106.922 164.792 110.016 164.391 115.034 164.4C120.328 164.41 126.437 165.848 130.517 169.364C133.535 171.965 135.796 175.312 138.402 178.327C146.704 187.933 158.51 194.063 170.818 197.184C187.568 201.431 207.134 199.146 220.976 188.142C237.102 175.322 244.271 154.309 245.335 134.222C246.095 119.874 243.348 105.286 236.921 92.4363C232.365 83.2956 225.969 75.1945 218.136 68.6408C209.295 61.2883 200.807 58.5148 189.601 56.2617" fill="white"/>
<path d="M195.91 109.958C199.242 112.535 201.954 115.826 203.848 119.589C205.741 123.352 206.767 127.491 206.851 131.702C206.954 140.014 203.028 148.221 196.589 153.457C190.372 158.513 181.696 159.349 174.132 157.332C166.269 155.236 160.666 149.627 155.689 143.479C150.744 137.371 146.111 130.696 139.306 126.49C135.774 124.351 131.877 122.885 127.81 122.167C125.714 121.775 123.592 121.526 121.462 121.423C119.096 121.312 116.771 121.819 114.412 121.868C112.344 121.91 110.243 120.94 108.193 121.369C106.625 121.697 105.204 122.658 104.034 123.716C101.435 126.068 99.6227 129.313 98.3726 132.552C95.4509 140.122 96.6103 148.681 100.205 155.811C101.737 158.849 103.771 162.507 106.983 164.032C109.881 165.407 113.247 164.868 116.343 165.009C120.469 165.197 124.72 166.196 128.247 168.409C132.05 170.795 134.607 174.704 137.441 178.084C147.957 190.624 164.457 197.89 180.555 199.455C196.604 201.014 213.196 196.659 225.024 185.38C236.508 174.429 242.706 158.982 244.986 143.504C247.592 125.808 245.265 107.396 237.044 91.3982C229.562 76.8381 217.186 63.9558 201.422 58.6899C197.609 57.4161 193.687 56.52 189.751 55.7238C189.05 55.582 188.75 56.6575 189.454 56.8C197.198 58.3663 204.855 60.5066 211.642 64.6713C218.979 69.1741 225.268 75.5663 230.268 82.535C240.916 97.3764 245.682 115.843 244.769 133.997C243.978 149.72 239.514 165.915 229.712 178.474C224.81 184.755 218.632 189.974 211.41 193.384C204.061 196.853 195.901 198.49 187.799 198.602C171.559 198.825 154.367 192.9 142.449 181.706C139.332 178.778 136.849 175.359 134.06 172.14C131.44 169.116 128.483 166.795 124.69 165.437C120.993 164.113 117.175 163.821 113.282 163.828C109.88 163.835 106.955 163.451 104.656 160.685C99.3173 154.261 96.6586 144.863 98.3657 136.651C99.1318 132.94 100.738 129.453 103.062 126.458C104.144 125.087 105.447 123.791 107.029 123.011C109.224 121.927 111.237 122.922 113.508 123.014C115.868 123.109 118.194 122.567 120.55 122.554C122.749 122.576 124.941 122.794 127.101 123.205C131.272 123.94 135.306 125.336 138.905 127.59C145.691 131.839 150.277 138.623 155.256 144.71C159.932 150.427 165.245 155.674 172.437 157.975C179.234 160.149 187.174 160.055 193.589 156.723C200.215 153.282 205.024 146.395 206.926 139.282C207.892 135.598 208.104 131.756 207.55 127.987C206.995 124.219 205.685 120.601 203.699 117.35C201.776 114.206 199.277 111.453 196.333 109.235C195.902 108.909 195.487 109.636 195.91 109.958L195.91 109.958Z" fill="black"/>
<path d="M65.6058 37.0553C65.6058 37.0553 57.4114 62.4578 69.0538 104.933C69.5162 106.659 70.3315 108.27 71.4482 109.665C72.5649 111.06 73.9587 112.208 75.5416 113.036C88.9297 119.937 79.892 85.8675 86.5878 85.8675C90.0878 85.8675 88.7734 103.352 97.6616 100.438C106.55 97.524 99.4101 72.608 104.218 71.8794C109.027 71.1509 105.543 89.073 112.087 89.073C122.14 89.073 114.719 73.7128 120.538 72.7537C125.678 71.9064 117.332 103.644 130.446 100.438C137.497 98.7145 128.843 67.7996 132.486 67.3625C136.129 66.9253 133.15 88.9864 137.586 85.8674C146.911 79.3105 136.566 34.5781 136.566 34.5781L65.6058 37.0553Z" fill="#00D0D0"/>
<path d="M122.607 47.6773C126.114 46.9489 129.769 46.9872 133.334 47.0268C135.121 47.0467 136.908 47.0941 138.694 47.1162C140.451 47.1379 142.694 46.788 144.238 47.7827C146.053 48.952 146.373 52.0989 146.794 54.0254C147.31 56.3864 147.683 58.7764 147.91 61.1823C148.015 62.2898 148.09 63.3998 148.134 64.5122C148.185 65.7902 148.294 67.2968 147.298 68.2662C145.953 69.5766 143.685 69.5356 141.942 69.6426C137.242 69.9314 132.536 70.1883 127.839 70.5307C124.789 70.7532 121.654 71.1937 118.862 72.5077C116.158 73.78 114.106 76.021 113.664 79.0449C113.345 81.2248 113.681 83.4841 113.847 85.6645L114.392 92.8251C115.212 103.608 115.999 114.393 116.88 125.171C116.937 125.875 118.038 125.886 117.988 125.171C117.283 115.127 116.491 105.088 115.73 95.0473L115.168 87.6398C114.983 85.1984 114.621 82.6946 114.726 80.2444C114.901 76.1427 117.897 73.8174 121.583 72.7312C125.33 71.6268 129.319 71.6075 133.186 71.3638C135.7 71.2055 138.213 71.0468 140.726 70.8878C142.574 70.7688 144.561 70.7999 146.323 70.1511C150.418 68.6426 149.307 63.6544 148.907 60.2336C148.644 57.9745 148.26 55.7311 147.757 53.5129C147.33 51.6326 146.994 49.3267 145.746 47.7791C144.485 46.2143 142.474 46.0889 140.61 46.0936C138.636 46.0984 136.662 46.0477 134.688 46.0212C130.606 45.9665 126.357 45.8288 122.352 46.7525C121.749 46.8918 122.006 47.8021 122.607 47.6772L122.607 47.6773Z" fill="black"/>
<path d="M6.52905 23.848C28.9754 22.8022 51.4343 22.1293 73.906 21.8293C96.381 21.525 118.857 21.5907 141.333 22.0264C153.938 22.2738 166.541 22.6422 179.139 23.1317C179.798 23.1567 179.797 22.1332 179.139 22.1083C156.679 21.2562 134.207 20.7873 111.725 20.7017C89.2493 20.6057 66.7772 20.8907 44.3082 21.5566C31.7108 21.9309 19.1177 22.4234 6.52892 23.0342C6.00766 23.0594 6.00431 23.8725 6.52892 23.848H6.52905Z" fill="black"/>
<path d="M108.706 159.088L107.254 102.855L114.259 100.242L119.644 100.498C119.644 100.498 123.051 99.813 124.398 100.73C126.808 102.371 129.828 145.143 129.828 145.143C131.394 152.9 130.145 168.318 122.289 169.271C122.289 169.271 110.852 172.079 108.706 159.088Z" fill="white"/>
<path d="M109.222 159.089L108.73 140.058L107.948 109.761L107.77 102.855L107.391 103.352L111.93 101.66C112.669 101.384 113.405 101.07 114.156 100.83C114.449 100.736 114.274 100.77 114.35 100.763C114.682 100.756 115.013 100.772 115.342 100.81C116.815 100.88 118.394 101.127 119.862 100.981C120.959 100.872 122.044 100.648 123.151 100.84C123.847 100.961 124.076 100.998 124.293 101.479C125.299 103.712 125.48 106.507 125.824 108.898C126.427 113.093 126.878 117.31 127.301 121.525C128.037 128.854 128.651 136.196 129.195 143.541C129.388 146.146 129.873 148.697 129.899 151.321C129.947 156.189 129.437 162.086 126.416 166.124C124.76 168.339 122.28 169.03 119.644 169.012C115.693 168.984 112.275 166.992 110.535 163.391C109.888 161.98 109.44 160.486 109.204 158.952C109.09 158.299 108.096 158.576 108.209 159.226C109.026 163.921 111.512 168.264 116.345 169.601C118.624 170.214 121.025 170.213 123.303 169.597C127.935 168.311 129.654 162.618 130.374 158.45C130.838 155.716 131.015 152.941 130.903 150.17C130.835 148.417 130.528 146.724 130.333 144.991C129.587 138.381 129.305 131.696 128.678 125.071C128.239 120.434 127.767 115.798 127.167 111.179C126.766 108.09 126.461 104.844 125.523 101.859C125.24 100.957 124.958 100.303 124.002 99.9817C122.867 99.6005 121.564 99.7117 120.398 99.8629C119.887 99.959 119.366 99.9868 118.848 99.9456L115.655 99.7936C115.139 99.769 114.565 99.6656 114.057 99.7697C113.364 99.9118 112.648 100.295 111.986 100.542L108.729 101.757L107.117 102.358C107.009 102.39 106.915 102.456 106.847 102.545C106.779 102.635 106.741 102.743 106.738 102.855L107.23 121.886L108.012 152.183L108.19 159.089C108.208 159.752 109.239 159.754 109.222 159.089Z" fill="black"/>
<path d="M137.473 58.8382C134.441 62.2894 70.8872 65.8783 66.4555 61.3962C62.0237 56.9142 63.8999 41.9936 65.5806 37.1056C67.2612 32.2176 134.55 29.237 136.598 34.5476C138.646 39.8581 140.505 55.387 137.473 58.8382Z" fill="#00D0D0"/>
<path d="M10.9095 40.3194C9.59713 42.2313 9.21553 44.8355 8.87249 47.0727C8.37962 50.3254 8.15203 53.6128 8.19197 56.9023C8.22127 59.6576 8.33023 62.5904 9.17936 65.2363C9.6543 66.7161 10.3274 67.6934 11.8024 68.2153C13.6343 68.8636 15.6554 69.0612 17.576 69.2613C20.4267 69.5582 23.2942 69.6959 26.1581 69.7812C32.293 69.9639 38.4455 69.9012 44.5754 69.5928C46.7285 69.4844 48.8892 69.3606 51.0288 69.0881C52.4234 68.9105 53.5985 68.7346 54.453 67.497C55.7197 65.6624 56.0574 63.1657 56.3306 61.0112C56.6922 57.932 56.8137 54.8293 56.6938 51.7312C56.6399 48.9199 56.3789 46.1164 55.9128 43.3435C55.6708 41.9944 55.4878 40.2952 54.2803 39.4468C53.0016 38.5484 51.2788 38.2129 49.7772 37.92C47.3596 37.4761 44.9172 37.1801 42.4635 37.0335C36.4929 36.6205 30.5007 36.6243 24.5306 37.0448C21.9827 37.2013 19.4444 37.4882 16.9258 37.9042C15.2646 38.1919 13.4477 38.5032 11.9466 39.3163C11.5012 39.5407 11.1136 39.8648 10.8138 40.2634C10.5148 40.6807 11.0307 41.0821 11.423 40.9304C11.507 40.8979 11.5853 40.84 11.6487 40.7515C12.2799 39.871 13.9919 39.5692 14.9525 39.3301C17.0168 38.8477 19.1118 38.5083 21.2228 38.3142C26.7468 37.7564 32.3018 37.5677 37.8508 37.7493C42.4217 37.877 47.2662 38.0229 51.6826 39.3304C52.6919 39.6292 53.9651 39.9805 54.3898 41.0398C55.1872 43.0287 55.3333 45.4023 55.5218 47.5101C56.0116 52.9865 56.2192 58.9974 54.7789 64.3544C54.3952 65.7817 53.8498 67.6152 52.232 67.9788C50.6797 68.3278 49.0363 68.3949 47.4547 68.5073C41.9674 68.8975 36.452 68.9982 30.9523 68.9613C25.6667 68.9258 20.2736 68.8717 15.0418 68.0367C13.822 67.842 12.0617 67.694 11.0631 66.8689C9.61438 65.6718 9.46225 62.6666 9.29429 60.9798C8.72089 55.2212 8.96808 48.8931 10.5218 43.2956C10.7197 42.4715 11.0226 41.6766 11.423 40.9304C11.4653 40.8515 11.5087 40.7733 11.5531 40.6955C11.8093 40.2838 11.178 39.9282 10.9095 40.3194Z" fill="#00D0D0"/>
<path d="M11.6487 40.7515C11.5853 40.84 11.507 40.8979 11.423 40.9304C11.0226 41.6766 10.7197 42.4715 10.5218 43.2956C8.96808 48.8931 8.72089 55.2212 9.29429 60.9798C9.46225 62.6666 9.61438 65.6718 11.0631 66.8689C12.0617 67.694 13.822 67.842 15.0418 68.0367C20.2736 68.8717 25.6667 68.9258 30.9523 68.9613C36.452 68.9982 41.9674 68.8975 47.4547 68.5073C49.0363 68.3949 50.6797 68.3278 52.232 67.9788C53.8498 67.6152 54.3952 65.7817 54.7789 64.3544C56.2192 58.9974 56.0116 52.9865 55.5218 47.5101C55.3333 45.4023 55.1872 43.0287 54.3898 41.0398C53.9651 39.9805 52.6919 39.6292 51.6826 39.3304C47.2662 38.0229 42.4217 37.877 37.8508 37.7493C32.3018 37.5677 26.7468 37.7564 21.2228 38.3142C19.1118 38.5083 17.0168 38.8477 14.9525 39.3301C13.9919 39.5692 12.2799 39.871 11.6487 40.7515Z" fill="#00D0D0"/>
<path d="M12.1489 80.4314C23.9131 80.2014 35.6942 80.2222 47.4517 79.7073C48.1117 79.6784 48.1192 78.6713 47.4517 78.6758C35.6804 78.7547 23.9125 79.3702 12.1489 79.7343C11.7017 79.7482 11.699 80.4401 12.1489 80.4314Z" fill="black"/>
<path d="M13.0504 89.4573C17.501 89.7572 21.9646 89.8195 26.4219 89.6439C30.7336 89.4781 35.017 88.9611 39.3248 88.762C39.9844 88.7315 39.9922 87.7201 39.3248 87.7305C35.0205 87.7976 30.7258 88.4174 26.4219 88.5967C21.9687 88.7823 17.5052 88.7792 13.0504 88.6555C12.5306 88.6411 12.54 89.4225 13.0504 89.4573Z" fill="black"/>
<path d="M13.3544 98.1162C17.9765 97.8917 22.6039 97.8601 27.2367 98.0212C27.9005 98.0439 27.8997 97.0124 27.2367 96.9898C22.6072 96.8329 17.9727 96.9332 13.3544 97.2902C12.8303 97.3305 12.8189 98.1421 13.3544 98.1161V98.1162Z" fill="black"/>
<path d="M158.433 43.2619C158.703 45.694 158.973 48.126 159.243 50.558C159.311 51.1613 159.241 52.2817 159.665 52.7991C160.075 53.3006 160.686 53.2073 161.264 53.1965C163.726 53.1506 166.189 53.0182 168.649 52.9362C169.797 52.898 170.948 52.8805 172.095 52.8214C172.663 52.7921 173.323 52.8451 173.71 52.3361C174.119 51.7995 173.895 50.943 173.843 50.3502L173.542 46.9231C173.434 45.6996 173.344 44.4731 173.219 43.2513C173.156 42.63 173.112 41.9684 172.575 41.5565C171.995 41.1126 171.107 41.2107 170.433 41.1897C169.311 41.1547 168.189 41.1472 167.066 41.1672C164.772 41.1821 162.482 41.3556 160.212 41.6863C159.641 41.7763 159.771 42.7415 160.349 42.6993C163.716 42.4538 167.052 42.1881 170.433 42.2785C171.01 42.2939 171.304 42.2289 171.746 42.6588C172.186 43.0861 172.134 43.415 172.184 43.9857L172.422 46.6785L172.638 49.1263C172.691 49.7367 173.123 51.2656 172.588 51.7075C172.252 51.9839 170.586 51.7893 170.126 51.8085L167.664 51.911C165.941 51.9828 164.218 52.0511 162.495 52.1159C162.116 52.1306 161.64 52.2354 161.264 52.1634C160.894 52.3222 160.665 52.2199 160.578 51.8567C160.482 51.7462 160.41 51.617 160.367 51.4771C160.323 51.3373 160.31 51.1899 160.326 51.0445C160.153 50.2596 160.123 49.4105 160.024 48.6124L159.356 43.2619C159.283 42.6832 158.367 42.6686 158.433 43.2619H158.433Z" fill="black"/>
<path d="M160.967 63.6725C165.085 63.3423 169.206 63.1921 173.333 63.051C173.994 63.0284 173.999 62.0184 173.333 62.0195C169.197 62.0554 165.067 62.3464 160.967 62.8908C160.481 62.9519 160.457 63.7134 160.967 63.6725Z" fill="black"/>
<path d="M163.366 71.6323C166.992 71.4757 170.63 71.3511 174.247 71.0476C174.899 70.9929 174.919 69.9896 174.247 70.0161C170.617 70.1595 166.987 70.4836 163.366 70.7741C162.823 70.8177 162.809 71.6565 163.366 71.6323Z" fill="black"/>
<path d="M169.107 78.7308C170.766 78.8851 172.438 78.7953 174.07 78.4643C174.692 78.3356 174.422 77.4144 173.809 77.5202C172.258 77.7972 170.681 77.8938 169.107 77.8081C168.51 77.7729 168.523 78.6801 169.107 78.7308Z" fill="black"/>
<path d="M87.5609 85.6866C84.425 85.5709 83.3326 88.7674 82.9964 91.3361C82.4919 95.1932 82.5946 99.0027 82.8066 102.873C82.9922 106.261 82.8009 110.639 79.2968 112.381C75.8075 114.115 73.0161 110.483 71.1972 108.038C70.8019 107.507 69.9101 107.987 70.2857 108.571C71.796 110.92 73.8845 113.628 76.8746 113.967C79.7594 114.293 82.1457 112.108 83.1946 109.592C84.6846 106.018 83.7375 101.906 83.6962 98.1679C83.6726 96.1126 83.773 94.0578 83.9967 92.0146C84.2361 89.8388 84.7807 86.6768 87.5608 86.5529C87.673 86.5489 87.7792 86.5015 87.8572 86.4207C87.9352 86.3399 87.9787 86.232 87.9787 86.1198C87.9787 86.0075 87.9352 85.8996 87.8572 85.8188C87.7792 85.738 87.673 85.6906 87.5608 85.6866H87.5609Z" fill="black"/>
<path d="M104.486 71.806C100.237 74.8003 101.493 81.4088 101.831 85.7959C102.219 90.8282 102.027 96.913 97.2893 99.9542C96.7331 100.311 97.2307 101.178 97.8099 100.845C101.779 98.5594 103.038 93.6653 103.037 89.3778C103.037 86.2655 102.525 83.1805 102.492 80.0696C102.464 77.3675 102.736 74.27 104.967 72.4293C105.312 72.1451 104.855 71.5462 104.486 71.806L104.486 71.806Z" fill="black"/>
<path d="M123.97 98.357C126.108 100.512 129.251 102.277 131.742 99.5331C134.283 96.734 133.282 92.7759 133.376 89.3699C133.391 88.8196 132.585 88.8402 132.534 89.3699C132.266 92.1436 133.068 95.2208 131.702 97.7966C131.105 98.9229 130.081 99.8985 128.745 99.9619C127.095 100.04 125.576 98.9661 124.401 97.9268C124.11 97.6693 123.692 98.0764 123.971 98.357H123.97Z" fill="black"/>
<path d="M135.232 83.4669C135.199 84.8671 135.673 86.7944 137.525 86.353C139.383 85.9102 140.389 83.5969 140.73 81.9192C140.849 81.3312 139.956 81.0768 139.824 81.6696C139.572 82.8015 139.088 83.9873 138.245 84.8127C137.717 85.3287 136.927 85.7816 136.324 85.0897C135.972 84.6855 135.892 83.9712 135.845 83.4669C135.842 83.3876 135.808 83.3125 135.751 83.2574C135.694 83.2023 135.618 83.1715 135.538 83.1715C135.459 83.1715 135.383 83.2023 135.326 83.2574C135.269 83.3125 135.235 83.3876 135.232 83.4669H135.232Z" fill="black"/>
<path d="M135.796 34.7011C138.207 39.3995 139.309 44.6599 138.988 49.9309C138.905 51.2871 138.724 52.6355 138.446 53.9654C138.228 55.0048 138.061 56.3349 137.484 57.2397C136.621 58.5923 134.575 59.0653 133.126 59.406C131.468 59.796 129.776 59.9987 128.092 60.2388C125.49 60.6097 122.908 61.0401 120.288 61.2895C114.389 61.8511 108.459 61.9548 102.539 62.0691C96.5968 62.1839 90.6461 62.3099 84.7307 62.9265C79.8216 63.4381 74.2552 64.5777 69.5922 62.3537C62.9274 59.175 62.9048 50.5987 63.8951 44.3241C64.1793 42.5231 64.3455 39.7521 65.6277 38.3527C68.0917 35.6635 70.9333 42.2508 71.5495 43.8815C72.5489 46.6178 73.1347 49.4879 73.2874 52.397C73.4552 55.0583 73.5462 58.2794 71.3019 60.1439C70.787 60.5716 71.52 61.2797 72.0313 60.8732C73.8946 59.3917 74.4067 57.025 74.467 54.7499C74.5214 51.9345 74.1954 49.1247 73.4976 46.3967C72.8148 43.6847 71.7214 40.9384 70.0388 38.6836C68.8835 37.1354 66.7845 35.7937 65.0556 37.361C63.5994 38.681 63.3577 41.0673 63.0255 42.8911C62.6679 44.7958 62.4439 46.7232 62.3551 48.6592C62.2103 52.2541 62.6073 56.1335 64.5449 59.2546C66.6432 62.635 70.2635 64.2486 74.1222 64.6136C77.4286 64.9263 80.7332 64.4427 84.0142 64.0804C87.4545 63.7004 90.909 63.4825 94.367 63.3479C101.128 63.0847 107.899 63.1201 114.656 62.7505C120.172 62.4488 125.628 61.7264 131.079 60.8532C133.135 60.524 135.432 60.1345 137.187 58.9366C139.16 57.5898 139.414 54.7621 139.739 52.582C140.674 46.2864 139.577 39.8567 136.607 34.2276C136.323 33.6922 135.521 34.1651 135.796 34.7014L135.796 34.7011Z" fill="black"/>
<path d="M67.8152 50.3292C67.5673 49.9772 67.4285 49.5601 67.4162 49.1297C67.4316 48.8008 67.6304 48.3345 68.0128 48.2808C69.0825 48.1305 68.7056 49.9413 68.6156 50.4331C68.4973 51.0802 69.4205 51.3564 69.6141 50.7083C69.8555 49.9 70.0006 48.9628 69.5685 48.189C69.4152 47.8824 69.1717 47.6302 68.8708 47.4662C68.5698 47.3022 68.2258 47.2343 67.8851 47.2717C67.5546 47.3385 67.2494 47.4968 67.0045 47.7287C66.7596 47.9606 66.5848 48.2566 66.5 48.583C66.2908 49.3563 66.6058 50.1514 67.0255 50.7908C67.3463 51.2794 68.1204 50.8384 67.8152 50.3292V50.3292Z" fill="black"/>
<path d="M136.532 104.053C136.532 104.053 135.641 93.9476 139.331 93.6796C143.02 93.4115 147.213 107.461 141.079 110.388C136.184 111.622 136.532 104.053 136.532 104.053Z" fill="#00D0D0"/>
<path d="M137.343 110.324C140.011 111.986 142.818 109.754 143.835 107.273C145.207 103.922 144.897 100.081 143.501 96.802C143.242 96.1932 142.353 96.7182 142.61 97.3226C143.738 99.9273 143.983 102.829 143.309 105.586C142.685 108.045 140.616 110.991 137.707 109.701C137.625 109.657 137.529 109.646 137.439 109.672C137.349 109.697 137.272 109.756 137.225 109.837C137.178 109.918 137.164 110.013 137.186 110.104C137.208 110.195 137.264 110.274 137.343 110.324Z" fill="black"/>
<path d="M69.5978 85.6863C69.5872 87.3531 71.1935 88.5125 72.7978 88.1222C74.9769 87.592 75.7449 85.2465 75.8048 83.255C75.8525 81.6683 75.7235 80.2712 77.2876 79.374C78.148 78.8805 79.0982 78.5812 79.7935 77.8392C81.6155 75.8942 80.6717 72.9441 81.1558 70.5953C81.2779 70.0031 80.3863 69.747 80.2428 70.3436C79.7647 72.3314 80.4636 74.6262 79.5491 76.4987C78.796 78.0407 76.9387 78.1576 75.8216 79.3075C74.7122 80.4496 74.9852 82.0097 74.909 83.4595C74.8469 84.6419 74.5705 85.9074 73.6328 86.7218C72.4946 87.7104 70.3598 87.5294 70.3068 85.6863C70.3035 85.5945 70.2647 85.5075 70.1986 85.4437C70.1324 85.3798 70.0441 85.3442 69.9522 85.3442C69.8603 85.3442 69.772 85.3798 69.7059 85.4437C69.6397 85.5075 69.6009 85.5945 69.5977 85.6863L69.5978 85.6863Z" fill="white"/>
<path d="M90.9997 81.645C91.2086 82.2684 91.6381 82.7939 92.2073 83.1228C92.7765 83.4517 93.4463 83.5614 94.0907 83.4311C95.6568 83.132 96.6337 81.6357 96.7844 80.1329C96.8363 79.6162 96.0395 79.5424 95.902 80.0134C95.637 80.9205 95.2086 81.8909 94.2997 82.3196C93.4037 82.7423 92.1981 82.3809 91.8584 81.4083C91.6714 80.8732 90.8269 81.0927 90.9997 81.645H90.9997Z" fill="white"/>
<path d="M125.651 90.392C126.733 92.0143 129.135 91.1974 129.298 89.3651C129.343 88.8693 128.515 88.7531 128.424 89.2467C128.217 90.3652 127.093 90.6361 126.313 89.8816C125.98 89.5598 125.378 89.9816 125.651 90.3918L125.651 90.392Z" fill="white"/>
<path d="M172.861 102.99C170.596 103.209 168.326 103.348 166.058 103.532C164.924 103.624 163.79 103.717 162.656 103.813C161.885 103.876 161.013 103.836 160.276 104.095C159.024 104.534 158.851 105.815 158.829 106.978C158.786 109.242 158.841 111.511 158.847 113.775C158.849 113.865 158.874 113.953 158.92 114.031C158.966 114.108 159.031 114.172 159.109 114.217C159.187 114.262 159.275 114.286 159.365 114.286C159.455 114.287 159.544 114.264 159.623 114.22C161.61 113.262 163.846 113.48 165.987 113.464C168.221 113.447 170.451 113.33 172.678 113.113C173.667 113.016 174.694 112.951 175.669 112.759C176.221 112.65 176.677 112.486 176.917 111.93C177.203 111.265 176.973 110.348 176.929 109.657C176.859 108.561 176.79 107.465 176.722 106.369C176.681 105.71 175.649 105.705 175.69 106.369C175.749 107.308 175.807 108.248 175.864 109.187C175.922 109.654 175.95 110.125 175.95 110.596C175.911 111.196 175.942 111.503 175.392 111.753C174.593 112.116 173.083 112.038 172.201 112.12C171.168 112.215 170.134 112.289 169.097 112.342C165.843 112.506 162.127 111.872 159.102 113.33L159.878 113.775L159.864 108.435C159.832 107.734 159.838 107.031 159.883 106.33C159.981 105.431 160.262 105.151 161.199 104.944C161.601 104.879 162.007 104.834 162.414 104.81C165.896 104.415 169.374 103.952 172.861 103.606C173.252 103.568 173.257 102.952 172.861 102.99L172.861 102.99Z" fill="black"/>
<path d="M160.451 14.1223C162.172 14.1756 163.884 14.3602 165.598 14.5058C166.124 14.5504 166.254 13.6521 165.724 13.5759C163.975 13.3506 162.215 13.2236 160.451 13.1956C159.855 13.1771 159.855 14.1038 160.451 14.1223V14.1223Z" fill="black"/>
<path d="M14.3575 15.0162C13.4048 14.9818 12.5169 15.8716 12.6795 16.8422C12.7278 17.0661 12.821 17.278 12.9535 17.4649C13.086 17.6518 13.2551 17.8099 13.4504 17.9295C13.6458 18.0492 13.8634 18.1281 14.0901 18.1612C14.3168 18.1944 14.5478 18.1812 14.7693 18.1225C15.7267 17.8542 16.1116 16.6717 15.717 15.8178C15.6123 15.5855 15.4487 15.3846 15.2424 15.2351C15.0361 15.0856 14.7943 14.9926 14.5409 14.9654C14.2876 14.9382 14.0315 14.9777 13.7982 15.08C13.5649 15.1823 13.3623 15.3439 13.2107 15.5487C12.8207 16.0831 13.7181 16.7845 14.1346 16.2616C14.5726 15.7114 15.1182 16.9613 14.3624 17.1221C14.1998 17.1494 14.0329 17.1171 13.8923 17.0311C13.7517 16.9451 13.6468 16.8113 13.5969 16.6543C13.4906 16.1974 13.9312 15.786 14.3576 15.7817C14.4568 15.7782 14.5507 15.7363 14.6196 15.6649C14.6886 15.5935 14.7271 15.4982 14.7271 15.3989C14.7271 15.2997 14.6886 15.2043 14.6196 15.1329C14.5507 15.0615 14.4568 15.0196 14.3576 15.0162H14.3575Z" fill="black"/>
<path d="M23.5415 14.2064C23.3458 14.1479 23.14 14.1306 22.9373 14.1557C22.7345 14.1807 22.5392 14.2474 22.3635 14.3517C22.1878 14.456 22.0357 14.5955 21.9166 14.7615C21.7975 14.9275 21.7142 15.1164 21.6717 15.3162C21.4795 16.2527 22.2055 17.2913 23.0916 17.574C24.033 17.8743 24.7301 16.9773 24.6914 16.103C24.6537 15.2506 24.0095 14.386 23.117 14.3403C22.5802 14.3128 22.3123 15.1656 22.8313 15.3952C23.1006 15.5142 23.3504 15.6085 23.4748 15.8986C23.5463 16.0657 23.608 16.4675 23.3864 16.5045C23.0632 16.5584 22.6505 15.8465 22.6394 15.5952C22.628 15.5057 22.6387 15.4149 22.6706 15.3305C22.7024 15.2461 22.7545 15.1708 22.8221 15.1112C22.8898 15.0516 22.9711 15.0095 23.0588 14.9886C23.1465 14.9676 23.238 14.9685 23.3253 14.9911C23.8261 15.1571 24.0302 14.3807 23.5417 14.2062L23.5415 14.2064Z" fill="black"/>
<path d="M31.7042 14.1843C31.4112 14.434 31.1973 14.7636 31.0886 15.1328C30.9798 15.502 30.9809 15.8949 31.0918 16.2635C31.2209 16.6148 31.4638 16.9128 31.7818 17.1101C32.0999 17.3073 32.4748 17.3925 32.8469 17.352C33.2115 17.3251 33.5513 17.1572 33.7942 16.8839C34.037 16.6106 34.1639 16.2534 34.1478 15.8881C34.1106 15.1618 33.5178 14.397 32.7304 14.4721C32.5755 14.4777 32.4289 14.5432 32.3213 14.6548C32.2137 14.7664 32.1536 14.9154 32.1536 15.0704C32.1536 15.2254 32.2137 15.3744 32.3213 15.4859C32.4289 15.5975 32.5755 15.6631 32.7304 15.6687C32.7991 15.6834 32.8604 15.722 32.9035 15.7774C32.9465 15.8329 32.9686 15.9019 32.9658 15.9721C32.9692 16.1887 32.7614 16.2445 32.5702 16.2282C31.8297 16.1655 32.0061 15.2304 32.3794 14.8596C32.8206 14.4214 32.1645 13.7864 31.7042 14.1843Z" fill="black"/>
<path d="M12.2862 58.2714C13.8458 56.0817 15.3898 53.8812 16.9181 51.6699C18.4367 49.4837 20.6618 46.6364 23.3029 49.1852C27.27 53.0134 30.9979 57.1215 34.8524 61.0641C34.9635 61.1698 35.111 61.2288 35.2643 61.2288C35.4176 61.2288 35.5651 61.1698 35.6762 61.0641C38.4365 58.7835 41.1993 56.5059 43.943 54.2054C44.6834 53.5846 45.6676 52.5226 46.7688 52.8808C47.4374 53.0982 48.2315 54.4627 48.647 54.9845C49.7401 56.3568 50.7448 57.7872 51.7475 59.2256C52.1471 59.7988 53.0859 59.2721 52.6973 58.6705C51.5217 56.8738 50.2443 55.1458 48.8714 53.495C47.9276 52.3468 46.9212 51.1869 45.3202 51.831C44.4929 52.1638 43.802 52.8295 43.1235 53.3858C42.2423 54.1084 41.3629 54.8332 40.4853 55.5603C38.6039 57.1156 36.7262 58.6756 34.8524 60.2402H35.6762C33.3407 57.8683 31.0001 55.5016 28.6542 53.1401C27.4824 51.9582 26.3095 50.7774 25.1355 49.5977C24.2692 48.7287 23.393 47.6817 22.1898 47.283C20.0772 46.5828 18.271 48.2877 17.0912 49.8321C15.1323 52.3963 13.4399 55.2141 11.6739 57.9136C11.4209 58.3003 12.0254 58.6377 12.2863 58.2715L12.2862 58.2714Z" fill="black"/>
<path d="M18.2691 50.9633C17.6132 51.397 17.6736 52.286 18.2796 52.7708C19.1762 53.4878 20.2038 52.6253 20.7768 51.9371L19.9923 51.7299C20.1825 52.7982 21.6687 53.491 22.6683 53.4889C23.6207 53.4869 24.5705 52.5071 23.9626 51.5869C23.8989 51.4856 23.8014 51.4103 23.6873 51.3744C23.5732 51.3384 23.4501 51.3442 23.3399 51.3906C23.2297 51.4371 23.1397 51.5212 23.0858 51.628C23.0319 51.7347 23.0177 51.8571 23.0457 51.9734L22.1261 52.3336C21.9534 52.2836 21.7853 52.2191 21.6236 52.1406C21.301 51.9913 21.0419 51.8672 20.8976 51.4803C20.8703 51.3936 20.8188 51.3164 20.7492 51.2579C20.6795 51.1995 20.5946 51.1621 20.5044 51.1504C20.4142 51.1386 20.3225 51.1528 20.2402 51.1914C20.1578 51.23 20.0882 51.2914 20.0396 51.3682C19.8751 51.6117 19.6713 51.8261 19.4363 52.0026C18.6905 52.1447 18.4268 52.0128 18.6452 51.6069C19.0255 51.3301 18.6756 50.6945 18.269 50.9633H18.2691Z" fill="black"/>
<path d="M44.7559 55.4589C44.8227 55.7457 44.982 56.0026 45.2094 56.1899C45.4367 56.3771 45.7194 56.4843 46.0137 56.4948C46.3125 56.497 46.6027 56.3948 46.8341 56.2057C47.0655 56.0167 47.2236 55.7527 47.2811 55.4595C47.3092 55.3406 47.2902 55.2155 47.2279 55.1103C47.1657 55.0052 47.0651 54.9283 46.9473 54.8959C46.8296 54.8634 46.7038 54.8779 46.5965 54.9362C46.4892 54.9946 46.4087 55.0923 46.3719 55.2088C46.3549 55.2927 46.3095 55.3681 46.2435 55.4224C46.1775 55.4768 46.0948 55.5068 46.0092 55.5075C45.9237 55.5082 45.8405 55.4795 45.7736 55.4262C45.7068 55.3728 45.6602 55.2982 45.6418 55.2146C45.4816 54.644 44.6237 54.8833 44.756 55.4589H44.7559Z" fill="black"/>
<path d="M34.4995 44.5794C34.1959 44.5541 33.8905 44.5946 33.604 44.6979C33.3175 44.8013 33.0566 44.9652 32.8391 45.1784C32.6216 45.3917 32.4526 45.6493 32.3436 45.9337C32.2346 46.2181 32.1881 46.5226 32.2074 46.8266C32.2979 48.176 33.5541 49.2103 34.8423 49.3346C36.1121 49.457 37.4848 48.7716 37.9305 47.5323C38.149 46.9383 38.1474 46.2856 37.9261 45.6926C37.7049 45.0996 37.2785 44.6055 36.7243 44.2998C36.0778 43.9711 35.5251 44.8971 36.1529 45.2774C37.5633 46.1321 36.8541 48.0065 35.3687 48.1992C35.0139 48.2524 34.6512 48.2072 34.3204 48.0685C33.9895 47.9298 33.703 47.703 33.4921 47.4127C32.8813 46.5483 33.339 45.2748 34.4995 45.3327C34.9923 45.3574 34.9705 44.6319 34.4995 44.5793L34.4995 44.5794Z" fill="black"/>
<path d="M20.4133 116.395C21.9716 117.976 24.8901 117.898 26.2135 116.022C26.7637 115.242 27.0316 113.963 26.1267 113.323C25.4216 112.824 24.4139 113.138 23.935 113.81C23.2951 114.709 23.794 115.899 24.6343 116.468C25.1805 116.817 25.8319 116.963 26.4747 116.88C27.3088 116.799 27.9148 116.29 28.692 116.127C29.5766 115.941 30.828 117.115 31.6088 117.477C32.2502 117.776 32.9181 118.015 33.6038 118.19C35.2442 118.593 36.9526 118.632 38.6095 118.304C39.2611 118.182 38.9852 117.188 38.3353 117.309C36.4621 117.669 34.5261 117.509 32.7375 116.847C31.916 116.52 31.1342 116.102 30.407 115.599C29.8903 115.259 29.4694 114.978 28.8206 115.057C28.0382 115.152 27.3963 115.733 26.6135 115.854L25.6645 115.85C24.7629 115.622 24.5959 115.035 25.1633 114.088L25.8052 114.655C25.7627 115.048 25.5995 115.418 25.3381 115.714C24.2358 117.007 22.132 117.012 20.9574 115.851C20.8846 115.783 20.7878 115.745 20.6877 115.747C20.5877 115.748 20.4921 115.789 20.4213 115.859C20.3506 115.93 20.3101 116.026 20.3086 116.126C20.3071 116.226 20.3447 116.323 20.4133 116.395V116.395Z" fill="black"/>
<path d="M45.7702 119.469C45.8877 119.465 45.9991 119.416 46.0808 119.331C46.1626 119.246 46.2083 119.133 46.2083 119.016C46.2083 118.898 46.1626 118.785 46.0808 118.701C45.9991 118.616 45.8877 118.567 45.7702 118.562C45.6526 118.567 45.5412 118.616 45.4595 118.701C45.3777 118.785 45.332 118.898 45.332 119.016C45.332 119.133 45.3777 119.246 45.4595 119.331C45.5412 119.416 45.6526 119.465 45.7702 119.469Z" fill="black"/>
<path d="M163.668 49.3533C164.081 48.9597 164.476 48.5507 164.871 48.1401C165.459 47.5302 165.604 47.3634 166.353 47.84C167.282 48.4304 168.105 49.4215 168.95 50.1379C169.426 50.5423 170.116 49.875 169.645 49.4427C168.952 48.8077 168.249 48.1854 167.535 47.5759C167.114 47.2169 166.605 46.6173 166.035 46.4683C164.893 46.1699 163.715 48.1222 163.13 48.8148C163.062 48.887 163.026 48.9825 163.027 49.0813C163.029 49.18 163.069 49.2742 163.139 49.3441C163.209 49.4139 163.303 49.4539 163.402 49.4556C163.5 49.4573 163.596 49.4206 163.668 49.3533Z" fill="black"/>
<path d="M75.315 36.6002C78.2713 40.4911 79.3048 45.1331 78.9154 49.9471C78.8679 50.535 79.8653 50.6803 79.9562 50.088C80.7194 45.11 79.0247 40.0265 75.8719 36.1706C75.6199 35.8624 75.0709 36.279 75.315 36.6002Z" fill="black"/>
<path d="M79.25 55.3134L79.2564 55.4355C79.2575 55.4558 79.2582 55.4762 79.2596 55.4965C79.2634 55.6236 79.315 55.7445 79.4041 55.8351C79.4905 55.9196 79.6066 55.9669 79.7275 55.9669C79.8483 55.9669 79.9644 55.9196 80.0508 55.8351C80.1399 55.7445 80.1916 55.6236 80.1953 55.4965C80.1967 55.4762 80.1975 55.4558 80.1985 55.4355L80.2049 55.3134C80.2049 55.219 80.1769 55.1266 80.1245 55.0481C80.072 54.9696 79.9974 54.9084 79.9102 54.8723C79.8229 54.8361 79.7269 54.8267 79.6343 54.8451C79.5417 54.8635 79.4566 54.909 79.3899 54.9758C79.3004 55.0654 79.2501 55.1868 79.25 55.3134Z" fill="black"/>
<path d="M131.236 34.4393C132.074 35.9833 132.666 37.6483 132.991 39.3745C133.109 39.9483 133.946 39.6957 133.857 39.1356C133.546 37.3285 132.879 35.6014 131.894 34.055C131.841 33.972 131.758 33.9127 131.662 33.8896C131.566 33.8664 131.465 33.8813 131.38 33.931C131.295 33.9807 131.233 34.0614 131.206 34.1562C131.179 34.251 131.19 34.3524 131.236 34.4393H131.236Z" fill="black"/>
<path d="M134.28 45.0302C134.392 45.0264 134.498 44.9793 134.575 44.8989C134.653 44.8184 134.697 44.711 134.697 44.5991C134.697 44.4872 134.653 44.3797 134.575 44.2993C134.498 44.2189 134.392 44.1718 134.28 44.168C134.168 44.1718 134.062 44.2189 133.984 44.2993C133.907 44.3797 133.863 44.4872 133.863 44.5991C133.863 44.711 133.907 44.8184 133.984 44.8989C134.062 44.9793 134.168 45.0264 134.28 45.0302Z" fill="black"/>
<path d="M133.447 132.736C131.866 131.947 130.218 131.22 128.464 131.014C126.71 130.808 124.814 131.187 123.512 132.381C122.211 133.576 121.691 135.678 122.606 137.189C123.098 138.002 123.915 138.557 124.723 139.056C126.322 140.044 127.988 140.918 129.709 141.674C129.353 141.527 128.938 141.823 128.818 142.189C128.731 142.567 128.759 142.962 128.897 143.325C129.572 145.634 130.731 147.773 132.295 149.6C133.86 151.427 135.796 152.9 137.973 153.922" fill="white"/>
<path d="M133.653 132.378C130.221 130.639 124.566 128.873 122.172 133.22C119.53 138.016 126.019 140.695 129.389 142.215L129.708 141.039C126.245 140.61 129.638 146.939 130.313 147.995C132.091 150.808 134.649 153.043 137.675 154.427C138.353 154.733 138.954 153.755 138.268 153.411C136.162 152.371 134.284 150.92 132.747 149.143C131.984 148.248 131.32 147.274 130.766 146.236C130.635 145.991 129.004 142.22 129.708 142.301C130.317 142.372 130.587 141.372 130.026 141.125C128.303 140.375 126.632 139.509 125.026 138.532C123.264 137.449 122.058 135.851 123.126 133.777C125.093 129.956 130.335 131.695 133.238 133.087C133.711 133.314 134.128 132.618 133.653 132.378L133.653 132.378Z" fill="black"/>
<path d="M106.537 127.355C108.305 130.099 113.357 129.765 114.239 132.908C114.836 135.038 112.992 136.834 111.665 138.206C114.842 139.03 113.84 143.365 111.438 144.579C112.242 144.794 112.959 145.255 113.488 145.897C114.018 146.539 114.334 147.331 114.392 148.161C114.451 148.991 114.248 149.819 113.814 150.529C113.379 151.238 112.734 151.795 111.968 152.12C112.895 152.516 113.691 153.165 114.265 153.993C114.84 154.821 115.168 155.795 115.214 156.801C115.305 159.824 112.678 162.011 110.038 162.871C109.367 163.107 108.662 163.231 107.951 163.239C106.218 163.218 104.618 162.201 103.496 160.88C102.374 159.56 101.655 157.952 100.957 156.366" fill="white"/>
<path d="M106.178 127.56C107.432 129.408 109.611 129.912 111.506 130.851C112.656 131.42 113.782 132.233 113.83 133.643C113.886 135.337 112.355 136.709 111.271 137.814C111.205 137.883 111.157 137.968 111.133 138.06C111.109 138.153 111.109 138.25 111.133 138.343C111.158 138.435 111.206 138.52 111.272 138.589C111.339 138.657 111.422 138.707 111.514 138.735C114.191 139.567 113.032 143.035 111.139 144.074C111.043 144.134 110.966 144.22 110.918 144.322C110.869 144.425 110.851 144.539 110.866 144.651C110.88 144.763 110.927 144.869 111 144.955C111.074 145.042 111.17 145.105 111.278 145.138C114.387 146.147 114.525 150.195 111.65 151.583C111.557 151.638 111.481 151.716 111.427 151.81C111.374 151.904 111.346 152.01 111.346 152.118C111.346 152.226 111.374 152.332 111.427 152.425C111.481 152.519 111.557 152.598 111.65 152.653C113.578 153.526 114.901 155.523 114.528 157.684C114.209 159.53 112.719 160.909 111.125 161.736C109.154 162.758 107.035 162.951 105.178 161.602C103.334 160.263 102.388 158.065 101.497 156.046C101.17 155.305 100.082 155.946 100.408 156.682C101.538 159.24 102.859 161.97 105.501 163.259C107.754 164.357 110.306 163.75 112.358 162.477C114.237 161.311 115.736 159.439 115.83 157.157C115.929 154.767 114.42 152.551 112.276 151.583V152.653C116.149 150.778 115.626 145.292 111.588 144.015L111.727 145.079C114.499 143.531 115.449 138.757 111.807 137.672L112.05 138.593C113.895 136.667 116.235 133.722 113.837 131.236C111.922 129.251 108.541 129.448 106.888 127.146C106.584 126.722 105.878 127.118 106.178 127.56H106.178Z" fill="black"/>
<path d="M201.805 105.533C202.238 102.843 203.266 100.285 204.815 98.0447C205.208 97.417 205.703 96.8598 206.281 96.3963C206.856 96.026 207.459 95.701 208.085 95.4241C209.156 94.8764 210.14 94.172 211.003 93.334C211.891 92.4731 212.644 91.4834 213.238 90.3983C213.868 89.1696 214.371 87.8795 214.739 86.5483C215.491 84.0603 216.096 81.3712 217.909 79.4003C218.787 78.4054 219.981 77.7424 221.289 77.5226C222.554 77.3284 223.894 77.611 224.83 78.5191C224.998 78.6815 225.254 78.4254 225.086 78.2627C223.441 76.6681 220.753 76.8443 218.934 78.0445C216.771 79.4715 215.664 82.0473 214.907 84.4262C214.462 85.8236 214.1 87.2492 213.568 88.6174C213.079 89.9042 212.38 91.1011 211.5 92.1595C210.663 93.1523 209.673 94.0052 208.567 94.686C207.987 95.0409 207.369 95.3165 206.773 95.6401C206.161 95.9628 205.616 96.4004 205.169 96.929C203.176 99.3128 201.923 102.38 201.44 105.432C201.403 105.67 201.767 105.773 201.805 105.533H201.805Z" fill="black"/>
<path d="M187.779 95.2846C188.297 99.2209 189.541 103.027 191.448 106.509C191.991 107.495 192.59 108.45 193.241 109.369C193.419 109.621 193.837 109.382 193.658 109.125C191.41 105.901 189.761 102.3 188.788 98.4918C188.518 97.418 188.304 96.3309 188.147 95.2348C188.117 95.0282 187.751 95.0751 187.779 95.2846H187.779Z" fill="black"/>
<path d="M188.602 91.2209C190.365 96.915 192.27 102.562 194.32 108.161C194.606 108.944 194.895 109.726 195.186 110.508C195.47 111.269 195.693 112.122 196.115 112.818C196.136 112.852 196.169 112.878 196.208 112.89C196.246 112.902 196.288 112.9 196.325 112.885C196.362 112.869 196.393 112.84 196.411 112.804C196.429 112.768 196.434 112.727 196.424 112.687C196.284 111.962 195.925 111.255 195.663 110.566C195.402 109.881 195.143 109.196 194.886 108.509C194.366 107.118 193.855 105.723 193.353 104.325C192.352 101.528 191.386 98.7189 190.457 95.8971C189.934 94.3125 189.424 92.7242 188.925 91.1322C188.86 90.9276 188.538 91.0147 188.602 91.221L188.602 91.2209Z" fill="black"/>
<path d="M187.817 80.7132C190.389 88.5775 192.955 96.4438 195.514 104.312C196.234 106.526 196.948 108.743 197.674 110.955C197.692 111.013 197.73 111.064 197.782 111.097C197.833 111.13 197.895 111.143 197.956 111.135C198.016 111.127 198.072 111.097 198.113 111.052C198.154 111.006 198.178 110.948 198.18 110.886C198.192 110.336 198.201 109.787 198.2 109.237C198.198 109.178 198.173 109.123 198.131 109.082C198.089 109.041 198.033 109.019 197.974 109.019C197.916 109.019 197.86 109.041 197.818 109.082C197.775 109.123 197.751 109.178 197.749 109.237C197.713 109.786 197.687 110.336 197.664 110.886L198.17 110.818C195.57 102.96 192.925 95.1172 190.318 87.2619L188.116 80.6307C188.054 80.4423 187.755 80.5225 187.817 80.7132V80.7132Z" fill="black"/>
<path d="M184.883 65.7035C186.948 71.5835 188.922 77.4939 190.807 83.4348C192.68 89.3367 194.462 95.2662 196.154 101.223C197.11 104.592 197.964 107.995 198.965 111.351C198.985 111.413 199.028 111.466 199.086 111.498C199.144 111.53 199.212 111.537 199.276 111.52C199.339 111.502 199.393 111.461 199.427 111.404C199.46 111.347 199.47 111.28 199.455 111.216C198.729 108.188 197.822 105.196 196.958 102.206C196.093 99.2115 195.206 96.2239 194.295 93.2431C192.486 87.3203 190.586 81.4261 188.596 75.5604C187.47 72.2421 186.315 68.9336 185.132 65.635C185.076 65.4801 184.828 65.5461 184.883 65.7035L184.883 65.7035Z" fill="black"/>
<path d="M186.52 63.341C188.188 69.5342 189.846 75.7301 191.494 81.9288C193.144 88.1266 194.798 94.3236 196.455 100.52L197.845 105.71L198.556 108.365C198.793 109.249 199.004 110.145 199.31 111.008C199.328 111.066 199.368 111.114 199.421 111.142C199.473 111.171 199.535 111.178 199.593 111.162C199.651 111.146 199.701 111.109 199.731 111.057C199.762 111.005 199.771 110.943 199.757 110.885C199.458 109.296 198.945 107.732 198.521 106.171L197.275 101.59C196.433 98.4954 195.591 95.4011 194.748 92.307L189.673 73.7473C188.717 70.2523 187.768 66.7553 186.827 63.2564C186.815 63.217 186.788 63.1838 186.751 63.164C186.715 63.1442 186.672 63.1393 186.633 63.1503C186.593 63.1612 186.559 63.1873 186.538 63.2229C186.517 63.2585 186.51 63.3009 186.52 63.341V63.341Z" fill="black"/>
<path d="M187.933 56.8599C189.518 63.2331 191.083 69.6111 192.629 75.9939C194.178 82.333 195.737 88.6696 197.307 95.0038C198.191 98.5956 199.066 102.19 199.966 105.778C199.986 105.841 200.027 105.894 200.082 105.93C200.137 105.965 200.203 105.98 200.269 105.971C200.334 105.962 200.393 105.931 200.437 105.882C200.481 105.833 200.507 105.77 200.509 105.705C200.517 105.176 200.52 104.647 200.525 104.118C200.523 104.057 200.498 103.999 200.454 103.957C200.411 103.915 200.352 103.891 200.291 103.891C200.23 103.891 200.172 103.915 200.128 103.957C200.085 103.999 200.059 104.057 200.058 104.118C200.024 104.647 199.987 105.175 199.956 105.705L200.499 105.631C198.921 99.2574 197.292 92.8958 195.686 86.5291C194.09 80.2027 192.488 73.878 190.88 67.5548C189.969 63.97 189.065 60.3836 188.166 56.7956C188.157 56.7657 188.136 56.7407 188.109 56.7257C188.081 56.7107 188.049 56.707 188.019 56.7153C187.988 56.7236 187.963 56.7434 187.947 56.7703C187.931 56.7973 187.926 56.8294 187.933 56.8599H187.933Z" fill="black"/>
<path d="M192.528 64.9904C193.793 70.5415 195.058 76.0926 196.323 81.6439L200.1 98.3022C200.275 99.0723 200.448 99.8427 200.621 100.613C200.705 100.99 200.775 101.374 200.876 101.747C200.924 101.988 201.05 102.208 201.234 102.371C201.577 102.631 202.134 102.426 201.977 101.948C201.869 101.618 201.36 101.414 201.267 101.868C201.201 102.191 201.682 102.33 201.765 102.005L201.457 102.078L201.465 102.091C201.48 102.168 201.588 102.144 201.569 101.938C201.564 101.884 201.445 101.739 201.424 101.68C201.331 101.409 201.285 101.114 201.219 100.836C201.071 100.209 200.923 99.5826 200.775 98.9558C200.486 97.722 200.198 96.4881 199.909 95.2541L198.191 87.9115C197.046 83.0163 195.903 78.1205 194.763 73.224L192.827 64.9079C192.782 64.7134 192.484 64.7958 192.528 64.9904H192.528Z" fill="black"/>
<path d="M193.977 59.2651C195.307 64.2738 196.553 69.3037 197.716 74.3548C198.873 79.3859 199.947 84.435 200.938 89.5021C201.501 92.3652 201.993 95.2417 202.551 98.1052C202.619 98.4542 203.135 98.3023 203.079 97.9596C202.661 95.4046 202.14 92.8621 201.635 90.323C201.131 87.7821 200.603 85.246 200.053 82.7146C198.956 77.6717 197.776 72.648 196.512 67.6436C195.797 64.8152 195.056 61.9938 194.288 59.1794C194.275 59.1395 194.248 59.106 194.211 59.086C194.174 59.0661 194.131 59.0611 194.091 59.0722C194.051 59.0833 194.016 59.1096 193.995 59.1456C193.974 59.1816 193.967 59.2244 193.977 59.265V59.2651Z" fill="black"/>
<path d="M196.406 60.612C197.627 65.1215 198.763 69.6525 199.813 74.205C200.868 78.7773 201.849 83.3662 202.754 87.9717C203.007 89.2528 203.254 90.5352 203.494 91.8187C203.736 93.1092 203.883 94.4603 204.268 95.7164C204.34 95.9525 204.731 95.9218 204.715 95.6559C204.643 94.501 204.349 93.3476 204.129 92.213C203.908 91.0719 203.683 89.9316 203.452 88.7923C202.988 86.4937 202.503 84.1993 201.998 81.909C200.984 77.3291 199.893 72.7671 198.727 68.2231C198.073 65.6536 197.396 63.0898 196.698 60.5315C196.686 60.4942 196.66 60.4629 196.626 60.4442C196.591 60.4255 196.551 60.4208 196.513 60.4312C196.476 60.4416 196.443 60.4663 196.423 60.5C196.403 60.5337 196.397 60.5738 196.406 60.6119V60.612Z" fill="black"/>
<path d="M201.152 67.7635L204.817 88.766C205.159 90.7249 205.427 92.7155 205.877 94.6528C205.94 94.9253 206.411 94.8732 206.375 94.5853C206.155 92.8344 205.777 91.0963 205.462 89.3604L204.505 84.089L202.601 73.6074L201.521 67.6617C201.477 67.4193 201.11 67.5226 201.152 67.7635H201.152Z" fill="black"/>
<path d="M202.193 63.6756C204.278 71.4015 205.94 79.2357 207.171 87.1431C207.523 89.3906 207.809 91.6463 208.136 93.8971L208.649 93.7558L208.035 90.4437C207.976 90.1247 207.493 90.2608 207.549 90.5776L208.136 93.897C208.188 94.1884 208.692 94.1249 208.658 93.8264C208.207 89.8553 207.514 85.8973 206.779 81.9702C206.04 78.0197 205.196 74.0909 204.246 70.1838C203.709 67.9746 203.142 65.7726 202.546 63.5781C202.532 63.5326 202.501 63.4945 202.459 63.4716C202.417 63.4488 202.368 63.4432 202.322 63.4558C202.276 63.4685 202.237 63.4985 202.213 63.5395C202.189 63.5805 202.181 63.6293 202.193 63.6755L202.193 63.6756Z" fill="black"/>
<path d="M206.662 70.1265C207.569 75.2477 208.467 80.3704 209.357 85.4944C209.482 86.2089 209.606 86.9235 209.731 87.6381C209.858 88.3703 209.955 89.116 210.134 89.8376C210.204 90.1201 210.574 90.0248 210.604 89.7739C210.642 89.4571 210.679 89.1402 210.714 88.8232C210.736 88.6244 210.419 88.589 210.37 88.7766C210.29 89.0874 210.211 89.3986 210.134 89.7102L210.604 89.7739C210.454 88.5041 210.148 87.2403 209.91 85.984L209.182 82.1408C208.697 79.5786 208.213 77.0161 207.731 74.4533L206.911 70.058C206.881 69.8946 206.634 69.9644 206.662 70.1265H206.662Z" fill="black"/>
<path d="M209.053 69.4523C209.457 72.0482 209.86 74.6439 210.245 77.2426L210.818 81.1119C210.915 81.7672 211.011 82.4227 211.105 83.0784C211.153 83.4059 211.192 83.7358 211.249 84.0618C211.269 84.2555 211.342 84.4399 211.459 84.5956C211.709 84.8822 212.21 84.8504 212.247 84.4172C212.276 84.0934 211.982 83.8279 211.702 84.0651C211.514 84.2237 211.761 84.5458 211.965 84.4068C211.835 84.2824 211.774 84.2649 211.784 84.3543C211.882 84.3205 211.896 84.2762 211.828 84.2214C211.818 84.1307 211.759 84.0209 211.74 83.9262C211.677 83.6024 211.631 83.2739 211.577 82.9484C211.468 82.2965 211.359 81.6445 211.251 80.9925L210.617 77.1398C210.191 74.5495 209.783 71.9566 209.376 69.3632C209.342 69.1511 209.02 69.2414 209.053 69.4521V69.4523Z" fill="black"/>
<path d="M212.395 73.8782L213.732 78.9878C213.745 79.0297 213.774 79.0648 213.813 79.0857C213.851 79.1067 213.896 79.1119 213.939 79.1002C213.981 79.0886 214.017 79.061 214.039 79.0232C214.062 78.9855 214.069 78.9405 214.059 78.8978L212.674 73.8011C212.663 73.7652 212.638 73.735 212.605 73.717C212.572 73.6989 212.534 73.6944 212.497 73.7044C212.461 73.7144 212.43 73.7382 212.411 73.7706C212.392 73.803 212.386 73.8416 212.395 73.8782Z" fill="black"/>
<path d="M215.01 73.8425L215.008 76.224C215.01 76.2893 215.038 76.3512 215.085 76.3965C215.132 76.4419 215.194 76.4673 215.26 76.4673C215.325 76.4673 215.388 76.4419 215.435 76.3965C215.482 76.3512 215.509 76.2893 215.511 76.224L215.509 73.8425C215.507 73.7778 215.48 73.7166 215.433 73.6716C215.387 73.6267 215.324 73.6016 215.26 73.6016C215.195 73.6016 215.133 73.6267 215.086 73.6716C215.039 73.7166 215.012 73.7778 215.01 73.8425Z" fill="black"/>
<path d="M204.192 106.057C203.327 107.926 203.17 110.046 203.752 112.022C203.771 112.083 203.813 112.134 203.869 112.164C203.925 112.195 203.99 112.202 204.052 112.185C204.113 112.168 204.166 112.128 204.198 112.073C204.231 112.019 204.241 111.953 204.226 111.891C203.715 110.035 203.837 108.06 204.575 106.281C204.685 106.024 204.311 105.796 204.192 106.057Z" fill="black"/>
<path d="M206.168 110.103C205.991 110.36 205.852 110.641 205.755 110.937C205.43 111.821 205.352 112.778 205.532 113.703C205.588 113.987 206.012 113.864 205.964 113.584C205.814 112.736 205.888 111.864 206.179 111.054C206.278 110.779 206.417 110.524 206.529 110.255C206.542 110.209 206.537 110.16 206.516 110.117C206.495 110.074 206.459 110.041 206.415 110.022C206.371 110.005 206.322 110.003 206.277 110.018C206.231 110.033 206.193 110.063 206.168 110.103V110.103Z" fill="black"/>
<path d="M207.183 118.479L207.517 120.182C207.533 120.238 207.571 120.287 207.623 120.316C207.674 120.345 207.735 120.353 207.792 120.338C207.849 120.321 207.896 120.283 207.926 120.232C207.955 120.18 207.963 120.12 207.948 120.063L207.61 118.361C207.594 118.305 207.556 118.257 207.505 118.228C207.454 118.199 207.394 118.192 207.338 118.207C207.282 118.223 207.234 118.261 207.205 118.312C207.176 118.363 207.168 118.423 207.183 118.479L207.183 118.479Z" fill="black"/>
<path d="M208.578 123.177L208.608 124.197C208.608 124.222 208.613 124.246 208.622 124.268C208.631 124.291 208.644 124.311 208.661 124.328C208.678 124.346 208.699 124.359 208.721 124.369C208.743 124.378 208.767 124.383 208.792 124.383C208.816 124.383 208.84 124.378 208.862 124.369C208.885 124.359 208.905 124.346 208.922 124.328C208.939 124.311 208.953 124.291 208.962 124.268C208.971 124.246 208.975 124.222 208.975 124.197L209.005 123.177C209.006 123.149 209 123.121 208.99 123.094C208.979 123.068 208.963 123.044 208.944 123.024C208.924 123.004 208.9 122.988 208.874 122.977C208.848 122.967 208.82 122.961 208.792 122.961C208.763 122.961 208.735 122.967 208.709 122.977C208.683 122.988 208.66 123.004 208.64 123.024C208.62 123.044 208.604 123.068 208.594 123.094C208.583 123.121 208.578 123.149 208.578 123.177Z" fill="black"/>
<path d="M159.164 162.27C161.706 165.032 164.553 168.054 168.372 168.884C170.619 169.372 173.004 169.035 175.273 168.897C177.718 168.748 180.164 168.624 182.609 168.47C186.726 168.21 190.916 167.961 194.872 166.695C196.8 166.099 198.622 165.202 200.27 164.037C201.788 162.921 203.137 161.593 204.277 160.092C206.623 157.057 208.231 153.532 209.715 150.017C209.896 149.588 210.076 149.158 210.255 148.727C210.356 148.485 209.963 148.381 209.863 148.619C208.403 152.085 206.899 155.581 204.751 158.687C203.706 160.227 202.463 161.622 201.053 162.836C199.55 164.095 197.848 165.095 196.017 165.796C192.247 167.258 188.164 167.631 184.165 167.917C181.843 168.083 179.521 168.245 177.2 168.424C176.02 168.515 174.838 168.592 173.657 168.677C172.514 168.785 171.367 168.836 170.22 168.83C168.214 168.752 166.27 168.115 164.608 166.991C162.981 165.93 161.57 164.573 160.227 163.179C159.904 162.845 159.584 162.507 159.267 162.167C159.203 162.099 159.101 162.201 159.164 162.27L159.164 162.27Z" fill="black"/>
<path d="M211.174 134.81C211.194 134.81 211.212 134.802 211.226 134.788C211.239 134.775 211.247 134.756 211.247 134.737C211.247 134.718 211.239 134.699 211.226 134.685C211.212 134.672 211.194 134.664 211.174 134.664C211.155 134.664 211.137 134.672 211.123 134.685C211.109 134.699 211.102 134.718 211.102 134.737C211.102 134.756 211.109 134.775 211.123 134.788C211.137 134.802 211.155 134.81 211.174 134.81Z" fill="black"/>
<path d="M134.096 157.922C134.674 161.506 134.793 165.149 134.451 168.763C134.426 169.026 134.838 169.024 134.862 168.763C135.194 165.116 135.043 161.442 134.415 157.834C134.379 157.625 134.062 157.714 134.096 157.922Z" fill="black"/>
<path d="M130.662 155.501C130.825 157.603 130.874 159.712 130.809 161.819C130.744 163.931 130.512 166.02 130.321 168.122C130.301 168.342 130.673 168.395 130.709 168.175C131.013 166.09 131.168 163.987 131.172 161.88C131.208 159.753 131.135 157.621 130.964 155.501C130.949 155.308 130.647 155.306 130.662 155.501Z" fill="black"/>
<path d="M131.759 158.894C131.951 160.474 132.066 162.059 132.105 163.649C132.124 164.424 132.126 165.199 132.111 165.974C132.096 166.786 132.009 167.609 132.053 168.42C132.064 168.62 132.39 168.693 132.425 168.47C132.518 167.683 132.55 166.889 132.519 166.096C132.517 165.301 132.497 164.505 132.46 163.711C132.386 162.101 132.245 160.492 132.045 158.894C132.023 158.714 131.737 158.711 131.759 158.894Z" fill="black"/>
<path d="M133.467 165.054L133.807 167.096C133.838 167.277 134.113 167.2 134.083 167.02L133.743 164.978C133.713 164.797 133.437 164.874 133.467 165.054Z" fill="black"/>
<path d="M133.946 168.154C133.966 168.153 133.984 168.145 133.998 168.13C134.012 168.116 134.02 168.097 134.02 168.077C134.02 168.057 134.012 168.038 133.998 168.023C133.984 168.009 133.966 168.001 133.946 168C133.926 168.001 133.907 168.009 133.893 168.023C133.879 168.038 133.871 168.057 133.871 168.077C133.871 168.097 133.879 168.116 133.893 168.13C133.907 168.145 133.926 168.153 133.946 168.154Z" fill="black"/>
<path d="M131.355 151.411L131.386 152.091C131.386 152.139 131.405 152.185 131.438 152.218C131.472 152.252 131.517 152.271 131.565 152.271C131.613 152.271 131.658 152.252 131.692 152.218C131.725 152.185 131.744 152.139 131.744 152.091L131.775 151.411C131.775 151.383 131.77 151.356 131.759 151.33C131.749 151.304 131.733 151.281 131.714 151.261C131.694 151.242 131.671 151.226 131.646 151.215C131.62 151.205 131.593 151.199 131.565 151.199C131.537 151.199 131.51 151.205 131.484 151.215C131.459 151.226 131.436 151.242 131.416 151.261C131.397 151.281 131.381 151.304 131.371 151.33C131.36 151.356 131.355 151.383 131.355 151.411Z" fill="black"/>
<path d="M132.246 156.6C132.269 156.599 132.291 156.589 132.307 156.573C132.323 156.556 132.332 156.534 132.332 156.511C132.332 156.488 132.323 156.466 132.307 156.449C132.291 156.432 132.269 156.423 132.246 156.422C132.223 156.423 132.201 156.432 132.185 156.449C132.169 156.466 132.16 156.488 132.16 156.511C132.16 156.534 132.169 156.556 132.185 156.573C132.201 156.589 132.223 156.599 132.246 156.6Z" fill="black"/>
<path d="M107.481 103.866C110.314 106.814 113.108 109.799 115.863 112.821C118.602 115.831 121.302 118.875 123.963 121.954C125.478 123.706 126.969 125.479 128.478 127.237L128.899 126.816C126.047 124.1 123.653 120.952 121.385 117.744C119.122 114.543 116.956 111.27 114.515 108.199C113.15 106.463 111.667 104.824 110.077 103.293C109.827 103.054 109.447 103.432 109.697 103.673C114.223 108.019 118.499 112.617 122.506 117.447C123.643 118.818 124.757 120.208 125.848 121.616L126.302 121.162C121.264 116.651 117.629 110.914 113.819 105.392C112.733 103.817 111.604 102.265 110.464 100.728C110.273 100.471 109.838 100.711 110.025 100.985C114.05 106.878 118.134 112.783 122.938 118.077C124.296 119.573 125.713 121.012 127.202 122.378C127.452 122.608 127.915 122.302 127.697 121.996C126.733 120.64 125.729 119.312 124.765 117.955L121.948 113.99C120.046 111.314 118.15 108.634 116.257 105.951C115.178 104.424 114.099 102.896 113.02 101.369L112.614 101.682C115.63 105.206 118.477 108.866 121.154 112.661C121.913 113.738 122.635 114.839 123.369 115.934C123.601 116.28 124.165 115.957 123.932 115.604C121.201 111.471 118.468 107.34 115.732 103.21L113.386 99.6706L112.931 100.022C116.653 103.273 119.705 107.192 122.551 111.209C123.357 112.347 124.152 113.494 124.949 114.639L125.43 114.267C122.719 110.763 120.302 107.042 118.202 103.14C117.607 102.034 117.038 100.915 116.495 99.7816L115.997 100.073C118.849 103.898 121.586 107.806 124.208 111.796C124.959 112.934 125.701 114.077 126.434 115.227L126.982 114.906C124.542 111.246 122.366 107.416 120.471 103.447C119.933 102.322 119.42 101.185 118.931 100.037L118.542 100.337C120.943 103.379 123.118 106.592 125.05 109.951C125.088 110.01 125.147 110.053 125.215 110.069C125.283 110.086 125.355 110.075 125.415 110.04C125.476 110.005 125.52 109.947 125.539 109.88C125.558 109.812 125.55 109.74 125.517 109.678C124.153 107.03 122.863 104.344 121.701 101.601L121.33 101.887C122.364 103.058 123.363 104.258 124.388 105.437C124.582 105.66 124.941 105.373 124.793 105.124C124.626 104.847 124.52 104.536 124.486 104.213C124.451 103.891 124.487 103.564 124.591 103.257L124.212 103.411C125.144 103.997 125.923 104.796 126.483 105.744C126.519 105.801 126.575 105.841 126.64 105.857C126.705 105.873 126.773 105.863 126.831 105.829C126.889 105.795 126.931 105.74 126.949 105.676C126.968 105.611 126.96 105.543 126.928 105.484C126.322 104.461 125.48 103.598 124.473 102.966C124.438 102.947 124.4 102.935 124.361 102.933C124.322 102.93 124.282 102.937 124.246 102.951C124.209 102.966 124.177 102.989 124.15 103.018C124.124 103.048 124.105 103.082 124.094 103.12C123.971 103.494 123.93 103.889 123.974 104.28C124.018 104.671 124.145 105.048 124.348 105.385L124.753 105.072C123.729 103.894 122.679 102.739 121.664 101.553C121.516 101.381 121.18 101.565 121.269 101.783C122.391 104.568 123.653 107.294 125.05 109.951L125.517 109.678C123.513 106.338 121.314 103.118 118.931 100.037C118.779 99.8393 118.361 99.9415 118.478 100.228C120.138 104.307 122.114 108.25 124.389 112.021C125.045 113.106 125.726 114.175 126.434 115.227C126.659 115.564 127.204 115.253 126.982 114.907C124.402 110.891 121.712 106.95 118.912 103.081C118.113 101.977 117.307 100.877 116.495 99.7817C116.455 99.7186 116.392 99.6734 116.319 99.6557C116.247 99.6381 116.17 99.6493 116.105 99.687C116.041 99.7248 115.993 99.7861 115.973 99.8581C115.953 99.9301 115.961 100.007 115.997 100.073C117.916 104.095 120.164 107.951 122.717 111.603C123.437 112.632 124.181 113.644 124.949 114.639C125.183 114.942 125.708 114.66 125.478 114.329C122.652 110.256 119.778 106.168 116.37 102.553C115.405 101.528 114.396 100.544 113.34 99.6121C113.106 99.4056 112.695 99.6732 112.885 99.9631C115.6 104.106 118.317 108.247 121.036 112.387L123.368 115.934L123.932 115.604C121.341 111.73 118.516 107.99 115.563 104.386C114.716 103.351 113.855 102.328 112.979 101.317C112.789 101.097 112.402 101.39 112.573 101.63C116.382 106.98 120.177 112.338 123.96 117.706C125.038 119.233 126.075 120.787 127.152 122.315L127.648 121.932C122.401 117.08 118.015 111.425 113.886 105.617C112.734 103.995 111.603 102.359 110.464 100.729L110.025 100.985C112.081 103.698 113.908 106.579 115.814 109.398C117.677 112.223 119.699 114.94 121.871 117.536C123.103 118.983 124.432 120.347 125.848 121.616C125.909 121.673 125.989 121.703 126.073 121.702C126.156 121.701 126.235 121.667 126.294 121.608C126.353 121.549 126.387 121.47 126.388 121.387C126.39 121.303 126.359 121.223 126.302 121.162C122.447 116.212 118.305 111.493 113.897 107.029C112.644 105.763 111.371 104.517 110.077 103.293L109.697 103.673C112.566 106.37 114.972 109.509 117.241 112.714C119.507 115.914 121.664 119.197 124.085 122.285C125.439 124.03 126.907 125.684 128.478 127.237C128.756 127.509 129.141 127.106 128.899 126.816C126.278 123.681 123.554 120.628 120.821 117.592C118.099 114.569 115.341 111.58 112.544 108.626C110.954 106.942 109.352 105.27 107.738 103.609C107.575 103.442 107.32 103.697 107.481 103.866H107.481Z" fill="black"/>
<path d="M108.356 106.16C113.417 111.895 118.331 117.754 123.097 123.739C124.435 125.415 125.746 127.114 127.084 128.79L127.358 128.319C124.342 127.242 122.345 124.617 120.647 122.036C119.745 120.664 118.901 119.254 117.947 117.916C116.865 116.415 115.693 114.981 114.436 113.623C113.013 112.071 111.477 110.627 109.84 109.303C109.802 109.267 109.751 109.247 109.698 109.248C109.645 109.249 109.595 109.27 109.558 109.308C109.52 109.345 109.499 109.395 109.498 109.448C109.497 109.501 109.517 109.552 109.553 109.59C113.974 115.204 118.399 120.815 122.829 126.423L126.586 131.18L127.043 130.724C124.07 127.47 121.054 124.256 118.049 121.033C117.199 120.121 116.35 119.208 115.491 118.304C115.28 118.083 114.957 118.412 115.157 118.637C118.091 121.928 121.085 125.165 124.057 128.421C124.898 129.342 125.738 130.265 126.586 131.18C126.875 131.491 127.297 131.04 127.043 130.723C122.576 125.155 118.107 119.587 113.637 114.021L109.841 109.303L109.553 109.59C112.551 111.955 115.188 114.744 117.383 117.869C119.253 120.541 120.754 123.511 122.985 125.916C124.141 127.217 125.588 128.226 127.208 128.863C127.505 128.973 127.634 128.586 127.483 128.391C125.125 125.363 122.659 122.412 120.198 119.467C117.761 116.55 115.282 113.671 112.791 110.8C111.387 109.181 109.972 107.57 108.547 105.969C108.431 105.839 108.241 106.03 108.356 106.16H108.356Z" fill="black"/>
<path d="M107.552 110.314C111.166 115.393 114.868 120.411 118.532 125.455C119.567 126.879 120.599 128.306 121.64 129.726L122.193 129.3C117.787 125.595 115.583 119.967 111.161 116.273C110.009 115.291 108.703 114.507 107.294 113.952C107.006 113.842 106.865 114.229 107.022 114.419C111.045 119.308 114.808 124.42 118.358 129.661C119.354 131.132 120.333 132.615 121.294 134.111L121.795 133.609C117.922 131.195 114.731 127.917 111.763 124.485C110.913 123.501 110.075 122.507 109.238 121.512C108.987 121.215 108.484 121.604 108.698 121.928C111.109 125.596 113.719 129.129 116.518 132.51C117.323 133.478 118.143 134.433 118.98 135.375L119.05 134.834C118.746 135.043 118.212 134.309 118.029 134.121L116.897 132.957L114.633 130.628C113.138 129.091 111.642 127.555 110.144 126.02C109.286 125.142 108.424 124.266 107.572 123.381C107.317 123.116 106.946 123.505 107.174 123.779C110.181 127.389 113.367 130.846 116.722 134.136C117.672 135.068 118.635 135.986 119.612 136.89C119.652 136.928 119.702 136.956 119.756 136.97C119.81 136.984 119.867 136.984 119.921 136.97C119.975 136.955 120.025 136.927 120.065 136.889C120.105 136.85 120.135 136.801 120.151 136.747C120.468 135.839 120.223 134.892 119.874 134.031C119.496 133.101 119.07 132.188 118.665 131.268C117.823 129.357 116.975 127.448 116.12 125.542C115.628 124.449 115.136 123.356 114.644 122.263L114.144 122.555C116.667 125.931 119.158 129.331 121.652 132.729C121.809 132.942 122.224 132.902 122.203 132.58C122.1 130.916 121.725 129.279 121.094 127.736L120.647 128.08C122.09 128.83 123.341 129.903 124.301 131.216C124.529 131.529 125.057 131.226 124.826 130.909C123.812 129.507 122.486 128.359 120.954 127.554C120.745 127.445 120.399 127.633 120.507 127.898C121.123 129.39 121.496 130.97 121.612 132.58L122.163 132.43C119.648 129.048 117.129 125.667 114.643 122.263C114.603 122.199 114.54 122.154 114.467 122.136C114.394 122.118 114.317 122.129 114.252 122.167C114.187 122.205 114.14 122.267 114.12 122.339C114.099 122.412 114.108 122.489 114.144 122.555C115.167 124.909 116.193 127.261 117.221 129.613C117.736 130.787 118.254 131.961 118.774 133.133C119.24 134.184 119.932 135.403 119.529 136.576L120.068 136.434C116.607 133.257 113.308 129.908 110.183 126.4C109.298 125.406 108.428 124.4 107.572 123.381L107.174 123.779C110.408 127.111 113.598 130.486 116.814 133.835C117.241 134.281 117.65 134.775 118.116 135.18C118.469 135.486 118.965 135.726 119.397 135.428C119.442 135.401 119.48 135.364 119.508 135.32C119.536 135.276 119.555 135.227 119.561 135.175C119.568 135.123 119.563 135.07 119.547 135.02C119.53 134.971 119.503 134.925 119.467 134.887C116.572 131.64 113.869 128.226 111.372 124.664C110.66 123.649 109.966 122.621 109.291 121.581L108.752 121.998C111.685 125.547 114.671 129.117 118.276 132.012C119.277 132.822 120.329 133.567 121.425 134.242C121.495 134.281 121.576 134.295 121.655 134.284C121.734 134.273 121.807 134.236 121.864 134.18C121.92 134.123 121.957 134.05 121.968 133.971C121.98 133.891 121.965 133.811 121.926 133.741C118.446 128.433 114.746 123.278 110.827 118.276C109.707 116.845 108.564 115.433 107.418 114.024L107.146 114.491C112.438 116.552 115.095 122.074 118.391 126.297C119.363 127.58 120.471 128.753 121.695 129.797C121.976 130.031 122.505 129.717 122.248 129.371C118.519 124.361 114.745 119.384 110.993 114.391C109.933 112.98 108.874 111.57 107.799 110.17C107.69 110.027 107.444 110.162 107.552 110.314L107.552 110.314Z" fill="black"/>
<path d="M113.678 131.732C117.543 137.138 121.589 142.402 125.866 147.491C127.065 148.918 128.273 150.339 129.516 151.728C129.745 151.983 130.213 151.635 130 151.354C126.835 147.192 123.712 142.997 120.57 138.817L117.878 135.234L117.541 135.672C118.4 135.92 118.974 136.679 119.534 137.326L121.657 139.777L125.944 144.726C126.747 145.653 127.549 146.58 128.352 147.508C128.601 147.796 129.097 147.417 128.883 147.098C126.371 143.365 123.647 139.78 120.724 136.359L120.277 136.806C123.607 139.511 126.576 142.633 129.111 146.095C129.366 146.443 129.955 146.103 129.695 145.753C127.103 142.264 124.09 139.109 120.724 136.359C120.664 136.303 120.585 136.273 120.503 136.274C120.421 136.276 120.343 136.309 120.285 136.367C120.227 136.425 120.194 136.503 120.192 136.585C120.191 136.667 120.221 136.746 120.277 136.806C123.128 140.213 125.806 143.762 128.299 147.439L128.83 147.029C125.883 143.672 122.94 140.312 120 136.948C119.347 136.202 118.692 135.382 117.699 135.096C117.469 135.03 117.2 135.319 117.362 135.535L126.781 148.079C127.678 149.273 128.577 150.466 129.468 151.665L129.951 151.292C125.602 146.322 121.363 141.271 117.344 136.028C116.21 134.547 115.086 133.058 113.987 131.55C113.853 131.366 113.543 131.543 113.678 131.731L113.678 131.732Z" fill="black"/>
<path d="M113.785 134.417C117.747 139.405 121.707 144.394 125.665 149.385C126.787 150.799 127.904 152.216 129.043 153.616L129.459 153.2C127.013 151.26 124.908 148.951 122.804 146.657C120.567 144.218 118.315 141.792 116.095 139.338C114.818 137.927 113.541 136.515 112.264 135.103C112.079 134.899 111.704 135.177 111.876 135.403C115.887 140.648 119.9 145.891 123.915 151.132L127.324 155.583L127.857 155.172C126.022 153.141 124.136 151.155 122.278 149.145C120.406 147.12 118.534 145.094 116.662 143.069C115.606 141.926 114.547 140.787 113.498 139.639C113.288 139.409 112.869 139.718 113.058 139.978L124.331 155.388C125.395 156.844 126.459 158.3 127.522 159.757L128.084 159.323C124.613 155.4 121.07 151.539 117.543 147.667C116.534 146.56 115.532 145.449 114.534 144.333C114.351 144.127 114.016 144.392 114.156 144.625C116.966 149.295 120.048 153.796 123.384 158.107C124.333 159.334 125.302 160.545 126.289 161.742L126.767 161.265C125.131 159.904 123.51 158.543 121.959 157.083C120.411 155.626 118.906 154.121 117.418 152.601C116.572 151.736 115.73 150.868 114.891 149.995C114.647 149.743 114.171 150.085 114.391 150.381C117.235 154.212 120.194 157.953 123.315 161.562C124.193 162.579 125.084 163.585 125.985 164.582L126.319 164.008C124.621 163.518 123.286 162.304 122.085 161.06C120.662 159.587 119.282 158.069 117.884 156.571L115.391 153.901C115.146 153.638 114.661 153.993 114.883 154.293C117.867 158.337 120.836 162.392 123.79 166.459L124.336 166.037C121.423 163.546 118.534 161.006 115.835 158.281C115.617 158.062 115.2 158.358 115.393 158.622C117.552 161.578 119.674 164.563 121.851 167.505L122.321 167.035C119.669 165.358 117.23 163.367 115.056 161.105C115.002 161.054 114.93 161.023 114.855 161.02C114.78 161.016 114.706 161.039 114.647 161.085C114.587 161.131 114.546 161.197 114.531 161.27C114.515 161.344 114.527 161.42 114.563 161.486C115.975 163.9 117.619 166.17 119.473 168.264L119.927 167.809C117.738 165.854 115.544 163.905 113.345 161.962C113.29 161.91 113.217 161.879 113.14 161.875C113.064 161.872 112.989 161.895 112.928 161.942C112.867 161.989 112.826 162.056 112.81 162.13C112.794 162.205 112.805 162.283 112.842 162.351C113.924 164.369 115.25 166.246 116.79 167.939L117.159 167.461L113.464 165.465C113.166 165.304 112.82 165.707 113.09 165.951C113.742 166.541 114.394 167.131 115.047 167.721C115.344 167.99 115.787 167.55 115.488 167.28C114.835 166.69 114.181 166.102 113.527 165.514L113.152 165.999L116.852 167.987C116.916 168.021 116.99 168.032 117.061 168.017C117.132 168.002 117.195 167.963 117.24 167.905C117.284 167.847 117.307 167.776 117.303 167.703C117.3 167.631 117.27 167.562 117.221 167.509C115.716 165.853 114.431 164.01 113.395 162.027L112.892 162.416C115.079 164.373 117.272 166.322 119.473 168.264C119.534 168.32 119.614 168.351 119.698 168.35C119.781 168.349 119.861 168.315 119.919 168.256C119.978 168.197 120.012 168.118 120.014 168.034C120.015 167.951 119.984 167.87 119.927 167.809C118.09 165.772 116.474 163.546 115.105 161.169L114.612 161.55C116.807 163.871 119.279 165.913 121.974 167.629C122.251 167.806 122.65 167.44 122.444 167.158C120.281 164.201 118.06 161.283 115.879 158.338L115.437 158.679C118.157 161.387 120.909 164.053 123.844 166.529C124.122 166.763 124.642 166.448 124.39 166.108C121.4 162.066 118.417 158.019 115.442 153.967L114.934 154.359L119.435 159.221C120.728 160.616 121.973 162.122 123.487 163.286C124.275 163.911 125.174 164.381 126.137 164.67C126.209 164.687 126.285 164.681 126.354 164.652C126.423 164.623 126.48 164.572 126.518 164.508C126.555 164.443 126.571 164.368 126.563 164.294C126.554 164.22 126.522 164.151 126.47 164.096C123.305 160.62 120.279 157.023 117.392 153.306C116.561 152.235 115.744 151.153 114.941 150.06L114.441 150.446C117.402 153.553 120.368 156.66 123.595 159.496C124.493 160.285 125.402 161.075 126.358 161.795C126.682 162.039 127 161.536 126.767 161.265C123.24 157.147 119.984 152.806 117.018 148.268C116.18 146.987 115.365 145.691 114.572 144.381L114.194 144.673C117.693 148.576 121.119 152.546 124.594 156.471C125.586 157.593 126.575 158.717 127.578 159.829C127.845 160.126 128.385 159.725 128.14 159.395C124.34 154.285 120.548 149.168 116.765 144.046L113.542 139.695L113.102 140.034C116.834 144.07 120.528 148.142 124.231 152.204C125.279 153.354 126.315 154.516 127.377 155.652C127.684 155.98 128.117 155.506 127.857 155.172C123.807 149.957 119.757 144.742 115.706 139.528L112.264 135.103L111.915 135.453C114.183 137.92 116.443 140.394 118.695 142.874C120.852 145.255 122.974 147.675 125.194 149.998C126.399 151.284 127.685 152.492 129.043 153.616C129.098 153.668 129.172 153.697 129.248 153.695C129.325 153.694 129.397 153.663 129.451 153.609C129.505 153.555 129.536 153.482 129.537 153.406C129.539 153.33 129.51 153.256 129.459 153.2C125.503 148.219 121.433 143.325 117.42 138.39L114.007 134.194C113.879 134.037 113.66 134.26 113.785 134.417L113.785 134.417Z" fill="black"/>
<path d="M106.03 150.033C107.468 151.382 109.236 152.329 111.156 152.778C111.495 152.856 111.639 152.33 111.3 152.257C109.451 151.862 107.736 150.995 106.323 149.739C106.125 149.562 105.834 149.849 106.03 150.033Z" fill="black"/>
<path d="M105.008 142.213C105.913 142.661 106.817 143.111 107.725 143.553C107.782 143.584 107.848 143.592 107.911 143.576C107.973 143.56 108.027 143.52 108.061 143.465C108.094 143.408 108.103 143.341 108.086 143.278C108.07 143.216 108.029 143.162 107.973 143.128C107.048 142.715 106.119 142.308 105.191 141.9C104.982 141.808 104.795 142.108 105.008 142.213H105.008Z" fill="black"/>
<path d="M106.256 134.625C107.033 135.168 107.915 135.544 108.845 135.729C108.908 135.745 108.974 135.736 109.03 135.704C109.085 135.672 109.127 135.62 109.145 135.559C109.162 135.496 109.154 135.43 109.122 135.374C109.09 135.318 109.037 135.276 108.975 135.259C108.079 135.106 107.226 134.763 106.474 134.253C106.242 134.096 106.031 134.467 106.256 134.625V134.625Z" fill="black"/>
<path d="M127.512 133.992C127.991 134.176 128.513 134.217 129.015 134.111C129.517 134.006 129.978 133.757 130.343 133.396C130.396 133.339 130.425 133.264 130.424 133.186C130.422 133.108 130.391 133.034 130.336 132.979C130.281 132.924 130.206 132.892 130.129 132.891C130.051 132.889 129.975 132.918 129.918 132.972C129.622 133.253 129.255 133.448 128.856 133.537C128.457 133.625 128.042 133.604 127.654 133.475C127.586 133.457 127.513 133.467 127.451 133.502C127.39 133.537 127.344 133.594 127.325 133.662C127.307 133.731 127.317 133.803 127.352 133.865C127.387 133.926 127.444 133.972 127.512 133.992Z" fill="black"/>
<path d="M224.098 179.478C225.025 177.26 226.264 175.186 227.778 173.319C227.967 173.084 227.64 172.746 227.442 172.983C225.848 174.893 224.564 177.042 223.636 179.35C223.519 179.637 223.982 179.759 224.098 179.478L224.098 179.478Z" fill="black"/>
<path d="M89.9023 57.2107C93.6402 57.2151 97.3783 57.2278 101.116 57.2159C104.706 57.2045 108.416 57.3848 111.936 56.5571C115.245 55.7789 118.289 54.1852 121.276 52.6096C122.45 51.9907 123.746 51.2609 124.287 49.9775C124.893 48.5397 124.182 46.806 125.119 45.4799C126.001 44.2301 127.628 43.8743 128.794 42.9784C129.853 42.1644 130.892 40.6356 130.05 39.323C130.027 39.2868 129.991 39.2609 129.949 39.2508C129.908 39.2407 129.864 39.2471 129.827 39.2687C129.79 39.2903 129.763 39.3254 129.751 39.3667C129.74 39.4079 129.744 39.452 129.765 39.4897C130.52 40.7686 129.281 42.2014 128.244 42.8615C127.181 43.5378 125.925 43.9457 125.048 44.889C124.608 45.3615 124.32 45.9557 124.222 46.5942C124.105 47.3326 124.174 48.0815 124.101 48.8232C123.947 50.3793 122.766 51.2516 121.489 51.9508C118.624 53.5193 115.636 55.057 112.468 55.9069C109.077 56.8168 105.53 56.673 102.051 56.7315C98.001 56.7997 93.9517 56.891 89.9021 56.9768C89.8718 56.9778 89.8431 56.9906 89.822 57.0124C89.8009 57.0342 89.7891 57.0633 89.7891 57.0937C89.7891 57.124 89.8009 57.1532 89.822 57.175C89.8431 57.1968 89.8718 57.2095 89.9021 57.2105L89.9023 57.2107Z" fill="black"/>
<path d="M127.743 53.3707C129.698 51.9131 131.257 49.9887 132.277 47.7735C132.388 47.5291 132.024 47.3167 131.915 47.562C130.955 49.7359 129.459 51.6304 127.566 53.0681C127.389 53.2021 127.562 53.5063 127.743 53.3707Z" fill="black"/>
<path d="M163.385 104.496C161.559 106.268 160.077 108.362 159.013 110.673C158.986 110.723 158.978 110.781 158.99 110.837C159.001 110.893 159.033 110.942 159.078 110.977C159.123 111.012 159.179 111.03 159.236 111.027C159.293 111.024 159.347 111.002 159.389 110.963C160.677 109.982 161.9 108.917 163.047 107.774C164.167 106.628 165.203 105.404 166.148 104.11C166.309 103.89 165.947 103.688 165.786 103.898C163.917 106.337 162.077 108.799 160.228 111.253C160.027 111.52 160.44 111.776 160.663 111.589C163.535 109.174 166.267 106.588 169.179 104.223C169.389 104.053 169.088 103.748 168.88 103.924C166.976 105.531 165.552 107.631 164.764 109.995C164.686 110.232 164.988 110.357 165.151 110.22C166.401 109.166 167.65 108.111 168.897 107.054C170.144 105.997 171.354 104.894 172.626 103.869C172.773 103.751 172.576 103.492 172.424 103.607C169.783 105.581 167.687 108.193 166.333 111.199C166.303 111.254 166.294 111.318 166.307 111.379C166.32 111.441 166.354 111.495 166.404 111.534C166.454 111.572 166.515 111.591 166.578 111.588C166.64 111.585 166.7 111.56 166.745 111.517C169.162 109.411 171.531 107.25 173.919 105.111L173.547 104.824C172.492 106.608 171.408 108.376 170.338 110.151C170.194 110.389 170.472 110.622 170.698 110.511C171.935 109.903 173.167 109.284 174.4 108.667H174.137C174.249 108.746 174.332 108.86 174.373 108.991C174.415 109.122 174.413 109.263 174.368 109.393C174.27 109.711 174.768 109.847 174.866 109.53C174.94 109.29 174.935 109.033 174.851 108.796C174.767 108.559 174.609 108.356 174.4 108.217C174.36 108.193 174.315 108.181 174.268 108.181C174.222 108.181 174.177 108.193 174.137 108.217C172.901 108.828 171.664 109.437 170.432 110.057L170.792 110.417C171.846 108.632 172.887 106.839 173.956 105.063C174.1 104.824 173.78 104.602 173.584 104.776C171.178 106.895 168.751 108.994 166.374 111.146L166.786 111.464C168.056 108.477 170.066 105.863 172.626 103.869L172.39 103.633C171.163 104.715 169.867 105.719 168.607 106.764C167.348 107.808 166.086 108.851 164.823 109.892L165.21 110.118C165.978 107.831 167.349 105.794 169.179 104.223L168.88 103.924C166.089 106.436 163.106 108.734 160.272 111.197L160.707 111.533C162.524 109.061 164.351 106.596 166.148 104.11L165.785 103.898C163.956 106.495 161.695 108.757 159.099 110.587L159.426 110.914C160.507 108.658 161.941 106.589 163.673 104.784C163.709 104.745 163.728 104.694 163.727 104.642C163.726 104.589 163.705 104.539 163.668 104.501C163.63 104.464 163.58 104.443 163.527 104.442C163.475 104.441 163.424 104.46 163.385 104.496V104.496Z" fill="black"/>
<path d="M161.284 16.3517C162.764 16.5962 164.243 16.8362 165.726 17.0574C166.048 17.1054 166.188 16.6135 165.862 16.564C164.377 16.3378 162.89 16.1308 161.401 15.9281C161.128 15.8909 161.003 16.3051 161.284 16.3517H161.284Z" fill="black"/>
</svg>
