<svg width="148" height="104" viewBox="0 0 148 104" fill="none" xmlns="http://www.w3.org/2000/svg">
<path d="M1.84612 45.3251C17.7826 44.2226 30.5266 31.6493 31.8439 15.7291C31.8408 14.925 31.4112 14.1828 30.7155 13.7795C30.0198 13.3762 29.1623 13.3723 28.4629 13.7691C20.0643 19.8451 15.7229 31.7619 20.8679 41.3855C27.5809 53.8413 40.7129 45.7073 47.5533 38.1711L43.8587 35.3389C41.8987 38.2789 42.9669 41.5815 45.6325 43.6689C48.8175 46.1483 52.6199 45.3643 55.8245 43.3553C60.9303 40.1703 64.6445 36.8481 70.6225 35.0743C76.6005 33.3005 82.5295 31.8207 88.4977 30.3899C115.693 23.8631 143.799 21.1975 171.21 15.6899C173.385 15.2489 172.405 12.1325 170.298 12.4167C147.896 15.4841 125.591 19.6883 103.296 23.4711C93.1919 25.1763 83.1273 27.1559 73.1901 29.6451C68.923 30.5666 64.7948 32.0426 60.9107 34.0355C59.4102 34.9097 57.9756 35.8923 56.6183 36.9755C55.3149 37.9555 54.0507 39.4157 52.4435 39.9155C51.5517 40.1801 45.9951 40.5721 47.9257 37.7693C49.4447 35.5643 46.0245 32.9477 44.2311 34.9175C39.0077 40.6211 27.9925 49.2059 24.0235 37.0245C21.7303 29.9489 24.8761 22.0011 30.7365 17.7087L27.3653 15.7487C26.1405 29.316 15.4428 40.096 1.88532 41.4247C-0.60388 41.6305 -0.65288 45.5113 1.88532 45.3447L1.84612 45.3251Z" fill="#EFEFEF"/>
<path d="M21.9802 7.01326C32.4806 8.19595 43.1117 6.85195 52.9874 3.09326C54.8298 2.39746 54.0458 -0.591542 52.1642 0.104258C42.5458 3.75086 32.2256 5.16822 21.9802 4.24966C20.2162 4.08306 20.2554 6.80746 21.9802 6.99366V7.01326Z" fill="#EFEFEF"/>
<path d="M22.3434 69.4322C30.1834 67.4722 38.1116 65.5612 45.932 63.415C46.7424 63.1242 47.1918 62.2581 46.9631 61.428C46.7344 60.598 45.9048 60.0843 45.0598 60.2496C37.2198 62.2096 29.3798 64.5126 21.5398 66.6686C20.7767 66.877 20.3269 67.6646 20.5353 68.4277C20.7437 69.1909 21.5313 69.6406 22.2944 69.4322H22.3434Z" fill="#EFEFEF"/>
<path d="M33.6783 103.573C43.9879 104.141 53.3154 97.4912 56.1399 87.5598C56.298 86.9729 56.1747 86.3459 55.8064 85.8624C55.438 85.3789 54.8661 85.0937 54.2583 85.0902C50.8381 84.9628 48.7801 88.0302 49.0643 91.3132C49.4269 95.3116 53.1901 97.056 56.8357 96.5954C59.4375 96.1179 61.8657 94.9579 63.8721 93.234C64.906 92.3156 66.0031 91.4707 67.1551 90.7056C69.1151 89.6374 69.1151 89.8432 70.3107 90.9898C71.8297 92.4696 72.0551 93.7044 74.3385 94.557C76.4903 95.287 78.8315 95.228 80.9437 94.3904C83.6975 93.4104 85.9515 91.4504 88.4995 90.0392C91.8777 88.2962 95.5197 87.1208 99.2795 86.5602C106.385 85.3744 113.627 85.7958 120.84 85.6488C126.21 85.5508 129.66 84.3062 131.277 78.7888C133.109 72.4482 132.727 65.5784 131.1 59.2476C130.843 58.3826 130.153 57.7142 129.28 57.484C128.408 57.2539 127.478 57.4951 126.827 58.1206C121.869 62.8834 117.214 69.175 118.782 76.4662C120.252 83.3262 126.063 86.4132 132.717 85.639C136.736 85.1386 140.651 84.011 144.32 82.2972C146.496 81.3172 148.495 79.4944 150.681 78.632C153.189 77.652 155.032 78.7104 157.452 79.3082C165.988 81.4348 174.279 76.7896 181.276 72.4482C183.893 70.8116 181.521 66.7152 178.846 68.293C173.26 71.5858 166.37 75.7116 159.579 74.5454C156.992 74.0946 154.816 72.3208 152.111 72.5854C149.407 72.85 147.525 74.6532 145.359 75.9468C140.675 78.7398 129.748 83.7868 125.299 78.5536C120.497 72.9186 126.347 65.7058 130.444 61.7564L126.171 60.6294C127.543 65.5816 127.747 70.7846 126.769 75.8292C126.053 79.2396 124.397 80.1412 120.889 80.5822C118.688 80.7048 116.483 80.7048 114.283 80.5822C105.973 80.641 97.3979 80.8664 89.5971 84.0416C86.0593 85.4822 81.5513 90.049 77.7391 90.1372C73.9269 90.2254 75.1715 86.1486 72.2707 84.7864C69.8305 83.6398 66.9003 85.1882 64.8815 86.5406C63.5585 87.4128 62.3923 88.5006 61.1281 89.4806C60.0154 90.4368 58.741 91.1868 57.3649 91.6954C53.4449 91.7412 52.4649 90.8265 54.4249 88.9514L52.5433 86.4916C50.275 94.8356 42.4779 100.455 33.8449 99.9666C31.5419 99.8588 31.5615 103.406 33.8449 103.534L33.6783 103.573Z" fill="#EFEFEF"/>
</svg>
