<svg width="96" height="79" viewBox="0 0 96 79" fill="none" xmlns="http://www.w3.org/2000/svg">
<path d="M61.8598 46.1773C60.8686 47.1911 61.7233 48.6037 62.2281 49.6152C62.6976 50.5561 62.6017 51.3564 62.2265 52.3109C61.8686 53.2216 61.4945 54.1258 61.1279 55.0327C60.37 56.9073 59.6106 58.7811 58.8495 60.6542C58.2511 62.1271 57.2883 63.8138 57.5995 65.4722C57.8881 67.0097 59.1542 67.509 60.5074 67.6208C62.0329 67.7469 63.4937 67.6936 64.5056 66.3407C65.4503 65.0779 65.9128 63.3685 66.3405 61.8571C66.8431 60.081 67.2295 58.2717 67.7395 56.4977C68.9222 52.3832 70.7716 48.4161 72.8202 44.7003C72.9478 44.4688 72.6047 44.26 72.4771 44.4913C70.8385 47.4584 69.4197 50.5518 68.2332 53.7443C67.053 56.9233 66.5214 60.2956 65.4094 63.4938C64.9105 64.9286 64.2622 66.7529 62.671 67.1514C61.9284 67.3373 61.1121 67.256 60.3586 67.1825C59.5652 67.1051 58.7168 66.9067 58.2704 66.1456C57.3594 64.5924 58.4985 62.5895 59.0863 61.1408C59.7486 59.5083 60.4098 57.8753 61.0698 56.2418C61.4518 55.2961 61.8335 54.3502 62.2147 53.4042C62.5261 52.6316 62.952 51.8192 62.9791 50.9642C63.004 50.1787 62.607 49.5109 62.2486 48.8526C61.86 48.1385 61.4307 47.1111 62.0891 46.4164C62.1179 46.3844 62.1336 46.3419 62.1329 46.298C62.1322 46.2541 62.1152 46.2122 62.0854 46.1812C62.0556 46.1502 62.0154 46.1324 61.9733 46.1317C61.9312 46.1309 61.8905 46.1473 61.8598 46.1773L61.8598 46.1773Z" fill="black"/>
<path d="M57.0628 46.7344C57.0498 47.4927 57.4452 48.1705 57.9972 48.6461C58.3664 48.9642 58.8015 49.1883 59.2681 49.3009C59.7347 49.4135 60.2201 49.4114 60.6858 49.2947C61.1514 49.1781 61.5847 48.9501 61.9513 48.6288C62.318 48.3075 62.6079 47.9017 62.7982 47.4435" fill="white"/>
<path d="M56.9141 46.7398C56.9131 48.2643 58.2249 49.4021 59.6105 49.5667C60.3094 49.6445 61.0138 49.4854 61.6192 49.1131C62.2247 48.7409 62.699 48.1751 62.9719 47.4998C63.052 47.2997 62.7295 47.1598 62.6357 47.352C62.0839 48.4827 61.0348 49.2538 59.7864 49.1751C58.532 49.096 57.2561 48.1275 57.2043 46.7397C57.2029 46.7006 57.1871 46.6634 57.16 46.6362C57.1329 46.609 57.0968 46.5938 57.0592 46.5938C57.0216 46.5938 56.9854 46.609 56.9583 46.6362C56.9313 46.6634 56.9154 46.7006 56.9141 46.7397V46.7398Z" fill="black"/>
<path d="M40.585 9.68621C41.2244 9.56237 41.8735 9.50004 42.5239 9.50001C43.4559 9.49757 44.5568 9.98618 45.3689 10.4213C47.4545 11.5387 49.1214 13.3407 50.6512 15.1934C53.3242 18.4306 55.7582 21.9749 59.0936 24.4556C60.6883 25.6417 62.4518 26.5543 64.2068 27.4617C67.8753 29.3584 71.5833 31.2703 75.5669 32.2588C78.2121 32.9151 80.5047 33.498 80.9648 36.6055C81.2649 38.6326 80.7791 40.6871 80.2903 42.674C79.6781 45.162 77.6565 47.8037 75.1794 48.5242C73.7058 48.9529 72.1397 48.6985 70.626 48.4679C65.696 47.7168 60.7304 47.2474 55.7513 47.0617C53.5612 46.9801 51.356 46.9543 49.1924 47.3175C44.3138 48.1364 39.8132 50.9018 34.8792 51.1844C33.9677 51.2366 33.0376 51.1999 32.1696 50.9051C31.4244 50.6375 30.7354 50.2232 30.1402 49.6847C27.8166 47.6477 27.2416 44.7607 27.0376 41.762C26.3585 31.7793 28.8774 21.4221 34.7994 13.446C36.2989 11.4263 38.2604 10.1421 40.585 9.68621Z" fill="#FF6739"/>
<path d="M45.6273 17.3766C46.9587 27.2931 44.3901 41.8959 35.923 47.2576C34.9158 47.8954 33.6862 48.1975 32.6127 47.7631C31.432 47.2853 30.646 46.0197 30.1475 44.7177C29.188 42.2119 29.2997 39.1317 29.4825 36.4864C29.6555 33.7613 30.0429 31.0556 30.6409 28.3967C31.8453 23.181 34.1055 18.0507 38.1013 14.526C38.9631 13.7658 39.914 13.0929 40.9719 12.8074C42.0299 12.522 43.2133 12.6695 44.0595 13.4209C45.0865 14.3329 45.4299 15.9072 45.6273 17.3766Z" fill="white"/>
<path d="M45.4815 17.4149C46.0876 22.0219 45.8081 26.8328 44.8806 31.3706C43.9513 35.9172 42.2701 40.5165 39.2744 44.0341C38.5711 44.8669 37.7883 45.623 36.9383 46.2907C35.9071 47.0933 34.7121 47.8902 33.366 47.7385C31.8571 47.5686 30.9252 46.1197 30.3884 44.7779C29.8231 43.3648 29.6232 41.8243 29.5729 40.3036C29.4645 37.0265 29.8439 33.6656 30.4343 30.4524C30.9766 27.5005 31.7991 24.5849 33.0587 21.8749C34.2554 19.3001 35.8505 16.9176 37.9061 15.0082C39.021 13.9725 40.3731 12.9253 41.9322 12.9035C43.508 12.8813 44.5509 13.974 45.0135 15.4635C45.2014 16.107 45.3366 16.7658 45.4179 17.433C45.4581 17.7229 45.879 17.5991 45.8399 17.3117C45.6557 15.9584 45.3722 14.4662 44.4218 13.4501C43.496 12.4603 42.0769 12.2401 40.8346 12.5991C39.3984 13.0141 38.1882 14.0661 37.1311 15.1204C36.0761 16.1807 35.1352 17.358 34.3252 18.6313C30.7871 24.1497 29.5798 30.9552 29.2233 37.4716C29.0588 40.4792 29.0616 43.9915 30.8658 46.5279C31.6544 47.6366 32.7905 48.3087 34.1394 48.1394C35.3803 47.9837 36.4492 47.2127 37.4117 46.4313C41.1437 43.4017 43.3598 38.7259 44.6428 34.076C45.9738 29.2518 46.499 23.9919 45.9794 18.9912C45.9217 18.4367 45.85 17.8824 45.7763 17.33C45.7493 17.1276 45.4551 17.2141 45.4815 17.4149Z" fill="black"/>
<path d="M46.7292 12.0378C49.0656 15.0316 49.2402 19.0284 49.3637 22.7143C49.3713 22.9439 49.715 22.9448 49.7066 22.7143C49.5702 18.9328 49.3537 14.8743 46.9278 11.8307C46.8118 11.6851 46.6164 11.8932 46.7292 12.0378Z" fill="black"/>
<path d="M37.9865 15.0718C38.6916 14.5679 39.4007 14.063 40.1662 13.6625C40.5517 13.4547 40.9553 13.2856 41.3715 13.1575C41.4739 13.1274 41.5779 13.0986 41.6816 13.0735C41.7435 13.0537 41.8087 13.0478 41.8729 13.0564C41.9088 13.0597 41.9426 13.0755 41.9689 13.1013C42.0076 13.1548 41.9881 13.1439 41.9499 13.173C41.8551 13.2293 41.7553 13.2759 41.6519 13.312C41.552 13.3587 41.4521 13.4055 41.3522 13.4523C40.5448 13.8317 39.7405 14.2207 38.9618 14.6614C38.5759 14.8798 38.1964 15.1108 37.828 15.3598C37.4948 15.5954 37.1888 15.8703 36.916 16.1791C36.5859 16.5328 36.2086 16.8351 35.7957 17.0766C35.3881 17.3185 34.9631 17.5265 34.5514 17.7606C34.4686 17.8076 34.5267 17.9339 34.6135 17.914C37.085 17.3488 38.9164 15.3655 41.155 14.2714C41.7849 13.9537 42.4582 13.7396 43.1509 13.6367L43.1008 13.4437C40.66 14.7039 38.3289 16.183 36.1338 17.8641C35.5211 18.3332 34.9193 18.8175 34.3285 19.3167C34.2554 19.3784 34.3485 19.486 34.4243 19.4461C37.0612 18.0604 39.7068 16.6929 42.35 15.3205L44.6086 14.1477L44.5156 13.9819C42.0517 15.5578 39.4928 16.966 36.8548 18.198C36.1005 18.5498 35.34 18.8865 34.5732 19.2081L34.6444 19.3841C37.2396 17.9656 39.9405 16.7922 42.6765 15.7052C43.4752 15.3878 44.2752 15.0738 45.0763 14.763L45.0054 14.5876C42.1793 16.2438 39.3048 17.8069 36.4615 19.4303C35.6381 19.9005 34.8175 20.376 33.9997 20.8569L34.0936 21.0244C36.8045 19.2443 39.6821 17.7565 42.6819 16.584C43.5175 16.2576 44.3614 15.9558 45.2136 15.6787L45.1405 15.4978C42.5174 17.0529 39.8957 18.6103 37.2752 20.17L35.0295 21.5074C35.0093 21.5207 34.9947 21.5417 34.989 21.566C34.9834 21.5903 34.9869 21.616 34.999 21.6375C35.0111 21.6591 35.0308 21.675 35.0539 21.6817C35.077 21.6885 35.1017 21.6856 35.1228 21.6737C37.6726 20.1681 40.3002 18.8106 42.9938 17.6075C43.7646 17.2638 44.5404 16.933 45.3213 16.6149L45.2518 16.4429C43.7043 17.5134 42.1426 18.561 40.5667 19.5857C38.9908 20.61 37.4019 21.6123 35.8 22.5925C34.8938 23.1472 33.9833 23.6944 33.0686 24.2339L33.1642 24.4044C34.7025 23.4684 36.2574 22.5614 37.8385 21.7062C39.3776 20.8738 40.9416 20.0949 42.5306 19.3696C43.4698 18.9418 44.4167 18.5329 45.3712 18.143L45.3002 17.9674C43.6867 18.9527 42.0944 19.9746 40.5235 21.0329C38.9826 22.0678 37.4597 23.1315 35.9433 24.2051C35.0558 24.8334 34.1702 25.4646 33.2865 26.0987C33.2651 26.1129 33.2497 26.1352 33.2437 26.1609C33.2377 26.1866 33.2415 26.2138 33.2543 26.2366C33.2671 26.2595 33.288 26.2763 33.3124 26.2834C33.3369 26.2906 33.363 26.2876 33.3854 26.2751C36.4826 24.5842 39.5798 22.8933 42.677 21.2023C43.5551 20.7235 44.4334 20.2451 45.3118 19.767L45.2174 19.5987C43.3519 20.9524 41.5072 22.3365 39.6832 23.7509C37.8563 25.1611 36.0413 26.5879 34.2384 28.0313C33.2187 28.8437 32.2006 29.6583 31.1841 30.475C31.0871 30.5528 31.171 30.7216 31.2833 30.652C33.0617 29.5474 34.8586 28.4761 36.6739 27.4381C38.3824 26.4611 40.1052 25.5118 41.8301 24.5671C42.9007 23.9808 43.9711 23.394 45.0412 22.8067L44.9448 22.6349C43.1595 23.8651 41.396 25.1299 39.6705 26.4499C38.0431 27.695 36.4476 28.9838 34.8842 30.3163C33.9154 31.1377 32.9549 31.9697 32.003 32.8123C31.9168 32.8882 32.0268 33.0228 32.1198 32.9701C33.9412 31.9378 35.7526 30.8863 37.5537 29.8157C39.3548 28.7449 41.1451 27.6551 42.9249 26.5461C43.9328 25.918 44.9377 25.2847 45.9396 24.6461L45.853 24.4917L39.9762 28.6708L34.0994 32.8499L30.8009 35.1955C30.698 35.2687 30.7905 35.4404 30.8998 35.3718C32.7574 34.2048 34.6244 33.054 36.5007 31.9195C38.2361 30.8757 39.9816 29.8506 41.7373 28.8441C42.8561 28.1999 43.9765 27.559 45.0987 26.9214L45.0053 26.7549C42.9942 28.0538 40.9907 29.3656 38.995 30.6904C37.1394 31.9238 35.2899 33.1672 33.4467 34.4207C32.2868 35.2066 31.1273 35.993 29.9682 36.78C29.9522 36.7906 29.9394 36.8057 29.9313 36.8235C29.9232 36.8414 29.9203 36.8613 29.9227 36.8809C29.9252 36.9005 29.933 36.919 29.9452 36.9341C29.9574 36.9492 29.9735 36.9604 29.9915 36.9663C30.9738 37.38 32.0259 36.9205 32.8923 36.4201C33.9274 35.8224 34.9317 35.16 35.9477 34.528L42.1372 30.678L45.6293 28.5058L45.5521 28.3681C43.5492 29.6622 41.5593 30.9784 39.5825 32.3166C37.6068 33.6553 35.6475 35.02 33.7046 36.4105C32.6095 37.1943 31.5205 37.9873 30.4377 38.7895C30.3526 38.8525 30.4 39.018 30.5139 38.9779C32.575 38.2384 34.5736 37.3214 36.4888 36.2363C38.4177 35.1596 40.276 33.9499 42.1058 32.7011C43.1393 31.9957 44.163 31.2752 45.1893 30.5586C45.2066 30.5472 45.2189 30.5292 45.2238 30.5085C45.2286 30.4878 45.2256 30.4659 45.2152 30.4475C45.2049 30.429 45.1881 30.4155 45.1684 30.4097C45.1487 30.404 45.1276 30.4064 45.1096 30.4165C43.1157 31.6089 41.1317 32.819 39.1577 34.0469C37.1917 35.27 35.236 36.5106 33.2904 37.7689C32.1888 38.4813 31.0905 39.1993 29.9955 39.923C29.9243 39.97 29.9448 40.1143 30.0424 40.1034C32.0297 39.8807 33.791 38.7746 35.5181 37.8093C37.4431 36.7334 39.3676 35.6565 41.2915 34.5786L44.5617 32.7475L44.4615 32.5686C42.8449 33.6359 41.2284 34.7032 39.6118 35.7704L34.7858 38.9564L32.0519 40.7613C32.0318 40.7745 32.0168 40.7948 32.0096 40.8185C32.0025 40.8422 32.0036 40.8677 32.0129 40.8906C32.0221 40.9135 32.0389 40.9322 32.0601 40.9434C32.0814 40.9546 32.1058 40.9575 32.1289 40.9517C35.0868 40.4355 37.802 39.0203 40.3677 37.4568C41.0928 37.0149 41.8099 36.5591 42.5264 36.1024L42.426 35.9234C40.2456 37.5202 38.065 39.1169 35.8843 40.7134L34.0415 42.0626C33.9384 42.1381 34.0292 42.3092 34.1418 42.2415C36.2421 40.9765 38.342 39.7108 40.4414 38.4443C41.0389 38.0838 41.6365 37.7234 42.2342 37.3633L42.1183 37.2066L37.3963 41.0378C37.3091 41.1086 37.4253 41.2677 37.5154 41.1988C38.8414 40.1848 40.2921 39.3611 41.8285 38.7499L41.7318 38.5768C40.8217 39.594 39.822 40.5198 38.7458 41.3419C38.645 41.4189 38.733 41.5893 38.8461 41.5208L41.7903 39.7366L41.6544 39.5949L39.7696 42.2691C39.6938 42.3766 39.8661 42.4801 39.9411 42.3737L41.8259 39.6995C41.8872 39.6125 41.7704 39.5091 41.69 39.5578L38.7458 41.3419L38.8461 41.5208C39.9366 40.6891 40.9498 39.7525 41.8723 38.7233C41.9347 38.6535 41.874 38.5111 41.7757 38.5502C40.2225 39.1659 38.7561 39.9973 37.4162 41.0218L37.5353 41.1828L42.2536 37.3477C42.3408 37.2768 42.2293 37.1358 42.1376 37.191C40.0379 38.4569 37.9369 39.7207 35.8349 40.9825L34.0415 42.0626L34.1418 42.2414L40.6836 37.4516C41.2978 37.0018 41.9121 36.5521 42.5264 36.1024C42.6295 36.0269 42.537 35.8527 42.426 35.9234C39.8974 37.5343 37.3302 39.1666 34.4956 40.1276C33.7049 40.3975 32.8961 40.6058 32.0758 40.7508L32.1528 40.9412L37.0023 37.7391L41.8279 34.5526C42.7392 33.9509 43.6505 33.3491 44.5617 32.7475C44.5835 32.7331 44.5991 32.7105 44.6052 32.6844C44.6113 32.6583 44.6075 32.6307 44.5945 32.6075C44.5815 32.5843 44.5603 32.5673 44.5355 32.5601C44.5107 32.5528 44.4841 32.5559 44.4615 32.5686L38.7633 35.7593C37.8136 36.2911 36.8642 36.8233 35.9149 37.3559C35.0148 37.8609 34.1215 38.3844 33.2025 38.8515C32.2048 39.3585 31.153 39.7835 30.0424 39.9098L30.0892 40.0902C32.0288 38.8041 33.9789 37.5353 35.9394 36.284C37.8921 35.0379 39.855 33.8094 41.828 32.5985C42.9453 31.9129 44.0657 31.2329 45.1892 30.5586L45.1095 30.4165C43.2995 31.6846 41.4816 32.9432 39.6201 34.128C37.7719 35.3227 35.8573 36.4017 33.8863 37.3593C32.7691 37.8945 31.6259 38.3684 30.4613 38.7791L30.5375 38.9675C32.459 37.5446 34.395 36.1433 36.3455 34.7635C38.2977 33.3867 40.2663 32.0357 42.2515 30.7106C43.3702 29.9638 44.4962 29.2289 45.6292 28.5057C45.646 28.4947 45.658 28.4773 45.6627 28.4572C45.6674 28.4371 45.6644 28.4159 45.6544 28.398C45.6444 28.3802 45.6281 28.3671 45.609 28.3615C45.59 28.3559 45.5695 28.3583 45.5521 28.3681L39.4476 32.138L33.3432 35.9079C32.3803 36.5025 31.1896 37.2511 30.0434 36.7697L30.0668 36.9559C32.0488 35.6089 34.0316 34.2631 36.0153 32.9187C37.8626 31.6717 39.7166 30.4355 41.5773 29.2104C42.7475 28.4414 43.9213 27.6784 45.0986 26.9213C45.1189 26.908 45.1334 26.8869 45.139 26.8626C45.1447 26.8383 45.1411 26.8127 45.129 26.7911C45.1169 26.7696 45.0972 26.7537 45.0742 26.747C45.0511 26.7402 45.0264 26.743 45.0053 26.7549C43.1007 27.8369 41.1976 28.922 39.3051 30.027C37.5571 31.0476 35.8196 32.0874 34.0926 33.1465C32.9912 33.8222 31.894 34.5052 30.8009 35.1954L30.8997 35.3717L36.7717 31.1841L42.6437 26.9965L45.9395 24.6461C46.0296 24.5819 45.9482 24.4307 45.8529 24.4917C44.0854 25.6215 42.3059 26.7306 40.5145 27.819C38.7238 28.9083 36.9225 29.9785 35.1106 31.0295C34.0845 31.6248 33.0551 32.2138 32.0224 32.7966L32.1392 32.9544C33.7711 31.5226 35.417 30.1072 37.0973 28.7374C38.6864 27.442 40.3081 26.1917 41.9623 24.9868C42.979 24.2455 44.0053 23.5188 45.0411 22.8067C45.0622 22.793 45.0774 22.7712 45.0834 22.7461C45.0893 22.7209 45.0857 22.6943 45.0731 22.6719C45.0606 22.6495 45.0401 22.6331 45.0162 22.6262C44.9922 22.6193 44.9666 22.6224 44.9448 22.6348C43.1142 23.6438 41.2787 24.6429 39.4495 25.6545C37.7284 26.6063 36.0154 27.5743 34.3203 28.5757C33.2684 29.1971 32.223 29.8302 31.184 30.475L31.2832 30.6519C33.0864 29.2086 34.8922 27.7689 36.7006 26.3327C38.5124 24.9015 40.3371 23.4883 42.1748 22.0931C43.2139 21.3082 44.2595 20.5328 45.3117 19.7671C45.3322 19.7535 45.3468 19.7323 45.3525 19.7077C45.3582 19.6832 45.3546 19.6573 45.3424 19.6355C45.3301 19.6137 45.3103 19.5977 45.287 19.5908C45.2636 19.584 45.2387 19.5868 45.2173 19.5988C42.1198 21.2893 39.0212 22.9777 35.9215 24.6639L33.2864 26.0988L33.3853 26.2751C34.9293 25.1743 36.472 24.0713 38.0262 22.9861C39.5489 21.9228 41.084 20.8785 42.6401 19.869C43.5507 19.2783 44.4684 18.6998 45.3931 18.1333C45.4799 18.0802 45.4221 17.9166 45.3221 17.9577C43.6662 18.6388 42.0324 19.3747 40.4207 20.1655C38.8378 20.9456 37.2791 21.7757 35.7444 22.6559C34.8456 23.1693 33.9537 23.6953 33.0685 24.2339C33.0477 24.2476 33.0328 24.2691 33.027 24.294C33.0211 24.3189 33.0248 24.3452 33.0372 24.3673C33.0496 24.3895 33.0698 24.4057 33.0935 24.4126C33.1171 24.4195 33.1425 24.4166 33.1641 24.4044C34.7819 23.4535 36.3867 22.479 37.9783 21.4809C39.5696 20.4828 41.1454 19.458 42.7056 18.4068C43.5893 17.8137 44.4684 17.2133 45.3428 16.6054C45.4224 16.5501 45.374 16.3921 45.2733 16.4335C42.531 17.5586 39.8482 18.8353 37.2364 20.2584C36.4946 20.6627 35.7589 21.0791 35.0295 21.5074L35.1227 21.6737C37.746 20.1191 40.3685 18.5631 42.9903 17.0057L45.2364 15.6687C45.2556 15.6562 45.2699 15.6369 45.2768 15.6144C45.2836 15.5919 45.2826 15.5676 45.2737 15.5458C45.2649 15.524 45.249 15.5062 45.2287 15.4956C45.2085 15.485 45.1853 15.4822 45.1633 15.4878C42.109 16.4909 39.1576 17.8068 36.3521 19.4163C35.555 19.8729 34.7709 20.3531 33.9999 20.8569C33.9795 20.8703 33.9648 20.8915 33.9591 20.9159C33.9534 20.9404 33.957 20.9662 33.9692 20.9879C33.9813 21.0097 34.0011 21.0256 34.0244 21.0324C34.0477 21.0392 34.0725 21.0363 34.0938 21.0244C36.9203 19.3694 39.7924 17.8012 42.6362 16.179C43.4598 15.7092 44.2806 15.234 45.0985 14.7534C45.1868 14.7014 45.1273 14.5387 45.0275 14.5779C42.2745 15.6592 39.5166 16.7382 36.8486 18.0352C36.0745 18.4115 35.3087 18.8057 34.5513 19.2178C34.4604 19.2673 34.5242 19.4349 34.6225 19.3939C37.3231 18.2703 39.9477 16.9576 42.4784 15.4648C43.1964 15.0398 43.9065 14.6008 44.6087 14.1477C44.6288 14.1344 44.6431 14.1134 44.6487 14.0893C44.6543 14.0651 44.6507 14.0397 44.6387 14.0183C44.6266 13.9968 44.6071 13.9811 44.5842 13.9743C44.5613 13.9675 44.5368 13.9703 44.5157 13.9819L36.6028 18.1303C35.8514 18.5243 35.0987 18.9154 34.3446 19.3038L34.4404 19.4332C36.5563 17.672 38.81 16.0986 41.1778 14.7296C41.8436 14.3438 42.5181 13.9747 43.2011 13.6225C43.2856 13.5789 43.2493 13.4163 43.151 13.4296C40.6157 13.7716 38.7252 15.7561 36.5503 16.9599C35.9274 17.3151 35.2616 17.5815 34.5708 17.7521L34.6328 17.9056C35.4074 17.4607 36.244 17.1118 36.8858 16.4574C37.2122 16.1246 37.5062 15.7876 37.8927 15.5268C38.2969 15.254 38.7144 15.0031 39.1393 14.767C39.9805 14.2994 40.8497 13.8897 41.7203 13.4857C41.8274 13.436 41.9345 13.3863 42.0417 13.3367C42.1232 13.299 42.1823 13.2773 42.1838 13.1738C42.1784 13.0932 42.1452 13.0174 42.0904 12.9604C42.0356 12.9033 41.9628 12.8689 41.8855 12.8634C41.6622 12.8366 41.4163 12.9495 41.2088 13.0221C41.0012 13.0948 40.7972 13.1789 40.5967 13.2711C39.6398 13.7113 38.7813 14.3462 37.9325 14.9754C37.877 15.0165 37.9292 15.1127 37.9866 15.0718L37.9865 15.0718Z" fill="black"/>
<path d="M48.7175 26.6683L48.6797 27.0757C48.68 27.1202 48.6971 27.1628 48.7273 27.1943C48.7575 27.2258 48.7984 27.2436 48.8411 27.2439C48.8836 27.243 48.9242 27.225 48.9542 27.1936C48.9843 27.1623 49.0016 27.12 49.0025 27.0757L49.0403 26.6683C49.04 26.6237 49.0229 26.5811 48.9927 26.5496C48.9625 26.5181 48.9216 26.5003 48.8789 26.5C48.8364 26.5009 48.7958 26.519 48.7658 26.5503C48.7357 26.5817 48.7184 26.6239 48.7175 26.6683H48.7175Z" fill="black"/>
<path d="M48.0236 32.6862C47.603 36.1475 46.5667 39.4967 44.9681 42.5619C43.4768 45.4114 41.5618 48.0582 38.7637 49.6017C38.5554 49.7166 38.7383 50.0231 38.9455 49.9259C41.8327 48.5701 43.8162 45.5581 45.2625 42.7414C46.8636 39.6143 47.895 36.205 48.3046 32.6862C48.3265 32.4991 48.0462 32.5018 48.0236 32.6862V32.6862Z" fill="black"/>
<path d="M32.6126 47.7615C32.8431 47.8542 33.084 47.9156 33.3296 47.9442C33.0824 47.875 32.8348 47.8085 32.5859 47.75C32.5949 47.7537 32.6036 47.7578 32.6126 47.7615Z" fill="white"/>
<path d="M32.5615 47.9568C32.8099 48.0522 33.0683 48.116 33.3313 48.147C33.5569 48.1759 33.5952 47.7991 33.3841 47.7401C33.1372 47.6712 32.8897 47.6052 32.6405 47.5459C32.3847 47.4851 32.3036 47.846 32.5348 47.9453L32.5615 47.9568C32.6123 47.971 32.6664 47.9638 32.7122 47.9367C32.7579 47.9097 32.7916 47.8649 32.8059 47.8122C32.8187 47.7592 32.8114 47.7032 32.7855 47.6558C32.7597 47.6083 32.7173 47.5731 32.6672 47.5574L32.6405 47.5459L32.5349 47.9453C32.7841 48.0046 33.0316 48.0707 33.2785 48.1396L33.3313 47.7327C33.104 47.702 32.8811 47.6432 32.6672 47.5574C32.4277 47.4632 32.3242 47.8635 32.5615 47.9568Z" fill="black"/>
<path d="M30.4565 39.9046C29.6616 40.0742 28.8827 40.3174 28.1293 40.6314C25.6505 41.6667 23.4876 43.6668 22.5109 46.2578C22.104 47.3373 22.3703 48.5678 23.3713 49.1825C24.1802 49.6792 25.1962 49.6686 26.1055 49.4251C27.0148 49.1817 27.8571 48.7276 28.7305 48.3687C29.7794 47.9378 30.9072 47.6403 32.0288 47.7586C32.2819 47.7871 32.5331 47.8314 32.781 47.8915C32.9655 47.9349 33.149 47.9842 33.3322 48.0355C33.9843 48.1131 34.6396 47.8376 35.2545 47.5254C37.2702 46.502 39.8123 44.5636 40.9836 42.1388C38.2157 40.1436 33.7561 39.1984 30.4565 39.9046Z" fill="white"/>
<path d="M30.4043 39.7096C28.1401 40.2097 25.9972 41.2544 24.3564 42.9842C23.5907 43.7825 22.9658 44.7151 22.5102 45.7393C22.1224 46.6271 21.9512 47.6102 22.442 48.5001C22.9602 49.4396 24.0219 49.8197 25.0153 49.7991C26.3033 49.7724 27.454 49.134 28.6205 48.6414C29.8862 48.1068 31.2168 47.7718 32.5794 48.0621C33.1543 48.1846 33.6129 48.3192 34.1992 48.1758C34.7656 48.0373 35.3005 47.7497 35.8112 47.4665C37.9578 46.2762 40.0244 44.5321 41.1557 42.248C41.1808 42.2002 41.1875 42.1442 41.1742 42.0915C41.161 42.0388 41.1288 41.9934 41.0844 41.9646C38.0929 39.8401 33.9517 38.977 30.4043 39.7096C30.1537 39.7613 30.2598 40.1607 30.5099 40.109C33.9557 39.3974 37.9823 40.2617 40.8839 42.3223L40.8126 42.0389C39.8723 43.9374 38.2722 45.4153 36.5558 46.538C35.7216 47.0837 34.6672 47.8105 33.6589 47.8438C33.1202 47.8617 32.5697 47.6124 32.0294 47.5562C31.4808 47.5059 30.9282 47.5359 30.3876 47.6453C29.2107 47.8681 28.156 48.4316 27.0532 48.8834C25.9842 49.3213 24.6952 49.6637 23.6089 49.0864C21.342 47.8819 23.1955 44.9217 24.3377 43.6072C25.9637 41.736 28.164 40.6271 30.5099 40.109C30.7599 40.0538 30.6541 39.6544 30.4043 39.7096Z" fill="black"/>
<path d="M26.7972 45.6837C28.3553 44.4429 30.2581 43.798 32.1809 43.5095C33.2521 43.3488 34.4072 43.202 35.4757 43.4456C36.5338 43.6869 37.4007 44.3045 38.3427 44.8201C38.3845 44.8435 38.4334 44.849 38.4791 44.8356C38.5248 44.8222 38.5637 44.7908 38.5876 44.7481C38.6116 44.7054 38.6187 44.6547 38.6075 44.6066C38.5963 44.5585 38.5677 44.5169 38.5276 44.4904C37.6477 43.872 36.6172 43.3102 35.5713 43.0844C34.5114 42.8556 33.3955 42.9869 32.3337 43.1402C30.2751 43.4373 28.2776 44.1016 26.6411 45.4728C26.5284 45.5673 26.6808 45.7765 26.7973 45.6837H26.7972Z" fill="black"/>
<path d="M42.0826 38.9832C42.0922 38.9828 42.1012 38.9786 42.1079 38.9715C42.1146 38.9643 42.1183 38.9547 42.1183 38.9447C42.1183 38.9347 42.1146 38.9251 42.1079 38.9179C42.1012 38.9108 42.0922 38.9066 42.0826 38.9062C42.073 38.9066 42.0639 38.9108 42.0573 38.9179C42.0506 38.9251 42.0469 38.9347 42.0469 38.9447C42.0469 38.9547 42.0506 38.9643 42.0573 38.9715C42.0639 38.9786 42.073 38.9828 42.0826 38.9832Z" fill="black"/>
<path d="M39.3305 38.4034C39.3311 38.4034 39.3317 38.4031 39.3322 38.4026C39.3326 38.4022 39.3328 38.4016 39.3328 38.4009C39.3328 38.4002 39.3326 38.3996 39.3322 38.3992C39.3317 38.3987 39.3311 38.3984 39.3305 38.3984C39.3299 38.3984 39.3293 38.3987 39.3288 38.3992C39.3284 38.3996 39.3281 38.4002 39.3281 38.4009C39.3281 38.4016 39.3284 38.4022 39.3288 38.4026C39.3293 38.4031 39.3299 38.4034 39.3305 38.4034Z" fill="black"/>
<path d="M48.9333 9.7017C49.9923 9.7017 50.8509 8.80659 50.8509 7.70241C50.8509 6.59824 49.9923 5.70312 48.9333 5.70312C47.8742 5.70312 47.0156 6.59824 47.0156 7.70241C47.0156 8.80659 47.8742 9.7017 48.9333 9.7017Z" fill="white"/>
<path d="M50.6059 8.09985C50.3654 9.03683 49.4904 9.68349 48.5512 9.45486C48.1156 9.3531 47.7352 9.07856 47.4904 8.68941C47.2457 8.30025 47.1558 7.82704 47.24 7.37003C47.3241 6.91301 47.5756 6.50808 47.9411 6.24103C48.3066 5.97397 48.7575 5.86576 49.1983 5.93933C50.1861 6.10391 50.7922 7.09596 50.6059 8.09985C50.5575 8.36029 50.9404 8.47182 50.989 8.20996C51.2079 7.03075 50.5665 5.84074 49.4118 5.55827C49.1412 5.49212 48.8608 5.48218 48.5866 5.52902C48.3123 5.57585 48.0496 5.67855 47.8135 5.83124C47.3365 6.13961 46.9965 6.63289 46.8684 7.20258C46.7403 7.77227 46.8344 8.37169 47.1302 8.86898C47.426 9.36627 47.8991 9.72069 48.4456 9.85428C49.5942 10.1351 50.6912 9.37019 50.989 8.20996C51.0551 7.95216 50.672 7.84218 50.6059 8.09985Z" fill="black"/>
<path d="M48.9173 7.72681C48.8723 8.15637 48.5407 8.52633 48.0356 8.43043C47.8269 8.39131 47.6368 8.28053 47.4955 8.11573C47.3953 7.97881 47.3275 7.81915 47.2976 7.64976C47.292 7.52182 47.3178 7.39449 47.3727 7.27991C47.4131 7.16779 47.4721 7.06395 47.547 6.97313C47.6835 6.84319 47.8635 6.77446 48.0482 6.78178C48.2691 6.77621 48.5088 6.81407 48.6648 6.97723C48.7582 7.07436 48.8294 7.19218 48.8732 7.32196C48.9169 7.45173 48.932 7.59011 48.9173 7.72681Z" fill="#161616"/>
<path d="M48.8379 7.70555C48.8324 7.76786 48.8166 7.82873 48.7914 7.88552C48.7577 7.93973 48.7149 7.98721 48.6651 8.02574C48.5897 8.09935 48.5013 8.15712 48.405 8.19591C48.295 8.24138 48.1745 8.25175 48.0588 8.2257C47.9167 8.19768 47.785 8.12824 47.6792 8.02543C47.5882 7.92204 47.5245 7.79575 47.4944 7.65896C47.4671 7.53904 47.5325 7.37779 47.5943 7.25908C47.624 7.19378 47.667 7.13593 47.7201 7.0895C47.7704 7.05535 47.8268 7.03224 47.886 7.0216C48.0165 6.99815 48.1501 7.00124 48.2795 7.0307C48.3467 7.04455 48.4099 7.07454 48.464 7.11828C48.5181 7.16202 48.5616 7.21831 48.5912 7.28268C48.6612 7.41971 48.7005 7.57143 48.7063 7.72653C48.7109 7.95963 49.0586 8.02626 49.1088 7.78331C49.1629 7.55035 49.1343 7.30482 49.0281 7.0922C48.9253 6.87936 48.7511 6.71332 48.5386 6.62562C48.1707 6.47846 47.6214 6.5263 47.3632 6.86514C47.2172 7.05827 47.1243 7.28913 47.0943 7.53306C47.0869 7.75577 47.1501 7.97482 47.2741 8.15634C47.395 8.33796 47.5638 8.47925 47.76 8.56321C47.9562 8.64718 48.1715 8.67023 48.38 8.62961C48.5768 8.58323 48.7483 8.45788 48.8571 8.28069C48.9041 8.20068 48.9336 8.1108 48.9433 8.01751C48.9574 7.92045 48.9788 7.82457 48.9873 7.72653C48.9949 7.63863 48.8508 7.61701 48.8379 7.70555Z" fill="black"/>
<path d="M49.1957 7.9481C49.4279 7.77832 49.3651 7.42126 49.3253 7.17715C49.2509 6.72185 48.7331 6.91548 48.5798 7.21069C48.3914 7.57354 48.7842 8.24892 49.1957 7.9481Z" fill="white"/>
<path d="M37.2926 8.0142C38.3517 8.0142 39.2103 7.11909 39.2103 6.01491C39.2103 4.91074 38.3517 4.01562 37.2926 4.01562C36.2336 4.01562 35.375 4.91074 35.375 6.01491C35.375 7.11909 36.2336 8.0142 37.2926 8.0142Z" fill="white"/>
<path d="M38.9703 6.41168C38.7298 7.34866 37.8548 7.99533 36.9156 7.76669C36.4801 7.66493 36.0996 7.3904 35.8549 7.00124C35.6101 6.61208 35.5203 6.13888 35.6044 5.68186C35.6885 5.22484 35.94 4.81992 36.3055 4.55286C36.6711 4.2858 37.1219 4.1776 37.5627 4.25116C38.5505 4.41574 39.1566 5.40779 38.9703 6.41168C38.9219 6.67212 39.3048 6.78366 39.3534 6.5218C39.5723 5.34258 38.931 4.15257 37.7762 3.8701C37.2301 3.73739 36.6558 3.8361 36.1794 4.14453C35.7031 4.45296 35.3636 4.94591 35.2356 5.5151C35.1076 6.08429 35.2015 6.68318 35.4967 7.18024C35.7919 7.6773 36.2642 8.03189 36.81 8.16612C37.9586 8.44691 39.0556 7.68202 39.3534 6.5218C39.4195 6.26401 39.0364 6.15402 38.9703 6.41168Z" fill="black"/>
<path d="M37.2689 6.0393C37.2239 6.46887 36.8923 6.83884 36.3871 6.74294C36.1784 6.70382 35.9883 6.59303 35.847 6.42822C35.7468 6.29131 35.679 6.13166 35.6492 5.96226C35.6435 5.83432 35.6694 5.70698 35.7243 5.5924C35.7647 5.48028 35.8236 5.37644 35.8985 5.28562C36.035 5.15568 36.2151 5.08695 36.3998 5.09428C36.6207 5.08871 36.8604 5.12657 37.0164 5.28973C37.1098 5.38685 37.181 5.50468 37.2247 5.63445C37.2684 5.76423 37.2835 5.90261 37.2689 6.0393Z" fill="#161616"/>
<path d="M37.1973 6.01805C37.1917 6.08036 37.176 6.14123 37.1508 6.19802C37.117 6.25222 37.0742 6.2997 37.0244 6.33823C36.949 6.41184 36.8607 6.46962 36.7643 6.5084C36.6543 6.55387 36.5338 6.56424 36.4182 6.53819C36.276 6.51017 36.1444 6.44073 36.0386 6.33791C35.9476 6.23452 35.8839 6.10825 35.8538 5.97146C35.8265 5.85153 35.8919 5.69028 35.9536 5.57157C35.9834 5.50627 36.0264 5.44843 36.0795 5.402C36.1298 5.36784 36.1862 5.34474 36.2454 5.3341C36.3759 5.31064 36.5095 5.31373 36.6389 5.3432C36.7061 5.35705 36.7692 5.38704 36.8233 5.43078C36.8775 5.47452 36.921 5.53081 36.9506 5.59517C37.0206 5.7322 37.0599 5.88392 37.0657 6.03902C37.0702 6.27212 37.418 6.33876 37.4681 6.0958C37.5223 5.86284 37.4937 5.61731 37.3875 5.40469C37.2847 5.19185 37.1105 5.02581 36.8979 4.93812C36.5301 4.79096 35.9808 4.8388 35.7226 5.17763C35.5766 5.37076 35.4836 5.60162 35.4537 5.84555C35.4463 6.06826 35.5094 6.28732 35.6334 6.46884C35.7544 6.65046 35.9232 6.79174 36.1194 6.87571C36.3156 6.95967 36.5309 6.98273 36.7394 6.94211C36.9362 6.89573 37.1076 6.77037 37.2165 6.59319C37.2635 6.51317 37.2929 6.42329 37.3026 6.33C37.3168 6.23294 37.3382 6.13707 37.3467 6.03902C37.3542 5.95112 37.2101 5.9295 37.1973 6.01805Z" fill="black"/>
<path d="M37.5551 6.26059C37.7873 6.09083 37.7245 5.73377 37.6846 5.48965C37.6102 5.03435 37.0924 5.22797 36.9391 5.5232C36.7508 5.88603 37.1436 6.56142 37.5551 6.26059Z" fill="white"/>
<path d="M51.3945 3.3684C49.5177 4.06664 47.636 4.75231 45.7651 5.46772C45.5456 5.55163 45.6405 5.92083 45.8625 5.83594C47.7359 5.11959 49.599 4.37332 51.4663 3.63987C51.6268 3.57686 51.5596 3.30699 51.3946 3.3684H51.3945Z" fill="black"/>
<path d="M35.9737 0.231366C37.2327 1.37508 38.3986 2.62322 39.5398 3.89252C39.8647 4.25388 40.1901 4.61468 40.516 4.97492C40.6924 5.1687 40.973 4.87545 40.797 4.68202C39.6486 3.41997 38.4753 2.17665 37.2378 1.0089C36.8857 0.676603 36.5273 0.351819 36.1625 0.0345466C36.032 -0.0786902 35.8431 0.11268 35.9737 0.231336V0.231366Z" fill="black"/>
<path d="M43.6047 16.3984C43.6076 16.3983 43.6104 16.397 43.6124 16.3948C43.6144 16.3927 43.6156 16.3897 43.6156 16.3867C43.6156 16.3836 43.6144 16.3807 43.6124 16.3785C43.6104 16.3764 43.6076 16.3751 43.6047 16.375C43.6017 16.3751 43.599 16.3764 43.5969 16.3785C43.5949 16.3807 43.5938 16.3836 43.5938 16.3867C43.5938 16.3897 43.5949 16.3927 43.5969 16.3948C43.599 16.397 43.6017 16.3983 43.6047 16.3984Z" fill="black"/>
<path d="M57.534 47.1009L57.1993 47.5836C57.1546 47.6479 57.2477 47.7098 57.2989 47.6638C57.5794 47.4119 57.8907 47.2 58.2246 47.0336L58.1418 46.9472C57.9434 47.2924 57.7049 47.6107 57.4317 47.895L57.5394 48.0073C57.857 47.6678 58.2141 47.3712 58.6023 47.1242L58.5207 47.0139C58.2299 47.3999 57.9234 47.774 57.6255 48.1541C57.5605 48.2372 57.6648 48.353 57.7408 48.2743C58.1165 47.8753 58.5347 47.5223 58.9871 47.2221L58.8842 47.1147C58.5535 47.5824 58.1725 48.009 57.7487 48.3862L57.8767 48.5196C58.3481 48.0836 58.8459 47.6798 59.3672 47.3107L59.269 47.1779C58.8828 47.6821 58.463 48.1571 58.0125 48.5995L58.143 48.7355C58.6358 48.1359 59.2501 47.6577 59.9416 47.3354L59.8399 47.198C59.3953 47.7356 58.9163 48.2412 58.4062 48.7115C58.3128 48.7994 58.4471 48.9291 58.5413 48.8523C59.1754 48.3353 59.8069 47.807 60.5133 47.3988L60.4178 47.2992C60.1767 47.6104 59.9102 47.8992 59.6214 48.1625C59.3385 48.4299 59.0372 48.6756 58.7201 48.8975L58.8372 49.0557C59.1433 48.6765 59.4923 48.3374 59.8765 48.0455C60.2607 47.7634 60.6726 47.5248 61.1054 47.3337L61.0179 47.2155C60.5367 47.8515 59.9675 48.4095 59.329 48.8711L59.4487 49.0329C60.0835 48.356 60.8411 47.8175 61.6774 47.4489L61.5991 47.3087C61.0236 48.0133 60.3229 48.596 59.6375 49.1781L59.7778 49.3243C60.1969 48.8628 60.6668 48.4546 61.1779 48.1081C61.2839 48.0363 61.1854 47.8586 61.0784 47.9307C60.5518 48.2847 60.0681 48.7035 59.6375 49.1781C59.5482 49.2767 59.6805 49.4073 59.7778 49.3243C60.4656 48.7375 61.1418 48.1409 61.713 47.4274C61.758 47.3711 61.717 47.2517 61.6347 47.2871C60.7605 47.6447 59.9681 48.1899 59.3091 48.8873C59.2349 48.9682 59.3344 49.1201 59.4287 49.049C60.0761 48.5597 60.6499 47.9725 61.1312 47.3068C61.1697 47.2538 61.106 47.1772 61.0498 47.1962C60.1234 47.5186 59.3071 48.1153 58.7006 48.9134C58.6399 48.9939 58.7211 49.1462 58.8177 49.0715C59.1307 48.8294 59.4303 48.5689 59.715 48.2914C60.0062 48.0074 60.2621 47.6963 60.5275 47.3875C60.5389 47.3749 60.5456 47.3584 60.5464 47.341C60.5472 47.3236 60.5421 47.3065 60.5319 47.2928C60.5217 47.279 60.5072 47.2695 60.4908 47.2659C60.4745 47.2623 60.4575 47.2649 60.4429 47.2732C59.6987 47.6455 59.0458 48.1735 58.4062 48.7116L58.5413 48.8524C59.0405 48.3672 59.4999 47.8478 59.9586 47.3218C60.0093 47.2636 59.9605 47.1397 59.877 47.1756C59.1516 47.4813 58.5108 47.9707 58.0126 48.5995C57.9392 48.6936 58.0577 48.8256 58.143 48.7356C58.5781 48.2767 58.988 47.7936 59.3837 47.2976C59.4388 47.2285 59.3684 47.1095 59.2854 47.1648C58.7406 47.5254 58.2265 47.934 57.7487 48.3862C57.6623 48.4685 57.79 48.5999 57.8767 48.5196C58.3032 48.1245 58.6848 47.6797 59.0141 47.1939C59.058 47.1294 58.9724 47.0456 58.9112 47.0866C58.4447 47.3898 58.0133 47.748 57.6255 48.1542L57.7408 48.2743C58.0327 47.8878 58.3171 47.4938 58.616 47.1133C58.6623 47.0543 58.6048 46.961 58.5344 47.003C58.1266 47.2419 57.755 47.5425 57.4317 47.895C57.3646 47.9694 57.4719 48.0818 57.5394 48.0073C57.8116 47.7051 58.0489 47.3707 58.2463 47.0109C58.2702 46.9678 58.2292 46.896 58.178 46.9182C57.8202 47.0732 57.492 47.2941 57.2092 47.5702L57.3089 47.6504L57.6224 47.1548C57.6593 47.0966 57.572 47.0462 57.534 47.1009L57.534 47.1009Z" fill="black"/>
<path d="M62.047 47.4764C61.458 47.9699 60.8616 48.4535 60.2692 48.9424C60.1675 49.0263 60.3111 49.1746 60.4118 49.0911C61.0954 48.5245 61.7848 47.9689 62.6031 47.6299L62.5127 47.468C62.2089 47.7341 61.884 47.9773 61.57 48.2301C61.2609 48.4789 60.9536 48.7303 60.6395 48.9722L60.7758 49.1564C60.9864 48.9501 61.2084 48.7569 61.4407 48.5779C61.6728 48.4037 61.9221 48.2589 62.1565 48.0895C62.2308 48.0358 62.1875 47.8864 62.0901 47.9254C61.8137 48.0467 61.5528 48.2035 61.3135 48.392C61.0664 48.5719 60.8334 48.7721 60.6167 48.9905C60.5118 49.0984 60.6663 49.2512 60.7758 49.1564C61.0763 48.8963 61.3841 48.6455 61.6899 48.3922C62.0005 48.1348 62.3048 47.864 62.6253 47.6201C62.7041 47.5602 62.6616 47.4062 62.5537 47.4431C61.6906 47.7384 60.9647 48.3547 60.2692 48.9424L60.4118 49.0911C60.9841 48.5813 61.5523 48.0665 62.1282 47.5611C62.1852 47.511 62.1037 47.4288 62.047 47.4764V47.4764Z" fill="black"/>
<path d="M75.5534 77.5722C72.1985 76.6154 69.4078 74.1879 67.0373 71.5343C65.2791 69.5662 63.6757 67.427 61.678 65.7254C60.7941 64.9724 59.7671 64.286 58.6259 64.2612C58.1085 64.25 57.5875 64.3767 57.0768 64.2898C56.402 64.175 55.8875 63.5238 55.798 62.84C55.7667 62.6004 56.3847 60.7661 56.6193 61.1075C56.1561 60.4335 56.5812 59.3209 57.362 59.1635C57.254 58.7005 57.2839 58.2141 57.4479 57.7692C57.6118 57.3244 57.902 56.9423 58.2796 56.6738C57.9128 56.4298 57.9007 55.8342 58.1543 55.4656C58.408 55.097 58.8392 54.9125 59.2586 54.7916C60.4343 54.455 61.6777 54.4753 62.8427 54.8501C62.7024 54.1631 62.6904 53.2239 63.3309 53.0062C63.8953 52.8143 64.4054 53.397 64.7379 53.9098C66.1843 56.1396 67.5808 58.2598 69.0987 60.4386C71.2457 63.5203 74.6064 68.2741 78.751 67.7718C79.1943 67.718 79.6297 67.6079 80.0474 67.444" fill="white"/>
<path d="M68.4563 36.2993C74.0474 34.9957 79.7477 36.7597 84.1405 40.4913C88.4297 44.1348 91.4947 49.4067 92.5615 55.0707C93.1724 58.3885 93.0583 61.8072 92.2275 65.0727C91.4267 68.2644 89.9301 71.0785 87.6369 73.3665C85.4835 75.5152 82.743 77.1663 79.7674 77.6299C76.5358 78.1333 73.4722 76.8993 70.8888 74.928C68.07 72.7771 66.0056 69.8573 63.58 67.2811C62.467 66.0991 61.1785 64.7456 59.6243 64.2349C58.8156 63.9691 58.0599 64.1925 57.2436 64.1082C56.5397 64.0356 55.8495 63.2996 56.0513 62.5394C56.1132 62.3087 56.189 62.0822 56.2782 61.8614C56.3278 61.7321 56.3852 61.6062 56.4499 61.4844C56.4728 61.4529 56.4922 61.4187 56.5078 61.3827C56.5456 61.2214 56.6039 61.3976 56.475 61.258C56.6297 61.4255 56.9089 61.2079 56.787 61.007C56.7013 60.861 56.6493 60.6963 56.6352 60.5257C56.6212 60.3552 56.6454 60.1836 56.7059 60.0245C56.7665 59.8654 56.8617 59.7232 56.9841 59.6092C57.1065 59.4951 57.2526 59.4123 57.411 59.3673C57.4613 59.3518 57.5038 59.3166 57.5297 59.2691C57.5556 59.2216 57.5628 59.1654 57.5498 59.1125C57.4562 58.6934 57.4848 58.2548 57.6321 57.8528C57.7793 57.4509 58.0384 57.104 58.3761 56.8566C58.4686 56.7887 58.5254 56.6208 58.4163 56.5314C57.9369 56.1385 58.2541 55.5216 58.6778 55.256C59.0388 55.0297 59.488 54.9323 59.8984 54.8582C60.8625 54.691 61.8507 54.7585 62.7856 55.0554C62.8197 55.0645 62.8554 55.0642 62.8893 55.0545C62.9232 55.0448 62.9541 55.0261 62.9789 55.0001C63.0038 54.9742 63.0217 54.942 63.031 54.9067C63.0403 54.8714 63.0406 54.8341 63.032 54.7986C62.9558 54.3962 62.8673 53.8095 63.1064 53.4434C63.5711 52.7317 64.2784 53.6036 64.5603 54.0197C65.2583 55.0497 65.9192 56.1085 66.6078 57.1455C67.7742 58.9018 68.949 60.6589 70.2032 62.3489C72.1376 64.9553 74.8321 68.1328 78.2971 68.025C80.1996 67.9658 81.9649 66.8517 83.1443 65.3343C83.7057 64.6259 84.132 63.8121 84.4005 62.9369C84.7338 61.8093 84.724 60.6084 84.6838 59.4412C84.556 55.7316 82.9358 52.2876 80.4415 49.6735C77.6372 46.7344 73.7597 44.8384 69.7479 44.903C69.4806 44.9073 69.4798 45.341 69.7479 45.3366C76.9106 45.2212 83.9263 51.6132 84.2584 59.1874C84.3114 60.3968 84.3451 61.6519 83.9994 62.8216C83.6884 63.8247 83.1603 64.7399 82.4559 65.4962C81.0993 66.9818 79.1431 67.9006 77.1624 67.5008C75.4496 67.1551 73.9886 66.0128 72.7675 64.7665C71.5363 63.51 70.4882 62.0773 69.4752 60.6293C67.9633 58.468 66.5053 56.2668 65.0664 54.0522C64.6621 53.4299 63.9756 52.4137 63.1249 52.8723C62.4374 53.2429 62.5207 54.2506 62.6457 54.9096L62.892 54.6528C61.6033 54.2562 60.1244 54.2039 58.854 54.7143C58.4294 54.8849 58.0073 55.1673 57.8473 55.6346C57.7016 56.0598 57.7891 56.5406 58.1353 56.8242L58.1755 56.4989C57.7645 56.7948 57.4484 57.2129 57.2685 57.6987C57.0886 58.1845 57.053 58.7155 57.1666 59.2226L57.3053 58.9678C56.3886 59.2101 55.9368 60.3809 56.4438 61.216L56.7559 60.965C56.2164 60.381 55.6581 62.3545 55.6126 62.6675C55.5344 63.2049 55.8852 63.7915 56.2687 64.1213C56.9371 64.6958 57.7415 64.4733 58.5357 64.4727C60.4899 64.4712 62.1586 66.3477 63.4216 67.6993C64.752 69.1231 65.9577 70.6666 67.2786 72.0997C69.6473 74.6697 72.5065 77.0604 75.9113 77.8675C78.906 78.5773 82.0268 77.7634 84.6417 76.1814C87.3143 74.5644 89.6092 72.1435 91.0669 69.2974C92.7361 66.0386 93.4208 62.0921 93.2817 58.4216C93.0498 52.3001 90.3445 46.3487 86.2381 42.014C82.1394 37.6876 76.4381 34.9702 70.5374 35.6188C69.8105 35.7 69.0888 35.8261 68.3763 35.9966C68.1873 36.0415 68.2673 36.3434 68.4563 36.2993L68.4563 36.2993Z" fill="black"/>
<path d="M45.9231 20.7944C41.9899 20.1776 38.0358 19.7427 34.0606 19.4899C33.3955 19.4476 32.7302 19.4102 32.0645 19.3776C31.8249 19.3769 31.5863 19.3442 31.3547 19.2801C31.1885 19.2258 31.033 19.1391 30.8652 19.0907C30.28 18.922 29.6476 19.2609 29.2688 19.7555C28.8225 20.3384 28.5724 21.16 28.2544 21.8246C27.8591 22.6506 27.6211 23.6186 27.3938 24.5071C26.9263 26.333 26.6788 28.2126 26.6571 30.1024C26.6489 30.8521 26.6954 31.66 27.1419 32.2478C27.6651 32.9366 28.5709 33.1219 29.3689 33.4042C29.4996 33.4505 29.6285 33.5012 29.7567 33.554C30.3099 33.7817 30.8432 34.0622 31.3771 34.337C35.0066 36.2036 38.7627 37.7897 42.6151 39.0824C45.1774 33.5691 46.1703 26.707 45.9231 20.7944Z" fill="white"/>
<path d="M45.979 20.597C44.3503 20.3419 42.7175 20.1172 41.0806 19.923C39.4538 19.7304 37.8239 19.5687 36.1911 19.4379C35.3716 19.3723 34.5517 19.3144 33.7311 19.2643C33.3273 19.2395 32.9233 19.2166 32.5193 19.1954C32.133 19.1753 31.7178 19.1979 31.3487 19.0608C31.1864 18.9872 31.0195 18.9251 30.8492 18.8751C30.6834 18.8394 30.5129 18.8341 30.3453 18.8596C30.0165 18.9147 29.7078 19.0602 29.4509 19.2812C28.9257 19.7143 28.6507 20.3971 28.3911 21.0202C28.2533 21.3508 28.0994 21.6732 27.9598 22.0027C27.8113 22.3572 27.6821 22.7201 27.5726 23.0897C27.344 23.8494 27.1485 24.6255 26.9835 25.4027C26.6325 27.0185 26.4572 28.6704 26.461 30.327C26.4664 31.0129 26.5421 31.7572 26.95 32.3229C27.3396 32.8635 27.9331 33.137 28.5326 33.3441C28.8375 33.4494 29.1472 33.5398 29.4493 33.6539C29.8212 33.7943 30.1823 33.9622 30.5391 34.1397C31.2523 34.4946 31.9573 34.8669 32.6725 35.2176C34.1008 35.918 35.5475 36.5754 37.0126 37.1899C38.4822 37.8068 39.9679 38.3795 41.4699 38.9078C41.8342 39.0359 42.1994 39.1615 42.5655 39.2843C42.6077 39.2963 42.6525 39.2934 42.693 39.2762C42.7336 39.259 42.7676 39.2284 42.7898 39.1892C43.8089 36.9584 44.5876 34.6167 45.1118 32.2071C45.6505 29.7753 45.9828 27.2989 46.1048 24.8064C46.1721 23.4711 46.1788 22.1345 46.1249 20.7967C46.1139 20.5311 45.7166 20.5297 45.7276 20.7967C45.8246 23.1997 45.7263 25.607 45.4337 27.9927C45.1425 30.442 44.6283 32.8569 43.8981 35.2046C43.4956 36.4954 43.0107 37.7567 42.4468 38.9801L42.6711 38.8849C41.1997 38.3906 39.7423 37.854 38.2988 37.2752C36.8579 36.6969 35.4334 36.0764 34.0254 35.4138C33.3245 35.0838 32.6282 34.7436 31.9363 34.3932C31.2403 34.0406 30.5537 33.6638 29.8338 33.3654C29.2458 33.1216 28.6125 32.9896 28.0415 32.7027C27.7769 32.5779 27.5393 32.3986 27.343 32.1755C27.1433 31.9228 27.0072 31.6223 26.947 31.301C26.7946 30.5999 26.8524 29.8403 26.8898 29.129C26.9322 28.3187 27.0171 27.5114 27.1442 26.7108C27.272 25.9076 27.4473 25.1164 27.6483 24.33C27.8331 23.6075 28.0189 22.8763 28.3115 22.1914C28.4465 21.8754 28.594 21.5658 28.7262 21.2483C28.8553 20.9217 29.002 20.603 29.1655 20.2937C29.4611 19.7586 29.9409 19.2431 30.5791 19.2565C30.9251 19.2638 31.2266 19.4893 31.5668 19.5427C31.9587 19.6041 32.3617 19.6008 32.7569 19.6222C33.5515 19.6651 34.3458 19.7151 35.1396 19.7722C36.7411 19.8874 38.3403 20.0323 39.9372 20.207C41.532 20.3815 43.1235 20.5857 44.7116 20.8196C45.0991 20.8767 45.4863 20.9357 45.8734 20.9964C45.9241 21.0092 45.9776 21.0014 46.023 20.9745C46.0684 20.9477 46.1023 20.9037 46.1177 20.8517C46.1313 20.7988 46.1244 20.7424 46.0985 20.6947C46.0725 20.647 46.0296 20.6119 45.979 20.597Z" fill="black"/>
<path d="M30.8425 19.821C31.3426 21.576 31.4746 23.4226 31.2296 25.2354C30.9898 27.0476 30.3945 28.7889 29.4808 30.3507C28.9656 31.2229 28.3498 32.026 27.647 32.7418C27.5555 32.8354 27.6952 32.9805 27.7875 32.8883C29.0619 31.5936 30.0453 30.0206 30.6669 28.2823C31.2966 26.5502 31.5699 24.6994 31.469 22.85C31.4112 21.8128 31.2247 20.7877 30.9144 19.8004C30.8995 19.7533 30.8286 19.7729 30.8425 19.8211V19.821Z" fill="black"/>
<path d="M30.1428 19.4139C29.2335 20.3577 28.4717 21.4442 27.8851 22.6339C27.8417 22.7227 27.9564 22.832 28.0253 22.7468C28.8012 21.7824 29.6679 20.9017 30.6125 20.1177L30.4835 19.9833C29.3757 21.3024 28.3421 22.6871 27.3878 24.1306C27.3244 24.2263 27.4723 24.3477 27.5438 24.2561C28.0679 23.5848 28.6222 22.9409 29.2066 22.3245C29.7913 21.7087 30.4103 21.1344 31.0365 20.5654L30.9081 20.4315C29.789 21.7072 28.79 23.092 27.9248 24.5669C27.6766 24.992 27.44 25.424 27.2148 25.863C27.2026 25.8867 27.1997 25.9144 27.2066 25.9403C27.2136 25.9661 27.2299 25.9882 27.2522 26.0017C27.2744 26.0153 27.3008 26.0193 27.3259 26.0129C27.3509 26.0066 27.3726 25.9903 27.3864 25.9676C28.3944 24.458 29.5762 23.0587 31.0034 21.9652L30.922 21.8552C29.7484 23.1688 28.6776 24.5784 27.7199 26.0703C27.4442 26.4948 27.1768 26.925 26.9178 27.3609C26.8591 27.4596 27.0043 27.5834 27.0758 27.488C28.0195 26.229 28.9635 24.963 30.0637 23.8458C30.3738 23.5309 30.6957 23.2283 31.0322 22.9442L30.8908 22.7968C29.6869 24.222 28.5612 25.7171 27.5191 27.2747C27.2252 27.7137 26.9381 28.1574 26.6577 28.606C26.5868 28.7194 26.7542 28.8584 26.8398 28.7525C27.9062 27.4288 29.0585 26.183 30.2887 25.0241C30.6366 24.6976 30.9899 24.3776 31.3488 24.064L31.2024 23.9114C30.0566 25.3982 28.9124 26.8851 27.8005 28.4C27.483 28.8326 27.1667 29.2661 26.8516 29.7006L27.0499 29.8215C27.9434 28.4156 29.0038 27.1332 30.2058 26.0047C30.5536 25.6796 30.9128 25.3683 31.2832 25.0708L31.1213 24.974C31.1639 25.4087 30.9143 25.7797 30.6661 26.1033C30.3727 26.4856 30.0736 26.8631 29.7773 27.2429C29.1834 28.0042 28.5894 28.7654 27.9954 29.5265L26.9882 30.8127L27.1802 30.9672C28.1021 29.5404 29.2798 28.3128 30.6485 27.352L30.4921 27.1889C29.6675 28.7338 28.6317 30.1454 27.4173 31.3793L27.5902 31.5596C28.2123 30.7142 28.9838 30.0008 29.863 29.4578L29.6964 29.3243C29.307 30.4517 28.7028 31.4852 27.9202 32.3628C27.824 32.4712 27.9795 32.6341 28.076 32.5252C28.8789 31.6138 29.5036 30.5479 29.9151 29.3872C29.9511 29.2866 29.8288 29.206 29.7485 29.2537C28.8327 29.7964 28.0329 30.5285 27.3982 31.4051C27.3132 31.5232 27.4942 31.6584 27.5902 31.5596C28.8103 30.3021 29.8537 28.8712 30.6895 27.3093C30.7429 27.2099 30.6321 27.0779 30.5331 27.1461C29.1186 28.1139 27.9063 29.3699 26.9691 30.8385C26.8942 30.9575 27.0733 31.1067 27.1611 30.9929C28.3823 29.409 29.6228 27.8398 30.8306 26.2448C31.106 25.8811 31.3825 25.4603 31.3365 24.9739C31.3296 24.9003 31.2465 24.8198 31.1746 24.877C29.8583 25.9242 28.6784 27.1456 27.6649 28.5106C27.3789 28.8964 27.1078 29.293 26.8515 29.7006C26.769 29.8321 26.9637 29.9423 27.0498 29.8215C28.1342 28.2993 29.2441 26.7974 30.3796 25.3159C30.7003 24.8966 31.0213 24.4775 31.3488 24.064C31.3671 24.0435 31.3771 24.0165 31.3766 23.9885C31.3761 23.9605 31.3653 23.9338 31.3463 23.914C31.3273 23.8942 31.3017 23.8829 31.2749 23.8824C31.248 23.8819 31.222 23.8923 31.2024 23.9114C29.9201 25.0077 28.7163 26.2003 27.6008 27.4796C27.2853 27.8402 26.9769 28.2076 26.6758 28.5816L26.858 28.7281C27.836 27.1488 28.898 25.6277 30.0389 24.1719C30.364 23.7574 30.6951 23.3482 31.0322 22.9443C31.0499 22.9245 31.0595 22.8984 31.059 22.8713C31.0585 22.8443 31.048 22.8186 31.0297 22.7994C31.0114 22.7803 30.9867 22.7694 30.9608 22.7689C30.9348 22.7684 30.9098 22.7784 30.8908 22.7968C29.7028 23.8136 28.6935 25.0211 27.7381 26.2707C27.4673 26.6249 27.1991 26.9813 26.9335 27.3398L27.0915 27.4669C27.9925 25.9472 28.9904 24.4924 30.0786 23.1123C30.3857 22.7213 30.7003 22.3368 31.0169 21.9543C31.0291 21.9411 31.0359 21.9234 31.0357 21.905C31.0355 21.8867 31.0285 21.8691 31.016 21.8562C31.0036 21.8432 30.9867 21.8358 30.9692 21.8356C30.9516 21.8355 30.9346 21.8425 30.9219 21.8552C29.531 23.0214 28.2381 24.3307 27.2148 25.863L27.3863 25.9676C28.165 24.4521 29.0797 23.0169 30.1183 21.6814C30.4144 21.3007 30.7204 20.9287 31.0365 20.5653C31.0525 20.5474 31.0613 20.5236 31.0609 20.4991C31.0604 20.4746 31.0509 20.4512 31.0343 20.4338C31.0176 20.4165 30.9952 20.4065 30.9716 20.4061C30.9481 20.4057 30.9253 20.4148 30.9081 20.4315C29.6108 21.5024 28.4463 22.7738 27.4033 24.1097L27.5593 24.2351C28.5067 22.8075 29.5258 21.4331 30.6125 20.1177C30.629 20.0998 30.6382 20.0758 30.638 20.0509C30.6378 20.026 30.6282 20.0021 30.6113 19.9845C30.5944 19.9669 30.5716 19.9569 30.5477 19.9567C30.5238 19.9565 30.5007 19.966 30.4835 19.9833C29.5433 20.7724 28.6778 21.6536 27.899 22.6151L28.0393 22.7279C28.6104 21.5441 29.3425 20.4526 30.2131 19.4871C30.257 19.4387 30.1882 19.3665 30.1428 19.4139V19.4139Z" fill="black"/>
<path d="M42.9574 22.5922C43.3488 24.9397 43.5193 27.6192 42.0562 29.6296C41.7432 30.0535 41.364 30.4195 40.9345 30.7122C40.5373 30.9883 40.1123 31.2473 39.8156 31.6471C39.4761 32.1046 39.4401 32.6655 39.333 33.2119C39.2396 33.7329 38.9743 34.2033 38.583 34.5416C37.5607 35.432 36.1417 35.3414 34.8967 35.2562C34.7837 35.2485 34.7852 35.4297 34.8967 35.439C36.0539 35.5358 37.2997 35.6187 38.3371 34.9733C38.7663 34.7189 39.1137 34.3379 39.3358 33.8783C39.5745 33.3506 39.5507 32.755 39.7379 32.2122C39.9243 31.6721 40.3756 31.3416 40.8135 31.0332C41.2488 30.7462 41.6437 30.3976 41.9871 29.9974C42.6635 29.165 43.0671 28.1156 43.2361 27.0456C43.4712 25.5576 43.2734 24.0454 43.0127 22.5763C43.006 22.5384 42.9511 22.5546 42.9573 22.5922L42.9574 22.5922Z" fill="black"/>
<path d="M44.4424 22.1836C43.8797 22.7773 43.315 23.3688 42.7482 23.958C42.6809 24.028 42.7862 24.1377 42.8524 24.0667C43.4104 23.4682 43.97 22.8714 44.5313 22.2762C44.5881 22.2161 44.4993 22.1234 44.4424 22.1836V22.1836Z" fill="black"/>
<path d="M45.8038 22.1862C44.7283 23.0939 43.7291 24.0956 42.8172 25.1806C42.7508 25.2596 42.8626 25.376 42.928 25.2961C43.8258 24.1984 44.8153 23.186 45.885 22.2709C45.9423 22.2219 45.8606 22.1382 45.8038 22.1862Z" fill="black"/>
<path d="M45.5377 23.5819C45.0526 24.0349 44.5672 24.4876 44.0815 24.94C43.5953 25.3909 43.0986 25.8322 42.6279 26.3007C42.5489 26.3793 42.6653 26.4964 42.7464 26.4242C43.2412 25.9839 43.713 25.514 44.1927 25.0559C44.6727 24.5975 45.154 24.1405 45.6365 23.6849C45.7032 23.6216 45.6045 23.5196 45.5377 23.5819L45.5377 23.5819Z" fill="black"/>
<path d="M45.615 24.4696C44.4841 25.5633 43.3413 26.6437 42.2138 27.7409C42.134 27.8186 42.2538 27.9431 42.3334 27.8657C43.4605 26.7688 44.5724 25.6549 45.6962 24.5543C45.7502 24.5014 45.6691 24.4173 45.615 24.4696Z" fill="black"/>
<path d="M45.2755 26.1509C43.7559 27.6074 42.231 29.0578 40.701 30.5023C40.613 30.5856 40.7446 30.7231 40.8315 30.6384C42.3399 29.1705 43.8512 27.706 45.3655 26.2448C45.4258 26.1867 45.3357 26.0932 45.2755 26.1509Z" fill="black"/>
<path d="M43.8498 28.8296C42.6188 30.001 41.3151 31.0866 39.9471 32.0792C39.8694 32.136 39.9427 32.2701 40.0223 32.2133C41.4041 31.219 42.7118 30.1174 43.9343 28.9177C43.9907 28.8628 43.9063 28.7754 43.8498 28.8296Z" fill="black"/>
<path d="M45.1073 28.4549C43.6809 29.7991 42.1629 31.0339 40.5653 32.1494C40.1139 32.4648 39.6556 32.769 39.195 33.0696C39.0869 33.1402 39.1865 33.3194 39.2953 33.2484C40.9239 32.172 42.4791 30.9794 43.9499 29.6793C44.3721 29.3103 44.7872 28.9327 45.1952 28.5464C45.2545 28.4903 45.1665 28.3991 45.1074 28.4549H45.1073Z" fill="black"/>
<path d="M45.1845 29.5014C43.561 30.8659 41.8625 32.1395 40.1221 33.3368C39.8918 33.4952 39.6631 33.6584 39.4255 33.8046C39.191 33.9685 38.9171 34.0609 38.6349 34.0712C38.6092 34.0722 38.5848 34.0835 38.5669 34.1028C38.5491 34.1221 38.5391 34.1479 38.5391 34.1748C38.5391 34.2016 38.5491 34.2274 38.5669 34.2467C38.5848 34.266 38.6092 34.2774 38.6349 34.2783C39.1334 34.2868 39.5518 33.9703 39.9499 33.6965C40.3997 33.3871 40.8458 33.0721 41.2883 32.7513C42.1602 32.1193 43.015 31.4633 43.8528 30.7834C44.3324 30.3943 44.8085 30.0005 45.2812 29.602C45.3495 29.5443 45.2524 29.4444 45.1846 29.5014H45.1845Z" fill="black"/>
<path d="M44.5107 31.28C42.8786 32.6257 41.1183 33.7931 39.2575 34.7637C38.732 35.0376 38.1878 35.2751 37.6702 35.5645C37.5933 35.6075 37.6458 35.7448 37.7306 35.7138C38.2202 35.5208 38.6968 35.2936 39.1572 35.034C39.6228 34.7862 40.0821 34.5262 40.5352 34.254C41.4475 33.706 42.3359 33.1127 43.1927 32.4745C43.6697 32.1191 44.1368 31.75 44.5941 31.3669C44.6534 31.3173 44.5695 31.2315 44.5107 31.28V31.28Z" fill="black"/>
<path d="M42.8412 33.2299C41.5155 34.1567 40.1274 34.9829 38.6879 35.7019C38.2754 35.9075 37.8575 36.1002 37.4401 36.2944L37.5231 36.4425C37.5929 36.387 37.6626 36.3314 37.7323 36.2758C37.797 36.2244 37.7414 36.1134 37.6665 36.1585C37.591 36.2038 37.5156 36.2491 37.4401 36.2944C37.3457 36.3512 37.4285 36.4844 37.5231 36.4425C38.9879 35.7814 40.4023 35.0048 41.7538 34.1193C42.1422 33.8683 42.5256 33.609 42.9039 33.3416C42.9697 33.2952 42.908 33.1833 42.8413 33.2299H42.8412Z" fill="black"/>
<path d="M44.3518 33.0656C42.9288 34.3298 41.3881 35.4426 39.7528 36.3873C39.2911 36.6553 38.8127 36.891 38.3514 37.1589C38.2454 37.2205 38.3386 37.3703 38.4438 37.3238C38.8734 37.1228 39.2926 36.8983 39.6996 36.6513C40.111 36.4132 40.5164 36.1644 40.916 35.9049C41.7083 35.3894 42.4744 34.8313 43.2111 34.2328C43.6335 33.8901 44.0471 33.5357 44.4518 33.1698C44.5207 33.1076 44.4205 33.0044 44.3519 33.0656L44.3518 33.0656Z" fill="black"/>
<path d="M43.0876 34.9017C42.4179 35.3362 41.7399 35.7563 41.0536 36.162C40.7171 36.3608 40.3781 36.5547 40.0365 36.7439C39.6828 36.9409 39.3137 37.1169 38.9678 37.328L39.1058 37.4386C39.1169 37.3671 39.1511 37.3018 39.2027 37.2534C39.2544 37.205 39.3204 37.1765 39.3897 37.1726C39.4062 37.1719 39.4218 37.1647 39.4332 37.1523C39.4447 37.1399 39.451 37.1234 39.451 37.1062C39.451 37.0891 39.4447 37.0725 39.4332 37.0602C39.4218 37.0478 39.4062 37.0405 39.3897 37.0399C39.2855 37.0318 39.182 37.0621 39.097 37.1254C39.012 37.1888 38.951 37.2811 38.9246 37.3865C38.9202 37.4052 38.9211 37.4248 38.9273 37.443C38.9334 37.4611 38.9444 37.477 38.959 37.4887C38.9737 37.5004 38.9912 37.5075 39.0096 37.509C39.028 37.5105 39.0464 37.5064 39.0626 37.4971C39.4193 37.3275 39.7614 37.1106 40.1038 36.9119C40.4484 36.7119 40.7911 36.5087 41.1321 36.3021C41.8151 35.8905 42.4896 35.4642 43.1557 35.0232C43.2288 34.9749 43.1617 34.8536 43.0876 34.9017Z" fill="black"/>
<path d="M42.6682 36.0004C42.3528 36.279 42.0229 36.5393 41.6799 36.78C41.5164 36.8945 41.3504 37.0061 41.1802 37.1096C41.0897 37.1646 40.9985 37.2183 40.9064 37.2705C40.8631 37.2952 40.8199 37.3201 40.776 37.3435C40.758 37.35 40.7407 37.3583 40.7244 37.3684C40.7024 37.3713 40.7028 37.3853 40.7255 37.4104C40.7557 37.4612 40.7365 37.4696 40.6681 37.4355C40.6756 37.4482 40.6869 37.458 40.7002 37.4635C40.7135 37.4689 40.7281 37.4698 40.7419 37.4659C40.7557 37.462 40.768 37.4535 40.7768 37.4418C40.7856 37.4301 40.7906 37.4157 40.791 37.4008C40.7757 37.1916 40.4477 37.3967 40.6366 37.5338C40.7404 37.609 40.8606 37.5186 40.9499 37.4627C41.0768 37.3833 41.2016 37.3005 41.326 37.2168C41.8288 36.8795 42.3061 36.5027 42.7538 36.0896C42.8125 36.0352 42.7271 35.9484 42.6682 36.0003V36.0004Z" fill="black"/>
<path d="M42.576 37.1443L42.066 37.5863C42.0537 37.5993 42.0469 37.6168 42.0469 37.6349C42.0469 37.6531 42.0537 37.6706 42.066 37.6836C42.0785 37.6961 42.0952 37.7031 42.1126 37.7031C42.13 37.7031 42.1467 37.6961 42.1593 37.6836L42.6682 37.2404C42.6803 37.2276 42.687 37.2103 42.687 37.1923C42.687 37.1744 42.6803 37.1571 42.6682 37.1443C42.6558 37.1319 42.6393 37.125 42.6221 37.125C42.6049 37.125 42.5884 37.1319 42.576 37.1443H42.576Z" fill="black"/>
<path d="M40.515 23.1815L40.8551 23.0946C40.8638 23.0921 40.872 23.0878 40.8791 23.082C40.8863 23.0762 40.8923 23.0689 40.8968 23.0607C40.9012 23.0525 40.9041 23.0434 40.9052 23.034C40.9064 23.0246 40.9057 23.0151 40.9033 23.006C40.9009 22.9969 40.8968 22.9884 40.8912 22.9809C40.8856 22.9734 40.8787 22.9672 40.8708 22.9625C40.8629 22.9578 40.8542 22.9548 40.8452 22.9537C40.8362 22.9525 40.8271 22.9532 40.8183 22.9557L40.4791 23.0458C40.4619 23.0509 40.4474 23.0629 40.4386 23.0791C40.4298 23.0952 40.4274 23.1144 40.432 23.1324C40.437 23.1502 40.4485 23.1652 40.464 23.1744C40.4795 23.1836 40.4978 23.1861 40.515 23.1815V23.1815Z" fill="black"/>
<path d="M40.8355 24.6849L41.0053 24.6857C41.0219 24.6855 41.0376 24.6785 41.0493 24.6663C41.0609 24.654 41.0674 24.6375 41.0674 24.6202C41.0674 24.603 41.0609 24.5864 41.0493 24.5742C41.0376 24.5619 41.0219 24.5549 41.0053 24.5547L40.8355 24.5555C40.8274 24.5555 40.8193 24.5572 40.8118 24.5604C40.8042 24.5637 40.7974 24.5684 40.7916 24.5744C40.7859 24.5805 40.7813 24.5876 40.7782 24.5954C40.775 24.6033 40.7734 24.6117 40.7734 24.6202C40.7734 24.6287 40.775 24.6371 40.7782 24.645C40.7813 24.6528 40.7859 24.6599 40.7916 24.666C40.7974 24.672 40.8042 24.6767 40.8118 24.68C40.8193 24.6832 40.8274 24.6849 40.8355 24.6849V24.6849Z" fill="black"/>
<path d="M31.941 20.3897C32.0909 20.9009 32.1729 21.4311 32.1846 21.9655C32.1853 21.9848 32.1931 22.0031 32.2064 22.0165C32.2197 22.0299 32.2375 22.0374 32.256 22.0374C32.2745 22.0374 32.2923 22.0299 32.3056 22.0165C32.3189 22.0031 32.3267 21.9848 32.3274 21.9655C32.3338 21.4163 32.2465 20.8702 32.0697 20.3527C32.0418 20.2689 31.915 20.3034 31.941 20.3897Z" fill="black"/>
<path d="M33.1272 20.8846L33.0416 21.2385C33.0365 21.2583 33.0391 21.2794 33.0489 21.2972C33.0587 21.315 33.0748 21.328 33.0938 21.3335C33.1127 21.3389 33.133 21.3363 33.1501 21.3263C33.1673 21.3162 33.1799 21.2995 33.1853 21.2798L33.2694 20.9254C33.272 20.9157 33.2727 20.9055 33.2715 20.8955C33.2703 20.8855 33.2672 20.8758 33.2625 20.867C33.2577 20.8583 33.2513 20.8506 33.2436 20.8444C33.236 20.8381 33.2273 20.8336 33.2179 20.8309C33.2086 20.8282 33.1988 20.8275 33.1892 20.8287C33.1796 20.83 33.1703 20.8332 33.1619 20.8382C33.1535 20.8431 33.1461 20.8498 33.1402 20.8578C33.1342 20.8657 33.1298 20.8748 33.1272 20.8846V20.8846Z" fill="black"/>
<path d="M30.3522 32.2876L31.3771 30.9661C31.4377 30.8879 31.3306 30.7762 31.2707 30.8551L30.2578 32.1892C30.2052 32.2585 30.2979 32.3576 30.3522 32.2876Z" fill="black"/>
<path d="M32.4177 32.5005L32.4193 32.412C32.4188 32.392 32.4109 32.373 32.3974 32.3588C32.3838 32.3447 32.3655 32.3365 32.3464 32.3359C32.327 32.336 32.3085 32.344 32.2948 32.3582C32.2813 32.3726 32.2736 32.3918 32.2734 32.412L32.275 32.5005C32.2753 32.5202 32.2828 32.539 32.2959 32.5531C32.3097 32.5664 32.3276 32.5741 32.3464 32.5749C32.3653 32.5748 32.3834 32.567 32.3968 32.5531C32.4099 32.5389 32.4173 32.5201 32.4177 32.5005L32.4177 32.5005Z" fill="black"/>
<path d="M38.4781 41.5285C38.5483 42.1285 38.4551 42.7369 38.2092 43.2843C37.9634 43.8316 37.5748 44.2958 37.0879 44.6238C36.8174 44.8027 36.523 44.9473 36.2824 45.1717C36.0916 45.3656 35.9314 45.5899 35.8078 45.8361C35.665 46.0936 35.5306 46.3642 35.3286 46.5782C35.09 46.8096 34.788 46.9576 34.4648 47.0015C34.0523 47.0699 33.6367 47.1166 33.2197 47.1414C32.7881 47.1771 32.3559 47.2043 31.923 47.223C31.9101 47.2235 31.8979 47.2292 31.889 47.2388C31.88 47.2485 31.875 47.2614 31.875 47.2748C31.875 47.2883 31.88 47.3012 31.889 47.3108C31.8979 47.3205 31.9101 47.3261 31.923 47.3266C32.7183 47.3164 33.5124 47.2605 34.3018 47.1591C34.6142 47.1166 34.935 47.0472 35.2019 46.8633C35.4299 46.691 35.6183 46.468 35.7534 46.2104C35.9087 45.9433 36.0416 45.6566 36.2394 45.4194C36.4735 45.1386 36.7939 44.9917 37.0987 44.8133C37.611 44.5092 38.0237 44.0514 38.2832 43.4995C38.5801 42.8876 38.6784 42.1917 38.5634 41.5165C38.5545 41.4669 38.4718 41.4777 38.4781 41.5285V41.5285Z" fill="black"/>
<path d="M32.9475 46.4361C34.49 45.9494 35.8509 44.9784 36.8447 43.6557C36.858 43.6376 36.8282 43.6135 36.8142 43.6312C35.8062 44.9238 34.4568 45.88 32.933 46.3815C32.8997 46.3922 32.9139 46.4469 32.9475 46.4361V46.4361Z" fill="black"/>
<path d="M36.7138 41.7193C36.8763 42.1668 36.874 42.6612 36.7073 43.1071C36.6799 43.1824 36.7948 43.2138 36.8225 43.1402C36.9927 42.673 36.9843 42.1556 36.7991 41.6948C36.778 41.6408 36.6928 41.6637 36.7137 41.7193H36.7138Z" fill="black"/>
<path d="M23.8559 46.5837C24.6558 44.6657 25.79 42.765 27.6395 41.7961C28.1368 41.5341 28.672 41.359 29.2237 41.2776C29.2931 41.2676 29.2774 41.1396 29.207 41.1489C27.1444 41.4227 25.5708 43.0449 24.5774 44.8502C24.281 45.3966 24.0164 45.961 23.7849 46.5404C23.7645 46.5904 23.8348 46.6344 23.8559 46.5837H23.8559Z" fill="black"/>
<path d="M30.3715 40.9979C30.4771 41.0134 30.5847 41.002 30.6852 40.9647C30.7857 40.9275 30.876 40.8654 30.9485 40.7838C30.9552 40.7769 30.9606 40.7687 30.9642 40.7596C30.9679 40.7506 30.9698 40.7409 30.9699 40.731C30.9699 40.7212 30.9681 40.7115 30.9645 40.7024C30.9609 40.6933 30.9556 40.685 30.9489 40.6781C30.9423 40.6711 30.9344 40.6656 30.9256 40.6619C30.9169 40.6581 30.9076 40.6562 30.8981 40.6563C30.8887 40.6563 30.8794 40.6583 30.8707 40.6621C30.862 40.6659 30.8541 40.6715 30.8475 40.6785C30.8194 40.7101 30.7876 40.7378 30.7529 40.7612C30.7341 40.7738 30.7146 40.7854 30.6946 40.7958C30.6779 40.8049 30.6607 40.8126 30.6429 40.8189C30.623 40.8263 30.6029 40.8326 30.5824 40.8379C30.5709 40.8409 30.5593 40.8435 30.5476 40.8458C30.5425 40.8468 30.5373 40.8477 30.5321 40.8486C30.5192 40.8509 30.5411 40.8476 30.5281 40.8493C30.4823 40.8542 30.4362 40.8555 30.3902 40.8533C30.3732 40.8535 30.3569 40.86 30.3442 40.8718C30.3315 40.8835 30.3232 40.8996 30.321 40.9171C30.3187 40.9346 30.3225 40.9525 30.3318 40.9673C30.3411 40.9821 30.3551 40.993 30.3714 40.9979L30.3715 40.9979Z" fill="black"/>
<path d="M48.3596 40.2034C48.4725 41.3628 49.1816 42.3542 50.086 42.9995C50.6015 43.3746 51.1879 43.6306 51.8059 43.7505C52.5055 43.8756 53.1729 43.7342 53.8456 43.5332C54.6627 43.2891 55.4803 43.0433 56.2907 42.7761C56.3007 42.7728 56.309 42.7656 56.314 42.7561C56.319 42.7465 56.3203 42.7353 56.3175 42.7247C56.3147 42.7142 56.3081 42.7052 56.2991 42.6997C56.2901 42.6941 56.2794 42.6924 56.2692 42.695C55.5684 42.8905 54.8733 43.1071 54.1766 43.3181C53.5241 43.5157 52.8639 43.7225 52.1762 43.6611C51.0233 43.5583 49.8717 42.8836 49.1584 41.9384C48.773 41.4399 48.5292 40.8389 48.4543 40.2034C48.4478 40.1411 48.3535 40.14 48.3597 40.2034H48.3596Z" fill="black"/>
<path d="M58.7501 42.5284L59.2593 42.6177C59.2877 42.6227 59.2998 42.5774 59.2713 42.5725L58.7616 42.4847C58.7343 42.48 58.7225 42.5236 58.7501 42.5284Z" fill="black"/>
<path d="M61.7258 43.879C62.5381 43.9575 63.258 44.3794 63.9949 44.7078C64.3578 44.8745 64.737 44.9997 65.1258 45.0809C65.5464 45.1643 65.974 45.2038 66.4 45.2438C66.4587 45.2494 66.4582 45.154 66.4 45.1484C65.9513 45.1142 65.5051 45.0518 65.0636 44.9616C64.6655 44.8674 64.2766 44.7349 63.9019 44.5657C63.1961 44.2561 62.5013 43.8804 61.7258 43.8126C61.6849 43.8091 61.6854 43.8751 61.7258 43.879H61.7258Z" fill="black"/>
<path d="M67.6822 45.0949L69.052 44.4079C69.0905 44.3886 69.0567 44.3275 69.0183 44.3478L67.6649 45.0642C67.6452 45.0746 67.6625 45.1048 67.6822 45.0949Z" fill="black"/>
<path d="M69.0279 43.866C69.0375 43.8656 69.0466 43.8614 69.0532 43.8543C69.0599 43.8471 69.0636 43.8375 69.0636 43.8275C69.0636 43.8175 69.0599 43.8079 69.0532 43.8008C69.0466 43.7936 69.0375 43.7894 69.0279 43.7891C69.0183 43.7894 69.0092 43.7936 69.0026 43.8008C68.9959 43.8079 68.9922 43.8175 68.9922 43.8275C68.9922 43.8375 68.9959 43.8471 69.0026 43.8543C69.0092 43.8614 69.0183 43.8656 69.0279 43.866Z" fill="black"/>
<path d="M50.0409 15.4259C50.7622 17.4955 51.1518 19.6749 51.1942 21.8765C51.2062 22.4954 51.1919 23.114 51.1511 23.7323C51.1453 23.8195 51.2761 23.8194 51.2815 23.7323C51.4155 21.5334 51.2006 19.3266 50.6452 17.2007C50.4872 16.5956 50.3037 15.9988 50.0948 15.4104C50.0824 15.3756 50.0285 15.3905 50.0409 15.4259H50.0409Z" fill="black"/>
<path d="M52.157 21.7819L52.1562 22.136C52.1563 22.1531 52.1628 22.1696 52.1744 22.1817C52.1861 22.1939 52.2018 22.2007 52.2183 22.2007C52.2348 22.2007 52.2506 22.1939 52.2622 22.1817C52.2738 22.1696 52.2804 22.1531 52.2804 22.136L52.2796 21.7819C52.2794 21.7651 52.2728 21.749 52.2614 21.7372C52.2499 21.7254 52.2344 21.7187 52.2183 21.7188C52.2022 21.7187 52.1867 21.7254 52.1752 21.7372C52.1637 21.749 52.1572 21.7651 52.157 21.7819H52.157Z" fill="black"/>
<path d="M64.0479 51.9469C64.1397 51.5052 64.235 51.0642 64.326 50.6223L64.4575 49.9838C64.489 49.7779 64.5334 49.5744 64.5903 49.3745C64.67 49.1423 64.8887 49.1177 65.0944 49.0893C65.2974 49.0613 65.5008 49.0377 65.7048 49.0184C66.1282 48.9781 66.5528 48.9564 66.9786 48.9532C67.3192 48.9507 67.7154 48.9225 68.0231 49.1034C68.345 49.2925 68.4015 49.6729 68.3547 50.0244C68.3036 50.4081 68.1648 50.7802 68.0541 51.148C67.9265 51.5725 67.7982 51.9966 67.6692 52.4206C67.3742 53.3879 67.0649 54.352 66.7884 55.3252C66.7559 55.4398 66.9236 55.4864 66.959 55.3743C67.2514 54.4503 67.5133 53.5151 67.7878 52.5852C67.9252 52.12 68.0635 51.6552 68.2029 51.1908C68.3199 50.8002 68.4657 50.406 68.5113 49.9972C68.549 49.6591 68.4941 49.2928 68.2312 49.0627C67.9692 48.8334 67.6086 48.8027 67.2803 48.7982C66.8255 48.7918 66.37 48.8094 65.9167 48.8468C65.689 48.8657 65.4618 48.8898 65.235 48.9192C65.0562 48.9425 64.8547 48.949 64.6912 49.0354C64.5204 49.1257 64.4607 49.3022 64.4257 49.4867C64.3745 49.7562 64.327 50.0265 64.2778 50.2964C64.1785 50.8402 64.0833 51.3848 63.985 51.9289C63.9774 51.9714 64.0389 51.99 64.0479 51.947L64.0479 51.9469Z" fill="black"/>
<path d="M58.6929 56.6958C59.295 56.4713 59.9334 56.3714 60.5723 56.402C60.6889 56.4073 60.6893 56.216 60.5723 56.2127C59.918 56.1948 59.2672 56.3162 58.6595 56.5694C58.5858 56.6 58.6157 56.7247 58.6929 56.6958H58.6929Z" fill="black"/>
<path d="M57.8749 59.3309C58.2314 59.2417 58.5935 59.1794 58.9586 59.1446C58.9847 59.1439 59.0096 59.1328 59.0281 59.1135C59.0465 59.0942 59.0572 59.0683 59.0579 59.041C59.0577 59.0136 59.0472 58.9874 59.0286 58.968C59.01 58.9487 58.9848 58.9377 58.9586 58.9375C58.5765 58.9744 58.1988 59.0508 57.8312 59.1655C57.8108 59.1722 57.7937 59.1868 57.7835 59.2063C57.7733 59.2259 57.7707 59.2488 57.7764 59.2703C57.7821 59.2917 57.7955 59.3101 57.8139 59.3214C57.8323 59.3327 57.8542 59.3361 57.8749 59.3309Z" fill="black"/>
<path d="M57.2941 61.5753C57.5713 61.5479 57.8485 61.5199 58.1257 61.4915C58.1463 61.491 58.1659 61.4822 58.1805 61.467C58.1951 61.4518 58.2035 61.4313 58.2041 61.4098C58.2039 61.3882 58.1956 61.3675 58.181 61.3522C58.1663 61.3369 58.1464 61.3283 58.1257 61.3281C57.8485 61.3633 57.5712 61.3987 57.2941 61.4345C57.2763 61.4351 57.2595 61.4427 57.2469 61.4557C57.2344 61.4688 57.2271 61.4864 57.2266 61.5049C57.2267 61.5235 57.2338 61.5413 57.2465 61.5545C57.2591 61.5677 57.2762 61.5751 57.2941 61.5753Z" fill="black"/>
<path d="M47.0558 42.4933C47.2441 43.1415 47.5663 43.7388 47.9998 44.2433C48.4334 44.7477 48.9676 45.1469 49.5651 45.4129C49.9047 45.5622 50.2635 45.6582 50.63 45.698C50.6869 45.7045 50.7007 45.6025 50.6436 45.5932C50.0196 45.4921 49.4234 45.2531 48.8952 44.8922C48.367 44.5313 47.9189 44.0568 47.5809 43.5006C47.3903 43.1789 47.242 42.832 47.1397 42.4692C47.1363 42.458 47.1289 42.4486 47.119 42.443C47.1091 42.4374 47.0975 42.436 47.0866 42.4391C47.0758 42.4423 47.0665 42.4496 47.0608 42.4597C47.055 42.4699 47.0533 42.4819 47.0559 42.4933L47.0558 42.4933Z" fill="black"/>
<path d="M52.0843 46.0608C52.1006 46.0602 52.116 46.053 52.1274 46.0408C52.1387 46.0286 52.1451 46.0122 52.1451 45.9952C52.1451 45.9782 52.1387 45.9619 52.1274 45.9496C52.116 45.9374 52.1006 45.9302 52.0843 45.9297C52.0679 45.9302 52.0525 45.9374 52.0411 45.9496C52.0298 45.9619 52.0234 45.9782 52.0234 45.9952C52.0234 46.0122 52.0298 46.0286 52.0411 46.0408C52.0525 46.053 52.0679 46.0602 52.0843 46.0608Z" fill="black"/>
<path d="M24.6776 50.7221C22.5732 52.0863 20.132 53.0648 17.6358 52.426C15.5194 51.8843 13.6826 50.3866 12.4621 48.5297C9.86007 44.5706 10.027 39.2218 10.9101 34.7186C11.3749 32.3482 12.0547 29.9799 13.0132 27.7738C13.5536 26.5298 14.1789 25.3288 14.8007 24.1278C15.0823 23.5841 15.3637 23.0403 15.6369 22.4918C15.9398 21.8836 16.2799 21.2522 16.3791 20.565C16.4333 20.1894 16.4507 19.6855 16.1606 19.3997C15.8779 19.1212 15.4151 19.1531 15.07 19.246C14.1863 19.4838 13.5336 20.3095 13.0171 21.0432C12.8778 21.2411 12.7096 21.6121 12.4542 21.6657C12.1961 21.7199 11.8023 21.3934 11.5781 21.289C11.0601 21.0492 10.5189 20.8676 9.96388 20.7475C8.80024 20.5094 7.6089 20.4549 6.42973 20.5858C5.60277 20.667 4.67304 20.8259 4.13075 21.5522C3.8601 21.9333 3.68635 22.3796 3.62567 22.8495C3.537 23.4507 3.67983 23.8974 3.77542 24.4733C3.88427 25.1291 3.43067 25.8625 3.21548 26.4645C2.96018 27.1787 2.71861 27.898 2.49079 28.6224C2.08186 29.9197 1.71251 31.2295 1.38275 32.552C0.153087 37.4393 -0.512445 42.5514 0.481175 47.5534C1.97363 55.0664 7.12448 61.8003 14.522 63.4806C21.9588 65.1698 30.2875 61.5423 34.7078 55.1544C35.2872 54.3156 35.7947 53.4252 36.2242 52.4936C36.3291 52.2666 36.0039 52.067 35.8986 52.2951C32.5772 59.489 24.4272 64.1156 16.8348 63.4363C13.1476 63.1025 9.66833 61.5128 6.93382 58.9126C4.23126 56.3418 2.33281 52.9385 1.30863 49.2916C0.00139853 44.6371 0.220214 39.7019 1.21923 35.0053C1.77523 32.3906 2.48731 29.8147 3.3513 27.2926C3.55702 26.6926 3.77394 26.0971 3.99736 25.504C4.08971 25.2588 4.20366 25.0108 4.21025 24.742C4.2174 24.4506 4.09776 24.1827 4.04112 23.9029C3.91668 23.282 4.00285 22.6353 4.28491 22.0733C4.57575 21.5131 5.07317 21.2596 5.6491 21.1247C6.74977 20.8669 7.97803 20.8791 9.09278 21.02C9.67719 21.0915 10.2529 21.2263 10.8105 21.4223C11.106 21.5266 11.3943 21.6523 11.6731 21.7983C11.8753 21.905 12.0737 22.0555 12.3038 22.0843C12.6189 22.1238 12.8636 21.9336 13.0566 21.6943C13.3675 21.3086 13.6226 20.8824 13.9552 20.5129C14.3078 20.1211 14.7257 19.748 15.2426 19.6328C15.3767 19.603 15.703 19.5533 15.8226 19.6618C15.9536 19.7804 16.0028 20.1602 16.0014 20.3292C15.9978 20.7737 15.789 21.2278 15.6101 21.6209C14.5458 23.9587 13.1948 26.1377 12.2607 28.5433C11.4448 30.6584 10.8312 32.8523 10.4287 35.0932C9.66049 39.335 9.55606 44.1904 11.6923 48.0477C12.6685 49.8102 14.1392 51.3228 15.9049 52.2104C17.726 53.1333 19.8218 53.274 21.7413 52.6019C22.84 52.2285 23.8675 51.6564 24.8444 51.0197C25.0244 50.9024 24.859 50.6045 24.6776 50.7221L24.6776 50.7221Z" fill="black"/>
<path d="M11.8382 26.2387C11.7123 25.2037 11.3366 23.7399 10.1014 23.6446C8.6114 23.5296 8.99688 25.9426 9.1531 26.8428L9.4082 26.5768C8.0777 26.2808 7.13834 27.3572 6.41628 28.3635C6.28086 28.5522 6.5909 28.8046 6.73193 28.6174C7.35898 27.7855 8.14697 26.7402 9.2979 26.9938C9.33314 27.0029 9.37006 27.0024 9.40506 26.9923C9.44006 26.9822 9.47195 26.9628 9.49763 26.936C9.52331 26.9093 9.54191 26.876 9.55161 26.8395C9.56132 26.803 9.5618 26.7645 9.55301 26.7278C9.46081 26.2156 9.41992 25.6948 9.431 25.1738C9.43753 24.912 9.41878 24.5622 9.55299 24.3305C9.77617 23.9453 10.1963 24.0474 10.4944 24.2244C11.1793 24.6307 11.4081 25.5266 11.512 26.2847C11.5382 26.4757 11.8617 26.4325 11.8382 26.2387L11.8382 26.2387Z" fill="black"/>
<path d="M4.57778 24.8477C4.61722 24.9972 4.69486 25.1327 4.80242 25.2398C4.90997 25.3469 5.0434 25.4216 5.18847 25.4558C5.64982 25.5733 5.93011 25.2718 6.33206 25.1357C6.50515 25.077 6.45037 25.0929 6.58799 25.1636C6.66286 25.202 6.76216 25.3045 6.83692 25.3484C6.9832 25.4321 7.14163 25.4903 7.30593 25.5206C7.67614 25.5925 8.05877 25.5173 8.3784 25.3097C8.59727 25.1723 8.40017 24.8185 8.17787 24.952C8.03645 25.0416 7.87833 25.0988 7.71405 25.1196C7.54977 25.1405 7.38311 25.1247 7.22518 25.0731C6.97077 24.9888 6.85049 24.7561 6.62423 24.6559C6.43216 24.5708 6.30033 24.6779 6.13278 24.7802C5.79877 24.9841 5.07402 25.4075 4.85763 24.7673C4.79628 24.5857 4.52188 24.6597 4.57778 24.8477V24.8477Z" fill="black"/>
<path d="M6.70686 22.1804C6.37334 22.7062 6.21506 23.3318 6.25647 23.9607C6.26616 24.0932 6.46679 24.093 6.45512 23.9607C6.39816 23.3643 6.52631 22.7646 6.82072 22.2498C6.86533 22.174 6.75272 22.1064 6.70681 22.1804H6.70686Z" fill="black"/>
<path d="M8.57317 22.9302L8.4019 23.5449C8.39854 23.5576 8.39761 23.5709 8.39917 23.584C8.40073 23.597 8.40475 23.6097 8.41099 23.6211C8.42359 23.6443 8.4445 23.6612 8.4691 23.6683C8.49371 23.6754 8.52001 23.672 8.54221 23.6588C8.5644 23.6457 8.58069 23.6239 8.58747 23.5982L8.73929 22.9779C8.74447 22.9553 8.74101 22.9314 8.72964 22.9113C8.71828 22.8913 8.69988 22.8766 8.67834 22.8704C8.6568 22.8642 8.6338 22.867 8.61418 22.8781C8.59456 22.8893 8.57985 22.9079 8.57317 22.9302V22.9302Z" fill="black"/>
<path d="M25.6321 5.65326C26.4544 6.46857 27.23 7.33348 27.955 8.24355C28.0352 8.34422 28.1747 8.19911 28.0933 8.09938C27.358 7.19882 26.5709 6.34564 25.7364 5.54457C25.6668 5.47772 25.5631 5.5848 25.6321 5.65326Z" fill="black"/>
<path d="M21.1916 12.6764C21.8256 12.9487 22.4583 13.224 23.0898 13.5024C23.1939 13.5481 23.2421 13.3685 23.1368 13.3245C22.5012 13.059 21.8664 12.7914 21.2324 12.5219C21.1409 12.4828 21.1014 12.6376 21.1916 12.6764V12.6764Z" fill="black"/>
<path d="M20.1095 21.1855L21.4544 20.7317C21.5635 20.6949 21.5157 20.5134 21.407 20.5523L20.0686 21.031C19.9759 21.0642 20.0147 21.2175 20.1095 21.1855Z" fill="black"/>
<path d="M93.4809 49.4488C94.0501 50.9476 94.5148 52.4873 94.8716 54.0558C94.9731 54.5004 95.0659 54.9471 95.1502 55.3957C95.1696 55.4987 95.3214 55.4553 95.3013 55.3522C94.9903 53.7732 94.5747 52.2185 94.0575 50.6993C93.9115 50.2684 93.7573 49.8406 93.5947 49.4161C93.567 49.3435 93.4529 49.3751 93.481 49.4488L93.4809 49.4488Z" fill="black"/>
<path d="M8.98605 63.8263C10.3645 64.5302 11.8522 64.9724 13.3794 65.1323C13.4883 65.1437 13.4885 64.9645 13.3794 64.9543C11.8769 64.813 10.4109 64.3916 9.05107 63.7104C8.97683 63.6732 8.91143 63.7883 8.9861 63.8264L8.98605 63.8263Z" fill="black"/>
<path d="M27.0768 53.288C26.919 54.8794 26.341 56.394 25.4071 57.6635C24.4427 58.9615 23.1408 59.943 21.6564 60.4912C20.8243 60.7965 19.953 60.9698 19.0715 61.0055C19.0565 61.0061 19.0423 61.0128 19.0319 61.0241C19.0214 61.0354 19.0156 61.0504 19.0156 61.0661C19.0156 61.0818 19.0214 61.0969 19.0319 61.1082C19.0423 61.1195 19.0565 61.1261 19.0715 61.1268C20.6823 61.1082 22.2513 60.5901 23.5788 59.6387C24.5831 58.9163 25.4235 57.9734 26.0409 56.8763C26.6583 55.7791 27.0379 54.5543 27.1528 53.2879C27.1574 53.2371 27.0816 53.2377 27.0768 53.2879V53.288Z" fill="black"/>
<path d="M27.7321 50.6125C27.7576 53.4887 27.4119 56.3553 26.7046 59.1355C26.6064 59.5215 26.5015 59.9056 26.3897 60.2878C26.3316 60.4864 26.2716 60.6845 26.2098 60.882C26.1813 60.9732 26.1525 61.0642 26.1233 61.1552C26.1135 61.1998 26.0963 61.2423 26.0722 61.2806C26.0603 61.2963 26.0011 61.3293 26.003 61.3479C26.0026 61.3338 25.9969 61.3205 25.9872 61.3108C25.9775 61.301 25.9645 61.2956 25.9511 61.2956C25.9376 61.2956 25.9246 61.301 25.9149 61.3108C25.9052 61.3205 25.8995 61.3338 25.8991 61.3479C25.8973 61.3641 25.8993 61.3805 25.9048 61.3958C25.9104 61.4111 25.9194 61.4247 25.931 61.4357C25.9426 61.4466 25.9566 61.4545 25.9718 61.4587C25.9869 61.4628 26.0028 61.4632 26.0181 61.4597C26.0644 61.4521 26.1079 61.4318 26.1442 61.4008C26.1805 61.3699 26.2083 61.3294 26.2246 61.2836C26.2895 61.1041 26.3454 60.9212 26.392 60.7357C26.4482 60.5448 26.5028 60.3534 26.5557 60.1615C26.7652 59.4014 26.9479 58.6339 27.1038 57.8592C27.4102 56.3384 27.614 54.7971 27.7138 53.2467C27.7699 52.37 27.7936 51.4919 27.7849 50.6125C27.7846 50.6054 27.7817 50.5986 27.7768 50.5937C27.7719 50.5887 27.7653 50.5859 27.7585 50.5859C27.7516 50.5859 27.745 50.5887 27.7401 50.5937C27.7352 50.5986 27.7323 50.6054 27.7321 50.6125H27.7321Z" fill="black"/>
<path d="M28.3667 49.5915C28.3627 52.7415 28.0438 55.8826 27.4153 58.9637C27.2372 59.8383 27.0304 60.7061 26.815 61.5714C26.8095 61.5953 26.8132 61.6205 26.8251 61.6416C26.8371 61.6627 26.8565 61.6782 26.8792 61.6847C26.9019 61.6913 26.9262 61.6883 26.9468 61.6766C26.9675 61.6648 26.983 61.6452 26.9901 61.6217C27.808 58.586 28.2465 55.4193 28.391 52.2725C28.432 51.3796 28.4482 50.4859 28.4396 49.5915C28.4393 49.5816 28.4354 49.5723 28.4286 49.5654C28.4217 49.5585 28.4126 49.5547 28.4032 49.5547C28.3937 49.5547 28.3846 49.5585 28.3778 49.5654C28.371 49.5723 28.367 49.5816 28.3667 49.5915H28.3667Z" fill="black"/>
<path d="M28.8233 51.2381C28.4447 53.8283 28.0634 56.4181 27.6795 59.0074C27.5709 59.7378 27.4569 60.4675 27.3604 61.1998C27.345 61.3159 27.5139 61.3684 27.5325 61.2492C27.7335 59.9552 27.8986 58.6545 28.0783 57.3571C28.2581 56.0593 28.4397 54.7618 28.6231 53.4646L28.9325 51.2695C28.943 51.1953 28.8343 51.1629 28.8233 51.2381Z" fill="black"/>
<path d="M29.8199 49.9678C29.3111 52.6847 28.7937 55.3998 28.2677 58.1131C28.1185 58.8862 27.959 59.6575 27.8295 60.4345C27.813 60.5334 27.9552 60.5776 27.9761 60.4766C28.2577 59.1155 28.48 57.7392 28.7279 56.3709C28.9728 55.0182 29.2137 53.6646 29.4653 52.3132L29.8977 49.9902C29.9075 49.9373 29.8298 49.9146 29.8199 49.9678V49.9678Z" fill="black"/>
<path d="M30.0788 49.5867C29.7251 52.3258 29.2584 55.0483 28.7253 57.7553C28.5752 58.5176 28.4177 59.2783 28.2528 60.0374C28.2247 60.1672 28.4162 60.2226 28.4444 60.0925C29.0324 57.3777 29.515 54.6413 29.892 51.8834C29.9954 51.1237 30.0927 50.363 30.184 49.6015C30.1914 49.5397 30.0869 49.5244 30.0788 49.5867Z" fill="black"/>
<path d="M30.6867 49.8343C30.3221 52.4899 29.8831 55.135 29.3983 57.7695C29.332 58.1297 29.2646 58.4897 29.196 58.8494C29.1617 59.0292 29.127 59.209 29.0921 59.3888C29.0473 59.5749 29.0165 59.7644 29.0001 59.9555C28.9959 60.0589 29.1321 60.065 29.1632 59.9785C29.2731 59.6725 29.3057 59.3221 29.3653 59.0015C29.4262 58.6741 29.4861 58.3464 29.5451 58.0186C29.6645 57.3546 29.7793 56.6898 29.8895 56.0241C30.1077 54.7004 30.3133 53.3741 30.4947 52.0444C30.5945 51.3128 30.6915 50.5808 30.7857 49.8483C30.7932 49.7902 30.6947 49.7757 30.6866 49.8343H30.6867Z" fill="black"/>
<path d="M31.1757 50.6147C30.8641 53.0532 30.5325 55.4887 30.2135 57.9261C30.1255 58.5986 30.0287 59.2696 29.9766 59.9462C29.977 59.963 29.9832 59.979 29.9939 59.9915C30.0047 60.004 30.0193 60.012 30.0352 60.0143C30.0512 60.0165 30.0674 60.0128 30.0809 60.0038C30.0944 59.9947 30.1045 59.981 30.1092 59.965C30.3223 58.764 30.4355 57.5401 30.5811 56.3284C30.727 55.114 30.8738 53.8998 31.0213 52.6856C31.1058 51.995 31.1942 51.305 31.2812 50.6147C31.2901 50.5447 31.1846 50.5455 31.1757 50.6147H31.1757Z" fill="black"/>
<path d="M31.3875 50.9978C31.379 53.0469 31.1923 55.0911 30.8298 57.1051C30.7792 57.3867 30.7252 57.6675 30.6678 57.9477C30.595 58.2243 30.5416 58.5061 30.508 58.7908C30.5017 58.8967 30.6384 58.8965 30.6711 58.8138C30.7532 58.5658 30.8126 58.3102 30.8486 58.0505C30.8969 57.8016 30.9424 57.5521 30.9851 57.302C31.0708 56.8022 31.1459 56.3005 31.2104 55.797C31.3406 54.783 31.4277 53.7644 31.4715 52.7412C31.4962 52.1603 31.508 51.5792 31.507 50.9977C31.5065 50.9816 31.5 50.9663 31.4888 50.955C31.4777 50.9438 31.4628 50.9375 31.4473 50.9375C31.4318 50.9375 31.4169 50.9438 31.4057 50.955C31.3946 50.9663 31.388 50.9816 31.3875 50.9977V50.9978Z" fill="black"/>
<path d="M32.2713 51.8939C32.1446 52.937 32.0168 53.9801 31.8879 55.0229L31.6946 56.5749C31.6293 57.0995 31.5511 57.6242 31.5157 58.152C31.5119 58.2095 31.6033 58.2234 31.6133 58.1657C31.7029 57.6479 31.7507 57.1223 31.8106 56.6L31.9886 55.048C32.1092 53.9963 32.2319 52.945 32.3567 51.8939C32.3633 51.8371 32.2781 51.8378 32.2713 51.8939H32.2713Z" fill="black"/>
<path d="M32.4916 51.7686C32.4057 53.4303 32.2394 55.0864 31.9933 56.7305C31.977 56.8429 32.1425 56.8906 32.1579 56.7778C32.3856 55.1194 32.5159 53.4417 32.5909 51.7686C32.5939 51.702 32.4947 51.7022 32.4916 51.7686Z" fill="black"/>
<path d="M33.3741 52.9044C33.2494 53.8406 33.123 54.7767 33.0005 55.7132C32.9926 55.7733 33.0808 55.7993 33.0888 55.7386C33.2118 54.7978 33.331 53.8565 33.4518 52.9154C33.4576 52.8697 33.3802 52.8584 33.3741 52.9044Z" fill="black"/>
<path d="M33.8293 53.1765L33.7037 54.3263C33.6934 54.4201 33.8352 54.4198 33.8449 54.3263L33.9643 53.1765C33.9737 53.0864 33.839 53.0876 33.8293 53.1765Z" fill="black"/>
<path d="M25.3712 58.1549C25.2282 59.5711 24.9821 60.974 24.6351 62.3513C24.63 62.3736 24.6335 62.397 24.6446 62.4166C24.6558 62.4363 24.6738 62.4507 24.695 62.4568C24.7161 62.4628 24.7387 62.4601 24.7579 62.4492C24.7772 62.4383 24.7916 62.42 24.7982 62.3982C25.1289 61.0033 25.3614 59.5851 25.4938 58.1549C25.5014 58.0728 25.3794 58.074 25.3712 58.1549V58.1549Z" fill="black"/>
<path d="M24.5275 58.9138C24.4839 59.4854 24.4017 60.0531 24.2816 60.6127C24.1626 61.1634 23.9973 61.6967 23.8322 62.2335C23.8028 62.3292 23.9411 62.3651 23.9744 62.2744C24.364 61.2125 24.5515 60.0435 24.6362 58.9138C24.6416 58.841 24.5331 58.8415 24.5275 58.9138H24.5275Z" fill="black"/>
<path d="M23.0464 59.5558C22.9771 60.3992 22.7333 61.2168 22.3318 61.9525C22.2785 62.0507 22.4255 62.1397 22.4765 62.0407C22.8707 61.2714 23.108 60.4254 23.1736 59.5558C23.1802 59.4706 23.0532 59.4713 23.0464 59.5558Z" fill="black"/>
<path d="M21.5895 60.3059C21.5009 60.794 21.3358 61.2634 21.1007 61.6954C21.0936 61.7093 21.0918 61.7255 21.0959 61.7406C21.1 61.7558 21.1096 61.7687 21.1226 61.7766C21.1356 61.7846 21.1511 61.7869 21.1658 61.7832C21.1804 61.7795 21.1932 61.77 21.2012 61.7567C21.4387 61.3143 21.6048 60.8342 21.6927 60.3356C21.7051 60.2655 21.6024 60.2352 21.5895 60.3059Z" fill="black"/>
<path d="M20.2289 61.0719C20.167 61.4877 20.0062 61.8808 19.7612 62.2152C19.7164 62.2783 19.8172 62.3599 19.866 62.2995C20.1374 61.9537 20.3078 61.5338 20.357 61.0899C20.3662 61.0147 20.2394 60.9961 20.229 61.0719H20.2289Z" fill="black"/>
<path d="M19.1511 61.6814L18.5334 62.1863C18.522 62.1983 18.5156 62.2146 18.5156 62.2315C18.5156 62.2484 18.522 62.2646 18.5334 62.2767C18.5451 62.2883 18.5606 62.2948 18.5768 62.2948C18.5929 62.2948 18.6085 62.2883 18.6201 62.2767L19.2345 61.7684C19.2455 61.7568 19.2517 61.7412 19.2517 61.7249C19.2517 61.7086 19.2455 61.693 19.2345 61.6814C19.2233 61.6703 19.2084 61.6641 19.1928 61.6641C19.1773 61.6641 19.1624 61.6703 19.1511 61.6814H19.1511Z" fill="black"/>
<path d="M17.6656 60.9653L17.6641 61.0931C17.6642 61.1091 17.6703 61.1245 17.6811 61.136C17.6892 61.1445 17.6996 61.1502 17.7109 61.1526C17.7222 61.1549 17.7339 61.1537 17.7445 61.1491C17.7552 61.1445 17.7643 61.1368 17.7707 61.1268C17.7771 61.1168 17.7805 61.1051 17.7805 61.0931L17.7789 60.9653C17.7787 60.9497 17.7728 60.9347 17.7623 60.9235C17.7544 60.9153 17.7443 60.9097 17.7333 60.9074C17.7223 60.9051 17.7109 60.9063 17.7006 60.9108C17.6902 60.9152 17.6814 60.9228 17.6752 60.9325C17.6689 60.9422 17.6656 60.9536 17.6656 60.9653Z" fill="black"/>
<path d="M16.7406 61.7487C16.7443 61.7486 16.7479 61.7469 16.7505 61.7441C16.7531 61.7414 16.7546 61.7376 16.7546 61.7337C16.7546 61.7298 16.7531 61.7261 16.7505 61.7233C16.7479 61.7205 16.7443 61.7189 16.7406 61.7188C16.7368 61.7189 16.7333 61.7205 16.7306 61.7233C16.728 61.7261 16.7266 61.7298 16.7266 61.7337C16.7266 61.7376 16.728 61.7414 16.7306 61.7441C16.7333 61.7469 16.7368 61.7486 16.7406 61.7487Z" fill="black"/>
</svg>
