<svg width="129" height="128" viewBox="0 0 129 128" fill="none" xmlns="http://www.w3.org/2000/svg">
<path d="M0.992188 81.9376L0.992188 87.0547L6.1093 87.0547L6.1093 81.9376L0.992188 81.9376Z" fill="#2A212D"/>
<path d="M0.992188 76.8282L0.992188 81.9453L6.1093 81.9453L6.1093 76.8282L0.992188 76.8282Z" fill="#2A212D"/>
<path d="M0.992188 56.3829L0.992188 61.5L6.1093 61.5L6.1093 56.3829L0.992188 56.3829Z" fill="#2A212D"/>
<path d="M6.09375 71.711L6.09375 76.8281L11.2109 76.8281L11.2109 71.711L6.09375 71.711Z" fill="#2A212D"/>
<path d="M6.09375 66.6016L6.09375 71.7188L11.2109 71.7188L11.2109 66.6016L6.09375 66.6016Z" fill="#2A212D"/>
<path d="M6.09375 61.4845L6.09375 66.6016L11.2109 66.6016L11.2109 61.4845L6.09375 61.4845Z" fill="#2A212D"/>
<path d="M6.09375 51.2423L6.09375 56.3594L11.2109 56.3594L11.2109 51.2423L6.09375 51.2423Z" fill="#2A212D"/>
<path d="M11.1953 81.9454L11.1953 87.0625L16.3124 87.0625L16.3124 81.9454L11.1953 81.9454Z" fill="#2A212D"/>
<path d="M11.1953 76.8282L11.1953 81.9453L16.3124 81.9453L16.3124 76.8282L11.1953 76.8282Z" fill="#2A212D"/>
<path d="M11.1953 56.3829L11.1953 61.5L16.3124 61.5L16.3124 56.3829L11.1953 56.3829Z" fill="#2A212D"/>
<path d="M11.1953 51.2423L11.1953 56.3594L16.3124 56.3594L16.3124 51.2423L11.1953 51.2423Z" fill="#2A212D"/>
<path d="M16.3516 76.8282L16.3516 81.9453L21.4687 81.9453L21.4687 76.8282L16.3516 76.8282Z" fill="#2A212D"/>
<path d="M16.3516 71.711L16.3516 76.8281L21.4687 76.8281L21.4687 71.711L16.3516 71.711Z" fill="#2A212D"/>
<path d="M16.3516 66.5938L16.3516 71.7109L21.4687 71.7109L21.4687 66.5938L16.3516 66.5938Z" fill="#2A212D"/>
<path d="M16.3516 56.3829L16.3516 61.5L21.4687 61.5L21.4687 56.3829L16.3516 56.3829Z" fill="#2A212D"/>
<path d="M16.3516 46.1329L16.3516 51.25L21.4687 51.25L21.4687 46.1329L16.3516 46.1329Z" fill="#2A212D"/>
<path d="M21.4766 66.5938L21.4766 71.7109L26.5937 71.7109L26.5937 66.5938L21.4766 66.5938Z" fill="#2A212D"/>
<path d="M21.4766 51.2423L21.4766 56.3594L26.5937 56.3594L26.5937 51.2423L21.4766 51.2423Z" fill="#2A212D"/>
<path d="M21.4766 41.0079L21.4766 46.125L26.5937 46.125L26.5937 41.0079L21.4766 41.0079Z" fill="#2A212D"/>
<path d="M26.5938 81.9376L26.5938 87.0547L31.7109 87.0547L31.7109 81.9376L26.5938 81.9376Z" fill="#2A212D"/>
<path d="M26.5938 66.5938L26.5938 71.7109L31.7109 71.7109L31.7109 66.5938L26.5938 66.5938Z" fill="#2A212D"/>
<path d="M26.5938 51.2423L26.5938 56.3594L31.7109 56.3594L31.7109 51.2423L26.5938 51.2423Z" fill="#2A212D"/>
<path d="M26.5938 41.0079L26.5938 46.125L31.7109 46.125L31.7109 41.0079L26.5938 41.0079Z" fill="#2A212D"/>
<path d="M31.7109 81.9454L31.7109 87.0625L36.828 87.0625L36.828 81.9454L31.7109 81.9454Z" fill="#2A212D"/>
<path d="M31.7109 71.711L31.7109 76.8281L36.828 76.8281L36.828 71.711L31.7109 71.711Z" fill="#2A212D"/>
<path d="M31.7109 61.4845L31.7109 66.6016L36.828 66.6016L36.828 61.4845L31.7109 61.4845Z" fill="#2A212D"/>
<path d="M31.7109 51.2345L31.7109 56.3516L36.828 56.3516L36.828 51.2345L31.7109 51.2345Z" fill="#2A212D"/>
<path d="M31.7109 41.0079L31.7109 46.125L36.828 46.125L36.828 41.0079L31.7109 41.0079Z" fill="#2A212D"/>
<path d="M36.7969 71.7345L36.7969 76.8516L41.914 76.8516L41.914 71.7345L36.7969 71.7345Z" fill="#2A212D"/>
<path d="M36.7969 61.4845L36.7969 66.6016L41.914 66.6016L41.914 61.4845L36.7969 61.4845Z" fill="#2A212D"/>
<path d="M36.7969 51.2345L36.7969 56.3516L41.914 56.3516L41.914 51.2345L36.7969 51.2345Z" fill="#2A212D"/>
<path d="M36.7969 46.1251L36.7969 51.2422L41.914 51.2422L41.914 46.1251L36.7969 46.1251Z" fill="#2A212D"/>
<path d="M36.7969 41.0079L36.7969 46.125L41.914 46.125L41.914 41.0079L36.7969 41.0079Z" fill="#2A212D"/>
<path d="M41.9531 112.649L41.9531 117.766L47.0702 117.766L47.0702 112.649L41.9531 112.649Z" fill="#2A212D"/>
<path d="M41.9531 92.1798L41.9531 97.2969L47.0702 97.2969L47.0702 92.1798L41.9531 92.1798Z" fill="#2A212D"/>
<path d="M41.9531 87.0782L41.9531 92.1953L47.0702 92.1953L47.0702 87.0782L41.9531 87.0782Z" fill="#2A212D"/>
<path d="M41.9531 76.8282L41.9531 81.9453L47.0702 81.9453L47.0702 76.8282L41.9531 76.8282Z" fill="#2A212D"/>
<path d="M41.9531 61.4845L41.9531 66.6016L47.0702 66.6016L47.0702 61.4845L41.9531 61.4845Z" fill="#2A212D"/>
<path d="M41.9531 46.1251L41.9531 51.2422L47.0702 51.2422L47.0702 46.1251L41.9531 46.1251Z" fill="#2A212D"/>
<path d="M41.9531 25.6563L41.9531 30.7734L47.0702 30.7734L47.0702 25.6563L41.9531 25.6563Z" fill="#2A212D"/>
<path d="M41.9531 10.3126L41.9531 15.4297L47.0702 15.4297L47.0702 10.3126L41.9531 10.3126Z" fill="#2A212D"/>
<path d="M41.9531 0.05477L41.9531 5.17188L47.0702 5.17188L47.0702 0.0547707L41.9531 0.05477Z" fill="#2A212D"/>
<path d="M47.0781 117.758L47.0781 122.875L52.1952 122.875L52.1952 117.758L47.0781 117.758Z" fill="#2A212D"/>
<path d="M47.0781 112.656L47.0781 117.773L52.1952 117.773L52.1952 112.656L47.0781 112.656Z" fill="#2A212D"/>
<path d="M47.0781 107.524L47.0781 112.641L52.1952 112.641L52.1952 107.524L47.0781 107.524Z" fill="#2A212D"/>
<path d="M47.0781 102.414L47.0781 107.531L52.1952 107.531L52.1952 102.414L47.0781 102.414Z" fill="#2A212D"/>
<path d="M47.0781 81.9376L47.0781 87.0547L52.1952 87.0547L52.1952 81.9376L47.0781 81.9376Z" fill="#2A212D"/>
<path d="M47.0781 76.8282L47.0781 81.9453L52.1952 81.9453L52.1952 76.8282L47.0781 76.8282Z" fill="#2A212D"/>
<path d="M47.0781 71.711L47.0781 76.8281L52.1952 76.8281L52.1952 71.711L47.0781 71.711Z" fill="#2A212D"/>
<path d="M47.0781 61.4766L47.0781 66.5938L52.1952 66.5938L52.1952 61.4766L47.0781 61.4766Z" fill="#2A212D"/>
<path d="M47.0781 51.2345L47.0781 56.3516L52.1952 56.3516L52.1952 51.2345L47.0781 51.2345Z" fill="#2A212D"/>
<path d="M47.0781 41.0079L47.0781 46.125L52.1952 46.125L52.1952 41.0079L47.0781 41.0079Z" fill="#2A212D"/>
<path d="M47.0781 35.8985L47.0781 41.0156L52.1952 41.0156L52.1952 35.8985L47.0781 35.8985Z" fill="#2A212D"/>
<path d="M47.0781 30.7735L47.0781 35.8906L52.1952 35.8906L52.1952 30.7735L47.0781 30.7735Z" fill="#2A212D"/>
<path d="M47.0781 25.6563L47.0781 30.7734L52.1952 30.7734L52.1952 25.6563L47.0781 25.6563Z" fill="#2A212D"/>
<path d="M47.0781 15.422L47.0781 20.5391L52.1952 20.5391L52.1952 15.422L47.0781 15.422Z" fill="#2A212D"/>
<path d="M47.0781 5.18758L47.0781 10.3047L52.1952 10.3047L52.1952 5.18758L47.0781 5.18758Z" fill="#2A212D"/>
<path d="M47.0781 0.05477L47.0781 5.17188L52.1952 5.17188L52.1952 0.0547707L47.0781 0.05477Z" fill="#2A212D"/>
<path d="M52.1719 97.2813L52.1719 102.398L57.289 102.398L57.289 97.2813L52.1719 97.2813Z" fill="#2A212D"/>
<path d="M52.1719 92.1798L52.1719 97.2969L57.289 97.2969L57.289 92.1798L52.1719 92.1798Z" fill="#2A212D"/>
<path d="M52.1719 76.8282L52.1719 81.9453L57.289 81.9453L57.289 76.8282L52.1719 76.8282Z" fill="#2A212D"/>
<path d="M52.1719 51.2345L52.1719 56.3516L57.289 56.3516L57.289 51.2345L52.1719 51.2345Z" fill="#2A212D"/>
<path d="M52.1719 46.1251L52.1719 51.2422L57.289 51.2422L57.289 46.1251L52.1719 46.1251Z" fill="#2A212D"/>
<path d="M52.1719 30.7735L52.1719 35.8906L57.289 35.8906L57.289 30.7735L52.1719 30.7735Z" fill="#2A212D"/>
<path d="M52.1719 15.422L52.1719 20.5391L57.289 20.5391L57.289 15.422L52.1719 15.422Z" fill="#2A212D"/>
<path d="M52.1719 10.3126L52.1719 15.4297L57.289 15.4297L57.289 10.3126L52.1719 10.3126Z" fill="#2A212D"/>
<path d="M52.1719 0.05477L52.1719 5.17188L57.289 5.17188L57.289 0.0547707L52.1719 0.05477Z" fill="#2A212D"/>
<path d="M57.2969 107.524L57.2969 112.641L62.414 112.641L62.414 107.524L57.2969 107.524Z" fill="#2A212D"/>
<path d="M57.2969 97.2813L57.2969 102.398L62.414 102.398L62.414 97.2813L57.2969 97.2813Z" fill="#2A212D"/>
<path d="M57.2969 76.8282L57.2969 81.9453L62.414 81.9453L62.414 76.8282L57.2969 76.8282Z" fill="#2A212D"/>
<path d="M57.2969 71.711L57.2969 76.8281L62.414 76.8281L62.414 71.711L57.2969 71.711Z" fill="#2A212D"/>
<path d="M57.2969 61.4766L57.2969 66.5938L62.414 66.5938L62.414 61.4766L57.2969 61.4766Z" fill="#2A212D"/>
<path d="M57.2969 51.2345L57.2969 56.3516L62.414 56.3516L62.414 51.2345L57.2969 51.2345Z" fill="#2A212D"/>
<path d="M57.2969 46.1251L57.2969 51.2422L62.414 51.2422L62.414 46.1251L57.2969 46.1251Z" fill="#2A212D"/>
<path d="M57.2969 41.0079L57.2969 46.125L62.414 46.125L62.414 41.0079L57.2969 41.0079Z" fill="#2A212D"/>
<path d="M57.2969 30.7735L57.2969 35.8906L62.414 35.8906L62.414 30.7735L57.2969 30.7735Z" fill="#2A212D"/>
<path d="M57.2969 25.6563L57.2969 30.7734L62.414 30.7734L62.414 25.6563L57.2969 25.6563Z" fill="#2A212D"/>
<path d="M57.2969 20.547L57.2969 25.6641L62.414 25.6641L62.414 20.547L57.2969 20.547Z" fill="#2A212D"/>
<path d="M57.2969 15.422L57.2969 20.5391L62.414 20.5391L62.414 15.422L57.2969 15.422Z" fill="#2A212D"/>
<path d="M62.3984 118.008L62.3984 123.125L67.5155 123.125L67.5155 118.008L62.3984 118.008Z" fill="#2A212D"/>
<path d="M62.3984 112.875L62.3984 117.992L67.5155 117.992L67.5155 112.875L62.3984 112.875Z" fill="#2A212D"/>
<path d="M62.3984 102.414L62.3984 107.531L67.5155 107.531L67.5155 102.414L62.3984 102.414Z" fill="#2A212D"/>
<path d="M62.3984 97.2813L62.3984 102.398L67.5155 102.398L67.5155 97.2813L62.3984 97.2813Z" fill="#2A212D"/>
<path d="M62.3984 92.1876L62.3984 97.3047L67.5155 97.3047L67.5155 92.1876L62.3984 92.1876Z" fill="#2A212D"/>
<path d="M62.3984 66.6016L62.3984 71.7188L67.5155 71.7188L67.5155 66.6016L62.3984 66.6016Z" fill="#2A212D"/>
<path d="M62.3984 41.0079L62.3984 46.125L67.5155 46.125L67.5155 41.0079L62.3984 41.0079Z" fill="#2A212D"/>
<path d="M62.3984 25.6563L62.3984 30.7734L67.5155 30.7734L67.5155 25.6563L62.3984 25.6563Z" fill="#2A212D"/>
<path d="M62.3984 0.05477L62.3984 5.17188L67.5155 5.17188L67.5155 0.0547707L62.3984 0.05477Z" fill="#2A212D"/>
<path d="M67.5156 107.524L67.5156 112.641L72.6327 112.641L72.6327 107.524L67.5156 107.524Z" fill="#2A212D"/>
<path d="M67.5156 76.8282L67.5156 81.9453L72.6327 81.9453L72.6327 76.8282L67.5156 76.8282Z" fill="#2A212D"/>
<path d="M67.5156 56.3829L67.5156 61.5L72.6327 61.5L72.6327 56.3829L67.5156 56.3829Z" fill="#2A212D"/>
<path d="M67.5156 46.1329L67.5156 51.25L72.6327 51.25L72.6327 46.1329L67.5156 46.1329Z" fill="#2A212D"/>
<path d="M67.5156 41.0079L67.5156 46.125L72.6327 46.125L72.6327 41.0079L67.5156 41.0079Z" fill="#2A212D"/>
<path d="M67.5156 30.7813L67.5156 35.8984L72.6327 35.8984L72.6327 30.7813L67.5156 30.7813Z" fill="#2A212D"/>
<path d="M67.5156 25.6563L67.5156 30.7734L72.6327 30.7734L72.6327 25.6563L67.5156 25.6563Z" fill="#2A212D"/>
<path d="M67.5156 5.18758L67.5156 10.3047L72.6327 10.3047L72.6327 5.18758L67.5156 5.18758Z" fill="#2A212D"/>
<path d="M67.5156 0.05477L67.5156 5.17188L72.6327 5.17188L72.6327 0.0547707L67.5156 0.05477Z" fill="#2A212D"/>
<path d="M72.6563 118.008L72.6562 123.125L77.7734 123.125L77.7734 118.008L72.6563 118.008Z" fill="#2A212D"/>
<path d="M72.6563 112.875L72.6562 117.992L77.7734 117.992L77.7734 112.875L72.6563 112.875Z" fill="#2A212D"/>
<path d="M72.6563 107.524L72.6562 112.641L77.7734 112.641L77.7734 107.524L72.6563 107.524Z" fill="#2A212D"/>
<path d="M72.6563 102.406L72.6562 107.523L77.7734 107.523L77.7734 102.406L72.6563 102.406Z" fill="#2A212D"/>
<path d="M72.6563 92.1798L72.6562 97.2969L77.7734 97.2969L77.7734 92.1798L72.6563 92.1798Z" fill="#2A212D"/>
<path d="M72.6563 87.0782L72.6562 92.1953L77.7734 92.1953L77.7734 87.0782L72.6563 87.0782Z" fill="#2A212D"/>
<path d="M72.6563 71.711L72.6562 76.8281L77.7734 76.8281L77.7734 71.711L72.6563 71.711Z" fill="#2A212D"/>
<path d="M72.6563 66.6016L72.6562 71.7188L77.7734 71.7188L77.7734 66.6016L72.6563 66.6016Z" fill="#2A212D"/>
<path d="M72.6563 56.3829L72.6562 61.5L77.7734 61.5L77.7734 56.3829L72.6563 56.3829Z" fill="#2A212D"/>
<path d="M72.6563 51.2423L72.6562 56.3594L77.7734 56.3594L77.7734 51.2423L72.6563 51.2423Z" fill="#2A212D"/>
<path d="M72.6563 46.1329L72.6562 51.25L77.7734 51.25L77.7734 46.1329L72.6563 46.1329Z" fill="#2A212D"/>
<path d="M72.6563 41.0079L72.6562 46.125L77.7734 46.125L77.7734 41.0079L72.6563 41.0079Z" fill="#2A212D"/>
<path d="M72.6563 30.7813L72.6562 35.8984L77.7734 35.8984L77.7734 30.7813L72.6563 30.7813Z" fill="#2A212D"/>
<path d="M72.6563 15.4298L72.6562 20.5469L77.7734 20.5469L77.7734 15.4298L72.6563 15.4298Z" fill="#2A212D"/>
<path d="M72.6563 10.3204L72.6562 15.4375L77.7734 15.4375L77.7734 10.3204L72.6563 10.3204Z" fill="#2A212D"/>
<path d="M72.6563 0.05477L72.6562 5.17188L77.7734 5.17188L77.7734 0.0547707L72.6563 0.05477Z" fill="#2A212D"/>
<path d="M77.7344 107.524L77.7344 112.641L82.8515 112.641L82.8515 107.524L77.7344 107.524Z" fill="#2A212D"/>
<path d="M77.7344 87.0782L77.7344 92.1953L82.8515 92.1953L82.8515 87.0782L77.7344 87.0782Z" fill="#2A212D"/>
<path d="M77.7344 76.8282L77.7344 81.9453L82.8515 81.9453L82.8515 76.8282L77.7344 76.8282Z" fill="#2A212D"/>
<path d="M77.7344 51.2423L77.7344 56.3594L82.8515 56.3594L82.8515 51.2423L77.7344 51.2423Z" fill="#2A212D"/>
<path d="M77.7344 41.0079L77.7344 46.125L82.8515 46.125L82.8515 41.0079L77.7344 41.0079Z" fill="#2A212D"/>
<path d="M77.7344 35.8985L77.7344 41.0156L82.8515 41.0156L82.8515 35.8985L77.7344 35.8985Z" fill="#2A212D"/>
<path d="M77.7344 25.6563L77.7344 30.7734L82.8515 30.7734L82.8515 25.6563L77.7344 25.6563Z" fill="#2A212D"/>
<path d="M77.7344 20.547L77.7344 25.6641L82.8515 25.6641L82.8515 20.547L77.7344 20.547Z" fill="#2A212D"/>
<path d="M77.7344 15.4298L77.7344 20.5469L82.8515 20.5469L82.8515 15.4298L77.7344 15.4298Z" fill="#2A212D"/>
<path d="M82.8984 122.883L82.8984 128L88.0155 128L88.0155 122.883L82.8984 122.883Z" fill="#2A212D"/>
<path d="M82.8984 117.758L82.8984 122.875L88.0155 122.875L88.0155 117.758L82.8984 117.758Z" fill="#2A212D"/>
<path d="M82.8984 112.656L82.8984 117.773L88.0155 117.773L88.0155 112.656L82.8984 112.656Z" fill="#2A212D"/>
<path d="M82.8984 107.524L82.8984 112.641L88.0155 112.641L88.0155 107.524L82.8984 107.524Z" fill="#2A212D"/>
<path d="M82.8984 92.1798L82.8984 97.2969L88.0155 97.2969L88.0155 92.1798L82.8984 92.1798Z" fill="#2A212D"/>
<path d="M82.8984 87.0782L82.8984 92.1953L88.0155 92.1953L88.0155 87.0782L82.8984 87.0782Z" fill="#2A212D"/>
<path d="M82.8984 71.711L82.8984 76.8281L88.0155 76.8281L88.0155 71.711L82.8984 71.711Z" fill="#2A212D"/>
<path d="M82.8984 66.5938L82.8984 71.7109L88.0155 71.7109L88.0155 66.5938L82.8984 66.5938Z" fill="#2A212D"/>
<path d="M82.8984 61.4766L82.8984 66.5938L88.0155 66.5938L88.0155 61.4766L82.8984 61.4766Z" fill="#2A212D"/>
<path d="M82.8984 41.0079L82.8984 46.125L88.0155 46.125L88.0155 41.0079L82.8984 41.0079Z" fill="#2A212D"/>
<path d="M82.8984 35.8985L82.8984 41.0156L88.0155 41.0156L88.0155 35.8985L82.8984 35.8985Z" fill="#2A212D"/>
<path d="M82.8984 30.7813L82.8984 35.8984L88.0155 35.8984L88.0155 30.7813L82.8984 30.7813Z" fill="#2A212D"/>
<path d="M82.8984 25.6563L82.8984 30.7734L88.0155 30.7734L88.0155 25.6563L82.8984 25.6563Z" fill="#2A212D"/>
<path d="M82.8984 20.547L82.8984 25.6641L88.0155 25.6641L88.0155 20.547L82.8984 20.547Z" fill="#2A212D"/>
<path d="M82.8984 5.18758L82.8984 10.3047L88.0155 10.3047L88.0155 5.18758L82.8984 5.18758Z" fill="#2A212D"/>
<path d="M88.0156 81.9376L88.0156 87.0547L93.1327 87.0547L93.1327 81.9376L88.0156 81.9376Z" fill="#2A212D"/>
<path d="M88.0156 76.8282L88.0156 81.9453L93.1327 81.9453L93.1327 76.8282L88.0156 76.8282Z" fill="#2A212D"/>
<path d="M88.0156 71.711L88.0156 76.8281L93.1327 76.8281L93.1327 71.711L88.0156 71.711Z" fill="#2A212D"/>
<path d="M88.0156 61.4766L88.0156 66.5938L93.1327 66.5938L93.1327 61.4766L88.0156 61.4766Z" fill="#2A212D"/>
<path d="M88.0156 20.547L88.0156 25.6641L93.1327 25.6641L93.1327 20.547L88.0156 20.547Z" fill="#2A212D"/>
<path d="M88.0156 0.05477L88.0156 5.17188L93.1327 5.17188L93.1327 0.0547707L88.0156 0.05477Z" fill="#2A212D"/>
<path d="M93.1172 81.9454L93.1172 87.0625L98.2343 87.0625L98.2343 81.9454L93.1172 81.9454Z" fill="#2A212D"/>
<path d="M93.1172 71.711L93.1172 76.8281L98.2343 76.8281L98.2343 71.711L93.1172 71.711Z" fill="#2A212D"/>
<path d="M93.1172 61.4845L93.1172 66.6016L98.2343 66.6016L98.2343 61.4845L93.1172 61.4845Z" fill="#2A212D"/>
<path d="M93.1172 41.0079L93.1172 46.125L98.2343 46.125L98.2343 41.0079L93.1172 41.0079Z" fill="#2A212D"/>
<path d="M93.1172 30.7735L93.1172 35.8906L98.2343 35.8906L98.2343 30.7735L93.1172 30.7735Z" fill="#2A212D"/>
<path d="M93.1172 20.547L93.1172 25.6641L98.2343 25.6641L98.2343 20.547L93.1172 20.547Z" fill="#2A212D"/>
<path d="M93.1172 0.05477L93.1172 5.17188L98.2343 5.17188L98.2343 0.0547707L93.1172 0.05477Z" fill="#2A212D"/>
<path d="M98.2188 66.6016L98.2188 71.7188L103.336 71.7188L103.336 66.6016L98.2188 66.6016Z" fill="#2A212D"/>
<path d="M98.2188 61.4845L98.2188 66.6016L103.336 66.6016L103.336 61.4845L98.2188 61.4845Z" fill="#2A212D"/>
<path d="M98.2188 51.2345L98.2188 56.3516L103.336 56.3516L103.336 51.2345L98.2188 51.2345Z" fill="#2A212D"/>
<path d="M98.2188 46.1251L98.2188 51.2422L103.336 51.2422L103.336 46.1251L98.2188 46.1251Z" fill="#2A212D"/>
<path d="M98.2188 41.0079L98.2188 46.125L103.336 46.125L103.336 41.0079L98.2188 41.0079Z" fill="#2A212D"/>
<path d="M98.2188 20.547L98.2188 25.6641L103.336 25.6641L103.336 20.547L98.2188 20.547Z" fill="#2A212D"/>
<path d="M103.32 76.8282L103.32 81.9453L108.437 81.9453L108.437 76.8282L103.32 76.8282Z" fill="#2A212D"/>
<path d="M103.32 61.4766L103.32 66.5938L108.437 66.5938L108.437 61.4766L103.32 61.4766Z" fill="#2A212D"/>
<path d="M103.32 46.1251L103.32 51.2422L108.437 51.2422L108.437 46.1251L103.32 46.1251Z" fill="#2A212D"/>
<path d="M103.32 41.0079L103.32 46.125L108.437 46.125L108.437 41.0079L103.32 41.0079Z" fill="#2A212D"/>
<path d="M103.32 35.8985L103.32 41.0156L108.437 41.0156L108.437 35.8985L103.32 35.8985Z" fill="#2A212D"/>
<path d="M103.32 30.7735L103.32 35.8906L108.437 35.8906L108.437 30.7735L103.32 30.7735Z" fill="#2A212D"/>
<path d="M103.32 25.6563L103.32 30.7734L108.437 30.7734L108.437 25.6563L103.32 25.6563Z" fill="#2A212D"/>
<path d="M103.32 20.547L103.32 25.6641L108.437 25.6641L108.437 20.547L103.32 20.547Z" fill="#2A212D"/>
<path d="M103.32 5.18758L103.32 10.3047L108.437 10.3047L108.437 5.18758L103.32 5.18758Z" fill="#2A212D"/>
<path d="M108.461 71.711L108.461 76.8281L113.578 76.8281L113.578 71.711L108.461 71.711Z" fill="#2A212D"/>
<path d="M108.461 56.3751L108.461 61.4922L113.578 61.4922L113.578 56.3751L108.461 56.3751Z" fill="#2A212D"/>
<path d="M108.461 41.0079L108.461 46.125L113.578 46.125L113.578 41.0079L108.461 41.0079Z" fill="#2A212D"/>
<path d="M108.461 35.8985L108.461 41.0156L113.578 41.0156L113.578 35.8985L108.461 35.8985Z" fill="#2A212D"/>
<path d="M108.461 20.547L108.461 25.6641L113.578 25.6641L113.578 20.547L108.461 20.547Z" fill="#2A212D"/>
<path d="M108.461 10.3126L108.461 15.4297L113.578 15.4297L113.578 10.3126L108.461 10.3126Z" fill="#2A212D"/>
<path d="M108.461 5.18758L108.461 10.3047L113.578 10.3047L113.578 5.18758L108.461 5.18758Z" fill="#2A212D"/>
<path d="M113.563 81.9376L113.562 87.0547L118.68 87.0547L118.68 81.9376L113.563 81.9376Z" fill="#2A212D"/>
<path d="M113.563 66.5938L113.562 71.7109L118.68 71.7109L118.68 66.5938L113.563 66.5938Z" fill="#2A212D"/>
<path d="M113.563 41.0079L113.562 46.125L118.68 46.125L118.68 41.0079L113.563 41.0079Z" fill="#2A212D"/>
<path d="M113.563 25.6563L113.562 30.7734L118.68 30.7734L118.68 25.6563L113.563 25.6563Z" fill="#2A212D"/>
<path d="M113.563 20.547L113.562 25.6641L118.68 25.6641L118.68 20.547L113.563 20.547Z" fill="#2A212D"/>
<path d="M113.563 15.422L113.562 20.5391L118.68 20.5391L118.68 15.422L113.563 15.422Z" fill="#2A212D"/>
<path d="M113.563 5.18758L113.562 10.3047L118.68 10.3047L118.68 5.18758L113.563 5.18758Z" fill="#2A212D"/>
<path d="M113.563 0.05477L113.562 5.17188L118.68 5.17188L118.68 0.0547707L113.563 0.05477Z" fill="#2A212D"/>
<path d="M118.719 76.8282L118.719 81.9453L123.836 81.9453L123.836 76.8282L118.719 76.8282Z" fill="#2A212D"/>
<path d="M118.719 66.6016L118.719 71.7188L123.836 71.7188L123.836 66.6016L118.719 66.6016Z" fill="#2A212D"/>
<path d="M118.719 61.4845L118.719 66.6016L123.836 66.6016L123.836 61.4845L118.719 61.4845Z" fill="#2A212D"/>
<path d="M118.68 41.0079L118.68 46.125L123.797 46.125L123.797 41.0079L118.68 41.0079Z" fill="#2A212D"/>
<path d="M118.68 25.6563L118.68 30.7734L123.797 30.7734L123.797 25.6563L118.68 25.6563Z" fill="#2A212D"/>
<path d="M118.719 20.547L118.719 25.6641L123.836 25.6641L123.836 20.547L118.719 20.547Z" fill="#2A212D"/>
<path d="M123.836 81.9454L123.836 87.0625L128.953 87.0625L128.953 81.9454L123.836 81.9454Z" fill="#2A212D"/>
<path d="M123.836 76.8282L123.836 81.9453L128.953 81.9453L128.953 76.8282L123.836 76.8282Z" fill="#2A212D"/>
<path d="M123.836 61.4845L123.836 66.6016L128.953 66.6016L128.953 61.4845L123.836 61.4845Z" fill="#2A212D"/>
<path d="M123.836 51.2423L123.836 56.3594L128.953 56.3594L128.953 51.2423L123.836 51.2423Z" fill="#2A212D"/>
<path d="M123.836 41.0079L123.836 46.125L128.953 46.125L128.953 41.0079L123.836 41.0079Z" fill="#2A212D"/>
<path d="M123.836 35.8985L123.836 41.0156L128.953 41.0156L128.953 35.8985L123.836 35.8985Z" fill="#2A212D"/>
<path d="M123.836 15.4298L123.836 20.5469L128.953 20.5469L128.953 15.4298L123.836 15.4298Z" fill="#2A212D"/>
<path d="M123.836 0.05477L123.836 5.17188L128.953 5.17188L128.953 0.0547707L123.836 0.05477Z" fill="#2A212D"/>
</svg>
