<svg width="323" height="226" viewBox="0 0 323 226" fill="none" xmlns="http://www.w3.org/2000/svg">
<g clip-path="url(#clip0_1801_21651)">
<rect x="34.5" width="332" height="69" rx="4" transform="rotate(30 34.5 0)" fill="#FFEA96"/>
<circle cx="49.9088" cy="49.315" r="18" transform="rotate(30 49.9088 49.315)" fill="#FF6739" fill-opacity="0.1"/>
<rect x="87.0156" y="53.3828" width="61.3478" height="7.26316" transform="rotate(30 87.0156 53.3828)" fill="white" fill-opacity="0.51"/>
<rect x="147.18" y="88.1172" width="140.739" height="7.26316" transform="rotate(30 147.18 88.1172)" fill="white" fill-opacity="0.51"/>
<rect x="147.18" y="88.1172" width="140.739" height="7.26316" transform="rotate(30 147.18 88.1172)" fill="#4D7CFE" fill-opacity="0.08"/>
<rect x="79.1719" y="68.7734" width="160.587" height="3.63158" transform="rotate(30 79.1719 68.7734)" fill="white" fill-opacity="0.51"/>
<rect x="74.3047" y="75.3984" width="128.109" height="3.63158" transform="rotate(30 74.3047 75.3984)" fill="white" fill-opacity="0.51"/>
<g clip-path="url(#clip1_1801_21651)">
<path fill-rule="evenodd" clip-rule="evenodd" d="M54.1202 42.0312C54.5188 42.2614 54.6647 42.7549 54.446 43.1335L53.2585 45.1903L56.1453 46.857C57.341 47.5474 57.7787 49.0279 57.1229 50.1638L56.2974 51.5935C56.6363 51.9775 56.7177 52.5323 56.4591 52.9801L55.2716 55.0369C55.0131 55.4847 54.4919 55.6917 53.99 55.5901L53.1645 57.0198C52.5087 58.1558 51.0077 58.517 49.812 57.8267L42.5951 53.66C41.3994 52.9696 40.9617 51.4891 41.6175 50.3532L42.443 48.9235C42.104 48.5395 42.0227 47.9847 42.2812 47.5369L43.4688 45.4801C43.7273 45.0323 44.2484 44.8253 44.7504 44.9269L45.5759 43.4971C46.2317 42.3612 47.7327 42 48.9284 42.6903L51.8152 44.357L53.0027 42.3002C53.2213 41.9215 53.7216 41.8011 54.1202 42.0312ZM55.6795 49.3305L54.2941 51.7301L53.1066 53.7869L51.7212 56.1865C51.5025 56.5652 51.0022 56.6856 50.6036 56.4554L43.3868 52.2888C42.9882 52.0587 42.8423 51.5652 43.0609 51.1865L44.4463 48.7869L45.6338 46.7301L47.0192 44.3305C47.2378 43.9518 47.7382 43.8314 48.1368 44.0615L55.3536 48.2282C55.7522 48.4583 55.8981 48.9518 55.6795 49.3305ZM52.3619 49.2433C51.764 48.8982 51.0135 49.0788 50.6856 49.6468C50.3577 50.2147 50.5765 50.955 51.1744 51.3002C51.7723 51.6453 52.5228 51.4647 52.8507 50.8968C53.1786 50.3288 52.9598 49.5885 52.3619 49.2433ZM47.0772 47.5634C47.4051 46.9954 48.1556 46.8148 48.7535 47.16C49.3513 47.5052 49.5702 48.2454 49.2423 48.8134C48.9143 49.3814 48.1638 49.562 47.566 49.2168C46.9681 48.8716 46.7493 48.1314 47.0772 47.5634ZM46.4135 50.3797C45.9762 51.137 46.268 52.124 47.0652 52.5842L48.5085 53.4176C49.3057 53.8778 50.3064 53.637 50.7436 52.8797L49.3002 52.0464L47.8568 51.213L46.4135 50.3797Z" fill="#FF6739"/>
</g>
</g>
<defs>
<clipPath id="clip0_1801_21651">
<rect width="332" height="69" fill="white" transform="translate(34.5) rotate(30)"/>
</clipPath>
<clipPath id="clip1_1801_21651">
<rect width="20" height="19" fill="white" transform="translate(46.25 35.6562) rotate(30)"/>
</clipPath>
</defs>
</svg>
