<svg width="324" height="227" viewBox="0 0 324 227" fill="none" xmlns="http://www.w3.org/2000/svg">
<g clip-path="url(#clip0_1801_21643)">
<rect x="34.5" width="334" height="69" rx="4" transform="rotate(30 34.5 0)" fill="#FFEA96"/>
<circle cx="49.9088" cy="49.315" r="18" transform="rotate(30 49.9088 49.315)" fill="#FF6739" fill-opacity="0.1"/>
<rect x="87.3906" y="53.6016" width="61.7174" height="7.26316" transform="rotate(30 87.3906 53.6016)" fill="white" fill-opacity="0.51"/>
<rect x="147.914" y="88.5469" width="141.587" height="7.26316" transform="rotate(30 147.914 88.5469)" fill="white" fill-opacity="0.51"/>
<rect x="147.914" y="88.5469" width="141.587" height="7.26316" transform="rotate(30 147.914 88.5469)" fill="#4D7CFE" fill-opacity="0.08"/>
<rect x="79.5547" y="69" width="161.554" height="3.63158" transform="rotate(30 79.5547 69)" fill="white" fill-opacity="0.51"/>
<rect x="74.6875" y="75.6172" width="128.88" height="3.63158" transform="rotate(30 74.6875 75.6172)" fill="white" fill-opacity="0.51"/>
<g clip-path="url(#clip1_1801_21643)">
<path fill-rule="evenodd" clip-rule="evenodd" d="M40.6911 53.6135L50.7947 59.4468C51.9905 60.1371 53.5194 59.7274 54.2098 58.5317L60.0431 48.4281C60.7335 47.2323 60.3238 45.7034 59.1281 45.013L49.0244 39.1797C47.8287 38.4893 46.2997 38.899 45.6094 40.0948L39.776 50.1984C39.0857 51.3941 39.4954 52.9231 40.6911 53.6135ZM52.7664 57.6984C52.5363 58.097 52.0266 58.2335 51.6281 58.0034L41.5244 52.1701C41.1259 51.94 40.9893 51.4303 41.2194 51.0317L47.0528 40.9281C47.2829 40.5295 47.7925 40.3929 48.1911 40.6231L58.2947 46.4564C58.6933 46.6865 58.8299 47.1962 58.5997 47.5947L52.7664 57.6984ZM48.4327 47.2165C48.8772 47.0973 49.1411 46.6404 49.0219 46.1958C48.9028 45.7513 48.4459 45.4875 48.0013 45.6066L45.7246 46.2166C45.2801 46.3357 45.0162 46.7927 45.1354 47.2372L45.7454 49.514C45.8645 49.9585 46.3215 50.2223 46.766 50.1032C47.2106 49.9841 47.4744 49.5271 47.3553 49.0826L46.9609 47.6108L48.4327 47.2165ZM53.0531 48.5233C52.6086 48.6424 52.3448 49.0993 52.4639 49.5439L52.8582 51.0156L51.3865 51.41C50.9419 51.5291 50.6781 51.9861 50.7972 52.4306C50.9163 52.8752 51.3733 53.139 51.8178 53.0199L54.0945 52.4098C54.5391 52.2907 54.8029 51.8338 54.6838 51.3892L54.0738 49.1125C53.9546 48.668 53.4977 48.4041 53.0531 48.5233ZM52.1638 47.8861C52.4563 47.5308 52.4054 47.0056 52.0501 46.7131C51.6947 46.4206 51.1696 46.4715 50.8771 46.8269L47.6554 50.7403C47.3629 51.0956 47.4138 51.6208 47.7691 51.9133C48.1244 52.2058 48.6496 52.1549 48.9421 51.7996L52.1638 47.8861Z" fill="#FF6739"/>
</g>
</g>
<defs>
<clipPath id="clip0_1801_21643">
<rect width="334" height="69" fill="white" transform="translate(34.5) rotate(30)"/>
</clipPath>
<clipPath id="clip1_1801_21643">
<rect width="20" height="20" fill="white" transform="translate(46.25 35.6562) rotate(30)"/>
</clipPath>
</defs>
</svg>
