<svg width="322" height="226" viewBox="0 0 322 226" fill="none" xmlns="http://www.w3.org/2000/svg">
<g clip-path="url(#clip0_1801_21659)">
<rect x="34.5" width="331" height="69" rx="4" transform="rotate(30 34.5 0)" fill="#FFEA96"/>
<circle cx="50.4088" cy="48.4478" r="18" transform="rotate(30 50.4088 48.4478)" fill="#FF6739" fill-opacity="0.1"/>
<path fill-rule="evenodd" clip-rule="evenodd" d="M45.5 36.9463C46.1904 35.7506 47.7193 35.3409 48.9151 36.0313L51.0801 37.2813C51.5584 37.5574 51.7223 38.169 51.4462 38.6473C51.17 39.1256 50.5584 39.2894 50.0801 39.0133L47.9151 37.7633C47.6759 37.6252 47.3701 37.7072 47.2321 37.9463L45.9821 40.1114C45.7059 40.5897 45.0943 40.7535 44.616 40.4774C44.1377 40.2013 43.9739 39.5897 44.25 39.1114L45.5 36.9463ZM56.1064 50.5755C54.7257 52.9669 51.6677 53.7863 49.2763 52.4056C48.5064 51.9611 47.8995 51.3428 47.4764 50.6289L44.272 51.4876C43.7385 51.6305 43.1902 51.3139 43.0472 50.7804C42.9043 50.247 43.2209 49.6986 43.7543 49.5557L46.8196 48.7344C46.6785 47.6784 46.8723 46.5694 47.4462 45.5755C48.8269 43.184 51.8848 42.3646 54.2763 43.7454C56.6677 45.1261 57.4871 48.184 56.1064 50.5755ZM54.3744 49.5755C55.2028 48.1406 54.7112 46.3058 53.2763 45.4774C51.8414 44.649 50.0066 45.1406 49.1782 46.5755C48.3498 48.0104 48.8414 49.8451 50.2763 50.6736C51.7112 51.502 53.5459 51.0104 54.3744 49.5755ZM61.9054 43.5313C63.1012 44.2216 63.5109 45.7506 62.8205 46.9463L61.5705 49.1114C61.2944 49.5897 60.6828 49.7535 60.2045 49.4774C59.7262 49.2013 59.5623 48.5897 59.8385 48.1114L61.0885 45.9463C61.2265 45.7072 61.1446 45.4014 60.9054 45.2633L58.7404 44.0133C58.2621 43.7372 58.0982 43.1256 58.3744 42.6473C58.6505 42.169 59.2621 42.0051 59.7404 42.2813L61.9054 43.5313ZM38 49.9367C37.3096 51.1324 37.7193 52.6614 38.9151 53.3518L41.0801 54.6018C41.5584 54.8779 42.17 54.714 42.4462 54.2357C42.7223 53.7574 42.5584 53.1459 42.0801 52.8697L39.9151 51.6197C39.6759 51.4816 39.594 51.1758 39.7321 50.9367L40.9821 48.7716C41.2582 48.2933 41.0943 47.6817 40.616 47.4056C40.1377 47.1295 39.5261 47.2933 39.25 47.7716L38 49.9367ZM51.9054 60.8518C53.1012 61.5421 54.6302 61.1324 55.3205 59.9367L56.5705 57.7716C56.8467 57.2933 56.6828 56.6817 56.2045 56.4056C55.7262 56.1295 55.1146 56.2933 54.8385 56.7716L53.5885 58.9367C53.4504 59.1758 53.1446 59.2578 52.9054 59.1197L50.7404 57.8697C50.2621 57.5936 49.6505 57.7574 49.3744 58.2357C49.0982 58.714 49.2621 59.3256 49.7404 59.6018L51.9054 60.8518Z" fill="#FF6739"/>
<rect x="86.5078" y="53.8281" width="50.3696" height="7.16884" transform="rotate(30 86.5078 53.8281)" fill="white" fill-opacity="0.51"/>
<rect x="137.141" y="83.0547" width="160.103" height="7.16884" transform="rotate(30 137.141 83.0547)" fill="white" fill-opacity="0.51"/>
<rect x="137.141" y="83.0547" width="160.103" height="7.16884" transform="rotate(30 137.141 83.0547)" fill="#4D7CFE" fill-opacity="0.08"/>
<rect x="78" y="68.5703" width="127.723" height="3.58442" transform="rotate(30 78 68.5703)" fill="white" fill-opacity="0.51"/>
<rect x="73.9688" y="75.5625" width="101.639" height="3.58442" transform="rotate(30 73.9688 75.5625)" fill="white" fill-opacity="0.51"/>
</g>
<defs>
<clipPath id="clip0_1801_21659">
<rect width="331" height="69" fill="white" transform="translate(34.5) rotate(30)"/>
</clipPath>
</defs>
</svg>
