<svg width="621" height="222" viewBox="0 0 621 222" fill="none" xmlns="http://www.w3.org/2000/svg">
<path d="M469.891 205.234C454.548 195.561 457.11 174.522 466.211 161.958C471.647 154.46 480.371 147.513 490.709 146.926C497.189 146.554 504.264 149.264 508.204 153.993C509.877 156.001 510.984 158.374 511.24 161.03L516.662 159.701C515.218 157.127 514.16 154.466 513.456 151.76C509.456 136.409 516.816 119.61 529.496 108.868C545.606 95.1876 576.175 91.0269 591.648 108.046C599.645 116.872 601.127 130.13 593.339 139.392C591.791 141.237 594.366 144.093 596.706 143.353C612.31 138.064 632.1 136.994 643.971 149.594C648.899 154.824 651.383 161.923 648.99 168.634C647.459 172.929 644.288 176.689 640.118 178.905C637.771 180.152 635.108 180.91 632.243 180.998L632.971 185.853C636.083 184.876 639.372 184.01 642.73 183.365C654.931 181.023 668.057 181.605 677.05 190.425C681.666 194.961 684.097 201.273 681.705 207.279C679.403 213.085 673.591 217.457 666.622 217.222C663.254 217.105 663.371 221.606 666.622 221.924C674.683 222.617 681.926 218.104 685.58 211.757C687.431 208.508 688.297 204.873 688.089 201.223C687.881 197.573 686.607 194.037 684.396 190.977C674.727 177.056 656.375 175.611 640.118 178.905C637.159 179.504 634.27 180.261 631.515 181.128C628.745 181.998 629.005 186.088 632.243 185.982C636.199 185.861 639.715 184.915 642.73 183.365C654.686 177.22 658.765 161.586 651.227 150.322C639.433 132.692 614.507 131.799 595.12 138.193L598.488 142.166C606.12 133.092 605.977 120.669 600.542 110.714C594.587 99.7831 582.117 93.4481 569.05 91.9789C542.615 88.9701 518.547 104.473 509.731 126.545C507.302 132.306 506.224 138.459 506.564 144.616C506.739 147.794 507.291 150.937 508.204 153.993C509.059 156.857 510.231 159.644 511.708 162.311C513.008 164.544 517.403 163.592 517.13 160.983C516.768 157.548 515.456 154.433 513.456 151.76C509.495 146.468 502.837 142.911 495.52 142.036C483.193 140.555 471.829 147.361 464.534 155.799C451.636 170.691 447.943 196.936 467.798 208.572C470.125 209.947 472.193 206.644 469.956 205.234H469.891Z" fill="#FFBCA7"/>
<path d="M466.211 161.958C457.11 174.522 454.548 195.561 469.891 205.234H469.956C472.193 206.644 470.125 209.947 467.798 208.572C460.941 209.888 449.757 213.461 459.872 217.222C469.987 220.983 601.92 221.924 666.622 221.924C663.371 221.606 663.254 217.105 666.622 217.222C673.591 217.457 679.403 213.085 681.705 207.279C684.097 201.273 681.666 194.961 677.05 190.425C668.057 181.605 654.931 181.023 642.73 183.365C639.715 184.915 636.199 185.861 632.243 185.982C629.005 186.088 628.745 181.998 631.515 181.128C634.27 180.261 637.159 179.504 640.118 178.905C644.288 176.689 647.459 172.929 648.99 168.634C651.383 161.923 648.899 154.824 643.971 149.594C632.1 136.994 612.31 138.064 596.706 143.353C594.366 144.093 591.791 141.237 593.339 139.392C601.127 130.13 599.645 116.872 591.648 108.046C576.175 91.0269 545.606 95.1876 529.496 108.868C516.816 119.61 509.456 136.409 513.456 151.76C515.456 154.433 516.768 157.548 517.13 160.983C517.403 163.592 513.008 164.544 511.708 162.311C510.231 159.644 509.059 156.857 508.204 153.993C504.264 149.264 497.189 146.554 490.709 146.926C480.371 147.513 471.647 154.46 466.211 161.958Z" fill="#FFBCA7"/>
<path d="M16.485 205.234C1.14185 195.561 3.70338 174.522 12.8052 161.958C18.2404 154.46 26.9652 147.513 37.3023 146.926C43.7824 146.554 50.8582 149.264 54.7976 153.993C56.4705 156.001 57.5777 158.374 57.8335 161.03L63.2556 159.701C61.812 157.127 60.7542 154.466 60.0493 151.76C56.0498 136.409 63.4099 119.61 76.0893 108.868C92.1996 95.1876 122.769 91.0269 138.242 108.046C146.239 116.872 147.721 130.13 139.932 139.392C138.385 141.237 140.96 144.093 143.3 143.353C158.903 138.064 178.693 136.994 190.565 149.594C195.493 154.824 197.976 161.923 195.584 168.634C194.053 172.929 190.882 176.689 186.712 178.905C184.365 180.152 181.702 180.91 178.836 180.998L179.565 185.853C182.677 184.876 185.965 184.01 189.324 183.365C201.524 181.023 214.651 181.605 223.644 190.425C228.26 194.961 230.691 201.273 228.299 207.279C225.997 213.085 220.185 217.457 213.216 217.222C209.848 217.105 209.965 221.606 213.216 221.924C221.277 222.617 228.52 218.104 232.173 211.757C234.025 208.508 234.89 204.873 234.683 201.223C234.475 197.573 233.201 194.037 230.99 190.977C221.321 177.056 202.968 175.611 186.712 178.905C183.753 179.504 180.863 180.261 178.108 181.128C175.339 181.998 175.599 186.088 178.836 185.982C182.793 185.861 186.309 184.915 189.324 183.365C201.28 177.22 205.359 161.586 197.82 150.322C186.027 132.692 161.101 131.799 141.714 138.193L145.081 142.166C152.714 133.092 152.571 120.669 147.136 110.714C141.181 99.7831 128.711 93.4481 115.643 91.9789C89.209 88.9701 65.141 104.473 56.3252 126.545C53.896 132.306 52.8173 138.459 53.1575 144.616C53.3332 147.794 53.885 150.937 54.7976 153.993C55.6529 156.857 56.8251 159.644 58.3016 162.311C59.6019 164.544 63.9968 163.592 63.7237 160.983C63.3616 157.548 62.0494 154.433 60.0493 151.76C56.0887 146.468 49.4311 142.911 42.1133 142.036C29.7867 140.555 18.4224 147.361 11.1279 155.799C-1.77075 170.691 -5.46351 196.936 14.3916 208.572C16.7191 209.947 18.7865 206.644 16.55 205.234H16.485Z" fill="#FFBCA7"/>
<path d="M12.8052 161.958C3.70338 174.522 1.14185 195.561 16.485 205.234H16.55C18.7865 206.644 16.7191 209.947 14.3916 208.572C7.53509 209.888 -3.64919 213.461 6.46556 217.222C16.5803 220.983 148.513 221.924 213.216 221.924C209.965 221.606 209.848 217.105 213.216 217.222C220.185 217.457 225.997 213.085 228.299 207.279C230.691 201.273 228.26 194.961 223.644 190.425C214.651 181.605 201.524 181.023 189.324 183.365C186.309 184.915 182.793 185.861 178.836 185.982C175.599 186.088 175.339 181.998 178.108 181.128C180.863 180.261 183.753 179.504 186.712 178.905C190.882 176.689 194.053 172.929 195.584 168.634C197.976 161.923 195.493 154.824 190.565 149.594C178.693 136.994 158.903 138.064 143.3 143.353C140.96 144.093 138.385 141.237 139.932 139.392C147.721 130.13 146.239 116.872 138.242 108.046C122.769 91.0269 92.1996 95.1876 76.0893 108.868C63.4099 119.61 56.0498 136.409 60.0493 151.76C62.0494 154.433 63.3616 157.548 63.7237 160.983C63.9968 163.592 59.6019 164.544 58.3016 162.311C56.8251 159.644 55.6529 156.857 54.7976 153.993C50.8582 149.264 43.7824 146.554 37.3023 146.926C26.9652 147.513 18.2404 154.46 12.8052 161.958Z" fill="#FFBCA7"/>
<path d="M184.398 193.724C158.019 177.27 162.423 141.486 178.072 120.115C187.416 107.36 202.417 95.5448 220.189 94.5452C231.331 93.9138 243.496 98.5224 250.269 106.567C253.145 109.983 255.049 114.018 255.489 118.535L264.811 116.276C262.329 111.897 260.51 107.371 259.298 102.769C252.422 76.6565 265.076 48.0832 286.876 29.8124C314.574 6.54218 367.132 -0.534843 393.735 28.413C407.484 43.4267 410.032 65.9772 396.641 81.7306C393.981 84.8693 398.407 89.7273 402.431 88.4678C429.258 79.4716 463.283 77.6523 483.693 99.0833C492.166 107.98 496.436 120.055 492.323 131.47C489.69 138.774 484.239 145.17 477.069 148.94C473.034 151.061 468.455 152.35 463.529 152.501L464.781 160.757C470.132 159.096 475.786 157.623 481.56 156.526C502.536 152.543 525.104 153.532 540.566 168.534C548.502 176.251 552.682 186.986 548.569 197.202C544.612 207.078 534.619 214.515 522.637 214.115C516.847 213.915 517.048 221.572 522.637 222.112C536.497 223.291 548.949 215.614 555.231 204.819C558.414 199.292 559.902 193.11 559.545 186.901C559.188 180.692 556.997 174.679 553.197 169.474C536.572 145.795 505.019 143.337 477.069 148.94C471.982 149.959 467.014 151.246 462.277 152.721C457.515 154.2 457.962 161.157 463.529 160.977C470.332 160.772 476.376 159.162 481.56 156.526C502.116 146.073 509.129 119.481 496.168 100.323C475.891 70.3354 433.036 68.816 399.704 79.6915L405.494 86.4486C418.617 71.0151 418.371 49.884 409.026 32.9511C398.787 14.3589 377.348 3.58342 354.881 1.08446C309.432 -4.03339 268.052 22.3356 252.895 59.8798C248.719 69.6773 246.864 80.144 247.449 90.6162C247.751 96.0222 248.7 101.369 250.269 106.567C251.74 111.438 253.755 116.178 256.294 120.714C258.529 124.513 266.085 122.893 265.616 118.455C264.993 112.612 262.737 107.314 259.298 102.769C252.489 93.7674 241.042 87.7165 228.461 86.2287C207.268 83.7098 187.729 95.2849 175.188 109.639C153.011 134.968 146.662 179.61 180.799 199.401C184.801 201.74 188.355 196.123 184.51 193.724H184.398Z" fill="#FFDACF"/>
<path d="M178.072 120.115C162.423 141.486 158.019 177.27 184.398 193.724H184.51C188.355 196.123 184.801 201.74 180.799 199.401C169.011 201.64 163.409 215.714 180.799 222.112C198.189 228.509 411.394 222.112 522.637 222.112C517.048 221.572 516.847 213.915 522.637 214.115C534.619 214.515 544.612 207.078 548.569 197.202C552.682 186.986 548.502 176.251 540.566 168.534C525.104 153.532 502.536 152.543 481.56 156.526C476.376 159.162 470.332 160.772 463.529 160.977C457.962 161.157 457.515 154.2 462.277 152.721C467.014 151.246 471.982 149.959 477.069 148.94C484.239 145.17 489.69 138.774 492.323 131.47C496.436 120.055 492.166 107.98 483.693 99.0833C463.283 77.6523 429.258 79.4716 402.431 88.4678C398.407 89.7273 393.981 84.8693 396.641 81.7306C410.032 65.9772 407.484 43.4267 393.735 28.413C367.132 -0.534843 314.574 6.54218 286.876 29.8124C265.076 48.0832 252.422 76.6565 259.298 102.769C262.737 107.314 264.993 112.612 265.616 118.455C266.085 122.893 258.529 124.513 256.294 120.714C253.755 116.178 251.74 111.438 250.269 106.567C243.496 98.5224 231.331 93.9138 220.189 94.5452C202.417 95.5448 187.416 107.36 178.072 120.115Z" fill="#FFDACF"/>
</svg>
