<svg width="95" height="127" viewBox="0 0 95 127" fill="none" xmlns="http://www.w3.org/2000/svg">
<path d="M46.5477 81.0572C42.2409 86.0486 42.7857 93.9406 46.3195 99.4989C48.19 102.586 51.0107 104.983 54.3587 106.331C58.6802 107.928 63.6716 107.163 67.6838 104.858C74.4135 100.919 78.1927 93.3862 77.328 85.6363C76.1914 77.9111 70.5094 71.6332 62.9354 69.7345C59.0704 68.8511 54.609 69.3885 51.8041 72.1934" fill="#FADFD6"/>
<path d="M46.259 80.7769C40.5903 87.8075 42.8431 98.2983 49.351 104.026C56.7498 110.534 67.7559 107.942 73.5939 100.654C79.2475 93.7542 79.5349 83.9089 74.2933 76.691C69.2577 69.8959 58.5093 65.5155 51.3976 71.8247C50.8381 72.318 51.6553 73.1278 52.2075 72.6419C59.1277 66.5683 69.5228 71.6481 73.881 78.3106C78.2393 84.9732 77.4884 93.6235 72.5927 99.7781C67.0639 106.691 56.7571 109.047 49.8516 102.752C43.9621 97.4002 41.8124 87.8296 46.9068 81.248C47.1792 80.8873 46.5608 80.4088 46.2737 80.7621L46.259 80.7769Z" fill="#FADFD6"/>
<path d="M45.4104 79.9294C38.9761 87.4092 40.9932 98.9674 48.0092 105.372C56.1073 112.734 68.4165 110.128 74.9834 102.052C81.2778 94.3147 81.7711 83.3233 75.6312 75.3577C69.83 67.8337 57.9993 63.5785 50.1736 70.6092C47.965 72.6043 51.2043 75.7626 53.4276 73.8632C59.4496 68.6656 68.5785 73.6276 72.2374 79.2742C76.032 85.3008 75.5519 93.0779 71.0447 98.592C66.2447 104.607 57.3294 106.756 51.1675 101.441C45.6386 96.6558 43.4595 88.0349 47.9061 81.873C48.9662 80.4006 46.5736 78.5527 45.3883 79.9294L45.4104 79.9294Z" fill="black"/>
<path d="M53.2317 79.6323C49.9998 83.7476 47.7176 88.7979 49.9925 93.966C51.936 98.3832 57.4943 101.549 62.1029 99.3918C63.5753 98.7071 62.5151 96.1451 60.9912 96.7488C57.1262 98.2801 54.1152 93.2813 53.5704 90.1231C53.1373 87.039 53.7242 83.8979 55.2415 81.1783C55.8747 79.9636 54.1741 78.4249 53.2317 79.6249L53.2317 79.6323Z" fill="white"/>
<path d="M67.7957 98.0212L67.8914 97.9181C68.06 97.7513 68.1819 97.5431 68.2448 97.3144C68.3139 97.0739 68.3139 96.8188 68.2448 96.5782L68.1049 96.2543C67.9884 96.0506 67.821 95.8806 67.619 95.7611C67.4667 95.6638 67.2916 95.6079 67.111 95.5991C66.9326 95.5513 66.7447 95.5513 66.5663 95.5991C66.3397 95.6581 66.1336 95.7777 65.9699 95.9451C65.8013 96.1119 65.6795 96.3201 65.6166 96.5488L65.565 96.6739L65.5209 97.0273C65.5117 97.2058 65.5498 97.3836 65.6313 97.5426C65.6662 97.6534 65.7267 97.7543 65.808 97.8371C65.9009 97.9832 66.0303 98.1025 66.1834 98.1831L66.5 98.3157L66.8534 98.3672C67.2031 98.3498 67.5361 98.212 67.7957 97.977L67.7957 98.0212Z" fill="white"/>
<path d="M69.8669 89.4933L69.7638 89.3976C69.6111 89.238 69.4176 89.1235 69.2043 89.0663C68.9799 89.0073 68.7441 89.0073 68.5197 89.0663L68.2105 89.1988C68.022 89.3097 67.865 89.4668 67.754 89.6552C67.6601 89.7978 67.6066 89.9632 67.5994 90.1338C67.5554 90.3002 67.5554 90.4753 67.5994 90.6417C67.6625 90.8546 67.7762 91.0491 67.9307 91.2086C68.0875 91.3667 68.2829 91.4809 68.4976 91.5399L68.6227 91.5914L68.9614 91.6356C69.128 91.644 69.2937 91.6057 69.4399 91.5252C69.5463 91.498 69.6431 91.4419 69.7197 91.3632C69.8565 91.2756 69.9681 91.1538 70.0436 91.0098L70.1687 90.7153L70.2129 90.3767C70.2199 90.211 70.1845 90.0463 70.1098 89.8982C70.0609 89.7412 69.9691 89.6009 69.8448 89.4933L69.8669 89.4933Z" fill="white"/>
<path d="M62.7446 83.8737L62.936 83.8C63.1231 83.7567 63.2957 83.6654 63.4366 83.535C63.5961 83.4333 63.7257 83.291 63.8121 83.1227L63.9593 82.7767C64.0142 82.5842 64.0142 82.3803 63.9593 82.1878C63.958 82.0581 63.9224 81.9312 63.8563 81.8197C63.798 81.6371 63.6941 81.4724 63.5544 81.3411L63.26 81.1129C63.0363 80.9832 62.7824 80.9146 62.5238 80.9141L62.325 80.9141C62.0664 80.9146 61.8125 80.9832 61.5888 81.1129L61.2796 81.3485C61.0958 81.5318 60.9638 81.7603 60.8968 82.0111C60.8417 82.206 60.8417 82.4124 60.8968 82.6074C60.9036 82.8042 60.9648 82.9953 61.0735 83.1595C61.1621 83.3325 61.294 83.4796 61.4563 83.5865C61.6019 83.7144 61.7761 83.8053 61.9643 83.8516C62.2243 83.9245 62.4993 83.9245 62.7593 83.8516L62.7446 83.8737Z" fill="white"/>
<path d="M69.1841 83.7676C69.1362 83.1709 68.638 82.711 68.0393 82.711C67.4407 82.711 66.9424 83.1709 66.8945 83.7676C66.9424 84.3644 67.4407 84.8242 68.0393 84.8242C68.638 84.8242 69.1362 84.3644 69.1841 83.7676Z" fill="white"/>
<path d="M48.3167 45.3261C56.6725 45.3777 64.6087 45.3924 72.9277 46.5629C75.3571 46.909 76.4688 43.2427 73.9657 42.7936C65.6393 41.3212 56.2602 40.8427 47.9265 42.4402C46.2627 42.7568 46.697 45.3188 48.3167 45.3261Z" fill="black"/>
<path d="M70.9952 20.4635C70.8781 19.2359 71.1347 18.0016 71.7313 16.9224C72.6516 15.288 70.0675 13.8156 69.243 15.45C68.4427 16.9868 68.1148 18.726 68.3007 20.4487C68.3238 21.1777 68.9115 21.7621 69.6406 21.7812C70.3732 21.7733 70.9651 21.1813 70.9731 20.4487L70.9952 20.4635Z" fill="black"/>
<path d="M93.6197 22.6003L93.5681 21.3193C93.61 20.681 93.2933 20.0724 92.7464 19.7406C92.1995 19.4087 91.5134 19.4087 90.9666 19.7406C90.4197 20.0724 90.1029 20.681 90.1448 21.3193L90.0859 22.6003C90.0859 23.5761 90.877 24.3672 91.8528 24.3672C92.8286 24.3672 93.6197 23.5761 93.6197 22.6003Z" fill="black"/>
<path d="M36.3818 33.5967C37.1241 32.4448 38.1346 31.4899 39.3266 30.8139C41.1155 29.7832 39.4664 26.9488 37.7069 28.0458C36.0916 29.0484 34.7408 30.4244 33.7683 32.058C32.7597 33.7513 35.3437 35.2384 36.3965 33.5967L36.3818 33.5967Z" fill="black"/>
<path d="M34.6696 57.7067L33.8156 56.4257C33.5762 55.9266 33.0771 55.6039 32.5238 55.5905C31.9704 55.577 31.4562 55.8751 31.1929 56.362C30.9296 56.8489 30.9616 57.4423 31.2757 57.8981L32.1297 59.1717C32.5659 59.8045 33.4155 59.9954 34.0805 59.6099C34.7454 59.2244 35.002 58.3923 34.6696 57.6993L34.6696 57.7067Z" fill="black"/>
<path d="M7.33109 22.5055L14.59 23.7865C16.644 24.1546 17.5348 21.011 15.4587 20.6429L8.1998 19.362C6.14581 18.9939 5.25502 22.1374 7.33109 22.5055Z" fill="black"/>
<path d="M71.3635 112.492L76.5169 112.551C78.5782 112.551 78.5856 109.319 76.5169 109.341L71.3635 109.393C69.3684 109.393 69.3684 112.477 71.3635 112.492Z" fill="black"/>
<path d="M84.2547 68.7503C85.3438 66.44 86.0523 63.9689 86.3529 61.4325C86.2923 60.487 85.5077 59.7511 84.5603 59.7511C83.6128 59.7511 82.8282 60.487 82.7676 61.4325C82.56 63.3563 82.0481 65.2349 81.2511 66.9981C80.3382 69.008 83.2903 70.7895 84.2547 68.7503Z" fill="#FADFD6"/>
<path d="M84.7309 46.1225C87.4371 44.6821 90.5267 44.1259 93.5653 44.5323C95.6413 44.7826 95.634 41.5065 93.5653 41.2709C89.9548 40.8735 86.3097 41.5984 83.126 43.347C81.3076 44.3335 82.9199 47.0869 84.7456 46.1225L84.7309 46.1225Z" fill="#FADFD6"/>
<path d="M94.4063 124.411L92.529 117.365C91.9769 115.289 88.6419 116.224 89.3266 118.241L91.675 125.162C92.2493 126.877 94.8775 126.192 94.4063 124.425L94.4063 124.411Z" fill="#FADFD6"/>
<path d="M51.0251 54.0186L48.3674 50.9118C47.7977 50.3649 46.8979 50.3649 46.3282 50.9118C45.7812 51.4816 45.7812 52.3813 46.3282 52.9511L48.8754 56.1756C49.4731 56.7592 50.4273 56.7592 51.0251 56.1756C51.6057 55.5738 51.6057 54.6204 51.0251 54.0186Z" fill="#FADFD6"/>
<path d="M45.9548 19.3535C48.6302 18.5913 50.7214 16.5001 51.4836 13.8247C52.0873 11.8517 48.9143 10.9756 48.3842 12.9707C47.8838 14.7433 46.6253 16.2039 44.9462 16.9609C43.5916 17.6088 44.5486 19.7511 45.9548 19.3535Z" fill="#FADFD6"/>
<path d="M23.8352 39.5174C22.8118 37.7726 21.7664 36.0793 20.6401 34.364C19.5137 32.6487 17.0401 34.2168 18.056 35.8732C19.072 37.5297 20.2278 39.2671 21.391 40.9235C22.4217 42.3959 24.7701 41.0928 23.8352 39.4879L23.8352 39.5174Z" fill="#FADFD6"/>
<path d="M1.69719 4.42096C2.80628 4.1302 3.89563 3.76872 4.95853 3.33876C5.76979 3.09318 6.24583 2.25444 6.04074 1.43201C5.80819 0.61043 4.9586 0.128229 4.13399 0.349804C2.94057 0.799474 1.77741 1.32572 0.65179 1.92526C0.0772516 2.27886 -0.154146 2.99823 0.106499 3.62047C0.367144 4.24272 1.04216 4.58241 1.69719 4.42096Z" fill="#FADFD6"/>
</svg>
