<svg width="88" height="95" viewBox="0 0 88 95" fill="none" xmlns="http://www.w3.org/2000/svg">
<path d="M9.1763 62.9472C5.80452 58.9497 1.26956 55.6221 -2.60283 52.1105C-4.18565 50.6749 -6.54147 53.0381 -4.94393 54.4516C-0.931666 58.0074 2.97753 62.2258 7.43151 65.2147C8.9039 66.1791 10.1775 64.1252 9.18366 62.9472L9.1763 62.9472Z" fill="black"/>
<path d="M25.2854 32.2839L23.1504 26.306C22.4142 24.1857 18.9762 25.0986 19.7492 27.2483L21.8768 33.2262C22.613 35.3465 26.051 34.4336 25.2854 32.2839Z" fill="black"/>
<path d="M87.758 52.6198L85.6231 46.6419C84.8869 44.5217 81.4489 45.4346 82.2219 47.5842L84.3495 53.5622C85.0857 55.6824 88.5237 54.7695 87.758 52.6198Z" fill="black"/>
<path d="M11.1838 91.4929L8.62181 89.7849C7.82995 89.3312 6.82053 89.5967 6.35432 90.3813C5.91304 91.1747 6.17611 92.175 6.95064 92.6487L9.5126 94.3567C10.3045 94.8104 11.3139 94.545 11.7801 93.7604C12.2214 92.9669 11.9583 91.9666 11.1838 91.4929Z" fill="black"/>
<path d="M47.0431 41.9304L44.4812 40.2224C43.6893 39.7687 42.6799 40.0342 42.2137 40.8188C41.7724 41.6122 42.0355 42.6125 42.81 43.0862L45.372 44.7942C46.1638 45.2479 47.1733 44.9825 47.6395 44.1979C48.0807 43.4044 47.8177 42.4041 47.0431 41.9304Z" fill="black"/>
<path d="M-3.82431 10.5226C1.32906 8.60847 6.48243 6.7459 11.5916 4.714C13.3806 3.9778 12.637 1.0772 10.7818 1.76922C5.62844 3.71277 0.556056 5.82566 -4.54578 7.887C-6.13596 8.52749 -5.48811 11.1336 -3.80958 10.5152L-3.82431 10.5226Z" fill="black"/>
<path d="M58.6484 30.8585C63.8017 28.9444 68.9551 27.0818 74.0643 25.0499C75.8532 24.3137 75.1097 21.4131 73.2545 22.1052C68.1011 24.0487 63.0287 26.1616 57.9269 28.2229C56.3367 28.8634 56.9845 31.4696 58.6631 30.8512L58.6484 30.8585Z" fill="black"/>
<path d="M78.8375 3.70398L79.2718 1.996C79.4217 1.45287 79.2705 0.871019 78.8751 0.46962C78.4797 0.06822 77.9002 -0.0917426 77.3549 0.0499887C76.8095 0.191719 76.3812 0.613612 76.2313 1.15674L75.8264 2.83527C75.6765 3.3784 75.8277 3.96025 76.2231 4.36165C76.6185 4.76305 77.198 4.92302 77.7434 4.78128C78.2887 4.63955 78.717 4.21766 78.8669 3.67453L78.8375 3.70398Z" fill="black"/>
<path d="M8.06793 25.704L8.50228 23.996C8.6522 23.4529 8.50098 22.871 8.10557 22.4696C7.71017 22.0682 7.13065 21.9083 6.58533 22.05C6.04 22.1917 5.61171 22.6136 5.46179 23.1567L5.05689 24.8353C4.90697 25.3784 5.05819 25.9603 5.4536 26.3617C5.849 26.7631 6.42852 26.923 6.97384 26.7813C7.51917 26.6396 7.94745 26.2177 8.09737 25.6745L8.06793 25.704Z" fill="black"/>
<path d="M41.3596 87.1807L44.459 81.2911C45.3498 79.5905 42.6774 78.1107 41.9191 79.8187L39.1952 85.9365C38.5473 87.4089 40.5939 88.6604 41.3596 87.2028L41.3596 87.1807Z" fill="black"/>
<path d="M48.2685 58.4229C50.3155 56.3914 52.2264 54.2272 53.9888 51.9444C54.5068 51.3983 54.669 50.6051 54.4068 49.8995C54.1447 49.1939 53.504 48.699 52.7551 48.6235C52.0062 48.5481 51.2796 48.9053 50.882 49.5444C49.1555 51.8591 47.5816 54.2839 46.1704 56.8033C45.8465 57.3828 45.9958 58.112 46.5212 58.5176C47.0467 58.9233 47.79 58.883 48.2685 58.4229Z" fill="#FF6739"/>
<path d="M19.1342 47.9086L17.2054 46.6424C16.3749 46.1664 15.3161 46.445 14.8275 47.2681C14.368 48.1007 14.6434 49.1474 15.4532 49.646L17.3821 50.9123C18.2126 51.3883 19.2714 51.1096 19.76 50.2865C20.2195 49.4539 19.944 48.4072 19.1342 47.9086Z" fill="#FF6739"/>
<path d="M24.4993 75.4928L25.795 71.6572C25.9647 71.0404 25.7924 70.38 25.3431 69.9247C24.8937 69.4694 24.2357 69.2884 23.6167 69.4498C22.9977 69.6113 22.5119 70.0907 22.3423 70.7075L21.0907 74.5578C20.8326 75.499 21.3863 76.4714 22.3275 76.7296C23.2688 76.9878 24.2411 76.434 24.4993 75.4928Z" fill="#FF6739"/>
<path d="M1.47198 79.1021L2.76769 75.2666C2.93733 74.6498 2.76504 73.9894 2.31573 73.534C1.8664 73.0787 1.20831 72.8977 0.589347 73.0592C-0.0296197 73.2207 -0.515425 73.7001 -0.685071 74.3169L-1.9366 78.1672C-2.19479 79.1084 -1.64105 80.0808 -0.699795 80.3389C0.24146 80.5971 1.2138 80.0434 1.47198 79.1021Z" fill="#FF6739"/>
<path d="M36.8911 17.1141L37.6273 14.5816C37.7772 14.0385 37.626 13.4566 37.2306 13.0552C36.8352 12.6538 36.2557 12.4938 35.7104 12.6356C35.165 12.7773 34.7368 13.1992 34.5868 13.7423L34.0494 16.3264C33.873 17.0937 34.3315 17.864 35.0901 18.0748C35.8487 18.2856 36.6389 17.8624 36.8838 17.1141L36.8911 17.1141Z" fill="#FF6739"/>
<path d="M65.9753 76.2851L66.6158 68.5992C66.7925 66.5084 63.5238 66.5158 63.3544 68.5992L62.714 76.2851C62.5373 78.3759 65.7986 78.3611 65.9753 76.2851Z" fill="#FF6739"/>
<path d="M37.2683 59.2499L37.9088 51.564C38.0854 49.4732 34.8167 49.4806 34.6474 51.564L34.0069 59.2499C33.8302 61.3407 37.0916 61.326 37.2683 59.2499Z" fill="#FF6739"/>
<path d="M54.6059 15.4804C55.5249 13.929 55.903 12.1164 55.6808 10.327C55.4378 8.01533 52.044 8.45705 52.5299 10.754C52.7479 11.9987 52.6569 13.2779 52.2648 14.4791C52.121 15.0909 52.4395 15.7172 53.0187 15.9612C53.5978 16.2053 54.2686 15.9959 54.6059 15.4656L54.6059 15.4804Z" fill="#FF6739"/>
</svg>
