<svg width="52" height="91" viewBox="0 0 52 91" fill="none" xmlns="http://www.w3.org/2000/svg">
<path d="M10.7665 21.5412C9.72113 28.0492 14.3297 34.4762 20.2561 37.3547C23.4668 39.0005 27.1253 39.5586 30.6806 38.9449C35.2009 38.0394 39.0438 34.7707 41.2671 30.729C44.9184 23.8486 44.18 15.4641 39.3824 9.32775C34.3556 3.34498 26.2167 0.984699 18.769 3.34985C15.0144 4.63083 11.5027 7.42837 10.5898 11.286" fill="#C4C4C4"/>
<path d="M10.3818 21.5475C9.24068 30.7278 17.1842 38.6198 25.967 39.7241C35.4198 40.9168 42.9584 33.01 44.0774 24.0726C45.3206 15.0355 40.1662 6.33508 31.6431 3.08369C23.8762 0.183086 12.745 2.22235 10.0726 11.1229C10.0169 11.4171 10.1966 11.7046 10.4854 11.7836C10.7742 11.8625 11.0751 11.7063 11.1769 11.4248C13.7683 2.98799 24.5609 1.55241 31.702 4.48247C39.0673 7.55154 43.5909 15.0432 42.8774 22.9904C42.1854 31.1622 35.891 38.9364 27.1523 38.5536C18.4137 38.1708 10.264 30.507 11.1842 21.5475C11.2358 21.0321 10.448 21.0469 10.3818 21.5475Z" fill="#C4C4C4"/>
<path d="M9.22099 21.111C7.61608 31.3368 16.0234 40.3773 25.9473 41.6288C36.2541 42.9171 44.6246 34.3626 45.9645 24.6006C47.3191 14.6841 42.0258 5.06198 32.6099 1.42518C23.7756 -1.97604 11.3339 0.571194 8.38172 10.6497C7.54982 13.5061 11.9375 14.6914 12.7989 11.8792C15.1105 4.5172 24.8283 3.65585 30.924 6.20309C37.5319 9.0397 41.5473 15.8234 40.8553 22.981C40.259 30.1662 34.7081 36.8509 27.1032 36.6227C19.2553 36.3871 11.7682 29.5994 12.3425 21.538C12.4676 19.7564 9.47129 19.3295 9.19154 21.111L9.22099 21.111Z" fill="black"/>
<path d="M15.6717 17.1179C15.0533 22.5731 16.1944 28.4553 21.4141 31.3118C25.176 33.3731 31.2275 32.9829 33.5981 29.0296C34.5699 27.4173 32.1257 26.0848 31.1098 27.5572C29.0116 30.605 23.8435 27.8885 21.9441 26.0038C19.6883 23.5751 18.3817 20.4158 18.2631 17.1032C18.2631 16.3957 17.6896 15.8222 16.9822 15.8222C16.2747 15.8222 15.7012 16.3957 15.7012 17.1032L15.6717 17.1179Z" fill="white"/>
<path d="M36.3818 64.5967C37.1241 63.4448 38.1346 62.4899 39.3266 61.8139C41.1155 60.7832 39.4664 57.9488 37.7069 59.0458C36.0916 60.0484 34.7408 61.4244 33.7683 63.058C32.7597 64.7513 35.3437 66.2384 36.3965 64.5967L36.3818 64.5967Z" fill="black"/>
<path d="M34.6696 88.7067L33.8156 87.4257C33.5762 86.9266 33.0771 86.6039 32.5238 86.5905C31.9704 86.577 31.4562 86.8751 31.1929 87.362C30.9296 87.8489 30.9616 88.4423 31.2757 88.8981L32.1297 90.1717C32.5659 90.8045 33.4155 90.9954 34.0805 90.6099C34.7454 90.2244 35.002 89.3923 34.6696 88.6993L34.6696 88.7067Z" fill="black"/>
<path d="M7.33109 53.5055L14.59 54.7865C16.644 55.1546 17.5348 52.011 15.4587 51.6429L8.1998 50.362C6.14581 49.9939 5.25502 53.1374 7.33109 53.5055Z" fill="black"/>
<path d="M51.0251 85.0186L48.3674 81.9118C47.7977 81.3649 46.8979 81.3649 46.3282 81.9118C45.7812 82.4816 45.7812 83.3813 46.3282 83.9511L48.8754 87.1756C49.4731 87.7592 50.4273 87.7592 51.0251 87.1756C51.6057 86.5738 51.6057 85.6204 51.0251 85.0186Z" fill="#C4C4C4"/>
<path d="M45.9548 50.3535C48.6302 49.5913 50.7214 47.5001 51.4836 44.8247C52.0873 42.8517 48.9143 41.9756 48.3842 43.9707C47.8838 45.7433 46.6253 47.2039 44.9462 47.9609C43.5916 48.6088 44.5486 50.7511 45.9548 50.3535Z" fill="#C4C4C4"/>
<path d="M23.8352 70.5174C22.8118 68.7726 21.7664 67.0793 20.6401 65.364C19.5137 63.6487 17.0401 65.2168 18.056 66.8732C19.072 68.5297 20.2278 70.2671 21.391 71.9235C22.4217 73.3959 24.7701 72.0928 23.8352 70.4879L23.8352 70.5174Z" fill="#C4C4C4"/>
<path d="M1.69719 35.421C2.80628 35.1302 3.89563 34.7687 4.95853 34.3388C5.76979 34.0932 6.24583 33.2544 6.04074 32.432C5.80819 31.6104 4.9586 31.1282 4.13399 31.3498C2.94057 31.7995 1.77741 32.3257 0.65179 32.9253C0.0772516 33.2789 -0.154146 33.9982 0.106499 34.6205C0.367144 35.2427 1.04216 35.5824 1.69719 35.421Z" fill="#C4C4C4"/>
</svg>
