<svg width="483" height="565" viewBox="0 0 483 565" fill="none" xmlns="http://www.w3.org/2000/svg">
<path d="M293.865 349.316C302.881 352.743 307.654 363.284 306.96 372.909C306.697 378.181 304.727 383.225 301.349 387.281C296.894 392.347 289.941 394.825 283.199 394.676C271.791 394.288 261.687 387.206 257.432 376.615C253.521 365.869 256.489 353.825 264.946 346.127C269.307 342.302 275.421 339.899 280.986 341.569" fill="#FF6739"/>
<path d="M294.161 348.802C306.628 354.072 310.817 369.911 305.8 381.853C300.387 394.698 284.853 398.466 272.71 393.346C260.342 388.299 253.095 375.383 255.232 362.198C257.239 350.234 267.966 337.621 281.205 340.737C282.294 341.005 281.826 342.613 280.774 342.367C268.188 339.478 258.473 352.104 256.962 363.296C255.462 374.874 261.646 386.086 272.238 390.996C283.108 396.103 297.554 393.809 303.472 382.462C309.389 371.114 305.6 355.207 293.574 349.819C292.883 349.507 293.478 348.52 294.161 348.802Z" fill="#FF6739"/>
<path d="M294.448 347.05C308.574 352.506 313.879 369.773 308.205 383.263C302.307 397.271 285.334 401.614 271.989 396.161C258.433 390.623 250.117 376.891 252.397 362.299C254.541 348.611 266.871 334.71 281.801 338.342C286.038 339.383 284.33 345.81 280.127 344.839C269.16 342.4 260.916 354.071 259.675 363.653C258.436 374.101 264.094 384.152 273.67 388.511C283.216 393.003 295.747 390.86 301.016 381.066C306.459 370.949 303.335 356.496 292.706 351.317C290.366 350.178 292.002 346.073 294.47 347.012L294.448 347.05Z" fill="black"/>
<path d="M284.666 352.308C292.031 355.516 298.65 361.265 298.46 369.974C298.311 376.243 293.394 383.617 286.645 383.737C283.892 383.789 283.991 379.717 286.6 379.507C291.997 379.078 292.326 370.537 291.328 366.752C289.901 362.116 286.853 358.149 282.743 355.576C281.846 355.058 281.539 353.912 282.057 353.016C282.574 352.119 283.72 351.812 284.617 352.33L284.666 352.308Z" fill="white"/>
<path d="M278.296 385.908L278.128 385.811C277.773 385.723 277.45 385.536 277.195 385.273C276.952 385.026 276.777 384.719 276.689 384.383L276.618 383.882C276.614 383.53 276.707 383.183 276.885 382.88C277.007 382.639 277.193 382.436 277.423 382.294C277.612 382.121 277.844 382.002 278.095 381.948C278.43 381.857 278.782 381.855 279.118 381.942C279.474 382.031 279.797 382.217 280.051 382.481L280.219 382.578L280.533 382.983C280.668 383.197 280.744 383.443 280.755 383.696C280.801 383.858 280.801 384.031 280.754 384.193C280.744 384.455 280.666 384.71 280.526 384.932L280.203 385.342L279.803 385.646C279.587 385.778 279.342 385.854 279.09 385.869C278.841 385.927 278.581 385.915 278.339 385.834L278.296 385.908Z" fill="white"/>
<path d="M269.657 376.437L269.754 376.269C269.834 375.938 270.008 375.637 270.255 375.402C270.487 375.173 270.774 375.009 271.089 374.926L271.561 374.863C271.895 374.857 272.224 374.944 272.511 375.113C272.735 375.227 272.923 375.4 273.056 375.613C273.217 375.795 273.329 376.014 273.384 376.251C273.462 376.565 273.461 376.893 273.38 377.206C273.3 377.538 273.126 377.839 272.879 378.074L272.782 378.242L272.403 378.532C272.2 378.656 271.97 378.728 271.734 378.743C271.579 378.779 271.419 378.776 271.266 378.735C271.022 378.73 270.784 378.657 270.579 378.524L270.182 378.221L269.901 377.847C269.773 377.646 269.701 377.415 269.69 377.178C269.642 376.943 269.65 376.701 269.713 376.47L269.657 376.437Z" fill="white"/>
<path d="M274.469 364.27L274.187 364.306L273.632 364.234C273.35 364.158 273.093 364.009 272.886 363.803C272.722 363.707 272.587 363.569 272.495 363.403C272.309 363.197 272.179 362.947 272.118 362.676L272.041 362.121L272.107 361.575C272.183 361.293 272.332 361.036 272.538 360.829C272.689 360.59 272.901 360.394 273.151 360.262L273.423 360.158C273.75 359.97 274.12 359.87 274.497 359.87C274.877 359.861 275.252 359.957 275.581 360.148L276.047 360.504C276.312 360.775 276.504 361.108 276.606 361.474C276.69 361.746 276.703 362.036 276.643 362.315C276.631 362.607 276.541 362.89 276.381 363.135C276.189 363.46 275.917 363.731 275.591 363.922C275.262 364.105 274.893 364.203 274.516 364.21L274.469 364.27Z" fill="white"/>
<path d="M267.224 369.195C266.42 368.731 266.145 367.704 266.609 366.9C267.073 366.096 268.1 365.821 268.904 366.285C269.708 366.749 269.983 367.777 269.519 368.58C269.055 369.384 268.027 369.659 267.224 369.195Z" fill="white"/>
<path d="M230.206 93.455C239.217 96.8914 243.99 107.433 243.301 117.048C243.038 122.32 241.069 127.365 237.69 131.421C233.236 136.486 226.282 138.964 219.535 138.824C208.145 138.418 198.061 131.348 193.795 120.78C189.892 110.033 192.856 97.9936 201.301 90.2867C205.671 86.4663 211.785 84.0632 217.341 85.7287" fill="#FF6739"/>
<path d="M230.804 91.1692C244.935 96.6165 250.24 113.883 244.566 127.374C238.658 141.376 221.695 145.724 208.345 140.281C194.789 134.742 186.469 120.996 188.749 106.404C190.902 92.7217 203.232 78.8201 218.162 82.4525C222.39 83.4881 220.682 89.915 216.488 88.9491C205.469 86.4924 197.268 98.1759 196.036 107.763C194.797 118.212 200.455 128.262 210.031 132.622C219.571 137.123 232.103 134.979 237.377 125.176C242.82 115.06 239.696 100.607 229.061 95.4369C226.712 94.2921 228.363 90.183 230.825 91.1319L230.804 91.1692Z" fill="black"/>
<path d="M221.02 96.419C228.385 99.6263 235.004 105.375 234.804 114.079C234.664 120.354 229.743 127.737 222.999 127.848C220.245 127.9 220.345 123.828 222.954 123.618C228.351 123.189 228.689 114.653 227.691 110.868C226.264 106.232 223.216 102.265 219.106 99.6918C218.209 99.1743 217.902 98.028 218.42 97.1315C218.937 96.2351 220.083 95.928 220.98 96.4455L221.02 96.419Z" fill="white"/>
<path d="M230.505 92.9492C242.972 98.2194 247.161 114.058 242.135 125.995C236.731 138.845 221.197 142.613 209.053 137.493C196.693 132.457 189.439 119.561 191.555 106.382C193.561 94.4187 204.289 81.8059 217.522 84.9311C217.935 85.0758 218.168 85.5138 218.057 85.9375C217.946 86.3611 217.528 86.6283 217.096 86.5512C204.51 83.6627 194.795 96.288 193.284 107.48C191.785 119.058 197.968 130.271 208.56 135.181C219.421 140.282 233.877 137.994 239.785 126.641C245.692 115.288 241.944 99.3545 229.918 93.966C229.227 93.6543 229.822 92.6669 230.505 92.9492Z" fill="#FF6739"/>
<path d="M352.528 99.7159C359.893 102.923 366.511 108.672 366.312 117.376C366.172 123.651 361.251 131.033 354.507 131.145C351.753 131.197 351.853 127.125 354.462 126.915C359.859 126.486 360.197 117.95 359.199 114.164C357.772 109.529 354.724 105.562 350.613 102.989C349.717 102.471 349.41 101.325 349.927 100.428C350.445 99.532 351.591 99.2248 352.488 99.7424L352.528 99.7159Z" fill="white"/>
<path d="M175.143 236.077C184.619 234.271 194.215 240.744 198.673 249.288C201.215 253.917 202.189 259.245 201.448 264.473C200.302 271.112 195.739 276.861 189.886 280.298C179.972 285.949 167.66 285.227 158.474 278.456C149.512 271.356 145.719 259.549 148.87 248.558C150.578 243.014 154.523 237.754 160.129 236.252" fill="#FF6739"/>
<path d="M174.978 235.531C188.034 233.492 199.679 244.021 202.175 256.457C205.036 270.547 193.674 282.644 180.168 284.709C167.288 286.821 154.605 279.979 149.297 268.056C144.365 256.713 146.684 239.88 159.881 235.484C160.91 235.145 161.343 236.764 160.318 237.117C147.565 241.433 146.392 258.331 151.646 268.727C156.899 279.124 168.415 284.491 179.79 282.8C192.573 280.889 203.119 269.515 200.214 256.171C197.741 244.793 187.192 235.058 175.12 236.707C174.458 236.798 174.304 235.664 174.962 235.559L174.978 235.531Z" fill="#FF6739"/>
<path d="M174.55 233.813C188.735 231.131 201.931 242.097 204.882 255.728C208.286 271.375 195.979 285.066 180.941 287.479C166.532 289.794 152.244 282.378 146.648 268.761C141.358 255.906 144.621 237.802 159.255 233.03C163.399 231.691 165.031 238.106 160.992 239.543C150.006 243.362 149.615 258.559 154.088 267.336C158.956 276.545 169.156 281.624 179.439 279.957C190.577 278.265 199.818 268.551 197.59 256.854C195.572 246.348 186.242 237.28 175.181 238.406C172.54 238.672 171.949 234.289 174.56 233.794L174.55 233.813Z" fill="black"/>
<path d="M168.44 243.5C176.019 242.415 184.088 243.218 188.972 249.882C193.147 255.576 193.092 264.935 186.987 269.196C185.043 270.561 182.572 267.344 184.452 265.854C189.22 262.077 185.088 254.605 181.48 251.613C177.891 248.806 173.484 247.248 168.928 247.178C166.921 247.101 166.22 243.811 168.43 243.495L168.44 243.5Z" fill="white"/>
<path d="M181.1 275.411L180.899 275.457C180.206 275.635 179.471 275.433 178.967 274.926L178.653 274.521C178.487 274.218 178.397 273.88 178.389 273.535C178.406 273.004 178.618 272.497 178.986 272.113C179.226 271.865 179.531 271.688 179.866 271.601C180.201 271.513 180.553 271.511 180.889 271.595L181.08 271.631L181.575 271.83C181.803 271.952 181.995 272.131 182.133 272.35C182.254 272.468 182.341 272.617 182.382 272.78C182.499 273.005 182.555 273.256 182.546 273.509L182.482 274.007L182.283 274.502C182.164 274.736 181.982 274.933 181.757 275.069C181.569 275.234 181.343 275.352 181.1 275.411Z" fill="white"/>
<path d="M168.781 271.839L168.735 271.638C168.651 271.324 168.649 270.993 168.73 270.678C168.817 270.353 168.988 270.058 169.225 269.819L169.619 269.525C169.899 269.364 170.214 269.277 170.537 269.271C170.785 269.264 171.03 269.321 171.251 269.434C171.494 269.5 171.716 269.628 171.895 269.806C172.126 270.036 172.29 270.324 172.371 270.64C172.461 270.954 172.463 271.287 172.376 271.601L172.349 271.797L172.163 272.25C172.051 272.47 171.879 272.655 171.668 272.784C171.557 272.896 171.416 272.975 171.263 273.011C171.053 273.124 170.816 273.176 170.578 273.163L170.108 273.115L169.647 272.924C169.429 272.812 169.247 272.643 169.121 272.434C168.961 272.258 168.849 272.043 168.797 271.811L168.781 271.839Z" fill="white"/>
<path d="M166.845 258.679L166.617 258.859C166.427 259.066 166.185 259.218 165.915 259.299C165.668 259.43 165.392 259.493 165.113 259.483L164.567 259.416C164.284 259.34 164.027 259.192 163.82 258.985C163.656 258.892 163.52 258.757 163.424 258.595C163.235 258.384 163.104 258.129 163.044 257.853L162.97 257.313C162.969 256.934 163.068 256.562 163.257 256.234L163.397 255.992C163.589 255.666 163.861 255.395 164.187 255.204L164.707 254.994C165.073 254.896 165.459 254.895 165.826 254.994C166.114 255.067 166.375 255.218 166.582 255.43C166.826 255.583 167.024 255.8 167.152 256.058C167.425 256.561 167.503 257.146 167.372 257.702C167.274 258.085 167.073 258.434 166.79 258.71L166.845 258.679Z" fill="white"/>
<path d="M162.021 266.75C161.217 266.286 160.942 265.258 161.406 264.455C161.87 263.651 162.897 263.375 163.701 263.84C164.505 264.304 164.78 265.331 164.316 266.135C163.852 266.939 162.824 267.214 162.021 266.75Z" fill="white"/>
<path d="M324.685 244.334L324.485 244.38C324.15 244.472 323.797 244.474 323.461 244.386C323.106 244.298 322.783 244.111 322.529 243.848L322.22 243.433C322.047 243.137 321.955 242.8 321.951 242.457C321.939 242.193 321.996 241.93 322.117 241.695C322.187 241.434 322.325 241.196 322.516 241.004C322.756 240.761 323.059 240.587 323.39 240.502C323.725 240.41 324.078 240.408 324.414 240.496L324.61 240.522L325.09 240.725C325.323 240.844 325.521 241.022 325.663 241.242C325.777 241.367 325.861 241.517 325.906 241.681C326.024 241.905 326.08 242.157 326.07 242.41L326.006 242.908L325.813 243.393C325.535 243.824 325.117 244.145 324.629 244.302L324.685 244.334Z" fill="white"/>
<path d="M312.374 240.722L312.329 240.521C312.238 240.211 312.235 239.882 312.318 239.57C312.408 239.242 312.58 238.944 312.819 238.702L313.213 238.408C313.492 238.25 313.805 238.166 314.125 238.163C314.375 238.148 314.623 238.202 314.845 238.317C315.088 238.383 315.31 238.511 315.489 238.689C315.712 238.925 315.875 239.211 315.964 239.523C316.05 239.838 316.052 240.169 315.97 240.484L315.943 240.68L315.751 241.142C315.64 241.359 315.47 241.541 315.261 241.667C315.149 241.782 315.007 241.864 314.852 241.903C314.64 242.013 314.404 242.065 314.167 242.055L313.702 241.998L313.241 241.807C313.026 241.694 312.843 241.529 312.71 241.326C312.547 241.149 312.436 240.93 312.391 240.694L312.374 240.722Z" fill="white"/>
<path d="M305.603 235.675C304.882 235.178 304.664 234.21 305.102 233.452C305.54 232.693 306.487 232.398 307.278 232.774C307.999 233.271 308.218 234.239 307.78 234.997C307.342 235.756 306.395 236.051 305.603 235.675Z" fill="white"/>
<path d="M210.287 509.983C206.856 518.985 196.309 523.767 186.699 523.069C181.427 522.808 176.381 520.842 172.322 517.467C167.262 513.003 164.778 506.06 164.918 499.312C165.311 487.906 172.391 477.805 182.979 473.544C193.725 469.635 205.768 472.599 213.472 481.05C217.297 485.411 219.695 491.534 218.03 497.09" fill="#FF6739"/>
<path d="M210.803 510.273C205.533 522.741 189.694 526.929 177.757 521.903C164.916 516.505 161.139 500.965 166.265 488.813C171.3 476.455 184.195 469.205 197.37 471.323C209.334 473.33 221.946 484.057 218.836 497.286C218.72 497.738 218.259 498.009 217.808 497.893C217.356 497.777 217.085 497.316 217.201 496.865C220.095 484.269 207.47 474.555 196.278 473.043C184.698 471.552 173.488 477.74 168.581 488.334C163.47 499.189 165.759 513.645 177.112 519.553C188.465 525.461 204.398 521.712 209.786 509.686C210.103 508.986 211.091 509.581 210.803 510.273Z" fill="#FF6739"/>
<path d="M212.548 510.57C207.092 524.696 189.825 530.001 176.34 524.317C162.332 518.419 157.984 501.455 163.442 488.102C168.98 474.545 182.712 466.229 197.304 468.509C210.986 470.663 224.897 482.998 221.256 497.923C220.229 502.156 213.793 500.443 214.764 496.24C217.194 485.267 205.523 477.023 195.935 475.792C185.486 474.55 175.433 480.205 171.068 489.78C166.576 499.327 168.725 511.848 178.519 517.117C188.635 522.56 203.083 519.446 208.262 508.817C209.407 506.468 213.516 508.119 212.567 510.581L212.548 510.57Z" fill="black"/>
<path d="M207.301 500.771C204.098 508.15 198.34 514.764 189.636 514.565C183.361 514.424 175.993 509.499 175.867 502.759C175.815 500.005 179.887 500.105 180.097 502.714C180.535 508.116 189.077 508.446 192.847 507.451C197.484 506.019 201.452 502.969 204.029 498.856C204.546 497.96 205.692 497.653 206.589 498.17C207.485 498.688 207.792 499.834 207.275 500.731L207.301 500.771Z" fill="white"/>
<path d="M173.665 494.448L173.762 494.28C173.94 493.584 174.483 493.039 175.179 492.86L175.681 492.789C176.037 492.782 176.389 492.873 176.698 493.052C176.932 493.178 177.13 493.361 177.274 493.584C177.448 493.775 177.566 494.011 177.614 494.265C177.806 494.958 177.607 495.701 177.092 496.203L176.995 496.371L176.587 496.67C176.374 496.803 176.133 496.881 175.883 496.898C175.716 496.939 175.542 496.937 175.376 496.892C175.117 496.889 174.864 496.812 174.647 496.669L174.222 496.349L173.923 495.941C173.79 495.728 173.712 495.487 173.695 495.237C173.642 494.988 173.654 494.729 173.73 494.486L173.665 494.448Z" fill="white"/>
<path d="M183.168 485.777L183.345 485.879C183.669 485.967 183.965 486.137 184.203 486.375C184.435 486.604 184.599 486.893 184.679 487.209L184.743 487.681C184.747 488.014 184.66 488.343 184.492 488.631C184.228 489.047 183.825 489.356 183.354 489.504C183.04 489.593 182.708 489.594 182.394 489.509C182.069 489.421 181.773 489.25 181.535 489.013L181.358 488.911L181.077 488.537C180.949 488.336 180.877 488.106 180.866 487.868C180.82 487.717 180.818 487.556 180.86 487.404C180.868 487.157 180.942 486.917 181.075 486.708L181.374 486.32L181.753 486.03C181.956 485.906 182.185 485.834 182.422 485.819C182.655 485.769 182.897 485.78 183.125 485.851L183.168 485.777Z" fill="white"/>
<path d="M195.371 490.588L195.335 490.306L195.407 489.751C195.482 489.472 195.628 489.217 195.833 489.014C195.926 488.845 196.063 488.705 196.229 488.608C196.436 488.424 196.686 488.295 196.956 488.232L197.505 488.163L198.061 488.235C198.342 488.305 198.597 488.452 198.798 488.661C199.04 488.811 199.235 489.027 199.359 489.283L199.478 489.551C199.66 489.88 199.759 490.249 199.766 490.625C199.763 491.003 199.665 491.374 199.479 491.703L199.123 492.169C198.853 492.432 198.521 492.621 198.158 492.72C197.595 492.84 197.006 492.764 196.492 492.504C196.167 492.308 195.898 492.033 195.71 491.704C195.527 491.375 195.428 491.006 195.422 490.63L195.371 490.588Z" fill="white"/>
<path d="M191.044 485.609C190.24 485.145 189.965 484.118 190.429 483.314C190.893 482.51 191.921 482.235 192.724 482.699C193.528 483.163 193.804 484.191 193.34 484.994C192.875 485.798 191.848 486.073 191.044 485.609Z" fill="white"/>
<path d="M125.773 353.258C135.247 351.476 144.833 357.968 149.265 366.535C151.798 371.165 152.756 376.494 151.993 381.716C150.841 388.365 146.215 394.115 140.384 397.515C130.456 403.125 118.154 402.36 108.998 395.563C100.058 388.449 96.2942 376.644 99.4657 365.669C101.189 360.121 105.147 354.881 110.757 353.394" fill="#FF6739"/>
<path d="M125.618 352.701C138.681 350.691 150.296 361.252 152.763 373.696C155.558 387.835 144.196 399.845 130.676 401.89C117.788 403.966 105.122 397.087 99.8448 385.147C94.9479 373.788 97.3088 356.966 110.518 352.615C111.552 352.267 111.981 353.894 110.952 354.233C98.1904 358.52 96.9688 375.414 102.193 385.819C107.418 396.224 118.885 401.675 130.289 399.975C143.084 398.109 153.662 386.766 150.801 373.41C148.347 362.042 137.845 352.247 125.776 353.849C125.119 353.93 124.965 352.797 125.618 352.701Z" fill="#FF6739"/>
<path d="M125.175 350.998C139.362 348.355 152.539 359.334 155.455 372.983C158.859 388.63 146.472 402.287 131.436 404.675C117.019 406.961 102.743 399.503 97.1759 385.878C91.9249 373.02 95.1762 354.872 109.878 350.176C114.031 348.842 115.7 355.279 111.621 356.68C100.627 360.469 100.169 375.653 104.621 384.443C109.453 393.671 119.636 398.785 129.923 397.148C141.074 395.501 150.352 385.808 148.197 374.115C146.211 363.616 136.909 354.501 125.84 355.598C123.199 355.864 122.598 351.475 125.219 350.986L125.175 350.998Z" fill="black"/>
<path d="M119.051 360.677C126.634 359.608 134.701 360.435 139.561 367.096C143.726 372.809 143.656 382.172 137.533 386.423C135.579 387.782 133.117 384.57 135.006 383.086C139.789 379.305 135.672 371.829 132.056 368.808C128.473 365.991 124.068 364.422 119.511 364.339C117.509 364.253 116.799 360.957 119.013 360.656L119.051 360.677Z" fill="white"/>
<path d="M131.615 392.622L131.414 392.668C130.722 392.846 129.986 392.644 129.482 392.137L129.169 391.732C129.003 391.429 128.912 391.091 128.904 390.746C128.921 390.215 129.134 389.708 129.501 389.324C129.742 389.076 130.046 388.899 130.381 388.813C130.717 388.724 131.069 388.722 131.405 388.807L131.596 388.842L132.091 389.041C132.319 389.162 132.512 389.341 132.648 389.562C132.77 389.679 132.856 389.828 132.897 389.992C133.014 390.216 133.071 390.467 133.061 390.72L132.997 391.219L132.799 391.713C132.68 391.948 132.497 392.144 132.273 392.28C132.086 392.448 131.86 392.565 131.615 392.622Z" fill="white"/>
<path d="M119.281 388.964L119.235 388.763C119.151 388.45 119.153 388.121 119.239 387.808C119.317 387.48 119.489 387.181 119.735 386.95L120.119 386.65C120.4 386.49 120.718 386.408 121.041 386.411C121.287 386.393 121.533 386.444 121.751 386.559C121.997 386.627 122.222 386.757 122.404 386.936C122.625 387.171 122.785 387.455 122.871 387.766C122.959 388.079 122.961 388.411 122.876 388.726L122.85 388.922L122.658 389.384C122.546 389.601 122.377 389.783 122.168 389.909C122.055 390.024 121.914 390.106 121.758 390.145C121.545 390.251 121.31 390.303 121.073 390.297L120.608 390.241L120.147 390.049C119.93 389.937 119.748 389.768 119.621 389.559C119.456 389.386 119.343 389.17 119.297 388.936L119.281 388.964Z" fill="white"/>
<path d="M117.456 375.829L117.223 376.018C117.031 376.223 116.789 376.375 116.521 376.458C116.273 376.578 116 376.638 115.724 376.632L115.168 376.56C114.89 376.486 114.635 376.339 114.431 376.135C114.264 376.038 114.126 375.898 114.031 375.73C113.848 375.522 113.718 375.272 113.655 375.002L113.587 374.453C113.586 374.075 113.685 373.703 113.873 373.375L114.019 373.123C114.218 372.802 114.493 372.533 114.818 372.341L115.338 372.131C115.704 372.032 116.091 372.032 116.457 372.13C116.745 372.203 117.006 372.354 117.213 372.567C117.451 372.727 117.646 372.942 117.783 373.194C118.037 373.703 118.114 374.281 118.003 374.839C117.896 375.218 117.696 375.564 117.422 375.846L117.456 375.829Z" fill="white"/>
<path d="M112.544 383.898C111.74 383.434 111.465 382.407 111.929 381.603C112.393 380.799 113.421 380.524 114.224 380.988C115.028 381.452 115.304 382.48 114.84 383.283C114.375 384.087 113.348 384.362 112.544 383.898Z" fill="white"/>
<path d="M272.166 181.098C266.119 191.723 260.332 201.79 255.729 213.188C254.39 216.519 248.931 215.246 250.193 211.745C254.419 200.118 260.674 187.883 268.795 178.492C270.413 176.615 273.342 179.04 272.166 181.098Z" fill="black"/>
<path d="M224.064 191.655C222.594 190.609 220.843 190.031 219.039 189.997C216.294 189.968 216.319 185.616 218.993 185.767C221.526 185.877 223.97 186.734 226.017 188.23C226.923 188.793 227.234 189.965 226.725 190.903C226.179 191.825 224.996 192.142 224.062 191.616L224.064 191.655Z" fill="black"/>
<path d="M210.223 221.896L208.637 220.894C207.798 220.48 207.259 219.633 207.238 218.697C207.218 217.762 207.72 216.892 208.54 216.442C209.361 215.992 210.364 216.036 211.142 216.556L212.808 217.418C214.045 218.132 214.468 219.713 213.754 220.95C213.04 222.186 211.459 222.61 210.223 221.896Z" fill="black"/>
<path d="M306.134 280.596C297.874 288.439 286.28 293.225 275.48 296.269C271.49 297.385 269.785 291.053 273.816 290.059C284.687 287.368 293.741 282.284 303.558 277.193C305.67 276.099 307.956 278.862 306.134 280.596Z" fill="black"/>
<path d="M242.55 274.465C242.339 274.443 242.127 274.445 241.92 274.437C241.515 274.427 242.219 274.349 241.854 274.399C241.489 274.45 241.452 274.515 241.246 274.57C240.804 274.689 241.278 274.514 241.049 274.631L240.604 274.884C240.379 275.015 240.728 274.67 240.447 275.005C240.367 275.145 240.211 275.242 240.097 275.375C240.425 274.979 239.968 275.599 239.941 275.645C239.514 276.509 238.642 277.064 237.679 277.084C236.716 277.105 235.821 276.589 235.357 275.744C234.894 274.899 234.938 273.867 235.473 273.066C236.835 270.161 240.041 268.602 243.168 269.324C244.415 269.658 245.224 270.86 245.065 272.141C244.905 273.422 243.825 274.389 242.534 274.406L242.55 274.465Z" fill="black"/>
<path d="M220.032 306.707L219.781 310.89C219.788 312.295 218.654 313.44 217.249 313.446C215.844 313.452 214.7 312.318 214.693 310.913L214.939 306.739C214.93 305.333 216.063 304.185 217.47 304.176C218.876 304.168 220.024 305.301 220.032 306.707Z" fill="black"/>
<path d="M213.539 352.274C210.526 350.534 213.219 345.87 216.232 347.609C219.245 349.349 216.553 354.013 213.539 352.274Z" fill="black"/>
<path d="M249.184 446.374C246.585 439.177 245.687 430.996 244.07 423.52C243.409 420.464 248.127 419.208 248.749 422.266C250.319 429.952 252.805 437.991 253.334 445.822C253.478 448.393 249.944 448.504 249.179 446.383L249.184 446.374Z" fill="black"/>
<path d="M198.547 444.346L192.534 437.267C190.386 434.783 194.058 431.094 196.216 433.647L202.235 440.716C204.383 443.2 200.711 446.888 198.547 444.346Z" fill="black"/>
<path d="M283.878 469.797L283.588 465.301C283.592 463.966 284.667 462.881 286.002 462.865C287.331 462.886 288.406 463.951 288.439 465.279L288.729 469.775C288.725 471.11 287.65 472.195 286.315 472.212C284.986 472.19 283.911 471.125 283.878 469.797Z" fill="black"/>
<path d="M292.426 433.438C291.851 431.412 291.869 429.264 292.479 427.249C292.799 426.016 294.059 425.276 295.292 425.596C296.526 425.917 297.266 427.177 296.945 428.41C296.527 429.659 296.5 431.006 296.868 432.271C297.694 435.149 293.196 436.37 292.454 433.454L292.426 433.438Z" fill="black"/>
<path d="M326.495 321.512C325.17 320.637 323.616 320.173 322.029 320.177C319.243 320.198 319.249 315.749 322.016 315.891C324.343 315.964 326.6 316.71 328.513 318.038C330.573 319.488 328.729 322.876 326.52 321.489L326.495 321.512Z" fill="black"/>
<path d="M192.258 391.544C186.063 396.674 179.932 401.841 173.62 406.829C171.378 408.557 168.247 405.493 170.481 403.648C176.714 398.54 183.102 393.659 189.446 388.702C191.421 387.156 194.25 389.883 192.238 391.558L192.258 391.544Z" fill="black"/>
<path d="M128.789 444.315C128.751 444.012 128.686 443.713 128.596 443.421C128.729 443.858 128.404 443.086 128.352 442.981C128.184 442.735 128.174 442.729 128.352 442.981L128.029 442.658C127.8 442.451 127.8 442.451 128.029 442.658L127.628 442.426C126.412 441.724 125.996 440.169 126.698 438.954C127.4 437.738 128.954 437.321 130.17 438.023C132.175 439.267 133.461 441.398 133.629 443.752C133.61 444.977 132.697 446.004 131.483 446.168C130.268 446.331 129.117 445.582 128.774 444.406L128.789 444.315Z" fill="black"/>
<path d="M123.154 491.297L120.672 490.597C119.874 490.39 119.248 489.773 119.028 488.978C118.809 488.183 119.03 487.332 119.609 486.745C120.187 486.157 121.035 485.923 121.833 486.131L124.256 486.846C125.054 487.053 125.681 487.67 125.9 488.465C126.12 489.26 125.898 490.111 125.32 490.698C124.741 491.286 123.893 491.52 123.095 491.312L123.154 491.297Z" fill="black"/>
<path d="M266.018 157.425C264.016 157.523 262.066 158.105 260.338 159.121C257.723 160.633 255.338 156.47 258.015 155.043C260.467 153.73 263.199 153.025 265.981 152.988C268.864 152.948 268.858 157.311 266.007 157.444L266.018 157.425Z" fill="black"/>
<path d="M256.366 504.863L246.636 504.482C243.829 504.366 243.909 499.898 246.628 500.186L256.373 501.21C258.712 501.467 258.801 504.975 256.394 504.879L256.366 504.863Z" fill="black"/>
<path d="M273.232 112.469L269.544 122.604C268.508 125.476 263.873 124.305 264.926 121.405L268.613 111.27C269.649 108.398 274.284 109.569 273.232 112.469Z" fill="black"/>
<path d="M161.638 301.443C162.979 311.422 163.349 325.839 155.606 333.434C152.333 336.669 147.154 331.377 150.602 328.356C157.364 322.396 156.281 309.731 156.744 301.454C156.926 298.25 161.184 298.395 161.6 301.422L161.638 301.443Z" fill="black"/>
<path d="M89.7707 433.43C79.9132 438.224 70.4211 443.764 60.5425 448.508C57.3425 450.044 54.6916 445.565 57.7823 443.681C67.124 437.992 77.3765 433.612 87.3645 429.217C90.1704 427.976 92.624 432.042 89.7707 433.43Z" fill="black"/>
<path d="M397.526 160.722C395.523 160.82 393.574 161.402 391.846 162.417C389.231 163.93 386.846 159.767 389.523 158.34C391.975 157.027 394.707 156.322 397.488 156.285C400.372 156.245 400.366 160.608 397.515 160.741L397.526 160.722Z" fill="black"/>
<path d="M297.835 172.874L296.837 170.854C296.38 170.186 296.336 169.317 296.724 168.606C297.111 167.895 297.865 167.462 298.675 167.484C299.484 167.507 300.213 167.982 300.561 168.713L301.55 170.727C302.033 171.743 301.653 172.959 300.678 173.519C299.703 174.08 298.461 173.796 297.826 172.868L297.835 172.874Z" fill="black"/>
<path d="M404.739 115.766L401.052 125.901C400.016 128.773 395.381 127.602 396.433 124.702L400.121 114.567C401.157 111.695 405.792 112.866 404.739 115.766Z" fill="black"/>
<path d="M348.035 366.875C345.507 368.904 342.57 370.361 339.425 371.146C336.525 371.86 335.33 367.252 338.242 366.731C340.869 366.226 343.354 365.151 345.521 363.583C347.437 362.202 349.931 365.445 348.047 366.919L348.035 366.875Z" fill="black"/>
<path d="M340.417 259.423L336.721 265.996C335.213 268.608 331.113 266.253 332.654 263.648L336.489 257.156C337.949 254.628 341.858 256.884 340.417 259.423Z" fill="black"/>
<path d="M315.653 406.465C312.41 405.022 309.327 403.242 306.455 401.155C304.13 399.451 306.354 395.512 308.728 397.218C311.6 399.305 314.682 401.085 317.926 402.528C320.634 403.719 318.318 407.73 315.621 406.521L315.653 406.465Z" fill="black"/>
<path d="M234.781 398.546C230.709 399.654 226.569 400.492 222.387 401.055C221.316 401.312 220.192 400.937 219.49 400.089C218.787 399.24 218.629 398.066 219.081 397.062C219.534 396.058 220.518 395.399 221.619 395.363C225.815 394.868 230.039 394.648 234.263 394.703C235.234 394.716 236.049 395.439 236.179 396.401C236.308 397.364 235.714 398.276 234.781 398.546Z" fill="#FF6739"/>
<path d="M234.263 368.076L233.885 359.251C233.73 355.815 239.117 355.791 239.206 359.213L239.428 368.048C239.518 371.383 234.422 371.377 234.263 368.076Z" fill="#FF6739"/>
<path d="M244.41 340.73C245.654 337.284 248.18 334.452 251.462 332.823C254.394 331.407 256.948 335.817 253.986 337.241C251.876 338.172 250.204 339.879 249.318 342.009C248.928 343.343 247.567 344.143 246.211 343.835C244.861 343.469 244.053 342.09 244.395 340.733L244.41 340.73Z" fill="#FF6739"/>
<path d="M283.445 339.808C283.348 339.503 283.345 339.464 283.438 339.691C283.364 339.532 283.278 339.378 283.18 339.232C283.499 339.714 282.72 338.78 282.996 339.013C283.154 339.105 282.52 338.739 282.399 338.669C282.845 338.864 281.901 338.605 281.786 338.588C280.394 338.192 279.568 336.763 279.919 335.359C280.334 333.982 281.748 333.165 283.149 333.492C285.784 333.948 287.914 335.896 288.602 338.481C289.513 341.793 284.377 343.169 283.461 339.866L283.445 339.808Z" fill="#FF6739"/>
<path d="M327.634 353.888L322.865 349.007C320.682 346.777 324.152 343.332 326.322 345.605L331.068 350.547C333.184 352.763 329.822 356.109 327.672 353.909L327.634 353.888Z" fill="#FF6739"/>
<path d="M295.508 310.43C293.289 311.524 291.318 313.061 289.717 314.947C287.898 317.019 284.302 314.308 285.857 311.959C287.603 309.318 290.046 307.211 292.915 305.873C295.941 304.423 298.582 308.983 295.508 310.43Z" fill="#FF6739"/>
<path d="M222.837 447.981L222.643 444.61C222.648 443.21 223.775 442.072 225.176 442.055C226.567 442.082 227.692 443.196 227.731 444.587L227.924 447.958C227.92 449.358 226.792 450.496 225.392 450.513C224.001 450.486 222.876 449.371 222.837 447.981Z" fill="#FF6739"/>
<path d="M253.883 474.956L248.075 473.792C247.169 473.556 246.458 472.854 246.21 471.952C245.962 471.049 246.214 470.083 246.871 469.417C247.529 468.751 248.492 468.486 249.397 468.722L255.192 469.953C256.573 470.314 257.4 471.727 257.039 473.109C256.677 474.491 255.264 475.317 253.883 474.956Z" fill="#FF6739"/>
<path d="M170.842 447.945L167.094 447.025C166.297 446.818 165.67 446.201 165.451 445.406C165.231 444.611 165.452 443.76 166.031 443.173C166.609 442.585 167.457 442.351 168.255 442.559L171.923 443.768C173.024 444.106 173.665 445.251 173.377 446.366C173.089 447.481 171.975 448.173 170.847 447.936L170.842 447.945Z" fill="#FF6739"/>
<path d="M224.543 528.084L214.336 523.273C211.557 521.967 213.958 517.831 216.722 519.14L226.929 523.952C229.708 525.257 227.303 529.379 224.543 528.084Z" fill="#FF6739"/>
<path d="M155.798 469.201C153.16 469.231 150.587 468.384 148.482 466.793C145.73 464.794 148.773 460.817 151.328 463.113C152.746 464.3 154.433 465.12 156.242 465.502C157.122 465.768 157.683 466.63 157.568 467.542C157.454 468.454 156.698 469.151 155.779 469.191L155.798 469.201Z" fill="#FF6739"/>
<path d="M103.52 451.109C101.779 454.62 99.1564 457.619 95.9082 459.811C91.2395 463.223 84.736 466.409 83.9979 472.836C83.9741 473.911 83.3387 474.879 82.3613 475.328C81.384 475.777 80.236 475.629 79.4043 474.947C78.5726 474.265 78.2031 473.168 78.4524 472.122C80.3184 459.928 94.278 458.348 100.026 449.017C100.588 448.043 101.833 447.71 102.807 448.272C103.781 448.834 104.114 450.079 103.552 451.053L103.52 451.109Z" fill="#FF6739"/>
<path d="M78.209 398.844L74.6045 393.69C72.8096 391.112 77.1874 388.527 78.9137 391.203L82.2476 396.523C82.878 397.633 82.4897 399.043 81.3805 399.673C80.2712 400.304 78.8609 399.916 78.2305 398.806L78.209 398.844Z" fill="#FF6739"/>
<path d="M129.823 415.87L137.48 406.162C139.293 403.862 142.646 407.167 140.728 409.455L132.804 418.872C131.047 420.967 128.197 417.954 129.816 415.904L129.823 415.87Z" fill="#FF6739"/>
<path d="M196.148 354.218L184.675 357.544C181.38 358.49 179.971 353.261 183.295 352.394L194.835 349.405C197.968 348.589 199.236 353.351 196.132 354.246L196.148 354.218Z" fill="#FF6739"/>
<path d="M127.148 319.237C125.132 318.421 123.418 319.235 121.996 320.815C120.347 322.724 117.171 320.231 118.495 318.11C120.727 314.854 125.092 313.87 128.505 315.854C130.23 316.85 129.094 320.025 127.12 319.221L127.148 319.237Z" fill="#FF6739"/>
<path d="M171.287 355.436C169.331 352.359 168.715 348.616 169.583 345.074C170.338 341.978 175.058 343.26 174.363 346.317C173.84 348.612 174.303 351.023 175.639 352.961C177.408 355.649 173.031 358.147 171.293 355.427L171.287 355.436Z" fill="#FF6739"/>
<path d="M206.013 299.715C203.615 298.331 205.77 294.599 208.167 295.983C210.565 297.367 208.42 301.104 206.013 299.715Z" fill="#FF6739"/>
<path d="M256.34 300.435C255.577 297.501 255.662 294.41 256.586 291.522C256.975 290.137 258.388 289.307 259.787 289.639C261.191 290.004 262.033 291.437 261.67 292.84C260.938 294.85 260.799 297.028 261.27 299.114C262.005 302.3 257.162 303.621 256.355 300.431L256.34 300.435Z" fill="#FF6739"/>
<path d="M240.972 159.117C238.049 161.949 233.87 163.069 229.922 162.078C226.98 161.399 228.191 156.738 231.107 157.526C233.719 158.188 236.491 157.662 238.679 156.088C240.49 154.846 242.505 157.626 240.972 159.117Z" fill="#FF6739"/>
<path d="M282.704 145.838C281.241 143.265 279.861 140.702 278.511 138.02C277.162 135.338 280.958 133.35 282.314 135.85C283.67 138.349 285.025 141.084 286.273 143.77C287.385 146.153 284.016 148.176 282.666 145.817L282.704 145.838Z" fill="#FF6739"/>
<path d="M254.434 92.1135C253.254 93.3061 252 94.422 250.677 95.4543C249.772 96.3026 248.361 96.2922 247.469 95.4307C246.598 94.535 246.609 93.1056 247.493 92.2229C248.936 91.0396 250.454 89.9507 252.037 88.9631C252.905 88.4937 253.986 88.7268 254.584 89.5123C255.181 90.2978 255.118 91.4016 254.434 92.1135Z" fill="#FF6739"/>
<path d="M275.556 243.779C271.832 243.469 268.183 242.559 264.749 241.084C263.595 240.316 263.237 238.783 263.93 237.583C264.623 236.382 266.129 235.927 267.372 236.541C269.962 237.686 272.716 238.411 275.534 238.691C278.748 239.005 278.846 244.049 275.556 243.779Z" fill="#FF6739"/>
<path d="M246.533 227.835C242.728 230.21 239.764 233.718 238.055 237.865C236.854 240.679 232.708 238.273 233.923 235.479C236.061 230.614 239.646 226.525 244.191 223.77C246.771 222.188 249.08 226.245 246.523 227.853L246.533 227.835Z" fill="#FF6739"/>
<path d="M229.568 249.577L236.52 252.509C237.69 253.198 238.091 254.697 237.423 255.878C236.723 257.034 235.237 257.432 234.053 256.781L227.101 253.85C225.927 253.165 225.524 251.661 226.199 250.48C226.902 249.33 228.384 248.933 229.568 249.577Z" fill="#FF6739"/>
<path d="M338.65 297.373L331.096 289.84C328.869 287.622 332.494 284.08 334.549 286.423L341.6 294.462C343.353 296.444 340.563 299.273 338.669 297.384L338.65 297.373Z" fill="#FF6739"/>
<path d="M281.187 190.901L279.195 185.261C278.918 184.139 279.577 182.999 280.686 182.677C281.808 182.401 282.949 183.059 283.27 184.169L285.493 189.755C285.795 190.94 285.097 192.149 283.92 192.479C282.733 192.775 281.525 192.077 281.187 190.901Z" fill="#FF6739"/>
<path d="M372.48 162.414C369.557 165.246 365.377 166.366 361.43 165.375C358.488 164.696 359.699 160.035 362.615 160.823C365.227 161.485 367.999 160.959 370.186 159.385C371.998 158.143 374.013 160.923 372.48 162.414Z" fill="#FF6739"/>
<path d="M419.204 109.135C417.741 106.562 416.361 103.999 415.011 101.317C413.662 98.6345 417.458 96.6473 418.814 99.1464C420.17 101.646 421.525 104.381 422.773 107.067C423.885 109.45 420.516 111.473 419.166 109.114L419.204 109.135Z" fill="#FF6739"/>
<path d="M385.942 95.4104C384.762 96.603 383.507 97.7189 382.185 98.7512C381.28 99.5995 379.869 99.5891 378.977 98.7275C378.106 97.8318 378.117 96.4025 379.001 95.5197C380.444 94.3365 381.961 93.2476 383.545 92.2599C384.413 91.7906 385.494 92.0237 386.091 92.8091C386.689 93.5946 386.626 94.6985 385.942 95.4104Z" fill="#FF6739"/>
<path d="M132.035 295.145C129.103 290.119 127.401 284.062 125.265 278.649C124.084 275.654 129.09 274.178 130.179 277.332C131.987 282.667 134.504 288.175 135.479 293.726C135.83 295.745 133.168 297.081 132.035 295.145Z" fill="#FF6739"/>
<path d="M189.534 302.971C192.396 303.616 195.242 304.351 198.133 304.838C199.809 305.122 200.015 307.244 199.072 308.316C197.163 310.441 194.628 311.904 191.834 312.495C188.961 313.163 187.736 308.649 190.651 308.081C192.682 307.655 194.577 306.738 196.173 305.411L197.098 308.893C194.315 307.982 191.455 307.314 188.619 306.56C187.64 306.304 187.054 305.303 187.31 304.324C187.566 303.345 188.567 302.759 189.546 303.015L189.534 302.971Z" fill="#FF6739"/>
<path d="M61.2761 415.545C57.1485 413.459 53.3097 410.846 49.8566 407.77C47.4878 405.668 51.001 402.212 53.3753 404.304C56.5121 407.069 59.9976 409.412 63.7428 411.272C66.577 412.697 64.1009 416.964 61.2761 415.545Z" fill="#FF6739"/>
</svg>
