<svg width="308" height="287" viewBox="0 0 308 287" fill="none" xmlns="http://www.w3.org/2000/svg">
<mask id="mask0_1801_22692" style="mask-type:alpha" maskUnits="userSpaceOnUse" x="0" y="0" width="308" height="287">
<rect width="308" height="287" rx="16" fill="#3EBCA0"/>
</mask>
<g mask="url(#mask0_1801_22692)">
<path d="M216.074 198.572C217.615 208.094 210.872 217.497 202.19 221.709C197.492 224.117 192.139 224.934 186.937 224.036C180.323 222.711 174.701 217.928 171.458 212.015C166.091 201.942 167.172 189.65 174.216 180.669C181.567 171.909 193.482 168.458 204.376 171.933C209.87 173.797 215.008 177.89 216.344 183.545" fill="#FF6739"/>
<path d="M216.665 198.573C218.335 212.005 206.712 223.552 193.862 225.179C180.031 226.913 169.001 215.344 167.363 202.267C165.55 189.033 173.112 176.299 185.6 171.557C196.964 167.313 213.25 170.297 217.171 183.32C217.484 184.397 215.857 184.796 215.545 183.762C211.753 171.417 195.962 169.317 185.514 173.604C174.737 178.095 168.118 189.056 169.162 200.684C170.175 212.651 179.384 224.015 192.17 223.466C204.956 222.917 216.837 211.682 215.491 198.573C215.416 197.819 216.568 197.84 216.665 198.573Z" fill="#FF6739"/>
<path d="M218.325 197.945C220.663 212.907 208.362 226.134 193.842 227.966C178.761 229.861 166.514 217.334 164.564 203.051C162.582 188.541 170.316 174.474 184.093 169.153C197.019 164.165 215.223 167.892 219.543 182.639C220.76 186.829 214.34 188.563 213.08 184.437C209.708 173.72 195.479 172.416 186.56 176.133C176.892 180.283 171.016 190.208 172.029 200.681C172.912 211.194 181.034 220.975 192.15 220.641C203.633 220.296 214.588 210.365 213.758 198.57C213.575 195.974 217.948 195.338 218.368 197.945L218.325 197.945Z" fill="black"/>
<path d="M208.879 192.106C209.784 200.088 208.114 208.694 200.477 212.884C194.973 215.89 186.129 215.319 182.65 209.534C181.228 207.175 184.804 205.226 186.291 207.38C189.361 211.84 196.922 207.854 199.701 205.097C203.002 201.543 204.914 196.92 205.087 192.074C205.087 191.039 205.926 190.199 206.962 190.199C207.997 190.199 208.836 191.039 208.836 192.074L208.879 192.106Z" fill="white"/>
<path d="M176.594 203.384L176.594 203.19C176.493 202.838 176.493 202.465 176.594 202.113C176.686 201.778 176.865 201.473 177.111 201.229L177.51 200.917C177.813 200.738 178.159 200.645 178.512 200.648C178.781 200.633 179.049 200.692 179.287 200.82C179.532 200.898 179.751 201.039 179.923 201.229C180.169 201.473 180.348 201.778 180.44 202.113C180.541 202.465 180.541 202.838 180.44 203.19L180.44 203.384L180.246 203.858C180.128 204.082 179.953 204.271 179.74 204.407C179.622 204.528 179.473 204.614 179.309 204.655C179.077 204.777 178.817 204.837 178.555 204.827L178.038 204.752L177.575 204.558C177.353 204.436 177.164 204.263 177.025 204.052C176.85 203.866 176.731 203.634 176.68 203.384L176.594 203.384Z" fill="white"/>
<path d="M180.479 191.171L180.672 191.171C180.999 191.074 181.347 191.074 181.674 191.171C181.988 191.257 182.274 191.424 182.504 191.655L182.794 192.032C182.966 192.319 183.055 192.647 183.053 192.98C183.065 193.231 183.01 193.48 182.891 193.702C182.815 193.932 182.681 194.14 182.504 194.305C182.271 194.53 181.986 194.693 181.674 194.779C181.347 194.876 180.999 194.876 180.672 194.779L180.479 194.779L180.037 194.596C179.829 194.482 179.651 194.32 179.52 194.122C179.412 194.006 179.334 193.866 179.294 193.713C179.176 193.499 179.12 193.256 179.132 193.013L179.197 192.517L179.38 192.086C179.49 191.876 179.654 191.697 179.854 191.569C180.033 191.41 180.247 191.296 180.479 191.235L180.479 191.171Z" fill="white"/>
<path d="M193.421 189.253L193.249 189.027L193.034 188.51C192.959 188.228 192.959 187.931 193.034 187.648C193.036 187.459 193.088 187.273 193.184 187.11C193.27 186.846 193.422 186.608 193.626 186.42L194.068 186.076L194.574 185.86C194.856 185.785 195.153 185.785 195.436 185.86C195.718 185.872 195.993 185.957 196.233 186.108L196.459 186.291C196.785 186.48 197.056 186.751 197.245 187.077C197.443 187.402 197.548 187.775 197.547 188.155L197.471 188.736C197.369 189.101 197.177 189.435 196.911 189.706C196.717 189.915 196.472 190.071 196.2 190.158C195.942 190.294 195.652 190.358 195.36 190.341C194.982 190.338 194.611 190.237 194.283 190.05C193.96 189.857 193.69 189.587 193.497 189.264L193.421 189.253Z" fill="white"/>
<path d="M185.53 185.445C185.53 184.517 186.282 183.764 187.21 183.764C188.138 183.764 188.891 184.517 188.891 185.445C188.891 186.373 188.138 187.125 187.21 187.125C186.282 187.125 185.53 186.373 185.53 185.445Z" fill="white"/>
<path d="M254.777 39.1381C261.078 46.4413 260.27 57.9885 255.1 66.121C252.363 70.6373 248.236 74.1446 243.337 76.1171C237.014 78.4438 229.754 77.3666 223.851 74.0166C214.001 68.2563 208.47 57.2322 209.741 45.8919C211.408 34.5799 219.737 25.3921 230.831 22.6252C236.487 21.3326 243.014 22.119 247.118 26.2229" fill="#FF6739"/>
<path d="M255.172 38.7219C263.466 49.0088 260.17 64.3583 250.648 72.7386C239.876 82.2607 223.719 78.4691 215.177 67.8052C206.908 57.7071 206.492 43.302 214.165 32.7436C221.522 22.8014 237.259 16.3923 247.664 25.6236C248.472 26.3453 247.287 27.5301 246.469 26.8192C236.354 17.9326 221.134 25.365 214.757 35.1134C208.38 44.8617 209.49 57.5183 216.642 66.5234C224.688 76.6379 239.812 80.0849 249.916 70.8967C258.533 63.0657 261.689 49.0626 254.224 39.4328C253.815 38.905 254.72 38.2048 255.14 38.7219L255.172 38.7219Z" fill="#FF6739"/>
<path d="M256.44 37.4956C265.854 48.4396 262.957 65.351 252.627 74.7223C240.778 85.4939 222.768 81.6808 213.16 69.8643C203.95 58.5433 203.228 42.4613 212.222 30.8064C220.71 19.7978 238.02 13.5718 249.471 23.8587C252.702 26.7778 247.963 31.3989 244.699 28.6198C235.898 21.015 222.542 28.2751 217.177 36.5369C211.635 45.3573 212.338 56.73 218.922 64.8016C225.956 73.602 238.99 76.7474 248.006 68.9703C256.095 61.9687 259.284 49.3551 252.778 40.3393C251.226 38.185 254.727 35.4813 256.461 37.4956L256.44 37.4956Z" fill="black"/>
<path d="M244.995 37.0499C249.724 43.0712 253.063 50.4605 249.735 58.0222C246.891 64.4852 238.758 69.117 232.015 65.9609C229.861 64.9591 231.412 61.2106 233.642 62.0939C239.297 64.3344 243.702 57.0204 244.489 52.3994C245.126 47.8882 244.271 43.2924 242.054 39.3119C241.117 37.5346 243.616 35.2833 244.995 37.0391L244.995 37.0499Z" fill="white"/>
<path d="M223.691 63.9662L223.551 63.8154C223.05 63.3048 222.858 62.5668 223.045 61.8765L223.239 61.4025C223.418 61.1076 223.666 60.8601 223.961 60.6808C224.429 60.4297 224.974 60.3607 225.49 60.487C225.826 60.571 226.131 60.7462 226.373 60.9932C226.618 61.2391 226.796 61.543 226.89 61.8765L226.955 62.0596L227.031 62.5874C227.039 62.8459 226.979 63.1021 226.858 63.3307C226.817 63.4946 226.732 63.6439 226.61 63.7615C226.475 63.9752 226.285 64.1498 226.061 64.2678L225.598 64.4617L225.07 64.5371C224.808 64.551 224.546 64.4913 224.316 64.3647C224.079 64.2843 223.864 64.1476 223.691 63.9662Z" fill="white"/>
<path d="M220.626 51.512L220.777 51.372C221.008 51.1423 221.293 50.9754 221.606 50.8873C221.931 50.8009 222.273 50.8009 222.597 50.8873L223.05 51.0812C223.329 51.2432 223.562 51.4729 223.728 51.749C223.858 51.9606 223.932 52.2014 223.944 52.4492C224.008 52.6927 224.008 52.9488 223.944 53.1924C223.861 53.5077 223.693 53.7944 223.459 54.0218C223.233 54.2574 222.946 54.4252 222.63 54.5065L222.447 54.5819L221.962 54.6466C221.715 54.6597 221.468 54.6037 221.251 54.485C221.099 54.4449 220.96 54.3628 220.852 54.248C220.65 54.1226 220.486 53.9437 220.378 53.731L220.185 53.3001L220.12 52.8046C220.108 52.5608 220.164 52.3183 220.282 52.1045C220.354 51.8775 220.483 51.6733 220.659 51.512L220.626 51.512Z" fill="white"/>
<path d="M231.054 43.257L230.785 43.1493C230.51 43.0883 230.257 42.9544 230.053 42.7615C229.816 42.6129 229.623 42.4049 229.492 42.1583L229.277 41.652C229.202 41.3697 229.202 41.0726 229.277 40.7903C229.276 40.6016 229.324 40.4159 229.417 40.2517C229.505 39.9832 229.661 39.742 229.869 39.5516L230.3 39.2176C230.628 39.0278 230.999 38.9275 231.377 38.9268L231.658 38.9268C232.035 38.9304 232.406 39.0305 232.735 39.2176L233.176 39.5623C233.445 39.8305 233.638 40.1649 233.736 40.5318C233.817 40.817 233.817 41.119 233.736 41.4043C233.726 41.6923 233.637 41.9719 233.478 42.2121C233.179 42.6997 232.711 43.0601 232.164 43.2247C231.783 43.3314 231.381 43.3314 231 43.2247L231.054 43.257Z" fill="white"/>
<path d="M221.647 43.1087C221.647 42.1806 222.399 41.4283 223.327 41.4283C224.255 41.4283 225.008 42.1806 225.008 43.1087C225.008 44.0367 224.255 44.7891 223.327 44.7891C222.399 44.7891 221.647 44.0367 221.647 43.1087Z" fill="white"/>
<path d="M35.1393 206.531C25.628 208.06 16.2136 201.317 12.0127 192.646C9.60241 187.949 8.78215 182.596 9.67522 177.393C11.0109 170.78 15.7827 165.157 21.6964 161.904C31.7704 156.542 44.0587 157.623 53.0418 164.661C61.8005 172.013 65.255 183.925 61.7883 194.822C59.9248 200.315 55.8208 205.453 50.1765 206.789" fill="#FF6739"/>
<path d="M35.1421 207.123C21.7099 208.793 10.1628 197.17 8.54702 184.319C6.80202 170.499 18.3707 159.459 31.4583 157.821C44.678 156.004 57.4043 163.546 62.1574 176.014C66.4014 187.379 63.4176 203.665 50.4055 207.586C49.9564 207.711 49.491 207.448 49.3661 206.999C49.2411 206.55 49.504 206.085 49.9531 205.96C62.3082 202.168 64.4086 186.377 60.1215 175.928C55.6235 165.154 44.6591 158.541 33.0309 159.588C21.0744 160.59 9.69959 169.799 10.2597 182.585C10.8198 195.371 22.0331 207.295 35.1421 205.949C35.9069 205.873 35.8854 207.026 35.1421 207.123Z" fill="#FF6739"/>
<path d="M35.7623 208.776C20.8005 211.114 7.57295 198.812 5.75255 184.292C3.85674 169.212 16.3734 156.965 30.6673 155.015C45.1767 153.033 59.2444 160.767 64.5656 174.544C69.5421 187.47 65.8151 205.685 51.0687 209.993C46.8894 211.221 45.1551 204.791 49.2807 203.53C59.9984 200.148 61.3018 185.919 57.5748 177C53.4252 167.33 43.5008 161.451 33.0263 162.458C22.5132 163.342 12.7433 171.463 13.0773 182.58C13.4219 194.062 23.3426 205.017 35.1375 204.187C37.7443 204.004 38.369 208.388 35.7623 208.798L35.7623 208.776Z" fill="black"/>
<path d="M41.6276 199.336C33.6351 200.252 25.0286 198.571 20.8492 190.934C17.8331 185.43 18.4148 176.586 24.1884 173.107C26.5474 171.685 28.497 175.262 26.3427 176.748C21.8833 179.829 25.8688 187.39 28.6155 190.159C32.1739 193.458 36.7994 195.37 41.6492 195.545C42.6843 195.545 43.5234 196.384 43.5234 197.419C43.5234 198.454 42.6843 199.293 41.6492 199.293L41.6276 199.336Z" fill="white"/>
<path d="M30.2818 167.042L30.4757 167.042C31.1679 166.848 31.9109 167.046 32.4146 167.559L32.7269 167.958C32.9107 168.264 33.0075 168.614 33.007 168.97C33.0155 169.236 32.9562 169.499 32.8347 169.735C32.7561 169.982 32.6106 170.202 32.4146 170.371C31.9109 170.884 31.1679 171.082 30.4757 170.888L30.2818 170.888L29.8186 170.683C29.5975 170.566 29.4087 170.395 29.2693 170.188C29.1502 170.064 29.0649 169.912 29.0215 169.746C28.8942 169.52 28.8344 169.262 28.8492 169.003L28.9138 168.475L29.1185 168.012C29.2358 167.79 29.406 167.602 29.614 167.462C29.8031 167.292 30.0332 167.173 30.2818 167.118L30.2818 167.042Z" fill="white"/>
<path d="M42.5446 170.941L42.5446 171.146C42.631 171.471 42.631 171.812 42.5446 172.137C42.4612 172.452 42.2937 172.739 42.0599 172.966L41.6829 173.257C41.3962 173.428 41.0685 173.517 40.735 173.516C40.2424 173.495 39.7731 173.3 39.4101 172.966C39.1763 172.739 39.0088 172.452 38.9254 172.137C38.839 171.812 38.839 171.471 38.9254 171.146L38.9254 170.941L39.1085 170.51C39.2188 170.3 39.3822 170.122 39.5824 169.993C39.6904 169.878 39.8285 169.796 39.981 169.756C40.1992 169.64 40.4447 169.584 40.6919 169.595L41.1766 169.659L41.6183 169.842C41.8264 169.956 42.0039 170.119 42.1353 170.316C42.2948 170.494 42.4061 170.709 42.4584 170.941L42.5446 170.941Z" fill="white"/>
<path d="M44.4792 183.909L44.7054 183.736L45.2225 183.521C45.5012 183.446 45.7947 183.446 46.0734 183.521C46.2658 183.518 46.4554 183.566 46.6228 183.661C46.8855 183.749 47.1223 183.901 47.3122 184.103L47.6461 184.544L47.8615 185.061C47.942 185.339 47.942 185.634 47.8615 185.912C47.853 186.197 47.7633 186.474 47.603 186.709L47.4306 186.946C47.237 187.269 46.9669 187.539 46.6443 187.733C46.3159 187.92 45.9451 188.02 45.5672 188.023L44.9855 187.948C44.6236 187.846 44.2937 187.653 44.0268 187.388C43.6403 186.96 43.4122 186.413 43.3805 185.837C43.3879 185.458 43.4917 185.087 43.6821 184.76C43.8758 184.437 44.1458 184.167 44.4684 183.973L44.4792 183.909Z" fill="white"/>
<path d="M46.6236 177.679C46.6236 176.751 47.376 175.999 48.304 175.999C49.232 175.999 49.9844 176.751 49.9844 177.679C49.9844 178.607 49.232 179.359 48.304 179.359C47.376 179.359 46.6236 178.607 46.6236 177.679Z" fill="white"/>
<path d="M128.614 54.9707C134.894 62.2846 134.065 73.8318 128.862 81.9536C126.119 86.4624 121.982 89.956 117.078 91.9066C110.744 94.2332 103.452 93.1022 97.592 89.7522C87.769 83.9596 82.2807 72.9237 83.5889 61.5952C85.28 50.2964 93.6212 41.1344 104.712 38.3932C110.378 37.1113 116.895 37.9192 120.988 42.034" fill="#FF6739"/>
<path d="M129.017 54.563C137.29 64.8714 133.951 80.2102 124.407 88.569C113.56 98.0588 97.4781 94.2241 88.947 83.5386C80.7057 73.4148 80.3296 59.0063 88.0314 48.4662C95.4207 38.5456 111.169 32.1796 121.542 41.4432C122.361 42.1649 121.165 43.3497 120.357 42.628C110.264 33.7199 95.0222 41.1092 88.6238 50.836C82.2255 60.5628 83.238 73.2194 90.4119 82.246C98.426 92.3929 113.539 95.8829 123.675 86.727C132.292 78.9176 135.523 64.9253 128.102 55.2739C127.703 54.7461 128.608 54.046 129.017 54.563Z" fill="#FF6739"/>
<path d="M130.273 53.3272C139.655 64.2927 136.736 81.1934 126.374 90.5431C114.525 101.315 96.5041 97.4154 86.9174 85.5882C77.7292 74.2457 77.0506 58.1529 86.0664 46.5195C94.576 35.5432 111.918 29.2849 123.336 39.6688C126.568 42.5986 121.828 47.2628 118.575 44.4298C109.796 36.8035 96.4179 43.999 91.0321 52.25C85.4559 61.0482 86.1193 72.4242 92.6802 80.5147C99.6817 89.3475 112.715 92.5359 121.764 84.8234C129.864 77.8542 133.106 65.2406 126.622 56.2032C125.07 54.0489 128.571 51.3344 130.305 53.3595L130.273 53.3272Z" fill="black"/>
<path d="M118.824 52.8663C123.542 58.8984 126.859 66.2985 123.52 73.8386C120.655 80.3016 112.512 84.9226 105.769 81.745C103.614 80.7325 105.165 76.9947 107.395 77.8888C113.061 80.14 117.477 72.8369 118.285 68.1943C118.934 63.6831 118.09 59.0836 115.883 55.096C114.957 53.3187 117.456 51.0567 118.824 52.8232L118.824 52.8663Z" fill="white"/>
<path d="M97.441 79.7162L97.301 79.5654C96.7999 79.0548 96.6072 78.3168 96.7947 77.6265L96.9886 77.1525C97.1679 76.8576 97.4154 76.6101 97.7103 76.4308C98.1788 76.1797 98.7236 76.1107 99.2399 76.237C99.5754 76.321 99.8811 76.4962 100.123 76.7432C100.368 76.9891 100.545 77.293 100.64 77.6265L100.705 77.8096L100.78 78.3374C100.79 78.5961 100.73 78.8527 100.608 79.0807C100.567 79.2446 100.481 79.3939 100.36 79.5115C100.224 79.7252 100.035 79.8998 99.8108 80.0178L99.3476 80.2117L98.8198 80.2871C98.5573 80.301 98.2962 80.2413 98.0658 80.1147C97.8272 80.0368 97.6123 79.8997 97.441 79.7162Z" fill="white"/>
<path d="M94.4388 67.2076L94.5896 67.0675C94.8189 66.8385 95.1053 66.6749 95.419 66.5936C95.7422 66.4966 96.0868 66.4966 96.41 66.5936L96.8624 66.7767C97.141 66.9401 97.3714 67.1742 97.5302 67.4553C97.6688 67.6593 97.7472 67.8982 97.7564 68.1447C97.8208 68.3919 97.8208 68.6515 97.7564 68.8987C97.6641 69.2071 97.4977 69.4881 97.2717 69.7173C97.0443 69.9511 96.7576 70.1187 96.4423 70.2021L96.2592 70.2775L95.7637 70.3421C95.5198 70.3543 95.2774 70.2984 95.0635 70.1805C94.9079 70.1407 94.7662 70.0587 94.6542 69.9435C94.4567 69.8121 94.2941 69.6347 94.1803 69.4265L93.9972 68.9956L93.9325 68.5002C93.9203 68.2563 93.9762 68.0138 94.0941 67.8C94.1605 67.5705 94.2914 67.3649 94.4711 67.2076L94.4388 67.2076Z" fill="white"/>
<path d="M104.9 59.0581L104.62 58.9504C104.346 58.887 104.094 58.7533 103.887 58.5626C103.659 58.4078 103.471 58.201 103.338 57.9594L103.123 57.4423C103.048 57.1636 103.048 56.8701 103.123 56.5914C103.123 56.398 103.175 56.2083 103.273 56.042C103.362 55.7793 103.513 55.5425 103.715 55.3526L104.157 55.0187C104.484 54.8289 104.856 54.7286 105.234 54.7279L105.525 54.7279C105.903 54.7402 106.272 54.8437 106.602 55.0295L107.044 55.3742C107.312 55.6423 107.506 55.9768 107.604 56.3436C107.684 56.6289 107.684 56.9309 107.604 57.2161C107.584 57.5023 107.495 57.7793 107.345 58.024C107.031 58.4978 106.569 58.854 106.031 59.0365C105.649 59.1337 105.249 59.1337 104.868 59.0365L104.9 59.0581Z" fill="white"/>
<path d="M95.4596 58.8353C95.4596 57.9072 96.2119 57.1549 97.1399 57.1549C98.068 57.1549 98.8203 57.9072 98.8203 58.8353C98.8203 59.7633 98.068 60.5156 97.1399 60.5156C96.2119 60.5156 95.4596 59.7633 95.4596 58.8353Z" fill="white"/>
<path d="M284.603 62.4304L284.678 60.5562C284.617 59.6222 285.081 58.7318 285.881 58.2462C286.681 57.7607 287.685 57.7607 288.485 58.2462C289.285 58.7318 289.749 59.6222 289.687 60.5562L289.773 62.4304C289.773 63.8582 288.616 65.0156 287.188 65.0156C285.76 65.0156 284.603 63.8582 284.603 62.4304Z" fill="black"/>
<path d="M281.718 174.84C270.796 171.608 260.854 163.961 252.818 156.13C249.856 153.232 254.488 148.589 257.364 151.584C265.13 159.652 274.06 164.951 283.377 170.908C285.381 172.19 284.131 175.551 281.718 174.84Z" fill="black"/>
<path d="M255.236 116.71C255.15 116.516 255.042 116.333 254.945 116.15C254.751 115.795 255.172 116.365 254.945 116.075C254.719 115.784 254.644 115.784 254.493 115.633C254.17 115.31 254.558 115.633 254.342 115.493L253.901 115.234C253.674 115.105 254.148 115.234 253.717 115.159C253.556 115.159 253.394 115.073 253.222 115.041C253.728 115.127 252.963 115.041 252.91 115.041C251.948 115.103 251.032 114.625 250.532 113.801C250.033 112.977 250.033 111.944 250.532 111.12C251.032 110.296 251.948 109.819 252.91 109.881C256.106 109.609 259.059 111.606 259.997 114.674C260.332 115.921 259.695 117.223 258.506 117.726C257.317 118.228 255.94 117.776 255.279 116.667L255.236 116.71Z" fill="black"/>
<path d="M216.053 113.333L212.304 115.208C211.091 115.916 209.533 115.506 208.825 114.292C208.117 113.079 208.527 111.521 209.74 110.813L213.478 108.939C214.692 108.228 216.252 108.635 216.963 109.849C217.674 111.062 217.266 112.623 216.053 113.333Z" fill="black"/>
<path d="M173.341 130.492C173.341 127.013 178.727 127.013 178.727 130.492C178.727 133.971 173.341 133.971 173.341 130.492Z" fill="black"/>
<path d="M109.678 208.41C114.611 202.561 121.247 197.692 126.912 192.554C129.228 190.454 132.675 193.912 130.338 195.98C124.467 201.182 118.748 207.355 112.231 211.728C110.076 213.139 108.213 210.134 109.667 208.41L109.678 208.41Z" fill="black"/>
<path d="M86.118 163.54L89.2417 154.794C90.3189 151.691 95.3493 153.027 94.2182 156.172L91.1052 164.919C90.0281 168.021 84.9977 166.685 86.118 163.54Z" fill="black"/>
<path d="M106.738 250.166L110.487 247.667C111.645 247.003 113.122 247.391 113.805 248.539C114.45 249.7 114.065 251.164 112.932 251.857L109.183 254.356C108.025 255.02 106.548 254.631 105.866 253.483C105.22 252.322 105.605 250.859 106.738 250.166Z" fill="black"/>
<path d="M142.505 239.392C143.971 237.881 145.84 236.823 147.89 236.343C149.119 236.004 150.39 236.725 150.729 237.954C151.068 239.182 150.347 240.453 149.118 240.792C147.827 241.054 146.647 241.704 145.736 242.656C143.657 244.81 140.35 241.525 142.505 239.424L142.505 239.392Z" fill="black"/>
<path d="M256.464 212.93C256.559 211.345 256.184 209.768 255.387 208.395C253.976 205.993 257.832 203.774 259.092 206.241C260.192 208.293 260.675 210.62 260.482 212.941C260.256 215.45 256.399 215.547 256.496 212.941L256.464 212.93Z" fill="black"/>
<path d="M128.697 131.693C121.157 128.893 113.617 126.167 106.141 123.195C103.524 122.117 104.612 117.873 107.326 118.886C114.866 121.73 122.288 124.821 129.753 127.837C132.079 128.774 131.131 132.587 128.675 131.683L128.697 131.693Z" fill="black"/>
<path d="M51.2586 103.113C51.5024 102.929 51.7295 102.723 51.9372 102.499C51.6248 102.833 52.1311 102.165 52.1957 102.068C52.325 101.799 52.325 101.788 52.1957 102.068L52.3142 101.627C52.3789 101.325 52.3789 101.325 52.3142 101.627L52.3142 101.163C52.3142 99.7595 53.4524 98.6214 54.8563 98.6214C56.2603 98.6214 57.3984 99.7595 57.3984 101.163C57.3233 103.522 56.1215 105.701 54.167 107.023C53.0961 107.619 51.7506 107.342 51.0016 106.373C50.2526 105.403 50.3252 104.031 51.1724 103.145L51.2586 103.113Z" fill="black"/>
<path d="M7.76117 121.724L7.12565 119.225C6.90629 118.431 7.12756 117.579 7.70609 116.992C8.28463 116.405 9.13254 116.171 9.93043 116.378C10.7283 116.586 11.355 117.203 11.5743 117.998L12.1668 120.453C12.3861 121.248 12.1649 122.099 11.5863 122.687C11.0078 123.274 10.1599 123.508 9.36198 123.301C8.56409 123.093 7.93744 122.476 7.71809 121.681L7.76117 121.724Z" fill="black"/>
<path d="M62.6114 243.878L58.0765 235.26C56.7732 232.772 60.6833 230.607 61.7928 233.106L65.7783 242.057C66.7262 244.212 63.7316 246.043 62.6114 243.91L62.6114 243.878Z" fill="black"/>
<path d="M191.416 60.131C183.445 66.2816 171.143 73.811 160.695 70.9026C156.257 69.6854 158.25 62.5546 162.591 64.0303C171.133 66.9064 181.559 59.6355 188.96 55.8978C191.825 54.4544 193.828 58.2137 191.416 60.0879L191.416 60.131Z" fill="black"/>
<path d="M41.1811 63.8799C32.1007 57.7401 22.557 52.2897 13.5089 46.1068C10.579 44.1033 13.1319 39.5684 16.3095 41.3026C25.907 46.5484 34.8259 53.2376 43.6263 59.6898C46.1038 61.4994 43.8094 65.6573 41.1811 63.8799Z" fill="black"/>
<path d="M227.947 254.27C224.926 253.095 222.196 251.28 219.944 248.948C217.876 246.794 221.269 243.455 223.175 245.717C224.926 247.739 227.099 249.353 229.541 250.446C231.696 251.415 230.134 255.196 227.915 254.302L227.947 254.27Z" fill="black"/>
<path d="M317.193 193.945L309.653 194.031C306.637 194.031 306.627 189.303 309.653 189.335L317.193 189.41C320.113 189.41 320.113 193.924 317.193 193.945Z" fill="black"/>
<path d="M177.469 246.021C177.098 242.491 177.098 238.931 177.469 235.4C177.782 232.535 182.306 232.492 182.015 235.4C181.644 238.931 181.644 242.491 182.015 246.021C182.338 248.962 177.706 248.962 177.405 246.021L177.469 246.021Z" fill="black"/>
<path d="M143.892 172.023C140.897 169.051 138.101 165.884 135.522 162.544C134.764 161.745 134.527 160.585 134.911 159.552C135.294 158.52 136.232 157.796 137.327 157.685C138.423 157.575 139.486 158.097 140.068 159.033C142.594 162.419 144.897 165.967 146.962 169.653C147.436 170.501 147.217 171.568 146.448 172.162C145.679 172.755 144.592 172.696 143.892 172.023Z" fill="#FF6739"/>
<path d="M170.022 156.335L177.476 151.596C180.373 149.743 183.088 154.397 180.168 156.185L172.628 160.795C169.785 162.54 167.242 158.124 170.022 156.335Z" fill="#FF6739"/>
<path d="M198.777 151.451C202.383 150.806 206.099 151.578 209.15 153.606C211.843 155.437 209.301 159.853 206.586 158C204.725 156.638 202.411 156.044 200.123 156.342C198.773 156.671 197.399 155.892 196.989 154.564C196.63 153.212 197.421 151.823 198.766 151.44L198.777 151.451Z" fill="#FF6739"/>
<path d="M219.094 184.794C219.309 184.557 219.341 184.536 219.191 184.73C219.292 184.586 219.382 184.435 219.46 184.277C219.201 184.794 219.621 183.652 219.557 184.008C219.557 184.191 219.557 183.459 219.557 183.319C219.611 183.803 219.363 182.855 219.32 182.748C218.968 181.344 219.792 179.914 221.183 179.516C222.584 179.187 223.998 180.003 224.415 181.38C225.338 183.89 224.715 186.708 222.821 188.597C220.408 191.042 216.649 187.282 219.051 184.837L219.094 184.794Z" fill="#FF6739"/>
<path d="M228.999 230.103L230.84 223.532C231.681 220.527 236.399 221.809 235.515 224.825L233.609 231.406C232.747 234.347 228.169 233.108 228.999 230.146L228.999 230.103Z" fill="#FF6739"/>
<path d="M250.573 180.554C248.516 179.179 246.199 178.24 243.765 177.796C241.062 177.257 241.611 172.787 244.422 172.96C247.583 173.151 250.629 174.214 253.223 176.03C255.991 177.925 253.363 182.492 250.573 180.554Z" fill="#FF6739"/>
<path d="M95.1081 186.398L97.9303 184.545C99.1454 183.849 100.695 184.257 101.41 185.461C102.082 186.679 101.679 188.211 100.494 188.94L97.6718 190.793C96.4566 191.489 94.9075 191.082 94.1926 189.877C93.5203 188.659 93.9233 187.128 95.1081 186.398Z" fill="#FF6739"/>
<path d="M87.2715 226.769L85.3757 221.157C85.1275 220.255 85.3796 219.289 86.037 218.623C86.6944 217.956 87.6573 217.692 88.563 217.928C89.4686 218.164 90.1794 218.866 90.4276 219.768L92.2588 225.401C92.6366 226.779 91.8264 228.201 90.4492 228.579C89.072 228.957 87.6493 228.147 87.2715 226.769Z" fill="#FF6739"/>
<path d="M69.1464 141.351L68.0692 137.646C67.8499 136.851 68.0711 136 68.6497 135.412C69.2282 134.825 70.0761 134.591 70.874 134.798C71.6719 135.006 72.2985 135.623 72.5179 136.418L73.3042 140.199C73.5623 141.321 72.8914 142.448 71.7815 142.757C70.6716 143.065 69.5154 142.446 69.1571 141.351L69.1464 141.351Z" fill="#FF6739"/>
<path d="M26.593 227.925L25.6559 216.679C25.3974 213.62 30.18 213.631 30.4277 216.679L31.3649 227.925C31.6234 230.984 26.8516 230.962 26.593 227.925Z" fill="#FF6739"/>
<path d="M43.2119 138.945C41.8672 136.675 41.3141 134.023 41.6392 131.405C41.9947 128.023 46.9604 128.669 46.2494 132.03C45.9304 133.851 46.0636 135.723 46.6372 137.48C46.8477 138.375 46.3816 139.292 45.5342 139.649C44.6868 140.006 43.7055 139.699 43.2119 138.924L43.2119 138.945Z" fill="#FF6739"/>
<path d="M32.7433 84.6264C28.8322 84.8747 24.9237 84.1027 21.4008 82.3859C16.1119 80.0485 10.1013 76.0091 4.16618 78.5835C3.22293 79.1006 2.06736 79.0341 1.18964 78.4122C0.311936 77.7904 -0.134044 76.7223 0.0408948 75.661C0.215829 74.5996 0.981012 73.7312 2.01186 73.4239C13.5052 68.9429 21.8532 80.2424 32.8079 80.5547C33.9323 80.5547 34.8438 81.4662 34.8438 82.5906C34.8438 83.7149 33.9323 84.6264 32.8079 84.6264L32.7433 84.6264Z" fill="#FF6739"/>
<path d="M65.3505 36.5754L68.0111 30.8772C69.3468 28.0335 73.7739 30.5325 72.3198 33.3655L69.3791 38.9129C68.7337 40.0134 67.3182 40.3823 66.2177 39.7369C65.1171 39.0914 64.7482 37.676 65.3936 36.5754L65.3505 36.5754Z" fill="#FF6739"/>
<path d="M76.4095 89.7849L88.6461 91.5622C91.5437 91.9823 90.3588 96.5387 87.4181 96.0217L75.3 93.8673C72.6071 93.3934 73.792 89.4187 76.3772 89.7957L76.4095 89.7849Z" fill="#FF6739"/>
<path d="M162.969 116.403L154.352 108.13C151.885 105.75 155.709 101.915 158.122 104.36L166.481 112.859C168.754 115.164 165.264 118.643 162.937 116.403L162.969 116.403Z" fill="#FF6739"/>
<path d="M158.759 39.1543C158.457 37 156.895 35.9228 154.816 35.4812C152.339 35.0073 152.91 31.011 155.409 31.0972C159.344 31.4017 162.379 34.69 162.367 38.6373C162.367 40.63 159.049 41.2333 158.759 39.122L158.759 39.1543Z" fill="#FF6739"/>
<path d="M149.477 95.4777C151.164 92.2445 154.097 89.8401 157.599 88.8208C160.658 87.9268 161.907 92.6555 158.913 93.5819C156.663 94.2765 154.807 95.8822 153.796 98.009C152.353 100.885 148.001 98.3429 149.488 95.4777L149.477 95.4777Z" fill="#FF6739"/>
<path d="M215.098 97.6932C215.098 94.9249 219.406 94.9249 219.406 97.6932C219.406 100.461 215.098 100.472 215.098 97.6932Z" fill="#FF6739"/>
<path d="M239.644 141.635C241.804 139.507 244.523 138.036 247.486 137.391C248.88 137.036 250.305 137.844 250.717 139.222C251.103 140.62 250.283 142.066 248.886 142.454C246.78 142.825 244.824 143.793 243.252 145.244C240.861 147.473 237.296 143.94 239.655 141.646L239.644 141.635Z" fill="#FF6739"/>
<path d="M298.313 129.954C296.72 126.573 295.683 122.958 295.243 119.247C295.332 117.863 296.48 116.787 297.866 116.787C299.252 116.787 300.4 117.863 300.489 119.247C300.793 122.061 301.542 124.81 302.708 127.39C304.044 130.331 299.724 132.937 298.313 129.954Z" fill="#FF6739"/>
<path d="M297.609 96.8454C293.65 94.7379 289.129 93.9242 284.683 94.5188C281.646 94.885 281.657 90.0916 284.683 89.7469C289.966 89.1654 295.299 90.2261 299.958 92.7845C302.618 94.2279 300.259 98.2565 297.588 96.8454L297.609 96.8454Z" fill="#FF6739"/>
<path d="M270.297 93.0236L271.234 100.51C271.223 101.867 270.125 102.965 268.768 102.977C267.417 102.948 266.33 101.86 266.301 100.51L265.364 93.0236C265.37 91.6637 266.471 90.5628 267.831 90.5569C269.179 90.5909 270.263 91.6756 270.297 93.0236Z" fill="#FF6739"/>
<path d="M283.448 211.389L286.195 201.081C287.003 198.043 291.882 199.411 290.881 202.363L287.445 212.488C286.604 214.998 282.759 213.996 283.448 211.411L283.448 211.389Z" fill="#FF6739"/>
<path d="M182.068 31.3397C184.955 26.2878 189.35 21.7852 192.969 17.2289C194.972 14.7083 198.753 18.306 196.567 20.8266C192.85 25.0598 189.339 29.9932 185.019 33.6125C183.447 34.9266 180.959 33.2893 182.068 31.3397Z" fill="#FF6739"/>
<path d="M204.042 85.0505C204.915 87.8512 205.701 90.6841 206.724 93.4309C207.317 95.0251 205.583 96.2638 204.182 95.9837C201.388 95.3924 198.853 93.9289 196.944 91.8044C194.929 89.65 198.226 86.3324 200.175 88.5729C201.56 90.1184 203.302 91.3018 205.249 92.0198L202.696 94.5619C202.093 91.6966 201.242 88.8852 200.477 86.0523C200.209 85.0767 200.783 84.0687 201.759 83.801C202.734 83.5333 203.742 84.1072 204.01 85.0829L204.042 85.0505Z" fill="#FF6739"/>
<path d="M42.4248 30.2617C42.1668 25.6445 42.5107 21.0133 43.4481 16.4848C44.0836 13.3826 48.8339 14.6967 48.2091 17.7989C47.3827 21.8982 47.0966 26.0881 47.3582 30.2617C47.5413 33.4286 42.6079 33.4178 42.4248 30.2617Z" fill="#FF6739"/>
</g>
</svg>
