<svg width="225" height="181" viewBox="0 0 225 181" fill="none" xmlns="http://www.w3.org/2000/svg">
<path d="M130.767 153.28C118.564 165.677 97.2554 147.487 90.8801 136.538C89.1338 133.558 87.2143 129.491 87.3737 125.908C87.5331 122.326 89.4803 122.208 91.4553 124.931C92.4739 126.338 93.5342 128.465 93.3332 130.274C92.3631 139.282 75.6488 130.357 71.8236 127.599C68.4662 125.17 65.5305 122.206 63.1338 118.826C61.3598 116.304 58.1029 111.758 58.1653 108.48C59.5697 105.339 58.8744 105.447 56.0794 108.806C54.882 109.075 53.6492 109.152 52.4275 109.034C50.5418 108.856 48.7014 108.352 46.9877 107.545C43.5347 105.913 40.4757 103.554 38.0208 100.629C27.2382 88.3217 25.0623 70.9006 22.63 55.3713C22.1311 52.1836 16.8091 52.8766 17.0239 56.0989C18.3544 75.9454 23.8496 103.99 44.2575 113.171C50.6397 116.047 65.1434 116.941 65.0603 106.505C64.9979 97.8362 53.3422 96.769 52.0048 105.507C50.5357 115.126 60.0016 125.977 66.9174 131.424C73.4313 136.552 86.0294 143.315 94.3865 138.603C102.099 134.203 99.0363 123.628 93.3332 118.965C90.6653 116.782 86.7154 115.548 83.999 118.459C81.0747 121.591 82.031 126.982 83.0011 130.71C85.8492 141.638 95.0033 150.003 104.261 155.782C113.11 161.291 125.279 164.589 133.317 155.83C134.856 154.153 132.423 151.68 130.809 153.322L130.767 153.28Z" fill="#FF6739"/>
<path d="M130.7 93.6458C130.027 97.8016 132.97 101.906 136.759 103.744C138.809 104.795 141.146 105.151 143.416 104.759C146.302 104.181 148.756 102.094 150.171 99.5127C152.514 95.1166 152.042 89.7522 148.968 85.8326C145.76 82.0095 140.56 80.5033 135.805 82.02C133.407 82.8333 131.165 84.6197 130.582 87.0878" fill="#FF6739"/>
<path d="M130.441 93.6488C129.713 99.511 134.785 104.551 140.394 105.26C146.43 106.017 151.244 100.968 151.958 95.2613C152.749 89.4855 149.449 83.928 143.999 81.8585C139.04 80.0063 131.932 81.3085 130.22 86.9921C130.084 87.4622 130.794 87.6361 130.93 87.1848C132.585 81.7974 139.477 80.8807 144.037 82.7517C148.74 84.7115 151.629 89.4954 151.173 94.5702C150.731 99.7931 146.712 104.753 141.132 104.513C135.551 104.273 130.366 99.37 130.954 93.6488C130.987 93.3197 130.484 93.3291 130.441 93.6488Z" fill="#FF6739"/>
<path d="M129.707 93.3735C128.687 99.9033 134.056 105.676 140.393 106.475C146.974 107.303 152.319 101.835 153.17 95.6018C154.035 89.2694 150.66 83.1298 144.647 80.8075C139.006 78.6309 131.061 80.2575 129.176 86.6933C128.645 88.522 131.447 89.2788 131.997 87.4783C133.468 82.8008 139.678 82.2319 143.571 83.8538C147.79 85.6652 150.354 89.997 149.912 94.5676C149.527 99.1558 145.982 103.424 141.131 103.279C136.12 103.128 131.339 98.7938 131.701 93.6462C131.78 92.5132 129.872 92.2358 129.688 93.3735L129.707 93.3735Z" fill="black"/>
<path d="M133.832 90.8234C133.437 94.3069 134.165 98.0631 137.498 99.8918C139.901 101.203 143.76 100.954 145.279 98.4297C145.899 97.4002 144.338 96.5493 143.69 97.4895C142.35 99.4358 139.05 97.6964 137.837 96.4929C136.396 94.942 135.562 92.9246 135.486 90.8093C135.486 90.3575 135.12 89.9913 134.668 89.9913C134.217 89.9913 133.85 90.3575 133.85 90.8093L133.832 90.8234Z" fill="white"/>
<path d="M147.922 95.7485L147.922 95.6639C147.966 95.5103 147.966 95.3474 147.922 95.1938C147.882 95.0478 147.804 94.9148 147.697 94.8083L147.523 94.672C147.39 94.5938 147.239 94.5532 147.086 94.5545C146.968 94.5479 146.851 94.5739 146.747 94.6297C146.64 94.6635 146.545 94.7252 146.47 94.8083C146.362 94.9148 146.284 95.0478 146.244 95.1938C146.2 95.3474 146.2 95.5103 146.244 95.6639L146.244 95.7485L146.329 95.9554C146.38 96.0532 146.456 96.1358 146.55 96.1951C146.601 96.248 146.666 96.2855 146.738 96.3033C146.839 96.3567 146.952 96.3827 147.067 96.3785L147.292 96.3456L147.495 96.261C147.591 96.2079 147.674 96.1321 147.734 96.04C147.811 95.9588 147.863 95.8578 147.885 95.7485L147.922 95.7485Z" fill="white"/>
<path d="M146.226 90.4169L146.141 90.4169C145.999 90.3748 145.847 90.3748 145.704 90.4169C145.567 90.4546 145.442 90.5276 145.342 90.6285L145.215 90.793C145.14 90.918 145.101 91.0611 145.102 91.2067C145.097 91.3162 145.121 91.425 145.173 91.5217C145.206 91.6222 145.265 91.7127 145.342 91.785C145.444 91.883 145.568 91.9541 145.704 91.9918C145.847 92.034 145.999 92.034 146.141 91.9918L146.226 91.9918L146.419 91.9119C146.509 91.8622 146.587 91.7912 146.644 91.705C146.691 91.6546 146.725 91.5932 146.743 91.5264C146.794 91.4331 146.819 91.3273 146.813 91.2208L146.785 91.0046L146.705 90.8165C146.657 90.7246 146.586 90.6468 146.499 90.5909C146.42 90.5216 146.327 90.4717 146.226 90.4452L146.226 90.4169Z" fill="white"/>
<path d="M140.574 89.5788L140.649 89.48L140.743 89.2544C140.776 89.1312 140.776 89.0015 140.743 88.8783C140.742 88.7955 140.72 88.7144 140.677 88.6432C140.64 88.5281 140.574 88.4245 140.485 88.3424L140.292 88.1919L140.071 88.0979C139.948 88.065 139.818 88.065 139.695 88.0979C139.571 88.1029 139.451 88.1402 139.347 88.206L139.248 88.286C139.106 88.3684 138.987 88.4867 138.905 88.6291C138.819 88.7707 138.773 88.9334 138.773 89.0993L138.806 89.3531C138.851 89.5125 138.935 89.658 139.051 89.7762C139.136 89.8675 139.242 89.9355 139.361 89.9737C139.474 90.0332 139.601 90.0608 139.728 90.0536C139.893 90.052 140.055 90.0083 140.198 89.9266C140.339 89.8421 140.457 89.7243 140.541 89.5835L140.574 89.5788Z" fill="white"/>
<path d="M144.021 87.919C144.021 87.514 143.693 87.1856 143.288 87.1856C142.883 87.1856 142.555 87.514 142.555 87.919C142.555 88.324 142.883 88.6524 143.288 88.6524C143.693 88.6524 144.021 88.324 144.021 87.919Z" fill="white"/>
<path d="M47.8745 13.7552C47.207 17.9109 50.1499 22.015 53.9342 23.8531C55.9845 24.9041 58.3206 25.2604 60.591 24.8685C63.4774 24.2903 65.9314 22.203 67.3511 19.6221C69.6827 15.2286 69.2112 9.87451 66.1476 5.95608C62.9377 2.1357 57.7405 0.628507 52.9846 2.13881C50.5871 2.9568 48.3447 4.74321 47.7617 7.20657" fill="#FF6739"/>
<path d="M47.6297 13.7581C46.901 19.6203 51.9735 24.6599 57.5819 25.365C63.618 26.1266 68.4319 21.0776 69.1465 15.3705C69.9403 9.59975 66.6489 4.04398 61.2064 1.96776C56.2467 0.115535 49.1387 1.41773 47.4322 7.10134C47.3967 7.28918 47.5114 7.47279 47.6958 7.52319C47.8802 7.5736 48.0724 7.47388 48.1374 7.29408C49.7922 1.90665 56.6839 0.989936 61.244 2.86097C65.9472 4.82076 68.8358 9.6047 68.3802 14.6795C67.9383 19.8977 63.9189 24.862 58.3387 24.6176C52.7585 24.3731 47.5544 19.4793 48.1421 13.7581C48.175 13.429 47.672 13.4384 47.6297 13.7581Z" fill="#FF6739"/>
<path d="M46.8877 13.4798C45.8629 20.0096 51.2315 25.7825 57.5686 26.5817C64.1501 27.4044 69.4952 21.9417 70.3508 15.7081C71.2158 9.37574 67.8357 3.23143 61.8231 0.909101C56.1818 -1.2628 48.2369 0.363775 46.3518 6.79955C45.8206 8.62357 48.6224 9.38045 49.1725 7.58463C50.6486 2.88355 56.854 2.33353 60.7465 3.9601C64.9661 5.77146 67.5302 10.1033 67.0883 14.6739C66.7075 19.2621 63.1629 23.5307 58.3067 23.385C53.2953 23.2345 48.5143 18.9001 48.881 13.7524C48.9609 12.6148 47.0476 12.3421 46.8689 13.4798L46.8877 13.4798Z" fill="black"/>
<path d="M51.0074 10.93C50.6125 14.4135 51.3411 18.1696 54.6742 19.9936C57.0764 21.3099 60.9407 21.0608 62.4545 18.5363C63.075 17.5068 61.5143 16.6559 60.8655 17.5961C59.5257 19.5423 56.2256 17.8076 55.0127 16.6042C53.5722 15.0533 52.7378 13.0359 52.6621 10.9206C52.6621 10.4688 52.2959 10.1026 51.8441 10.1026C51.3924 10.1026 51.0262 10.4688 51.0262 10.9206L51.0074 10.93Z" fill="white"/>
<path d="M113.804 24.0651C111.054 27.2525 111.407 32.292 113.663 35.8413C114.858 37.8123 116.659 39.3431 118.797 40.2039C121.556 41.2194 124.725 40.7492 127.301 39.2872C131.6 36.7732 134.014 31.962 133.46 27.0127C132.732 22.0758 129.097 18.0659 124.255 16.8584C121.787 16.2942 118.938 16.6374 117.147 18.4285" fill="#FF6739"/>
<path d="M113.629 23.8853C110.009 28.3748 111.447 35.0739 115.603 38.7313C120.304 42.8871 127.356 41.2323 131.084 36.5782C134.692 32.1711 134.874 25.8842 131.526 21.2762C128.315 16.9371 121.447 14.14 116.905 18.1688C116.553 18.4838 117.07 19.0009 117.427 18.6906C121.841 14.8122 128.484 18.056 131.267 22.3104C134.05 26.5649 133.566 32.0887 130.444 36.0188C126.933 40.4331 120.332 41.9375 115.923 37.9274C112.162 34.5097 110.784 28.3983 114.042 24.1956C114.221 23.9652 113.826 23.6597 113.643 23.8853L113.629 23.8853Z" fill="#FF6739"/>
<path d="M113.081 23.3498C108.972 28.1261 110.237 35.5068 114.745 39.5967C119.917 44.2978 127.777 42.6336 131.97 37.4765C135.99 32.5357 136.305 25.517 132.379 20.4304C128.675 15.6259 121.12 12.9087 116.123 17.3982C114.712 18.6722 116.781 20.689 118.205 19.4761C122.046 16.1571 127.876 19.3257 130.217 22.9314C132.635 26.7809 132.329 31.7443 129.455 35.267C126.385 39.1078 120.697 40.4805 116.762 37.0863C113.232 34.0306 111.84 28.5257 114.68 24.5909C115.357 23.6507 113.829 22.4707 113.072 23.3498L113.081 23.3498Z" fill="black"/>
<path d="M118.073 23.1539C116.009 25.7818 114.552 29.0067 116.004 32.3069C117.245 35.1275 120.795 37.149 123.738 35.7716C124.678 35.3344 124.001 33.6984 123.028 34.0839C120.56 35.0617 118.637 31.8697 118.294 29.8529C118.016 27.8841 118.389 25.8783 119.356 24.1411C119.765 23.3654 118.675 22.3829 118.073 23.1492L118.073 23.1539Z" fill="white"/>
<path d="M127.376 34.8984L127.437 34.8326C127.655 34.6098 127.74 34.2877 127.658 33.9864L127.573 33.7796C127.495 33.6509 127.387 33.5428 127.258 33.4646C127.054 33.355 126.816 33.3249 126.591 33.38C126.444 33.4166 126.311 33.4931 126.205 33.6009C126.098 33.7082 126.021 33.8409 125.979 33.9864L125.951 34.0663L125.918 34.2967C125.915 34.4095 125.941 34.5213 125.994 34.6211C126.011 34.6926 126.049 34.7577 126.102 34.8091C126.161 34.9024 126.244 34.9785 126.341 35.0301L126.544 35.1147L126.774 35.1476C126.888 35.1536 127.002 35.1276 127.103 35.0724C127.207 35.0373 127.3 34.9776 127.376 34.8984Z" fill="white"/>
<path d="M128.703 29.4632L128.638 29.4021C128.537 29.3018 128.412 29.229 128.276 29.1905C128.134 29.1529 127.985 29.1529 127.843 29.1905L127.646 29.2752C127.524 29.3459 127.422 29.4461 127.349 29.5666C127.293 29.659 127.261 29.7641 127.255 29.8722C127.227 29.9785 127.227 30.0903 127.255 30.1966C127.292 30.3342 127.365 30.4593 127.467 30.5586C127.566 30.6614 127.691 30.7346 127.829 30.7701L127.909 30.803L128.12 30.8312C128.228 30.8369 128.336 30.8125 128.431 30.7607C128.497 30.7432 128.558 30.7074 128.605 30.6573C128.693 30.6026 128.765 30.5245 128.812 30.4316L128.896 30.2436L128.924 30.0273C128.93 29.9209 128.905 29.8151 128.854 29.7218C128.822 29.6227 128.766 29.5336 128.689 29.4632L128.703 29.4632Z" fill="white"/>
<path d="M124.15 25.862L124.268 25.815C124.387 25.7884 124.498 25.7299 124.587 25.6458C124.69 25.5809 124.775 25.4901 124.832 25.3825L124.926 25.1615C124.959 25.0383 124.959 24.9087 124.926 24.7855C124.926 24.7031 124.905 24.622 124.865 24.5504C124.826 24.4332 124.758 24.3279 124.667 24.2448L124.479 24.0991C124.336 24.0162 124.174 23.9725 124.009 23.9722L123.887 23.9722C123.722 23.9737 123.56 24.0174 123.417 24.0991L123.224 24.2495C123.107 24.3666 123.022 24.5125 122.979 24.6726C122.944 24.7971 122.944 24.9289 122.979 25.0534C122.984 25.1791 123.023 25.3011 123.092 25.406C123.223 25.6188 123.427 25.7761 123.666 25.8479C123.832 25.8945 124.008 25.8945 124.174 25.8479L124.15 25.862Z" fill="white"/>
<path d="M128.264 25.7979C128.264 25.3929 127.935 25.0645 127.53 25.0645C127.125 25.0645 126.797 25.3929 126.797 25.7979C126.797 26.2029 127.125 26.5313 127.53 26.5313C127.935 26.5313 128.264 26.2029 128.264 25.7979Z" fill="white"/>
<path d="M70.7246 71.556C67.9744 74.7433 68.3223 79.7829 70.5788 83.3322C71.7733 85.3032 73.5745 86.8339 75.7124 87.6948C78.4719 88.7149 81.6593 88.226 84.2214 86.7546C88.5187 84.2389 90.932 79.4289 90.3798 74.4801C89.654 69.547 86.0256 65.5382 81.1892 64.3257C78.7211 63.7616 75.8722 64.1048 74.0811 65.8959" fill="#FF6739"/>
<path d="M70.5388 71.3775C66.9189 75.867 68.3575 82.5661 72.5132 86.2235C77.2378 90.3793 84.2659 88.7245 87.9939 84.0704C91.6041 79.6644 91.7876 73.3775 88.4405 68.7684C85.2249 64.4293 78.3614 61.6322 73.8201 65.661C73.4628 65.976 73.9847 66.4931 74.3372 66.1828C78.7563 62.3044 85.3942 65.5482 88.1772 69.8026C90.9603 74.0571 90.4807 79.5809 87.3545 83.511C83.824 87.9253 77.2425 89.4296 72.8329 85.4102C69.072 81.9925 67.6993 75.8811 70.9525 71.6784C71.1264 71.448 70.7315 71.1424 70.5482 71.3681L70.5388 71.3775Z" fill="#FF6739"/>
<path d="M69.9963 70.8342C65.8875 75.6105 67.1756 82.9912 71.6558 87.0811C76.827 91.7822 84.6872 90.118 88.8805 84.9609C92.8999 80.0201 93.2149 73.0014 89.2942 67.9148C85.5898 63.1103 78.0351 60.3931 73.0379 64.8826C71.6276 66.1566 73.696 68.1734 75.1158 66.9605C78.9612 63.6415 84.7906 66.81 87.127 70.4158C89.5502 74.2641 89.2436 79.2303 86.3654 82.7514C83.3003 86.5922 77.6073 87.9649 73.6725 84.5707C70.142 81.515 68.7505 76.0101 71.59 72.0753C72.2669 71.135 70.7391 69.9551 69.9822 70.8342L69.9963 70.8342Z" fill="black"/>
<path d="M74.9947 70.6461C72.9309 73.274 71.4736 76.4989 72.9262 79.7991C74.1673 82.6197 77.7166 84.6412 80.6595 83.2638C81.5997 82.8266 80.9227 81.1906 79.9496 81.5761C77.4815 82.5539 75.5588 79.3619 75.2109 77.3451C74.9344 75.3757 75.3091 73.37 76.2781 71.6333C76.6824 70.8576 75.5964 69.8751 74.9947 70.6414L74.9947 70.6461Z" fill="white"/>
<path d="M84.2894 82.3884L84.3505 82.3226C84.4582 82.2161 84.536 82.0832 84.5762 81.9371C84.6203 81.7835 84.6203 81.6206 84.5762 81.467L84.4869 81.2602C84.4125 81.1301 84.3056 81.0215 84.1766 80.9452C84.0793 80.8831 83.9675 80.8474 83.8522 80.8418C83.7383 80.8113 83.6183 80.8113 83.5043 80.8418C83.3597 80.8795 83.2281 80.9559 83.1236 81.0627C83.0159 81.1693 82.9381 81.3022 82.8979 81.4482L82.865 81.5281L82.8368 81.7538C82.8309 81.8678 82.8553 81.9813 82.9073 82.0829C82.9296 82.1536 82.9682 82.218 83.0201 82.2709C83.0794 82.3642 83.1621 82.4403 83.2599 82.4919L83.462 82.5765L83.6877 82.6094C83.911 82.5983 84.1236 82.5103 84.2894 82.3602L84.2894 82.3884Z" fill="white"/>
<path d="M85.6135 76.9438L85.5477 76.8827C85.4502 76.7808 85.3266 76.7076 85.1904 76.6711C85.0471 76.6335 84.8965 76.6335 84.7532 76.6711L84.5558 76.7557C84.4355 76.8266 84.3352 76.9269 84.2643 77.0472C84.2043 77.1382 84.1702 77.2438 84.1656 77.3528C84.1375 77.4591 84.1375 77.5708 84.1656 77.6771C84.2059 77.8131 84.2785 77.9373 84.3772 78.0391C84.4773 78.1401 84.6021 78.213 84.7391 78.2507L84.8191 78.2836L85.0353 78.3118C85.1417 78.3171 85.2475 78.2927 85.3409 78.2413C85.4088 78.2239 85.4706 78.1881 85.5195 78.1378C85.6069 78.0819 85.6782 78.0041 85.7264 77.9122L85.8063 77.7242L85.8345 77.5079C85.839 77.4021 85.8163 77.2969 85.7687 77.2023C85.7374 77.1021 85.6788 77.0125 85.5994 76.9438L85.6135 76.9438Z" fill="white"/>
<path d="M81.0657 73.3542L81.1879 73.3072C81.3074 73.2795 81.4176 73.2212 81.5076 73.1379C81.6095 73.073 81.6922 72.9821 81.7474 72.8747L81.8414 72.6537C81.8764 72.5308 81.8764 72.4006 81.8414 72.2776C81.8405 72.1949 81.8178 72.1138 81.7756 72.0426C81.7384 71.926 81.672 71.8208 81.5828 71.737L81.3948 71.5913C81.252 71.5084 81.0898 71.4647 80.9247 71.4644L80.7978 71.4644C80.6326 71.4647 80.4705 71.5084 80.3276 71.5913L80.1302 71.7417C80.0129 71.8587 79.9285 72.0047 79.8857 72.1648C79.8506 72.2893 79.8506 72.4211 79.8857 72.5456C79.8901 72.6713 79.9292 72.7933 79.9986 72.8982C80.0552 73.0086 80.1394 73.1026 80.243 73.1708C80.336 73.2525 80.4473 73.3105 80.5674 73.3401C80.7334 73.3866 80.9091 73.3866 81.0751 73.3401L81.0657 73.3542Z" fill="white"/>
<path d="M85.1769 73.2862C85.1463 72.9052 84.8281 72.6115 84.4459 72.6115C84.0636 72.6115 83.7454 72.9052 83.7148 73.2862C83.7454 73.6673 84.0636 73.9609 84.4459 73.9609C84.8281 73.9609 85.1463 73.6673 85.1769 73.2862Z" fill="white"/>
<path d="M209.66 97.1176C213.811 97.7852 217.919 94.8423 219.753 91.058C220.805 89.0081 221.163 86.6721 220.773 84.4012C220.19 81.5148 218.107 79.0608 215.527 77.6411C211.13 75.3008 205.767 75.7726 201.846 78.8446C198.024 82.0531 196.516 87.2518 198.029 92.0076C198.842 94.4051 200.634 96.6475 203.097 97.2305" fill="#FF6739"/>
<path d="M209.659 97.3741C215.522 98.1028 220.561 93.0303 221.266 87.422C222.028 81.3905 216.979 76.5719 211.267 75.8573C205.498 75.064 199.944 78.3556 197.869 83.7974C196.017 88.7571 197.319 95.8651 202.998 97.5763C203.194 97.6308 203.397 97.5161 203.452 97.3201C203.506 97.1241 203.392 96.9209 203.195 96.8664C197.803 95.2116 196.887 88.3199 198.758 83.7598C200.721 79.0577 205.506 76.1714 210.581 76.6283C215.799 77.0655 220.763 81.0849 220.519 86.6651C220.275 92.2453 215.381 97.4494 209.659 96.8617C209.326 96.8288 209.335 97.3318 209.659 97.3741Z" fill="#FF6739"/>
<path d="M209.386 98.1003C215.916 99.1205 221.689 93.7518 222.483 87.4148C223.311 80.8333 217.848 75.4881 211.61 74.6372C205.277 73.7723 199.138 77.1476 196.815 83.1603C194.643 88.8016 196.27 96.7511 202.706 98.6316C204.53 99.1675 205.287 96.3609 203.486 95.8109C198.809 94.3348 198.24 88.1246 199.866 84.2322C201.677 80.0118 206.009 77.4461 210.58 77.8857C215.168 78.2712 219.432 81.8158 219.286 86.6673C219.136 91.6787 214.806 96.4597 209.659 96.0977C208.521 96.0178 208.248 97.9311 209.386 98.1097L209.386 98.1003Z" fill="black"/>
<path d="M206.827 93.9793C210.316 94.3789 214.072 93.6456 215.896 90.3125C217.212 87.9103 216.958 84.0507 214.438 82.5322C213.409 81.9117 212.558 83.4724 213.498 84.1212C215.444 85.4657 213.705 88.7659 212.506 89.974C210.953 91.4141 208.935 92.2483 206.818 92.3246C206.366 92.3246 206 92.6908 206 93.1426C206 93.5943 206.366 93.9605 206.818 93.9605L206.827 93.9793Z" fill="white"/>
<path d="M211.78 79.8835L211.695 79.8835C211.393 79.7988 211.069 79.8852 210.849 80.1091L210.712 80.2831C210.632 80.4165 210.59 80.5693 210.59 80.725C210.586 80.8408 210.612 80.9557 210.665 81.0588C210.7 81.1664 210.763 81.2624 210.849 81.3361C211.069 81.56 211.393 81.6465 211.695 81.5618L211.78 81.5618L211.982 81.4725C212.078 81.4212 212.161 81.347 212.221 81.2562C212.273 81.2023 212.311 81.1359 212.33 81.0635C212.385 80.9648 212.411 80.8522 212.405 80.7391L212.377 80.5087L212.287 80.3066C212.236 80.2101 212.162 80.1277 212.071 80.0668C211.988 79.9924 211.888 79.9406 211.78 79.9164L211.78 79.8835Z" fill="white"/>
<path d="M206.427 81.5874L206.427 81.6767C206.389 81.8184 206.389 81.9675 206.427 82.1092C206.463 82.2468 206.536 82.3719 206.638 82.4712L206.803 82.5981C206.928 82.6725 207.071 82.7115 207.216 82.7109C207.431 82.7017 207.636 82.6168 207.795 82.4712C207.897 82.3719 207.97 82.2468 208.006 82.1092C208.044 81.9675 208.044 81.8184 208.006 81.6767L208.006 81.5874L207.926 81.3993C207.878 81.3074 207.807 81.2296 207.719 81.1737C207.672 81.1236 207.612 81.0877 207.546 81.0703C207.45 81.0193 207.343 80.995 207.235 80.9997L207.024 81.028L206.831 81.1079C206.74 81.1575 206.663 81.2285 206.605 81.3147C206.536 81.392 206.487 81.4859 206.464 81.5874L206.427 81.5874Z" fill="white"/>
<path d="M205.581 87.2433L205.482 87.168L205.256 87.074C205.135 87.0413 205.006 87.0413 204.885 87.074C204.801 87.0726 204.718 87.0937 204.645 87.1351C204.53 87.1736 204.427 87.2398 204.344 87.3279L204.198 87.5206L204.104 87.7463C204.069 87.8676 204.069 87.9964 204.104 88.1177C204.108 88.242 204.147 88.3627 204.217 88.4655L204.293 88.569C204.377 88.7098 204.495 88.8276 204.636 88.9121C204.779 88.9938 204.941 89.0375 205.106 89.0391L205.36 89.0062C205.518 88.9615 205.662 88.8773 205.778 88.7617C205.947 88.575 206.046 88.336 206.06 88.0848C206.057 87.9194 206.012 87.7576 205.928 87.6146C205.844 87.4738 205.726 87.356 205.585 87.2715L205.581 87.2433Z" fill="white"/>
<path d="M204.646 84.5245C204.646 84.1194 204.318 83.7911 203.913 83.7911C203.508 83.7911 203.18 84.1194 203.18 84.5245C203.18 84.9295 203.508 85.2578 203.913 85.2578C204.318 85.2578 204.646 84.9295 204.646 84.5245Z" fill="white"/>
<path d="M168.868 30.9737C166.127 34.1658 166.489 39.2053 168.76 42.7499C169.957 44.7178 171.763 46.2425 173.903 47.0937C176.667 48.1092 179.85 47.6156 182.407 46.1535C186.694 43.6254 189.09 38.809 188.519 33.8649C187.781 28.9338 184.14 24.9351 179.3 23.7388C176.827 23.1794 173.983 23.5319 172.196 25.3277" fill="#FF6739"/>
<path d="M168.689 30.7948C165.078 35.2937 166.535 41.988 170.701 45.6361C175.435 49.7777 182.453 48.1041 186.177 43.4407C189.773 39.0223 189.937 32.734 186.576 28.1339C183.351 23.8043 176.478 21.0259 171.951 25.0688C171.594 25.3838 172.116 25.9009 172.468 25.586C176.873 21.6982 183.525 24.9231 186.318 29.1682C189.11 33.4133 188.668 38.937 185.537 42.8765C182.04 47.305 175.444 48.8281 171.02 44.8322C167.259 41.4239 165.849 35.3172 169.088 31.105C169.262 30.8747 168.867 30.5691 168.689 30.7948Z" fill="#FF6739"/>
<path d="M168.143 30.2512C164.049 35.0369 165.323 42.4129 169.845 46.4934C175.016 51.1945 182.881 49.4927 187.065 44.3309C191.075 39.3807 191.372 32.3572 187.437 27.2801C183.723 22.4897 176.154 19.7584 171.171 24.2902C169.761 25.5689 171.829 27.6045 173.249 26.3681C177.08 23.0397 182.919 26.18 185.27 29.7811C187.703 33.6209 187.414 38.5857 184.55 42.1167C181.495 45.9716 175.806 47.3631 171.857 43.9971C168.322 40.9555 166.907 35.4506 169.737 31.5064C170.414 30.5661 168.886 29.3815 168.129 30.2653L168.143 30.2512Z" fill="black"/>
<path d="M173.145 30.053C171.086 32.6856 169.638 35.9153 171.095 39.206C172.346 42.0267 175.9 44.0435 178.843 42.6566C179.783 42.2147 179.106 40.5835 178.133 40.9737C175.66 41.9562 173.732 38.7688 173.38 36.7427C173.097 34.7738 173.465 32.7665 174.428 31.0262C174.833 30.2505 173.742 29.2633 173.145 30.0342L173.145 30.053Z" fill="white"/>
<path d="M182.466 41.7695L182.527 41.7037C182.745 41.4809 182.829 41.1588 182.748 40.8575L182.663 40.6507C182.585 40.522 182.477 40.4139 182.348 40.3357C182.144 40.2261 181.906 40.196 181.681 40.2511C181.534 40.2877 181.401 40.3642 181.295 40.472C181.188 40.5793 181.111 40.712 181.069 40.8575L181.041 40.9374L181.008 41.1678C181.004 41.2807 181.03 41.3927 181.083 41.4922C181.101 41.5637 181.139 41.6288 181.192 41.6802C181.251 41.7735 181.334 41.8496 181.431 41.9011L181.634 41.9858L181.864 42.0187C181.978 42.0247 182.092 41.9987 182.193 41.9435C182.297 41.9094 182.391 41.8496 182.466 41.7695Z" fill="white"/>
<path d="M183.781 36.3149L183.716 36.2538C183.616 36.1538 183.491 36.0824 183.354 36.0469C183.213 36.0046 183.062 36.0046 182.921 36.0469L182.724 36.1268C182.602 36.1981 182.502 36.3003 182.432 36.423C182.372 36.512 182.338 36.6163 182.334 36.7239C182.305 36.8318 182.305 36.945 182.334 37.0529C182.374 37.1875 182.446 37.3102 182.545 37.4102C182.644 37.5122 182.769 37.5854 182.907 37.6218L182.987 37.6547L183.203 37.6829C183.31 37.6882 183.415 37.6638 183.509 37.6124C183.577 37.595 183.639 37.5592 183.687 37.5089C183.774 37.4516 183.845 37.3741 183.894 37.2833L183.974 37.0952L184.002 36.879C184.008 36.7726 183.983 36.6668 183.932 36.5734C183.903 36.4733 183.846 36.3836 183.767 36.3149L183.781 36.3149Z" fill="white"/>
<path d="M179.214 32.755L179.336 32.708C179.456 32.6803 179.566 32.622 179.656 32.5387C179.756 32.4711 179.838 32.3809 179.896 32.2755L179.99 32.0498C180.023 31.9282 180.023 31.8 179.99 31.6784C179.99 31.594 179.967 31.5112 179.924 31.4387C179.886 31.324 179.819 31.2207 179.731 31.1378L179.539 30.9921C179.396 30.9092 179.234 30.8654 179.068 30.8651L178.941 30.8651C178.776 30.8705 178.615 30.9157 178.471 30.9968L178.279 31.1472C178.161 31.2642 178.077 31.4102 178.034 31.5703C177.999 31.6948 177.999 31.8266 178.034 31.9511C178.043 32.076 178.082 32.1969 178.147 32.3037C178.284 32.5105 178.486 32.6659 178.721 32.7456C178.887 32.7879 179.062 32.7879 179.228 32.7456L179.214 32.755Z" fill="white"/>
<path d="M183.334 32.6651C183.334 32.26 183.006 31.9317 182.601 31.9317C182.196 31.9317 181.867 32.26 181.867 32.6651C181.867 33.0701 182.196 33.3984 182.601 33.3984C183.006 33.3984 183.334 33.0701 183.334 32.6651Z" fill="white"/>
<path d="M71.8528 48.7385C77.1885 48.7714 82.2563 48.7808 87.5685 49.5283C89.1198 49.7492 89.8297 47.4081 88.2313 47.1213C82.9144 46.1811 76.9252 45.8756 71.6036 46.8957C70.5412 47.0978 70.8185 48.7338 71.8528 48.7385Z" fill="black"/>
<path d="M86.335 32.8616C86.2602 32.0777 86.4241 31.2896 86.8051 30.6004C87.3927 29.5568 85.7427 28.6166 85.2161 29.6602C84.7051 30.6416 84.4957 31.7522 84.6144 32.8522C84.6292 33.3177 85.0044 33.6909 85.47 33.7031C85.9378 33.698 86.3158 33.3201 86.3209 32.8522L86.335 32.8616Z" fill="black"/>
<path d="M100.784 34.2272L100.751 33.4092C100.778 33.0016 100.575 32.613 100.226 32.4011C99.877 32.1892 99.4389 32.1892 99.0897 32.4011C98.7405 32.613 98.5382 33.0016 98.565 33.4092L98.5273 34.2272C98.5273 34.8503 99.0325 35.3555 99.6556 35.3555C100.279 35.3555 100.784 34.8503 100.784 34.2272Z" fill="black"/>
<path d="M102.046 83.2894C106.813 81.8791 111.152 78.5413 114.659 75.1236C115.952 73.8591 113.931 71.8329 112.675 73.1398C109.286 76.6609 105.389 78.9738 101.322 81.5735C100.448 82.133 100.993 83.5997 102.046 83.2894Z" fill="black"/>
<path d="M113.601 57.9209C113.639 57.8363 113.686 57.7563 113.728 57.6764C113.813 57.5213 113.629 57.7704 113.728 57.6435C113.827 57.5166 113.86 57.5166 113.925 57.4508C114.066 57.3097 113.897 57.4508 113.991 57.3897L114.184 57.2768C114.283 57.2204 114.076 57.2768 114.264 57.2439C114.334 57.2439 114.405 57.2063 114.48 57.1922C114.259 57.2298 114.593 57.1922 114.616 57.1922C115.036 57.2193 115.436 57.0109 115.654 56.6513C115.872 56.2918 115.872 55.8408 115.654 55.4813C115.436 55.1217 115.036 54.9133 114.616 54.9404C113.221 54.8216 111.932 55.6932 111.523 57.0324C111.377 57.5765 111.655 58.1449 112.174 58.3641C112.693 58.5833 113.294 58.3861 113.582 57.9021L113.601 57.9209Z" fill="black"/>
<path d="M130.706 56.4408L132.342 57.2587C132.872 57.5677 133.552 57.3888 133.861 56.8592C134.169 56.3295 133.991 55.6497 133.461 55.3407L131.83 54.5227C131.3 54.2125 130.619 54.3903 130.309 54.92C129.999 55.4496 130.176 56.1305 130.706 56.4408Z" fill="black"/>
<path d="M149.347 63.9315C149.347 62.413 146.996 62.413 146.996 63.9315C146.996 65.4499 149.347 65.4499 149.347 63.9315Z" fill="black"/>
<path d="M177.126 97.9392C174.973 95.3866 172.077 93.2617 169.605 91.0192C168.594 90.1025 167.09 91.6116 168.11 92.5142C170.672 94.7848 173.168 97.4785 176.012 99.3872C176.952 100.003 177.766 98.6914 177.131 97.9392L177.126 97.9392Z" fill="black"/>
<path d="M187.412 78.3563L186.048 74.5391C185.578 73.1852 183.383 73.7681 183.877 75.1408L185.235 78.9581C185.705 80.312 187.901 79.7291 187.412 78.3563Z" fill="black"/>
<path d="M178.408 116.167L176.772 115.076C176.266 114.786 175.622 114.956 175.324 115.457C175.042 115.963 175.21 116.602 175.705 116.905L177.341 117.995C177.846 118.285 178.491 118.116 178.789 117.615C179.07 117.108 178.902 116.469 178.408 116.167Z" fill="black"/>
<path d="M162.806 111.46C162.166 110.801 161.35 110.339 160.455 110.129C159.919 109.981 159.364 110.296 159.216 110.832C159.068 111.368 159.383 111.923 159.919 112.071C160.482 112.185 160.998 112.469 161.395 112.884C162.303 113.824 163.746 112.391 162.806 111.474L162.806 111.46Z" fill="black"/>
<path d="M113.061 99.9157C113.019 99.2241 113.183 98.5356 113.531 97.9365C114.147 96.8882 112.464 95.9197 111.914 96.9963C111.434 97.892 111.223 98.9076 111.307 99.9204C111.406 101.016 113.089 101.058 113.047 99.9204L113.061 99.9157Z" fill="black"/>
<path d="M168.824 64.4602C172.115 63.2379 175.405 62.0486 178.668 60.7511C179.81 60.281 179.335 58.4287 178.151 58.8706C174.86 60.1117 171.621 61.4609 168.363 62.7772C167.348 63.1862 167.761 64.8504 168.833 64.4555L168.824 64.4602Z" fill="black"/>
<path d="M202.629 51.9852C202.522 51.9047 202.423 51.815 202.333 51.7172C202.469 51.8629 202.248 51.5715 202.22 51.5292C202.163 51.4116 202.163 51.4069 202.22 51.5292L202.168 51.3364C202.14 51.2048 202.14 51.2048 202.168 51.3364L202.168 51.1343C202.168 50.5215 201.671 50.0248 201.059 50.0248C200.446 50.0248 199.949 50.5215 199.949 51.1343C199.982 52.1636 200.507 53.1147 201.36 53.6917C201.827 53.9517 202.414 53.831 202.741 53.4077C203.068 52.9844 203.036 52.3857 202.666 51.9993L202.629 51.9852Z" fill="black"/>
<path d="M221.608 60.1078L221.885 59.0171C221.981 58.6703 221.884 58.2988 221.632 58.0425C221.379 57.7861 221.009 57.684 220.661 57.7745C220.313 57.865 220.039 58.1344 219.943 58.4812L219.685 59.5531C219.589 59.8999 219.686 60.2714 219.938 60.5278C220.191 60.7841 220.561 60.8862 220.909 60.7957C221.257 60.7052 221.531 60.4358 221.626 60.089L221.608 60.1078Z" fill="black"/>
<path d="M197.677 113.415L199.656 109.654C200.225 108.569 198.518 107.624 198.034 108.714L196.295 112.621C195.881 113.561 197.188 114.36 197.677 113.429L197.677 113.415Z" fill="black"/>
<path d="M141.458 33.2248C144.937 35.9091 150.306 39.1952 154.866 37.9259C156.802 37.3946 155.933 34.2825 154.038 34.9266C150.31 36.1818 145.76 33.0085 142.53 31.3773C141.28 30.7473 140.405 32.388 141.458 33.206L141.458 33.2248Z" fill="black"/>
<path d="M207.026 34.862C210.989 32.1824 215.155 29.8036 219.103 27.1052C220.382 26.2308 219.268 24.2517 217.881 25.0085C213.693 27.298 209.8 30.2173 205.959 33.0333C204.878 33.8231 205.879 35.6377 207.026 34.862Z" fill="black"/>
<path d="M64.2332 41.2485C64.7073 40.513 65.3525 39.9032 66.1137 39.4715C67.256 38.8134 66.203 37.0034 65.0794 37.7039C64.0479 38.3442 63.1854 39.2228 62.5643 40.266C61.9203 41.3472 63.5704 42.2969 64.2426 41.2485L64.2332 41.2485Z" fill="black"/>
<path d="M63.138 56.6461L62.5927 55.8281C62.4398 55.5094 62.1211 55.3033 61.7677 55.2948C61.4144 55.2862 61.086 55.4765 60.9179 55.7874C60.7497 56.0983 60.7702 56.4773 60.9708 56.7683L61.5161 57.5816C61.7947 57.9857 62.3372 58.1075 62.7618 57.8614C63.1864 57.6152 63.3502 57.0839 63.138 56.6414L63.138 56.6461Z" fill="black"/>
<path d="M45.681 34.1668L50.3162 34.9848C51.6278 35.2199 52.1967 33.2125 50.871 32.9775L46.2357 32.1595C44.9241 31.9244 44.3553 33.9318 45.681 34.1668Z" fill="black"/>
<path d="M125.512 117.954C126.83 117.441 128.022 116.649 129.005 115.632C129.908 114.691 128.427 113.234 127.595 114.221C126.83 115.104 125.882 115.808 124.816 116.285C123.876 116.708 124.558 118.358 125.526 117.968L125.512 117.954Z" fill="black"/>
<path d="M86.5688 91.6265L89.8595 91.6641C91.1758 91.6641 91.1805 89.6003 89.8595 89.6144L86.5688 89.6473C85.2948 89.6473 85.2948 91.6171 86.5688 91.6265Z" fill="black"/>
<path d="M147.538 114.354C147.7 112.813 147.7 111.259 147.538 109.719C147.401 108.468 145.427 108.449 145.554 109.719C145.716 111.259 145.716 112.813 145.554 114.354C145.413 115.637 147.434 115.637 147.566 114.354L147.538 114.354Z" fill="black"/>
<path d="M162.195 82.062C163.502 80.7647 164.722 79.3828 165.847 77.9251C166.178 77.5763 166.282 77.0698 166.114 76.6192C165.947 76.1687 165.538 75.8526 165.06 75.8044C164.581 75.7563 164.117 75.9844 163.864 76.3925C162.761 77.8706 161.756 79.419 160.855 81.0278C160.648 81.3978 160.743 81.8634 161.079 82.1225C161.414 82.3815 161.889 82.3558 162.195 82.062Z" fill="#FF6739"/>
<path d="M150.788 75.2149L147.535 73.1465C146.27 72.3379 145.086 74.3688 146.36 75.1491L149.65 77.1612C150.891 77.9228 152.001 75.9953 150.788 75.2149Z" fill="#FF6739"/>
<path d="M138.246 73.0804C136.673 72.7989 135.051 73.1357 133.719 74.0206C132.544 74.8198 133.653 76.7472 134.838 75.9386C135.651 75.3441 136.66 75.0849 137.659 75.2147C138.248 75.3586 138.848 75.0186 139.027 74.439C139.183 73.849 138.838 73.2425 138.251 73.0757L138.246 73.0804Z" fill="#FF6739"/>
<path d="M129.377 87.6346C129.283 87.5312 129.269 87.5218 129.335 87.6064C129.291 87.5438 129.251 87.4778 129.217 87.409C129.33 87.6346 129.147 87.1363 129.175 87.2914C129.175 87.3714 129.175 87.0517 129.175 86.9906C129.152 87.2021 129.26 86.7884 129.278 86.7414C129.432 86.1289 129.072 85.5048 128.465 85.3311C127.854 85.1876 127.237 85.5436 127.055 86.1444C126.652 87.2401 126.924 88.4701 127.751 89.2941C128.804 90.3612 130.444 88.7206 129.396 87.6534L129.377 87.6346Z" fill="#FF6739"/>
<path d="M125.056 107.405L124.252 104.537C123.886 103.226 121.826 103.785 122.212 105.102L123.044 107.974C123.42 109.257 125.418 108.717 125.056 107.424L125.056 107.405Z" fill="#FF6739"/>
<path d="M115.638 85.7793C116.536 85.1793 117.547 84.7697 118.609 84.5758C119.789 84.3408 119.55 82.3898 118.323 82.4651C116.943 82.5487 115.614 83.0125 114.482 83.8049C113.274 84.6323 114.421 86.6255 115.638 85.7793Z" fill="#FF6739"/>
<path d="M183.486 88.336L182.254 87.5274C181.724 87.2235 181.048 87.4014 180.736 87.927C180.442 88.4587 180.618 89.1271 181.135 89.4455L182.367 90.2541C182.897 90.558 183.573 90.3801 183.885 89.8545C184.179 89.3228 184.003 88.6544 183.486 88.336Z" fill="#FF6739"/>
<path d="M186.912 105.951L187.74 103.502C187.848 103.108 187.738 102.686 187.451 102.395C187.164 102.105 186.744 101.989 186.349 102.092C185.954 102.195 185.643 102.501 185.535 102.895L184.736 105.354C184.571 105.955 184.925 106.576 185.526 106.741C186.127 106.906 186.748 106.552 186.912 105.951Z" fill="#FF6739"/>
<path d="M194.823 68.6723L195.293 67.0551C195.389 66.7083 195.292 66.3368 195.04 66.0804C194.787 65.8241 194.417 65.722 194.069 65.8125C193.721 65.903 193.447 66.1724 193.352 66.5192L193.008 68.1693C192.896 68.6593 193.189 69.1512 193.673 69.2858C194.157 69.4204 194.662 69.1501 194.818 68.6723L194.823 68.6723Z" fill="#FF6739"/>
<path d="M213.396 106.455L213.805 101.547C213.917 100.212 211.83 100.217 211.722 101.547L211.313 106.455C211.2 107.79 213.283 107.781 213.396 106.455Z" fill="#FF6739"/>
<path d="M206.138 67.6283C206.725 66.6376 206.966 65.4802 206.824 64.3375C206.669 62.8614 204.502 63.1434 204.812 64.6102C204.952 65.405 204.893 66.2218 204.643 66.9889C204.551 67.3796 204.755 67.7795 205.124 67.9354C205.494 68.0912 205.923 67.9575 206.138 67.6189L206.138 67.6283Z" fill="#FF6739"/>
<path d="M210.71 43.9177C212.417 44.026 214.122 43.6891 215.66 42.9398C217.968 41.9197 220.591 40.1568 223.182 41.2804C223.593 41.506 224.098 41.477 224.481 41.2056C224.864 40.9342 225.058 40.4681 224.982 40.0049C224.906 39.5417 224.572 39.1626 224.122 39.0285C219.106 37.0729 215.462 42.0043 210.681 42.1407C210.191 42.1407 209.793 42.5385 209.793 43.0292C209.793 43.5199 210.191 43.9177 210.681 43.9177L210.71 43.9177Z" fill="#FF6739"/>
<path d="M196.473 22.9464L195.312 20.4595C194.729 19.2184 192.796 20.3091 193.431 21.5455L194.714 23.9665C194.996 24.4468 195.614 24.6079 196.094 24.3262C196.575 24.0444 196.736 23.4267 196.454 22.9464L196.473 22.9464Z" fill="#FF6739"/>
<path d="M191.65 46.1704L186.309 46.9461C185.045 47.1294 185.562 49.118 186.845 48.8923L192.134 47.9521C193.309 47.7453 192.792 46.0106 191.664 46.1751L191.65 46.1704Z" fill="#FF6739"/>
<path d="M153.87 57.7825L157.631 54.172C158.708 53.1331 157.039 51.4595 155.986 52.5267L152.338 56.2358C151.346 57.2418 152.869 58.7603 153.884 57.7825L153.87 57.7825Z" fill="#FF6739"/>
<path d="M155.708 24.0694C155.839 23.1292 156.521 22.6591 157.428 22.4663C158.51 22.2595 158.26 20.5154 157.17 20.553C155.452 20.6859 154.128 22.121 154.133 23.8437C154.133 24.7134 155.581 24.9767 155.708 24.0553L155.708 24.0694Z" fill="#FF6739"/>
<path d="M159.76 48.6559C159.024 47.2449 157.743 46.1955 156.215 45.7506C154.88 45.3605 154.335 47.4242 155.642 47.8285C156.624 48.1317 157.434 48.8325 157.875 49.7607C158.505 51.0159 160.404 49.9064 159.755 48.6559L159.76 48.6559Z" fill="#FF6739"/>
<path d="M131.119 49.6195C131.119 48.4113 129.238 48.4113 129.238 49.6195C129.238 50.8276 131.119 50.8323 131.119 49.6195Z" fill="#FF6739"/>
<path d="M120.409 68.799C119.467 67.8704 118.28 67.2281 116.987 66.9468C116.379 66.792 115.756 67.1445 115.577 67.746C115.408 68.3561 115.766 68.9872 116.376 69.1563C117.295 69.3182 118.149 69.7408 118.835 70.3739C119.878 71.347 121.434 69.8051 120.405 68.8037L120.409 68.799Z" fill="#FF6739"/>
<path d="M94.8019 63.6974C95.4973 62.2221 95.9498 60.6442 96.1417 59.0246C96.103 58.4208 95.602 57.9509 94.997 57.9509C94.392 57.9509 93.891 58.4208 93.8523 59.0246C93.7197 60.253 93.3928 61.4526 92.8839 62.5786C92.3009 63.862 94.1861 64.9996 94.8019 63.6974Z" fill="#FF6739"/>
<path d="M95.1047 49.2462C96.8327 48.3264 98.8056 47.9713 100.746 48.2307C102.072 48.3906 102.067 46.2986 100.746 46.1482C98.4405 45.8944 96.1128 46.3573 94.0798 47.4739C92.9187 48.1038 93.9482 49.862 95.1141 49.2462L95.1047 49.2462Z" fill="#FF6739"/>
<path d="M107.026 47.582L106.617 50.8492C106.622 51.4417 107.101 51.9207 107.694 51.9258C108.283 51.9133 108.758 51.4386 108.77 50.8492L109.179 47.582C109.177 46.9885 108.696 46.508 108.103 46.5054C107.514 46.5203 107.041 46.9937 107.026 47.582Z" fill="#FF6739"/>
<path d="M101.287 99.2394L100.088 94.7405C99.7356 93.4148 97.606 94.0118 98.0432 95.2999L99.5429 99.7189C99.9096 100.814 101.588 100.377 101.287 99.2488L101.287 99.2394Z" fill="#FF6739"/>
<path d="M73.5815 54.2884L71.8844 52.3046C71.5206 51.9553 70.9461 51.9553 70.5822 52.3046C70.233 52.6684 70.233 53.2429 70.5822 53.6068L72.2088 55.6658C72.5905 56.0385 73.1998 56.0385 73.5815 55.6658C73.9523 55.2815 73.9523 54.6727 73.5815 54.2884Z" fill="#FF6739"/>
<path d="M70.3463 32.1524C72.0547 31.6657 73.3901 30.3303 73.8768 28.6219C74.2623 27.362 72.2362 26.8026 71.8977 28.0766C71.5781 29.2085 70.7745 30.1412 69.7023 30.6246C68.8373 31.0383 69.4484 32.4063 70.3463 32.1524Z" fill="#FF6739"/>
<path d="M56.2223 45.0275C55.5688 43.9134 54.9013 42.8321 54.182 41.7368C53.4627 40.6414 51.8832 41.6427 52.5319 42.7005C53.1807 43.7582 53.9187 44.8677 54.6615 45.9254C55.3197 46.8656 56.8193 46.0335 56.2223 45.0087L56.2223 45.0275Z" fill="#FF6739"/>
<path d="M42.0838 22.619C42.792 22.4333 43.4876 22.2025 44.1663 21.928C44.6844 21.7711 44.9884 21.2355 44.8574 20.7104C44.7089 20.1857 44.1664 19.8778 43.6398 20.0193C42.8777 20.3065 42.135 20.6425 41.4162 21.0253C41.0493 21.2511 40.9016 21.7105 41.068 22.1078C41.2344 22.5052 41.6655 22.7221 42.0838 22.619Z" fill="#FF6739"/>
<path d="M145.526 20.6608C144.266 18.456 142.348 16.491 140.768 14.5024C139.894 13.4024 138.244 14.9725 139.198 16.0726C140.82 17.9201 142.353 20.0732 144.238 21.6528C144.924 22.2263 146.01 21.5117 145.526 20.6608Z" fill="#FF6739"/>
<path d="M135.949 44.1017C135.568 45.324 135.225 46.5604 134.779 47.7592C134.52 48.4549 135.277 48.9955 135.888 48.8733C137.108 48.6152 138.214 47.9765 139.047 47.0493C139.926 46.1091 138.488 44.6611 137.637 45.639C137.033 46.3135 136.272 46.83 135.423 47.1433L136.537 48.2528C136.8 47.0023 137.171 45.7753 137.505 44.5389C137.622 44.1131 137.372 43.6732 136.946 43.5564C136.52 43.4396 136.08 43.69 135.963 44.1158L135.949 44.1017Z" fill="#FF6739"/>
<path d="M206.483 20.1878C206.595 18.1727 206.445 16.1515 206.036 14.1752C205.759 12.8212 203.686 13.3948 203.958 14.7487C204.319 16.5378 204.444 18.3663 204.33 20.1878C204.25 21.57 206.403 21.5653 206.483 20.1878Z" fill="#FF6739"/>
</svg>
