<svg width="16" height="14" viewBox="0 0 16 14" fill="none" xmlns="http://www.w3.org/2000/svg">
<path fill-rule="evenodd" clip-rule="evenodd" d="M8.64276 2.73905C8.18777 3.44078 8.03418 4.26396 8.03418 4.65467C8.03418 4.91209 7.90195 5.15275 7.68122 5.29707C7.4605 5.44139 7.18002 5.47057 6.93252 5.37497C6.77066 5.31244 6.59032 5.24887 6.39533 5.18014C5.89016 5.00207 5.28662 4.78933 4.65115 4.4702C4.00577 4.14611 3.30251 3.70594 2.50595 3.05238C2.51583 3.34413 2.58257 3.61134 2.6947 3.85897C2.95649 4.43706 3.51157 5.00861 4.43074 5.5409C4.68223 5.68654 4.83156 5.95293 4.82034 6.2359C4.80913 6.51888 4.63914 6.77347 4.37687 6.90011L4.37599 6.90053L4.37503 6.90099L4.37289 6.90202L4.36769 6.90448L4.35367 6.91101C4.34273 6.91604 4.3286 6.92241 4.31138 6.92992C4.27695 6.94493 4.2301 6.96454 4.17162 6.98713C4.05478 7.03227 3.89074 7.08962 3.68603 7.1461C3.47074 7.20551 3.20861 7.26446 2.90765 7.30693C3.07938 7.89583 3.46212 8.26342 3.87454 8.54108C4.11707 8.70436 4.35169 8.82454 4.58751 8.94533C4.64616 8.97537 4.70489 9.00545 4.76383 9.03624C4.89261 9.10352 5.06192 9.19444 5.20193 9.30261C5.30998 9.38609 5.62424 9.64526 5.62424 10.0851C5.62424 10.3664 5.49216 10.5855 5.40855 10.7027C5.31074 10.8397 5.18728 10.9634 5.05803 11.0715C4.79726 11.2897 4.44721 11.4993 4.03219 11.671C3.55432 11.8687 2.97093 12.0242 2.30404 12.0802C2.35867 12.1085 2.41673 12.1355 2.47833 12.1613C3.06303 12.4059 3.91813 12.5061 4.94825 12.4156C6.9906 12.2364 9.41352 11.3363 11.0788 9.92527C12.3554 8.5013 12.8961 7.09237 13.1211 6.04817C13.235 5.51996 13.2682 5.08397 13.2736 4.78635C13.2764 4.63769 13.2722 4.52407 13.2678 4.45139C13.2656 4.41507 13.2633 4.38904 13.2619 4.37405L13.2605 4.35995C13.2368 4.1704 13.2863 3.97864 13.3997 3.82214L13.2607 4.36167L13.2609 4.36301L13.3997 3.82214L14.8774 4.47996C14.8652 4.498 14.8885 4.46381 14.8774 4.47996C14.8774 4.47996 14.8824 4.68464 14.88 4.81391C14.873 5.1951 14.831 5.72883 14.6941 6.36429C14.4195 7.63835 13.7637 9.31711 12.2549 10.9836C12.2327 11.0082 12.2089 11.0313 12.1837 11.053C10.2329 12.7266 7.45457 13.7536 5.09369 13.9608C3.91444 14.0644 2.76112 13.9705 1.83955 13.5849C0.885281 13.1856 0.149261 12.4502 0.00621052 11.345C-0.0252516 11.1019 0.0640128 10.8588 0.246995 10.6892C0.429977 10.5195 0.685178 10.4433 0.935383 10.4836C1.98045 10.6518 2.8296 10.4806 3.39951 10.2448C3.45633 10.2213 3.55997 10.1734 3.55997 10.1734C3.55997 10.1734 3.16278 9.95327 2.95573 9.81387C2.10806 9.24317 1.20603 8.27859 1.20603 6.59412C1.20603 6.16567 1.56568 5.81834 2.00934 5.81834C2.06775 5.81834 2.12504 5.81727 2.18113 5.81525C1.77189 5.41529 1.44511 4.97183 1.22269 4.48065C0.771756 3.48486 0.795322 2.39372 1.26348 1.26344C1.36377 1.02131 1.58331 0.84405 1.84782 0.791617C2.11233 0.739185 2.38643 0.8186 2.57737 1.00299C3.73197 2.11803 4.63743 2.71452 5.39237 3.09364C5.82607 3.31143 6.19799 3.45495 6.56998 3.5882C6.69892 3.05952 6.92426 2.46591 7.28106 1.91562C7.94011 0.899184 9.07729 0 10.8458 0C11.9428 0 12.6487 0.522082 13.0931 0.879899C13.1467 0.923018 13.1932 0.960734 13.234 0.993869C13.3367 1.0773 13.4037 1.13169 13.4583 1.17016C13.8235 1.003 14.1532 0.885876 14.4465 0.831917C14.7581 0.774559 15.2073 0.756971 15.5772 1.04294C15.9663 1.34383 16.0114 1.77664 15.998 2.03299C15.984 2.30127 15.9013 2.56993 15.8144 2.79378C15.6367 3.25105 15.3541 3.73711 15.1337 4.08758C15.0372 4.2411 14.9481 4.37574 14.8774 4.47996C14.8915 4.64932 14.8759 4.46397 14.8774 4.47996L13.3997 3.82214L13.4006 3.82087L13.4052 3.81444L13.4252 3.7863C13.4431 3.76102 13.4696 3.72317 13.5026 3.67501C13.5688 3.57844 13.6603 3.44164 13.7604 3.28231C13.9028 3.0559 14.0514 2.80173 14.1705 2.5613C14.1221 2.58316 14.0709 2.6071 14.0167 2.63328C14.0058 2.63854 13.9948 2.64355 13.9837 2.64833C13.4922 2.85935 13.0494 2.73566 12.7385 2.56564C12.5238 2.44825 12.3047 2.26845 12.1465 2.13866C12.1169 2.11433 12.0894 2.09176 12.0644 2.07169C11.6883 1.76888 11.3554 1.55156 10.8458 1.55156C9.74383 1.55156 9.07356 2.07463 8.64276 2.73905Z" fill="white"/>
</svg>
