<svg width="498" height="355" viewBox="0 0 498 355" fill="none" xmlns="http://www.w3.org/2000/svg">
<g opacity="0.1">
<path fill-rule="evenodd" clip-rule="evenodd" d="M-32.026 238.786C-72.7475 226.033 -88.3255 184.799 -122.866 162.57C-180.672 125.368 -285.664 124.015 -302.953 64.428C-318.73 10.0574 -245.184 -38.9147 -190.523 -70.6001C-143.668 -97.7612 -82.0367 -90.0453 -25.6732 -96.3056C9.37505 -100.198 45.3975 -89.9152 78.4569 -100.476C134.72 -118.448 170.028 -177.46 230.189 -178.038C289.443 -178.607 355.779 -148.675 380.916 -103.38C406.482 -57.311 361.281 -5.61531 353.888 44.8634C347.807 86.3784 375.307 137.406 341.203 167.754C304.879 200.078 238.873 179.592 188.259 192.252C153.868 200.854 127.197 222.636 92.3997 229.987C51.3269 238.664 7.676 251.22 -32.026 238.786Z" stroke="#FF6739" stroke-width="4.30886"/>
<path fill-rule="evenodd" clip-rule="evenodd" d="M-18.8051 199.188C-54.2542 188.086 -67.8162 152.191 -97.8848 132.841C-148.207 100.456 -239.604 99.2762 -254.656 47.4064C-268.391 0.0772892 -204.369 -42.551 -156.787 -70.1318C-116 -93.7744 -62.3486 -87.0566 -13.2834 -92.5051C17.2266 -95.8931 48.585 -86.9411 77.3634 -96.1332C126.341 -111.777 157.076 -163.146 209.447 -163.647C261.028 -164.141 318.776 -138.085 340.659 -98.6557C362.916 -58.553 323.569 -13.5534 317.134 30.3876C311.842 66.5258 335.782 110.945 306.095 137.362C274.475 165.499 217.015 147.665 172.956 158.685C143.017 166.172 119.801 185.133 89.5093 191.531C53.7549 199.083 15.7564 210.012 -18.8051 199.188Z" stroke="#FF6739" stroke-width="4.30886"/>
<path fill-rule="evenodd" clip-rule="evenodd" d="M-26.641 161.766C-58.1409 151.91 -70.1588 119.97 -96.8673 102.768C-141.566 73.979 -222.81 72.9972 -236.136 26.838C-248.295 -15.2804 -191.34 -53.2725 -149.014 -77.8583C-112.732 -98.9335 -65.0477 -92.994 -21.4268 -97.8805C5.69783 -100.919 33.5637 -92.974 59.1552 -101.178C102.709 -115.139 130.084 -160.886 176.638 -161.372C222.49 -161.85 273.797 -138.7 293.208 -103.62C312.95 -67.9401 277.927 -27.8556 272.161 11.262C267.418 43.4333 288.653 82.9543 262.235 106.491C234.099 131.559 183.039 115.728 143.862 125.57C117.242 132.257 96.584 149.151 69.6503 154.869C37.8595 161.618 4.07025 171.375 -26.641 161.766Z" stroke="#FF6739" stroke-width="4.30886"/>
</g>
</svg>
