<svg width="300" height="163" viewBox="0 0 300 163" fill="none" xmlns="http://www.w3.org/2000/svg">
<path d="M294.162 154.948C293.235 155.441 292.217 155.741 291.171 155.832C263.524 158.812 234.838 156.548 207.044 156.548H135.667C129.588 156.548 123.508 156.548 117.429 156.548C113.254 156.549 106.865 158.056 104.498 153.121C103.374 150.777 103.328 148.011 103.308 145.362L102.754 72.443C102.627 55.7424 102.232 39.104 101.935 22.4432C101.873 18.9847 101.816 15.4778 102.582 12.1226C105.276 0.326475 117.028 2.69091 125.676 1.40501C129.202 0.880705 132.669 1.42234 136.185 1.42234H273.192C277.723 1.42234 291.397 -0.841543 294.004 3.80638C294.867 5.34376 295.146 7.18132 295.359 8.97215C296.692 20.1889 295.865 31.514 296.359 42.7801C296.879 54.6616 297.369 66.5452 297.715 78.4346C298.068 90.5622 298.274 102.697 298.214 114.831C298.172 123.332 298.435 131.842 298.04 140.338C297.776 146.017 298.49 152.543 294.162 154.948Z" fill="white"/>
<path d="M293.723 154.199C291.168 155.47 287.822 155.316 285.01 155.543C281.915 155.793 278.817 155.988 275.716 156.128C270 156.393 264.278 156.496 258.557 156.504C246.816 156.521 235.08 156.132 223.343 155.883C199.475 155.376 175.579 155.681 151.706 155.681C140.022 155.681 128.27 155.309 116.593 155.698C113.322 155.807 108.775 156.759 106.214 154.113C104.389 152.228 104.253 149.156 104.191 146.694C104.112 143.581 104.137 140.463 104.113 137.349C103.933 113.594 103.828 89.8377 103.559 66.0839C103.424 54.1801 103.177 42.278 102.949 30.3758C102.836 24.5038 102.072 18.1242 103.418 12.3533C104.274 8.68219 106.358 5.74733 109.92 4.33793C113.111 3.07538 116.649 2.95417 120.032 2.75872C124.192 2.51806 128.251 1.95149 132.43 2.1558C144.224 2.73245 156.131 2.28985 167.939 2.28985H239.615C251.057 2.28985 262.578 2.68644 274.011 2.27111C277.057 2.16045 280.088 1.80409 283.138 1.74833C285.982 1.69619 289.917 1.48794 292.343 3.26919C294.212 4.64164 294.343 7.64678 294.58 9.75511C294.931 12.8812 295.106 16.0274 295.203 19.1708C295.381 24.9412 295.266 30.7152 295.329 36.4871C295.459 48.356 296.256 60.2305 296.649 72.0942C297.427 95.6028 297.579 119.119 297.104 142.643C297.026 146.454 297.474 151.91 293.723 154.199C292.772 154.78 293.642 156.281 294.599 155.697C297.954 153.649 298.559 149.746 298.745 146.115C299.033 140.485 299.124 134.817 299.127 129.181C299.134 116.75 299.14 104.312 298.906 91.8829C298.673 79.4716 298.239 67.0652 297.731 54.6625C297.471 48.3437 297.11 42.0247 297.056 35.6999C297.005 29.6664 297.127 23.6297 296.882 17.5991C296.755 14.4934 296.548 11.3819 296.141 8.29927C295.89 6.40556 295.566 4.22126 294.289 2.71324C292.45 0.542374 289.042 0.215001 286.404 0.0633489C282.954 -0.134951 279.5 0.17429 276.061 0.413581C271.126 0.756875 266.143 0.555245 261.199 0.555245H148.886C142.643 0.555245 136.422 0.473062 130.184 0.324619C126.096 0.227314 121.876 0.875156 117.786 1.16158C111.136 1.62724 104.553 3.31143 102.19 10.3014C100.466 15.4001 101.041 21.1287 101.139 26.4099C101.257 32.7552 101.379 39.1003 101.503 45.4452C101.97 70.6013 102.063 95.763 102.254 120.922L102.397 139.753C102.432 144.337 101.462 150.925 104.542 154.818C106.656 157.488 110.228 157.727 113.384 157.603C118.698 157.393 124.003 157.416 129.322 157.416C154.427 157.416 179.532 157.416 204.637 157.416C229.356 157.416 254.115 159.112 278.82 157.703C281.658 157.541 284.492 157.333 287.323 157.08C289.791 156.857 292.344 156.819 294.599 155.697C295.598 155.2 294.721 153.703 293.723 154.199Z" fill="black"/>
<path d="M220.346 131.684C219.621 132.032 218.837 132.243 218.035 132.305C196.682 134.399 174.526 132.809 153.059 132.809H97.9302C93.2346 132.809 88.539 132.809 83.8434 132.809C80.6191 132.809 75.6846 133.868 73.8562 130.399C72.988 128.752 72.9528 126.808 72.9372 124.946L72.509 73.6972C72.411 61.9596 72.1065 50.2657 71.8769 38.5561C71.8293 36.1255 71.7853 33.6606 72.3769 31.3024C74.4569 23.0119 83.5343 24.6736 90.2136 23.7699C92.9371 23.4015 95.6143 23.782 98.3299 23.782H204.149C207.649 23.782 218.21 22.1908 220.224 25.4575C220.89 26.538 221.106 27.8295 221.27 29.0882C222.299 36.9716 221.661 44.9313 222.042 52.8492C222.444 61.1999 222.823 69.5519 223.09 77.9081C223.363 86.4316 223.522 94.9599 223.475 103.488C223.443 109.463 223.646 115.444 223.341 121.415C223.137 125.407 223.689 129.993 220.346 131.684Z" fill="white"/>
<path d="M219.91 130.931C217.976 131.782 215.532 131.673 213.449 131.828C211.145 131.999 208.838 132.134 206.529 132.233C202.403 132.415 198.273 132.494 194.143 132.512C185.591 132.548 177.041 132.317 168.491 132.137C150.969 131.768 133.434 131.937 115.908 131.937C107.177 131.937 98.4457 131.937 89.7143 131.937C86.3331 131.937 82.9393 132.126 79.5627 132.089C78.1272 132.074 76.4465 131.948 75.3341 130.921C73.669 129.383 73.8223 126.615 73.8025 124.542C73.6332 106.793 73.543 89.0423 73.3548 71.293C73.2616 62.5069 73.062 53.7225 72.8765 44.938C72.7442 38.6745 70.7675 28.3828 78.5179 25.9363C81.0317 25.1428 83.7156 25.0919 86.3257 24.9503C89.6197 24.7717 92.8069 24.4439 96.1163 24.5834C104.737 24.947 113.429 24.6455 122.058 24.6455H200.948C206.09 24.6455 211.665 23.5615 216.737 24.5682C217.59 24.7376 218.649 24.9672 219.268 25.6327C220.672 27.142 220.568 30.2292 220.725 32.1396C221.071 36.3464 221.035 40.5725 221.035 44.79C221.036 53.3537 221.626 61.9077 221.959 70.4631C222.63 87.692 222.996 105 222.443 122.235C222.35 125.138 222.846 129.245 219.91 130.931C218.942 131.487 219.814 132.986 220.785 132.429C223.226 131.028 223.873 128.484 224.063 125.834C224.346 121.916 224.371 117.936 224.38 114.009C224.4 104.639 224.39 95.2636 224.178 85.8965C223.968 76.5715 223.586 67.2514 223.152 57.9344C222.73 48.8559 223.262 39.651 222.318 30.6113C222.06 28.1418 221.903 24.9943 219.465 23.6588C217.493 22.5788 214.933 22.5326 212.745 22.5237C210.157 22.5133 207.586 22.7884 205.003 22.889C200.727 23.0554 196.419 22.911 192.14 22.911H107.822C103.179 22.911 98.5483 22.8692 93.9082 22.7546C90.7634 22.6769 87.571 23.1263 84.4274 23.3187C79.5323 23.6182 74.1247 24.4837 72.0358 29.5695C70.5335 33.227 70.9884 37.4921 71.0673 41.3463C71.1626 46.0023 71.2603 50.6582 71.3605 55.314C71.7433 74.2498 71.8062 93.1917 71.9645 112.13C72.0039 116.858 71.8645 121.627 72.0996 126.349C72.2416 129.201 73.0181 132.135 75.9204 133.255C78.4286 134.222 81.2345 133.707 83.845 133.672C88.5386 133.61 93.2376 133.672 97.9318 133.672C116.819 133.672 135.708 133.612 154.595 133.675C172.804 133.735 191.025 134.836 209.225 133.835C212.885 133.633 217.379 133.928 220.785 132.429C221.805 131.98 220.923 130.485 219.91 130.931Z" fill="black"/>
<path d="M204.783 145.082C204.059 145.431 203.275 145.642 202.473 145.703C181.12 147.798 158.964 146.207 137.497 146.207H82.3677C77.6723 146.207 72.9767 146.207 68.2809 146.207C65.0566 146.207 60.1221 147.267 58.2938 143.798C57.4256 142.151 57.3903 140.207 57.3748 138.345L56.9466 87.0956C56.8485 75.358 56.544 63.6641 56.3144 51.9545C56.2668 49.5239 56.2228 47.059 56.8144 44.7009C58.8944 36.4103 67.9718 38.0721 74.6509 37.1684C77.3743 36.7999 80.0516 37.1804 82.7672 37.1804H188.587C192.086 37.1804 202.648 35.5893 204.661 38.856C205.327 39.9365 205.543 41.228 205.708 42.4866C206.737 50.37 206.098 58.3297 206.48 66.2476C206.882 74.5983 207.26 82.9503 207.528 91.3065C207.8 99.8301 207.959 108.358 207.913 116.887C207.88 122.861 208.084 128.843 207.779 134.813C207.575 138.805 208.126 143.392 204.783 145.082Z" fill="white"/>
<path d="M204.351 144.337C202.418 145.188 199.973 145.08 197.891 145.234C195.586 145.405 193.28 145.54 190.971 145.639C186.844 145.821 182.714 145.901 178.584 145.918C170.032 145.954 161.482 145.723 152.933 145.543C135.41 145.174 117.876 145.344 100.35 145.344H74.1556C70.7744 145.344 67.3807 145.532 64.004 145.496C62.5685 145.48 60.8879 145.354 59.7755 144.327C58.1103 142.789 58.2636 140.021 58.2439 137.948C58.0746 120.199 57.9844 102.449 57.7962 84.6992C57.703 75.9132 57.5034 67.1287 57.3179 58.3443C57.1855 52.0808 55.2088 41.7891 62.9593 39.3425C65.473 38.549 68.157 38.4982 70.7671 38.3566C74.061 38.1779 77.2482 37.8501 80.5577 37.9897C89.1788 38.3532 97.8708 38.0517 106.5 38.0517H185.389C190.531 38.0517 196.107 36.9678 201.178 37.9745C202.031 38.1438 203.09 38.3735 203.709 39.0389C205.113 40.5483 205.009 43.6354 205.166 45.5458C205.513 49.7527 205.476 53.9787 205.477 58.1962C205.478 66.7599 206.067 75.314 206.4 83.8693C207.071 101.098 207.438 118.406 206.885 135.642C206.791 138.545 207.287 142.652 204.351 144.337C203.383 144.893 204.256 146.392 205.226 145.835C207.667 144.434 208.314 141.89 208.505 139.24C208.787 135.322 208.812 131.342 208.821 127.415C208.842 118.046 208.831 108.67 208.62 99.3028C208.409 89.9777 208.027 80.6576 207.594 71.3406C207.171 62.2621 207.704 53.0572 206.759 44.0175C206.501 41.548 206.344 38.4006 203.906 37.0651C201.934 35.985 199.374 35.9389 197.186 35.93C194.598 35.9195 192.028 36.1947 189.444 36.2952C185.168 36.4617 180.86 36.3172 176.581 36.3172H92.2634C87.6203 36.3172 82.9897 36.2754 78.3496 36.1608C75.205 36.0831 72.0124 36.5326 68.8688 36.7249C63.9737 37.0245 58.5661 37.8899 56.4772 42.9758C54.9749 46.6332 55.4298 50.8983 55.5087 54.7526C55.604 59.4086 55.7017 64.0645 55.8019 68.7203C56.1848 87.656 56.2476 106.598 56.4059 125.537C56.4454 130.264 56.3059 135.033 56.5409 139.755C56.683 142.607 57.4594 145.542 60.3618 146.661C62.87 147.628 65.6759 147.113 68.2863 147.078C72.98 147.016 77.679 147.078 82.3731 147.078C101.261 147.078 120.149 147.018 139.037 147.081C157.245 147.142 175.466 148.242 193.667 147.241C197.327 147.04 201.82 147.334 205.227 145.835C206.246 145.386 205.364 143.891 204.351 144.337Z" fill="black"/>
<path d="M186.627 161.297C185.902 161.646 185.119 161.856 184.317 161.918C162.964 164.013 140.808 162.422 119.341 162.422H64.2115C59.516 162.422 54.8204 162.422 50.1247 162.422C46.9004 162.422 41.9659 163.481 40.1375 160.013C39.2693 158.366 39.2341 156.422 39.2185 154.56L38.7903 103.31C38.6923 91.5729 38.3878 79.8787 38.1582 68.1693C38.1105 65.7387 38.0665 63.2738 38.6582 60.9157C40.7382 52.6252 49.8156 54.2869 56.4947 53.3832C59.2181 53.0147 61.8953 53.3952 64.6109 53.3952H170.431C173.93 53.3952 184.491 51.8041 186.505 55.0708C187.171 56.1513 187.387 57.4428 187.551 58.7014C188.581 66.5849 187.942 74.5445 188.324 82.4624C188.726 90.8131 189.104 99.1652 189.371 107.521C189.644 116.045 189.803 124.573 189.757 133.101C189.724 139.076 189.927 145.058 189.622 151.028C189.419 155.02 189.97 159.607 186.627 161.297Z" fill="#338298"/>
<path d="M100.368 23.8825C125.764 23.807 151.16 23.7566 176.556 23.7313C202.272 23.7224 227.988 23.7637 253.704 23.8552C267.856 23.9127 282.061 24.3573 296.208 24.0168C296.408 24.0099 296.598 23.9254 296.737 23.7813C296.876 23.6372 296.954 23.4447 296.954 23.2443C296.954 23.044 296.876 22.8514 296.737 22.7073C296.598 22.5632 296.408 22.4788 296.208 22.4719C283.688 22.0369 271.107 22.3182 258.58 22.2905C245.726 22.2621 232.873 22.2416 220.02 22.2292C194.304 22.2037 168.587 22.2249 142.871 22.2929C128.703 22.3303 114.535 22.3881 100.368 22.4663C100.184 22.4727 100.01 22.55 99.8825 22.6821C99.7549 22.8142 99.6836 22.9907 99.6836 23.1744C99.6836 23.3581 99.7549 23.5346 99.8825 23.6667C100.01 23.7988 100.184 23.8761 100.368 23.8825Z" fill="black"/>
<path d="M114.346 18.4011C115.485 18.6036 116.659 18.4302 117.691 17.9071C118.723 17.384 119.556 16.5395 120.066 15.501C120.386 14.9022 120.564 14.2381 120.587 13.5597C120.609 12.8813 120.476 12.2067 120.198 11.5878C119.718 10.6228 118.909 9.86093 117.917 9.43914C117.074 9.04441 116.128 8.92958 115.215 9.11144C114.303 9.2933 113.473 9.76232 112.846 10.4499C111.774 11.6651 111.204 13.2427 111.253 14.8624C111.326 16.7017 112.42 18.2601 114.295 18.584C114.901 18.6887 115.169 17.7721 114.553 17.6496C111.765 17.0957 111.933 13.6737 113.136 11.7349C113.457 11.1555 113.94 10.6826 114.527 10.3744C115.113 10.0662 115.777 9.93619 116.436 10.0003C118.423 10.2106 120.077 12.0202 119.669 14.0647C119.2 16.4129 116.905 18.1864 114.502 17.8326C114.134 17.7786 113.969 18.336 114.346 18.4011Z" fill="black"/>
<path d="M114.789 9.38672C113.987 10.398 113.262 11.4673 112.618 12.5857C111.998 13.7172 111.438 14.8804 110.879 16.0431C110.827 16.1412 110.814 16.2559 110.844 16.3631C110.874 16.4702 110.945 16.5615 111.041 16.6177C111.137 16.6739 111.251 16.6906 111.359 16.6643C111.468 16.6379 111.561 16.5706 111.621 16.4766C113.284 14.2935 115.011 12.1735 116.88 10.1616L116.267 9.54836C114.337 11.9422 112.846 14.6585 111.863 17.5717C111.672 18.1533 112.497 18.4393 112.81 17.9707C114.508 15.4267 116.127 12.7483 118.259 10.5339L117.56 9.99429C116.004 12.4741 114.561 15.0187 113.228 17.6281C112.976 18.1224 113.659 18.7489 114.047 18.2598C115.617 16.2806 117.152 14.2722 118.702 12.2775L117.893 11.653C117.097 13.2139 116.292 14.7706 115.491 16.3292C115.236 16.8248 115.925 17.4536 116.312 16.9626C117.408 15.5729 118.611 14.2711 119.91 13.0694L119.027 12.5552C118.695 13.7713 118.252 14.9544 117.704 16.0896C117.452 16.6104 118.119 17.2344 118.556 16.7466C118.677 16.6118 119.095 16.0855 119.223 16.3718C119.457 16.896 120.362 16.521 120.158 15.9776C120.083 15.7571 119.941 15.5656 119.752 15.4302C119.562 15.2948 119.335 15.2224 119.102 15.2232C118.841 15.245 118.588 15.3241 118.361 15.4549C118.134 15.5857 117.939 15.7649 117.789 15.9799L118.641 16.6369C119.216 15.4123 119.686 14.1408 120.046 12.8362C120.073 12.7245 120.064 12.6069 120.019 12.501C119.974 12.3951 119.896 12.3066 119.797 12.2487C119.697 12.1908 119.582 12.1667 119.467 12.1799C119.353 12.1931 119.246 12.2429 119.162 12.322C117.864 13.5247 116.663 14.8293 115.573 16.2234L116.394 16.8568C117.19 15.2955 117.982 13.7321 118.783 12.1731C119.034 11.6848 118.353 11.0633 117.974 11.5487C116.391 13.5739 114.791 15.5872 113.228 17.6281L114.129 18.1543C115.415 15.5234 116.815 12.9533 118.329 10.4437C118.38 10.3503 118.396 10.2417 118.374 10.1375C118.353 10.0333 118.294 9.94026 118.21 9.87521C118.126 9.81016 118.021 9.77733 117.915 9.78264C117.808 9.78795 117.707 9.83104 117.63 9.90416C115.505 12.2439 113.592 14.7685 111.915 17.448L112.862 17.847C113.72 15.0608 115.082 12.4558 116.881 10.1616C117.217 9.73534 116.658 9.12982 116.267 9.54836C114.337 11.5977 112.537 13.7668 110.879 16.0429L111.621 16.4764C112.149 15.2965 112.677 14.116 113.268 12.9655C113.815 11.7999 114.457 10.6808 115.187 9.61927C115.364 9.38002 114.965 9.154 114.789 9.38664L114.789 9.38672Z" fill="black"/>
<path d="M128.181 18.4009C129.321 18.6034 130.495 18.4301 131.526 17.907C132.558 17.3839 133.392 16.5395 133.902 15.501C134.222 14.9022 134.4 14.238 134.423 13.5597C134.445 12.8813 134.312 12.2067 134.034 11.5878C133.553 10.6228 132.745 9.86093 131.753 9.43914C130.91 9.04441 129.964 8.92958 129.051 9.11144C128.139 9.2933 127.309 9.76232 126.682 10.4499C125.61 11.6651 125.04 13.2427 125.089 14.8625C125.162 16.7017 126.256 18.2601 128.131 18.584C128.737 18.6887 129.005 17.7721 128.389 17.6496C125.601 17.0957 125.768 13.6737 126.972 11.7349C127.293 11.1555 127.776 10.6826 128.363 10.3744C128.949 10.0662 129.613 9.93619 130.272 10.0003C132.259 10.2106 133.913 12.0202 133.505 14.0647C133.035 16.4129 130.74 18.1865 128.338 17.8326C127.97 17.7783 127.804 18.3357 128.181 18.4009Z" fill="black"/>
<path d="M128.621 9.38652C127.819 10.3978 127.093 11.4671 126.45 12.5855C125.83 13.717 125.27 14.8802 124.711 16.0429C124.659 16.141 124.646 16.2556 124.676 16.3627C124.706 16.4697 124.777 16.561 124.873 16.6171C124.969 16.6732 125.083 16.69 125.191 16.6637C125.299 16.6375 125.393 16.5703 125.453 16.4764C127.116 14.2933 128.843 12.1733 130.712 10.1614L130.099 9.54816C128.169 11.942 126.678 14.6583 125.695 17.5715C125.504 18.1531 126.328 18.4391 126.641 17.9705C128.34 15.4265 129.958 12.7481 132.091 10.5337L131.392 9.99409C129.836 12.4739 128.392 15.0185 127.06 17.6279C126.808 18.1222 127.491 18.7487 127.879 18.2596C129.449 16.2803 130.984 14.272 132.534 12.2773L131.725 11.6528C130.929 13.2137 130.124 14.7704 129.323 16.329C129.068 16.8246 129.757 17.4534 130.144 16.9624C131.239 15.5727 132.442 14.2709 133.742 13.0692L132.858 12.555C132.527 13.7711 132.084 14.9542 131.536 16.0894C131.284 16.6102 131.951 17.2342 132.388 16.7464C132.508 16.6116 132.927 16.0853 133.055 16.3716C133.288 16.8958 134.194 16.5208 133.99 15.9774C133.915 15.7569 133.773 15.5654 133.583 15.43C133.394 15.2946 133.167 15.2222 132.934 15.223C132.673 15.2448 132.42 15.3239 132.193 15.4547C131.966 15.5855 131.771 15.7647 131.621 15.9797L132.472 16.6367C133.048 15.4121 133.518 14.1406 133.878 12.836C133.905 12.7243 133.896 12.6067 133.851 12.5008C133.806 12.3949 133.728 12.3064 133.628 12.2485C133.529 12.1907 133.413 12.1665 133.299 12.1797C133.185 12.1929 133.078 12.2428 132.994 12.3218C131.696 13.5245 130.495 14.8291 129.404 16.2232L130.225 16.8566C131.022 15.2953 131.814 13.7319 132.615 12.1729C132.866 11.6846 132.185 11.0631 131.806 11.5485C130.223 13.5737 128.623 15.587 127.06 17.6279L127.96 18.1541C129.247 15.5232 130.647 12.9531 132.161 10.4435C132.212 10.3501 132.228 10.2415 132.206 10.1373C132.184 10.0331 132.126 9.94006 132.042 9.87501C131.957 9.80996 131.853 9.77713 131.746 9.78244C131.64 9.78775 131.539 9.83084 131.462 9.90396C129.336 12.2436 127.424 14.7683 125.747 17.4478L126.694 17.8468C127.552 15.0606 128.914 12.4556 130.713 10.1614C131.049 9.73514 130.489 9.12962 130.099 9.54816C128.169 11.5975 126.369 13.7668 124.712 16.0429L125.453 16.4764C125.981 15.2965 126.51 14.116 127.1 12.9655C127.648 11.7999 128.29 10.6808 129.019 9.61927C129.196 9.38002 128.797 9.15401 128.621 9.38664L128.621 9.38652Z" fill="black"/>
<path d="M140.939 18.4011C142.078 18.6036 143.252 18.4303 144.284 17.9071C145.316 17.384 146.15 16.5395 146.66 15.501C146.98 14.9022 147.158 14.2381 147.18 13.5597C147.203 12.8813 147.07 12.2067 146.791 11.5878C146.311 10.6228 145.502 9.86094 144.51 9.43914C143.668 9.04441 142.721 8.92958 141.809 9.11144C140.897 9.2933 140.066 9.76232 139.44 10.4499C138.368 11.6651 137.798 13.2427 137.847 14.8625C137.919 16.7017 139.014 18.2601 140.889 18.584C141.495 18.6887 141.763 17.7721 141.147 17.6496C138.358 17.0957 138.526 13.6737 139.729 11.7349C140.051 11.1555 140.534 10.6826 141.121 10.3744C141.707 10.0663 142.371 9.9362 143.03 10.0003C145.017 10.2106 146.671 12.0202 146.263 14.0647C145.793 16.413 143.498 18.1865 141.096 17.8326C140.728 17.7786 140.562 18.336 140.939 18.4011Z" fill="black"/>
<path d="M141.375 9.38652C140.573 10.3978 139.848 11.4671 139.204 12.5855C138.584 13.717 138.024 14.8802 137.465 16.0429C137.413 16.141 137.4 16.2557 137.43 16.3629C137.46 16.47 137.531 16.5613 137.627 16.6175C137.723 16.6737 137.837 16.6904 137.945 16.6641C138.054 16.6377 138.147 16.5704 138.207 16.4764C139.87 14.2933 141.597 12.1733 143.466 10.1614L142.853 9.54816C140.923 11.942 139.432 14.6583 138.449 17.5715C138.258 18.1531 139.083 18.4391 139.396 17.9705C141.094 15.4265 142.713 12.7481 144.845 10.5337L144.146 9.99409C142.59 12.4739 141.146 15.0185 139.814 17.6279C139.562 18.1222 140.245 18.7487 140.633 18.2596C142.203 16.2803 143.738 14.272 145.288 12.2773L144.479 11.6528C143.683 13.2137 142.878 14.7704 142.077 16.329C141.822 16.8246 142.511 17.4534 142.898 16.9624C143.993 15.5727 145.196 14.2709 146.496 13.0692L145.612 12.555C145.281 13.7712 144.838 14.9543 144.29 16.0894C144.038 16.6102 144.705 17.2342 145.142 16.7464C145.262 16.6116 145.681 16.0853 145.809 16.3716C146.042 16.8958 146.948 16.5208 146.744 15.9774C146.669 15.7569 146.527 15.5654 146.337 15.43C146.148 15.2946 145.92 15.2222 145.688 15.223C145.427 15.2448 145.174 15.3239 144.947 15.4547C144.72 15.5855 144.525 15.7647 144.375 15.9797L145.226 16.6367C145.802 15.4121 146.272 14.1406 146.632 12.836C146.659 12.7243 146.65 12.6067 146.605 12.5008C146.56 12.3949 146.482 12.3064 146.382 12.2485C146.283 12.1907 146.167 12.1665 146.053 12.1797C145.939 12.1929 145.832 12.2428 145.748 12.3218C144.45 13.5245 143.249 14.8291 142.158 16.2232L142.979 16.8566C143.776 15.2953 144.568 13.7319 145.369 12.1729C145.62 11.6846 144.939 11.0631 144.56 11.5485C142.977 13.5737 141.377 15.587 139.814 17.6279L140.714 18.1541C142.001 15.5232 143.401 12.9531 144.915 10.4435C144.966 10.3501 144.982 10.2415 144.96 10.1373C144.938 10.0331 144.88 9.94013 144.796 9.87509C144.711 9.81006 144.607 9.77723 144.5 9.78252C144.394 9.78781 144.293 9.83088 144.216 9.90396C142.09 12.2436 140.178 14.7683 138.501 17.4478L139.448 17.8468C140.306 15.0606 141.668 12.4556 143.467 10.1614C143.803 9.73514 143.243 9.12962 142.853 9.54816C140.922 11.5975 139.123 13.7668 137.466 16.0429L138.207 16.4764C138.735 15.2965 139.264 14.116 139.854 12.9655C140.402 11.7999 141.044 10.6808 141.773 9.61927C141.95 9.38002 141.551 9.15401 141.375 9.38664L141.375 9.38652Z" fill="black"/>
<path d="M239.376 27.1899C237.542 26.6782 236.396 28.7205 235.696 30.0666C234.717 31.9587 233.888 33.925 233.218 35.9473C231.886 40.097 231.051 44.39 230.73 48.7363C229.942 57.9691 230.682 67.2943 231.082 76.5289C231.525 86.7191 231.967 96.9093 232.409 107.099C232.63 112.194 232.832 117.29 233.043 122.385C233.205 126.315 233.747 130.553 232.592 134.388C232.142 136.095 231.118 137.595 229.691 138.634C228.125 139.704 226.233 139.919 224.468 140.486C222.853 141.004 221.3 141.707 220.376 143.206C219.429 144.74 219.368 146.644 219.561 148.386C219.672 149.307 219.829 150.221 220.031 151.126C220.113 151.505 220.698 151.345 220.613 150.966C220.197 149.098 219.799 147.095 220.192 145.188C220.596 143.228 221.936 141.937 223.781 141.274C225.477 140.665 227.302 140.503 228.973 139.796C230.413 139.184 231.612 138.114 232.385 136.753C234.086 133.814 234.071 130.111 233.924 126.822C233.702 121.85 233.474 116.878 233.239 111.907C232.782 101.964 232.342 92.0203 231.92 82.0759C231.703 77.1491 231.477 72.2228 231.271 67.2957C231.089 62.9303 230.944 58.5589 231.061 54.1895C231.138 49.854 231.601 45.5338 232.445 41.2804C233.299 37.1692 234.604 32.9156 236.778 29.2945C237.288 28.4446 238.144 27.3931 239.259 27.6146C239.314 27.6267 239.372 27.6171 239.42 27.5879C239.468 27.5588 239.503 27.5122 239.518 27.4578C239.533 27.4033 239.527 27.3452 239.5 27.2954C239.474 27.2456 239.429 27.2078 239.376 27.1899L239.376 27.1899Z" fill="black"/>
<path d="M193.771 146.895C192.806 148.081 191.92 149.327 191.116 150.627C190.264 151.905 189.554 153.271 188.999 154.703C188.875 155.059 189.416 155.274 189.599 154.956C190.347 153.654 190.948 152.272 191.705 150.971C192.46 149.675 193.292 148.419 194.17 147.203C194.337 146.972 193.953 146.671 193.771 146.895H193.771Z" fill="black"/>
<path d="M195.284 146.964C194.317 148.403 193.4 149.874 192.531 151.376C192.112 152.103 191.706 152.836 191.312 153.576C191.101 153.971 190.895 154.367 190.692 154.766C190.473 155.126 190.301 155.511 190.178 155.914C190.119 156.186 190.486 156.473 190.694 156.214C190.932 155.871 191.132 155.502 191.289 155.115C191.484 154.712 191.683 154.311 191.885 153.911C192.264 153.163 192.656 152.421 193.061 151.686C193.896 150.167 194.783 148.678 195.722 147.22C195.901 146.943 195.465 146.694 195.284 146.964L195.284 146.964Z" fill="black"/>
<path d="M198.736 146.618C197.572 148.004 196.462 149.433 195.405 150.904C194.877 151.642 194.362 152.39 193.862 153.147C193.321 153.911 192.824 154.704 192.374 155.524C192.331 155.603 192.321 155.695 192.345 155.782C192.369 155.869 192.426 155.942 192.503 155.988C192.581 156.033 192.673 156.046 192.76 156.025C192.848 156.004 192.923 155.949 192.971 155.873C193.462 155.147 193.873 154.36 194.336 153.616C194.816 152.846 195.312 152.088 195.825 151.34C196.853 149.84 197.94 148.382 199.085 146.968C199.283 146.724 198.942 146.373 198.736 146.619V146.618Z" fill="black"/>
<path d="M198.655 149.725C197.511 151.466 196.364 153.205 195.215 154.943C194.981 155.296 195.555 155.631 195.783 155.275C196.904 153.521 198.031 151.77 199.164 150.023C199.37 149.703 198.862 149.41 198.655 149.725Z" fill="black"/>
<path d="M204.65 144.817C201.614 147.971 198.945 151.458 196.694 155.211C196.647 155.298 196.636 155.4 196.663 155.495C196.689 155.589 196.751 155.67 196.837 155.72C196.922 155.77 197.023 155.784 197.118 155.761C197.214 155.738 197.297 155.678 197.349 155.595C199.501 151.833 202.007 148.285 204.832 144.999C204.938 144.875 204.767 144.697 204.65 144.817Z" fill="black"/>
<path d="M213.605 134.688C209.525 140.108 205.829 145.805 202.543 151.74C201.619 153.413 200.726 155.101 199.893 156.821C199.742 157.133 200.204 157.408 200.361 157.095C203.349 151.007 206.747 145.129 210.532 139.502C211.61 137.925 212.72 136.371 213.862 134.839C213.977 134.685 213.719 134.537 213.605 134.688H213.605Z" fill="black"/>
<path d="M211.373 133.717C210.331 135.56 209.287 137.403 208.242 139.244C208.061 139.564 208.559 139.854 208.734 139.532C209.742 137.669 210.753 135.807 211.765 133.946C211.904 133.689 211.517 133.462 211.373 133.717Z" fill="black"/>
<path d="M202.993 147.885C201.754 150.47 200.444 153.032 199.345 155.68C199.265 155.872 199.583 156.002 199.679 155.821C201.022 153.309 202.163 150.685 203.367 148.104C203.484 147.853 203.114 147.632 202.993 147.885Z" fill="black"/>
<path d="M213.825 136.796C211.904 139.909 210.003 143.036 208.059 146.135C207.105 147.657 206.149 149.179 205.193 150.699C204.697 151.488 204.204 152.278 203.705 153.065C203.244 153.791 202.617 154.545 202.337 155.362C202.321 155.428 202.326 155.497 202.353 155.56C202.379 155.623 202.425 155.675 202.484 155.709C202.543 155.743 202.611 155.757 202.679 155.75C202.746 155.742 202.809 155.712 202.858 155.665C203.459 155.045 203.842 154.141 204.28 153.4C204.753 152.599 205.232 151.801 205.709 151.001C206.629 149.459 207.549 147.917 208.469 146.375C210.346 143.235 212.265 140.121 214.164 136.994C214.296 136.778 213.958 136.581 213.825 136.796H213.825Z" fill="black"/>
<path d="M219.649 130.293C215.172 136.973 210.643 143.617 206.124 150.27C204.854 152.139 203.567 153.997 202.321 155.881C202.007 156.357 202.766 156.792 203.081 156.326C207.587 149.674 211.934 142.91 216.358 136.204C217.602 134.319 218.868 132.447 220.123 130.57C220.32 130.275 219.845 130 219.649 130.293Z" fill="black"/>
<path d="M227.975 122C221.315 130.615 215.065 139.513 209.224 148.695C207.594 151.265 206.005 153.86 204.425 156.46L205.345 156.844C205.547 156.229 205.678 155.588 205.83 154.959C205.854 154.859 205.838 154.755 205.785 154.667C205.732 154.579 205.647 154.514 205.548 154.487C205.448 154.46 205.342 154.472 205.251 154.521C205.161 154.57 205.092 154.652 205.061 154.749C204.823 155.354 204.562 155.957 204.374 156.579C204.345 156.695 204.359 156.817 204.413 156.923C204.467 157.029 204.558 157.113 204.669 157.159C204.779 157.205 204.903 157.211 205.017 157.175C205.132 157.139 205.23 157.064 205.294 156.963C210.72 147.556 216.716 138.471 222.999 129.606C224.758 127.124 226.551 124.667 228.379 122.235C228.561 121.994 228.155 121.767 227.974 122L227.975 122Z" fill="black"/>
<path d="M229.096 124.562C223.156 131.985 217.632 139.733 212.55 147.768C211.839 148.889 211.137 150.015 210.442 151.146C210.013 151.844 209.086 153.085 210.107 153.726C210.496 153.97 210.836 153.441 210.57 153.124C210.366 152.88 210.942 152.127 211.052 151.941C211.343 151.452 211.635 150.965 211.929 150.478C212.502 149.532 213.079 148.59 213.663 147.651C214.847 145.746 216.055 143.857 217.287 141.983C219.749 138.235 222.305 134.551 224.954 130.931C226.444 128.893 227.956 126.872 229.49 124.866C229.661 124.642 229.274 124.34 229.096 124.562Z" fill="black"/>
<path d="M232.437 125.194C225.932 132.984 219.796 141.055 214.031 149.406C212.402 151.775 210.805 154.166 209.241 156.577C208.943 157.036 209.689 157.463 209.981 157.003C215.387 148.51 221.182 140.273 227.369 132.293C229.138 130.012 230.941 127.758 232.778 125.529C232.972 125.295 232.635 124.957 232.437 125.194H232.437Z" fill="black"/>
<path d="M226.811 134.035C222.293 139.984 217.871 146.005 213.543 152.097C212.954 152.93 212.29 153.75 211.775 154.631C211.478 155.138 211.385 155.885 212.073 156.093C212.414 156.196 212.738 155.706 212.439 155.465C212.205 155.276 213.283 153.936 213.425 153.723C213.915 152.992 214.406 152.263 214.899 151.535C215.849 150.133 216.805 148.735 217.768 147.342C219.712 144.528 221.688 141.737 223.694 138.968C224.843 137.386 226.005 135.814 227.179 134.251C227.344 134.03 226.974 133.82 226.811 134.036L226.811 134.035Z" fill="black"/>
<path d="M219.035 147.262C217.258 150.023 215.457 152.769 213.632 155.498C213.385 155.867 213.995 156.227 214.229 155.847C215.945 153.051 217.683 150.269 219.444 147.502C219.609 147.243 219.199 147.006 219.035 147.262V147.262Z" fill="black"/>
<path d="M220.398 148.524C219.61 149.46 218.855 150.431 218.155 151.434C217.81 151.928 217.48 152.432 217.163 152.945C216.811 153.468 216.514 154.027 216.278 154.612C216.15 154.971 216.667 155.139 216.86 154.858C217.167 154.362 217.45 153.85 217.706 153.325C217.994 152.797 218.297 152.277 218.615 151.766C219.247 150.744 219.949 149.767 220.714 148.84C220.896 148.621 220.584 148.303 220.398 148.524Z" fill="black"/>
<path d="M220.695 152.754C220.027 153.241 219.536 153.931 219.294 154.721C219.277 154.785 219.285 154.854 219.318 154.911C219.351 154.969 219.405 155.012 219.469 155.029C219.533 155.047 219.602 155.039 219.66 155.006C219.718 154.973 219.76 154.918 219.778 154.854C219.971 154.18 220.375 153.585 220.931 153.158C220.983 153.125 221.021 153.074 221.036 153.014C221.052 152.955 221.044 152.892 221.015 152.838C220.983 152.785 220.932 152.746 220.872 152.73C220.812 152.715 220.749 152.723 220.695 152.754V152.754Z" fill="black"/>
<path d="M221.786 154.73L221.462 155.651C221.445 155.715 221.453 155.783 221.486 155.841C221.519 155.899 221.573 155.941 221.637 155.959C221.701 155.975 221.769 155.966 221.826 155.934C221.884 155.901 221.926 155.848 221.945 155.784L222.25 154.858C222.267 154.796 222.258 154.731 222.227 154.676C222.195 154.62 222.143 154.579 222.082 154.562C222.021 154.547 221.956 154.556 221.901 154.587C221.845 154.618 221.805 154.669 221.786 154.73Z" fill="black"/>
<path d="M232.659 129.085L229.535 134.462C228.496 136.251 227.386 138.017 226.447 139.86C226.417 139.916 226.41 139.981 226.427 140.042C226.444 140.102 226.484 140.154 226.539 140.186C226.593 140.218 226.658 140.227 226.719 140.213C226.781 140.198 226.834 140.16 226.868 140.107C227.987 138.366 228.953 136.518 229.974 134.719L233.045 129.311C233.073 129.26 233.079 129.2 233.064 129.144C233.048 129.088 233.011 129.04 232.961 129.011C232.911 128.982 232.852 128.973 232.795 128.987C232.739 129.001 232.69 129.036 232.659 129.085H232.659Z" fill="black"/>
<path d="M232.353 134.877L230.186 137.647C230.139 137.697 230.113 137.763 230.113 137.832C230.113 137.9 230.139 137.966 230.186 138.016C230.236 138.065 230.302 138.092 230.371 138.092C230.44 138.092 230.506 138.065 230.555 138.016L232.708 135.232C232.753 135.184 232.778 135.121 232.778 135.055C232.778 134.989 232.753 134.925 232.708 134.877C232.661 134.831 232.597 134.805 232.531 134.805C232.464 134.805 232.401 134.831 232.354 134.877L232.353 134.877Z" fill="black"/>
<path d="M230.254 122.648L227.488 126.974C227.371 127.159 227.664 127.329 227.781 127.145L230.541 122.815C230.656 122.634 230.369 122.468 230.254 122.648Z" fill="black"/>
<path d="M231.965 117.313C229.574 120.992 227.065 124.621 224.874 128.423C224.724 128.685 225.103 128.894 225.272 128.656C227.811 125.075 230.06 121.28 232.404 117.569C232.579 117.291 232.142 117.04 231.965 117.313L231.965 117.313Z" fill="black"/>
<path d="M232.626 120.424C231.055 122.873 229.444 125.302 227.966 127.809C227.807 128.078 228.21 128.306 228.382 128.052C230.012 125.641 231.515 123.144 233.053 120.673C233.222 120.402 232.797 120.157 232.626 120.424Z" fill="black"/>
<path d="M232.385 124.728L231.455 125.648C231.416 125.688 231.394 125.741 231.395 125.797C231.395 125.852 231.417 125.905 231.456 125.944C231.495 125.984 231.548 126.006 231.604 126.006C231.659 126.006 231.712 125.984 231.752 125.946L232.673 125.015C232.711 124.977 232.732 124.925 232.732 124.871C232.732 124.817 232.711 124.766 232.673 124.728C232.635 124.689 232.583 124.668 232.529 124.668C232.475 124.668 232.423 124.689 232.385 124.728L232.385 124.728Z" fill="black"/>
<path d="M232.312 110.552C230.874 112.97 229.439 115.39 227.973 117.792C226.508 120.192 224.991 122.568 223.61 125.017C223.565 125.099 223.555 125.195 223.58 125.285C223.605 125.375 223.664 125.451 223.744 125.498C223.825 125.545 223.921 125.559 224.011 125.537C224.102 125.515 224.18 125.459 224.23 125.38C225.709 122.988 227.059 120.514 228.454 118.073C229.851 115.631 231.279 113.207 232.704 110.781C232.732 110.729 232.739 110.668 232.723 110.611C232.707 110.555 232.67 110.506 232.619 110.476C232.568 110.447 232.507 110.438 232.45 110.452C232.393 110.466 232.343 110.502 232.312 110.552Z" fill="black"/>
<path d="M231.696 108.703C228.927 112.95 226.424 117.364 224.201 121.919C224.014 122.306 224.592 122.647 224.78 122.258C226.96 117.68 229.416 113.239 232.135 108.96C232.312 108.684 231.873 108.43 231.696 108.704V108.703Z" fill="black"/>
<path d="M231.378 104.992C228.784 109.812 226.148 114.61 223.572 119.439C223.359 119.84 223.969 120.196 224.18 119.795C226.736 114.951 229.232 110.075 231.77 105.221C231.905 104.963 231.517 104.734 231.378 104.992V104.992Z" fill="black"/>
<path d="M232.91 97.8918C231.472 101.09 229.931 104.237 228.287 107.334C227.483 108.856 226.659 110.366 225.814 111.866C225.376 112.643 224.932 113.418 224.483 114.189C224.258 114.575 224.032 114.959 223.805 115.344C223.565 115.685 223.371 116.057 223.23 116.45C223.21 116.53 223.217 116.614 223.249 116.69C223.281 116.766 223.337 116.83 223.409 116.872C223.48 116.913 223.563 116.93 223.645 116.921C223.727 116.911 223.804 116.875 223.864 116.819C224.137 116.503 224.365 116.152 224.541 115.774C224.761 115.385 224.979 114.996 225.196 114.606C225.63 113.825 226.058 113.042 226.481 112.255C227.296 110.738 228.091 109.21 228.865 107.672C230.442 104.538 231.934 101.36 233.366 98.1582C233.503 97.8505 233.049 97.5812 232.91 97.8915L232.91 97.8918Z" fill="black"/>
<path d="M230.506 97.929C229.292 100.058 228.079 102.186 226.865 104.315C226.274 105.35 225.674 106.38 225.077 107.412L224.133 109.046C223.803 109.536 223.538 110.066 223.344 110.624C223.33 110.683 223.334 110.745 223.358 110.8C223.382 110.856 223.423 110.903 223.475 110.933C223.527 110.964 223.588 110.976 223.648 110.969C223.708 110.962 223.765 110.936 223.808 110.894C224.164 110.467 224.463 109.995 224.696 109.49L225.599 107.832C226.184 106.755 226.766 105.676 227.358 104.603C228.541 102.457 229.725 100.311 230.91 98.1649C230.938 98.1115 230.945 98.0491 230.929 97.9908C230.912 97.9325 230.874 97.8828 230.822 97.8523C230.769 97.8217 230.707 97.8126 230.648 97.8269C230.59 97.8412 230.539 97.8778 230.506 97.9289L230.506 97.929Z" fill="black"/>
<path d="M233.873 86.4944C230.665 92.96 227.369 99.3845 224.218 105.878C224.026 106.272 224.612 106.619 224.808 106.223C228.013 99.7486 231.075 93.2017 234.224 86.6996C234.337 86.4656 233.989 86.2592 233.873 86.4944Z" fill="black"/>
<path d="M231.733 86.1973C229.374 90.2099 226.909 94.1684 224.606 98.2126C224.573 98.2722 224.566 98.3419 224.584 98.4071C224.602 98.4723 224.645 98.5278 224.704 98.562C224.762 98.5961 224.831 98.6063 224.897 98.5902C224.963 98.5742 225.02 98.5332 225.056 98.476C227.457 94.4888 229.703 90.402 232.049 86.3819C232.071 86.3402 232.076 86.2915 232.063 86.2461C232.05 86.2007 232.02 86.1621 231.98 86.1383C231.939 86.1145 231.891 86.1073 231.845 86.1183C231.799 86.1294 231.759 86.1577 231.733 86.1974V86.1973Z" fill="black"/>
<path d="M230.409 82.7614C228.368 87.1857 226.357 91.6267 224.241 96.0152C224.046 96.4198 224.666 96.7661 224.837 96.3641C226.754 91.8743 228.778 87.4295 230.771 82.9735C230.881 82.7297 230.522 82.515 230.409 82.7615V82.7614Z" fill="black"/>
<path d="M232.013 76.3031C230.567 78.9029 229.156 81.5226 227.78 84.1621C227.091 85.4797 226.414 86.8038 225.75 88.1346C225.103 89.4336 224.414 90.7312 223.884 92.0834C223.726 92.485 224.378 92.7514 224.577 92.3758C225.274 91.0642 225.84 89.6756 226.467 88.3295C227.083 87.0086 227.712 85.6936 228.352 84.3847C229.648 81.7387 231.012 79.1291 232.446 76.5561C232.602 76.2736 232.17 76.0206 232.013 76.3031H232.013Z" fill="black"/>
<path d="M230.494 73.2408C228.622 77.2494 226.525 81.1281 224.28 84.9389C224.245 85.0032 224.237 85.0783 224.257 85.1486C224.276 85.2188 224.322 85.2786 224.385 85.3154C224.448 85.3523 224.523 85.3632 224.594 85.3459C224.665 85.3286 224.726 85.2845 224.765 85.2228C226.995 81.4049 229.019 77.4702 230.828 73.4357C230.929 73.2118 230.6 73.0145 230.494 73.2408Z" fill="black"/>
<path d="M230.755 67.6545C229.715 69.859 228.665 72.059 227.606 74.2544C226.548 76.4493 225.438 78.6265 224.482 80.8684C224.327 81.2307 224.836 81.5557 225.026 81.1865C226.142 79.0188 227.108 76.7727 228.122 74.5557C229.136 72.3364 230.16 70.1214 231.193 67.9109C231.331 67.6167 230.894 67.3582 230.755 67.6545H230.755Z" fill="black"/>
<path d="M229.794 63.9398C227.663 68.5775 225.43 73.17 223.333 77.8224C223.16 78.2076 223.726 78.5466 223.907 78.1575C226.058 73.5223 228.074 68.8231 230.191 64.1723C230.313 63.9048 229.917 63.6701 229.794 63.9397V63.9398Z" fill="black"/>
<path d="M229.263 59.9682C227.133 63.6572 225.24 67.479 223.598 71.4101C223.448 71.7751 224.047 71.94 224.193 71.574C225.74 67.6553 227.549 63.8453 229.609 60.17C229.633 60.1243 229.639 60.0709 229.625 60.021C229.611 59.971 229.578 59.9285 229.534 59.9023C229.489 59.8762 229.436 59.8684 229.385 59.8807C229.335 59.893 229.291 59.9244 229.263 59.9682Z" fill="black"/>
<path d="M229.562 51.6308C227.049 56.2339 224.76 60.9491 222.693 65.7764C222.673 65.8153 222.66 65.8581 222.657 65.902C222.654 65.9459 222.66 65.99 222.675 66.0315C222.689 66.073 222.713 66.1109 222.743 66.1429C222.773 66.1749 222.81 66.2003 222.85 66.2174C222.891 66.2345 222.934 66.243 222.978 66.2423C223.022 66.2416 223.066 66.2317 223.106 66.2133C223.146 66.1949 223.182 66.1684 223.211 66.1354C223.24 66.1024 223.262 66.0637 223.275 66.0218C225.226 61.1758 227.45 56.4442 229.936 51.8497C230.069 51.6044 229.695 51.3854 229.562 51.6308Z" fill="black"/>
<path d="M228.013 51.625C226.344 55.0075 224.662 58.383 223.027 61.782C222.868 62.1136 223.359 62.4061 223.525 62.0726C225.202 58.6937 226.831 55.2908 228.475 51.8952C228.624 51.5869 228.165 51.3151 228.013 51.625H228.013Z" fill="black"/>
<path d="M231.71 40.5185C228.487 46.6692 225.254 52.8149 222.012 58.9557C221.804 59.3495 222.407 59.7003 222.608 59.3046C225.762 53.1131 228.924 46.9263 232.096 40.7443C232.227 40.489 231.844 40.263 231.71 40.5186V40.5185Z" fill="black"/>
<path d="M233.863 31.5692C231.908 35.3219 229.937 39.0661 227.95 42.8016L225.006 48.3672C224.01 50.2505 222.958 52.1147 222.06 54.0471C221.897 54.3971 222.387 54.7009 222.586 54.3549C223.652 52.5099 224.573 50.5778 225.543 48.6807L228.408 43.0694C230.334 39.2992 232.267 35.533 234.208 31.771C234.326 31.5429 233.982 31.3406 233.863 31.5692L233.863 31.5692Z" fill="black"/>
<path d="M236.022 25.7034C232.25 31.5946 228.657 37.6038 225.302 43.7421C224.349 45.4849 223.367 47.2252 222.52 49.0225C222.301 49.4889 222.966 49.898 223.222 49.4329C224.908 46.369 226.436 43.2169 228.117 40.1483C229.797 37.0808 231.535 34.045 233.33 31.0408C234.354 29.3354 235.408 27.647 236.473 25.9667C236.653 25.682 236.203 25.4213 236.022 25.7034H236.022Z" fill="black"/>
<path d="M233.281 25.6525C231.139 28.3249 229.179 31.1379 227.414 34.0726C226.529 35.5417 225.692 37.0385 224.904 38.5632C224.518 39.3121 224.144 40.067 223.782 40.8279C223.424 41.5797 222.905 42.4169 222.733 43.2332C222.713 43.3164 222.723 43.404 222.761 43.4803C222.8 43.5567 222.865 43.6168 222.943 43.6501C223.022 43.6833 223.11 43.6875 223.192 43.6618C223.274 43.6362 223.343 43.5823 223.389 43.51C223.851 42.8474 224.112 41.9533 224.452 41.2194C224.806 40.4544 225.173 39.6951 225.551 38.9415C226.321 37.4079 227.135 35.898 227.995 34.4118C229.708 31.4758 231.592 28.6429 233.637 25.9276C233.791 25.7233 233.442 25.4516 233.281 25.6526L233.281 25.6525Z" fill="black"/>
<path d="M229.568 27.257C227.296 30.834 225.207 34.5241 223.309 38.3129C223.132 38.6779 223.664 38.9992 223.859 38.6344C225.861 34.8954 227.8 31.1392 229.972 27.493C230.001 27.4396 230.008 27.3772 229.991 27.3189C229.975 27.2606 229.936 27.211 229.884 27.1804C229.832 27.1499 229.77 27.1408 229.711 27.155C229.652 27.1693 229.601 27.2059 229.568 27.257Z" fill="black"/>
<path d="M228.945 24.7073C227.706 26.2117 226.527 27.7696 225.431 29.3815C224.89 30.1783 224.377 30.9946 223.882 31.8211C223.326 32.6452 222.86 33.5266 222.492 34.45C222.368 34.8214 222.879 34.9714 223.08 34.698C223.589 33.9145 224.052 33.1015 224.465 32.2634C224.94 31.4254 225.439 30.6021 225.95 29.7857C226.974 28.1467 228.088 26.5649 229.285 25.0474C229.473 24.8085 229.143 24.4662 228.945 24.7072V24.7073Z" fill="black"/>
<path d="M225.578 27.2722L224.027 29.4269C224 29.4728 223.993 29.5272 224.007 29.5783C224.02 29.6295 224.053 29.6734 224.098 29.7004C224.144 29.726 224.199 29.7329 224.25 29.7196C224.301 29.7062 224.344 29.6737 224.372 29.6287L225.906 27.4637C225.931 27.4201 225.938 27.3685 225.925 27.3199C225.912 27.2714 225.881 27.2298 225.838 27.2041C225.794 27.1798 225.743 27.1733 225.694 27.1861C225.646 27.1988 225.604 27.2297 225.578 27.2723L225.578 27.2722Z" fill="black"/>
<path d="M222.964 26.019C223.014 26.0174 223.062 25.9964 223.097 25.9603C223.132 25.9243 223.151 25.8761 223.151 25.8259C223.151 25.7758 223.132 25.7276 223.097 25.6915C223.062 25.6555 223.014 25.6344 222.964 25.6328C222.914 25.6344 222.867 25.6555 222.832 25.6915C222.797 25.7276 222.777 25.7758 222.777 25.8259C222.777 25.8761 222.797 25.9243 222.832 25.9603C222.867 25.9964 222.914 26.0174 222.964 26.019Z" fill="black"/>
<path d="M222.348 26.2374C222.375 26.2365 222.401 26.225 222.42 26.2054C222.439 26.1858 222.449 26.1596 222.449 26.1324C222.449 26.1051 222.439 26.0789 222.42 26.0593C222.401 26.0397 222.375 26.0283 222.348 26.0273C222.32 26.0283 222.295 26.0397 222.276 26.0593C222.257 26.0789 222.246 26.1051 222.246 26.1324C222.246 26.1596 222.257 26.1858 222.276 26.2054C222.295 26.225 222.32 26.2365 222.348 26.2374Z" fill="black"/>
<path d="M239.935 26.6448C239.987 26.643 240.037 26.6208 240.074 26.5829C240.111 26.5449 240.131 26.4943 240.131 26.4416C240.131 26.3888 240.111 26.3382 240.074 26.3002C240.037 26.2623 239.987 26.2401 239.935 26.2383C239.882 26.2401 239.832 26.2623 239.795 26.3002C239.759 26.3382 239.738 26.3888 239.738 26.4416C239.738 26.4943 239.759 26.5449 239.795 26.5829C239.832 26.6208 239.882 26.643 239.935 26.6448Z" fill="black"/>
<path d="M41.8403 71.6847C77.7431 71.6984 113.646 71.7111 149.549 71.7228L179.867 71.7254C180.874 71.7254 180.875 70.1601 179.867 70.1602C143.964 70.1632 108.061 70.1729 72.1582 70.1893L41.8403 70.2008C41.6475 70.2068 41.4647 70.2877 41.3304 70.4262C41.1962 70.5646 41.1211 70.75 41.1211 70.9428C41.1211 71.1357 41.1962 71.321 41.3304 71.4595C41.4647 71.598 41.6475 71.6788 41.8403 71.6849V71.6847Z" fill="black"/>
<path d="M191.936 53.3384C195.085 53.3625 198.234 53.3636 201.383 53.3418C201.582 53.3347 201.771 53.2506 201.909 53.1071C202.048 52.9637 202.125 52.7721 202.125 52.5727C202.125 52.3733 202.048 52.1817 201.909 52.0383C201.771 51.8948 201.582 51.8107 201.383 51.8037C198.233 51.7831 195.084 51.7843 191.936 51.8071C191.737 51.8137 191.549 51.8972 191.411 52.0401C191.273 52.183 191.195 52.374 191.195 52.5727C191.195 52.7715 191.273 52.9625 191.411 53.1054C191.549 53.2483 191.737 53.3318 191.936 53.3384Z" fill="black"/>
<path d="M207.576 39.0464C209.721 38.5988 211.897 38.3191 214.085 38.2099C215.081 38.1593 215.08 36.5915 214.085 36.6583C211.768 36.8131 209.468 37.1728 207.214 37.7333C206.359 37.9455 206.723 39.2253 207.576 39.0465V39.0464Z" fill="black"/>
<path d="M293.326 74.5165C294.592 66.7535 292.872 58.4127 288.038 52.1864C283.895 46.849 275.36 40.9874 268.54 40.3307C258.875 39.3998 249.05 44.1575 243.152 51.8267C237.255 59.496 235.178 69.741 236.779 79.262C238.636 90.3054 251.819 102.254 263.617 102.007C278.384 101.697 291.059 88.4187 293.326 74.5165Z" fill="#338298"/>
<path d="M50.5472 63.3679C50.9067 64.8239 51.9408 66.1154 53.493 66.3298C54.1528 66.4216 54.8245 66.2995 55.4098 65.9814C55.995 65.6634 56.4629 65.1661 56.7449 64.5627C57.4034 63.1372 57.1783 61.1156 56.0419 59.9856C55.5412 59.5203 54.9136 59.2142 54.2386 59.106C53.5637 58.9978 52.8719 59.0925 52.2508 59.3781C51.5572 59.671 50.9859 60.1943 50.6333 60.8595C50.2545 61.6524 50.182 62.5572 50.4296 63.4003C50.4608 63.5002 50.5296 63.584 50.6215 63.634C50.7133 63.6841 50.821 63.6966 50.9219 63.6688C51.0228 63.641 51.1089 63.5751 51.1621 63.485C51.2153 63.3949 51.2314 63.2877 51.2071 63.186C51.0528 62.6118 51.0853 62.0033 51.2999 61.4488C51.507 60.9759 51.8605 60.5821 52.3083 60.3252C52.741 60.0587 53.2413 59.9223 53.7494 59.9323C54.2575 59.9424 54.752 60.0984 55.1739 60.3818C56.1485 61.0743 56.4712 62.6567 56.1556 63.8189C56.0277 64.3181 55.7434 64.7634 55.3444 65.0896C54.9453 65.4158 54.4524 65.6058 53.9376 65.6318C52.4822 65.6898 51.4662 64.5288 51.0893 63.2185C51.0671 63.1494 51.019 63.0916 50.9552 63.0571C50.8913 63.0227 50.8166 63.0142 50.7467 63.0335C50.6767 63.0528 50.6169 63.0983 50.5798 63.1606C50.5426 63.2229 50.5309 63.2972 50.5472 63.3679Z" fill="black"/>
<path d="M52.4909 60.3464C51.6526 61.4847 50.8223 62.6276 50.0097 63.7845C49.7214 64.1948 50.367 64.6874 50.7032 64.3195C51.8653 63.0481 52.9466 61.6908 54.0523 60.3699L53.486 60.0403C53.2353 60.7881 52.9311 61.5169 52.5758 62.2211C52.2113 62.918 51.8025 63.5908 51.3517 64.2352C51.0119 64.7434 51.8197 65.1999 52.1647 64.7104C53.1072 63.3621 54.121 62.065 55.2018 60.8247L54.5203 60.2989L52.181 64.8309C52.1461 64.8927 52.1257 64.9616 52.1212 65.0324C52.1167 65.1032 52.1283 65.1741 52.155 65.2399C52.1817 65.3056 52.223 65.3644 52.2756 65.412C52.3283 65.4596 52.391 65.4946 52.4591 65.5146C53.543 65.7839 53.9143 64.5191 54.3297 63.8005C54.8302 62.9353 55.5075 62.1854 56.3174 61.5998L55.8261 61.222C55.2235 62.6235 54.4974 63.9686 53.6562 65.2413C53.3941 65.6603 54.0342 66.1809 54.3554 65.7808C54.953 65.0273 55.6985 64.4041 56.546 63.9495L55.8865 63.6812C55.9826 63.9124 56.0176 64.1645 55.9881 64.4131C55.9587 64.6618 55.8658 64.8987 55.7184 65.1011C55.4569 65.4879 56.0735 65.9759 56.3728 65.6061C56.6183 65.3093 56.7823 64.9539 56.8488 64.5746C56.9154 64.1953 56.8821 63.8052 56.7523 63.4426C56.7326 63.3772 56.6986 63.3171 56.6526 63.2666C56.6067 63.2161 56.55 63.1765 56.4867 63.1508C56.4235 63.125 56.3553 63.1138 56.2871 63.1179C56.2189 63.1219 56.1525 63.1412 56.0928 63.1743C55.128 63.6601 54.2927 64.3687 53.6562 65.2414L54.425 65.6907C54.8181 65.0183 55.1847 64.3337 55.5169 63.629C55.8501 62.9225 56.1255 62.1945 56.4375 61.4796C56.5591 61.2011 56.2909 60.8223 55.9799 61.022C54.8399 61.7486 53.9061 62.7565 53.2685 63.9486C53.1927 64.0908 52.9371 64.6711 52.7066 64.6169L52.9848 65.3005L55.2698 60.7367C55.4788 60.3192 54.9351 59.8236 54.5882 60.2109C53.434 61.4898 52.3534 62.8334 51.3518 64.2351L52.1648 64.7103C53.0592 63.329 53.726 61.8131 54.1395 60.2203C54.1572 60.1486 54.1513 60.0732 54.1225 60.0052C54.0938 59.9372 54.0437 59.8804 53.9799 59.8432C53.9161 59.8061 53.842 59.7906 53.7687 59.7992C53.6954 59.8077 53.6268 59.8398 53.5732 59.8906C52.4028 61.1487 51.1935 62.3871 50.0789 63.6949L50.7723 64.23C51.5207 63.038 52.2494 61.8351 52.9708 60.6266C53.1582 60.3125 52.698 60.0648 52.491 60.3462L52.4909 60.3464Z" fill="black"/>
<path d="M61.3519 63.3679C61.7114 64.8239 62.7455 66.1154 64.2977 66.3298C64.9575 66.4216 65.6292 66.2995 66.2145 65.9814C66.7997 65.6634 67.2676 65.1661 67.5495 64.5627C68.2081 63.1372 67.983 61.1156 66.8465 59.9856C66.3458 59.5203 65.7182 59.2142 65.0433 59.106C64.3684 58.9978 63.6765 59.0925 63.0555 59.3781C62.3619 59.671 61.7906 60.1943 61.438 60.8595C61.0592 61.6524 60.9867 62.5572 61.2343 63.4003C61.2655 63.5002 61.3343 63.584 61.4262 63.634C61.518 63.6841 61.6257 63.6966 61.7266 63.6688C61.8274 63.641 61.9135 63.5751 61.9668 63.485C62.02 63.3949 62.0361 63.2877 62.0118 63.186C61.8575 62.6118 61.89 62.0033 62.1046 61.4488C62.3117 60.9759 62.6652 60.5821 63.1129 60.3252C63.5457 60.0587 64.0459 59.9223 64.5541 59.9323C65.0622 59.9424 65.5567 60.0984 65.9786 60.3818C66.9534 61.0743 67.2759 62.6567 66.9603 63.8189C66.8324 64.3181 66.5481 64.7634 66.149 65.0896C65.75 65.4158 65.2571 65.6058 64.7423 65.6318C63.2869 65.6898 62.2709 64.5288 61.894 63.2185C61.8718 63.1494 61.8237 63.0916 61.7599 63.0571C61.696 63.0227 61.6213 63.0142 61.5514 63.0335C61.4814 63.0528 61.4216 63.0983 61.3844 63.1606C61.3473 63.2229 61.3356 63.2972 61.3519 63.3679Z" fill="black"/>
<path d="M63.2955 60.3464C62.4573 61.4847 61.627 62.6276 60.8144 63.7845C60.5261 64.1948 61.1716 64.6874 61.5078 64.3195C62.67 63.0481 63.7513 61.6908 64.857 60.3699L64.2907 60.0403C64.0399 60.7881 63.7356 61.5169 63.3803 62.2211C63.0158 62.918 62.607 63.5908 62.1562 64.2352C61.8164 64.7434 62.6242 65.1999 62.9692 64.7104C63.9117 63.3621 64.9255 62.065 66.0063 60.8247L65.3248 60.2989L62.9855 64.8309C62.9506 64.8927 62.9302 64.9616 62.9257 65.0324C62.9212 65.1032 62.9327 65.1741 62.9595 65.2399C62.9862 65.3056 63.0275 65.3644 63.0801 65.412C63.1328 65.4596 63.1955 65.4946 63.2636 65.5146C64.3474 65.7839 64.7188 64.5191 65.1342 63.8005C65.6347 62.9353 66.312 62.1854 67.1219 61.5998L66.6306 61.222C66.028 62.6235 65.3018 63.9686 64.4607 65.2413C64.1986 65.6603 64.8387 66.1809 65.1599 65.7808C65.7575 65.0273 66.503 64.4041 67.3505 63.9495L66.691 63.6812C66.7871 63.9124 66.8221 64.1645 66.7926 64.4131C66.7632 64.6618 66.6703 64.8987 66.5228 65.1011C66.2614 65.4879 66.878 65.9759 67.1773 65.6061C67.4228 65.3093 67.5868 64.9539 67.6533 64.5746C67.7199 64.1953 67.6866 63.8052 67.5568 63.4426C67.5371 63.3772 67.5031 63.3171 67.4571 63.2666C67.4111 63.2161 67.3545 63.1765 67.2912 63.1508C67.228 63.125 67.1597 63.1138 67.0916 63.1179C67.0234 63.1219 66.957 63.1412 66.8973 63.1743C65.9325 63.6601 65.0972 64.3687 64.4607 65.2414L65.2295 65.6907C65.6226 65.0183 65.9892 64.3337 66.3214 63.629C66.6546 62.9225 66.93 62.1945 67.242 61.4796C67.3636 61.2011 67.0954 60.8223 66.7844 61.022C65.6444 61.7486 64.7106 62.7565 64.073 63.9486C63.9972 64.0908 63.7416 64.6711 63.5111 64.6169L63.7893 65.3005L66.0743 60.7367C66.2833 60.3192 65.7396 59.8236 65.3927 60.2109C64.2385 61.4898 63.1579 62.8334 62.1563 64.2351L62.9693 64.7103C63.8637 63.329 64.5304 61.8131 64.944 60.2203C64.9617 60.1486 64.9558 60.0732 64.927 60.0052C64.8982 59.9372 64.8482 59.8804 64.7844 59.8432C64.7206 59.8061 64.6465 59.7906 64.5732 59.7992C64.4998 59.8077 64.4313 59.8398 64.3777 59.8906C63.2073 61.1487 61.998 62.3871 60.8833 63.6949L61.5768 64.23C62.3252 63.038 63.0539 61.8351 63.7753 60.6266C63.9627 60.3125 63.5025 60.0648 63.2955 60.3462L63.2955 60.3464Z" fill="black"/>
<path d="M71.0823 63.3679C71.4419 64.8239 72.476 66.1154 74.0282 66.3298C74.6879 66.4216 75.3597 66.2995 75.9449 65.9814C76.5302 65.6634 76.9981 65.1661 77.28 64.5627C77.9386 63.1372 77.7135 61.1156 76.577 59.9856C76.0763 59.5203 75.4487 59.2142 74.7738 59.106C74.0989 58.9978 73.407 59.0925 72.786 59.3781C72.0924 59.671 71.5211 60.1943 71.1685 60.8595C70.7897 61.6524 70.7171 62.5572 70.9647 63.4003C70.996 63.5002 71.0648 63.584 71.1566 63.634C71.2485 63.6841 71.3562 63.6966 71.4571 63.6688C71.5579 63.641 71.644 63.5751 71.6972 63.485C71.7504 63.3949 71.7666 63.2877 71.7423 63.186C71.5879 62.6117 71.6204 62.0033 71.8351 61.4488C72.0422 60.9759 72.3956 60.5821 72.8434 60.3252C73.2761 60.0587 73.7764 59.9223 74.2845 59.9323C74.7927 59.9424 75.2872 60.0984 75.709 60.3818C76.6837 61.0743 77.0064 62.6567 76.6908 63.8189C76.5629 64.3182 76.2786 64.7634 75.8795 65.0896C75.4805 65.4158 74.9875 65.6058 74.4728 65.6318C73.0173 65.6898 72.0013 64.5288 71.6245 63.2185C71.6022 63.1494 71.5542 63.0916 71.4903 63.0571C71.4265 63.0227 71.3518 63.0142 71.2818 63.0335C71.2119 63.0528 71.1521 63.0983 71.1149 63.1606C71.0777 63.2229 71.0661 63.2972 71.0823 63.3679Z" fill="black"/>
<path d="M73.0222 60.3463C72.184 61.4847 71.3569 62.6307 70.541 63.7844C70.2527 64.1948 70.8982 64.6873 71.2344 64.3195C72.3965 63.048 73.4778 61.6907 74.5835 60.3699L74.0173 60.0403C73.7665 60.7881 73.4623 61.5169 73.107 62.2211C72.7426 62.9179 72.3337 63.5907 71.883 64.2352C71.5431 64.7433 72.351 65.1999 72.696 64.7104C73.6385 63.362 74.6523 62.065 75.7331 60.8247L75.0516 60.2988L72.7123 64.8308C72.6774 64.8927 72.657 64.9615 72.6525 65.0324C72.648 65.1032 72.6595 65.1741 72.6863 65.2398C72.713 65.3056 72.7542 65.3644 72.8069 65.412C72.8596 65.4595 72.9223 65.4946 72.9904 65.5145C74.0742 65.7838 74.4455 64.519 74.861 63.8004C75.3615 62.9353 76.0388 62.1854 76.8487 61.5997L76.3574 61.222C75.7548 62.6235 75.0287 63.9686 74.1875 65.2413C73.9254 65.6602 74.5655 66.1808 74.8867 65.7807C75.4843 65.0273 76.2298 64.4041 77.0773 63.9495L76.4178 63.6812C76.5139 63.9124 76.5489 64.1644 76.5194 64.4131C76.49 64.6617 76.3971 64.8986 76.2497 65.101C75.9882 65.4878 76.6048 65.9759 76.9042 65.606C77.1496 65.3093 77.3136 64.9538 77.3801 64.5745C77.4467 64.1952 77.4134 63.8051 77.2836 63.4426C77.2639 63.3772 77.2299 63.317 77.1839 63.2665C77.1379 63.216 77.0813 63.1764 77.018 63.1507C76.9548 63.125 76.8866 63.1137 76.8184 63.1178C76.7502 63.1219 76.6838 63.1412 76.6241 63.1743C75.6593 63.66 74.824 64.3686 74.1875 65.2414L74.9563 65.6906C75.3494 65.0182 75.716 64.3336 76.0483 63.629C76.3814 62.9225 76.6568 62.1945 76.9688 61.4796C77.0904 61.201 76.8222 60.8222 76.5112 61.022C75.3712 61.7486 74.4375 62.7565 73.7998 63.9486C73.724 64.0907 73.4684 64.671 73.2379 64.6168L73.5161 65.3005L75.8011 60.7367C76.0101 60.3192 75.4664 59.8235 75.1195 60.2109C73.9653 61.4898 72.8848 62.8334 71.8831 64.235L72.6961 64.7102C73.5905 63.329 74.2573 61.813 74.6708 60.2203C74.6885 60.1486 74.6826 60.0731 74.6538 60.0051C74.625 59.9372 74.575 59.8804 74.5112 59.8432C74.4474 59.8061 74.3733 59.7906 74.3 59.7992C74.2267 59.8077 74.1581 59.8398 74.1045 59.8906C72.9341 61.1486 71.7248 62.3871 70.6101 63.6949L71.3036 64.23C72.052 63.038 72.7807 61.835 73.5021 60.6266C73.6896 60.3125 73.2293 60.0647 73.0223 60.3462L73.0222 60.3463Z" fill="black"/>
<path d="M173.793 65.751C174.773 65.6691 175.752 65.586 176.729 65.4788C176.811 65.4765 176.889 65.4429 176.947 65.385C177.005 65.327 177.039 65.2491 177.041 65.1672C177.04 65.0847 177.007 65.0057 176.949 64.9474C176.891 64.8891 176.812 64.856 176.729 64.8555C175.748 64.9501 174.771 65.0686 173.793 65.1884C173.719 65.1906 173.649 65.2209 173.597 65.2732C173.544 65.3255 173.514 65.3957 173.512 65.4696C173.512 65.544 173.542 65.6152 173.595 65.6678C173.647 65.7204 173.719 65.7502 173.793 65.7508V65.751Z" fill="black"/>
<path d="M172.804 62.2934L175.753 61.8003C175.837 61.7765 175.908 61.7208 175.951 61.6452C175.994 61.5696 176.005 61.4801 175.983 61.396C175.958 61.313 175.902 61.2428 175.827 61.2001C175.751 61.1573 175.662 61.1453 175.578 61.1665L172.638 61.6922C172.559 61.7148 172.492 61.7677 172.451 61.8394C172.41 61.9111 172.4 61.996 172.421 62.0757C172.444 62.1543 172.497 62.2208 172.569 62.2614C172.64 62.3019 172.725 62.3134 172.804 62.2934H172.804Z" fill="black"/>
<path d="M59.4685 95.4954C69.0132 95.7715 78.4268 94.1376 86.0771 90.877C88.4736 89.8515 91.0094 88.6762 92.5158 87.1736C93.736 85.9561 94.0694 84.3963 92.4537 83.2443C91.7715 82.8242 90.9473 82.4868 90.0306 82.2523C89.1139 82.0178 88.1234 81.8911 87.1186 81.8797C86.1138 81.8684 85.1153 81.9726 84.1829 82.1862C83.2505 82.3997 82.4035 82.7182 81.6925 83.1225C80.9221 83.6578 80.3644 84.2816 80.0576 84.9512C79.7509 85.6207 79.7023 86.3202 79.9153 87.0014C80.8077 90.4259 86.1959 92.3686 91.8399 92.8315C98.2011 93.3532 104.967 92.5501 110.866 91.1936C114.024 90.4801 117.037 89.5749 119.853 88.4935C121.012 88.1053 121.903 87.504 122.381 86.7887C122.559 86.4636 122.517 86.1123 122.264 85.8037C122.012 85.4951 121.565 85.2513 121.013 85.1201C118.672 84.543 115.956 85.4092 114.523 86.4496C113.734 87.014 113.2 87.6798 112.967 88.3888C112.735 89.0978 112.811 89.8285 113.188 90.5169C115.155 93.9662 122.053 95.045 127.752 94.7905C133.323 94.5418 139.865 93.7611 144.048 91.4934C145.009 90.9703 145.811 90.3599 146.421 89.6872L144.992 89.2118C143.926 90.4269 145.198 91.5367 146.977 92.2456C149.22 93.1399 152.14 93.351 154.797 93.5138C160.849 93.8791 166.963 93.3237 172.514 91.9043C173.233 91.7219 172.712 91.0011 171.972 91.1725C167.32 92.2542 162.321 92.7668 157.299 92.677C154.837 92.6556 152.391 92.4488 150.025 92.0621C148.494 91.79 145.404 90.8447 146.421 89.6872C146.895 89.1479 145.485 88.6715 144.992 89.2118C142.734 91.6869 137.913 92.7664 133.386 93.3552C128.257 94.0222 122.014 94.4922 117.57 92.5024C116.633 92.1187 115.859 91.6197 115.306 91.0424C114.753 90.4652 114.436 89.8245 114.377 89.1679C114.385 88.5468 114.683 87.9381 115.242 87.4047C115.801 86.8712 116.6 86.4324 117.556 86.1336C118.288 85.927 120.737 85.5567 120.836 86.3569C120.927 87.1046 118.751 87.7433 117.878 88.0503C115.5 88.899 113 89.6322 110.405 90.242C105.367 91.4618 99.9378 92.0707 94.4633 92.0299C89.5408 91.9354 84.1557 90.9252 82.0766 88.153C80.4659 86.0054 81.5319 83.0176 86.2382 82.7138C87.0821 82.6475 87.9409 82.6824 88.7597 82.8162C89.5785 82.9501 90.339 83.1798 90.9925 83.4909C92.7882 84.4324 92.3723 85.8858 91.2204 86.9771C89.661 88.4543 87.0499 89.6488 84.6306 90.6509C77.3296 93.6673 68.4874 95.232 59.4688 95.1035C59.0241 95.0962 59.028 95.4828 59.4688 95.4956L59.4685 95.4954Z" fill="black"/>
<path d="M72.4968 113.322C78.4711 113.176 84.1224 111.733 88.2976 109.287C88.3651 109.247 88.4133 109.198 88.4377 109.143C88.4621 109.089 88.4618 109.033 88.4368 108.979C88.4119 108.925 88.3632 108.875 88.2953 108.835C88.2274 108.795 88.1426 108.766 88.049 108.75C85.4311 108.157 82.1684 108.019 79.7157 108.94C78.7573 109.305 78.0112 109.825 77.5726 110.433C77.1341 111.041 77.0232 111.71 77.2539 112.355C78.5394 116.196 87.9758 113.902 91.5675 112.639C94.6042 111.568 97.1742 110.116 99.0828 108.394C99.1649 108.309 99.202 108.213 99.1893 108.116C99.1767 108.019 99.1149 107.927 99.0116 107.85C98.9083 107.774 98.768 107.716 98.6078 107.684C98.4477 107.652 98.2748 107.648 98.1104 107.671C95.8296 108.088 95.3721 109.759 96.6943 110.788C98.4009 112.117 102.017 112.441 104.647 112.75C111.145 113.504 117.848 113.473 124.324 112.657C128.036 112.187 131.633 111.46 135.038 110.493L134.104 109.58C131.483 110.46 132.858 112.583 135.271 113.101C136.858 113.357 138.532 113.376 140.135 113.156C142.412 112.958 144.686 112.747 146.961 112.542C155.912 111.736 164.897 111.01 173.802 110.05C174.681 109.955 174.492 109.081 173.588 109.146C166.157 109.685 158.768 110.402 151.369 111.068C147.671 111.401 143.974 111.734 140.277 112.067C138.812 112.2 136.911 112.462 135.538 112.004C134.731 111.735 133.992 110.846 135.038 110.493C135.241 110.42 135.386 110.304 135.443 110.171C135.5 110.038 135.464 109.897 135.343 109.779C135.222 109.66 135.025 109.573 134.793 109.536C134.562 109.499 134.315 109.515 134.103 109.58C127.719 111.383 120.682 112.303 113.56 112.263C110.043 112.248 106.541 111.994 103.128 111.507C101.63 111.292 99.8748 111.088 98.6563 110.51C97.7964 110.102 97.0199 108.912 98.5675 108.62L97.5951 107.897C95.8655 109.49 93.5236 110.838 90.747 111.837C88.1975 112.753 84.7568 113.663 81.6696 113.612C78.7139 113.563 77.8039 111.639 79.13 110.331C80.8253 108.658 85.0242 108.79 87.7488 109.37L87.5002 108.832C83.5735 111.198 78.1977 112.606 72.4961 112.762C71.8683 112.779 71.8635 113.337 72.4961 113.322L72.4968 113.322Z" fill="black"/>
<path d="M76.9246 127.494C79.2552 127.681 81.6245 127.412 83.6785 126.729C85.7326 126.046 87.3612 124.984 88.321 123.703C88.4031 123.615 88.4251 123.512 88.3825 123.415C88.3399 123.318 88.2361 123.235 88.0927 123.183C85.7186 122.492 82.9365 123.751 83.0757 125.284C83.2594 127.307 86.8671 128.281 89.8585 128.138C93.4271 127.882 96.7988 127.023 99.5754 125.66C100.699 125.136 101.914 124.577 102.3 123.717C102.566 123.124 102.446 122.335 101.315 122.108C100.121 121.868 99.2001 122.627 99.1225 123.266C99.135 123.653 99.2807 124.034 99.5505 124.386C99.8204 124.738 100.209 125.053 100.691 125.312C101.96 125.985 103.441 126.501 105.046 126.831C106.759 127.26 108.526 127.609 110.33 127.874C118.014 129.01 126.229 128.984 134.088 128.77C138.72 128.644 143.333 128.382 147.927 127.983C152.662 127.649 157.328 127.033 161.858 126.145C161.993 126.119 162.106 126.064 162.174 125.989C162.241 125.915 162.258 125.828 162.22 125.746C162.183 125.664 162.093 125.595 161.972 125.552C161.85 125.508 161.704 125.495 161.566 125.514C157.186 125.897 152.864 126.487 148.486 126.883C144.057 127.284 139.603 127.554 135.123 127.694C126.803 127.957 117.984 128.045 109.884 126.723C107.712 126.377 105.608 125.893 103.611 125.278C102.584 124.957 99.7177 123.7 101.319 122.944L100.707 123.095C100.615 123.094 100.778 123.022 100.711 123.183C100.676 123.266 100.682 123.36 100.647 123.446C100.558 123.657 100.385 123.853 100.144 124.017C99.3715 124.516 98.4952 124.955 97.5364 125.323C95.6502 126.11 93.5424 126.69 91.3133 127.033C89.1157 127.364 86.3865 127.339 85.0005 126.087C84.6928 125.844 84.5172 125.55 84.4971 125.245C84.477 124.94 84.6135 124.639 84.8882 124.382C85.1446 124.129 85.5398 123.937 86.0068 123.838C86.4737 123.739 86.9836 123.739 87.45 123.839L87.1575 123.41C86.3296 124.565 84.8994 125.529 83.0796 126.16C81.2597 126.791 79.1474 127.055 77.0566 126.911C76.5061 126.873 76.3704 127.448 76.9246 127.494V127.494Z" fill="black"/>
<path d="M152.5 136.887C154.596 136.39 156.734 136.088 158.886 135.984C161.01 135.879 163.118 136.004 165.241 136.038C165.61 136.044 165.709 135.451 165.33 135.379C163.169 135.022 160.969 134.956 158.789 135.182C156.61 135.369 154.448 135.725 152.323 136.247C151.908 136.347 152.084 136.986 152.5 136.887H152.5Z" fill="black"/>
<path d="M156.777 144.101C157.848 143.931 158.918 143.758 159.987 143.575C160.078 143.549 160.156 143.488 160.203 143.405C160.25 143.323 160.262 143.225 160.238 143.133C160.21 143.042 160.149 142.966 160.067 142.919C159.985 142.872 159.888 142.859 159.796 142.882C158.726 143.055 157.658 143.237 156.59 143.422C156.5 143.447 156.424 143.507 156.378 143.588C156.332 143.669 156.32 143.765 156.344 143.855C156.371 143.944 156.431 144.019 156.511 144.065C156.592 144.111 156.687 144.124 156.777 144.101Z" fill="black"/>
<path d="M71.7117 47.0596C71.9644 48.7314 70.3911 50.6825 68.6064 50.3537C68.1242 50.2476 67.6869 49.9942 67.355 49.6286C67.0232 49.263 66.8132 48.8032 66.7542 48.313C66.6021 47.265 67.1132 45.8844 68.3145 45.7924C68.9997 45.7788 69.6797 45.9146 70.3072 46.1903C70.8303 46.3606 71.2669 46.7272 71.525 47.2131C71.5687 47.2837 71.634 47.3383 71.7112 47.3688C71.7885 47.3993 71.8735 47.4041 71.9537 47.3824C72.0338 47.3606 72.1048 47.3136 72.1561 47.2483C72.2074 47.183 72.2362 47.1029 72.2383 47.0199C72.2083 46.296 71.6247 45.7782 71.0061 45.4917C70.3304 45.1803 69.6072 44.9847 68.8667 44.9132C68.4836 44.8617 68.0939 44.8985 67.7273 45.0208C67.3606 45.143 67.0267 45.3474 66.7512 45.6184C66.4055 46.0116 66.1559 46.4798 66.0222 46.9861C65.8885 47.4923 65.8742 48.0227 65.9806 48.5354C66.087 49.048 66.3111 49.529 66.6352 49.9402C66.9593 50.3514 67.3746 50.6817 67.8482 50.905C68.3622 51.0938 68.9176 51.1405 69.4559 51.0403C69.9942 50.9401 70.4956 50.6966 70.9072 50.3354C71.3976 49.9444 71.7624 49.4181 71.9565 48.8217C72.1507 48.2253 72.1655 47.585 71.9993 46.9803C71.988 46.9431 71.9626 46.9117 71.9285 46.8929C71.8944 46.8742 71.8543 46.8694 71.8168 46.8798C71.7793 46.8901 71.7473 46.9147 71.7277 46.9483C71.708 46.9819 71.7023 47.0218 71.7117 47.0596Z" fill="black"/>
<path d="M84.032 47.0596C84.2846 48.7314 82.7114 50.6825 80.9267 50.3537C80.4445 50.2476 80.0072 49.9942 79.6753 49.6286C79.3435 49.263 79.1335 48.8032 79.0745 48.313C78.9224 47.265 79.4335 45.8844 80.6348 45.7924C81.32 45.7788 82 45.9146 82.6275 46.1903C83.1506 46.3606 83.5872 46.7272 83.8453 47.2131C83.889 47.2837 83.9543 47.3383 84.0315 47.3688C84.1088 47.3993 84.1938 47.4041 84.2739 47.3824C84.3541 47.3606 84.4251 47.3136 84.4764 47.2483C84.5277 47.183 84.5565 47.1029 84.5586 47.0199C84.5286 46.296 83.945 45.7782 83.3264 45.4917C82.6507 45.1803 81.9275 44.9847 81.187 44.9132C80.8039 44.8617 80.4142 44.8985 80.0476 45.0208C79.6809 45.143 79.347 45.3474 79.0715 45.6184C78.7258 46.0116 78.4762 46.4798 78.3425 46.9861C78.2088 47.4923 78.1946 48.0227 78.3009 48.5354C78.4073 49.048 78.6314 49.529 78.9555 49.9402C79.2796 50.3514 79.6949 50.6817 80.1685 50.905C80.6825 51.0938 81.2379 51.1405 81.7762 51.0403C82.3145 50.9401 82.8159 50.6966 83.2275 50.3354C83.7179 49.9444 84.0827 49.4181 84.2768 48.8217C84.4709 48.2253 84.4858 47.585 84.3195 46.9803C84.3082 46.9431 84.2828 46.9117 84.2488 46.8929C84.2147 46.8742 84.1746 46.8694 84.1371 46.8798C84.0996 46.8901 84.0676 46.9147 84.048 46.9483C84.0283 46.9819 84.0226 47.0218 84.032 47.0596Z" fill="black"/>
<path d="M96.3523 47.0596C96.605 48.7314 95.0317 50.6825 93.247 50.3537C92.7648 50.2476 92.3275 49.9942 91.9956 49.6286C91.6638 49.263 91.4539 48.8032 91.3948 48.313C91.2427 47.265 91.7538 45.8844 92.9551 45.7924C93.6403 45.7788 94.3203 45.9146 94.9478 46.1903C95.4709 46.3606 95.9075 46.7272 96.1656 47.2131C96.2093 47.2837 96.2746 47.3383 96.3518 47.3688C96.4291 47.3993 96.5141 47.4041 96.5943 47.3824C96.6744 47.3606 96.7454 47.3136 96.7967 47.2483C96.848 47.183 96.8768 47.1029 96.8789 47.0199C96.8489 46.296 96.2653 45.7782 95.6467 45.4917C94.971 45.1803 94.2478 44.9847 93.5073 44.9132C93.1243 44.8617 92.7345 44.8985 92.3679 45.0208C92.0012 45.143 91.6673 45.3474 91.3918 45.6184C91.0461 46.0116 90.7965 46.4798 90.6628 46.9861C90.5291 47.4923 90.5149 48.0227 90.6213 48.5354C90.7276 49.048 90.9517 49.529 91.2758 49.9402C91.5999 50.3514 92.0152 50.6817 92.4888 50.905C93.0028 51.0938 93.5582 51.1405 94.0965 51.0403C94.6348 50.9401 95.1362 50.6966 95.5478 50.3354C96.0382 49.9444 96.403 49.4181 96.5972 48.8217C96.7913 48.2253 96.8061 47.5851 96.6399 46.9803C96.6288 46.9429 96.6034 46.9113 96.5693 46.8923C96.5351 46.8734 96.4949 46.8686 96.4572 46.879C96.4196 46.8893 96.3875 46.9141 96.3679 46.9478C96.3482 46.9816 96.3426 47.0217 96.3523 47.0596Z" fill="black"/>
<path d="M88.571 30.6338C88.8237 32.3056 87.2505 34.2567 85.4657 33.928C84.9835 33.8219 84.5462 33.5685 84.2144 33.2028C83.8825 32.8372 83.6726 32.3775 83.6136 31.8873C83.4614 30.8393 83.9725 29.4586 85.1738 29.3666C85.8591 29.353 86.5391 29.4888 87.1666 29.7646C87.6897 29.9348 88.1263 30.3015 88.3843 30.7874C88.428 30.858 88.4934 30.9126 88.5706 30.9431C88.6479 30.9736 88.7329 30.9783 88.813 30.9566C88.8932 30.9349 88.9642 30.8879 89.0155 30.8226C89.0668 30.7572 89.0956 30.6771 89.0977 30.5941C89.0676 29.8703 88.4841 29.3525 87.8654 29.0659C87.1898 28.7545 86.4666 28.5589 85.726 28.4874C85.343 28.436 84.9533 28.4728 84.5866 28.595C84.22 28.7172 83.8861 28.9216 83.6105 29.1926C83.2648 29.5858 83.0153 30.0541 82.8816 30.5603C82.7478 31.0665 82.7336 31.5969 82.84 32.1096C82.9464 32.6223 83.1705 33.1032 83.4946 33.5144C83.8187 33.9257 84.2339 34.2559 84.7075 34.4792C85.2215 34.668 85.7769 34.7148 86.3153 34.6145C86.8536 34.5143 87.355 34.2708 87.7666 33.9096C88.2569 33.5186 88.6218 32.9923 88.8159 32.3959C89.01 31.7995 89.0249 31.1592 88.8586 30.5545C88.8479 30.5166 88.8226 30.4845 88.7883 30.4652C88.754 30.4459 88.7134 30.441 88.6755 30.4515C88.6375 30.4619 88.6052 30.487 88.5857 30.5211C88.5661 30.5553 88.5608 30.5958 88.571 30.6338Z" fill="black"/>
<path d="M101.973 29.7627C102.226 31.4345 100.653 33.3856 98.8682 33.0569C98.386 32.9507 97.9487 32.6973 97.6169 32.3317C97.285 31.9661 97.0751 31.5063 97.0161 31.0161C96.8639 29.9682 97.375 28.5875 98.5763 28.4956C99.2616 28.4819 99.9416 28.6177 100.569 28.8934C101.092 29.0637 101.529 29.4304 101.787 29.9162C101.831 29.9868 101.896 30.0414 101.973 30.0719C102.05 30.1024 102.135 30.1072 102.216 30.0854C102.296 30.0637 102.367 30.0167 102.418 29.9514C102.469 29.8861 102.498 29.806 102.5 29.723C102.47 28.9991 101.887 28.4813 101.268 28.1948C100.592 27.8834 99.8691 27.6878 99.1286 27.6163C98.7455 27.5649 98.3558 27.6017 97.9891 27.7239C97.6225 27.8461 97.2886 28.0505 97.013 28.3214C96.6673 28.7147 96.4177 29.1829 96.284 29.6891C96.1502 30.1954 96.136 30.7258 96.2423 31.2385C96.3487 31.7512 96.5727 32.2321 96.8968 32.6434C97.2209 33.0546 97.6362 33.3849 98.1098 33.6082C98.6238 33.797 99.1792 33.8438 99.7175 33.7436C100.256 33.6433 100.757 33.3998 101.169 33.0387C101.659 32.6476 102.024 32.1213 102.218 31.5249C102.412 30.9285 102.427 30.2883 102.261 29.6835C102.249 29.647 102.224 29.6163 102.19 29.5981C102.156 29.5798 102.116 29.5753 102.079 29.5856C102.042 29.5958 102.011 29.6199 101.991 29.6529C101.971 29.6859 101.965 29.7252 101.973 29.7627Z" fill="black"/>
<path d="M114.298 29.9815C114.55 31.6532 112.977 33.6043 111.192 33.2756C110.71 33.1695 110.273 32.9161 109.941 32.5504C109.609 32.1848 109.399 31.7251 109.34 31.2349C109.188 30.1869 109.699 28.8063 110.9 28.7143C111.586 28.7006 112.266 28.8364 112.893 29.1122C113.416 29.2824 113.853 29.6491 114.111 30.135C114.155 30.2056 114.22 30.2602 114.297 30.2907C114.374 30.3212 114.459 30.3259 114.54 30.3042C114.62 30.2825 114.691 30.2355 114.742 30.1702C114.793 30.1049 114.822 30.0248 114.824 29.9418C114.794 29.2179 114.211 28.7001 113.592 28.4136C112.916 28.1021 112.193 27.9065 111.453 27.8351C111.07 27.7836 110.68 27.8204 110.313 27.9426C109.947 28.0648 109.613 28.2692 109.337 28.5402C108.991 28.9335 108.742 29.4017 108.608 29.9079C108.474 30.4142 108.46 30.9446 108.567 31.4572C108.673 31.9699 108.897 32.4509 109.221 32.8621C109.545 33.2733 109.96 33.6036 110.434 33.8268C110.948 34.0156 111.504 34.0624 112.042 33.9622C112.58 33.8619 113.082 33.6184 113.493 33.2573C113.983 32.8663 114.348 32.3399 114.542 31.7436C114.737 31.1472 114.751 30.5069 114.585 29.9022C114.574 29.8644 114.549 29.8325 114.515 29.8133C114.48 29.7941 114.44 29.7892 114.402 29.7996C114.364 29.8101 114.332 29.835 114.313 29.8691C114.293 29.9031 114.288 29.9435 114.298 29.9815Z" fill="black"/>
<path d="M192.241 46.7905L195.379 46.8176C195.448 46.8153 195.513 46.7865 195.561 46.7372C195.608 46.6879 195.635 46.622 195.635 46.5533C195.635 46.4847 195.608 46.4187 195.561 46.3694C195.513 46.3201 195.448 46.2913 195.379 46.2891L192.241 46.3162C192.179 46.3183 192.121 46.3442 192.078 46.3884C192.036 46.4327 192.012 46.4918 192.012 46.5533C192.012 46.6148 192.036 46.674 192.078 46.7182C192.121 46.7624 192.179 46.7883 192.241 46.7905Z" fill="black"/>
<path d="M190.963 72.6631C192.439 72.92 193.897 72.4964 195.353 72.3021C196.086 72.1551 196.845 72.2031 197.554 72.4414C197.92 72.6125 198.239 72.8706 198.483 73.1933C198.727 73.5159 198.888 73.8934 198.953 74.2926C199.125 75.2091 199.217 76.139 199.225 77.0715C199.288 78.0971 199.347 79.123 199.401 80.1492C199.51 82.2347 199.601 84.321 199.673 86.4083C199.961 94.758 199.938 103.111 199.603 111.466C199.418 116.168 199.185 120.88 198.762 125.567L199.147 125.061C196.582 125.445 194.005 125.807 191.46 126.311C190.87 126.428 190.995 127.457 191.605 127.376C194.224 127.029 196.826 126.541 199.426 126.073C199.536 126.041 199.633 125.975 199.703 125.884C199.772 125.793 199.81 125.681 199.811 125.567C200.333 116.957 200.718 108.361 200.69 99.7325C200.676 95.4227 200.585 91.1137 200.417 86.8057C200.334 84.6521 200.23 82.4994 200.107 80.3477C200.046 79.2884 199.98 78.2294 199.91 77.1706C199.883 76.2485 199.792 75.3294 199.64 74.4196C199.52 73.6555 199.127 72.9608 198.534 72.4643C197.942 71.9677 197.189 71.7031 196.415 71.7195C194.612 71.7171 192.877 72.5679 191.062 72.3039C190.83 72.27 190.725 72.6217 190.963 72.6632L190.963 72.6631Z" fill="black"/>
<path d="M192.108 135.561C192.565 135.592 193.02 135.512 193.482 135.552C193.939 135.592 194.39 135.673 194.843 135.744C195.644 135.93 196.477 135.926 197.276 135.733C198.494 135.346 199.847 134.046 199.084 132.695C199.041 132.627 198.976 132.575 198.898 132.551C198.821 132.527 198.738 132.53 198.663 132.562C198.589 132.593 198.528 132.65 198.492 132.723C198.455 132.795 198.446 132.878 198.465 132.956C198.828 134.11 197.478 134.98 196.483 135.091C195.721 135.121 194.959 135.064 194.21 134.922C193.52 134.84 192.605 134.714 191.98 135.087C191.933 135.117 191.897 135.16 191.877 135.211C191.857 135.262 191.854 135.319 191.868 135.372C191.883 135.425 191.914 135.472 191.957 135.506C192 135.54 192.053 135.559 192.108 135.561L192.108 135.561Z" fill="black"/>
<path d="M197.606 132.41C197.374 132.592 197.219 132.854 197.172 133.145C197.124 133.435 197.187 133.733 197.349 133.979C197.486 134.237 197.696 134.45 197.952 134.591C198.324 134.767 198.741 134.825 199.146 134.756C199.632 134.668 200.102 134.513 200.545 134.295C200.844 134.165 200.625 133.635 200.32 133.763C199.908 133.954 199.473 134.091 199.026 134.172C198.697 134.239 198.355 134.173 198.074 133.989C197.99 133.915 197.916 133.83 197.856 133.736C197.788 133.633 197.741 133.517 197.718 133.396C197.697 133.295 197.699 133.19 197.724 133.09C197.749 133.002 197.801 132.924 197.872 132.867C197.931 132.83 197.974 132.772 197.991 132.705C198.009 132.638 198 132.566 197.967 132.505C197.931 132.445 197.873 132.401 197.806 132.384C197.738 132.366 197.666 132.376 197.605 132.41L197.606 132.41Z" fill="black"/>
<path d="M195.308 140.65L196.56 140.976C196.632 140.994 196.708 140.983 196.772 140.946C196.836 140.908 196.882 140.847 196.902 140.776C196.922 140.704 196.913 140.628 196.877 140.563C196.841 140.498 196.782 140.449 196.711 140.428L195.452 140.127C195.383 140.108 195.309 140.117 195.246 140.153C195.184 140.188 195.138 140.247 195.119 140.316C195.1 140.385 195.109 140.459 195.145 140.522C195.18 140.584 195.239 140.63 195.308 140.649V140.65Z" fill="black"/>
<path d="M209.142 57.057C211.175 57.8947 212.39 60.0103 213.326 61.8861C214.249 63.7383 214.939 65.6979 215.38 67.7201C216.266 71.826 216.14 76.0859 215.013 80.1323C214.374 82.4231 213.414 84.6118 212.161 86.6333C211.859 87.1215 212.62 87.5598 212.928 87.0813C217.687 79.6856 218.092 69.6227 214.077 61.8112C212.998 59.7125 211.602 57.4393 209.265 56.6127C208.98 56.512 208.876 56.9469 209.143 57.057L209.142 57.057Z" fill="black"/>
<path d="M210.753 96.0784C212.113 96.095 213.473 96.1119 214.833 96.1292C214.912 96.1258 214.986 96.0922 215.04 96.0354C215.095 95.9786 215.125 95.903 215.125 95.8244C215.125 95.7457 215.095 95.6701 215.04 95.6133C214.986 95.5565 214.912 95.5229 214.833 95.5195C213.473 95.5367 212.113 95.5536 210.753 95.5704C210.687 95.5727 210.625 95.6005 210.579 95.6479C210.533 95.6953 210.508 95.7586 210.508 95.8245C210.508 95.8903 210.533 95.9536 210.579 96.001C210.625 96.0484 210.687 96.0762 210.753 96.0785V96.0784Z" fill="black"/>
<path d="M212.01 102.685L213.579 102.698C213.617 102.7 213.655 102.693 213.691 102.68C213.727 102.666 213.76 102.645 213.787 102.619C213.815 102.592 213.836 102.56 213.851 102.525C213.866 102.49 213.874 102.452 213.874 102.414C213.874 102.375 213.866 102.338 213.851 102.302C213.836 102.267 213.815 102.235 213.787 102.209C213.76 102.182 213.727 102.161 213.691 102.148C213.655 102.134 213.617 102.128 213.579 102.129L212.01 102.143C211.939 102.144 211.871 102.172 211.82 102.223C211.77 102.274 211.742 102.342 211.742 102.414C211.742 102.485 211.77 102.553 211.82 102.604C211.871 102.655 211.939 102.684 212.01 102.685Z" fill="black"/>
<path d="M211.694 109.634L212.322 109.637C212.406 109.636 212.487 109.603 212.547 109.544C212.576 109.514 212.6 109.479 212.616 109.44C212.632 109.402 212.64 109.36 212.64 109.318C212.64 109.277 212.632 109.235 212.616 109.197C212.6 109.158 212.576 109.123 212.547 109.093C212.486 109.035 212.406 109.001 212.322 109L211.694 109.003C211.611 109.004 211.531 109.038 211.471 109.096C211.427 109.14 211.397 109.196 211.385 109.257C211.373 109.318 211.379 109.381 211.403 109.439C211.427 109.497 211.467 109.546 211.519 109.58C211.571 109.615 211.632 109.633 211.694 109.633V109.634Z" fill="black"/>
<path d="M213.579 115.262C213.654 115.26 213.726 115.228 213.779 115.174C213.831 115.119 213.861 115.047 213.861 114.971C213.861 114.895 213.831 114.823 213.779 114.768C213.726 114.714 213.654 114.682 213.579 114.68C213.503 114.682 213.431 114.714 213.379 114.768C213.326 114.823 213.297 114.895 213.297 114.971C213.297 115.047 213.326 115.119 213.379 115.174C213.431 115.228 213.503 115.26 213.579 115.262Z" fill="black"/>
<path d="M206.016 31.1006C207.779 31.0309 209.541 30.9368 211.304 30.8429C211.74 30.8197 211.737 30.1307 211.304 30.1653C209.54 30.3065 207.777 30.4474 206.016 30.6127C205.709 30.6415 205.697 31.1132 206.016 31.1006Z" fill="black"/>
<path d="M255.291 95.9302C257.743 97.5262 260.574 98.4422 263.496 98.5847C266.419 98.7273 269.326 98.0911 271.922 96.7412C272.279 96.5496 271.961 96.0054 271.604 96.1971C269.096 97.5254 266.286 98.1773 263.45 98.0884C260.614 97.9995 257.85 97.173 255.431 95.6903C255.279 95.5944 255.142 95.8324 255.29 95.9302H255.291Z" fill="black"/>
<path d="M274.415 95.716L274.88 95.4874C274.944 95.4496 274.991 95.3887 275.011 95.3173C275.031 95.2433 275.021 95.1645 274.982 95.098C274.945 95.0341 274.884 94.9872 274.812 94.9672L274.737 94.957C274.686 94.957 274.637 94.9704 274.593 94.9959L274.131 95.2305C274.084 95.2584 274.045 95.2998 274.021 95.3495C273.997 95.3992 273.987 95.4549 273.995 95.5097C274.002 95.5646 274.025 95.6161 274.061 95.6579C274.097 95.6996 274.145 95.7297 274.199 95.7445L274.273 95.7545C274.323 95.7546 274.372 95.7413 274.415 95.7161V95.716Z" fill="black"/>
<path d="M273.93 45.4064C278.053 47.4343 281.537 50.5605 283.998 54.441C286.664 58.6631 287.985 63.5951 287.787 68.5845C287.657 71.5249 287.03 74.4222 285.935 77.1542C285.812 77.4656 286.348 77.6947 286.48 77.3839C288.428 72.6981 288.898 67.5293 287.829 62.5687C286.76 57.6081 284.202 53.0921 280.497 49.6244C278.589 47.8267 276.413 46.3366 274.046 45.2077C273.914 45.1445 273.796 45.3411 273.93 45.4066L273.93 45.4064Z" fill="black"/>
<path d="M286.336 81.4363C286.052 81.6326 285.819 81.895 285.658 82.201C285.498 82.5069 285.414 82.8473 285.414 83.1929C285.414 83.3079 285.46 83.4182 285.541 83.4995C285.622 83.5809 285.733 83.6265 285.848 83.6265C285.963 83.6265 286.073 83.5809 286.154 83.4995C286.236 83.4182 286.281 83.3079 286.281 83.1929C286.281 83.1151 286.286 83.0374 286.296 82.9603L286.281 83.0755C286.302 82.9284 286.342 82.7845 286.399 82.6473L286.355 82.7509C286.414 82.6142 286.489 82.4852 286.579 82.3669L286.511 82.4547C286.598 82.343 286.699 82.2425 286.81 82.1553L286.722 82.2231C286.739 82.2103 286.756 82.1976 286.774 82.1853C286.869 82.1256 286.94 82.0336 286.973 81.9261C287.003 81.8133 286.987 81.6932 286.929 81.592C286.87 81.4937 286.775 81.4223 286.664 81.3933C286.553 81.3642 286.436 81.3797 286.336 81.4364V81.4363Z" fill="black"/>
<path d="M290.07 33.8141C290.132 32.7571 290.004 31.6081 289.341 30.7417C289.086 30.4127 288.761 30.1445 288.39 29.9566C288.018 29.7687 287.609 29.6658 287.193 29.6554C285.207 29.5743 283.326 31.1452 282.467 32.8336C281.786 34.1716 281.895 35.7363 283.076 36.7522C283.638 37.2112 284.298 37.5353 285.005 37.6995C285.712 37.8637 286.447 37.8637 287.153 37.6995C287.953 37.5304 288.679 37.113 289.228 36.507C289.856 35.7478 290.208 34.7989 290.229 33.8141C290.256 33.2852 289.444 33.291 289.409 33.8141C289.378 34.5082 289.149 35.1789 288.748 35.7464C288.396 36.1987 287.922 36.5406 287.382 36.7316C286.838 36.921 286.259 36.9918 285.685 36.9394C285.111 36.887 284.555 36.7126 284.054 36.4277C283.583 36.1885 283.211 35.7904 283.005 35.3039C282.798 34.8173 282.77 34.2734 282.925 33.7682C283.201 32.9406 283.686 32.1982 284.332 31.6125C284.933 31.0032 285.69 30.5708 286.521 30.3628C286.894 30.2635 287.287 30.2573 287.664 30.3445C288.04 30.4317 288.39 30.6098 288.682 30.8632C289.47 31.6066 289.605 32.7898 289.568 33.8141C289.556 34.138 290.051 34.1344 290.07 33.8141Z" fill="black"/>
<path d="M244.5 121.734C245.889 123.117 248.049 122.313 249.141 120.985C249.756 120.197 250.255 119.325 250.624 118.396C250.965 117.588 251.025 116.476 249.961 116.226C248.338 115.846 247.419 118.041 248.186 119.251C249.31 121.024 251.724 120.564 253.227 119.641C253.739 119.32 254.234 118.971 254.709 118.597C255.156 118.296 255.513 117.881 255.744 117.395C255.833 117.2 255.876 116.987 255.87 116.772C255.863 116.558 255.807 116.348 255.707 116.158C255.606 115.969 255.463 115.805 255.288 115.68C255.114 115.555 254.913 115.471 254.701 115.436C254.422 115.4 254.287 115.715 254.323 115.933C254.488 116.745 254.824 117.513 255.308 118.186C255.792 118.858 256.413 119.421 257.131 119.835C258.793 120.875 260.792 121.157 262.717 121.197C265.006 121.245 267.31 121.097 269.595 120.977C271.915 120.854 274.232 120.694 276.547 120.495C279.192 120.268 281.833 119.994 284.468 119.671C284.987 119.609 284.99 118.785 284.468 118.851C280.056 119.411 275.628 119.822 271.185 120.086C269.005 120.218 266.822 120.317 264.638 120.382C262.643 120.439 260.561 120.462 258.671 119.725C256.925 119.045 255.406 117.624 255.08 115.725L254.701 116.222C254.959 116.253 255.082 116.584 255.087 116.808C255.069 116.985 255.016 117.156 254.93 117.312C254.843 117.467 254.726 117.603 254.586 117.712C254.071 118.177 253.514 118.592 252.921 118.952C251.85 119.633 250.362 120.161 249.214 119.325C248.981 119.17 248.801 118.949 248.696 118.69C248.591 118.431 248.567 118.147 248.626 117.874C248.73 117.4 249.11 116.834 249.659 116.863C250.685 116.916 250.012 118.215 249.779 118.709C249.495 119.363 249.136 119.983 248.711 120.555C247.844 121.647 246.07 122.494 244.888 121.346C244.634 121.1 244.248 121.485 244.499 121.734L244.5 121.734Z" fill="black"/>
<path d="M248.497 130.665C249.736 131.003 251.048 130.96 252.262 130.543C253.476 130.126 254.537 129.354 255.308 128.326C255.342 128.267 255.356 128.198 255.348 128.13C255.339 128.062 255.308 127.998 255.259 127.95C254.749 127.508 254.115 127.234 253.444 127.165C252.773 127.097 252.097 127.237 251.508 127.566C251.463 127.594 251.425 127.631 251.397 127.675C251.368 127.718 251.35 127.768 251.344 127.82C251.337 127.872 251.342 127.925 251.358 127.974C251.375 128.024 251.402 128.069 251.438 128.107C252.001 128.734 252.746 129.169 253.569 129.351C254.67 129.677 255.796 129.94 256.921 130.169C259.144 130.62 261.395 130.924 263.658 131.08C265.982 131.241 268.314 131.242 270.639 131.083C272.923 130.927 275.181 130.577 277.443 130.237C280.077 129.841 282.728 129.505 285.396 129.656C285.936 129.686 285.935 128.845 285.396 128.816C280.87 128.567 276.449 129.72 271.974 130.161C267.494 130.605 262.974 130.448 258.535 129.696C257.277 129.482 256.028 129.224 254.786 128.921C253.776 128.674 252.613 128.475 251.925 127.62L251.855 128.161C252.315 127.897 252.844 127.777 253.373 127.818C253.901 127.859 254.406 128.058 254.82 128.389L254.771 128.013C254.086 128.955 253.133 129.67 252.035 130.064C250.938 130.458 249.748 130.513 248.62 130.221C248.562 130.207 248.5 130.217 248.449 130.247C248.398 130.277 248.36 130.327 248.344 130.384C248.328 130.442 248.335 130.503 248.364 130.556C248.392 130.608 248.44 130.647 248.497 130.665H248.497Z" fill="black"/>
<path d="M253.194 139.236C259.818 139.842 266.476 139.971 273.118 139.621C273.533 139.595 273.539 138.952 273.118 138.97C266.479 139.312 259.826 139.249 253.194 138.782C252.903 138.759 252.905 139.212 253.194 139.236Z" fill="black"/>
<path d="M278.394 139.342L279.322 138.65C279.403 138.599 279.463 138.521 279.492 138.429C279.518 138.333 279.504 138.231 279.455 138.145C279.406 138.062 279.327 138.001 279.234 137.975C279.187 137.961 279.137 137.958 279.088 137.964C279.039 137.97 278.992 137.987 278.949 138.012L278.024 138.71C277.944 138.761 277.885 138.838 277.856 138.929C277.831 139.024 277.844 139.125 277.893 139.211C277.942 139.293 278.02 139.353 278.112 139.379C278.159 139.393 278.208 139.396 278.257 139.39C278.305 139.384 278.352 139.367 278.394 139.342L278.394 139.342Z" fill="black"/>
<path d="M279.391 9.36025C282.455 9.80388 285.543 10.0607 288.638 10.1293C288.734 10.1251 288.825 10.084 288.891 10.0145C288.958 9.94512 288.995 9.85274 288.995 9.75665C288.995 9.66056 288.958 9.56818 288.891 9.49875C288.825 9.42933 288.734 9.38822 288.638 9.38399C285.569 9.42607 282.5 9.26698 279.452 8.90774C279.197 8.87726 279.134 9.32355 279.391 9.36025Z" fill="black"/>
<path d="M280.736 15.9478C282.519 16.0479 284.301 16.1457 286.083 16.2548C286.43 16.276 286.434 15.7217 286.083 15.7128C284.301 15.6669 282.519 15.6097 280.736 15.5548C280.482 15.547 280.485 15.9337 280.736 15.9479V15.9478Z" fill="black"/>
<path d="M7.56745 56.1445C1.40685 70.6687 -0.921206 87.0916 2.78459 102.427C5.51258 113.716 11.6864 124.297 20.5457 131.863C23.7351 134.587 27.0641 137.055 30.2333 139.784C31.9184 141.236 33.9397 142.602 36.1585 142.452C38.3773 142.301 40.4521 139.847 39.4296 137.872C40.2184 138.19 41.0962 138.21 41.8987 137.928C42.7012 137.646 43.3734 137.081 43.7892 136.339C44.2051 135.597 44.3362 134.729 44.158 133.897C43.9798 133.065 43.5045 132.327 42.8211 131.82C43.7438 131.944 44.6816 131.759 45.4879 131.294C46.2943 130.829 46.9237 130.109 47.2779 129.249C47.6321 128.388 47.6911 127.434 47.4456 126.535C47.2001 125.637 46.6641 124.846 45.9211 124.285C47.2316 124.646 48.6838 124.995 49.9018 124.392C52.2608 123.224 51.8075 119.622 50.2917 117.47C48.7758 115.318 46.5099 113.482 46.1243 110.878C48.9516 111.954 52.1591 108.989 51.9857 105.968C51.6282 99.7412 44.1429 100.215 40.111 97.8445C37.5646 96.3472 35.2186 93.9252 35.1417 90.9722" fill="white"/>
<path d="M97.3596 3.32179C67.374 -1.33034 37.3146 11.5321 18.761 35.2854C0.540547 58.6123 -7.43419 93.1252 8.74543 119.653C10.8695 123.148 13.3738 126.397 16.2127 129.341C19.3062 132.536 22.8621 135.214 26.3136 138.002C29.1162 140.266 32.3212 143.967 36.3088 143.57C39.1338 143.289 41.6479 140.412 40.5292 137.568L39.1251 138.973C43.9995 140.499 47.521 134.407 43.6293 131.011L42.82 132.965C43.9551 133.052 45.0886 132.777 46.0579 132.18C47.0272 131.583 47.7827 130.694 48.2159 129.642C48.6491 128.589 48.7378 127.426 48.4694 126.32C48.201 125.213 47.5891 124.221 46.7216 123.483L45.6186 125.378C49.1134 126.293 52.8283 125.335 52.6679 121.067C52.5026 116.667 48.0363 114.631 47.1974 110.581L45.827 111.952C48.6928 112.798 51.5792 111.043 52.6621 108.334C53.1222 107.094 53.1938 105.743 52.8672 104.462C52.5407 103.18 51.8316 102.028 50.8343 101.16C48.9456 99.5053 46.3516 98.9183 44.013 98.2058C40.5723 97.1575 36.554 95.0131 36.2416 90.9721C36.133 89.5683 33.9304 89.5562 34.0396 90.9721C34.4579 96.4037 39.3777 99.1253 44.0504 100.519C46.0102 101.104 48.4266 101.634 49.8301 103.257C52.0365 105.808 50.1932 110.926 46.4194 109.803C46.2299 109.755 46.0312 109.757 45.8426 109.808C45.654 109.86 45.4821 109.96 45.3439 110.098C45.2056 110.237 45.1057 110.409 45.054 110.597C45.0023 110.786 45.0006 110.984 45.049 111.174C45.6346 114.03 47.7631 115.729 49.3219 118.037C50.0626 119.049 50.4483 120.277 50.4189 121.531C50.2298 123.892 48.0378 123.672 46.2214 123.192C45.1777 122.916 44.2381 124.314 45.1184 125.087C47.5905 127.255 46.118 130.882 42.8199 130.676C41.8537 130.615 41.277 131.987 42.0106 132.63C44.1252 134.482 42.4983 137.635 39.7318 136.771C38.9589 136.53 38.0058 137.359 38.3277 138.175C39.1461 140.251 36.8028 141.565 35.0089 141.216C32.9809 140.822 31.4411 139.306 29.9106 138.028C27.0864 135.668 24.1378 133.46 21.3447 131.063C16.2589 126.675 12.0324 121.381 8.88035 115.449C2.10861 102.78 0.673187 87.936 3.22862 73.9217C8.02888 47.5963 25.9528 23.8689 50.0173 12.1564C64.454 5.12979 81.0741 2.35644 96.9813 4.69384C97.8746 4.82512 98.266 3.4625 97.3596 3.32179Z" fill="black"/>
<path d="M39.0174 116.639C39.4675 117.558 40.1433 118.347 40.9816 118.933C41.0568 118.976 41.1459 118.988 41.2295 118.965C41.3132 118.943 41.3846 118.888 41.4283 118.814C41.472 118.739 41.4844 118.65 41.4629 118.566C41.4414 118.482 41.3876 118.41 41.3133 118.366C40.5488 117.86 39.9242 117.17 39.4972 116.358C39.4597 116.295 39.3988 116.25 39.3278 116.231C39.2568 116.213 39.1814 116.224 39.1181 116.261C39.0548 116.298 39.0087 116.358 38.9898 116.429C38.971 116.5 38.9809 116.575 39.0174 116.639V116.639Z" fill="black"/>
<path d="M34.9801 123.199L36.276 124.867C36.3115 124.902 36.3537 124.93 36.4001 124.95C36.4466 124.969 36.4964 124.979 36.5467 124.979C36.6224 124.979 36.6964 124.956 36.7594 124.914C36.8223 124.872 36.8714 124.813 36.9004 124.743C36.9293 124.673 36.9369 124.596 36.9221 124.521C36.9074 124.447 36.8709 124.379 36.8174 124.325L35.4113 122.768C35.3538 122.711 35.2764 122.68 35.1957 122.68C35.115 122.68 35.0375 122.711 34.9801 122.768C34.9251 122.826 34.8945 122.904 34.8945 122.984C34.8945 123.064 34.9251 123.141 34.9801 123.199V123.199Z" fill="black"/>
<path d="M29.3064 129.144L30.6434 130.231C30.7163 130.3 30.8117 130.339 30.9117 130.342C31.0122 130.341 31.1084 130.302 31.18 130.231C31.251 130.16 31.2909 130.063 31.2912 129.963C31.2919 129.913 31.2824 129.863 31.2633 129.817C31.2442 129.771 31.2158 129.729 31.18 129.694L29.8238 128.627C29.7534 128.561 29.6614 128.523 29.5651 128.52C29.4927 128.52 29.422 128.541 29.3618 128.581C29.3016 128.621 29.2548 128.679 29.2271 128.745C29.1994 128.812 29.1921 128.886 29.2062 128.957C29.2204 129.028 29.2552 129.093 29.3064 129.144V129.144Z" fill="black"/>
<path d="M59.1198 13.363C59.9474 13.1316 60.7455 12.7404 61.5525 12.4427C62.3381 12.1529 63.1291 11.8783 63.9255 11.6191C65.578 11.0814 67.2498 10.6099 68.9409 10.2046C72.2903 9.39321 75.6993 8.8511 79.1352 8.58351C81.0831 8.43249 83.0409 8.3692 84.9937 8.31361C85.0736 8.31088 85.1493 8.2772 85.2049 8.21968C85.2605 8.16216 85.2916 8.0853 85.2916 8.00531C85.2916 7.92532 85.2605 7.84846 85.2049 7.79094C85.1493 7.73343 85.0736 7.69975 84.9937 7.69701C81.5164 7.58938 78.0371 7.82757 74.607 8.40806C71.1413 8.94902 67.7259 9.77435 64.3956 10.8757C63.4821 11.1784 62.5756 11.5012 61.6762 11.8443C60.742 12.1513 59.8339 12.5329 58.9608 12.9854C58.919 13.0115 58.8878 13.0517 58.873 13.0987C58.8581 13.1458 58.8604 13.1966 58.8796 13.242C58.8988 13.2875 58.9335 13.3246 58.9776 13.3468C59.0216 13.369 59.0721 13.3748 59.1201 13.3631L59.1198 13.363Z" fill="black"/>
<path d="M74.9086 14.5575L79.6584 13.2286C79.7397 13.203 79.8078 13.1469 79.8486 13.0721C79.8893 12.9973 79.8994 12.9095 79.8767 12.8274C79.8541 12.7453 79.8005 12.6752 79.7272 12.6318C79.6538 12.5884 79.5666 12.5752 79.4837 12.5948L74.7482 13.9762C74.6732 13.9992 74.6101 14.0506 74.5723 14.1195C74.5346 14.1883 74.5251 14.2692 74.546 14.3449C74.5669 14.4205 74.6165 14.4851 74.6842 14.5249C74.7519 14.5646 74.8324 14.5764 74.9087 14.5577L74.9086 14.5575Z" fill="black"/>
<path d="M8.99365 20.4439C9.93152 19.1404 10.8163 17.8061 11.8026 16.5367C12.7315 15.3412 13.7044 14.1815 14.7214 13.0578C16.7947 10.7692 19.0269 8.62985 21.4014 6.65552C21.7247 6.38639 21.2626 5.93468 20.9414 6.19555C18.4973 8.17899 16.2187 10.3582 14.1283 12.7115C12.0169 15.0061 10.129 17.4968 8.49048 20.1498C8.29616 20.479 8.77863 20.7428 8.99365 20.4439Z" fill="black"/>
</svg>
