<svg width="81" height="33" viewBox="0 0 81 33" fill="none" xmlns="http://www.w3.org/2000/svg">
<path d="M75.5763 13.4219H70.1953V18.7686H75.5763V13.4219Z" fill="white"/>
<path d="M81.0029 32.1525V26.7916H64.8171V5.37648H81.0029V0.015625H59.4219V32.2091L81.0029 32.1525Z" fill="white"/>
<path d="M56.7014 21.4439C56.7014 21.4439 56.6445 32.208 45.0283 32.208C39.2487 32.208 29.7109 31.2744 29.7109 16.1537C29.7109 -1.41405 45.8967 0.0287157 45.8967 0.0287157V5.41786C45.8967 5.41786 35.1489 4.59747 35.1489 16.1537C35.1489 26.7906 40.4587 26.833 45.0141 26.833C51.2492 26.833 51.292 21.458 51.292 21.458L56.7014 21.4439Z" fill="white"/>
<path d="M10.8047 0.0158344V5.40498C10.8047 5.40498 21.5953 4.57044 21.5953 16.1267C21.5953 24.953 15.3601 26.806 10.7905 26.806C9.13919 26.806 5.43796 26.8484 5.43796 26.8484V13.425H0L0.0427065 32.181H5.42373C5.42373 32.181 9.16766 32.1951 10.7763 32.181C16.5559 32.1527 27.0047 30.3987 27.0047 16.1267C27.019 -0.875284 10.8047 0.0158344 10.8047 0.0158344Z" fill="white"/>
<path d="M5.41227 0.03125H0.03125V5.37796H5.41227V0.03125Z" fill="white"/>
<path d="M51.3377 5.40625L56.7188 5.40625L56.7188 0.0595379L51.3377 0.0595379L51.3377 5.40625Z" fill="white"/>
</svg>
