<svg width="354" height="277" viewBox="0 0 354 277" fill="none" xmlns="http://www.w3.org/2000/svg">
<path d="M195.827 194.295C198.77 200.877 195.774 208.959 190.389 213.662C187.5 216.3 183.835 217.915 179.946 218.261C174.966 218.57 170.025 216.192 166.565 212.541C160.783 206.294 159.176 197.209 162.469 189.375C166.023 181.642 173.864 176.869 182.318 177.294C186.601 177.589 191.063 179.562 193.111 183.391" fill="#FF6739"/>
<path d="M196.256 194.194C200.048 203.575 193.982 214.139 185.12 217.773C175.578 221.672 165.462 215.427 161.762 206.296C157.906 197.085 160.842 186.441 168.842 180.627C176.137 175.387 188.346 174.426 193.666 183.081C194.097 183.799 193.013 184.398 192.59 183.711C187.493 175.521 175.809 177.026 169.177 182.122C162.35 187.427 159.744 196.61 162.74 204.808C165.779 213.258 174.556 219.703 183.58 216.859C192.605 214.016 198.916 203.628 195.417 194.418C195.218 193.888 196.045 193.683 196.256 194.194Z" fill="#FF6739"/>
<path d="M197.339 193.404C201.904 203.762 195.679 215.669 185.664 219.771C175.261 224.025 164.09 217.321 159.933 207.379C155.71 197.279 158.511 185.639 167.32 179.159C175.586 173.084 189.308 172.292 195.246 182.116C196.927 184.909 192.677 187.39 190.979 184.652C186.497 177.556 176.083 179.338 170.433 183.728C164.331 188.576 162.056 196.869 164.806 204.239C167.471 211.663 175.164 217.172 183.038 214.804C191.172 212.358 197.073 203.089 194.198 194.729C193.565 192.889 196.566 191.593 197.37 193.395L197.339 193.404Z" fill="black"/>
<path d="M189.451 191.003C191.641 196.594 192.115 203.13 187.471 207.617C184.122 210.841 177.696 212.121 174.092 208.609C172.62 207.177 174.797 205.085 176.275 206.357C179.33 208.99 183.959 204.664 185.41 202.141C187.08 198.943 187.551 195.239 186.736 191.705C186.536 190.957 186.973 190.191 187.712 189.993C188.452 189.794 189.213 190.24 189.414 190.988L189.451 191.003Z" fill="white"/>
<path d="M168.576 205.332L168.539 205.192C168.398 204.957 168.326 204.688 168.33 204.414C168.331 204.155 168.4 203.901 168.529 203.677L168.753 203.375C168.935 203.188 169.164 203.055 169.416 202.989C169.606 202.927 169.809 202.919 170.003 202.965C170.193 202.975 170.377 203.035 170.536 203.139C170.76 203.268 170.946 203.454 171.077 203.678C171.217 203.913 171.289 204.183 171.285 204.456L171.323 204.596L171.276 204.976C171.235 205.16 171.147 205.33 171.021 205.469C170.96 205.579 170.87 205.67 170.761 205.731C170.619 205.864 170.445 205.956 170.256 206L169.872 206.044L169.504 205.993C169.322 205.947 169.153 205.858 169.013 205.732C168.852 205.631 168.722 205.487 168.638 205.316L168.576 205.332Z" fill="white"/>
<path d="M168.995 195.772L169.133 195.735C169.348 195.602 169.596 195.536 169.849 195.543C170.09 195.545 170.326 195.611 170.535 195.734L170.815 195.951C170.993 196.125 171.121 196.345 171.184 196.586C171.241 196.765 171.249 196.956 171.208 197.138C171.197 197.319 171.142 197.495 171.048 197.648C170.925 197.855 170.753 198.027 170.547 198.149C170.332 198.282 170.084 198.348 169.832 198.341L169.693 198.378L169.342 198.33C169.172 198.288 169.013 198.204 168.881 198.087C168.782 198.024 168.699 197.937 168.641 197.835C168.515 197.703 168.428 197.538 168.39 197.36L168.34 196.99L168.387 196.643C168.425 196.47 168.508 196.31 168.626 196.179C168.723 196.03 168.854 195.907 169.007 195.819L168.995 195.772Z" fill="white"/>
<path d="M177.866 191.892L177.699 191.762L177.445 191.43C177.337 191.24 177.28 191.026 177.279 190.808C177.243 190.67 177.244 190.526 177.282 190.39C177.292 190.183 177.355 189.982 177.464 189.807L177.713 189.474L178.033 189.221C178.22 189.113 178.432 189.056 178.648 189.056C178.852 189.011 179.065 189.02 179.265 189.083L179.462 189.172C179.732 189.246 179.978 189.39 180.176 189.589C180.38 189.786 180.527 190.035 180.6 190.31L180.658 190.744C180.656 191.027 180.583 191.305 180.446 191.551C180.348 191.74 180.203 191.899 180.026 192.014C179.868 192.162 179.673 192.263 179.461 192.307C179.191 192.377 178.907 192.376 178.636 192.303C178.368 192.225 178.123 192.082 177.922 191.886L177.866 191.892Z" fill="white"/>
<path d="M171.486 190.664C171.306 189.994 171.698 189.306 172.361 189.129C173.023 188.951 173.706 189.35 173.886 190.021C174.065 190.691 173.674 191.378 173.011 191.556C172.348 191.734 171.665 191.334 171.486 190.664Z" fill="white"/>
<path d="M295.936 25.7771C298.871 32.3616 295.875 40.4435 290.498 45.1446C287.609 47.7828 283.944 49.3968 280.055 49.7437C275.076 50.0524 270.135 47.6742 266.667 44.0257C260.904 37.7774 259.301 28.7104 262.577 20.8827C266.135 13.1531 273.971 8.38018 282.423 8.79427C286.709 9.09669 291.171 11.0697 293.217 14.8907" fill="#FF6739"/>
<path d="M296.337 25.677C300.129 35.0587 294.063 45.6225 285.199 49.2485C275.659 53.1554 265.543 46.9108 261.843 37.7797C257.985 28.5779 260.908 17.9408 268.893 12.1186C276.187 6.87884 288.396 5.91722 293.709 14.5745C293.85 14.8698 293.744 15.224 293.464 15.3882C293.185 15.5525 292.826 15.4717 292.64 15.2027C287.544 7.01281 275.86 8.51755 269.228 13.6132C262.401 18.9186 259.795 28.1018 262.791 36.3001C265.828 44.7417 274.606 51.1946 283.629 48.3434C292.652 45.4922 298.997 35.1118 295.499 25.9017C295.299 25.3716 296.126 25.1666 296.337 25.677Z" fill="#FF6739"/>
<path d="M297.433 24.8914C302.006 35.248 295.781 47.1552 285.765 51.2563C275.361 55.5035 264.192 48.8072 260.028 38.8666C255.804 28.7667 258.611 17.1167 267.42 10.6373C275.688 4.56965 289.41 3.77792 295.348 13.6016C297.026 16.3872 292.777 18.8682 291.081 16.1376C286.581 9.00519 276.183 10.8158 270.534 15.2142C264.433 20.0619 262.158 28.3546 264.908 35.7246C267.565 43.1505 275.258 48.6602 283.14 46.2898C291.274 43.8436 297.175 34.5745 294.293 26.2166C293.657 24.369 296.667 23.0789 297.464 24.8832L297.433 24.8914Z" fill="black"/>
<path d="M289.56 22.481C291.751 28.0725 292.224 34.6079 287.579 39.0878C284.232 42.3194 277.798 43.6014 274.202 40.0875C272.73 38.6558 274.906 36.5634 276.385 37.8349C279.44 40.4682 284.071 36.1505 285.522 33.6271C287.192 30.4291 287.663 26.7247 286.848 23.191C286.648 22.4434 287.085 21.6768 287.824 21.4787C288.563 21.2806 289.325 21.7261 289.525 22.4737L289.56 22.481Z" fill="white"/>
<path d="M192.617 71.7499C198.531 75.8186 200.189 84.313 198.07 91.176C196.989 94.9614 194.721 98.2843 191.604 100.646C187.539 103.537 182.146 104.148 177.282 102.858C169.132 100.583 163.049 93.6792 161.762 85.2457C160.764 76.7567 164.933 68.5272 172.321 64.4059C176.11 62.3902 180.924 61.709 184.649 63.8877" fill="#FF6739"/>
<path d="M192.833 71.3713C200.747 77.2137 201.364 88.9304 196.185 96.805C190.335 105.743 178.063 106.097 169.899 100.03C162.039 94.3187 158.955 83.9945 162.391 74.9007C165.721 66.3123 175.719 58.672 184.937 63.348C185.653 63.7146 185.036 64.7971 184.314 64.4403C175.371 59.9576 165.94 68.2381 163.272 76.4989C160.605 84.7597 163.846 93.6884 170.697 98.8235C178.401 104.589 189.868 104.184 195.306 95.6149C199.944 88.3101 199.488 77.5927 192.294 72.0662C191.899 71.7633 192.41 71.0845 192.81 71.3775L192.833 71.3713Z" fill="#FF6739"/>
<path d="M193.483 70.2463C202.324 76.3489 203.527 89.1173 197.964 97.8623C191.586 107.909 177.986 108.602 168.838 101.906C160.07 95.492 156.442 84.0152 160.61 73.8765C164.542 64.3015 175.699 56.4925 185.867 61.731C188.739 63.2209 186.249 67.4652 183.38 66.0827C175.624 62.2743 167.49 70.0737 165.258 77.0671C163.007 84.498 165.709 92.5773 171.974 97.1469C178.7 102.157 188.617 101.934 193.551 94.5923C197.973 87.9875 197.809 78.2675 191.418 73.0009C189.893 71.7418 191.87 69.1193 193.498 70.2422L193.483 70.2463Z" fill="black"/>
<path d="M185.231 72.1125C189.774 75.5564 193.589 80.2543 192.675 86.3525C191.895 91.5644 186.983 96.4659 181.557 95.4768C179.824 95.1655 180.207 92.1614 181.97 92.3726C186.442 92.9086 188.173 86.7833 187.84 83.2953C187.422 79.9153 185.922 76.7597 183.569 74.309C182.556 73.2046 183.905 71.1005 185.229 72.1047L185.231 72.1125Z" fill="white"/>
<path d="M175.223 95.6238L175.093 95.5417C174.637 95.2688 174.356 94.7727 174.357 94.2382L174.403 93.8588C174.474 93.6115 174.603 93.3854 174.779 93.1995C175.065 92.9285 175.441 92.7744 175.834 92.7668C176.09 92.7633 176.342 92.8313 176.563 92.9634C176.785 93.0942 176.971 93.2797 177.103 93.5024L177.185 93.6223L177.341 93.989C177.396 94.1742 177.404 94.3706 177.361 94.5588C177.364 94.685 177.332 94.8092 177.268 94.9174C177.212 95.0978 177.111 95.26 176.973 95.3882L176.68 95.6168L176.318 95.7723C176.133 95.8326 175.935 95.8394 175.746 95.7921C175.561 95.7795 175.381 95.7217 175.223 95.6238Z" fill="white"/>
<path d="M170.63 87.2148L170.71 87.0848C170.831 86.8748 171.002 86.6996 171.209 86.576C171.424 86.4515 171.668 86.3862 171.917 86.3864L172.277 86.4399C172.508 86.5035 172.719 86.6248 172.891 86.7923C173.025 86.9204 173.124 87.0801 173.181 87.2568C173.274 87.4204 173.323 87.6053 173.324 87.7936C173.326 88.0373 173.262 88.2764 173.139 88.4854C173.023 88.6987 172.85 88.8749 172.64 88.9942L172.524 89.0837L172.19 89.2231C172.016 89.2799 171.83 89.2866 171.651 89.2424C171.535 89.2427 171.42 89.2098 171.321 89.1476C171.152 89.0958 171 88.9979 170.882 88.8648L170.66 88.5907L170.518 88.2452C170.463 88.0715 170.456 87.8857 170.498 87.7087C170.506 87.531 170.559 87.3586 170.653 87.2086L170.63 87.2148Z" fill="white"/>
<path d="M176.485 79.2638L176.272 79.2375C176.064 79.2461 175.858 79.1977 175.674 79.0976C175.476 79.0355 175.298 78.9223 175.157 78.7692L174.905 78.4447C174.797 78.2553 174.739 78.0407 174.739 77.8224C174.701 77.6863 174.7 77.543 174.734 77.4066C174.745 77.1959 174.81 76.9918 174.922 76.8144L175.165 76.4907C175.362 76.291 175.608 76.1474 175.878 76.0746L176.078 76.021C176.349 75.9513 176.633 75.9526 176.904 76.0249L177.286 76.1893C177.53 76.3315 177.732 76.5361 177.873 76.7823C177.986 76.9729 178.045 77.191 178.042 77.4125C178.091 77.6224 178.081 77.8414 178.014 78.0454C177.895 78.4547 177.631 78.8045 177.271 79.0282C177.02 79.178 176.733 79.255 176.441 79.2508L176.485 79.2638Z" fill="white"/>
<path d="M169.728 80.9607C169.548 80.2905 169.94 79.6032 170.603 79.4256C171.265 79.248 171.948 79.6474 172.128 80.3176C172.308 80.9879 171.916 81.6752 171.253 81.8528C170.59 82.0304 169.907 81.631 169.728 80.9607Z" fill="white"/>
<path d="M284.17 131.443C290.083 135.511 291.748 144.004 289.63 150.867C288.549 154.652 286.281 157.975 283.164 160.337C279.101 163.235 273.668 163.824 268.823 162.512C260.676 160.233 254.594 153.331 253.303 144.9C252.304 136.418 256.463 128.193 263.84 124.066C267.628 122.05 272.442 121.369 276.167 123.548" fill="#FF6739"/>
<path d="M284.411 131.074C292.325 136.917 292.942 148.633 287.763 156.508C281.875 165.457 269.641 165.8 261.477 159.733C253.616 154.024 250.528 143.701 253.961 134.606C257.299 126.015 267.29 118.377 276.507 123.053C277.231 123.418 276.607 124.502 275.892 124.143C266.942 119.663 257.518 127.941 254.85 136.202C252.183 144.463 255.417 153.394 262.275 158.527C270.01 164.284 281.446 163.887 286.88 155.302C291.518 147.998 291.055 137.282 283.868 131.754C283.481 131.449 283.992 130.77 284.392 131.063L284.411 131.074Z" fill="#FF6739"/>
<path d="M285.041 129.939C293.882 136.041 295.047 148.82 289.529 157.553C283.152 167.6 269.552 168.292 260.404 161.596C251.636 155.182 248.008 143.705 252.168 133.569C256.1 123.994 267.257 116.185 277.425 121.423C280.297 122.913 277.807 127.158 274.946 125.773C267.182 121.967 259.048 129.766 256.823 136.757C254.565 144.188 257.269 152.272 263.539 156.837C270.258 161.849 280.183 161.625 285.116 154.283C289.538 147.678 289.374 137.958 282.983 132.691C281.459 131.432 283.436 128.81 285.064 129.932L285.041 129.939Z" fill="black"/>
<path d="M276.778 131.816C281.321 135.26 285.135 139.957 284.222 146.056C283.442 151.268 278.53 156.169 273.104 155.18C271.371 154.869 271.754 151.865 273.517 152.076C277.989 152.612 279.72 146.486 279.395 142.996C278.974 139.616 277.472 136.461 275.116 134.012C274.111 132.906 275.452 130.804 276.776 131.808L276.778 131.816Z" fill="white"/>
<path d="M266.781 155.326L266.652 155.244C266.429 155.115 266.243 154.929 266.112 154.705C265.972 154.47 265.899 154.201 265.904 153.927L265.958 153.546C266.022 153.298 266.149 153.071 266.326 152.889C266.458 152.743 266.625 152.635 266.811 152.575C266.984 152.475 267.18 152.422 267.38 152.423C267.634 152.422 267.883 152.49 268.101 152.621C268.325 152.75 268.511 152.936 268.642 153.16L268.731 153.278L268.877 153.639C268.937 153.825 268.948 154.024 268.908 154.215C268.902 154.341 268.868 154.465 268.806 154.575C268.751 154.756 268.649 154.918 268.512 155.046L268.219 155.275L267.864 155.428C267.494 155.508 267.107 155.455 266.769 155.28L266.781 155.326Z" fill="white"/>
<path d="M262.2 146.887L262.281 146.757C262.395 146.546 262.565 146.37 262.772 146.25C262.989 146.125 263.236 146.059 263.487 146.058L263.848 146.112C264.076 146.176 264.285 146.298 264.454 146.466C264.592 146.591 264.695 146.751 264.751 146.929C264.844 147.092 264.894 147.277 264.895 147.466C264.889 147.708 264.825 147.946 264.709 148.157C264.59 148.368 264.418 148.544 264.211 148.666L264.094 148.756L263.753 148.897C263.581 148.953 263.397 148.959 263.222 148.914C263.103 148.916 262.986 148.883 262.884 148.822C262.716 148.767 262.565 148.67 262.445 148.539L262.231 148.263L262.089 147.917C262.035 147.744 262.025 147.56 262.061 147.383C262.068 147.203 262.124 147.029 262.223 146.881L262.2 146.887Z" fill="white"/>
<path d="M268.048 138.963L267.827 138.939C267.619 138.946 267.413 138.897 267.229 138.799C267.034 138.736 266.858 138.622 266.72 138.469L266.468 138.144C266.356 137.956 266.299 137.741 266.301 137.522C266.266 137.384 266.267 137.24 266.305 137.104C266.314 136.895 266.376 136.692 266.485 136.514L266.728 136.19C266.925 135.99 267.171 135.847 267.441 135.774L267.649 135.718C267.919 135.646 268.204 135.648 268.474 135.722L268.864 135.885C269.108 136.027 269.31 136.231 269.451 136.478C269.564 136.668 269.623 136.886 269.62 137.108C269.669 137.318 269.659 137.537 269.592 137.741C269.548 137.948 269.452 138.141 269.313 138.299C269.197 138.475 269.041 138.62 268.857 138.721C268.606 138.871 268.319 138.948 268.026 138.944L268.048 138.963Z" fill="white"/>
<path d="M261.293 140.65C261.174 140.006 261.564 139.38 262.19 139.212C262.815 139.045 263.466 139.391 263.685 140.008C263.804 140.652 263.414 141.278 262.788 141.446C262.163 141.613 261.512 141.267 261.293 140.65Z" fill="white"/>
<path d="M68.1647 234.659C61.6682 237.584 53.6399 234.515 48.9617 229.057C46.3315 226.126 44.7099 222.417 44.3407 218.488C44.0147 213.456 46.3344 208.482 49.9281 205.001C56.0849 199.2 65.0698 197.63 72.8473 200.994C80.5251 204.628 85.2973 212.57 84.9304 221.103C84.6627 225.428 82.7261 229.924 78.9537 231.968" fill="#FF6739"/>
<path d="M68.2686 235.087C58.999 238.864 48.5033 232.679 44.8625 223.707C40.9419 214.06 47.0671 203.872 56.0968 200.185C65.186 196.343 75.734 199.354 81.5415 207.45C86.7716 214.846 87.7925 227.179 79.2586 232.501C78.962 232.677 78.5788 232.577 78.4027 232.276C78.2265 231.976 78.3242 231.589 78.6208 231.413C86.7104 226.31 85.1546 214.504 80.0709 207.778C74.7736 200.857 65.6634 198.179 57.5617 201.16C49.2168 204.171 42.8757 213 45.7501 222.127C48.6244 231.254 58.94 237.72 68.0413 234.239C68.5729 234.039 68.7806 234.875 68.2686 235.087Z" fill="#FF6739"/>
<path d="M69.0441 236.169C58.8114 240.72 46.9843 234.367 42.8743 224.229C38.6021 213.7 45.1708 202.46 55.0016 198.316C64.98 194.108 76.5232 197.002 82.9895 205.934C89.0449 214.317 89.9082 228.186 80.2109 234.119C77.4638 235.806 74.9808 231.493 77.6832 229.794C84.6828 225.3 82.8599 214.774 78.4723 209.045C73.6374 202.855 65.4122 200.509 58.1267 203.24C50.7896 205.89 45.3842 213.626 47.7739 221.59C50.2422 229.817 59.447 235.831 67.7099 232.975C69.5361 232.344 70.8307 235.39 69.0483 236.185L69.0441 236.169Z" fill="black"/>
<path d="M71.3992 228.231C65.8684 230.421 59.3969 230.855 54.9342 226.139C51.7151 222.74 50.4191 216.242 53.869 212.624C55.2785 211.146 57.3629 213.356 56.1121 214.842C53.5235 217.92 57.8331 222.619 60.3305 224.092C63.5103 225.795 67.1835 226.29 70.6808 225.488C71.42 225.29 72.1817 225.735 72.382 226.483C72.5823 227.231 72.1455 227.997 71.4062 228.195L71.3992 228.231Z" fill="white"/>
<path d="M57.0448 207.074L57.1833 207.037C57.6401 206.764 58.2091 206.765 58.668 207.04L58.9682 207.268C59.1586 207.453 59.2955 207.688 59.3642 207.945C59.4216 208.135 59.4302 208.337 59.3891 208.531C59.3807 208.724 59.3194 208.91 59.2121 209.07C58.9517 209.537 58.4594 209.822 57.9275 209.814L57.789 209.852L57.4186 209.792C57.238 209.75 57.0703 209.663 56.9304 209.54C56.8215 209.473 56.7311 209.38 56.668 209.268C56.5333 209.129 56.4407 208.954 56.4011 208.764L56.3451 208.371L56.4016 207.997C56.4427 207.815 56.5277 207.646 56.6492 207.505C56.7512 207.346 56.8926 207.216 57.0594 207.129L57.0448 207.074Z" fill="white"/>
<path d="M66.5649 207.551L66.6045 207.699C66.729 207.917 66.7951 208.164 66.7963 208.415C66.7978 208.659 66.7336 208.898 66.6106 209.107L66.3977 209.389C66.2259 209.567 66.0092 209.694 65.7708 209.757C65.4149 209.836 65.0421 209.785 64.7183 209.614C64.5073 209.494 64.3322 209.319 64.2116 209.108C64.0871 208.89 64.021 208.643 64.0198 208.392L63.9802 208.244L64.0276 207.898C64.0657 207.725 64.1478 207.565 64.266 207.434C64.3209 207.33 64.4037 207.244 64.5048 207.186C64.638 207.06 64.8026 206.973 64.9812 206.934L65.3399 206.887L65.6907 206.935C65.8614 206.978 66.0196 207.061 66.1517 207.179C66.2999 207.276 66.421 207.41 66.5034 207.568L66.5649 207.551Z" fill="white"/>
<path d="M70.4561 216.539L70.5842 216.371L70.9118 216.116C71.0963 216.009 71.306 215.953 71.5195 215.953C71.6563 215.914 71.8011 215.913 71.9389 215.949C72.1436 215.963 72.3421 216.027 72.5167 216.136L72.8407 216.392L73.0946 216.724C73.2058 216.909 73.263 217.122 73.2593 217.338C73.3083 217.546 73.2977 217.763 73.2289 217.963L73.1517 218.168C73.0758 218.438 72.9352 218.684 72.7423 218.886C72.5439 219.084 72.2985 219.227 72.0293 219.302L71.5993 219.359C71.3211 219.354 71.0482 219.278 70.8063 219.138C70.4474 218.903 70.1786 218.551 70.0445 218.141C69.9765 217.866 69.9789 217.579 70.0515 217.306C70.1273 217.036 70.2679 216.789 70.4609 216.587L70.4561 216.539Z" fill="white"/>
<path d="M70.7747 211.625C70.5951 210.955 70.9868 210.267 71.6496 210.09C72.3123 209.912 72.9952 210.311 73.1748 210.982C73.3544 211.652 72.9627 212.339 72.3 212.517C71.6372 212.694 70.9543 212.295 70.7747 211.625Z" fill="white"/>
<path d="M105.574 107.318C111.474 111.398 113.117 119.897 110.973 126.758C109.886 130.539 107.608 133.854 104.483 136.201C100.41 139.094 94.9836 139.672 90.1505 138.374C82.0144 136.07 75.9591 129.15 74.7011 120.718C73.7223 112.234 77.9061 104.021 85.2962 99.9186C89.0945 97.9086 93.9049 97.2451 97.6244 99.4336" fill="#FF6739"/>
<path d="M105.796 106.95C113.699 112.812 114.283 124.529 109.085 132.392C103.175 141.321 90.9477 141.629 82.7873 135.544C74.9426 129.81 71.8856 119.475 75.3462 110.389C78.7034 101.81 88.7181 94.199 97.9187 98.9045C98.643 99.269 98.0185 100.354 97.3019 99.987C88.37 95.4846 78.9149 103.738 76.2278 111.987C73.5408 120.237 76.7132 129.184 83.5833 134.331C91.2703 140.125 102.738 139.754 108.205 131.202C112.848 123.913 112.448 113.189 105.28 107.638C104.893 107.333 105.404 106.654 105.796 106.95Z" fill="#FF6739"/>
<path d="M106.454 105.817C115.277 111.941 116.463 124.706 110.872 133.442C104.494 143.489 90.8701 144.121 81.7349 137.413C72.9781 130.98 69.3791 119.487 73.5666 109.36C77.5196 99.8037 88.6935 91.9652 98.8572 97.2799C101.732 98.7775 99.2498 103.053 96.3784 101.63C88.6331 97.8014 80.4714 105.558 78.2218 112.548C75.9422 119.969 78.6174 128.059 84.8686 132.646C91.5781 137.686 101.503 137.495 106.472 130.193C110.909 123.609 110.783 113.879 104.403 108.593C102.879 107.334 104.853 104.703 106.484 105.834L106.454 105.817Z" fill="black"/>
<path d="M98.1721 107.675C102.709 111.129 106.51 115.839 105.585 121.923C104.789 127.139 99.8678 132.035 94.4373 131.031C92.7029 130.712 93.0873 127.715 94.8527 127.934C99.3346 128.476 101.075 122.356 100.754 118.849C100.344 115.466 98.8513 112.306 96.5035 109.848C95.498 108.742 96.845 106.63 98.1638 107.644L98.1721 107.675Z" fill="white"/>
<path d="M88.1131 131.147L87.9839 131.065C87.5272 130.792 87.2468 130.296 87.2471 129.762L87.2939 129.382C87.3648 129.135 87.4937 128.909 87.6696 128.723C87.9556 128.452 88.3313 128.298 88.7244 128.29C88.9803 128.287 89.2325 128.355 89.4532 128.487C89.6753 128.618 89.8612 128.803 89.9934 129.026L90.075 129.146L90.231 129.513C90.288 129.697 90.2951 129.894 90.2517 130.082C90.2543 130.209 90.2219 130.333 90.1582 130.441C90.1025 130.621 90.001 130.784 89.8638 130.912L89.5706 131.14L89.2082 131.296C89.0234 131.356 88.8254 131.363 88.6364 131.316C88.4509 131.305 88.2709 131.247 88.1131 131.147Z" fill="white"/>
<path d="M83.544 122.699L83.6246 122.569C83.7441 122.36 83.9169 122.187 84.1252 122.068C84.3372 121.936 84.5833 121.87 84.8329 121.879L85.1914 121.924C85.422 121.989 85.6318 122.114 85.7997 122.287C85.9382 122.408 86.0404 122.565 86.0947 122.741C86.1884 122.908 86.2387 123.095 86.2406 123.286C86.2343 123.526 86.1699 123.761 86.0528 123.97C85.9357 124.182 85.7634 124.358 85.5543 124.479L85.4381 124.568L85.0968 124.71C84.925 124.765 84.741 124.771 84.5655 124.727C84.4466 124.728 84.3296 124.696 84.2273 124.634C84.0608 124.577 83.9103 124.48 83.7888 124.351L83.5746 124.075L83.4326 123.73C83.3767 123.556 83.3697 123.37 83.4125 123.193C83.4155 123.015 83.4692 122.841 83.5671 122.693L83.544 122.699Z" fill="white"/>
<path d="M89.4458 114.804L89.2249 114.78C89.0172 114.787 88.811 114.739 88.6268 114.64C88.4338 114.572 88.2594 114.459 88.1177 114.31L87.8638 113.978C87.7563 113.791 87.6995 113.579 87.6991 113.363C87.6617 113.223 87.6622 113.076 87.7005 112.937C87.7126 112.731 87.7751 112.531 87.8825 112.355L88.1333 112.029C88.3303 111.83 88.5762 111.686 88.8462 111.613L89.0539 111.557C89.3264 111.494 89.6103 111.498 89.8816 111.569L90.2637 111.734C90.5076 111.876 90.7103 112.08 90.8513 112.327C90.964 112.517 91.0225 112.735 91.0202 112.957C91.0611 113.167 91.0514 113.384 90.9919 113.59C90.8595 113.992 90.5983 114.338 90.2493 114.572C89.9955 114.716 89.7099 114.792 89.4185 114.795L89.4458 114.804Z" fill="white"/>
<path d="M82.6575 116.469C82.4779 115.798 82.8696 115.111 83.5324 114.933C84.1952 114.756 84.878 115.155 85.0576 115.825C85.2372 116.496 84.8455 117.183 84.1828 117.361C83.52 117.538 82.8371 117.139 82.6575 116.469Z" fill="white"/>
<path d="M272.211 94.1828C263.494 96.5768 255.206 98.8144 246.845 102.38C244.404 103.426 242.204 99.8633 244.693 98.688C252.976 94.8008 262.641 91.6691 271.801 91.024C273.63 90.8927 273.901 93.7216 272.211 94.1828Z" fill="black"/>
<path d="M241.477 74.2589C241.252 72.9288 240.634 71.6964 239.705 70.723C238.281 69.2536 240.564 66.9742 241.888 68.4704C243.16 69.8703 243.995 71.6164 244.288 73.4889C244.471 74.2657 244.022 75.0478 243.266 75.2721C242.498 75.4688 241.712 75.0091 241.496 74.2371L241.477 74.2589Z" fill="black"/>
<path d="M218.432 82.8488L218.123 81.4808C217.899 80.818 218.058 80.0862 218.535 79.5824C219.012 79.0786 219.729 78.8865 220.395 79.0841C221.06 79.2816 221.563 79.8361 221.7 80.5223L222.125 81.8595C222.401 82.8906 221.798 83.948 220.779 84.2213C219.759 84.4945 218.709 83.88 218.432 82.8488Z" fill="black"/>
<path d="M238.123 164.602C229.697 164.358 221.117 160.737 213.863 156.619C211.187 155.093 213.596 150.854 216.229 152.466C223.337 156.807 230.74 158.926 238.547 161.445C240.226 161.987 239.984 164.654 238.123 164.602Z" fill="black"/>
<path d="M207.965 127.688C207.866 127.564 207.753 127.453 207.648 127.339C207.441 127.119 207.852 127.451 207.634 127.285C207.416 127.118 207.362 127.132 207.225 127.052C206.932 126.881 207.271 127.04 207.091 126.98L206.725 126.878C206.539 126.828 206.902 126.83 206.58 126.858C206.464 126.889 206.332 126.858 206.203 126.867C206.581 126.833 206.018 126.917 205.98 126.927C205.305 127.156 204.558 126.986 204.042 126.487C203.526 125.988 203.326 125.241 203.523 124.551C203.721 123.86 204.283 123.34 204.981 123.201C207.212 122.393 209.707 123.27 210.971 125.306C211.451 126.143 211.248 127.205 210.496 127.796C209.744 128.386 208.673 128.323 207.987 127.648L207.965 127.688Z" fill="black"/>
<path d="M179.319 132.731L177.005 134.802C176.275 135.545 175.083 135.547 174.343 134.806C173.602 134.065 173.593 132.862 174.323 132.118L176.63 130.049C177.359 129.303 178.552 129.299 179.295 130.04C180.037 130.78 180.048 131.985 179.319 132.731Z" fill="black"/>
<path d="M152.133 153.302C151.46 150.789 155.306 149.759 155.979 152.272C156.653 154.784 152.806 155.815 152.133 153.302Z" fill="black"/>
<path d="M121.757 221.762C124.149 216.594 127.945 211.808 130.997 207.013C132.245 205.053 135.375 206.89 134.106 208.831C130.921 213.712 128.03 219.265 124.223 223.67C122.957 225.101 121.045 223.288 121.75 221.765L121.757 221.762Z" fill="black"/>
<path d="M96.2479 193.869L96.7861 186.954C96.955 184.507 100.806 184.509 100.607 186.997L100.076 193.91C99.9074 196.357 96.0565 196.355 96.2479 193.869Z" fill="black"/>
<path d="M127.74 252.488L129.933 249.966C130.632 249.264 131.762 249.262 132.471 249.961C133.157 250.676 133.165 251.806 132.49 252.524L130.297 255.046C129.598 255.747 128.468 255.749 127.759 255.051C127.073 254.336 127.064 253.205 127.74 252.488Z" fill="black"/>
<path d="M151.182 237.857C151.937 236.485 153.067 235.364 154.438 234.625C155.25 234.145 156.297 234.422 156.777 235.245C157.257 236.067 156.988 237.123 156.176 237.603C155.305 238.039 154.588 238.734 154.121 239.596C153.053 241.55 150.056 239.81 151.188 237.88L151.182 237.857Z" fill="black"/>
<path d="M227.47 196.938C227.231 195.775 226.658 194.708 225.823 193.869C224.35 192.404 226.675 190.063 228.052 191.604C229.235 192.876 230.03 194.464 230.341 196.177C230.665 198.033 227.93 198.841 227.495 196.939L227.47 196.938Z" fill="black"/>
<path d="M120.504 162.725C114.577 162.145 108.665 161.62 102.751 160.903C100.673 160.626 100.629 157.352 102.763 157.564C108.698 158.175 114.597 158.988 120.511 159.738C122.354 159.969 122.415 162.905 120.486 162.721L120.504 162.725Z" fill="black"/>
<path d="M59.6496 156.898C59.788 156.719 59.9104 156.527 60.0154 156.325C59.8569 156.626 60.0892 156.047 60.1166 155.965C60.1568 155.745 60.1547 155.738 60.1166 155.965L60.1158 155.623C60.1036 155.393 60.1036 155.393 60.1158 155.623L60.0261 155.288C59.7545 154.274 60.347 153.235 61.3497 152.966C62.3523 152.697 63.3854 153.302 63.6571 154.315C64.0598 156.033 63.6233 157.837 62.4833 159.166C61.8338 159.801 60.8193 159.859 60.0968 159.302C59.3742 158.745 59.1606 157.74 59.5943 156.938L59.6496 156.898Z" fill="black"/>
<path d="M32.2014 178.659L31.264 176.976C30.9535 176.444 30.9468 175.787 31.2463 175.252C31.5458 174.717 32.106 174.386 32.716 174.383C33.3259 174.38 33.8929 174.706 34.2034 175.238L35.1017 176.898C35.4122 177.43 35.4189 178.087 35.1194 178.622C34.8199 179.157 34.2596 179.488 33.6497 179.491C33.0398 179.494 32.4728 179.168 32.1623 178.636L32.2014 178.659Z" fill="black"/>
<path d="M94.9961 256.385L90.0898 251.029C88.6775 249.482 91.0509 247.17 92.3269 248.762L96.9054 254.464C97.9993 255.839 96.2151 257.734 95.0023 256.408L94.9961 256.385Z" fill="black"/>
<path d="M151.428 99.0236C146.926 104.991 139.598 112.783 131.573 112.682C128.168 112.652 128.212 107.121 131.597 107.356C138.254 107.798 144.294 100.552 148.855 96.4362C150.622 94.8454 152.78 97.1771 151.42 98.9925L151.428 99.0236Z" fill="black"/>
<path d="M44.8653 130.484C37.1923 127.787 29.3218 125.677 21.6635 122.943C19.1834 122.056 20.129 118.292 22.7339 118.937C30.6032 120.889 38.2672 124.013 45.8007 126.989C47.9202 127.822 47.0863 131.264 44.8653 130.484Z" fill="black"/>
<path d="M281.359 78.4499C280.257 77.4405 278.931 76.7143 277.494 76.3337C275.333 75.7454 276.254 72.2885 278.403 72.9551C280.375 73.5623 282.176 74.6382 283.654 76.0922C285.188 77.5991 282.909 79.8941 281.344 78.454L281.359 78.4499Z" fill="black"/>
<path d="M289.977 103.442L290.507 101.85C290.616 101.255 291.046 100.775 291.62 100.605C292.195 100.436 292.816 100.607 293.229 101.048C293.642 101.489 293.777 102.125 293.578 102.695L293.046 104.28C292.77 105.07 291.936 105.51 291.132 105.289C290.328 105.068 289.824 104.26 289.975 103.435L289.977 103.442Z" fill="black"/>
<path d="M308.573 58.6021L301.351 61.9881C299.309 62.9522 297.488 59.8797 299.553 58.9095L306.775 55.5234C308.817 54.5594 310.638 57.6319 308.573 58.6021Z" fill="black"/>
<path d="M215.094 232.256C212.709 231.985 210.408 231.197 208.349 229.944C206.455 228.784 208.232 225.723 210.031 226.992C211.673 228.117 213.537 228.867 215.493 229.189C217.219 229.477 216.835 232.506 215.077 232.285L215.094 232.256Z" fill="black"/>
<path d="M267.139 171.599L261.77 173.104C259.616 173.681 258.694 170.268 260.862 169.712L266.261 168.324C268.346 167.765 269.219 171.025 267.139 171.599Z" fill="black"/>
<path d="M177.464 235.952C176.515 233.473 175.826 230.902 175.408 228.281C175.077 226.152 178.3 225.255 178.655 227.411C179.073 230.032 179.761 232.603 180.71 235.082C181.51 237.144 178.202 238.03 177.418 235.964L177.464 235.952Z" fill="black"/>
<path d="M139.149 188.943C136.435 187.369 133.825 185.617 131.337 183.699C130.641 183.267 130.247 182.474 130.321 181.655C130.395 180.836 130.925 180.133 131.686 179.844C132.447 179.555 133.307 179.729 133.904 180.293C136.363 182.255 138.695 184.377 140.882 186.644C141.385 187.166 141.436 187.978 141.001 188.554C140.567 189.13 139.779 189.295 139.149 188.943Z" fill="#FF6739"/>
<path d="M154.777 172.601L159.183 167.752C160.894 165.859 163.733 168.701 161.995 170.551L157.502 175.323C155.809 177.128 153.139 174.424 154.777 172.601Z" fill="#FF6739"/>
<path d="M174.365 163.575C176.815 162.419 179.618 162.265 182.19 163.146C184.467 163.953 183.506 167.629 181.209 166.811C179.616 166.183 177.849 166.197 176.273 166.849C175.372 167.346 174.24 167.046 173.69 166.165C173.172 165.258 173.468 164.103 174.355 163.569L174.365 163.575Z" fill="#FF6739"/>
<path d="M195.322 183.771C195.43 183.559 195.449 183.537 195.379 183.706C195.424 183.583 195.459 183.457 195.484 183.328C195.399 183.751 195.478 182.846 195.501 183.115C195.536 183.247 195.394 182.718 195.367 182.617C195.5 182.957 195.139 182.319 195.088 182.25C194.564 181.304 194.877 180.113 195.793 179.559C196.729 179.054 197.898 179.373 198.461 180.287C199.607 181.924 199.707 184.078 198.72 185.804C197.47 188.032 194.057 186.036 195.3 183.811L195.322 183.771Z" fill="#FF6739"/>
<path d="M211.159 214.598L211.203 209.5C211.221 207.168 214.839 207.191 214.792 209.539L214.704 214.657C214.657 216.946 211.148 216.927 211.167 214.629L211.159 214.598Z" fill="#FF6739"/>
<path d="M216.982 174.674C215.247 174.075 213.41 173.84 211.586 173.985C209.551 174.113 209.079 170.78 211.12 170.366C213.414 169.9 215.795 170.085 217.999 170.899C220.342 171.739 219.349 175.54 216.982 174.674Z" fill="#FF6739"/>
<path d="M107.094 208.653L108.751 206.775C109.484 206.04 110.669 206.038 111.413 206.771C112.128 207.522 112.137 208.705 111.432 209.459L109.775 211.337C109.042 212.072 107.857 212.074 107.113 211.341C106.397 210.59 106.389 209.407 107.094 208.653Z" fill="#FF6739"/>
<path d="M109.301 239.317L106.861 235.626C106.509 235.022 106.502 234.276 106.843 233.669C107.183 233.062 107.82 232.687 108.512 232.684C109.205 232.681 109.848 233.052 110.2 233.656L112.598 237.375C113.134 238.297 112.831 239.479 111.92 240.016C111.01 240.552 109.837 240.239 109.301 239.317Z" fill="#FF6739"/>
<path d="M79.8367 181.085L78.3504 178.615C78.0399 178.083 78.0332 177.426 78.3327 176.891C78.6322 176.356 79.1925 176.025 79.8024 176.022C80.4124 176.019 80.9794 176.345 81.2898 176.877L82.583 179.457C82.9846 180.219 82.7236 181.161 81.9907 181.596C81.2577 182.032 80.3122 181.805 79.8444 181.083L79.8367 181.085Z" fill="#FF6739"/>
<path d="M66.1894 251.756L63.3439 243.813C62.5672 241.654 65.9848 240.746 66.7517 242.9L69.5972 250.843C70.3738 253.003 66.9618 253.9 66.1894 251.756Z" fill="#FF6739"/>
<path d="M60.853 184.331C59.4534 182.949 58.5452 181.14 58.2707 179.186C57.87 176.676 61.5414 176.192 61.6841 178.755C61.8086 180.132 62.2659 181.458 63.0158 182.618C63.3393 183.224 63.1838 183.975 62.6477 184.395C62.1117 184.815 61.3515 184.781 60.8488 184.316L60.853 184.331Z" fill="#FF6739"/>
<path d="M42.8505 147.088C40.1054 148.016 37.1648 148.206 34.3166 147.64C30.0872 146.964 25.013 145.197 21.2726 148.192C20.699 148.746 19.8609 148.919 19.1137 148.638C18.3666 148.357 17.8414 147.671 17.7609 146.871C17.6805 146.071 18.0589 145.297 18.7356 144.878C26.0764 139.442 34.2249 146.005 42.1087 144.135C42.9117 143.92 43.739 144.404 43.9566 145.216C44.1742 146.028 43.6996 146.86 42.8967 147.075L42.8505 147.088Z" fill="#FF6739"/>
<path d="M56.8459 106.142L57.6432 101.517C58.0468 99.2079 61.6921 100.166 61.2018 102.49L60.1753 107.059C59.9273 107.977 58.9878 108.515 58.0769 108.259C57.1661 108.004 56.6287 107.052 56.8766 106.134L56.8459 106.142Z" fill="#FF6739"/>
<path d="M75.036 142.455L84.1187 141.397C86.2693 141.146 86.3049 144.663 84.1047 144.852L75.0337 145.615C73.0188 145.788 73.0958 142.691 75.015 142.469L75.036 142.455Z" fill="#FF6739"/>
<path d="M142.013 145.112L134.258 140.786C132.036 139.539 134.024 136.038 136.221 137.342L143.835 141.88C145.904 143.11 144.085 146.291 141.99 145.118L142.013 145.112Z" fill="#FF6739"/>
<path d="M124.056 90.1253C123.424 88.6271 122.1 88.148 120.53 88.2269C118.669 88.3587 118.303 85.3632 120.104 84.9472C122.974 84.414 125.777 86.2082 126.533 89.0614C126.919 90.5006 124.666 91.5711 124.05 90.102L124.056 90.1253Z" fill="#FF6739"/>
<path d="M128.327 132.595C128.906 129.937 130.536 127.639 132.839 126.233C134.851 125.002 136.659 128.178 134.699 129.42C133.227 130.352 132.212 131.867 131.902 133.597C131.428 135.95 127.828 134.947 128.335 132.593L128.327 132.595Z" fill="#FF6739"/>
<path d="M175.622 121.627C175.086 119.627 178.163 118.803 178.699 120.802C179.235 122.802 176.16 123.634 175.622 121.627Z" fill="#FF6739"/>
<path d="M201.649 148.675C202.78 146.725 204.437 145.141 206.428 144.109C207.355 143.586 208.529 143.897 209.09 144.813C209.636 145.749 209.331 146.95 208.408 147.497C206.975 148.168 205.766 149.242 204.925 150.59C203.648 152.658 200.418 150.789 201.659 148.68L201.649 148.675Z" fill="#FF6739"/>
<path d="M241.292 128.999C239.5 126.862 238.06 124.449 237.028 121.853C236.824 120.837 237.435 119.84 238.425 119.575C239.415 119.309 240.443 119.867 240.774 120.849C241.536 122.824 242.603 124.666 243.935 126.306C245.458 128.174 242.878 130.884 241.292 128.999Z" fill="#FF6739"/>
<path d="M234.393 105.217C231.158 104.453 227.772 104.73 224.712 106.01C222.613 106.856 221.693 103.392 223.788 102.564C227.448 101.133 231.462 100.879 235.284 101.835C237.464 102.368 236.559 105.729 234.378 105.221L234.393 105.217Z" fill="#FF6739"/>
<path d="M214.139 107.694L216.257 112.922C216.511 113.904 215.94 114.907 214.973 115.175C214.003 115.413 213.016 114.835 212.734 113.866L210.616 108.638C210.357 107.655 210.93 106.649 211.9 106.385C212.869 106.151 213.854 106.727 214.139 107.694Z" fill="#FF6739"/>
<path d="M246.439 190.662L246.405 182.692C246.394 180.343 250.144 180.397 250 182.721L249.505 190.691C249.391 192.664 246.451 192.677 246.443 190.678L246.439 190.662Z" fill="#FF6739"/>
<path d="M271.843 104.125L273.74 100.098C274.181 99.3609 275.121 99.109 275.871 99.5274C276.604 99.9764 276.859 100.927 276.449 101.682L274.7 105.803C274.241 106.587 273.243 106.854 272.454 106.405C271.677 105.932 271.407 104.924 271.843 104.125Z" fill="#FF6739"/>
<path d="M267.32 66.07C264.309 66.0135 261.531 64.3892 259.977 61.7755C258.788 59.8595 261.855 58.0454 262.974 60.0052C263.999 61.7382 265.728 62.9293 267.696 63.2592C269.295 63.5645 268.902 66.0964 267.32 66.07Z" fill="#FF6739"/>
<path d="M296.146 81.1918C296.722 79.0615 297.335 76.9795 298.026 74.8515C298.717 72.7234 301.746 73.6879 301.153 75.7228C300.561 77.7576 299.845 79.9172 299.098 81.9933C298.438 83.8378 295.615 83.1184 296.138 81.1606L296.146 81.1918Z" fill="#FF6739"/>
<path d="M309.332 37.9095C308.091 37.9128 306.851 37.8358 305.618 37.679C304.701 37.6467 303.966 36.8936 303.947 35.9671C303.958 35.0338 304.709 34.2864 305.633 34.2897C307.008 34.4307 308.372 34.6611 309.718 34.9795C310.419 35.1923 310.864 35.8877 310.768 36.6182C310.672 37.3488 310.063 37.8967 309.332 37.9095Z" fill="#FF6739"/>
<path d="M139.198 80.0188C140.282 75.8178 142.549 71.7249 144.252 67.7416C145.195 65.5378 148.591 67.4126 147.517 69.6515C145.683 73.42 144.13 77.655 141.745 81.0955C140.877 82.3456 138.783 81.6392 139.198 80.0188Z" fill="#FF6739"/>
<path d="M165.266 114.611C166.432 116.467 167.541 118.362 168.804 120.15C169.535 121.188 168.537 122.415 167.482 122.481C165.372 122.588 163.279 122.016 161.504 120.847C159.649 119.677 161.361 116.65 163.186 117.895C164.474 118.746 165.947 119.268 167.477 119.414L166.146 121.738C165.16 119.784 164.008 117.917 162.914 116.017C162.534 115.363 162.749 114.526 163.394 114.146C164.039 113.766 164.87 113.987 165.25 114.641L165.266 114.611Z" fill="#FF6739"/>
<path d="M39.2449 105.968C38.1671 102.682 37.5165 99.2717 37.3095 95.8218C37.1631 93.4596 40.8098 93.4997 40.964 95.8598C41.1671 98.9786 41.7736 102.059 42.7681 105.024C43.5117 107.276 39.9864 108.212 39.2449 105.968Z" fill="#FF6739"/>
</svg>
