<svg width="135" height="75" viewBox="0 0 135 75" fill="none" xmlns="http://www.w3.org/2000/svg">
<path d="M9.80138 20.5623C8.85025 26.4833 13.0432 32.3307 18.4352 34.9497C21.3563 36.4471 24.6849 36.9548 27.9196 36.3965C32.0322 35.5726 35.5286 32.5987 37.5514 28.9214C40.8735 22.6616 40.2017 15.0331 35.8367 9.45019C31.2632 4.00694 23.8583 1.8595 17.0822 4.01137C13.6662 5.17683 10.4712 7.72209 9.64062 11.2319" fill="white"/>
<path d="M9.43893 20.5724C8.40073 28.9249 15.6279 36.1052 23.6187 37.1099C32.219 38.195 39.0778 31.0013 40.0959 22.8699C41.2269 14.6477 36.5374 6.73188 28.7829 3.77371C21.7165 1.13468 11.589 2.99004 9.15761 11.088C9.10699 11.3556 9.27048 11.6172 9.53321 11.689C9.79594 11.7609 10.0698 11.6188 10.1623 11.3626C12.52 3.68664 22.3394 2.38052 28.8365 5.04634C35.5376 7.83864 39.6533 14.6548 39.0041 21.8852C38.3745 29.3201 32.6477 36.3932 24.6971 36.0449C16.7465 35.6966 9.33176 28.724 10.169 20.5724C10.2159 20.1036 9.49921 20.117 9.43893 20.5724Z" fill="white"/>
<path d="M8.38198 20.1761C6.92181 29.4797 14.571 37.7049 23.6 38.8436C32.9772 40.0157 40.5929 32.2326 41.812 23.351C43.0444 14.3287 38.2285 5.57434 29.6617 2.2655C21.624 -0.829003 10.3043 1.48853 7.6184 10.6582C6.86152 13.257 10.8536 14.3354 11.6372 11.7767C13.7404 5.07868 22.5819 4.29501 28.1278 6.61253C34.1398 9.19334 37.7931 15.3653 37.1635 21.8774C36.621 28.4147 31.5706 34.4965 24.6516 34.2889C17.5114 34.0746 10.6995 27.8989 11.222 20.5646C11.3358 18.9437 8.60972 18.5552 8.35519 20.1761L8.38198 20.1761Z" fill="black"/>
<path d="M14.2557 16.5398C13.693 21.5031 14.7312 26.8548 19.4802 29.4537C22.9029 31.3291 28.4087 30.9741 30.5654 27.3773C31.4496 25.9104 29.2258 24.6981 28.3015 26.0377C26.3925 28.8107 21.6905 26.3391 19.9624 24.6244C17.91 22.4147 16.7212 19.5403 16.6134 16.5264C16.6134 15.8828 16.0916 15.361 15.4479 15.361C14.8043 15.361 14.2825 15.8828 14.2825 16.5264L14.2557 16.5398Z" fill="#FF6739"/>
<path d="M103.738 35.2565C99.8193 39.7978 100.322 46.9781 103.537 52.0352C105.239 54.8435 107.805 57.0244 110.851 58.251C114.783 59.6977 119.297 59.0279 122.968 56.9448C129.093 53.3629 132.532 46.5079 131.742 39.4562C130.705 32.4221 125.526 26.7089 118.627 24.9884C115.111 24.1847 111.052 24.6736 108.5 27.2256" fill="white"/>
<path d="M103.483 34.9984C98.3253 41.395 100.375 50.9397 106.296 56.1508C112.994 62.0719 123.041 59.7142 128.353 53.0831C133.494 46.8039 133.753 37.8464 128.982 31.2809C124.408 25.0986 114.622 21.1133 108.151 26.8535C107.649 27.3023 108.386 28.0391 108.895 27.597C115.184 22.0711 124.649 26.6928 128.614 32.7545C132.579 38.8163 131.889 46.6865 127.442 52.286C122.438 58.5755 113.034 60.7189 106.751 55.0055C101.393 50.136 99.4305 41.4285 104.072 35.4404C104.327 35.1122 103.764 34.6769 103.503 34.9984L103.483 34.9984Z" fill="white"/>
<path d="M102.706 34.2323C96.8518 41.0375 98.6536 51.5535 105.077 57.3808C112.445 64.0788 123.644 61.7077 129.619 54.36C135.346 47.3203 135.794 37.3201 130.201 30.0728C124.923 23.2274 114.16 19.3559 107.04 25.7526C105.03 27.5677 107.977 30.4412 110.007 28.7131C115.479 23.9843 123.785 28.4988 127.12 33.6362C130.566 39.1209 130.13 46.1927 126.035 51.2119C121.661 56.6842 113.557 58.64 107.951 53.804C102.92 49.4503 100.938 41.6069 104.983 36.0006C105.948 34.661 103.771 32.9798 102.693 34.2323L102.706 34.2323Z" fill="black"/>
<path d="M109.822 33.9534C106.881 37.6976 104.805 42.2924 106.875 46.9945C108.643 51.0133 113.7 53.8935 117.893 51.9309C119.232 51.308 118.268 48.9771 116.881 49.5263C113.365 50.9195 110.625 46.3715 110.136 43.4981C109.74 40.6929 110.272 37.8351 111.65 35.3599C112.233 34.2548 110.679 32.8549 109.822 33.9467L109.822 33.9534Z" fill="#FF6739"/>
<path d="M123.069 50.6907L123.156 50.5969C123.468 50.2794 123.588 49.8205 123.471 49.3912L123.35 49.0965C123.239 48.9131 123.085 48.7592 122.902 48.6477C122.61 48.4916 122.272 48.4487 121.95 48.5272C121.742 48.5794 121.552 48.6884 121.401 48.842C121.249 48.9949 121.139 49.1839 121.08 49.3912L121.04 49.5051L120.993 49.8333C120.988 49.9941 121.024 50.1534 121.1 50.2955C121.125 50.3974 121.179 50.4902 121.254 50.5634C121.338 50.6963 121.456 50.8048 121.595 50.8782L121.883 50.9988L122.212 51.0456C122.375 51.0543 122.537 51.0172 122.681 50.9385C122.828 50.8885 122.961 50.8034 123.069 50.6907Z" fill="#FF6739"/>
<path d="M124.96 42.9481L124.866 42.8611C124.723 42.7182 124.546 42.6145 124.351 42.5597C124.149 42.506 123.936 42.506 123.734 42.5597L123.453 42.6802C123.28 42.781 123.135 42.9238 123.031 43.0955C122.951 43.2271 122.905 43.3768 122.897 43.5309C122.857 43.6823 122.857 43.8416 122.897 43.993C122.949 44.1891 123.053 44.3674 123.199 44.5088C123.339 44.6552 123.518 44.7596 123.714 44.8102L123.828 44.8571L124.13 44.8973C124.283 44.9054 124.437 44.8706 124.572 44.7968C124.667 44.7719 124.752 44.7208 124.82 44.6494C124.946 44.5715 125.048 44.4602 125.114 44.3279L125.235 44.06L125.275 43.7519C125.283 43.6003 125.248 43.4495 125.175 43.3165C125.13 43.1754 125.049 43.0484 124.94 42.9481L124.96 42.9481Z" fill="#FF6739"/>
<path d="M118.471 37.8141L118.638 37.7471C118.809 37.7092 118.967 37.6259 119.094 37.506C119.241 37.4136 119.361 37.2843 119.442 37.1309L119.576 36.8161C119.623 36.6405 119.623 36.4558 119.576 36.2802C119.577 36.1629 119.547 36.0474 119.489 35.9453C119.434 35.7784 119.338 35.6284 119.208 35.51L118.94 35.3023C118.736 35.1843 118.505 35.1219 118.27 35.1215L118.096 35.1215C117.861 35.1237 117.63 35.186 117.426 35.3023L117.151 35.5167C116.984 35.6834 116.864 35.8914 116.803 36.1195C116.753 36.2969 116.753 36.4846 116.803 36.662C116.809 36.8411 116.865 37.015 116.964 37.1644C117.15 37.4675 117.441 37.6917 117.781 37.794C118.018 37.8603 118.268 37.8603 118.505 37.794L118.471 37.8141Z" fill="#FF6739"/>
<path d="M124.332 37.7207C124.332 37.1436 123.864 36.6758 123.287 36.6758C122.71 36.6758 122.242 37.1436 122.242 37.7207C122.242 38.2978 122.71 38.7656 123.287 38.7656C123.864 38.7656 124.332 38.2978 124.332 37.7207Z" fill="#FF6739"/>
<path d="M43.9558 70.4085C51.5581 70.4554 58.7786 70.4688 66.3474 71.5338C68.5578 71.8486 69.5692 68.5129 67.2919 68.1044C59.7164 66.7648 51.183 66.3294 43.6008 67.7829C42.0871 68.0709 42.4823 70.4018 43.9558 70.4085Z" fill="black"/>
<path d="M64.5835 47.7854C64.477 46.6685 64.7105 45.5455 65.2533 44.5637C66.0906 43.0767 63.7396 41.7371 62.9894 43.224C62.2612 44.6223 61.9629 46.2047 62.132 47.772C62.1531 48.4353 62.6878 48.967 63.3511 48.9844C64.0176 48.9771 64.5562 48.4386 64.5634 47.772L64.5835 47.7854Z" fill="black"/>
<path d="M85.1838 49.7362L85.1369 48.5708C85.175 47.99 84.8868 47.4363 84.3893 47.1344C83.8917 46.8324 83.2675 46.8324 82.77 47.1344C82.2724 47.4363 81.9842 47.99 82.0223 48.5708L81.9687 49.7362C81.9687 50.624 82.6885 51.3437 83.5763 51.3437C84.4641 51.3437 85.1838 50.624 85.1838 49.7362Z" fill="black"/>
<path d="M33.1098 59.7351C33.7852 58.6871 34.7045 57.8183 35.789 57.2032C37.4166 56.2655 35.9163 53.6867 34.3154 54.6848C32.8458 55.597 31.6168 56.8489 30.732 58.3352C29.8144 59.8757 32.1654 61.2288 33.1232 59.7351L33.1098 59.7351Z" fill="black"/>
<path d="M6.66194 49.6511L13.2662 50.8165C15.135 51.1514 15.9454 48.2914 14.0566 47.9565L7.45231 46.791C5.58355 46.4561 4.77309 49.3162 6.66194 49.6511Z" fill="black"/>
<path d="M77.0846 71.129C79.5467 69.8184 82.3576 69.3125 85.1222 69.6822C87.0111 69.9099 87.0044 66.9293 85.1222 66.7149C81.8374 66.3533 78.5209 67.0129 75.6244 68.6038C73.97 69.5013 75.4368 72.0064 77.0979 71.129L77.0846 71.129Z" fill="white"/>
<path d="M94.0749 68.7641L93.4922 73.4193C93.4995 74.2634 94.182 74.9458 95.026 74.9531C95.8657 74.9354 96.5421 74.2589 96.5599 73.4193L97.1426 68.7641C97.139 67.9185 96.4544 67.2339 95.6088 67.2303C94.7706 67.2514 94.0961 67.9259 94.0749 68.7641Z" fill="white"/>
<path d="M41.8088 46.7759C44.2429 46.0824 46.1456 44.1798 46.8391 41.7457C47.3883 39.9506 44.5014 39.1535 44.0192 40.9687C43.5638 42.5814 42.4188 43.9103 40.8912 44.599C39.6587 45.1885 40.5295 47.1376 41.8088 46.7759Z" fill="white"/>
<path d="M21.6791 65.1201C20.7481 63.5327 19.797 61.9921 18.7721 60.4315C17.7473 58.8708 15.4968 60.2975 16.4211 61.8046C17.3455 63.3117 18.3971 64.8924 19.4554 66.3995C20.3931 67.7391 22.5298 66.5535 21.6791 65.0933L21.6791 65.1201Z" fill="white"/>
<path d="M1.54414 33.1902C2.55321 32.9256 3.54432 32.5968 4.51137 32.2056C5.24947 31.9821 5.68258 31.219 5.49599 30.4708C5.28441 29.7233 4.51143 29.2846 3.76119 29.4862C2.67539 29.8953 1.61713 30.3741 0.593012 30.9196C0.0702851 31.2413 -0.140245 31.8958 0.0968952 32.4619C0.334035 33.028 0.94818 33.3371 1.54414 33.1902Z" fill="white"/>
</svg>
